<svg width="1600" height="1080" viewBox="0 0 1600 1080" fill="none" xmlns="http://www.w3.org/2000/svg">
<g clip-path="url(#clip0_1285_8707)">
<rect width="1600" height="1080" fill="white"/>
<g clip-path="url(#clip1_1285_8707)">
<mask id="path-1-inside-1_1285_8707" fill="white">
<path d="M0 0H1600V52H0V0Z"/>
</mask>
<path d="M0 0H1600V52H0V0Z" fill="white"/>
<path d="M1600 52V48H0V52V56H1600V52Z" fill="#DC0018" mask="url(#path-1-inside-1_1285_8707)"/>
<mask id="path-3-inside-2_1285_8707" fill="white">
<path d="M0 0H49V48H0V0Z"/>
</mask>
<path d="M49 0H48V48H49H50V0H49Z" fill="#D7D7D7" mask="url(#path-3-inside-2_1285_8707)"/>
<g clip-path="url(#clip2_1285_8707)">
<path d="M24.5001 13.5C21.3501 13.5 18.2001 14.025 14.9751 15.075C14.9751 22.5 14.9751 30.3 24.5001 34.5C34.0251 30.3 34.0251 22.5 34.0251 15.075C30.8001 14.025 27.6501 13.5 24.5001 13.5ZM26.3751 24.9V29.325H22.5501V24.9H18.2001V21.075H22.6251V16.65H26.4501V21.075H30.8751V24.9H26.3751Z" fill="#DC0018"/>
</g>
<mask id="path-6-inside-3_1285_8707" fill="white">
<path d="M49 0H98V48H49V0Z"/>
</mask>
<path d="M98 0H97V48H98H99V0H98Z" fill="#D7D7D7" mask="url(#path-6-inside-3_1285_8707)"/>
<g clip-path="url(#clip3_1285_8707)">
<path fill-rule="evenodd" clip-rule="evenodd" d="M70.9054 18.5304L69.8448 17.4697L63.3145 24.0001L69.8448 30.5304L70.9054 29.4697L66.1857 24.75H82.375V23.25H66.1858L70.9054 18.5304Z" fill="#212121"/>
</g>
<rect x="122" y="18" width="100" height="12" fill="#C8C8C8"/>
<g clip-path="url(#clip4_1285_8707)">
<path d="M1572.25 24.3662V22.75H1571V24.625C1571 24.7907 1571.07 24.9497 1571.18 25.0669L1572.88 26.7588V27.75H1559.12V26.7588L1560.82 25.0669C1560.93 24.9497 1561 24.7907 1561 24.625V22.125C1561 21.2468 1561.23 20.3837 1561.67 19.6229C1562.11 18.8621 1562.74 18.2305 1563.5 17.792C1564.26 17.3534 1565.12 17.1233 1566 17.125C1566.88 17.1267 1567.74 17.3601 1568.5 17.8016V16.4042C1567.91 16.1408 1567.27 15.9729 1566.62 15.9068V14.625H1565.38V15.9068C1563.83 16.0635 1562.41 16.786 1561.37 17.9346C1560.33 19.0832 1559.75 20.5762 1559.75 22.125V24.3662L1558.06 26.0581C1557.94 26.1753 1557.88 26.3343 1557.88 26.5V28.375C1557.88 28.5408 1557.94 28.6997 1558.06 28.8169C1558.18 28.9342 1558.33 29 1558.5 29H1562.88V29.625C1562.88 30.4538 1563.2 31.2487 1563.79 31.8347C1564.38 32.4208 1565.17 32.75 1566 32.75C1566.83 32.75 1567.62 32.4208 1568.21 31.8347C1568.8 31.2487 1569.12 30.4538 1569.12 29.625V29H1573.5C1573.67 29 1573.82 28.9342 1573.94 28.8169C1574.06 28.6997 1574.12 28.5408 1574.12 28.375V26.5C1574.12 26.3343 1574.06 26.1753 1573.94 26.0581L1572.25 24.3662ZM1567.88 29.625C1567.88 30.1223 1567.68 30.5992 1567.33 30.9508C1566.97 31.3025 1566.5 31.5 1566 31.5C1565.5 31.5 1565.03 31.3025 1564.67 30.9508C1564.32 30.5992 1564.12 30.1223 1564.12 29.625V29H1567.88V29.625Z" fill="black"/>
<path d="M1572.25 21.5C1573.63 21.5 1574.75 20.3807 1574.75 19C1574.75 17.6193 1573.63 16.5 1572.25 16.5C1570.87 16.5 1569.75 17.6193 1569.75 19C1569.75 20.3807 1570.87 21.5 1572.25 21.5Z" fill="black"/>
</g>
</g>
<g clip-path="url(#clip5_1285_8707)">
<mask id="path-12-inside-4_1285_8707" fill="white">
<path d="M0 68H1600V168H0V68Z"/>
</mask>
<path d="M0 68H1600V168H0V68Z" fill="white"/>
<path d="M1600 168V166H0V168V170H1600V168Z" fill="#D9D9D9" mask="url(#path-12-inside-4_1285_8707)"/>
<rect width="1600" height="52" transform="translate(0 68)" fill="white"/>
<rect width="1552" height="36" transform="translate(24 76)" fill="white"/>
<rect x="24" y="76" width="140" height="18" fill="#848484"/>
<g clip-path="url(#clip6_1285_8707)">
<circle cx="40" cy="140" r="15.5" stroke="#848484"/>
<circle cx="40" cy="140" r="4" fill="#848484"/>
<rect x="68" y="135" width="80" height="10" fill="#848484"/>
<rect x="160" y="139.5" width="324" height="1" fill="#D9D9D9"/>
</g>
<g clip-path="url(#clip7_1285_8707)">
<circle cx="516" cy="140" r="15.5" stroke="#848484"/>
<circle cx="516" cy="140" r="4" fill="#848484"/>
<rect x="544" y="135" width="80" height="10" fill="#848484"/>
<rect x="636" y="139.5" width="324" height="1" fill="#D9D9D9"/>
</g>
<g clip-path="url(#clip8_1285_8707)">
<circle cx="992" cy="140" r="15.5" stroke="#848484"/>
<circle cx="992" cy="140" r="4" fill="#848484"/>
<rect x="1020" y="135" width="80" height="10" fill="#848484"/>
<rect x="1112" y="139.5" width="324" height="1" fill="#D9D9D9"/>
</g>
<g clip-path="url(#clip9_1285_8707)">
<circle cx="1468" cy="140" r="15.5" stroke="#006699"/>
<circle cx="1468" cy="140" r="4" fill="#006699"/>
<rect x="1496" y="135" width="80" height="10" fill="#006699"/>
</g>
<rect width="1600" height="856" transform="translate(0 168)" fill="#F2F4F6"/>
<g clip-path="url(#clip10_1285_8707)">
<mask id="path-30-inside-5_1285_8707" fill="white">
<path d="M0 168H1600V412H0V168Z"/>
</mask>
<rect width="1600" height="60" transform="translate(0 168)" fill="#F2F4F6"/>
<rect x="24" y="192" width="110" height="12" fill="#C8C8C8"/>
<rect width="110" height="12" transform="translate(25 228)" fill="#D9D9D9"/>
<g clip-path="url(#clip11_1285_8707)">
<rect x="24" y="260" width="64" height="8" fill="#D9D9D9"/>
<rect x="24.5" y="276.5" width="159" height="35" fill="white"/>
<rect x="24.5" y="276.5" width="159" height="35" stroke="#C8C8C8"/>
<rect x="36" y="289" width="80" height="10" fill="#848484"/>
<rect x="418" y="260" width="64" height="8" fill="#D9D9D9"/>
<rect x="418.5" y="276.5" width="159" height="35" fill="white"/>
<rect x="418.5" y="276.5" width="159" height="35" stroke="#C8C8C8"/>
<rect x="430" y="289" width="80" height="10" fill="#848484"/>
<rect x="812" y="260" width="64" height="8" fill="#D9D9D9"/>
<rect x="812.5" y="276.5" width="159" height="35" fill="white"/>
<rect x="812.5" y="276.5" width="159" height="35" stroke="#C8C8C8"/>
<rect x="824" y="289" width="80" height="10" fill="#848484"/>
<rect x="1206" y="260" width="64" height="8" fill="#D9D9D9"/>
<rect x="1206.5" y="276.5" width="159" height="35" fill="white"/>
<rect x="1206.5" y="276.5" width="159" height="35" stroke="#C8C8C8"/>
<rect x="1218" y="289" width="80" height="10" fill="#848484"/>
</g>
<g clip-path="url(#clip12_1285_8707)">
<rect x="24" y="336" width="64" height="8" fill="#D9D9D9"/>
<rect x="24.5" y="352.5" width="159" height="35" fill="white"/>
<rect x="24.5" y="352.5" width="159" height="35" stroke="#C8C8C8"/>
<rect x="36" y="365" width="80" height="10" fill="#848484"/>
<rect x="812" y="336" width="64" height="8" fill="#D9D9D9"/>
<rect x="812.5" y="352.5" width="159" height="35" fill="white"/>
<rect x="812.5" y="352.5" width="159" height="35" stroke="#C8C8C8"/>
<rect x="824" y="365" width="80" height="10" fill="#848484"/>
</g>
</g>
<path d="M1600 412V411H0V412V413H1600V412Z" fill="#D7D7D7" mask="url(#path-30-inside-5_1285_8707)"/>
<rect width="1600" height="56" transform="translate(0 1024)" fill="white"/>
<rect x="1180.5" y="1034.5" width="96" height="35" fill="white"/>
<rect x="1180.5" y="1034.5" width="96" height="35" stroke="#006699"/>
<path d="M1202.9 1054.48C1202.9 1054.25 1202.86 1054.05 1202.79 1053.87C1202.72 1053.69 1202.6 1053.52 1202.42 1053.38C1202.25 1053.23 1202.01 1053.09 1201.7 1052.96C1201.39 1052.83 1201 1052.69 1200.53 1052.56C1200.04 1052.41 1199.6 1052.25 1199.2 1052.07C1198.8 1051.89 1198.47 1051.68 1198.18 1051.45C1197.9 1051.22 1197.68 1050.95 1197.53 1050.65C1197.38 1050.35 1197.31 1050 1197.31 1049.62C1197.31 1049.23 1197.39 1048.87 1197.55 1048.54C1197.71 1048.22 1197.93 1047.93 1198.23 1047.69C1198.53 1047.44 1198.89 1047.25 1199.3 1047.12C1199.72 1046.98 1200.18 1046.91 1200.69 1046.91C1201.44 1046.91 1202.07 1047.05 1202.59 1047.34C1203.12 1047.62 1203.51 1047.99 1203.79 1048.46C1204.06 1048.91 1204.2 1049.4 1204.2 1049.92H1202.89C1202.89 1049.54 1202.81 1049.21 1202.65 1048.93C1202.49 1048.64 1202.25 1048.41 1201.92 1048.24C1201.6 1048.07 1201.19 1047.99 1200.69 1047.99C1200.22 1047.99 1199.83 1048.06 1199.53 1048.2C1199.22 1048.34 1199 1048.53 1198.85 1048.78C1198.7 1049.02 1198.63 1049.29 1198.63 1049.6C1198.63 1049.81 1198.67 1050 1198.76 1050.18C1198.85 1050.35 1198.99 1050.5 1199.17 1050.65C1199.37 1050.8 1199.61 1050.93 1199.9 1051.05C1200.19 1051.18 1200.55 1051.29 1200.96 1051.41C1201.52 1051.57 1202.01 1051.75 1202.42 1051.94C1202.83 1052.14 1203.17 1052.36 1203.43 1052.6C1203.7 1052.85 1203.9 1053.12 1204.03 1053.43C1204.16 1053.74 1204.23 1054.08 1204.23 1054.47C1204.23 1054.88 1204.14 1055.24 1203.98 1055.57C1203.82 1055.9 1203.58 1056.18 1203.28 1056.41C1202.97 1056.64 1202.6 1056.82 1202.17 1056.95C1201.75 1057.08 1201.28 1057.14 1200.75 1057.14C1200.29 1057.14 1199.84 1057.07 1199.39 1056.95C1198.95 1056.82 1198.55 1056.63 1198.18 1056.37C1197.82 1056.12 1197.53 1055.8 1197.31 1055.43C1197.1 1055.05 1196.99 1054.61 1196.99 1054.12H1198.31C1198.31 1054.46 1198.37 1054.75 1198.5 1055C1198.64 1055.24 1198.82 1055.44 1199.04 1055.6C1199.28 1055.76 1199.54 1055.88 1199.83 1055.95C1200.13 1056.03 1200.43 1056.06 1200.75 1056.06C1201.21 1056.06 1201.6 1056 1201.92 1055.87C1202.24 1055.74 1202.48 1055.56 1202.65 1055.33C1202.82 1055.09 1202.9 1054.81 1202.9 1054.48ZM1210.08 1055.74V1051.93C1210.08 1051.64 1210.02 1051.38 1209.9 1051.17C1209.79 1050.95 1209.61 1050.78 1209.38 1050.66C1209.15 1050.54 1208.86 1050.49 1208.52 1050.49C1208.2 1050.49 1207.92 1050.54 1207.68 1050.65C1207.44 1050.76 1207.25 1050.9 1207.12 1051.08C1206.99 1051.26 1206.92 1051.45 1206.92 1051.65H1205.65C1205.65 1051.39 1205.72 1051.13 1205.86 1050.87C1206 1050.61 1206.19 1050.37 1206.45 1050.16C1206.71 1049.95 1207.02 1049.78 1207.38 1049.66C1207.74 1049.53 1208.15 1049.47 1208.59 1049.47C1209.13 1049.47 1209.61 1049.56 1210.02 1049.74C1210.43 1049.92 1210.75 1050.2 1210.99 1050.57C1211.22 1050.93 1211.34 1051.39 1211.34 1051.94V1055.39C1211.34 1055.63 1211.36 1055.89 1211.4 1056.17C1211.45 1056.45 1211.51 1056.69 1211.6 1056.89V1057H1210.28C1210.22 1056.85 1210.17 1056.66 1210.13 1056.42C1210.1 1056.17 1210.08 1055.94 1210.08 1055.74ZM1210.3 1052.52L1210.31 1053.4H1209.03C1208.67 1053.4 1208.35 1053.43 1208.07 1053.49C1207.78 1053.55 1207.55 1053.63 1207.36 1053.75C1207.17 1053.86 1207.02 1054 1206.92 1054.18C1206.82 1054.35 1206.77 1054.54 1206.77 1054.77C1206.77 1055 1206.82 1055.22 1206.93 1055.41C1207.03 1055.6 1207.19 1055.75 1207.4 1055.87C1207.61 1055.97 1207.87 1056.03 1208.18 1056.03C1208.57 1056.03 1208.91 1055.95 1209.21 1055.78C1209.51 1055.62 1209.74 1055.42 1209.91 1055.18C1210.09 1054.94 1210.19 1054.71 1210.2 1054.49L1210.74 1055.1C1210.71 1055.29 1210.62 1055.5 1210.48 1055.74C1210.34 1055.97 1210.15 1056.19 1209.91 1056.41C1209.68 1056.61 1209.4 1056.79 1209.08 1056.93C1208.76 1057.07 1208.4 1057.14 1208 1057.14C1207.5 1057.14 1207.06 1057.04 1206.68 1056.84C1206.31 1056.65 1206.01 1056.38 1205.8 1056.06C1205.6 1055.72 1205.5 1055.35 1205.5 1054.94C1205.5 1054.55 1205.57 1054.2 1205.73 1053.9C1205.88 1053.59 1206.11 1053.34 1206.4 1053.14C1206.69 1052.93 1207.04 1052.78 1207.45 1052.67C1207.86 1052.57 1208.32 1052.52 1208.83 1052.52H1210.3ZM1215.47 1055.86L1217.49 1049.6H1218.79L1216.13 1057H1215.28L1215.47 1055.86ZM1213.78 1049.6L1215.87 1055.89L1216.01 1057H1215.16L1212.48 1049.6H1213.78ZM1222.98 1057.14C1222.46 1057.14 1221.99 1057.05 1221.58 1056.88C1221.16 1056.7 1220.8 1056.45 1220.5 1056.13C1220.21 1055.81 1219.98 1055.43 1219.82 1055C1219.66 1054.56 1219.58 1054.08 1219.58 1053.56V1053.27C1219.58 1052.67 1219.67 1052.14 1219.85 1051.67C1220.02 1051.19 1220.26 1050.79 1220.57 1050.46C1220.88 1050.14 1221.22 1049.89 1221.61 1049.72C1222 1049.55 1222.4 1049.47 1222.81 1049.47C1223.34 1049.47 1223.8 1049.56 1224.18 1049.74C1224.57 1049.92 1224.88 1050.18 1225.13 1050.51C1225.38 1050.83 1225.56 1051.21 1225.68 1051.65C1225.8 1052.09 1225.85 1052.57 1225.85 1053.09V1053.66H1220.33V1052.62H1224.59V1052.53C1224.57 1052.2 1224.5 1051.88 1224.38 1051.57C1224.27 1051.26 1224.09 1051.01 1223.84 1050.81C1223.59 1050.61 1223.25 1050.51 1222.81 1050.51C1222.53 1050.51 1222.26 1050.57 1222.02 1050.69C1221.78 1050.81 1221.57 1050.99 1221.4 1051.22C1221.22 1051.46 1221.09 1051.75 1220.99 1052.09C1220.9 1052.43 1220.85 1052.83 1220.85 1053.27V1053.56C1220.85 1053.91 1220.9 1054.24 1220.99 1054.55C1221.09 1054.86 1221.24 1055.13 1221.42 1055.36C1221.62 1055.59 1221.85 1055.77 1222.12 1055.91C1222.39 1056.04 1222.7 1056.1 1223.04 1056.1C1223.49 1056.1 1223.87 1056.01 1224.18 1055.83C1224.49 1055.65 1224.76 1055.4 1224.99 1055.1L1225.76 1055.71C1225.6 1055.95 1225.4 1056.18 1225.15 1056.4C1224.9 1056.62 1224.6 1056.79 1224.24 1056.93C1223.89 1057.07 1223.46 1057.14 1222.98 1057.14ZM1233.69 1057H1231.61L1231.62 1055.93H1233.69C1234.4 1055.93 1234.99 1055.78 1235.47 1055.48C1235.94 1055.18 1236.3 1054.76 1236.53 1054.22C1236.77 1053.68 1236.89 1053.05 1236.89 1052.32V1051.72C1236.89 1051.15 1236.83 1050.64 1236.69 1050.2C1236.55 1049.75 1236.35 1049.38 1236.09 1049.07C1235.82 1048.76 1235.5 1048.53 1235.12 1048.37C1234.74 1048.21 1234.3 1048.13 1233.81 1048.13H1231.57V1047.05H1233.81C1234.46 1047.05 1235.06 1047.16 1235.6 1047.38C1236.13 1047.59 1236.6 1047.9 1236.98 1048.31C1237.38 1048.72 1237.68 1049.21 1237.89 1049.79C1238.1 1050.36 1238.2 1051.01 1238.2 1051.73V1052.32C1238.2 1053.04 1238.1 1053.69 1237.89 1054.27C1237.68 1054.85 1237.37 1055.34 1236.98 1055.74C1236.58 1056.15 1236.11 1056.46 1235.55 1056.68C1235 1056.89 1234.38 1057 1233.69 1057ZM1232.31 1047.05V1057H1231V1047.05H1232.31ZM1241.26 1050.77V1057H1239.99V1049.6H1241.22L1241.26 1050.77ZM1243.57 1049.56L1243.56 1050.74C1243.45 1050.72 1243.35 1050.7 1243.26 1050.7C1243.17 1050.69 1243.06 1050.68 1242.94 1050.68C1242.65 1050.68 1242.4 1050.73 1242.17 1050.82C1241.95 1050.91 1241.76 1051.04 1241.6 1051.2C1241.45 1051.37 1241.33 1051.56 1241.24 1051.79C1241.15 1052.01 1241.09 1052.26 1241.06 1052.53L1240.71 1052.73C1240.71 1052.29 1240.75 1051.87 1240.84 1051.48C1240.93 1051.08 1241.07 1050.74 1241.26 1050.44C1241.44 1050.13 1241.68 1049.9 1241.97 1049.73C1242.26 1049.55 1242.6 1049.47 1243.01 1049.47C1243.1 1049.47 1243.2 1049.48 1243.32 1049.5C1243.44 1049.52 1243.52 1049.54 1243.57 1049.56ZM1248.82 1055.74V1051.93C1248.82 1051.64 1248.76 1051.38 1248.65 1051.17C1248.53 1050.95 1248.36 1050.78 1248.13 1050.66C1247.89 1050.54 1247.61 1050.49 1247.26 1050.49C1246.95 1050.49 1246.67 1050.54 1246.42 1050.65C1246.19 1050.76 1246 1050.9 1245.86 1051.08C1245.73 1051.26 1245.67 1051.45 1245.67 1051.65H1244.4C1244.4 1051.39 1244.47 1051.13 1244.61 1050.87C1244.74 1050.61 1244.94 1050.37 1245.19 1050.16C1245.45 1049.95 1245.76 1049.78 1246.12 1049.66C1246.49 1049.53 1246.89 1049.47 1247.34 1049.47C1247.88 1049.47 1248.35 1049.56 1248.76 1049.74C1249.18 1049.92 1249.5 1050.2 1249.73 1050.57C1249.97 1050.93 1250.09 1051.39 1250.09 1051.94V1055.39C1250.09 1055.63 1250.11 1055.89 1250.15 1056.17C1250.19 1056.45 1250.26 1056.69 1250.35 1056.89V1057H1249.03C1248.96 1056.85 1248.91 1056.66 1248.88 1056.42C1248.84 1056.17 1248.82 1055.94 1248.82 1055.74ZM1249.04 1052.52L1249.06 1053.4H1247.78C1247.42 1053.4 1247.1 1053.43 1246.81 1053.49C1246.53 1053.55 1246.29 1053.63 1246.1 1053.75C1245.91 1053.86 1245.77 1054 1245.67 1054.18C1245.56 1054.35 1245.51 1054.54 1245.51 1054.77C1245.51 1055 1245.57 1055.22 1245.67 1055.41C1245.78 1055.6 1245.93 1055.75 1246.14 1055.87C1246.36 1055.97 1246.62 1056.03 1246.93 1056.03C1247.32 1056.03 1247.66 1055.95 1247.96 1055.78C1248.25 1055.62 1248.49 1055.42 1248.66 1055.18C1248.84 1054.94 1248.93 1054.71 1248.95 1054.49L1249.49 1055.1C1249.45 1055.29 1249.37 1055.5 1249.23 1055.74C1249.09 1055.97 1248.9 1056.19 1248.66 1056.41C1248.43 1056.61 1248.15 1056.79 1247.83 1056.93C1247.51 1057.07 1247.15 1057.14 1246.75 1057.14C1246.24 1057.14 1245.8 1057.04 1245.43 1056.84C1245.05 1056.65 1244.76 1056.38 1244.55 1056.06C1244.35 1055.72 1244.24 1055.35 1244.24 1054.94C1244.24 1054.55 1244.32 1054.2 1244.48 1053.9C1244.63 1053.59 1244.85 1053.34 1245.15 1053.14C1245.44 1052.93 1245.79 1052.78 1246.2 1052.67C1246.61 1052.57 1247.07 1052.52 1247.57 1052.52H1249.04ZM1253.96 1057H1252.7V1048.82C1252.7 1048.29 1252.79 1047.84 1252.99 1047.48C1253.18 1047.11 1253.46 1046.83 1253.83 1046.64C1254.19 1046.45 1254.62 1046.36 1255.13 1046.36C1255.27 1046.36 1255.42 1046.37 1255.56 1046.38C1255.71 1046.4 1255.86 1046.43 1256 1046.47L1255.93 1047.5C1255.84 1047.48 1255.73 1047.46 1255.6 1047.45C1255.49 1047.44 1255.37 1047.44 1255.25 1047.44C1254.98 1047.44 1254.75 1047.49 1254.55 1047.6C1254.36 1047.71 1254.21 1047.86 1254.11 1048.07C1254.01 1048.27 1253.96 1048.52 1253.96 1048.82V1057ZM1255.54 1049.6V1050.57H1251.53V1049.6H1255.54ZM1260.04 1049.6V1050.57H1256.04V1049.6H1260.04ZM1257.4 1047.81H1258.66V1055.17C1258.66 1055.42 1258.7 1055.61 1258.78 1055.74C1258.85 1055.86 1258.95 1055.95 1259.08 1055.99C1259.2 1056.03 1259.33 1056.05 1259.47 1056.05C1259.58 1056.05 1259.69 1056.04 1259.8 1056.02C1259.92 1056 1260.01 1055.98 1260.07 1055.97L1260.08 1057C1259.97 1057.03 1259.84 1057.06 1259.68 1057.09C1259.52 1057.12 1259.33 1057.14 1259.1 1057.14C1258.79 1057.14 1258.5 1057.08 1258.24 1056.95C1257.98 1056.83 1257.78 1056.62 1257.62 1056.34C1257.47 1056.05 1257.4 1055.65 1257.4 1055.16V1047.81Z" fill="#006699"/>
<rect x="1293.5" y="1034.5" width="74" height="35" fill="white"/>
<rect x="1293.5" y="1034.5" width="74" height="35" stroke="#006699"/>
<path d="M1316.35 1053.83H1317.66C1317.59 1054.46 1317.41 1055.03 1317.12 1055.52C1316.83 1056.02 1316.42 1056.41 1315.88 1056.71C1315.35 1056.99 1314.69 1057.14 1313.89 1057.14C1313.31 1057.14 1312.77 1057.03 1312.3 1056.81C1311.82 1056.59 1311.41 1056.28 1311.07 1055.88C1310.73 1055.47 1310.47 1054.99 1310.28 1054.42C1310.1 1053.85 1310.01 1053.22 1310.01 1052.52V1051.53C1310.01 1050.83 1310.1 1050.2 1310.28 1049.64C1310.47 1049.07 1310.73 1048.58 1311.08 1048.17C1311.43 1047.77 1311.85 1047.46 1312.34 1047.24C1312.84 1047.02 1313.39 1046.91 1314 1046.91C1314.76 1046.91 1315.39 1047.05 1315.91 1047.33C1316.43 1047.62 1316.83 1048.01 1317.12 1048.51C1317.41 1049.01 1317.59 1049.58 1317.66 1050.24H1316.35C1316.29 1049.77 1316.17 1049.38 1315.99 1049.04C1315.82 1048.71 1315.57 1048.45 1315.26 1048.26C1314.94 1048.08 1314.52 1047.99 1314 1047.99C1313.56 1047.99 1313.17 1048.07 1312.84 1048.24C1312.5 1048.41 1312.22 1048.65 1312 1048.96C1311.77 1049.27 1311.6 1049.64 1311.49 1050.08C1311.38 1050.51 1311.32 1050.99 1311.32 1051.52V1052.52C1311.32 1053.01 1311.37 1053.47 1311.47 1053.9C1311.57 1054.32 1311.73 1054.7 1311.94 1055.02C1312.15 1055.35 1312.42 1055.6 1312.74 1055.79C1313.06 1055.97 1313.45 1056.06 1313.89 1056.06C1314.45 1056.06 1314.9 1055.97 1315.23 1055.8C1315.56 1055.62 1315.81 1055.36 1315.98 1055.03C1316.15 1054.7 1316.28 1054.3 1316.35 1053.83ZM1323.63 1055.74V1051.93C1323.63 1051.64 1323.57 1051.38 1323.45 1051.17C1323.34 1050.95 1323.17 1050.78 1322.93 1050.66C1322.7 1050.54 1322.41 1050.49 1322.07 1050.49C1321.75 1050.49 1321.47 1050.54 1321.23 1050.65C1320.99 1050.76 1320.81 1050.9 1320.67 1051.08C1320.54 1051.26 1320.47 1051.45 1320.47 1051.65H1319.21C1319.21 1051.39 1319.28 1051.13 1319.41 1050.87C1319.55 1050.61 1319.74 1050.37 1320 1050.16C1320.26 1049.95 1320.57 1049.78 1320.93 1049.66C1321.29 1049.53 1321.7 1049.47 1322.15 1049.47C1322.68 1049.47 1323.16 1049.56 1323.57 1049.74C1323.98 1049.92 1324.31 1050.2 1324.54 1050.57C1324.78 1050.93 1324.89 1051.39 1324.89 1051.94V1055.39C1324.89 1055.63 1324.92 1055.89 1324.96 1056.17C1325 1056.45 1325.07 1056.69 1325.15 1056.89V1057H1323.83C1323.77 1056.85 1323.72 1056.66 1323.68 1056.42C1323.65 1056.17 1323.63 1055.94 1323.63 1055.74ZM1323.85 1052.52L1323.86 1053.4H1322.58C1322.22 1053.4 1321.9 1053.43 1321.62 1053.49C1321.34 1053.55 1321.1 1053.63 1320.91 1053.75C1320.72 1053.86 1320.57 1054 1320.47 1054.18C1320.37 1054.35 1320.32 1054.54 1320.32 1054.77C1320.32 1055 1320.37 1055.22 1320.48 1055.41C1320.58 1055.6 1320.74 1055.75 1320.95 1055.87C1321.16 1055.97 1321.43 1056.03 1321.74 1056.03C1322.12 1056.03 1322.47 1055.95 1322.76 1055.78C1323.06 1055.62 1323.29 1055.42 1323.47 1055.18C1323.64 1054.94 1323.74 1054.71 1323.75 1054.49L1324.29 1055.1C1324.26 1055.29 1324.17 1055.5 1324.03 1055.74C1323.89 1055.97 1323.7 1056.19 1323.47 1056.41C1323.23 1056.61 1322.96 1056.79 1322.63 1056.93C1322.31 1057.07 1321.95 1057.14 1321.55 1057.14C1321.05 1057.14 1320.61 1057.04 1320.23 1056.84C1319.86 1056.65 1319.57 1056.38 1319.36 1056.06C1319.15 1055.72 1319.05 1055.35 1319.05 1054.94C1319.05 1054.55 1319.13 1054.2 1319.28 1053.9C1319.44 1053.59 1319.66 1053.34 1319.95 1053.14C1320.24 1052.93 1320.59 1052.78 1321 1052.67C1321.42 1052.57 1321.87 1052.52 1322.38 1052.52H1323.85ZM1328.15 1051.18V1057H1326.88V1049.6H1328.08L1328.15 1051.18ZM1327.85 1053.02L1327.32 1053C1327.33 1052.5 1327.4 1052.03 1327.55 1051.6C1327.69 1051.17 1327.9 1050.79 1328.16 1050.47C1328.43 1050.15 1328.74 1049.91 1329.11 1049.73C1329.47 1049.56 1329.88 1049.47 1330.33 1049.47C1330.69 1049.47 1331.02 1049.52 1331.31 1049.62C1331.61 1049.71 1331.85 1049.87 1332.06 1050.08C1332.27 1050.3 1332.43 1050.57 1332.54 1050.92C1332.65 1051.25 1332.7 1051.67 1332.7 1052.15V1057H1331.43V1052.14C1331.43 1051.75 1331.37 1051.44 1331.26 1051.21C1331.14 1050.97 1330.98 1050.8 1330.76 1050.7C1330.54 1050.59 1330.27 1050.53 1329.95 1050.53C1329.64 1050.53 1329.35 1050.6 1329.09 1050.73C1328.84 1050.86 1328.62 1051.05 1328.43 1051.28C1328.25 1051.51 1328.1 1051.78 1328 1052.08C1327.9 1052.37 1327.85 1052.69 1327.85 1053.02ZM1337.58 1056.1C1337.88 1056.1 1338.16 1056.04 1338.42 1055.91C1338.67 1055.79 1338.88 1055.62 1339.04 1055.41C1339.21 1055.19 1339.3 1054.94 1339.33 1054.66H1340.53C1340.51 1055.1 1340.36 1055.51 1340.08 1055.89C1339.82 1056.26 1339.46 1056.56 1339.02 1056.79C1338.59 1057.02 1338.11 1057.14 1337.58 1057.14C1337.03 1057.14 1336.54 1057.04 1336.13 1056.84C1335.72 1056.65 1335.37 1056.38 1335.1 1056.04C1334.83 1055.69 1334.63 1055.3 1334.49 1054.86C1334.36 1054.41 1334.29 1053.94 1334.29 1053.45V1053.16C1334.29 1052.66 1334.36 1052.19 1334.49 1051.75C1334.63 1051.3 1334.83 1050.91 1335.1 1050.57C1335.37 1050.23 1335.72 1049.96 1336.13 1049.76C1336.54 1049.56 1337.03 1049.47 1337.58 1049.47C1338.16 1049.47 1338.67 1049.59 1339.1 1049.82C1339.53 1050.05 1339.87 1050.37 1340.12 1050.78C1340.37 1051.18 1340.51 1051.64 1340.53 1052.15H1339.33C1339.3 1051.84 1339.22 1051.57 1339.07 1051.32C1338.92 1051.07 1338.72 1050.88 1338.46 1050.73C1338.21 1050.58 1337.92 1050.51 1337.58 1050.51C1337.19 1050.51 1336.87 1050.58 1336.6 1050.74C1336.34 1050.89 1336.14 1051.09 1335.98 1051.35C1335.83 1051.61 1335.72 1051.89 1335.65 1052.21C1335.59 1052.52 1335.56 1052.83 1335.56 1053.16V1053.45C1335.56 1053.77 1335.59 1054.09 1335.65 1054.4C1335.72 1054.72 1335.83 1055 1335.98 1055.26C1336.13 1055.51 1336.34 1055.72 1336.6 1055.87C1336.86 1056.02 1337.19 1056.1 1337.58 1056.1ZM1345.02 1057.14C1344.5 1057.14 1344.04 1057.05 1343.62 1056.88C1343.2 1056.7 1342.85 1056.45 1342.54 1056.13C1342.25 1055.81 1342.02 1055.43 1341.86 1055C1341.7 1054.56 1341.62 1054.08 1341.62 1053.56V1053.27C1341.62 1052.67 1341.71 1052.14 1341.89 1051.67C1342.07 1051.19 1342.31 1050.79 1342.61 1050.46C1342.92 1050.14 1343.26 1049.89 1343.65 1049.72C1344.04 1049.55 1344.44 1049.47 1344.86 1049.47C1345.38 1049.47 1345.84 1049.56 1346.22 1049.74C1346.61 1049.92 1346.93 1050.18 1347.17 1050.51C1347.42 1050.83 1347.6 1051.21 1347.72 1051.65C1347.84 1052.09 1347.9 1052.57 1347.9 1053.09V1053.66H1342.37V1052.62H1346.63V1052.53C1346.61 1052.2 1346.55 1051.88 1346.43 1051.57C1346.31 1051.26 1346.13 1051.01 1345.88 1050.81C1345.63 1050.61 1345.29 1050.51 1344.86 1050.51C1344.57 1050.51 1344.3 1050.57 1344.06 1050.69C1343.82 1050.81 1343.61 1050.99 1343.44 1051.22C1343.27 1051.46 1343.13 1051.75 1343.04 1052.09C1342.94 1052.43 1342.89 1052.83 1342.89 1053.27V1053.56C1342.89 1053.91 1342.94 1054.24 1343.04 1054.55C1343.14 1054.86 1343.28 1055.13 1343.47 1055.36C1343.66 1055.59 1343.89 1055.77 1344.16 1055.91C1344.43 1056.04 1344.74 1056.1 1345.09 1056.1C1345.53 1056.1 1345.91 1056.01 1346.22 1055.83C1346.53 1055.65 1346.8 1055.4 1347.04 1055.1L1347.8 1055.71C1347.64 1055.95 1347.44 1056.18 1347.19 1056.4C1346.95 1056.62 1346.64 1056.79 1346.28 1056.93C1345.93 1057.07 1345.51 1057.14 1345.02 1057.14ZM1350.75 1046.5V1057H1349.48V1046.5H1350.75Z" fill="#006699"/>
<rect x="1384" y="1034" width="1" height="36" fill="#D7D7D7"/>
<rect x="1401.5" y="1034.5" width="85" height="35" fill="white"/>
<rect x="1401.5" y="1034.5" width="85" height="35" stroke="#006699"/>
<path d="M1421.88 1053.1H1419.22V1052.02H1421.88C1422.39 1052.02 1422.81 1051.94 1423.13 1051.78C1423.45 1051.61 1423.68 1051.39 1423.83 1051.09C1423.98 1050.8 1424.05 1050.47 1424.05 1050.1C1424.05 1049.75 1423.98 1049.43 1423.83 1049.13C1423.68 1048.83 1423.45 1048.59 1423.13 1048.41C1422.81 1048.22 1422.39 1048.13 1421.88 1048.13H1419.53V1057H1418.21V1047.05H1421.88C1422.63 1047.05 1423.27 1047.18 1423.79 1047.44C1424.31 1047.7 1424.7 1048.06 1424.97 1048.52C1425.24 1048.97 1425.37 1049.49 1425.37 1050.08C1425.37 1050.72 1425.24 1051.26 1424.97 1051.72C1424.7 1052.17 1424.31 1052.51 1423.79 1052.75C1423.27 1052.98 1422.63 1053.1 1421.88 1053.1ZM1428.11 1050.77V1057H1426.85V1049.6H1428.08L1428.11 1050.77ZM1430.42 1049.56L1430.42 1050.74C1430.31 1050.72 1430.21 1050.7 1430.12 1050.7C1430.03 1050.69 1429.92 1050.68 1429.8 1050.68C1429.51 1050.68 1429.25 1050.73 1429.03 1050.82C1428.81 1050.91 1428.62 1051.04 1428.46 1051.2C1428.31 1051.37 1428.18 1051.56 1428.09 1051.79C1428.01 1052.01 1427.95 1052.26 1427.92 1052.53L1427.57 1052.73C1427.57 1052.29 1427.61 1051.87 1427.7 1051.48C1427.79 1051.08 1427.93 1050.74 1428.11 1050.44C1428.3 1050.13 1428.54 1049.9 1428.82 1049.73C1429.12 1049.55 1429.46 1049.47 1429.86 1049.47C1429.95 1049.47 1430.06 1049.48 1430.18 1049.5C1430.3 1049.52 1430.38 1049.54 1430.42 1049.56ZM1434.53 1057.14C1434.01 1057.14 1433.54 1057.05 1433.12 1056.88C1432.71 1056.7 1432.35 1056.45 1432.05 1056.13C1431.75 1055.81 1431.53 1055.43 1431.37 1055C1431.21 1054.56 1431.13 1054.08 1431.13 1053.56V1053.27C1431.13 1052.67 1431.22 1052.14 1431.39 1051.67C1431.57 1051.19 1431.81 1050.79 1432.12 1050.46C1432.42 1050.14 1432.77 1049.89 1433.16 1049.72C1433.55 1049.55 1433.95 1049.47 1434.36 1049.47C1434.89 1049.47 1435.35 1049.56 1435.73 1049.74C1436.12 1049.92 1436.43 1050.18 1436.68 1050.51C1436.92 1050.83 1437.11 1051.21 1437.23 1051.65C1437.34 1052.09 1437.4 1052.57 1437.4 1053.09V1053.66H1431.88V1052.62H1436.14V1052.53C1436.12 1052.2 1436.05 1051.88 1435.93 1051.57C1435.82 1051.26 1435.64 1051.01 1435.39 1050.81C1435.14 1050.61 1434.79 1050.51 1434.36 1050.51C1434.07 1050.51 1433.81 1050.57 1433.57 1050.69C1433.33 1050.81 1433.12 1050.99 1432.95 1051.22C1432.77 1051.46 1432.64 1051.75 1432.54 1052.09C1432.45 1052.43 1432.4 1052.83 1432.4 1053.27V1053.56C1432.4 1053.91 1432.45 1054.24 1432.54 1054.55C1432.64 1054.86 1432.79 1055.13 1432.97 1055.36C1433.17 1055.59 1433.4 1055.77 1433.66 1055.91C1433.94 1056.04 1434.25 1056.1 1434.59 1056.1C1435.04 1056.1 1435.42 1056.01 1435.73 1055.83C1436.04 1055.65 1436.31 1055.4 1436.54 1055.1L1437.31 1055.71C1437.15 1055.95 1436.95 1056.18 1436.7 1056.4C1436.45 1056.62 1436.15 1056.79 1435.79 1056.93C1435.43 1057.07 1435.01 1057.14 1434.53 1057.14ZM1441.03 1055.86L1443.06 1049.6H1444.35L1441.69 1057H1440.84L1441.03 1055.86ZM1439.34 1049.6L1441.43 1055.89L1441.57 1057H1440.73L1438.05 1049.6H1439.34ZM1446.94 1049.6V1057H1445.67V1049.6H1446.94ZM1445.57 1047.64C1445.57 1047.44 1445.63 1047.26 1445.76 1047.12C1445.88 1046.98 1446.07 1046.91 1446.32 1046.91C1446.56 1046.91 1446.74 1046.98 1446.87 1047.12C1447 1047.26 1447.07 1047.44 1447.07 1047.64C1447.07 1047.84 1447 1048.01 1446.87 1048.15C1446.74 1048.28 1446.56 1048.35 1446.32 1048.35C1446.07 1048.35 1445.88 1048.28 1445.76 1048.15C1445.63 1048.01 1445.57 1047.84 1445.57 1047.64ZM1448.63 1053.38V1053.23C1448.63 1052.69 1448.71 1052.2 1448.87 1051.74C1449.02 1051.28 1449.25 1050.88 1449.54 1050.55C1449.83 1050.21 1450.18 1049.94 1450.6 1049.75C1451.01 1049.56 1451.48 1049.47 1451.99 1049.47C1452.51 1049.47 1452.98 1049.56 1453.39 1049.75C1453.81 1049.94 1454.17 1050.21 1454.46 1050.55C1454.76 1050.88 1454.98 1051.28 1455.14 1051.74C1455.29 1052.2 1455.37 1052.69 1455.37 1053.23V1053.38C1455.37 1053.92 1455.29 1054.41 1455.14 1054.87C1454.98 1055.32 1454.76 1055.72 1454.46 1056.06C1454.17 1056.4 1453.81 1056.67 1453.4 1056.86C1452.99 1057.04 1452.52 1057.14 1452 1057.14C1451.49 1057.14 1451.02 1057.04 1450.6 1056.86C1450.19 1056.67 1449.83 1056.4 1449.54 1056.06C1449.25 1055.72 1449.02 1055.32 1448.87 1054.87C1448.71 1054.41 1448.63 1053.92 1448.63 1053.38ZM1449.9 1053.23V1053.38C1449.9 1053.75 1449.94 1054.1 1450.03 1054.43C1450.12 1054.75 1450.25 1055.04 1450.42 1055.29C1450.6 1055.54 1450.82 1055.74 1451.08 1055.89C1451.35 1056.03 1451.65 1056.1 1452 1056.1C1452.35 1056.1 1452.65 1056.03 1452.91 1055.89C1453.18 1055.74 1453.4 1055.54 1453.57 1055.29C1453.74 1055.04 1453.87 1054.75 1453.96 1054.43C1454.05 1054.1 1454.1 1053.75 1454.1 1053.38V1053.23C1454.1 1052.86 1454.05 1052.52 1453.96 1052.19C1453.87 1051.87 1453.74 1051.58 1453.56 1051.33C1453.39 1051.07 1453.17 1050.87 1452.91 1050.72C1452.65 1050.58 1452.34 1050.51 1451.99 1050.51C1451.64 1050.51 1451.34 1050.58 1451.08 1050.72C1450.82 1050.87 1450.6 1051.07 1450.42 1051.33C1450.25 1051.58 1450.12 1051.87 1450.03 1052.19C1449.94 1052.52 1449.9 1052.86 1449.9 1053.23ZM1461.48 1055.29V1049.6H1462.75V1057H1461.54L1461.48 1055.29ZM1461.72 1053.73L1462.25 1053.72C1462.25 1054.21 1462.19 1054.67 1462.09 1055.09C1461.99 1055.5 1461.82 1055.86 1461.6 1056.17C1461.37 1056.47 1461.07 1056.71 1460.7 1056.88C1460.33 1057.05 1459.88 1057.14 1459.35 1057.14C1458.99 1057.14 1458.66 1057.08 1458.36 1056.98C1458.07 1056.87 1457.81 1056.71 1457.6 1056.49C1457.38 1056.28 1457.22 1055.99 1457.1 1055.64C1456.98 1055.29 1456.93 1054.87 1456.93 1054.38V1049.6H1458.19V1054.39C1458.19 1054.72 1458.23 1055 1458.3 1055.22C1458.38 1055.43 1458.48 1055.6 1458.61 1055.73C1458.74 1055.85 1458.89 1055.94 1459.05 1055.99C1459.21 1056.04 1459.38 1056.06 1459.55 1056.06C1460.09 1056.06 1460.52 1055.96 1460.83 1055.76C1461.14 1055.55 1461.37 1055.27 1461.51 1054.92C1461.65 1054.56 1461.72 1054.17 1461.72 1053.73ZM1468.99 1055.04C1468.99 1054.86 1468.94 1054.69 1468.86 1054.53C1468.78 1054.37 1468.62 1054.23 1468.38 1054.1C1468.14 1053.97 1467.77 1053.86 1467.28 1053.76C1466.87 1053.67 1466.5 1053.57 1466.17 1053.45C1465.84 1053.33 1465.56 1053.19 1465.33 1053.02C1465.1 1052.85 1464.92 1052.65 1464.8 1052.43C1464.68 1052.2 1464.62 1051.93 1464.62 1051.63C1464.62 1051.34 1464.68 1051.06 1464.81 1050.8C1464.94 1050.54 1465.13 1050.31 1465.36 1050.11C1465.6 1049.91 1465.89 1049.75 1466.23 1049.64C1466.57 1049.52 1466.94 1049.47 1467.36 1049.47C1467.95 1049.47 1468.46 1049.57 1468.88 1049.78C1469.3 1049.99 1469.62 1050.27 1469.84 1050.62C1470.06 1050.97 1470.17 1051.35 1470.17 1051.78H1468.91C1468.91 1051.57 1468.85 1051.37 1468.73 1051.18C1468.61 1050.99 1468.43 1050.82 1468.2 1050.7C1467.97 1050.57 1467.69 1050.51 1467.36 1050.51C1467.01 1050.51 1466.72 1050.56 1466.5 1050.67C1466.29 1050.77 1466.13 1050.91 1466.03 1051.07C1465.94 1051.24 1465.89 1051.41 1465.89 1051.59C1465.89 1051.73 1465.91 1051.85 1465.96 1051.96C1466.01 1052.07 1466.09 1052.16 1466.22 1052.26C1466.34 1052.34 1466.51 1052.42 1466.74 1052.5C1466.96 1052.58 1467.24 1052.66 1467.59 1052.73C1468.2 1052.87 1468.7 1053.04 1469.09 1053.23C1469.48 1053.42 1469.77 1053.65 1469.96 1053.93C1470.15 1054.21 1470.25 1054.55 1470.25 1054.94C1470.25 1055.27 1470.18 1055.56 1470.04 1055.83C1469.91 1056.1 1469.72 1056.33 1469.46 1056.53C1469.21 1056.72 1468.91 1056.87 1468.56 1056.98C1468.22 1057.08 1467.83 1057.14 1467.39 1057.14C1466.74 1057.14 1466.19 1057.02 1465.74 1056.79C1465.29 1056.56 1464.95 1056.25 1464.71 1055.89C1464.48 1055.52 1464.36 1055.13 1464.36 1054.72H1465.64C1465.65 1055.06 1465.75 1055.34 1465.94 1055.54C1466.12 1055.74 1466.34 1055.89 1466.61 1055.97C1466.87 1056.06 1467.13 1056.1 1467.39 1056.1C1467.74 1056.1 1468.03 1056.05 1468.26 1055.96C1468.5 1055.87 1468.68 1055.74 1468.8 1055.58C1468.92 1055.43 1468.99 1055.24 1468.99 1055.04Z" fill="#006699"/>
<rect width="73" height="36" transform="translate(1503 1034)" fill="#FF00FF"/>
<path d="M1526.28 1053.83H1527.59C1527.52 1054.46 1527.34 1055.03 1527.05 1055.52C1526.76 1056.02 1526.35 1056.41 1525.81 1056.71C1525.28 1056.99 1524.62 1057.14 1523.82 1057.14C1523.24 1057.14 1522.7 1057.03 1522.23 1056.81C1521.75 1056.59 1521.34 1056.28 1521 1055.88C1520.66 1055.47 1520.4 1054.99 1520.21 1054.42C1520.03 1053.85 1519.94 1053.22 1519.94 1052.52V1051.53C1519.94 1050.83 1520.03 1050.2 1520.21 1049.64C1520.4 1049.07 1520.66 1048.58 1521.01 1048.17C1521.36 1047.77 1521.78 1047.46 1522.27 1047.24C1522.77 1047.02 1523.32 1046.91 1523.93 1046.91C1524.69 1046.91 1525.32 1047.05 1525.84 1047.33C1526.36 1047.62 1526.76 1048.01 1527.05 1048.51C1527.34 1049.01 1527.52 1049.58 1527.59 1050.24H1526.28C1526.22 1049.77 1526.1 1049.38 1525.92 1049.04C1525.75 1048.71 1525.5 1048.45 1525.19 1048.26C1524.87 1048.08 1524.45 1047.99 1523.93 1047.99C1523.49 1047.99 1523.1 1048.07 1522.77 1048.24C1522.43 1048.41 1522.15 1048.65 1521.92 1048.96C1521.7 1049.27 1521.53 1049.64 1521.42 1050.08C1521.31 1050.51 1521.25 1050.99 1521.25 1051.52V1052.52C1521.25 1053.01 1521.3 1053.47 1521.4 1053.9C1521.5 1054.32 1521.66 1054.7 1521.87 1055.02C1522.08 1055.35 1522.35 1055.6 1522.67 1055.79C1522.99 1055.97 1523.38 1056.06 1523.82 1056.06C1524.38 1056.06 1524.83 1055.97 1525.16 1055.8C1525.49 1055.62 1525.74 1055.36 1525.91 1055.03C1526.08 1054.7 1526.21 1054.3 1526.28 1053.83ZM1530.46 1050.77V1057H1529.2V1049.6H1530.43L1530.46 1050.77ZM1532.77 1049.56L1532.77 1050.74C1532.66 1050.72 1532.56 1050.7 1532.47 1050.7C1532.37 1050.69 1532.27 1050.68 1532.15 1050.68C1531.86 1050.68 1531.6 1050.73 1531.38 1050.82C1531.16 1050.91 1530.97 1051.04 1530.81 1051.2C1530.66 1051.37 1530.53 1051.56 1530.44 1051.79C1530.36 1052.01 1530.3 1052.26 1530.27 1052.53L1529.92 1052.73C1529.92 1052.29 1529.96 1051.87 1530.05 1051.48C1530.14 1051.08 1530.28 1050.74 1530.46 1050.44C1530.65 1050.13 1530.89 1049.9 1531.17 1049.73C1531.47 1049.55 1531.81 1049.47 1532.21 1049.47C1532.3 1049.47 1532.41 1049.48 1532.53 1049.5C1532.65 1049.52 1532.73 1049.54 1532.77 1049.56ZM1536.88 1057.14C1536.36 1057.14 1535.89 1057.05 1535.47 1056.88C1535.06 1056.7 1534.7 1056.45 1534.4 1056.13C1534.1 1055.81 1533.88 1055.43 1533.72 1055C1533.56 1054.56 1533.48 1054.08 1533.48 1053.56V1053.27C1533.48 1052.67 1533.57 1052.14 1533.74 1051.67C1533.92 1051.19 1534.16 1050.79 1534.47 1050.46C1534.77 1050.14 1535.12 1049.89 1535.51 1049.72C1535.9 1049.55 1536.3 1049.47 1536.71 1049.47C1537.24 1049.47 1537.7 1049.56 1538.08 1049.74C1538.47 1049.92 1538.78 1050.18 1539.03 1050.51C1539.27 1050.83 1539.46 1051.21 1539.58 1051.65C1539.69 1052.09 1539.75 1052.57 1539.75 1053.09V1053.66H1534.23V1052.62H1538.49V1052.53C1538.47 1052.2 1538.4 1051.88 1538.28 1051.57C1538.17 1051.26 1537.99 1051.01 1537.74 1050.81C1537.49 1050.61 1537.14 1050.51 1536.71 1050.51C1536.42 1050.51 1536.16 1050.57 1535.92 1050.69C1535.68 1050.81 1535.47 1050.99 1535.3 1051.22C1535.12 1051.46 1534.99 1051.75 1534.89 1052.09C1534.8 1052.43 1534.75 1052.83 1534.75 1053.27V1053.56C1534.75 1053.91 1534.8 1054.24 1534.89 1054.55C1534.99 1054.86 1535.14 1055.13 1535.32 1055.36C1535.51 1055.59 1535.74 1055.77 1536.01 1055.91C1536.29 1056.04 1536.6 1056.1 1536.94 1056.1C1537.39 1056.1 1537.77 1056.01 1538.08 1055.83C1538.39 1055.65 1538.66 1055.4 1538.89 1055.1L1539.66 1055.71C1539.5 1055.95 1539.29 1056.18 1539.05 1056.4C1538.8 1056.62 1538.5 1056.79 1538.14 1056.93C1537.78 1057.07 1537.36 1057.14 1536.88 1057.14ZM1545.59 1055.74V1051.93C1545.59 1051.64 1545.53 1051.38 1545.41 1051.17C1545.3 1050.95 1545.13 1050.78 1544.89 1050.66C1544.66 1050.54 1544.37 1050.49 1544.03 1050.49C1543.71 1050.49 1543.43 1050.54 1543.19 1050.65C1542.95 1050.76 1542.77 1050.9 1542.63 1051.08C1542.5 1051.26 1542.43 1051.45 1542.43 1051.65H1541.17C1541.17 1051.39 1541.24 1051.13 1541.37 1050.87C1541.51 1050.61 1541.71 1050.37 1541.96 1050.16C1542.22 1049.95 1542.53 1049.78 1542.89 1049.66C1543.26 1049.53 1543.66 1049.47 1544.11 1049.47C1544.65 1049.47 1545.12 1049.56 1545.53 1049.74C1545.94 1049.92 1546.27 1050.2 1546.5 1050.57C1546.74 1050.93 1546.86 1051.39 1546.86 1051.94V1055.39C1546.86 1055.63 1546.88 1055.89 1546.92 1056.17C1546.96 1056.45 1547.03 1056.69 1547.12 1056.89V1057H1545.8C1545.73 1056.85 1545.68 1056.66 1545.65 1056.42C1545.61 1056.17 1545.59 1055.94 1545.59 1055.74ZM1545.81 1052.52L1545.82 1053.4H1544.54C1544.18 1053.4 1543.86 1053.43 1543.58 1053.49C1543.3 1053.55 1543.06 1053.63 1542.87 1053.75C1542.68 1053.86 1542.53 1054 1542.43 1054.18C1542.33 1054.35 1542.28 1054.54 1542.28 1054.77C1542.28 1055 1542.33 1055.22 1542.44 1055.41C1542.54 1055.6 1542.7 1055.75 1542.91 1055.87C1543.13 1055.97 1543.39 1056.03 1543.7 1056.03C1544.08 1056.03 1544.43 1055.95 1544.72 1055.78C1545.02 1055.62 1545.25 1055.42 1545.43 1055.18C1545.6 1054.94 1545.7 1054.71 1545.71 1054.49L1546.25 1055.1C1546.22 1055.29 1546.14 1055.5 1545.99 1055.74C1545.85 1055.97 1545.66 1056.19 1545.43 1056.41C1545.19 1056.61 1544.92 1056.79 1544.59 1056.93C1544.27 1057.07 1543.91 1057.14 1543.51 1057.14C1543.01 1057.14 1542.57 1057.04 1542.19 1056.84C1541.82 1056.65 1541.53 1056.38 1541.32 1056.06C1541.11 1055.72 1541.01 1055.35 1541.01 1054.94C1541.01 1054.55 1541.09 1054.2 1541.24 1053.9C1541.4 1053.59 1541.62 1053.34 1541.91 1053.14C1542.2 1052.93 1542.56 1052.78 1542.97 1052.67C1543.38 1052.57 1543.83 1052.52 1544.34 1052.52H1545.81ZM1551.94 1049.6V1050.57H1547.94V1049.6H1551.94ZM1549.3 1047.81H1550.56V1055.17C1550.56 1055.42 1550.6 1055.61 1550.68 1055.74C1550.75 1055.86 1550.85 1055.95 1550.98 1055.99C1551.1 1056.03 1551.23 1056.05 1551.37 1056.05C1551.48 1056.05 1551.59 1056.04 1551.7 1056.02C1551.82 1056 1551.91 1055.98 1551.97 1055.97L1551.98 1057C1551.88 1057.03 1551.74 1057.06 1551.58 1057.09C1551.42 1057.12 1551.23 1057.14 1551 1057.14C1550.69 1057.14 1550.4 1057.08 1550.14 1056.95C1549.88 1056.83 1549.68 1056.62 1549.52 1056.34C1549.37 1056.05 1549.3 1055.65 1549.3 1055.16V1047.81ZM1556.49 1057.14C1555.98 1057.14 1555.51 1057.05 1555.09 1056.88C1554.68 1056.7 1554.32 1056.45 1554.02 1056.13C1553.72 1055.81 1553.5 1055.43 1553.34 1055C1553.18 1054.56 1553.1 1054.08 1553.1 1053.56V1053.27C1553.1 1052.67 1553.19 1052.14 1553.36 1051.67C1553.54 1051.19 1553.78 1050.79 1554.09 1050.46C1554.39 1050.14 1554.74 1049.89 1555.13 1049.72C1555.51 1049.55 1555.92 1049.47 1556.33 1049.47C1556.86 1049.47 1557.31 1049.56 1557.7 1049.74C1558.08 1049.92 1558.4 1050.18 1558.65 1050.51C1558.89 1050.83 1559.08 1051.21 1559.19 1051.65C1559.31 1052.09 1559.37 1052.57 1559.37 1053.09V1053.66H1553.85V1052.62H1558.11V1052.53C1558.09 1052.2 1558.02 1051.88 1557.9 1051.57C1557.79 1051.26 1557.61 1051.01 1557.36 1050.81C1557.1 1050.61 1556.76 1050.51 1556.33 1050.51C1556.04 1050.51 1555.78 1050.57 1555.54 1050.69C1555.3 1050.81 1555.09 1050.99 1554.92 1051.22C1554.74 1051.46 1554.61 1051.75 1554.51 1052.09C1554.42 1052.43 1554.37 1052.83 1554.37 1053.27V1053.56C1554.37 1053.91 1554.42 1054.24 1554.51 1054.55C1554.61 1054.86 1554.76 1055.13 1554.94 1055.36C1555.13 1055.59 1555.36 1055.77 1555.63 1055.91C1555.91 1056.04 1556.22 1056.1 1556.56 1056.1C1557.01 1056.1 1557.39 1056.01 1557.7 1055.83C1558.01 1055.65 1558.28 1055.4 1558.51 1055.1L1559.28 1055.71C1559.12 1055.95 1558.91 1056.18 1558.67 1056.4C1558.42 1056.62 1558.12 1056.79 1557.76 1056.93C1557.4 1057.07 1556.98 1057.14 1556.49 1057.14Z" fill="white"/>
</g>
</g>
<defs>
<clipPath id="clip0_1285_8707">
<rect width="1600" height="1080" fill="white"/>
</clipPath>
<clipPath id="clip1_1285_8707">
<rect width="1600" height="52" fill="white"/>
</clipPath>
<clipPath id="clip2_1285_8707">
<rect width="24" height="24" fill="white" transform="translate(12.5 12)"/>
</clipPath>
<clipPath id="clip3_1285_8707">
<rect width="24" height="24" fill="white" transform="translate(61 12)"/>
</clipPath>
<clipPath id="clip4_1285_8707">
<rect width="20" height="20" fill="white" transform="translate(1556 14)"/>
</clipPath>
<clipPath id="clip5_1285_8707">
<rect width="1600" height="1028" fill="white" transform="translate(0 52)"/>
</clipPath>
<clipPath id="clip6_1285_8707">
<rect width="460" height="44" fill="white" transform="translate(24 124)"/>
</clipPath>
<clipPath id="clip7_1285_8707">
<rect width="460" height="44" fill="white" transform="translate(500 124)"/>
</clipPath>
<clipPath id="clip8_1285_8707">
<rect width="460" height="44" fill="white" transform="translate(976 124)"/>
</clipPath>
<clipPath id="clip9_1285_8707">
<rect width="124" height="44" fill="white" transform="translate(1452 124)"/>
</clipPath>
<clipPath id="clip10_1285_8707">
<path d="M0 168H1600V412H0V168Z" fill="white"/>
</clipPath>
<clipPath id="clip11_1285_8707">
<rect width="1552" height="52" fill="white" transform="translate(24 260)"/>
</clipPath>
<clipPath id="clip12_1285_8707">
<rect width="1552" height="52" fill="white" transform="translate(24 336)"/>
</clipPath>
</defs>
</svg>
