<svg width="1600" height="1080" viewBox="0 0 1600 1080" fill="none" xmlns="http://www.w3.org/2000/svg">
<g clip-path="url(#clip0_1299_4899)">
<rect width="1600" height="1080" fill="white"/>
<g clip-path="url(#clip1_1299_4899)">
<mask id="path-1-inside-1_1299_4899" fill="white">
<path d="M0 0H49V52H0V0Z"/>
</mask>
<path d="M0 0H49V52H0V0Z" fill="white"/>
<path d="M49 0H48V52H49H50V0H49Z" fill="#D9D9D9" mask="url(#path-1-inside-1_1299_4899)"/>
<mask id="path-3-inside-2_1299_4899" fill="white">
<path d="M0 0H49V52H0V0Z"/>
</mask>
<path d="M49 52V48H0V52V56H49V52Z" fill="#D6101D" mask="url(#path-3-inside-2_1299_4899)"/>
<g clip-path="url(#clip2_1299_4899)">
<path fill-rule="evenodd" clip-rule="evenodd" d="M15 31H33V32.5H15V31Z" fill="black"/>
<path fill-rule="evenodd" clip-rule="evenodd" d="M15 26.5H33V28H15V26.5Z" fill="black"/>
<path fill-rule="evenodd" clip-rule="evenodd" d="M15 22H33V23.5H15V22Z" fill="black"/>
<path fill-rule="evenodd" clip-rule="evenodd" d="M33 19H15V17.5H33V19Z" fill="black"/>
</g>
<mask id="path-9-inside-3_1299_4899" fill="white">
<path d="M49 0H1600V52H49V0Z"/>
</mask>
<path d="M49 0H1600V52H49V0Z" fill="white"/>
<path d="M1600 52V48H49V52V56H1600V52Z" fill="#DC0018" mask="url(#path-9-inside-3_1299_4899)"/>
<mask id="path-11-inside-4_1299_4899" fill="white">
<path d="M49 0H98V48H49V0Z"/>
</mask>
<path d="M98 0H97V48H98H99V0H98Z" fill="#D7D7D7" mask="url(#path-11-inside-4_1299_4899)"/>
<g clip-path="url(#clip3_1299_4899)">
<path d="M73.5001 13.5C70.3501 13.5 67.2001 14.025 63.9751 15.075C63.9751 22.5 63.9751 30.3 73.5001 34.5C83.0251 30.3 83.0251 22.5 83.0251 15.075C79.8001 14.025 76.6501 13.5 73.5001 13.5ZM75.3751 24.9V29.325H71.5501V24.9H67.2001V21.075H71.6251V16.65H75.4501V21.075H79.8751V24.9H75.3751Z" fill="#DC0018"/>
</g>
<mask id="path-14-inside-5_1299_4899" fill="white">
<path d="M98 0H147V48H98V0Z"/>
</mask>
<path d="M147 0H146V48H147H148V0H147Z" fill="#D7D7D7" mask="url(#path-14-inside-5_1299_4899)"/>
<g clip-path="url(#clip4_1299_4899)">
<path d="M119.905 18.5303L115.186 23.25H131.375V24.75H115.186L119.905 29.4697L118.845 30.5303L112.314 24L118.845 17.4697L119.905 18.5303Z" fill="#212121"/>
</g>
<rect x="171" y="18" width="100" height="12" fill="#C8C8C8"/>
<g clip-path="url(#clip5_1299_4899)">
<path d="M1572.25 24.3662V22.75H1571V24.625C1571 24.7907 1571.07 24.9497 1571.18 25.0669L1572.88 26.7588V27.75H1559.12V26.7588L1560.82 25.0669C1560.93 24.9497 1561 24.7907 1561 24.625V22.125C1561 21.2468 1561.23 20.3837 1561.67 19.6229C1562.11 18.8621 1562.74 18.2305 1563.5 17.792C1564.26 17.3534 1565.12 17.1233 1566 17.125C1566.88 17.1267 1567.74 17.3601 1568.5 17.8016V16.4042C1567.91 16.1408 1567.27 15.9729 1566.62 15.9068V14.625H1565.38V15.9068C1563.83 16.0635 1562.41 16.786 1561.37 17.9346C1560.33 19.0832 1559.75 20.5762 1559.75 22.125V24.3662L1558.06 26.0581C1557.94 26.1753 1557.88 26.3343 1557.88 26.5V28.375C1557.88 28.5408 1557.94 28.6997 1558.06 28.8169C1558.18 28.9342 1558.33 29 1558.5 29H1562.88V29.625C1562.88 30.4538 1563.2 31.2487 1563.79 31.8347C1564.38 32.4208 1565.17 32.75 1566 32.75C1566.83 32.75 1567.62 32.4208 1568.21 31.8347C1568.8 31.2487 1569.12 30.4538 1569.12 29.625V29H1573.5C1573.67 29 1573.82 28.9342 1573.94 28.8169C1574.06 28.6997 1574.12 28.5408 1574.12 28.375V26.5C1574.12 26.3343 1574.06 26.1753 1573.94 26.0581L1572.25 24.3662ZM1567.88 29.625C1567.88 30.1223 1567.68 30.5992 1567.33 30.9508C1566.97 31.3025 1566.5 31.5 1566 31.5C1565.5 31.5 1565.03 31.3025 1564.67 30.9508C1564.32 30.5992 1564.12 30.1223 1564.12 29.625V29H1567.88V29.625Z" fill="black"/>
<path d="M1572.25 21.5C1573.63 21.5 1574.75 20.3807 1574.75 19C1574.75 17.6193 1573.63 16.5 1572.25 16.5C1570.87 16.5 1569.75 17.6193 1569.75 19C1569.75 20.3807 1570.87 21.5 1572.25 21.5Z" fill="black"/>
</g>
</g>
<g clip-path="url(#clip6_1299_4899)">
<mask id="path-20-inside-6_1299_4899" fill="white">
<path d="M0 68H1600V120H0V68Z"/>
</mask>
<path d="M0 68H1600V120H0V68Z" fill="white"/>
<path d="M1600 120V118H0V120V122H1600V120Z" fill="#D9D9D9" mask="url(#path-20-inside-6_1299_4899)"/>
<rect width="1600" height="52" transform="translate(0 68)" fill="white"/>
<rect width="1552" height="36" transform="translate(24 76)" fill="white"/>
<rect x="24" y="76" width="140" height="18" fill="#848484"/>
<g clip-path="url(#clip7_1299_4899)">
<rect width="1600" height="960" transform="translate(0 120)" fill="#F2F4F6"/>
<rect width="1600" height="960" transform="translate(0 120)" fill="#F5F5F5"/>
<g clip-path="url(#clip8_1299_4899)">
<rect x="24" y="142" width="110" height="12" fill="#171717"/>
<path fill-rule="evenodd" clip-rule="evenodd" d="M1319.5 138.25C1319.5 137.836 1319.84 137.5 1320.25 137.5H1339.75C1340.16 137.5 1340.5 137.836 1340.5 138.25V141.795C1340.5 141.977 1340.43 142.153 1340.31 142.29L1333.59 149.966V157.75C1333.59 158.164 1333.25 158.5 1332.84 158.5H1327.16C1326.75 158.5 1326.41 158.164 1326.41 157.75V149.966L1319.69 142.29C1319.57 142.153 1319.5 141.977 1319.5 141.795V138.25ZM1321 139V141.513L1327.73 149.19C1327.85 149.327 1327.91 149.502 1327.91 149.684V157H1332.09V149.684C1332.09 149.502 1332.15 149.327 1332.27 149.19L1339 141.513V139H1321Z" fill="#006699"/>
<g clip-path="url(#clip9_1299_4899)">
<path d="M1360.25 139.75V156.25C1360.25 157.075 1360.92 157.75 1361.75 157.75H1369.25V156.25H1361.75V151H1369.25V149.5H1361.75V144.25H1369.25V145.75H1370.75V144.25H1378.25V145.75H1379.75V139.75C1379.75 138.925 1379.08 138.25 1378.25 138.25H1361.75C1360.92 138.25 1360.25 138.925 1360.25 139.75ZM1361.75 139.75H1378.25V142.75H1361.75V139.75Z" fill="#006699"/>
<path d="M1381.25 149.5H1378.69C1380.22 150.415 1381.25 152.088 1381.25 154C1381.25 156.895 1378.89 159.25 1376 159.25C1373.11 159.25 1370.75 156.895 1370.75 154C1370.75 152.597 1371.3 151.277 1372.29 150.287L1373.34 151.345C1372.64 152.05 1372.25 152.995 1372.25 154C1372.25 156.07 1373.93 157.75 1376 157.75C1378.07 157.75 1379.75 156.07 1379.75 154C1379.75 152.47 1378.82 151.15 1377.5 150.565V153.25H1376V148H1381.25V149.5Z" fill="#006699"/>
</g>
<g clip-path="url(#clip10_1299_4899)">
<path d="M1416.25 138.75V143.25H1419C1419.27 143.25 1419.52 143.355 1419.71 143.543C1419.89 143.731 1420 143.985 1420 144.25V151.75C1420 152.015 1419.89 152.269 1419.71 152.457C1419.52 152.645 1419.27 152.75 1419 152.75H1416.25V157.25H1403.75V152.75H1401C1400.73 152.75 1400.48 152.645 1400.29 152.457C1400.11 152.269 1400 152.015 1400 151.75V144.25C1400 143.985 1400.11 143.731 1400.29 143.543C1400.48 143.355 1400.73 143.25 1401 143.25H1403.75V138.75H1416.25ZM1404.25 156.75H1415.75V148.25H1404.25V156.75ZM1400.5 152.25H1403.75V147.75H1416.25V152.25H1419.5V143.75H1400.5V152.25ZM1404.25 143.25H1415.75V139.25H1404.25V143.25Z" stroke="#006699"/>
</g>
<g clip-path="url(#clip11_1299_4899)">
<path d="M1453.75 140.05H1459V141.55H1457.2V156.175C1457.2 157.039 1456.49 157.75 1455.62 157.75H1444.45C1443.59 157.75 1442.88 157.039 1442.88 156.175V141.55H1441V140.05H1446.25V136.75H1453.75V140.05ZM1444.38 141.55V156.175C1444.38 156.188 1444.38 156.207 1444.4 156.226C1444.42 156.244 1444.44 156.25 1444.45 156.25H1455.62C1455.64 156.25 1455.66 156.244 1455.68 156.226C1455.69 156.207 1455.7 156.188 1455.7 156.175V141.55H1444.38ZM1448.8 153.25H1447.3V144.55H1448.8V153.25ZM1452.7 153.25H1451.2V144.55H1452.7V153.25ZM1447.75 140.05H1452.25V138.25H1447.75V140.05Z" fill="#006699"/>
</g>
<path d="M1478 130V166" stroke="#171717"/>
<rect x="1503" y="131" width="72" height="34" fill="white"/>
<rect x="1503" y="131" width="72" height="34" stroke="#006699" stroke-width="2"/>
<path d="M1525.3 149.76H1527.01C1526.96 150.411 1526.77 150.993 1526.46 151.503C1526.15 152.009 1525.72 152.408 1525.16 152.699C1524.6 152.991 1523.92 153.137 1523.11 153.137C1522.5 153.137 1521.94 153.027 1521.45 152.809C1520.96 152.585 1520.54 152.271 1520.19 151.865C1519.84 151.455 1519.57 150.961 1519.38 150.382C1519.2 149.803 1519.11 149.156 1519.11 148.44V147.613C1519.11 146.898 1519.2 146.251 1519.39 145.672C1519.58 145.093 1519.85 144.599 1520.21 144.188C1520.56 143.774 1520.99 143.457 1521.49 143.238C1521.99 143.02 1522.55 142.91 1523.17 142.91C1523.97 142.91 1524.64 143.056 1525.18 143.348C1525.73 143.639 1526.16 144.043 1526.46 144.558C1526.76 145.073 1526.95 145.663 1527.02 146.328H1525.31C1525.26 145.9 1525.16 145.533 1525.01 145.228C1524.86 144.922 1524.63 144.69 1524.34 144.53C1524.04 144.366 1523.65 144.284 1523.17 144.284C1522.78 144.284 1522.44 144.357 1522.15 144.503C1521.86 144.649 1521.61 144.863 1521.42 145.146C1521.22 145.428 1521.07 145.777 1520.97 146.191C1520.88 146.602 1520.83 147.071 1520.83 147.6V148.44C1520.83 148.942 1520.87 149.397 1520.96 149.808C1521.05 150.213 1521.19 150.562 1521.37 150.854C1521.56 151.145 1521.79 151.371 1522.08 151.53C1522.37 151.69 1522.71 151.77 1523.11 151.77C1523.6 151.77 1524 151.692 1524.3 151.537C1524.6 151.382 1524.83 151.157 1524.99 150.86C1525.15 150.56 1525.25 150.193 1525.3 149.76ZM1530.06 147.012V153H1528.41V145.604H1529.98L1530.06 147.012ZM1532.32 145.556L1532.31 147.087C1532.21 147.069 1532.1 147.055 1531.98 147.046C1531.87 147.037 1531.75 147.032 1531.64 147.032C1531.36 147.032 1531.11 147.073 1530.89 147.155C1530.68 147.233 1530.5 147.347 1530.35 147.497C1530.21 147.643 1530.1 147.821 1530.02 148.03C1529.95 148.24 1529.9 148.475 1529.89 148.734L1529.51 148.762C1529.51 148.297 1529.56 147.866 1529.65 147.47C1529.74 147.073 1529.88 146.725 1530.06 146.424C1530.25 146.123 1530.48 145.888 1530.76 145.72C1531.04 145.551 1531.36 145.467 1531.73 145.467C1531.83 145.467 1531.94 145.476 1532.05 145.494C1532.17 145.512 1532.26 145.533 1532.32 145.556ZM1536.48 153.137C1535.93 153.137 1535.44 153.048 1534.99 152.87C1534.56 152.688 1534.18 152.435 1533.87 152.111C1533.57 151.788 1533.33 151.407 1533.17 150.97C1533 150.532 1532.92 150.061 1532.92 149.555V149.281C1532.92 148.702 1533.01 148.178 1533.18 147.709C1533.34 147.24 1533.58 146.839 1533.88 146.506C1534.18 146.169 1534.54 145.911 1534.95 145.733C1535.36 145.556 1535.8 145.467 1536.28 145.467C1536.81 145.467 1537.27 145.556 1537.67 145.733C1538.06 145.911 1538.39 146.162 1538.65 146.485C1538.92 146.804 1539.11 147.185 1539.24 147.627C1539.37 148.069 1539.44 148.557 1539.44 149.09V149.794H1533.72V148.611H1537.81V148.481C1537.8 148.185 1537.74 147.907 1537.63 147.647C1537.53 147.388 1537.37 147.178 1537.15 147.019C1536.93 146.859 1536.64 146.779 1536.27 146.779C1536 146.779 1535.76 146.839 1535.54 146.957C1535.33 147.071 1535.16 147.237 1535.01 147.456C1534.87 147.675 1534.76 147.939 1534.69 148.249C1534.61 148.554 1534.58 148.898 1534.58 149.281V149.555C1534.58 149.878 1534.62 150.179 1534.71 150.457C1534.8 150.73 1534.93 150.97 1535.1 151.175C1535.28 151.38 1535.49 151.542 1535.73 151.66C1535.98 151.774 1536.26 151.831 1536.57 151.831C1536.97 151.831 1537.32 151.751 1537.63 151.592C1537.94 151.432 1538.21 151.207 1538.44 150.915L1539.31 151.756C1539.15 151.988 1538.94 152.212 1538.69 152.426C1538.43 152.635 1538.12 152.806 1537.75 152.938C1537.38 153.071 1536.96 153.137 1536.48 153.137ZM1544.89 151.517V147.989C1544.89 147.725 1544.84 147.497 1544.75 147.306C1544.65 147.114 1544.51 146.966 1544.31 146.861C1544.12 146.757 1543.88 146.704 1543.59 146.704C1543.32 146.704 1543.09 146.75 1542.89 146.841C1542.69 146.932 1542.54 147.055 1542.43 147.21C1542.32 147.365 1542.27 147.54 1542.27 147.736H1540.63C1540.63 147.445 1540.7 147.162 1540.84 146.889C1540.98 146.615 1541.19 146.371 1541.45 146.157C1541.72 145.943 1542.04 145.774 1542.42 145.651C1542.79 145.528 1543.21 145.467 1543.68 145.467C1544.23 145.467 1544.72 145.56 1545.15 145.747C1545.59 145.934 1545.92 146.216 1546.17 146.595C1546.42 146.968 1546.55 147.438 1546.55 148.003V151.291C1546.55 151.628 1546.57 151.931 1546.62 152.2C1546.67 152.465 1546.74 152.695 1546.83 152.891V153H1545.14C1545.06 152.822 1545 152.597 1544.95 152.323C1544.91 152.045 1544.89 151.776 1544.89 151.517ZM1545.13 148.502L1545.15 149.521H1543.96C1543.66 149.521 1543.39 149.55 1543.16 149.609C1542.92 149.664 1542.73 149.746 1542.58 149.855C1542.42 149.965 1542.3 150.097 1542.23 150.252C1542.15 150.407 1542.11 150.582 1542.11 150.778C1542.11 150.974 1542.16 151.154 1542.25 151.318C1542.34 151.478 1542.47 151.603 1542.64 151.694C1542.82 151.785 1543.04 151.831 1543.29 151.831C1543.62 151.831 1543.92 151.763 1544.17 151.626C1544.42 151.485 1544.62 151.314 1544.77 151.113C1544.92 150.908 1544.99 150.715 1545 150.532L1545.54 151.264C1545.48 151.451 1545.39 151.651 1545.25 151.865C1545.12 152.079 1544.95 152.285 1544.74 152.48C1544.53 152.672 1544.27 152.829 1543.98 152.952C1543.68 153.075 1543.35 153.137 1542.96 153.137C1542.48 153.137 1542.05 153.041 1541.67 152.85C1541.29 152.654 1541 152.392 1540.78 152.063C1540.57 151.731 1540.46 151.355 1540.46 150.936C1540.46 150.544 1540.54 150.197 1540.68 149.896C1540.83 149.591 1541.05 149.336 1541.34 149.131C1541.63 148.926 1541.99 148.771 1542.4 148.666C1542.82 148.557 1543.3 148.502 1543.84 148.502H1545.13ZM1551.66 145.604V146.807H1547.49V145.604H1551.66ZM1548.69 143.792H1550.34V150.956C1550.34 151.184 1550.37 151.359 1550.44 151.482C1550.5 151.601 1550.6 151.681 1550.72 151.722C1550.84 151.763 1550.97 151.783 1551.13 151.783C1551.25 151.783 1551.36 151.776 1551.46 151.763C1551.57 151.749 1551.65 151.735 1551.71 151.722L1551.72 152.979C1551.58 153.021 1551.43 153.057 1551.24 153.089C1551.07 153.121 1550.86 153.137 1550.63 153.137C1550.25 153.137 1549.91 153.071 1549.62 152.938C1549.33 152.802 1549.1 152.581 1548.94 152.275C1548.78 151.97 1548.69 151.564 1548.69 151.059V143.792ZM1556.19 153.137C1555.65 153.137 1555.15 153.048 1554.71 152.87C1554.27 152.688 1553.9 152.435 1553.59 152.111C1553.28 151.788 1553.05 151.407 1552.88 150.97C1552.72 150.532 1552.64 150.061 1552.64 149.555V149.281C1552.64 148.702 1552.72 148.178 1552.89 147.709C1553.06 147.24 1553.29 146.839 1553.59 146.506C1553.9 146.169 1554.25 145.911 1554.66 145.733C1555.07 145.556 1555.52 145.467 1555.99 145.467C1556.52 145.467 1556.99 145.556 1557.38 145.733C1557.78 145.911 1558.11 146.162 1558.37 146.485C1558.63 146.804 1558.83 147.185 1558.95 147.627C1559.09 148.069 1559.15 148.557 1559.15 149.09V149.794H1553.44V148.611H1557.53V148.481C1557.52 148.185 1557.46 147.907 1557.35 147.647C1557.24 147.388 1557.08 147.178 1556.86 147.019C1556.64 146.859 1556.35 146.779 1555.99 146.779C1555.71 146.779 1555.47 146.839 1555.26 146.957C1555.05 147.071 1554.87 147.237 1554.73 147.456C1554.59 147.675 1554.48 147.939 1554.4 148.249C1554.33 148.554 1554.29 148.898 1554.29 149.281V149.555C1554.29 149.878 1554.34 150.179 1554.42 150.457C1554.51 150.73 1554.65 150.97 1554.82 151.175C1554.99 151.38 1555.2 151.542 1555.45 151.66C1555.69 151.774 1555.97 151.831 1556.29 151.831C1556.68 151.831 1557.04 151.751 1557.35 151.592C1557.66 151.432 1557.93 151.207 1558.15 150.915L1559.02 151.756C1558.86 151.988 1558.66 152.212 1558.4 152.426C1558.15 152.635 1557.83 152.806 1557.46 152.938C1557.1 153.071 1556.68 153.137 1556.19 153.137Z" fill="#006699"/>
</g>
<g clip-path="url(#clip12_1299_4899)">
<g clip-path="url(#clip13_1299_4899)">
<rect width="40" height="409" transform="translate(24 176)" fill="white"/>
<rect width="40" height="40" transform="translate(24 176)" fill="#D9D9D9"/>
<rect x="36.5" y="188.5" width="15" height="15" fill="white"/>
<rect x="36.5" y="188.5" width="15" height="15" stroke="#757575"/>
<mask id="path-33-inside-7_1299_4899" fill="white">
<path d="M24 216H64V257H24V216Z"/>
</mask>
<path d="M64 257V256H24V257V258H64V257Z" fill="#D7D7D7" mask="url(#path-33-inside-7_1299_4899)"/>
<rect x="36.5" y="229" width="15" height="15" fill="white"/>
<rect x="36.5" y="229" width="15" height="15" stroke="#757575"/>
<mask id="path-36-inside-8_1299_4899" fill="white">
<path d="M24 257H64V298H24V257Z"/>
</mask>
<path d="M64 298V297H24V298V299H64V298Z" fill="#D7D7D7" mask="url(#path-36-inside-8_1299_4899)"/>
<rect x="36.5" y="270" width="15" height="15" fill="white"/>
<rect x="36.5" y="270" width="15" height="15" stroke="#757575"/>
<mask id="path-39-inside-9_1299_4899" fill="white">
<path d="M24 298H64V339H24V298Z"/>
</mask>
<path d="M64 339V338H24V339V340H64V339Z" fill="#D7D7D7" mask="url(#path-39-inside-9_1299_4899)"/>
<rect x="36.5" y="311" width="15" height="15" fill="white"/>
<rect x="36.5" y="311" width="15" height="15" stroke="#757575"/>
<mask id="path-42-inside-10_1299_4899" fill="white">
<path d="M24 339H64V380H24V339Z"/>
</mask>
<path d="M64 380V379H24V380V381H64V380Z" fill="#D7D7D7" mask="url(#path-42-inside-10_1299_4899)"/>
<rect x="36.5" y="352" width="15" height="15" fill="white"/>
<rect x="36.5" y="352" width="15" height="15" stroke="#757575"/>
<mask id="path-45-inside-11_1299_4899" fill="white">
<path d="M24 380H64V421H24V380Z"/>
</mask>
<path d="M64 421V420H24V421V422H64V421Z" fill="#D7D7D7" mask="url(#path-45-inside-11_1299_4899)"/>
<rect x="36.5" y="393" width="15" height="15" fill="white"/>
<rect x="36.5" y="393" width="15" height="15" stroke="#757575"/>
<mask id="path-48-inside-12_1299_4899" fill="white">
<path d="M24 421H64V462H24V421Z"/>
</mask>
<path d="M64 462V461H24V462V463H64V462Z" fill="#D7D7D7" mask="url(#path-48-inside-12_1299_4899)"/>
<rect x="36.5" y="434" width="15" height="15" fill="white"/>
<rect x="36.5" y="434" width="15" height="15" stroke="#757575"/>
<mask id="path-51-inside-13_1299_4899" fill="white">
<path d="M24 462H64V503H24V462Z"/>
</mask>
<path d="M64 503V502H24V503V504H64V503Z" fill="#D7D7D7" mask="url(#path-51-inside-13_1299_4899)"/>
<rect x="36.5" y="475" width="15" height="15" fill="white" stroke="#979797"/>
<mask id="path-54-inside-14_1299_4899" fill="white">
<path d="M24 503H64V544H24V503Z"/>
</mask>
<path d="M64 544V543H24V544V545H64V544Z" fill="#D7D7D7" mask="url(#path-54-inside-14_1299_4899)"/>
<rect x="36.5" y="516" width="15" height="15" fill="white" stroke="#979797"/>
<mask id="path-57-inside-15_1299_4899" fill="white">
<path d="M24 544H64V585H24V544Z"/>
</mask>
<path d="M64 585V584H24V585V586H64V585Z" fill="#D7D7D7" mask="url(#path-57-inside-15_1299_4899)"/>
<rect x="36.5" y="557" width="15" height="15" fill="white" stroke="#979797"/>
</g>
<g clip-path="url(#clip14_1299_4899)">
<rect width="320" height="409" transform="translate(64 176)" fill="white"/>
<rect width="320" height="40" transform="translate(64 176)" fill="#D9D9D9"/>
<rect x="64" y="191" width="83" height="10" fill="#171717"/>
<mask id="path-61-inside-16_1299_4899" fill="white">
<path d="M64 216H384V257H64V216Z"/>
</mask>
<path d="M384 257V256H64V257V258H384V257Z" fill="#D7D7D7" mask="url(#path-61-inside-16_1299_4899)"/>
<rect x="64" y="231.5" width="186" height="10" fill="#979797"/>
<mask id="path-64-inside-17_1299_4899" fill="white">
<path d="M64 257H384V298H64V257Z"/>
</mask>
<path d="M384 298V297H64V298V299H384V298Z" fill="#D7D7D7" mask="url(#path-64-inside-17_1299_4899)"/>
<rect x="64" y="272.5" width="222" height="10" fill="#979797"/>
<mask id="path-67-inside-18_1299_4899" fill="white">
<path d="M64 298H384V339H64V298Z"/>
</mask>
<path d="M384 339V338H64V339V340H384V339Z" fill="#D7D7D7" mask="url(#path-67-inside-18_1299_4899)"/>
<rect x="64" y="313.5" width="142" height="10" fill="#979797"/>
<mask id="path-70-inside-19_1299_4899" fill="white">
<path d="M64 339H384V380H64V339Z"/>
</mask>
<path d="M384 380V379H64V380V381H384V380Z" fill="#D7D7D7" mask="url(#path-70-inside-19_1299_4899)"/>
<rect x="64" y="354.5" width="132" height="10" fill="#979797"/>
<mask id="path-73-inside-20_1299_4899" fill="white">
<path d="M64 380H384V421H64V380Z"/>
</mask>
<path d="M384 421V420H64V421V422H384V421Z" fill="#D7D7D7" mask="url(#path-73-inside-20_1299_4899)"/>
<rect x="64" y="395.5" width="186" height="10" fill="#979797"/>
<mask id="path-76-inside-21_1299_4899" fill="white">
<path d="M64 421H384V462H64V421Z"/>
</mask>
<path d="M384 462V461H64V462V463H384V462Z" fill="#D7D7D7" mask="url(#path-76-inside-21_1299_4899)"/>
<rect x="64" y="436.5" width="232" height="10" fill="#979797"/>
<mask id="path-79-inside-22_1299_4899" fill="white">
<path d="M64 462H384V503H64V462Z"/>
</mask>
<path d="M384 503V502H64V503V504H384V503Z" fill="#D7D7D7" mask="url(#path-79-inside-22_1299_4899)"/>
<rect x="64" y="477.5" width="157" height="10" fill="#979797"/>
<mask id="path-82-inside-23_1299_4899" fill="white">
<path d="M64 503H384V544H64V503Z"/>
</mask>
<path d="M384 544V543H64V544V545H384V544Z" fill="#D7D7D7" mask="url(#path-82-inside-23_1299_4899)"/>
<rect x="64" y="518.5" width="186" height="10" fill="#979797"/>
<mask id="path-85-inside-24_1299_4899" fill="white">
<path d="M64 544H384V585H64V544Z"/>
</mask>
<path d="M384 585V584H64V585V586H384V585Z" fill="#D7D7D7" mask="url(#path-85-inside-24_1299_4899)"/>
<rect x="64" y="559.5" width="242" height="10" fill="#979797"/>
</g>
<g clip-path="url(#clip15_1299_4899)">
<rect width="384" height="409" transform="translate(384 176)" fill="white"/>
<rect width="384" height="40" transform="translate(384 176)" fill="#D9D9D9"/>
<rect x="396" y="191" width="83" height="10" fill="#171717"/>
<mask id="path-89-inside-25_1299_4899" fill="white">
<path d="M384 216H768V257H384V216Z"/>
</mask>
<path d="M768 257V256H384V257V258H768V257Z" fill="#D7D7D7" mask="url(#path-89-inside-25_1299_4899)"/>
<rect x="396" y="231.5" width="110" height="10" fill="#979797"/>
<mask id="path-92-inside-26_1299_4899" fill="white">
<path d="M384 257H768V298H384V257Z"/>
</mask>
<path d="M768 298V297H384V298V299H768V298Z" fill="#D7D7D7" mask="url(#path-92-inside-26_1299_4899)"/>
<rect x="396" y="272.5" width="76" height="10" fill="#979797"/>
<mask id="path-95-inside-27_1299_4899" fill="white">
<path d="M384 298H768V339H384V298Z"/>
</mask>
<path d="M768 339V338H384V339V340H768V339Z" fill="#D7D7D7" mask="url(#path-95-inside-27_1299_4899)"/>
<rect x="396" y="313.5" width="92" height="10" fill="#979797"/>
<mask id="path-98-inside-28_1299_4899" fill="white">
<path d="M384 339H768V380H384V339Z"/>
</mask>
<path d="M768 380V379H384V380V381H768V380Z" fill="#D7D7D7" mask="url(#path-98-inside-28_1299_4899)"/>
<rect x="396" y="354.5" width="120" height="10" fill="#979797"/>
<mask id="path-101-inside-29_1299_4899" fill="white">
<path d="M384 380H768V421H384V380Z"/>
</mask>
<path d="M768 421V420H384V421V422H768V421Z" fill="#D7D7D7" mask="url(#path-101-inside-29_1299_4899)"/>
<rect x="396" y="395.5" width="102" height="10" fill="#979797"/>
<mask id="path-104-inside-30_1299_4899" fill="white">
<path d="M384 421H768V462H384V421Z"/>
</mask>
<path d="M768 462V461H384V462V463H768V462Z" fill="#D7D7D7" mask="url(#path-104-inside-30_1299_4899)"/>
<rect x="396" y="436.5" width="90" height="10" fill="#979797"/>
<mask id="path-107-inside-31_1299_4899" fill="white">
<path d="M384 462H768V503H384V462Z"/>
</mask>
<path d="M768 503V502H384V503V504H768V503Z" fill="#D7D7D7" mask="url(#path-107-inside-31_1299_4899)"/>
<rect x="396" y="477.5" width="132" height="10" fill="#979797"/>
<mask id="path-110-inside-32_1299_4899" fill="white">
<path d="M384 503H768V544H384V503Z"/>
</mask>
<path d="M768 544V543H384V544V545H768V544Z" fill="#D7D7D7" mask="url(#path-110-inside-32_1299_4899)"/>
<rect x="396" y="518.5" width="76" height="10" fill="#979797"/>
<mask id="path-113-inside-33_1299_4899" fill="white">
<path d="M384 544H768V585H384V544Z"/>
</mask>
<path d="M768 585V584H384V585V586H768V585Z" fill="#D7D7D7" mask="url(#path-113-inside-33_1299_4899)"/>
<rect x="396" y="559.5" width="88" height="10" fill="#979797"/>
</g>
<g clip-path="url(#clip16_1299_4899)">
<rect width="384" height="409" transform="translate(768 176)" fill="white"/>
<rect width="384" height="40" transform="translate(768 176)" fill="#D9D9D9"/>
<rect x="780" y="191" width="130" height="10" fill="#171717"/>
<mask id="path-117-inside-34_1299_4899" fill="white">
<path d="M768 216H1152V257H768V216Z"/>
</mask>
<path d="M1152 257V256H768V257V258H1152V257Z" fill="#D7D7D7" mask="url(#path-117-inside-34_1299_4899)"/>
<rect x="780" y="224.5" width="132" height="24" rx="12" fill="white"/>
<rect x="780" y="231.5" width="80" height="10" fill="#979797"/>
<mask id="path-121-inside-35_1299_4899" fill="white">
<path d="M768 257H1152V298H768V257Z"/>
</mask>
<path d="M1152 298V297H768V298V299H1152V298Z" fill="#D7D7D7" mask="url(#path-121-inside-35_1299_4899)"/>
<rect x="780" y="265.5" width="132" height="24" rx="12" fill="white"/>
<rect x="780" y="272.5" width="80" height="10" fill="#979797"/>
<mask id="path-125-inside-36_1299_4899" fill="white">
<path d="M768 298H1152V339H768V298Z"/>
</mask>
<path d="M1152 339V338H768V339V340H1152V339Z" fill="#D7D7D7" mask="url(#path-125-inside-36_1299_4899)"/>
<rect x="780" y="306.5" width="132" height="24" rx="12" fill="white"/>
<rect x="780" y="313.5" width="80" height="10" fill="#979797"/>
<mask id="path-129-inside-37_1299_4899" fill="white">
<path d="M768 339H1152V380H768V339Z"/>
</mask>
<path d="M1152 380V379H768V380V381H1152V380Z" fill="#D7D7D7" mask="url(#path-129-inside-37_1299_4899)"/>
<rect x="780" y="347.5" width="132" height="24" rx="12" fill="white"/>
<rect x="780" y="354.5" width="80" height="10" fill="#979797"/>
<mask id="path-133-inside-38_1299_4899" fill="white">
<path d="M768 380H1152V421H768V380Z"/>
</mask>
<path d="M1152 421V420H768V421V422H1152V421Z" fill="#D7D7D7" mask="url(#path-133-inside-38_1299_4899)"/>
<rect x="780" y="388.5" width="132" height="24" rx="12" fill="white"/>
<rect x="780" y="395.5" width="80" height="10" fill="#979797"/>
<mask id="path-137-inside-39_1299_4899" fill="white">
<path d="M768 421H1152V462H768V421Z"/>
</mask>
<path d="M1152 462V461H768V462V463H1152V462Z" fill="#D7D7D7" mask="url(#path-137-inside-39_1299_4899)"/>
<rect x="780" y="429.5" width="132" height="24" rx="12" fill="white"/>
<rect x="780" y="436.5" width="80" height="10" fill="#979797"/>
<mask id="path-141-inside-40_1299_4899" fill="white">
<path d="M768 462H1152V503H768V462Z"/>
</mask>
<path d="M1152 503V502H768V503V504H1152V503Z" fill="#D7D7D7" mask="url(#path-141-inside-40_1299_4899)"/>
<rect x="780" y="470.5" width="132" height="24" rx="12" fill="white"/>
<rect x="780" y="477.5" width="80" height="10" fill="#979797"/>
<mask id="path-145-inside-41_1299_4899" fill="white">
<path d="M768 503H1152V544H768V503Z"/>
</mask>
<path d="M1152 544V543H768V544V545H1152V544Z" fill="#D7D7D7" mask="url(#path-145-inside-41_1299_4899)"/>
<rect x="780" y="511.5" width="132" height="24" rx="12" fill="white"/>
<rect x="780" y="518.5" width="80" height="10" fill="#979797"/>
<mask id="path-149-inside-42_1299_4899" fill="white">
<path d="M768 544H1152V585H768V544Z"/>
</mask>
<path d="M1152 585V584H768V585V586H1152V585Z" fill="#D7D7D7" mask="url(#path-149-inside-42_1299_4899)"/>
<rect x="780" y="552.5" width="132" height="24" rx="12" fill="white"/>
<rect x="780" y="559.5" width="80" height="10" fill="#979797"/>
</g>
<g clip-path="url(#clip17_1299_4899)">
<rect width="384" height="409" transform="translate(1152 176)" fill="white"/>
<rect width="384" height="40" transform="translate(1152 176)" fill="#D9D9D9"/>
<rect x="1164" y="191" width="110" height="10" fill="#171717"/>
<mask id="path-154-inside-43_1299_4899" fill="white">
<path d="M1152 216H1536V257H1152V216Z"/>
</mask>
<path d="M1536 257V256H1152V257V258H1536V257Z" fill="#D7D7D7" mask="url(#path-154-inside-43_1299_4899)"/>
<rect x="1164" y="231.5" width="83" height="10" fill="#979797"/>
<mask id="path-157-inside-44_1299_4899" fill="white">
<path d="M1152 257H1536V298H1152V257Z"/>
</mask>
<path d="M1536 298V297H1152V298V299H1536V298Z" fill="#D7D7D7" mask="url(#path-157-inside-44_1299_4899)"/>
<rect x="1164" y="272.5" width="83" height="10" fill="#979797"/>
<mask id="path-160-inside-45_1299_4899" fill="white">
<path d="M1152 298H1536V339H1152V298Z"/>
</mask>
<path d="M1536 339V338H1152V339V340H1536V339Z" fill="#D7D7D7" mask="url(#path-160-inside-45_1299_4899)"/>
<rect x="1164" y="313.5" width="83" height="10" fill="#979797"/>
<mask id="path-163-inside-46_1299_4899" fill="white">
<path d="M1152 339H1536V380H1152V339Z"/>
</mask>
<path d="M1536 380V379H1152V380V381H1536V380Z" fill="#D7D7D7" mask="url(#path-163-inside-46_1299_4899)"/>
<rect x="1164" y="354.5" width="83" height="10" fill="#979797"/>
<mask id="path-166-inside-47_1299_4899" fill="white">
<path d="M1152 380H1536V421H1152V380Z"/>
</mask>
<path d="M1536 421V420H1152V421V422H1536V421Z" fill="#D7D7D7" mask="url(#path-166-inside-47_1299_4899)"/>
<rect x="1164" y="395.5" width="83" height="10" fill="#979797"/>
<mask id="path-169-inside-48_1299_4899" fill="white">
<path d="M1152 421H1536V462H1152V421Z"/>
</mask>
<path d="M1536 462V461H1152V462V463H1536V462Z" fill="#D7D7D7" mask="url(#path-169-inside-48_1299_4899)"/>
<rect x="1164" y="436.5" width="83" height="10" fill="#979797"/>
<mask id="path-172-inside-49_1299_4899" fill="white">
<path d="M1152 462H1536V503H1152V462Z"/>
</mask>
<path d="M1536 503V502H1152V503V504H1536V503Z" fill="#D7D7D7" mask="url(#path-172-inside-49_1299_4899)"/>
<rect x="1164" y="477.5" width="83" height="10" fill="#979797"/>
<mask id="path-175-inside-50_1299_4899" fill="white">
<path d="M1152 503H1536V544H1152V503Z"/>
</mask>
<path d="M1536 544V543H1152V544V545H1536V544Z" fill="#D7D7D7" mask="url(#path-175-inside-50_1299_4899)"/>
<rect x="1164" y="518.5" width="83" height="10" fill="#979797"/>
<mask id="path-178-inside-51_1299_4899" fill="white">
<path d="M1152 544H1536V585H1152V544Z"/>
</mask>
<path d="M1536 585V584H1152V585V586H1536V585Z" fill="#D7D7D7" mask="url(#path-178-inside-51_1299_4899)"/>
<rect x="1164" y="559.5" width="83" height="10" fill="#979797"/>
</g>
<g clip-path="url(#clip18_1299_4899)">
<rect width="40" height="409" transform="translate(1536 176)" fill="white"/>
<rect width="40" height="40" transform="translate(1536 176)" fill="#D9D9D9"/>
<mask id="path-181-inside-52_1299_4899" fill="white">
<path d="M1536 216H1576V257H1536V216Z"/>
</mask>
<path d="M1576 257V256H1536V257V258H1576V257Z" fill="#D7D7D7" mask="url(#path-181-inside-52_1299_4899)"/>
<g clip-path="url(#clip19_1299_4899)">
<path d="M1550 235C1550.83 235 1551.5 235.672 1551.5 236.5C1551.5 237.328 1550.83 238 1550 238C1549.17 238 1548.5 237.328 1548.5 236.5C1548.5 235.672 1549.17 235 1550 235ZM1556 235C1556.83 235 1557.5 235.672 1557.5 236.5C1557.5 237.328 1556.83 238 1556 238C1555.17 238 1554.5 237.328 1554.5 236.5C1554.5 235.672 1555.17 235 1556 235ZM1562 235C1562.83 235 1563.5 235.672 1563.5 236.5C1563.5 237.328 1562.83 238 1562 238C1561.17 238 1560.5 237.328 1560.5 236.5C1560.5 235.672 1561.17 235 1562 235Z" fill="#979797"/>
</g>
<mask id="path-184-inside-53_1299_4899" fill="white">
<path d="M1536 257H1576V298H1536V257Z"/>
</mask>
<path d="M1576 298V297H1536V298V299H1576V298Z" fill="#D7D7D7" mask="url(#path-184-inside-53_1299_4899)"/>
<g clip-path="url(#clip20_1299_4899)">
<path d="M1550 276C1550.83 276 1551.5 276.672 1551.5 277.5C1551.5 278.328 1550.83 279 1550 279C1549.17 279 1548.5 278.328 1548.5 277.5C1548.5 276.672 1549.17 276 1550 276ZM1556 276C1556.83 276 1557.5 276.672 1557.5 277.5C1557.5 278.328 1556.83 279 1556 279C1555.17 279 1554.5 278.328 1554.5 277.5C1554.5 276.672 1555.17 276 1556 276ZM1562 276C1562.83 276 1563.5 276.672 1563.5 277.5C1563.5 278.328 1562.83 279 1562 279C1561.17 279 1560.5 278.328 1560.5 277.5C1560.5 276.672 1561.17 276 1562 276Z" fill="#979797"/>
</g>
<mask id="path-187-inside-54_1299_4899" fill="white">
<path d="M1536 298H1576V339H1536V298Z"/>
</mask>
<path d="M1576 339V338H1536V339V340H1576V339Z" fill="#D7D7D7" mask="url(#path-187-inside-54_1299_4899)"/>
<g clip-path="url(#clip21_1299_4899)">
<path d="M1550 317C1550.83 317 1551.5 317.672 1551.5 318.5C1551.5 319.328 1550.83 320 1550 320C1549.17 320 1548.5 319.328 1548.5 318.5C1548.5 317.672 1549.17 317 1550 317ZM1556 317C1556.83 317 1557.5 317.672 1557.5 318.5C1557.5 319.328 1556.83 320 1556 320C1555.17 320 1554.5 319.328 1554.5 318.5C1554.5 317.672 1555.17 317 1556 317ZM1562 317C1562.83 317 1563.5 317.672 1563.5 318.5C1563.5 319.328 1562.83 320 1562 320C1561.17 320 1560.5 319.328 1560.5 318.5C1560.5 317.672 1561.17 317 1562 317Z" fill="#979797"/>
</g>
<mask id="path-190-inside-55_1299_4899" fill="white">
<path d="M1536 339H1576V380H1536V339Z"/>
</mask>
<path d="M1576 380V379H1536V380V381H1576V380Z" fill="#D7D7D7" mask="url(#path-190-inside-55_1299_4899)"/>
<g clip-path="url(#clip22_1299_4899)">
<path d="M1550 358C1550.83 358 1551.5 358.672 1551.5 359.5C1551.5 360.328 1550.83 361 1550 361C1549.17 361 1548.5 360.328 1548.5 359.5C1548.5 358.672 1549.17 358 1550 358ZM1556 358C1556.83 358 1557.5 358.672 1557.5 359.5C1557.5 360.328 1556.83 361 1556 361C1555.17 361 1554.5 360.328 1554.5 359.5C1554.5 358.672 1555.17 358 1556 358ZM1562 358C1562.83 358 1563.5 358.672 1563.5 359.5C1563.5 360.328 1562.83 361 1562 361C1561.17 361 1560.5 360.328 1560.5 359.5C1560.5 358.672 1561.17 358 1562 358Z" fill="#979797"/>
</g>
<mask id="path-193-inside-56_1299_4899" fill="white">
<path d="M1536 380H1576V421H1536V380Z"/>
</mask>
<path d="M1576 421V420H1536V421V422H1576V421Z" fill="#D7D7D7" mask="url(#path-193-inside-56_1299_4899)"/>
<g clip-path="url(#clip23_1299_4899)">
<path d="M1550 399C1550.83 399 1551.5 399.672 1551.5 400.5C1551.5 401.328 1550.83 402 1550 402C1549.17 402 1548.5 401.328 1548.5 400.5C1548.5 399.672 1549.17 399 1550 399ZM1556 399C1556.83 399 1557.5 399.672 1557.5 400.5C1557.5 401.328 1556.83 402 1556 402C1555.17 402 1554.5 401.328 1554.5 400.5C1554.5 399.672 1555.17 399 1556 399ZM1562 399C1562.83 399 1563.5 399.672 1563.5 400.5C1563.5 401.328 1562.83 402 1562 402C1561.17 402 1560.5 401.328 1560.5 400.5C1560.5 399.672 1561.17 399 1562 399Z" fill="#979797"/>
</g>
<mask id="path-196-inside-57_1299_4899" fill="white">
<path d="M1536 421H1576V462H1536V421Z"/>
</mask>
<path d="M1576 462V461H1536V462V463H1576V462Z" fill="#D7D7D7" mask="url(#path-196-inside-57_1299_4899)"/>
<g clip-path="url(#clip24_1299_4899)">
<path d="M1550 440C1550.83 440 1551.5 440.672 1551.5 441.5C1551.5 442.328 1550.83 443 1550 443C1549.17 443 1548.5 442.328 1548.5 441.5C1548.5 440.672 1549.17 440 1550 440ZM1556 440C1556.83 440 1557.5 440.672 1557.5 441.5C1557.5 442.328 1556.83 443 1556 443C1555.17 443 1554.5 442.328 1554.5 441.5C1554.5 440.672 1555.17 440 1556 440ZM1562 440C1562.83 440 1563.5 440.672 1563.5 441.5C1563.5 442.328 1562.83 443 1562 443C1561.17 443 1560.5 442.328 1560.5 441.5C1560.5 440.672 1561.17 440 1562 440Z" fill="#979797"/>
</g>
<mask id="path-199-inside-58_1299_4899" fill="white">
<path d="M1536 462H1576V503H1536V462Z"/>
</mask>
<path d="M1576 503V502H1536V503V504H1576V503Z" fill="#D7D7D7" mask="url(#path-199-inside-58_1299_4899)"/>
<g clip-path="url(#clip25_1299_4899)">
<path d="M1550 481C1550.83 481 1551.5 481.672 1551.5 482.5C1551.5 483.328 1550.83 484 1550 484C1549.17 484 1548.5 483.328 1548.5 482.5C1548.5 481.672 1549.17 481 1550 481ZM1556 481C1556.83 481 1557.5 481.672 1557.5 482.5C1557.5 483.328 1556.83 484 1556 484C1555.17 484 1554.5 483.328 1554.5 482.5C1554.5 481.672 1555.17 481 1556 481ZM1562 481C1562.83 481 1563.5 481.672 1563.5 482.5C1563.5 483.328 1562.83 484 1562 484C1561.17 484 1560.5 483.328 1560.5 482.5C1560.5 481.672 1561.17 481 1562 481Z" fill="#979797"/>
</g>
<mask id="path-202-inside-59_1299_4899" fill="white">
<path d="M1536 503H1576V544H1536V503Z"/>
</mask>
<path d="M1576 544V543H1536V544V545H1576V544Z" fill="#D7D7D7" mask="url(#path-202-inside-59_1299_4899)"/>
<g clip-path="url(#clip26_1299_4899)">
<path d="M1550 522C1550.83 522 1551.5 522.672 1551.5 523.5C1551.5 524.328 1550.83 525 1550 525C1549.17 525 1548.5 524.328 1548.5 523.5C1548.5 522.672 1549.17 522 1550 522ZM1556 522C1556.83 522 1557.5 522.672 1557.5 523.5C1557.5 524.328 1556.83 525 1556 525C1555.17 525 1554.5 524.328 1554.5 523.5C1554.5 522.672 1555.17 522 1556 522ZM1562 522C1562.83 522 1563.5 522.672 1563.5 523.5C1563.5 524.328 1562.83 525 1562 525C1561.17 525 1560.5 524.328 1560.5 523.5C1560.5 522.672 1561.17 522 1562 522Z" fill="#979797"/>
</g>
<mask id="path-205-inside-60_1299_4899" fill="white">
<path d="M1536 544H1576V585H1536V544Z"/>
</mask>
<path d="M1576 585V584H1536V585V586H1576V585Z" fill="#D7D7D7" mask="url(#path-205-inside-60_1299_4899)"/>
<g clip-path="url(#clip27_1299_4899)">
<path d="M1550 563C1550.83 563 1551.5 563.672 1551.5 564.5C1551.5 565.328 1550.83 566 1550 566C1549.17 566 1548.5 565.328 1548.5 564.5C1548.5 563.672 1549.17 563 1550 563ZM1556 563C1556.83 563 1557.5 563.672 1557.5 564.5C1557.5 565.328 1556.83 566 1556 566C1555.17 566 1554.5 565.328 1554.5 564.5C1554.5 563.672 1555.17 563 1556 563ZM1562 563C1562.83 563 1563.5 563.672 1563.5 564.5C1563.5 565.328 1562.83 566 1562 566C1561.17 566 1560.5 565.328 1560.5 564.5C1560.5 563.672 1561.17 563 1562 563Z" fill="#979797"/>
</g>
</g>
</g>
</g>
</g>
</g>
<g filter="url(#filter0_d_1299_4899)">
<g clip-path="url(#clip28_1299_4899)">
<rect x="1296" y="972" width="280" height="84" fill="white"/>
<rect width="4" height="84" transform="translate(1296 972)" fill="#00813A"/>
<g clip-path="url(#clip29_1299_4899)">
<g clip-path="url(#clip30_1299_4899)">
<path d="M1326 989.25C1321.19 989.25 1317.25 993.188 1317.25 998C1317.25 1002.81 1321.19 1006.75 1326 1006.75C1330.81 1006.75 1334.75 1002.81 1334.75 998C1334.75 993.188 1330.81 989.25 1326 989.25ZM1324.75 1001.69L1321.19 998.125L1322.06 997.25L1324.75 999.938L1329.94 994.75L1330.81 995.625L1324.75 1001.69Z" fill="#00813A"/>
</g>
<path d="M1350.16 1000.42C1350.16 1000.22 1350.13 1000.05 1350.07 999.903C1350.02 999.748 1349.91 999.609 1349.76 999.486C1349.62 999.359 1349.41 999.236 1349.14 999.117C1348.88 998.994 1348.53 998.867 1348.12 998.734C1347.65 998.589 1347.22 998.424 1346.82 998.242C1346.42 998.06 1346.06 997.848 1345.76 997.606C1345.46 997.365 1345.22 997.087 1345.05 996.772C1344.88 996.453 1344.8 996.084 1344.8 995.665C1344.8 995.255 1344.89 994.881 1345.06 994.544C1345.24 994.207 1345.49 993.917 1345.81 993.676C1346.14 993.43 1346.52 993.241 1346.95 993.108C1347.4 992.976 1347.88 992.91 1348.42 992.91C1349.15 992.91 1349.79 993.045 1350.33 993.313C1350.87 993.582 1351.29 993.947 1351.59 994.407C1351.88 994.868 1352.03 995.385 1352.03 995.959H1350.16C1350.16 995.649 1350.09 995.376 1349.96 995.139C1349.83 994.902 1349.64 994.715 1349.37 994.578C1349.11 994.441 1348.79 994.373 1348.39 994.373C1348.01 994.373 1347.69 994.43 1347.43 994.544C1347.18 994.658 1346.99 994.813 1346.86 995.009C1346.74 995.205 1346.68 995.424 1346.68 995.665C1346.68 995.847 1346.72 996.011 1346.81 996.157C1346.9 996.299 1347.03 996.433 1347.2 996.561C1347.37 996.684 1347.59 996.8 1347.84 996.909C1348.1 997.014 1348.4 997.119 1348.74 997.224C1349.29 997.388 1349.77 997.57 1350.18 997.771C1350.59 997.971 1350.94 998.199 1351.21 998.454C1351.49 998.709 1351.7 998.996 1351.83 999.315C1351.98 999.634 1352.05 999.997 1352.05 1000.4C1352.05 1000.83 1351.96 1001.21 1351.79 1001.55C1351.62 1001.89 1351.38 1002.18 1351.07 1002.41C1350.75 1002.65 1350.38 1002.83 1349.93 1002.95C1349.5 1003.08 1349.01 1003.14 1348.46 1003.14C1347.98 1003.14 1347.5 1003.07 1347.03 1002.95C1346.56 1002.81 1346.13 1002.62 1345.75 1002.36C1345.37 1002.09 1345.06 1001.76 1344.83 1001.36C1344.61 1000.95 1344.49 1000.48 1344.49 999.938H1346.38C1346.38 1000.25 1346.43 1000.52 1346.53 1000.74C1346.63 1000.96 1346.78 1001.14 1346.97 1001.28C1347.16 1001.42 1347.38 1001.52 1347.64 1001.58C1347.89 1001.65 1348.17 1001.68 1348.46 1001.68C1348.85 1001.68 1349.16 1001.63 1349.41 1001.52C1349.66 1001.41 1349.84 1001.26 1349.97 1001.07C1350.1 1000.88 1350.16 1000.66 1350.16 1000.42ZM1357.76 1001.24V995.604H1359.58V1003H1357.87L1357.76 1001.24ZM1357.99 999.712L1358.55 999.698C1358.55 1000.19 1358.5 1000.65 1358.39 1001.07C1358.28 1001.49 1358.11 1001.86 1357.88 1002.17C1357.65 1002.47 1357.36 1002.71 1357.01 1002.88C1356.66 1003.05 1356.24 1003.14 1355.76 1003.14C1355.4 1003.14 1355.07 1003.09 1354.77 1002.99C1354.47 1002.88 1354.21 1002.72 1353.99 1002.5C1353.77 1002.28 1353.61 1001.99 1353.49 1001.65C1353.37 1001.3 1353.31 1000.87 1353.31 1000.38V995.604H1355.12V1000.4C1355.12 1000.64 1355.14 1000.85 1355.2 1001.01C1355.26 1001.17 1355.34 1001.31 1355.44 1001.41C1355.54 1001.51 1355.66 1001.59 1355.8 1001.63C1355.94 1001.67 1356.09 1001.69 1356.25 1001.69C1356.69 1001.69 1357.03 1001.61 1357.28 1001.43C1357.54 1001.26 1357.72 1001.02 1357.83 1000.72C1357.94 1000.42 1357.99 1000.09 1357.99 999.712ZM1364.21 1001.71C1364.47 1001.71 1364.7 1001.66 1364.9 1001.56C1365.1 1001.46 1365.26 1001.32 1365.38 1001.14C1365.5 1000.96 1365.57 1000.75 1365.57 1000.5H1367.28C1367.27 1001.01 1367.13 1001.46 1366.85 1001.85C1366.58 1002.25 1366.21 1002.56 1365.76 1002.79C1365.31 1003.02 1364.8 1003.14 1364.24 1003.14C1363.67 1003.14 1363.17 1003.04 1362.75 1002.85C1362.33 1002.66 1361.97 1002.39 1361.69 1002.05C1361.41 1001.71 1361.2 1001.31 1361.06 1000.86C1360.93 1000.41 1360.86 999.926 1360.86 999.411V999.192C1360.86 998.677 1360.93 998.194 1361.06 997.743C1361.2 997.292 1361.41 996.896 1361.69 996.554C1361.97 996.212 1362.33 995.945 1362.75 995.754C1363.17 995.562 1363.67 995.467 1364.23 995.467C1364.83 995.467 1365.36 995.583 1365.81 995.815C1366.26 996.048 1366.62 996.376 1366.87 996.8C1367.13 997.224 1367.27 997.723 1367.28 998.297H1365.57C1365.57 998.033 1365.51 997.796 1365.4 997.586C1365.29 997.376 1365.13 997.208 1364.93 997.08C1364.73 996.952 1364.49 996.889 1364.2 996.889C1363.89 996.889 1363.64 996.952 1363.43 997.08C1363.23 997.208 1363.08 997.383 1362.96 997.606C1362.85 997.825 1362.78 998.071 1362.73 998.345C1362.69 998.614 1362.67 998.896 1362.67 999.192V999.411C1362.67 999.712 1362.69 999.999 1362.73 1000.27C1362.78 1000.55 1362.85 1000.79 1362.96 1001.01C1363.08 1001.22 1363.23 1001.4 1363.43 1001.52C1363.64 1001.65 1363.9 1001.71 1364.21 1001.71ZM1371.51 1001.71C1371.77 1001.71 1372 1001.66 1372.2 1001.56C1372.4 1001.46 1372.56 1001.32 1372.68 1001.14C1372.8 1000.96 1372.87 1000.75 1372.88 1000.5H1374.58C1374.57 1001.01 1374.43 1001.46 1374.15 1001.85C1373.88 1002.25 1373.52 1002.56 1373.06 1002.79C1372.61 1003.02 1372.1 1003.14 1371.54 1003.14C1370.97 1003.14 1370.48 1003.04 1370.05 1002.85C1369.63 1002.66 1369.27 1002.39 1368.99 1002.05C1368.71 1001.71 1368.5 1001.31 1368.36 1000.86C1368.23 1000.41 1368.16 999.926 1368.16 999.411V999.192C1368.16 998.677 1368.23 998.194 1368.36 997.743C1368.5 997.292 1368.71 996.896 1368.99 996.554C1369.27 996.212 1369.63 995.945 1370.05 995.754C1370.48 995.562 1370.97 995.467 1371.54 995.467C1372.13 995.467 1372.66 995.583 1373.11 995.815C1373.56 996.048 1373.92 996.376 1374.17 996.8C1374.43 997.224 1374.57 997.723 1374.58 998.297H1372.88C1372.87 998.033 1372.81 997.796 1372.7 997.586C1372.59 997.376 1372.43 997.208 1372.23 997.08C1372.03 996.952 1371.79 996.889 1371.5 996.889C1371.2 996.889 1370.94 996.952 1370.74 997.08C1370.53 997.208 1370.38 997.383 1370.26 997.606C1370.15 997.825 1370.08 998.071 1370.03 998.345C1369.99 998.614 1369.97 998.896 1369.97 999.192V999.411C1369.97 999.712 1369.99 999.999 1370.03 1000.27C1370.08 1000.55 1370.15 1000.79 1370.26 1001.01C1370.38 1001.22 1370.53 1001.4 1370.74 1001.52C1370.94 1001.65 1371.2 1001.71 1371.51 1001.71ZM1379.1 1003.14C1378.54 1003.14 1378.04 1003.05 1377.59 1002.86C1377.15 1002.68 1376.76 1002.43 1376.45 1002.1C1376.14 1001.78 1375.9 1001.4 1375.73 1000.96C1375.57 1000.53 1375.49 1000.06 1375.49 999.555V999.281C1375.49 998.712 1375.57 998.194 1375.73 997.729C1375.9 997.26 1376.13 996.857 1376.43 996.52C1376.73 996.182 1377.09 995.923 1377.51 995.74C1377.93 995.558 1378.39 995.467 1378.9 995.467C1379.42 995.467 1379.88 995.556 1380.29 995.733C1380.69 995.907 1381.02 996.153 1381.29 996.472C1381.56 996.791 1381.76 997.174 1381.9 997.62C1382.04 998.062 1382.1 998.552 1382.1 999.09V999.849H1376.31V998.604H1380.33V998.468C1380.32 998.181 1380.26 997.919 1380.16 997.682C1380.06 997.44 1379.91 997.249 1379.7 997.107C1379.49 996.962 1379.22 996.889 1378.88 996.889C1378.61 996.889 1378.38 996.948 1378.18 997.066C1377.98 997.18 1377.82 997.344 1377.69 997.559C1377.56 997.768 1377.46 998.019 1377.4 998.311C1377.34 998.602 1377.3 998.926 1377.3 999.281V999.555C1377.3 999.865 1377.35 1000.15 1377.43 1000.42C1377.51 1000.68 1377.64 1000.91 1377.8 1001.11C1377.97 1001.3 1378.17 1001.45 1378.41 1001.56C1378.64 1001.66 1378.91 1001.71 1379.21 1001.71C1379.59 1001.71 1379.93 1001.64 1380.24 1001.5C1380.55 1001.35 1380.82 1001.12 1381.04 1000.83L1381.95 1001.78C1381.8 1002 1381.59 1002.22 1381.32 1002.43C1381.06 1002.64 1380.75 1002.81 1380.38 1002.95C1380.01 1003.07 1379.59 1003.14 1379.1 1003.14ZM1387.38 1000.98C1387.38 1000.82 1387.34 1000.68 1387.26 1000.56C1387.18 1000.44 1387.02 1000.32 1386.79 1000.22C1386.57 1000.12 1386.24 1000.02 1385.81 999.931C1385.43 999.849 1385.07 999.746 1384.75 999.623C1384.43 999.5 1384.15 999.352 1383.92 999.179C1383.68 999.001 1383.5 998.794 1383.37 998.557C1383.24 998.315 1383.18 998.037 1383.18 997.723C1383.18 997.417 1383.24 997.13 1383.38 996.861C1383.51 996.588 1383.7 996.349 1383.95 996.144C1384.2 995.934 1384.51 995.77 1384.87 995.651C1385.23 995.528 1385.63 995.467 1386.08 995.467C1386.71 995.467 1387.25 995.569 1387.7 995.774C1388.16 995.979 1388.51 996.262 1388.75 996.622C1388.99 996.978 1389.11 997.379 1389.11 997.825H1387.31C1387.31 997.629 1387.26 997.451 1387.17 997.292C1387.08 997.132 1386.95 997.005 1386.77 996.909C1386.58 996.809 1386.35 996.759 1386.08 996.759C1385.82 996.759 1385.61 996.8 1385.44 996.882C1385.27 996.964 1385.14 997.071 1385.06 997.203C1384.97 997.335 1384.93 997.481 1384.93 997.641C1384.93 997.759 1384.95 997.866 1385 997.962C1385.05 998.053 1385.12 998.137 1385.23 998.215C1385.34 998.292 1385.49 998.363 1385.68 998.427C1385.87 998.491 1386.1 998.552 1386.38 998.611C1386.93 998.721 1387.42 998.867 1387.83 999.049C1388.24 999.227 1388.56 999.464 1388.8 999.76C1389.03 1000.06 1389.14 1000.43 1389.14 1000.89C1389.14 1001.22 1389.07 1001.52 1388.93 1001.8C1388.79 1002.07 1388.59 1002.3 1388.32 1002.5C1388.05 1002.7 1387.73 1002.86 1387.35 1002.97C1386.98 1003.08 1386.56 1003.14 1386.09 1003.14C1385.41 1003.14 1384.84 1003.02 1384.37 1002.77C1383.9 1002.53 1383.54 1002.22 1383.3 1001.84C1383.06 1001.47 1382.94 1001.07 1382.94 1000.67H1384.67C1384.68 1000.96 1384.76 1001.19 1384.9 1001.36C1385.04 1001.53 1385.22 1001.66 1385.43 1001.74C1385.65 1001.81 1385.88 1001.84 1386.12 1001.84C1386.4 1001.84 1386.63 1001.81 1386.81 1001.74C1387 1001.66 1387.14 1001.56 1387.24 1001.43C1387.33 1001.3 1387.38 1001.15 1387.38 1000.98ZM1394.59 1000.98C1394.59 1000.82 1394.54 1000.68 1394.46 1000.56C1394.38 1000.44 1394.23 1000.32 1394 1000.22C1393.77 1000.12 1393.45 1000.02 1393.01 999.931C1392.63 999.849 1392.28 999.746 1391.95 999.623C1391.63 999.5 1391.35 999.352 1391.12 999.179C1390.89 999.001 1390.71 998.794 1390.57 998.557C1390.45 998.315 1390.38 998.037 1390.38 997.723C1390.38 997.417 1390.45 997.13 1390.58 996.861C1390.71 996.588 1390.9 996.349 1391.15 996.144C1391.4 995.934 1391.71 995.77 1392.07 995.651C1392.43 995.528 1392.84 995.467 1393.29 995.467C1393.92 995.467 1394.46 995.569 1394.91 995.774C1395.36 995.979 1395.71 996.262 1395.95 996.622C1396.19 996.978 1396.32 997.379 1396.32 997.825H1394.51C1394.51 997.629 1394.47 997.451 1394.37 997.292C1394.29 997.132 1394.15 997.005 1393.97 996.909C1393.79 996.809 1393.56 996.759 1393.28 996.759C1393.03 996.759 1392.82 996.8 1392.64 996.882C1392.48 996.964 1392.35 997.071 1392.26 997.203C1392.18 997.335 1392.13 997.481 1392.13 997.641C1392.13 997.759 1392.15 997.866 1392.2 997.962C1392.25 998.053 1392.33 998.137 1392.44 998.215C1392.55 998.292 1392.7 998.363 1392.88 998.427C1393.08 998.491 1393.31 998.552 1393.59 998.611C1394.14 998.721 1394.62 998.867 1395.03 999.049C1395.44 999.227 1395.77 999.464 1396 999.76C1396.23 1000.06 1396.35 1000.43 1396.35 1000.89C1396.35 1001.22 1396.28 1001.52 1396.14 1001.8C1396 1002.07 1395.79 1002.3 1395.52 1002.5C1395.25 1002.7 1394.93 1002.86 1394.56 1002.97C1394.18 1003.08 1393.76 1003.14 1393.29 1003.14C1392.61 1003.14 1392.04 1003.02 1391.57 1002.77C1391.1 1002.53 1390.75 1002.22 1390.5 1001.84C1390.26 1001.47 1390.14 1001.07 1390.14 1000.67H1391.87C1391.89 1000.96 1391.96 1001.19 1392.1 1001.36C1392.25 1001.53 1392.42 1001.66 1392.64 1001.74C1392.86 1001.81 1393.09 1001.84 1393.33 1001.84C1393.6 1001.84 1393.83 1001.81 1394.02 1001.74C1394.21 1001.66 1394.35 1001.56 1394.44 1001.43C1394.54 1001.3 1394.59 1001.15 1394.59 1000.98Z" fill="#00813A"/>
<path d="M1348.83 1015.05V1025H1347.53V1015.05H1348.83ZM1352.03 1015.05V1016.13H1344.34V1015.05H1352.03ZM1354.58 1014.5V1025H1353.32V1014.5H1354.58ZM1354.28 1021.02L1353.75 1021C1353.76 1020.5 1353.83 1020.03 1353.98 1019.6C1354.13 1019.17 1354.33 1018.79 1354.6 1018.47C1354.86 1018.15 1355.17 1017.91 1355.54 1017.73C1355.91 1017.56 1356.32 1017.47 1356.76 1017.47C1357.13 1017.47 1357.46 1017.52 1357.75 1017.62C1358.04 1017.71 1358.29 1017.87 1358.49 1018.08C1358.7 1018.3 1358.86 1018.57 1358.97 1018.92C1359.08 1019.25 1359.13 1019.67 1359.13 1020.15V1025H1357.86V1020.14C1357.86 1019.75 1357.81 1019.44 1357.69 1019.21C1357.58 1018.97 1357.41 1018.8 1357.19 1018.7C1356.97 1018.59 1356.71 1018.53 1356.39 1018.53C1356.07 1018.53 1355.79 1018.6 1355.53 1018.73C1355.27 1018.86 1355.05 1019.05 1354.86 1019.28C1354.68 1019.51 1354.54 1019.78 1354.43 1020.08C1354.33 1020.37 1354.28 1020.69 1354.28 1021.02ZM1364.1 1025.14C1363.58 1025.14 1363.12 1025.05 1362.7 1024.88C1362.28 1024.7 1361.92 1024.45 1361.62 1024.13C1361.33 1023.81 1361.1 1023.43 1360.94 1023C1360.78 1022.56 1360.7 1022.08 1360.7 1021.56V1021.27C1360.7 1020.67 1360.79 1020.14 1360.97 1019.67C1361.14 1019.19 1361.39 1018.79 1361.69 1018.46C1362 1018.14 1362.34 1017.89 1362.73 1017.72C1363.12 1017.55 1363.52 1017.47 1363.93 1017.47C1364.46 1017.47 1364.92 1017.56 1365.3 1017.74C1365.69 1017.92 1366 1018.18 1366.25 1018.51C1366.5 1018.83 1366.68 1019.21 1366.8 1019.65C1366.92 1020.09 1366.98 1020.57 1366.98 1021.09V1021.66H1361.45V1020.62H1365.71V1020.53C1365.69 1020.2 1365.62 1019.88 1365.51 1019.57C1365.39 1019.26 1365.21 1019.01 1364.96 1018.81C1364.71 1018.61 1364.37 1018.51 1363.93 1018.51C1363.65 1018.51 1363.38 1018.57 1363.14 1018.69C1362.9 1018.81 1362.69 1018.99 1362.52 1019.22C1362.35 1019.46 1362.21 1019.75 1362.12 1020.09C1362.02 1020.43 1361.97 1020.83 1361.97 1021.27V1021.56C1361.97 1021.91 1362.02 1022.24 1362.12 1022.55C1362.22 1022.86 1362.36 1023.13 1362.55 1023.36C1362.74 1023.59 1362.97 1023.77 1363.24 1023.91C1363.51 1024.04 1363.82 1024.1 1364.17 1024.1C1364.61 1024.1 1364.99 1024.01 1365.3 1023.83C1365.61 1023.65 1365.88 1023.4 1366.11 1023.1L1366.88 1023.71C1366.72 1023.95 1366.52 1024.18 1366.27 1024.4C1366.03 1024.62 1365.72 1024.79 1365.36 1024.93C1365.01 1025.07 1364.59 1025.14 1364.1 1025.14ZM1371.92 1014.5H1373.19V1023.56L1373.08 1025H1371.92V1014.5ZM1378.19 1021.24V1021.38C1378.19 1021.92 1378.12 1022.42 1378 1022.88C1377.87 1023.34 1377.68 1023.73 1377.43 1024.07C1377.19 1024.41 1376.89 1024.67 1376.53 1024.86C1376.18 1025.04 1375.77 1025.14 1375.31 1025.14C1374.84 1025.14 1374.43 1025.06 1374.07 1024.9C1373.72 1024.73 1373.42 1024.5 1373.18 1024.19C1372.94 1023.89 1372.75 1023.52 1372.6 1023.09C1372.46 1022.65 1372.36 1022.17 1372.31 1021.62V1020.99C1372.36 1020.45 1372.46 1019.96 1372.6 1019.52C1372.75 1019.09 1372.94 1018.72 1373.18 1018.42C1373.42 1018.11 1373.72 1017.87 1374.07 1017.71C1374.42 1017.55 1374.83 1017.47 1375.29 1017.47C1375.76 1017.47 1376.17 1017.56 1376.53 1017.74C1376.89 1017.92 1377.19 1018.17 1377.43 1018.51C1377.68 1018.84 1377.87 1019.24 1378 1019.7C1378.12 1020.16 1378.19 1020.68 1378.19 1021.24ZM1376.92 1021.38V1021.24C1376.92 1020.87 1376.88 1020.52 1376.81 1020.2C1376.74 1019.87 1376.63 1019.59 1376.48 1019.34C1376.33 1019.09 1376.14 1018.89 1375.89 1018.75C1375.64 1018.61 1375.34 1018.53 1374.98 1018.53C1374.66 1018.53 1374.38 1018.59 1374.15 1018.7C1373.91 1018.81 1373.72 1018.95 1373.55 1019.14C1373.39 1019.32 1373.25 1019.53 1373.15 1019.77C1373.05 1020 1372.97 1020.24 1372.92 1020.5V1022.14C1373 1022.46 1373.11 1022.77 1373.28 1023.07C1373.45 1023.36 1373.67 1023.6 1373.95 1023.78C1374.23 1023.97 1374.58 1024.06 1374.99 1024.06C1375.34 1024.06 1375.63 1024 1375.87 1023.86C1376.12 1023.72 1376.31 1023.52 1376.46 1023.28C1376.62 1023.03 1376.73 1022.75 1376.81 1022.42C1376.88 1022.1 1376.92 1021.75 1376.92 1021.38ZM1384.31 1023.29V1017.6H1385.58V1025H1384.37L1384.31 1023.29ZM1384.55 1021.73L1385.08 1021.72C1385.08 1022.21 1385.02 1022.67 1384.92 1023.09C1384.82 1023.5 1384.66 1023.86 1384.43 1024.17C1384.2 1024.47 1383.9 1024.71 1383.53 1024.88C1383.16 1025.05 1382.71 1025.14 1382.19 1025.14C1381.83 1025.14 1381.5 1025.08 1381.19 1024.98C1380.9 1024.87 1380.64 1024.71 1380.43 1024.49C1380.21 1024.28 1380.05 1023.99 1379.93 1023.64C1379.82 1023.29 1379.76 1022.87 1379.76 1022.38V1017.6H1381.02V1022.39C1381.02 1022.72 1381.06 1023 1381.13 1023.22C1381.21 1023.43 1381.31 1023.6 1381.44 1023.73C1381.57 1023.85 1381.72 1023.94 1381.88 1023.99C1382.04 1024.04 1382.21 1024.06 1382.38 1024.06C1382.92 1024.06 1383.35 1023.96 1383.66 1023.76C1383.98 1023.55 1384.2 1023.27 1384.34 1022.92C1384.48 1022.56 1384.55 1022.17 1384.55 1021.73ZM1391.82 1023.04C1391.82 1022.86 1391.78 1022.69 1391.69 1022.53C1391.62 1022.37 1391.46 1022.23 1391.21 1022.1C1390.97 1021.97 1390.6 1021.86 1390.12 1021.76C1389.71 1021.67 1389.33 1021.57 1389 1021.45C1388.67 1021.33 1388.39 1021.19 1388.16 1021.02C1387.93 1020.85 1387.76 1020.65 1387.63 1020.43C1387.51 1020.2 1387.45 1019.93 1387.45 1019.63C1387.45 1019.34 1387.51 1019.06 1387.64 1018.8C1387.77 1018.54 1387.96 1018.31 1388.19 1018.11C1388.44 1017.91 1388.73 1017.75 1389.06 1017.64C1389.4 1017.52 1389.78 1017.47 1390.19 1017.47C1390.78 1017.47 1391.29 1017.57 1391.71 1017.78C1392.13 1017.99 1392.45 1018.27 1392.67 1018.62C1392.9 1018.97 1393.01 1019.35 1393.01 1019.78H1391.74C1391.74 1019.57 1391.68 1019.37 1391.56 1019.18C1391.44 1018.99 1391.26 1018.82 1391.03 1018.7C1390.8 1018.57 1390.52 1018.51 1390.19 1018.51C1389.84 1018.51 1389.55 1018.56 1389.34 1018.67C1389.12 1018.77 1388.96 1018.91 1388.86 1019.07C1388.77 1019.24 1388.72 1019.41 1388.72 1019.59C1388.72 1019.73 1388.74 1019.85 1388.79 1019.96C1388.84 1020.07 1388.93 1020.16 1389.05 1020.26C1389.17 1020.34 1389.35 1020.42 1389.57 1020.5C1389.79 1020.58 1390.08 1020.66 1390.42 1020.73C1391.03 1020.87 1391.53 1021.04 1391.92 1021.23C1392.31 1021.42 1392.6 1021.65 1392.79 1021.93C1392.99 1022.21 1393.08 1022.55 1393.08 1022.94C1393.08 1023.27 1393.01 1023.56 1392.88 1023.83C1392.74 1024.1 1392.55 1024.33 1392.3 1024.53C1392.05 1024.72 1391.74 1024.87 1391.39 1024.98C1391.05 1025.08 1390.66 1025.14 1390.22 1025.14C1389.57 1025.14 1389.02 1025.02 1388.57 1024.79C1388.12 1024.56 1387.78 1024.25 1387.54 1023.89C1387.31 1023.52 1387.2 1023.13 1387.2 1022.72H1388.47C1388.49 1023.06 1388.59 1023.34 1388.77 1023.54C1388.95 1023.74 1389.17 1023.89 1389.44 1023.97C1389.7 1024.06 1389.96 1024.1 1390.22 1024.1C1390.57 1024.1 1390.86 1024.05 1391.09 1023.96C1391.33 1023.87 1391.51 1023.74 1391.63 1023.58C1391.76 1023.43 1391.82 1023.24 1391.82 1023.04ZM1396.12 1017.6V1025H1394.85V1017.6H1396.12ZM1394.75 1015.64C1394.75 1015.44 1394.81 1015.26 1394.93 1015.12C1395.06 1014.98 1395.25 1014.91 1395.5 1014.91C1395.74 1014.91 1395.92 1014.98 1396.05 1015.12C1396.18 1015.26 1396.25 1015.44 1396.25 1015.64C1396.25 1015.84 1396.18 1016.01 1396.05 1016.15C1395.92 1016.28 1395.74 1016.35 1395.5 1016.35C1395.25 1016.35 1395.06 1016.28 1394.93 1016.15C1394.81 1016.01 1394.75 1015.84 1394.75 1015.64ZM1399.41 1019.18V1025H1398.15V1017.6H1399.34L1399.41 1019.18ZM1399.11 1021.02L1398.58 1021C1398.59 1020.5 1398.66 1020.03 1398.81 1019.6C1398.96 1019.17 1399.16 1018.79 1399.43 1018.47C1399.69 1018.15 1400 1017.91 1400.37 1017.73C1400.74 1017.56 1401.15 1017.47 1401.59 1017.47C1401.96 1017.47 1402.29 1017.52 1402.58 1017.62C1402.87 1017.71 1403.12 1017.87 1403.32 1018.08C1403.53 1018.3 1403.69 1018.57 1403.8 1018.92C1403.91 1019.25 1403.96 1019.67 1403.96 1020.15V1025H1402.69V1020.14C1402.69 1019.75 1402.64 1019.44 1402.52 1019.21C1402.41 1018.97 1402.24 1018.8 1402.02 1018.7C1401.8 1018.59 1401.54 1018.53 1401.22 1018.53C1400.9 1018.53 1400.62 1018.6 1400.36 1018.73C1400.1 1018.86 1399.88 1019.05 1399.69 1019.28C1399.51 1019.51 1399.37 1019.78 1399.26 1020.08C1399.16 1020.37 1399.11 1020.69 1399.11 1021.02ZM1408.96 1025.14C1408.44 1025.14 1407.97 1025.05 1407.55 1024.88C1407.14 1024.7 1406.78 1024.45 1406.48 1024.13C1406.18 1023.81 1405.96 1023.43 1405.8 1023C1405.64 1022.56 1405.56 1022.08 1405.56 1021.56V1021.27C1405.56 1020.67 1405.65 1020.14 1405.82 1019.67C1406 1019.19 1406.24 1018.79 1406.55 1018.46C1406.85 1018.14 1407.2 1017.89 1407.59 1017.72C1407.98 1017.55 1408.38 1017.47 1408.79 1017.47C1409.32 1017.47 1409.78 1017.56 1410.16 1017.74C1410.55 1017.92 1410.86 1018.18 1411.11 1018.51C1411.35 1018.83 1411.54 1019.21 1411.66 1019.65C1411.77 1020.09 1411.83 1020.57 1411.83 1021.09V1021.66H1406.31V1020.62H1410.57V1020.53C1410.55 1020.2 1410.48 1019.88 1410.36 1019.57C1410.25 1019.26 1410.07 1019.01 1409.82 1018.81C1409.57 1018.61 1409.22 1018.51 1408.79 1018.51C1408.5 1018.51 1408.24 1018.57 1408 1018.69C1407.76 1018.81 1407.55 1018.99 1407.38 1019.22C1407.2 1019.46 1407.07 1019.75 1406.97 1020.09C1406.88 1020.43 1406.83 1020.83 1406.83 1021.27V1021.56C1406.83 1021.91 1406.88 1022.24 1406.97 1022.55C1407.07 1022.86 1407.22 1023.13 1407.4 1023.36C1407.59 1023.59 1407.82 1023.77 1408.09 1023.91C1408.37 1024.04 1408.68 1024.1 1409.02 1024.1C1409.47 1024.1 1409.85 1024.01 1410.16 1023.83C1410.47 1023.65 1410.74 1023.4 1410.97 1023.1L1411.74 1023.71C1411.58 1023.95 1411.38 1024.18 1411.13 1024.4C1410.88 1024.62 1410.58 1024.79 1410.22 1024.93C1409.86 1025.07 1409.44 1025.14 1408.96 1025.14ZM1417.62 1023.04C1417.62 1022.86 1417.58 1022.69 1417.49 1022.53C1417.42 1022.37 1417.25 1022.23 1417.01 1022.1C1416.77 1021.97 1416.4 1021.86 1415.91 1021.76C1415.5 1021.67 1415.13 1021.57 1414.8 1021.45C1414.47 1021.33 1414.19 1021.19 1413.96 1021.02C1413.73 1020.85 1413.56 1020.65 1413.43 1020.43C1413.31 1020.2 1413.25 1019.93 1413.25 1019.63C1413.25 1019.34 1413.31 1019.06 1413.44 1018.8C1413.57 1018.54 1413.76 1018.31 1413.99 1018.11C1414.23 1017.91 1414.52 1017.75 1414.86 1017.64C1415.2 1017.52 1415.57 1017.47 1415.99 1017.47C1416.58 1017.47 1417.09 1017.57 1417.51 1017.78C1417.93 1017.99 1418.25 1018.27 1418.47 1018.62C1418.69 1018.97 1418.81 1019.35 1418.81 1019.78H1417.54C1417.54 1019.57 1417.48 1019.37 1417.36 1019.18C1417.24 1018.99 1417.06 1018.82 1416.83 1018.7C1416.6 1018.57 1416.32 1018.51 1415.99 1018.51C1415.64 1018.51 1415.35 1018.56 1415.13 1018.67C1414.92 1018.77 1414.76 1018.91 1414.66 1019.07C1414.57 1019.24 1414.52 1019.41 1414.52 1019.59C1414.52 1019.73 1414.54 1019.85 1414.59 1019.96C1414.64 1020.07 1414.72 1020.16 1414.85 1020.26C1414.97 1020.34 1415.14 1020.42 1415.37 1020.5C1415.59 1020.58 1415.88 1020.66 1416.22 1020.73C1416.83 1020.87 1417.33 1021.04 1417.72 1021.23C1418.11 1021.42 1418.4 1021.65 1418.59 1021.93C1418.79 1022.21 1418.88 1022.55 1418.88 1022.94C1418.88 1023.27 1418.81 1023.56 1418.68 1023.83C1418.54 1024.1 1418.35 1024.33 1418.09 1024.53C1417.84 1024.72 1417.54 1024.87 1417.19 1024.98C1416.85 1025.08 1416.46 1025.14 1416.02 1025.14C1415.37 1025.14 1414.82 1025.02 1414.37 1024.79C1413.92 1024.56 1413.58 1024.25 1413.34 1023.89C1413.11 1023.52 1413 1023.13 1413 1022.72H1414.27C1414.28 1023.06 1414.39 1023.34 1414.57 1023.54C1414.75 1023.74 1414.97 1023.89 1415.24 1023.97C1415.5 1024.06 1415.76 1024.1 1416.02 1024.1C1416.37 1024.1 1416.66 1024.05 1416.89 1023.96C1417.13 1023.87 1417.31 1023.74 1417.43 1023.58C1417.55 1023.43 1417.62 1023.24 1417.62 1023.04ZM1424.85 1023.04C1424.85 1022.86 1424.81 1022.69 1424.73 1022.53C1424.65 1022.37 1424.49 1022.23 1424.24 1022.1C1424 1021.97 1423.63 1021.86 1423.15 1021.76C1422.74 1021.67 1422.36 1021.57 1422.03 1021.45C1421.7 1021.33 1421.42 1021.19 1421.19 1021.02C1420.96 1020.85 1420.79 1020.65 1420.67 1020.43C1420.54 1020.2 1420.48 1019.93 1420.48 1019.63C1420.48 1019.34 1420.54 1019.06 1420.67 1018.8C1420.8 1018.54 1420.99 1018.31 1421.23 1018.11C1421.47 1017.91 1421.76 1017.75 1422.09 1017.64C1422.43 1017.52 1422.81 1017.47 1423.22 1017.47C1423.81 1017.47 1424.32 1017.57 1424.74 1017.78C1425.16 1017.99 1425.48 1018.27 1425.7 1018.62C1425.93 1018.97 1426.04 1019.35 1426.04 1019.78H1424.77C1424.77 1019.57 1424.71 1019.37 1424.59 1019.18C1424.47 1018.99 1424.29 1018.82 1424.06 1018.7C1423.83 1018.57 1423.55 1018.51 1423.22 1018.51C1422.87 1018.51 1422.59 1018.56 1422.37 1018.67C1422.15 1018.77 1422 1018.91 1421.9 1019.07C1421.8 1019.24 1421.75 1019.41 1421.75 1019.59C1421.75 1019.73 1421.77 1019.85 1421.82 1019.96C1421.87 1020.07 1421.96 1020.16 1422.08 1020.26C1422.2 1020.34 1422.38 1020.42 1422.6 1020.5C1422.82 1020.58 1423.11 1020.66 1423.45 1020.73C1424.06 1020.87 1424.56 1021.04 1424.95 1021.23C1425.34 1021.42 1425.63 1021.65 1425.83 1021.93C1426.02 1022.21 1426.11 1022.55 1426.11 1022.94C1426.11 1023.27 1426.04 1023.56 1425.91 1023.83C1425.78 1024.1 1425.58 1024.33 1425.33 1024.53C1425.08 1024.72 1424.78 1024.87 1424.42 1024.98C1424.08 1025.08 1423.69 1025.14 1423.26 1025.14C1422.6 1025.14 1422.05 1025.02 1421.6 1024.79C1421.15 1024.56 1420.81 1024.25 1420.58 1023.89C1420.34 1023.52 1420.23 1023.13 1420.23 1022.72H1421.5C1421.52 1023.06 1421.62 1023.34 1421.8 1023.54C1421.98 1023.74 1422.21 1023.89 1422.47 1023.97C1422.73 1024.06 1423 1024.1 1423.26 1024.1C1423.6 1024.1 1423.89 1024.05 1424.12 1023.96C1424.36 1023.87 1424.54 1023.74 1424.66 1023.58C1424.79 1023.43 1424.85 1023.24 1424.85 1023.04ZM1430.91 1021.38V1021.23C1430.91 1020.69 1430.99 1020.2 1431.14 1019.74C1431.3 1019.28 1431.52 1018.88 1431.81 1018.55C1432.11 1018.21 1432.46 1017.94 1432.87 1017.75C1433.29 1017.56 1433.75 1017.47 1434.27 1017.47C1434.79 1017.47 1435.26 1017.56 1435.67 1017.75C1436.09 1017.94 1436.44 1018.21 1436.74 1018.55C1437.03 1018.88 1437.26 1019.28 1437.41 1019.74C1437.57 1020.2 1437.65 1020.69 1437.65 1021.23V1021.38C1437.65 1021.92 1437.57 1022.41 1437.41 1022.87C1437.26 1023.32 1437.03 1023.72 1436.74 1024.06C1436.44 1024.4 1436.09 1024.67 1435.68 1024.86C1435.27 1025.04 1434.8 1025.14 1434.28 1025.14C1433.76 1025.14 1433.3 1025.04 1432.88 1024.86C1432.47 1024.67 1432.11 1024.4 1431.81 1024.06C1431.52 1023.72 1431.3 1023.32 1431.14 1022.87C1430.99 1022.41 1430.91 1021.92 1430.91 1021.38ZM1432.18 1021.23V1021.38C1432.18 1021.75 1432.22 1022.1 1432.31 1022.43C1432.39 1022.75 1432.52 1023.04 1432.7 1023.29C1432.87 1023.54 1433.1 1023.74 1433.36 1023.89C1433.62 1024.03 1433.93 1024.1 1434.28 1024.1C1434.63 1024.1 1434.93 1024.03 1435.19 1023.89C1435.46 1023.74 1435.67 1023.54 1435.85 1023.29C1436.02 1023.04 1436.15 1022.75 1436.24 1022.43C1436.33 1022.1 1436.37 1021.75 1436.37 1021.38V1021.23C1436.37 1020.86 1436.33 1020.52 1436.24 1020.19C1436.15 1019.87 1436.02 1019.58 1435.84 1019.33C1435.67 1019.07 1435.45 1018.87 1435.18 1018.72C1434.92 1018.58 1434.62 1018.51 1434.27 1018.51C1433.92 1018.51 1433.62 1018.58 1433.35 1018.72C1433.09 1018.87 1432.87 1019.07 1432.7 1019.33C1432.52 1019.58 1432.39 1019.87 1432.31 1020.19C1432.22 1020.52 1432.18 1020.86 1432.18 1021.23ZM1439.22 1014.5H1440.5V1023.56L1440.39 1025H1439.22V1014.5ZM1445.49 1021.24V1021.38C1445.49 1021.92 1445.43 1022.42 1445.3 1022.88C1445.17 1023.34 1444.99 1023.73 1444.74 1024.07C1444.5 1024.41 1444.19 1024.67 1443.84 1024.86C1443.48 1025.04 1443.08 1025.14 1442.62 1025.14C1442.15 1025.14 1441.73 1025.06 1441.38 1024.9C1441.03 1024.73 1440.73 1024.5 1440.49 1024.19C1440.25 1023.89 1440.05 1023.52 1439.91 1023.09C1439.77 1022.65 1439.67 1022.17 1439.61 1021.62V1020.99C1439.67 1020.45 1439.77 1019.96 1439.91 1019.52C1440.05 1019.09 1440.25 1018.72 1440.49 1018.42C1440.73 1018.11 1441.03 1017.87 1441.38 1017.71C1441.73 1017.55 1442.14 1017.47 1442.6 1017.47C1443.07 1017.47 1443.48 1017.56 1443.84 1017.74C1444.2 1017.92 1444.5 1018.17 1444.74 1018.51C1444.99 1018.84 1445.17 1019.24 1445.3 1019.7C1445.43 1020.16 1445.49 1020.68 1445.49 1021.24ZM1444.22 1021.38V1021.24C1444.22 1020.87 1444.19 1020.52 1444.12 1020.2C1444.05 1019.87 1443.94 1019.59 1443.79 1019.34C1443.64 1019.09 1443.44 1018.89 1443.2 1018.75C1442.95 1018.61 1442.65 1018.53 1442.29 1018.53C1441.97 1018.53 1441.69 1018.59 1441.45 1018.7C1441.22 1018.81 1441.02 1018.95 1440.86 1019.14C1440.69 1019.32 1440.56 1019.53 1440.46 1019.77C1440.35 1020 1440.28 1020.24 1440.23 1020.5V1022.14C1440.3 1022.46 1440.42 1022.77 1440.58 1023.07C1440.75 1023.36 1440.98 1023.6 1441.25 1023.78C1441.54 1023.97 1441.89 1024.06 1442.3 1024.06C1442.64 1024.06 1442.93 1024 1443.18 1023.86C1443.42 1023.72 1443.62 1023.52 1443.77 1023.28C1443.93 1023.03 1444.04 1022.75 1444.11 1022.42C1444.19 1022.1 1444.22 1021.75 1444.22 1021.38ZM1447.13 1017.6H1448.4V1025.88C1448.4 1026.33 1448.33 1026.72 1448.18 1027.03C1448.04 1027.34 1447.82 1027.58 1447.54 1027.74C1447.25 1027.91 1446.9 1027.99 1446.46 1027.99C1446.35 1027.99 1446.22 1027.98 1446.07 1027.95C1445.91 1027.93 1445.78 1027.9 1445.68 1027.87L1445.68 1026.85C1445.77 1026.87 1445.87 1026.88 1445.98 1026.89C1446.09 1026.91 1446.18 1026.91 1446.27 1026.91C1446.45 1026.91 1446.61 1026.88 1446.74 1026.81C1446.86 1026.74 1446.96 1026.63 1447.02 1026.48C1447.09 1026.33 1447.13 1026.13 1447.13 1025.88V1017.6ZM1447 1015.64C1447 1015.44 1447.06 1015.26 1447.19 1015.12C1447.32 1014.98 1447.5 1014.91 1447.74 1014.91C1447.99 1014.91 1448.18 1014.98 1448.3 1015.12C1448.43 1015.26 1448.49 1015.44 1448.49 1015.64C1448.49 1015.84 1448.43 1016.01 1448.3 1016.15C1448.18 1016.28 1447.99 1016.35 1447.74 1016.35C1447.5 1016.35 1447.32 1016.28 1447.19 1016.15C1447.06 1016.01 1447 1015.84 1447 1015.64ZM1453.51 1025.14C1453 1025.14 1452.53 1025.05 1452.11 1024.88C1451.7 1024.7 1451.34 1024.45 1451.04 1024.13C1450.74 1023.81 1450.51 1023.43 1450.35 1023C1450.19 1022.56 1450.11 1022.08 1450.11 1021.56V1021.27C1450.11 1020.67 1450.2 1020.14 1450.38 1019.67C1450.56 1019.19 1450.8 1018.79 1451.11 1018.46C1451.41 1018.14 1451.76 1017.89 1452.14 1017.72C1452.53 1017.55 1452.93 1017.47 1453.35 1017.47C1453.88 1017.47 1454.33 1017.56 1454.71 1017.74C1455.1 1017.92 1455.42 1018.18 1455.67 1018.51C1455.91 1018.83 1456.09 1019.21 1456.21 1019.65C1456.33 1020.09 1456.39 1020.57 1456.39 1021.09V1021.66H1450.87V1020.62H1455.12V1020.53C1455.11 1020.2 1455.04 1019.88 1454.92 1019.57C1454.81 1019.26 1454.62 1019.01 1454.37 1018.81C1454.12 1018.61 1453.78 1018.51 1453.35 1018.51C1453.06 1018.51 1452.8 1018.57 1452.55 1018.69C1452.31 1018.81 1452.11 1018.99 1451.93 1019.22C1451.76 1019.46 1451.62 1019.75 1451.53 1020.09C1451.43 1020.43 1451.39 1020.83 1451.39 1021.27V1021.56C1451.39 1021.91 1451.43 1022.24 1451.53 1022.55C1451.63 1022.86 1451.77 1023.13 1451.96 1023.36C1452.15 1023.59 1452.38 1023.77 1452.65 1023.91C1452.92 1024.04 1453.23 1024.1 1453.58 1024.1C1454.03 1024.1 1454.4 1024.01 1454.71 1023.83C1455.02 1023.65 1455.3 1023.4 1455.53 1023.1L1456.29 1023.71C1456.13 1023.95 1455.93 1024.18 1455.69 1024.4C1455.44 1024.62 1455.14 1024.79 1454.78 1024.93C1454.42 1025.07 1454 1025.14 1453.51 1025.14ZM1460.83 1024.1C1461.13 1024.1 1461.4 1024.04 1461.66 1023.91C1461.92 1023.79 1462.12 1023.62 1462.29 1023.41C1462.45 1023.19 1462.55 1022.94 1462.57 1022.66H1463.77C1463.75 1023.1 1463.6 1023.51 1463.33 1023.89C1463.06 1024.26 1462.71 1024.56 1462.27 1024.79C1461.83 1025.02 1461.35 1025.14 1460.83 1025.14C1460.27 1025.14 1459.78 1025.04 1459.37 1024.84C1458.96 1024.65 1458.62 1024.38 1458.34 1024.04C1458.08 1023.69 1457.87 1023.3 1457.74 1022.86C1457.6 1022.41 1457.54 1021.94 1457.54 1021.45V1021.16C1457.54 1020.66 1457.6 1020.19 1457.74 1019.75C1457.87 1019.3 1458.08 1018.91 1458.34 1018.57C1458.62 1018.23 1458.96 1017.96 1459.37 1017.76C1459.78 1017.56 1460.27 1017.47 1460.83 1017.47C1461.4 1017.47 1461.91 1017.59 1462.34 1017.82C1462.78 1018.05 1463.12 1018.37 1463.36 1018.78C1463.61 1019.18 1463.75 1019.64 1463.77 1020.15H1462.57C1462.55 1019.84 1462.46 1019.57 1462.31 1019.32C1462.16 1019.07 1461.96 1018.88 1461.71 1018.73C1461.46 1018.58 1461.16 1018.51 1460.83 1018.51C1460.44 1018.51 1460.11 1018.58 1459.85 1018.74C1459.59 1018.89 1459.38 1019.09 1459.23 1019.35C1459.08 1019.61 1458.97 1019.89 1458.9 1020.21C1458.83 1020.52 1458.8 1020.83 1458.8 1021.16V1021.45C1458.8 1021.77 1458.83 1022.09 1458.9 1022.4C1458.96 1022.72 1459.07 1023 1459.22 1023.26C1459.37 1023.51 1459.58 1023.72 1459.84 1023.87C1460.11 1024.02 1460.43 1024.1 1460.83 1024.1ZM1468.29 1017.6V1018.57H1464.29V1017.6H1468.29ZM1465.65 1015.81H1466.91V1023.17C1466.91 1023.42 1466.95 1023.61 1467.03 1023.74C1467.1 1023.86 1467.2 1023.95 1467.33 1023.99C1467.45 1024.03 1467.58 1024.05 1467.72 1024.05C1467.83 1024.05 1467.94 1024.04 1468.05 1024.02C1468.17 1024 1468.26 1023.98 1468.32 1023.97L1468.33 1025C1468.22 1025.03 1468.09 1025.06 1467.93 1025.09C1467.77 1025.12 1467.58 1025.14 1467.35 1025.14C1467.04 1025.14 1466.75 1025.08 1466.49 1024.95C1466.23 1024.83 1466.03 1024.62 1465.87 1024.34C1465.72 1024.05 1465.65 1023.65 1465.65 1023.16V1015.81ZM1475.12 1023.69L1477.02 1017.6H1477.85L1477.69 1018.81L1475.76 1025H1474.94L1475.12 1023.69ZM1473.84 1017.6L1475.46 1023.76L1475.58 1025H1474.72L1472.58 1017.6H1473.84ZM1479.67 1023.71L1481.22 1017.6H1482.48L1480.33 1025H1479.48L1479.67 1023.71ZM1478.04 1017.6L1479.9 1023.58L1480.11 1025H1479.3L1477.31 1018.8L1477.15 1017.6H1478.04ZM1488.14 1023.74V1019.93C1488.14 1019.64 1488.08 1019.38 1487.96 1019.17C1487.84 1018.95 1487.67 1018.78 1487.44 1018.66C1487.21 1018.54 1486.92 1018.49 1486.58 1018.49C1486.26 1018.49 1485.98 1018.54 1485.74 1018.65C1485.5 1018.76 1485.31 1018.9 1485.18 1019.08C1485.04 1019.26 1484.98 1019.45 1484.98 1019.65H1483.71C1483.71 1019.39 1483.78 1019.13 1483.92 1018.87C1484.05 1018.61 1484.25 1018.37 1484.51 1018.16C1484.77 1017.95 1485.08 1017.78 1485.44 1017.66C1485.8 1017.53 1486.21 1017.47 1486.65 1017.47C1487.19 1017.47 1487.66 1017.56 1488.07 1017.74C1488.49 1017.92 1488.81 1018.2 1489.04 1018.57C1489.28 1018.93 1489.4 1019.39 1489.4 1019.94V1023.39C1489.4 1023.63 1489.42 1023.89 1489.46 1024.17C1489.51 1024.45 1489.57 1024.69 1489.66 1024.89V1025H1488.34C1488.28 1024.85 1488.23 1024.66 1488.19 1024.42C1488.15 1024.17 1488.14 1023.94 1488.14 1023.74ZM1488.35 1020.52L1488.37 1021.4H1487.09C1486.73 1021.4 1486.41 1021.43 1486.13 1021.49C1485.84 1021.55 1485.61 1021.63 1485.42 1021.75C1485.22 1021.86 1485.08 1022 1484.98 1022.18C1484.88 1022.35 1484.83 1022.54 1484.83 1022.77C1484.83 1023 1484.88 1023.22 1484.98 1023.41C1485.09 1023.6 1485.25 1023.75 1485.46 1023.87C1485.67 1023.97 1485.93 1024.03 1486.24 1024.03C1486.63 1024.03 1486.97 1023.95 1487.27 1023.78C1487.56 1023.62 1487.8 1023.42 1487.97 1023.18C1488.15 1022.94 1488.25 1022.71 1488.26 1022.49L1488.8 1023.1C1488.77 1023.29 1488.68 1023.5 1488.54 1023.74C1488.4 1023.97 1488.21 1024.19 1487.97 1024.41C1487.74 1024.61 1487.46 1024.79 1487.14 1024.93C1486.82 1025.07 1486.46 1025.14 1486.06 1025.14C1485.56 1025.14 1485.12 1025.04 1484.74 1024.84C1484.36 1024.65 1484.07 1024.38 1483.86 1024.06C1483.66 1023.72 1483.56 1023.35 1483.56 1022.94C1483.56 1022.55 1483.63 1022.2 1483.79 1021.9C1483.94 1021.59 1484.17 1021.34 1484.46 1021.14C1484.75 1020.93 1485.1 1020.78 1485.51 1020.67C1485.92 1020.57 1486.38 1020.52 1486.88 1020.52H1488.35ZM1495.7 1023.04C1495.7 1022.86 1495.66 1022.69 1495.57 1022.53C1495.5 1022.37 1495.33 1022.23 1495.09 1022.1C1494.85 1021.97 1494.48 1021.86 1493.99 1021.76C1493.58 1021.67 1493.21 1021.57 1492.88 1021.45C1492.55 1021.33 1492.27 1021.19 1492.04 1021.02C1491.81 1020.85 1491.64 1020.65 1491.51 1020.43C1491.39 1020.2 1491.33 1019.93 1491.33 1019.63C1491.33 1019.34 1491.39 1019.06 1491.52 1018.8C1491.65 1018.54 1491.84 1018.31 1492.07 1018.11C1492.31 1017.91 1492.6 1017.75 1492.94 1017.64C1493.28 1017.52 1493.65 1017.47 1494.07 1017.47C1494.66 1017.47 1495.17 1017.57 1495.59 1017.78C1496.01 1017.99 1496.33 1018.27 1496.55 1018.62C1496.77 1018.97 1496.89 1019.35 1496.89 1019.78H1495.62C1495.62 1019.57 1495.56 1019.37 1495.44 1019.18C1495.32 1018.99 1495.14 1018.82 1494.91 1018.7C1494.68 1018.57 1494.4 1018.51 1494.07 1018.51C1493.72 1018.51 1493.43 1018.56 1493.21 1018.67C1493 1018.77 1492.84 1018.91 1492.74 1019.07C1492.65 1019.24 1492.6 1019.41 1492.6 1019.59C1492.6 1019.73 1492.62 1019.85 1492.67 1019.96C1492.72 1020.07 1492.8 1020.16 1492.93 1020.26C1493.05 1020.34 1493.22 1020.42 1493.45 1020.5C1493.67 1020.58 1493.96 1020.66 1494.3 1020.73C1494.91 1020.87 1495.41 1021.04 1495.8 1021.23C1496.19 1021.42 1496.48 1021.65 1496.67 1021.93C1496.87 1022.21 1496.96 1022.55 1496.96 1022.94C1496.96 1023.27 1496.89 1023.56 1496.76 1023.83C1496.62 1024.1 1496.43 1024.33 1496.17 1024.53C1495.92 1024.72 1495.62 1024.87 1495.27 1024.98C1494.93 1025.08 1494.54 1025.14 1494.1 1025.14C1493.45 1025.14 1492.9 1025.02 1492.45 1024.79C1492 1024.56 1491.66 1024.25 1491.42 1023.89C1491.19 1023.52 1491.08 1023.13 1491.08 1022.72H1492.35C1492.36 1023.06 1492.47 1023.34 1492.65 1023.54C1492.83 1023.74 1493.05 1023.89 1493.32 1023.97C1493.58 1024.06 1493.84 1024.1 1494.1 1024.1C1494.45 1024.1 1494.74 1024.05 1494.97 1023.96C1495.21 1023.87 1495.39 1023.74 1495.51 1023.58C1495.63 1023.43 1495.7 1023.24 1495.7 1023.04ZM1505.05 1024.1C1505.36 1024.1 1505.63 1024.04 1505.89 1023.91C1506.14 1023.79 1506.35 1023.62 1506.52 1023.41C1506.68 1023.19 1506.78 1022.94 1506.8 1022.66H1508C1507.98 1023.1 1507.83 1023.51 1507.56 1023.89C1507.29 1024.26 1506.93 1024.56 1506.5 1024.79C1506.06 1025.02 1505.58 1025.14 1505.05 1025.14C1504.5 1025.14 1504.01 1025.04 1503.6 1024.84C1503.19 1024.65 1502.85 1024.38 1502.57 1024.04C1502.3 1023.69 1502.1 1023.3 1501.96 1022.86C1501.83 1022.41 1501.77 1021.94 1501.77 1021.45V1021.16C1501.77 1020.66 1501.83 1020.19 1501.96 1019.75C1502.1 1019.3 1502.3 1018.91 1502.57 1018.57C1502.85 1018.23 1503.19 1017.96 1503.6 1017.76C1504.01 1017.56 1504.5 1017.47 1505.05 1017.47C1505.63 1017.47 1506.14 1017.59 1506.57 1017.82C1507.01 1018.05 1507.34 1018.37 1507.59 1018.78C1507.84 1019.18 1507.98 1019.64 1508 1020.15H1506.8C1506.78 1019.84 1506.69 1019.57 1506.54 1019.32C1506.39 1019.07 1506.19 1018.88 1505.94 1018.73C1505.69 1018.58 1505.39 1018.51 1505.05 1018.51C1504.67 1018.51 1504.34 1018.58 1504.08 1018.74C1503.82 1018.89 1503.61 1019.09 1503.46 1019.35C1503.3 1019.61 1503.2 1019.89 1503.13 1020.21C1503.06 1020.52 1503.03 1020.83 1503.03 1021.16V1021.45C1503.03 1021.77 1503.06 1022.09 1503.13 1022.4C1503.19 1022.72 1503.3 1023 1503.45 1023.26C1503.6 1023.51 1503.81 1023.72 1504.07 1023.87C1504.33 1024.02 1504.66 1024.1 1505.05 1024.1ZM1510.69 1018.77V1025H1509.42V1017.6H1510.65L1510.69 1018.77ZM1513 1017.56L1512.99 1018.74C1512.89 1018.72 1512.79 1018.7 1512.69 1018.7C1512.6 1018.69 1512.49 1018.68 1512.38 1018.68C1512.08 1018.68 1511.83 1018.73 1511.6 1018.82C1511.38 1018.91 1511.19 1019.04 1511.04 1019.2C1510.88 1019.37 1510.76 1019.56 1510.67 1019.79C1510.58 1020.01 1510.52 1020.26 1510.5 1020.53L1510.14 1020.73C1510.14 1020.29 1510.18 1019.87 1510.27 1019.48C1510.36 1019.08 1510.5 1018.74 1510.69 1018.44C1510.87 1018.13 1511.11 1017.9 1511.4 1017.73C1511.69 1017.55 1512.04 1017.47 1512.44 1017.47C1512.53 1017.47 1512.63 1017.48 1512.75 1017.5C1512.87 1017.52 1512.95 1017.54 1513 1017.56ZM1517.1 1025.14C1516.58 1025.14 1516.12 1025.05 1515.7 1024.88C1515.28 1024.7 1514.93 1024.45 1514.62 1024.13C1514.33 1023.81 1514.1 1023.43 1513.94 1023C1513.78 1022.56 1513.7 1022.08 1513.7 1021.56V1021.27C1513.7 1020.67 1513.79 1020.14 1513.97 1019.67C1514.15 1019.19 1514.39 1018.79 1514.69 1018.46C1515 1018.14 1515.35 1017.89 1515.73 1017.72C1516.12 1017.55 1516.52 1017.47 1516.94 1017.47C1517.46 1017.47 1517.92 1017.56 1518.3 1017.74C1518.69 1017.92 1519.01 1018.18 1519.25 1018.51C1519.5 1018.83 1519.68 1019.21 1519.8 1019.65C1519.92 1020.09 1519.98 1020.57 1519.98 1021.09V1021.66H1514.45V1020.62H1518.71V1020.53C1518.69 1020.2 1518.63 1019.88 1518.51 1019.57C1518.39 1019.26 1518.21 1019.01 1517.96 1018.81C1517.71 1018.61 1517.37 1018.51 1516.94 1018.51C1516.65 1018.51 1516.38 1018.57 1516.14 1018.69C1515.9 1018.81 1515.69 1018.99 1515.52 1019.22C1515.35 1019.46 1515.21 1019.75 1515.12 1020.09C1515.02 1020.43 1514.97 1020.83 1514.97 1021.27V1021.56C1514.97 1021.91 1515.02 1022.24 1515.12 1022.55C1515.22 1022.86 1515.36 1023.13 1515.55 1023.36C1515.74 1023.59 1515.97 1023.77 1516.24 1023.91C1516.51 1024.04 1516.82 1024.1 1517.17 1024.1C1517.61 1024.1 1517.99 1024.01 1518.3 1023.83C1518.61 1023.65 1518.88 1023.4 1519.12 1023.1L1519.88 1023.71C1519.72 1023.95 1519.52 1024.18 1519.27 1024.4C1519.03 1024.62 1518.72 1024.79 1518.36 1024.93C1518.01 1025.07 1517.59 1025.14 1517.1 1025.14ZM1525.82 1023.74V1019.93C1525.82 1019.64 1525.76 1019.38 1525.64 1019.17C1525.52 1018.95 1525.35 1018.78 1525.12 1018.66C1524.89 1018.54 1524.6 1018.49 1524.26 1018.49C1523.94 1018.49 1523.66 1018.54 1523.42 1018.65C1523.18 1018.76 1522.99 1018.9 1522.86 1019.08C1522.72 1019.26 1522.66 1019.45 1522.66 1019.65H1521.39C1521.39 1019.39 1521.46 1019.13 1521.6 1018.87C1521.73 1018.61 1521.93 1018.37 1522.19 1018.16C1522.45 1017.95 1522.76 1017.78 1523.12 1017.66C1523.48 1017.53 1523.89 1017.47 1524.33 1017.47C1524.87 1017.47 1525.34 1017.56 1525.75 1017.74C1526.17 1017.92 1526.49 1018.2 1526.72 1018.57C1526.96 1018.93 1527.08 1019.39 1527.08 1019.94V1023.39C1527.08 1023.63 1527.1 1023.89 1527.14 1024.17C1527.19 1024.45 1527.25 1024.69 1527.34 1024.89V1025H1526.02C1525.96 1024.85 1525.91 1024.66 1525.87 1024.42C1525.83 1024.17 1525.82 1023.94 1525.82 1023.74ZM1526.03 1020.52L1526.05 1021.4H1524.77C1524.41 1021.4 1524.09 1021.43 1523.81 1021.49C1523.52 1021.55 1523.29 1021.63 1523.09 1021.75C1522.9 1021.86 1522.76 1022 1522.66 1022.18C1522.56 1022.35 1522.51 1022.54 1522.51 1022.77C1522.51 1023 1522.56 1023.22 1522.66 1023.41C1522.77 1023.6 1522.93 1023.75 1523.14 1023.87C1523.35 1023.97 1523.61 1024.03 1523.92 1024.03C1524.31 1024.03 1524.65 1023.95 1524.95 1023.78C1525.24 1023.62 1525.48 1023.42 1525.65 1023.18C1525.83 1022.94 1525.92 1022.71 1525.94 1022.49L1526.48 1023.1C1526.45 1023.29 1526.36 1023.5 1526.22 1023.74C1526.08 1023.97 1525.89 1024.19 1525.65 1024.41C1525.42 1024.61 1525.14 1024.79 1524.82 1024.93C1524.5 1025.07 1524.14 1025.14 1523.74 1025.14C1523.24 1025.14 1522.8 1025.04 1522.42 1024.84C1522.04 1024.65 1521.75 1024.38 1521.54 1024.06C1521.34 1023.72 1521.24 1023.35 1521.24 1022.94C1521.24 1022.55 1521.31 1022.2 1521.47 1021.9C1521.62 1021.59 1521.85 1021.34 1522.14 1021.14C1522.43 1020.93 1522.78 1020.78 1523.19 1020.67C1523.6 1020.57 1524.06 1020.52 1524.56 1020.52H1526.03ZM1532.17 1017.6V1018.57H1528.17V1017.6H1532.17ZM1529.52 1015.81H1530.79V1023.17C1530.79 1023.42 1530.82 1023.61 1530.9 1023.74C1530.98 1023.86 1531.08 1023.95 1531.2 1023.99C1531.33 1024.03 1531.46 1024.05 1531.6 1024.05C1531.7 1024.05 1531.81 1024.04 1531.93 1024.02C1532.05 1024 1532.13 1023.98 1532.19 1023.97L1532.2 1025C1532.1 1025.03 1531.97 1025.06 1531.8 1025.09C1531.64 1025.12 1531.45 1025.14 1531.22 1025.14C1530.91 1025.14 1530.63 1025.08 1530.37 1024.95C1530.11 1024.83 1529.9 1024.62 1529.75 1024.34C1529.6 1024.05 1529.52 1023.65 1529.52 1023.16V1015.81ZM1536.72 1025.14C1536.2 1025.14 1535.74 1025.05 1535.32 1024.88C1534.9 1024.7 1534.54 1024.45 1534.24 1024.13C1533.95 1023.81 1533.72 1023.43 1533.56 1023C1533.4 1022.56 1533.32 1022.08 1533.32 1021.56V1021.27C1533.32 1020.67 1533.41 1020.14 1533.59 1019.67C1533.77 1019.19 1534.01 1018.79 1534.31 1018.46C1534.62 1018.14 1534.96 1017.89 1535.35 1017.72C1535.74 1017.55 1536.14 1017.47 1536.55 1017.47C1537.08 1017.47 1537.54 1017.56 1537.92 1017.74C1538.31 1017.92 1538.63 1018.18 1538.87 1018.51C1539.12 1018.83 1539.3 1019.21 1539.42 1019.65C1539.54 1020.09 1539.6 1020.57 1539.6 1021.09V1021.66H1534.07V1020.62H1538.33V1020.53C1538.31 1020.2 1538.25 1019.88 1538.13 1019.57C1538.01 1019.26 1537.83 1019.01 1537.58 1018.81C1537.33 1018.61 1536.99 1018.51 1536.55 1018.51C1536.27 1018.51 1536 1018.57 1535.76 1018.69C1535.52 1018.81 1535.31 1018.99 1535.14 1019.22C1534.97 1019.46 1534.83 1019.75 1534.74 1020.09C1534.64 1020.43 1534.59 1020.83 1534.59 1021.27V1021.56C1534.59 1021.91 1534.64 1022.24 1534.74 1022.55C1534.84 1022.86 1534.98 1023.13 1535.17 1023.36C1535.36 1023.59 1535.59 1023.77 1535.86 1023.91C1536.13 1024.04 1536.44 1024.1 1536.79 1024.1C1537.23 1024.1 1537.61 1024.01 1537.92 1023.83C1538.23 1023.65 1538.5 1023.4 1538.74 1023.1L1539.5 1023.71C1539.34 1023.95 1539.14 1024.18 1538.89 1024.4C1538.65 1024.62 1538.34 1024.79 1537.98 1024.93C1537.63 1025.07 1537.21 1025.14 1536.72 1025.14ZM1545.74 1023.56V1014.5H1547.01V1025H1545.84L1545.74 1023.56ZM1540.76 1021.38V1021.24C1540.76 1020.68 1540.83 1020.16 1540.96 1019.7C1541.11 1019.24 1541.3 1018.84 1541.56 1018.51C1541.82 1018.17 1542.13 1017.92 1542.48 1017.74C1542.84 1017.56 1543.24 1017.47 1543.68 1017.47C1544.15 1017.47 1544.56 1017.55 1544.9 1017.71C1545.25 1017.87 1545.55 1018.11 1545.79 1018.42C1546.04 1018.72 1546.23 1019.09 1546.37 1019.52C1546.51 1019.96 1546.61 1020.45 1546.67 1020.99V1021.62C1546.61 1022.17 1546.52 1022.65 1546.37 1023.09C1546.23 1023.52 1546.04 1023.89 1545.79 1024.19C1545.55 1024.5 1545.25 1024.73 1544.9 1024.9C1544.55 1025.06 1544.14 1025.14 1543.67 1025.14C1543.24 1025.14 1542.84 1025.04 1542.48 1024.86C1542.13 1024.67 1541.82 1024.41 1541.56 1024.07C1541.3 1023.73 1541.11 1023.34 1540.96 1022.88C1540.83 1022.42 1540.76 1021.92 1540.76 1021.38ZM1542.03 1021.24V1021.38C1542.03 1021.75 1542.07 1022.1 1542.14 1022.42C1542.22 1022.75 1542.34 1023.03 1542.5 1023.28C1542.65 1023.52 1542.86 1023.72 1543.1 1023.86C1543.35 1024 1543.64 1024.06 1543.99 1024.06C1544.4 1024.06 1544.75 1023.97 1545.02 1023.8C1545.29 1023.62 1545.51 1023.38 1545.67 1023.09C1545.84 1022.8 1545.97 1022.48 1546.06 1022.14V1020.5C1546 1020.24 1545.92 1020 1545.82 1019.77C1545.72 1019.53 1545.58 1019.32 1545.42 1019.14C1545.26 1018.95 1545.06 1018.81 1544.83 1018.7C1544.59 1018.59 1544.32 1018.53 1544 1018.53C1543.65 1018.53 1543.35 1018.61 1543.1 1018.75C1542.86 1018.89 1542.65 1019.09 1542.5 1019.34C1542.34 1019.59 1542.22 1019.87 1542.14 1020.2C1542.07 1020.52 1542.03 1020.87 1542.03 1021.24ZM1349.27 1039.04C1349.27 1038.86 1349.23 1038.69 1349.15 1038.53C1349.07 1038.37 1348.91 1038.23 1348.66 1038.1C1348.42 1037.97 1348.06 1037.86 1347.57 1037.76C1347.16 1037.67 1346.79 1037.57 1346.45 1037.45C1346.13 1037.33 1345.85 1037.19 1345.61 1037.02C1345.39 1036.85 1345.21 1036.65 1345.09 1036.43C1344.96 1036.2 1344.9 1035.93 1344.9 1035.63C1344.9 1035.34 1344.97 1035.06 1345.09 1034.8C1345.23 1034.54 1345.41 1034.31 1345.65 1034.11C1345.89 1033.91 1346.18 1033.75 1346.52 1033.64C1346.85 1033.52 1347.23 1033.47 1347.64 1033.47C1348.24 1033.47 1348.74 1033.57 1349.16 1033.78C1349.58 1033.99 1349.9 1034.27 1350.12 1034.62C1350.35 1034.97 1350.46 1035.35 1350.46 1035.78H1349.2C1349.2 1035.57 1349.13 1035.37 1349.01 1035.18C1348.89 1034.99 1348.72 1034.82 1348.48 1034.7C1348.26 1034.57 1347.98 1034.51 1347.64 1034.51C1347.29 1034.51 1347.01 1034.56 1346.79 1034.67C1346.57 1034.77 1346.42 1034.91 1346.32 1035.07C1346.22 1035.24 1346.17 1035.41 1346.17 1035.59C1346.17 1035.73 1346.2 1035.85 1346.24 1035.96C1346.29 1036.07 1346.38 1036.16 1346.5 1036.26C1346.62 1036.34 1346.8 1036.42 1347.02 1036.5C1347.24 1036.58 1347.53 1036.66 1347.88 1036.73C1348.48 1036.87 1348.98 1037.04 1349.37 1037.23C1349.76 1037.42 1350.06 1037.65 1350.25 1037.93C1350.44 1038.21 1350.54 1038.55 1350.54 1038.94C1350.54 1039.27 1350.47 1039.56 1350.33 1039.83C1350.2 1040.1 1350 1040.33 1349.75 1040.53C1349.5 1040.72 1349.2 1040.87 1348.85 1040.98C1348.5 1041.08 1348.11 1041.14 1347.68 1041.14C1347.03 1041.14 1346.47 1041.02 1346.02 1040.79C1345.57 1040.56 1345.23 1040.25 1345 1039.89C1344.77 1039.52 1344.65 1039.13 1344.65 1038.72H1345.92C1345.94 1039.06 1346.04 1039.34 1346.22 1039.54C1346.4 1039.74 1346.63 1039.89 1346.89 1039.97C1347.16 1040.06 1347.42 1040.1 1347.68 1040.1C1348.02 1040.1 1348.31 1040.05 1348.55 1039.96C1348.78 1039.87 1348.96 1039.74 1349.09 1039.58C1349.21 1039.43 1349.27 1039.24 1349.27 1039.04ZM1356.72 1039.29V1033.6H1357.99V1041H1356.78L1356.72 1039.29ZM1356.96 1037.73L1357.49 1037.72C1357.49 1038.21 1357.43 1038.67 1357.33 1039.09C1357.23 1039.5 1357.07 1039.86 1356.84 1040.17C1356.61 1040.47 1356.31 1040.71 1355.94 1040.88C1355.57 1041.05 1355.12 1041.14 1354.6 1041.14C1354.24 1041.14 1353.91 1041.08 1353.6 1040.98C1353.31 1040.87 1353.05 1040.71 1352.84 1040.49C1352.62 1040.28 1352.46 1039.99 1352.34 1039.64C1352.23 1039.29 1352.17 1038.87 1352.17 1038.38V1033.6H1353.43V1038.39C1353.43 1038.72 1353.47 1039 1353.54 1039.22C1353.62 1039.43 1353.72 1039.6 1353.85 1039.73C1353.98 1039.85 1354.13 1039.94 1354.29 1039.99C1354.45 1040.04 1354.62 1040.06 1354.79 1040.06C1355.33 1040.06 1355.76 1039.96 1356.07 1039.76C1356.39 1039.55 1356.61 1039.27 1356.75 1038.92C1356.89 1038.56 1356.96 1038.17 1356.96 1037.73ZM1362.88 1040.1C1363.18 1040.1 1363.46 1040.04 1363.71 1039.91C1363.97 1039.79 1364.18 1039.62 1364.34 1039.41C1364.51 1039.19 1364.6 1038.94 1364.62 1038.66H1365.83C1365.8 1039.1 1365.66 1039.51 1365.38 1039.89C1365.11 1040.26 1364.76 1040.56 1364.32 1040.79C1363.89 1041.02 1363.4 1041.14 1362.88 1041.14C1362.32 1041.14 1361.84 1041.04 1361.42 1040.84C1361.01 1040.65 1360.67 1040.38 1360.4 1040.04C1360.13 1039.69 1359.93 1039.3 1359.79 1038.86C1359.66 1038.41 1359.59 1037.94 1359.59 1037.45V1037.16C1359.59 1036.66 1359.66 1036.19 1359.79 1035.75C1359.93 1035.3 1360.13 1034.91 1360.4 1034.57C1360.67 1034.23 1361.01 1033.96 1361.42 1033.76C1361.84 1033.56 1362.32 1033.47 1362.88 1033.47C1363.46 1033.47 1363.97 1033.59 1364.4 1033.82C1364.83 1034.05 1365.17 1034.37 1365.42 1034.78C1365.67 1035.18 1365.8 1035.64 1365.83 1036.15H1364.62C1364.6 1035.84 1364.51 1035.57 1364.36 1035.32C1364.22 1035.07 1364.02 1034.88 1363.76 1034.73C1363.51 1034.58 1363.22 1034.51 1362.88 1034.51C1362.49 1034.51 1362.17 1034.58 1361.9 1034.74C1361.64 1034.89 1361.44 1035.09 1361.28 1035.35C1361.13 1035.61 1361.02 1035.89 1360.95 1036.21C1360.89 1036.52 1360.86 1036.83 1360.86 1037.16V1037.45C1360.86 1037.77 1360.89 1038.09 1360.95 1038.4C1361.02 1038.72 1361.12 1039 1361.27 1039.26C1361.43 1039.51 1361.64 1039.72 1361.9 1039.87C1362.16 1040.02 1362.49 1040.1 1362.88 1040.1ZM1370.21 1040.1C1370.51 1040.1 1370.79 1040.04 1371.04 1039.91C1371.3 1039.79 1371.51 1039.62 1371.67 1039.41C1371.84 1039.19 1371.93 1038.94 1371.95 1038.66H1373.16C1373.13 1039.1 1372.98 1039.51 1372.71 1039.89C1372.44 1040.26 1372.09 1040.56 1371.65 1040.79C1371.21 1041.02 1370.73 1041.14 1370.21 1041.14C1369.65 1041.14 1369.17 1041.04 1368.75 1040.84C1368.34 1040.65 1368 1040.38 1367.73 1040.04C1367.46 1039.69 1367.26 1039.3 1367.12 1038.86C1366.99 1038.41 1366.92 1037.94 1366.92 1037.45V1037.16C1366.92 1036.66 1366.99 1036.19 1367.12 1035.75C1367.26 1035.3 1367.46 1034.91 1367.73 1034.57C1368 1034.23 1368.34 1033.96 1368.75 1033.76C1369.17 1033.56 1369.65 1033.47 1370.21 1033.47C1370.79 1033.47 1371.29 1033.59 1371.73 1033.82C1372.16 1034.05 1372.5 1034.37 1372.75 1034.78C1373 1035.18 1373.13 1035.64 1373.16 1036.15H1371.95C1371.93 1035.84 1371.84 1035.57 1371.69 1035.32C1371.55 1035.07 1371.35 1034.88 1371.09 1034.73C1370.84 1034.58 1370.55 1034.51 1370.21 1034.51C1369.82 1034.51 1369.5 1034.58 1369.23 1034.74C1368.97 1034.89 1368.76 1035.09 1368.61 1035.35C1368.46 1035.61 1368.35 1035.89 1368.28 1036.21C1368.22 1036.52 1368.19 1036.83 1368.19 1037.16V1037.45C1368.19 1037.77 1368.22 1038.09 1368.28 1038.4C1368.35 1038.72 1368.45 1039 1368.6 1039.26C1368.76 1039.51 1368.96 1039.72 1369.22 1039.87C1369.49 1040.02 1369.82 1040.1 1370.21 1040.1ZM1377.65 1041.14C1377.13 1041.14 1376.66 1041.05 1376.25 1040.88C1375.83 1040.7 1375.47 1040.45 1375.17 1040.13C1374.88 1039.81 1374.65 1039.43 1374.49 1039C1374.33 1038.56 1374.25 1038.08 1374.25 1037.56V1037.27C1374.25 1036.67 1374.34 1036.14 1374.52 1035.67C1374.69 1035.19 1374.93 1034.79 1375.24 1034.46C1375.55 1034.14 1375.89 1033.89 1376.28 1033.72C1376.67 1033.55 1377.07 1033.47 1377.48 1033.47C1378.01 1033.47 1378.47 1033.56 1378.85 1033.74C1379.24 1033.92 1379.55 1034.18 1379.8 1034.51C1380.05 1034.83 1380.23 1035.21 1380.35 1035.65C1380.47 1036.09 1380.52 1036.57 1380.52 1037.09V1037.66H1375V1036.62H1379.26V1036.53C1379.24 1036.2 1379.17 1035.88 1379.05 1035.57C1378.94 1035.26 1378.76 1035.01 1378.51 1034.81C1378.26 1034.61 1377.92 1034.51 1377.48 1034.51C1377.2 1034.51 1376.93 1034.57 1376.69 1034.69C1376.45 1034.81 1376.24 1034.99 1376.07 1035.22C1375.89 1035.46 1375.76 1035.75 1375.66 1036.09C1375.57 1036.43 1375.52 1036.83 1375.52 1037.27V1037.56C1375.52 1037.91 1375.57 1038.24 1375.66 1038.55C1375.76 1038.86 1375.91 1039.13 1376.09 1039.36C1376.29 1039.59 1376.52 1039.77 1376.79 1039.91C1377.06 1040.04 1377.37 1040.1 1377.71 1040.1C1378.16 1040.1 1378.54 1040.01 1378.85 1039.83C1379.16 1039.65 1379.43 1039.4 1379.66 1039.1L1380.43 1039.71C1380.27 1039.95 1380.07 1040.18 1379.82 1040.4C1379.57 1040.62 1379.27 1040.79 1378.91 1040.93C1378.56 1041.07 1378.13 1041.14 1377.65 1041.14ZM1386.31 1039.04C1386.31 1038.86 1386.27 1038.69 1386.18 1038.53C1386.11 1038.37 1385.95 1038.23 1385.7 1038.1C1385.46 1037.97 1385.09 1037.86 1384.61 1037.76C1384.2 1037.67 1383.82 1037.57 1383.49 1037.45C1383.16 1037.33 1382.88 1037.19 1382.65 1037.02C1382.42 1036.85 1382.25 1036.65 1382.12 1036.43C1382 1036.2 1381.94 1035.93 1381.94 1035.63C1381.94 1035.34 1382 1035.06 1382.13 1034.8C1382.26 1034.54 1382.45 1034.31 1382.68 1034.11C1382.93 1033.91 1383.22 1033.75 1383.55 1033.64C1383.89 1033.52 1384.27 1033.47 1384.68 1033.47C1385.27 1033.47 1385.78 1033.57 1386.2 1033.78C1386.62 1033.99 1386.94 1034.27 1387.16 1034.62C1387.39 1034.97 1387.5 1035.35 1387.5 1035.78H1386.23C1386.23 1035.57 1386.17 1035.37 1386.05 1035.18C1385.93 1034.99 1385.75 1034.82 1385.52 1034.7C1385.29 1034.57 1385.01 1034.51 1384.68 1034.51C1384.33 1034.51 1384.04 1034.56 1383.83 1034.67C1383.61 1034.77 1383.45 1034.91 1383.35 1035.07C1383.26 1035.24 1383.21 1035.41 1383.21 1035.59C1383.21 1035.73 1383.23 1035.85 1383.28 1035.96C1383.33 1036.07 1383.42 1036.16 1383.54 1036.26C1383.66 1036.34 1383.84 1036.42 1384.06 1036.5C1384.28 1036.58 1384.57 1036.66 1384.91 1036.73C1385.52 1036.87 1386.02 1037.04 1386.41 1037.23C1386.8 1037.42 1387.09 1037.65 1387.29 1037.93C1387.48 1038.21 1387.57 1038.55 1387.57 1038.94C1387.57 1039.27 1387.5 1039.56 1387.37 1039.83C1387.24 1040.1 1387.04 1040.33 1386.79 1040.53C1386.54 1040.72 1386.23 1040.87 1385.88 1040.98C1385.54 1041.08 1385.15 1041.14 1384.71 1041.14C1384.06 1041.14 1383.51 1041.02 1383.06 1040.79C1382.61 1040.56 1382.27 1040.25 1382.04 1039.89C1381.8 1039.52 1381.69 1039.13 1381.69 1038.72H1382.96C1382.98 1039.06 1383.08 1039.34 1383.26 1039.54C1383.44 1039.74 1383.66 1039.89 1383.93 1039.97C1384.19 1040.06 1384.46 1040.1 1384.71 1040.1C1385.06 1040.1 1385.35 1040.05 1385.58 1039.96C1385.82 1039.87 1386 1039.74 1386.12 1039.58C1386.25 1039.43 1386.31 1039.24 1386.31 1039.04ZM1393.54 1039.04C1393.54 1038.86 1393.5 1038.69 1393.42 1038.53C1393.34 1038.37 1393.18 1038.23 1392.93 1038.1C1392.69 1037.97 1392.33 1037.86 1391.84 1037.76C1391.43 1037.67 1391.06 1037.57 1390.72 1037.45C1390.4 1037.33 1390.12 1037.19 1389.88 1037.02C1389.65 1036.85 1389.48 1036.65 1389.36 1036.43C1389.23 1036.2 1389.17 1035.93 1389.17 1035.63C1389.17 1035.34 1389.24 1035.06 1389.36 1034.8C1389.5 1034.54 1389.68 1034.31 1389.92 1034.11C1390.16 1033.91 1390.45 1033.75 1390.79 1033.64C1391.12 1033.52 1391.5 1033.47 1391.91 1033.47C1392.51 1033.47 1393.01 1033.57 1393.43 1033.78C1393.85 1033.99 1394.17 1034.27 1394.39 1034.62C1394.62 1034.97 1394.73 1035.35 1394.73 1035.78H1393.46C1393.46 1035.57 1393.4 1035.37 1393.28 1035.18C1393.16 1034.99 1392.99 1034.82 1392.75 1034.7C1392.53 1034.57 1392.25 1034.51 1391.91 1034.51C1391.56 1034.51 1391.28 1034.56 1391.06 1034.67C1390.84 1034.77 1390.69 1034.91 1390.59 1035.07C1390.49 1035.24 1390.44 1035.41 1390.44 1035.59C1390.44 1035.73 1390.47 1035.85 1390.51 1035.96C1390.56 1036.07 1390.65 1036.16 1390.77 1036.26C1390.89 1036.34 1391.07 1036.42 1391.29 1036.5C1391.51 1036.58 1391.8 1036.66 1392.15 1036.73C1392.75 1036.87 1393.25 1037.04 1393.64 1037.23C1394.03 1037.42 1394.33 1037.65 1394.52 1037.93C1394.71 1038.21 1394.8 1038.55 1394.8 1038.94C1394.8 1039.27 1394.74 1039.56 1394.6 1039.83C1394.47 1040.1 1394.27 1040.33 1394.02 1040.53C1393.77 1040.72 1393.47 1040.87 1393.12 1040.98C1392.77 1041.08 1392.38 1041.14 1391.95 1041.14C1391.3 1041.14 1390.74 1041.02 1390.29 1040.79C1389.84 1040.56 1389.5 1040.25 1389.27 1039.89C1389.04 1039.52 1388.92 1039.13 1388.92 1038.72H1390.19C1390.21 1039.06 1390.31 1039.34 1390.49 1039.54C1390.67 1039.74 1390.9 1039.89 1391.16 1039.97C1391.43 1040.06 1391.69 1040.1 1391.95 1040.1C1392.29 1040.1 1392.58 1040.05 1392.82 1039.96C1393.05 1039.87 1393.23 1039.74 1393.36 1039.58C1393.48 1039.43 1393.54 1039.24 1393.54 1039.04ZM1398.35 1041H1397.09V1032.82C1397.09 1032.29 1397.18 1031.84 1397.38 1031.48C1397.57 1031.11 1397.85 1030.83 1398.22 1030.64C1398.58 1030.45 1399.01 1030.36 1399.51 1030.36C1399.66 1030.36 1399.81 1030.37 1399.95 1030.38C1400.1 1030.4 1400.25 1030.43 1400.39 1030.47L1400.32 1031.5C1400.23 1031.48 1400.12 1031.46 1399.99 1031.45C1399.87 1031.44 1399.76 1031.44 1399.64 1031.44C1399.37 1031.44 1399.14 1031.49 1398.94 1031.6C1398.75 1031.71 1398.6 1031.86 1398.5 1032.07C1398.4 1032.27 1398.35 1032.52 1398.35 1032.82V1041ZM1399.92 1033.6V1034.57H1395.92V1033.6H1399.92ZM1405.86 1039.29V1033.6H1407.13V1041H1405.92L1405.86 1039.29ZM1406.1 1037.73L1406.62 1037.72C1406.62 1038.21 1406.57 1038.67 1406.47 1039.09C1406.37 1039.5 1406.2 1039.86 1405.97 1040.17C1405.75 1040.47 1405.45 1040.71 1405.08 1040.88C1404.71 1041.05 1404.26 1041.14 1403.73 1041.14C1403.37 1041.14 1403.04 1041.08 1402.74 1040.98C1402.44 1040.87 1402.19 1040.71 1401.98 1040.49C1401.76 1040.28 1401.6 1039.99 1401.48 1039.64C1401.36 1039.29 1401.31 1038.87 1401.31 1038.38V1033.6H1402.57V1038.39C1402.57 1038.72 1402.61 1039 1402.68 1039.22C1402.76 1039.43 1402.86 1039.6 1402.99 1039.73C1403.12 1039.85 1403.27 1039.94 1403.42 1039.99C1403.59 1040.04 1403.76 1040.06 1403.93 1040.06C1404.47 1040.06 1404.89 1039.96 1405.21 1039.76C1405.52 1039.55 1405.75 1039.27 1405.89 1038.92C1406.03 1038.56 1406.1 1038.17 1406.1 1037.73ZM1410.43 1030.5V1041H1409.16V1030.5H1410.43ZM1413.84 1030.5V1041H1412.56V1030.5H1413.84ZM1417.94 1040.23L1420 1033.6H1421.36L1418.39 1042.14C1418.32 1042.32 1418.23 1042.52 1418.12 1042.73C1418.01 1042.94 1417.86 1043.15 1417.69 1043.34C1417.52 1043.53 1417.31 1043.68 1417.06 1043.8C1416.82 1043.93 1416.53 1043.99 1416.19 1043.99C1416.09 1043.99 1415.97 1043.97 1415.81 1043.95C1415.66 1043.92 1415.55 1043.9 1415.48 1043.88L1415.48 1042.85C1415.51 1042.86 1415.57 1042.86 1415.65 1042.87C1415.73 1042.88 1415.79 1042.88 1415.82 1042.88C1416.11 1042.88 1416.35 1042.84 1416.55 1042.76C1416.75 1042.69 1416.92 1042.57 1417.06 1042.39C1417.2 1042.21 1417.32 1041.98 1417.42 1041.67L1417.94 1040.23ZM1416.43 1033.6L1418.35 1039.35L1418.68 1040.68L1417.77 1041.14L1415.05 1033.6H1416.43ZM1421.78 1040.33C1421.78 1040.12 1421.85 1039.94 1421.98 1039.79C1422.11 1039.64 1422.31 1039.56 1422.57 1039.56C1422.82 1039.56 1423.01 1039.64 1423.15 1039.79C1423.28 1039.94 1423.35 1040.12 1423.35 1040.33C1423.35 1040.54 1423.28 1040.72 1423.15 1040.86C1423.01 1041.01 1422.82 1041.08 1422.57 1041.08C1422.31 1041.08 1422.11 1041.01 1421.98 1040.86C1421.85 1040.72 1421.78 1040.54 1421.78 1040.33Z" fill="black"/>
</g>
</g>
<rect x="1296.5" y="972.5" width="279" height="83" stroke="#00813A"/>
</g>
<defs>
<filter id="filter0_d_1299_4899" x="1286" y="962" width="300" height="104" filterUnits="userSpaceOnUse" color-interpolation-filters="sRGB">
<feFlood flood-opacity="0" result="BackgroundImageFix"/>
<feColorMatrix in="SourceAlpha" type="matrix" values="0 0 0 0 0 0 0 0 0 0 0 0 0 0 0 0 0 0 127 0" result="hardAlpha"/>
<feOffset/>
<feGaussianBlur stdDeviation="5"/>
<feComposite in2="hardAlpha" operator="out"/>
<feColorMatrix type="matrix" values="0 0 0 0 0 0 0 0 0 0 0 0 0 0 0 0 0 0 0.5 0"/>
<feBlend mode="normal" in2="BackgroundImageFix" result="effect1_dropShadow_1299_4899"/>
<feBlend mode="normal" in="SourceGraphic" in2="effect1_dropShadow_1299_4899" result="shape"/>
</filter>
<clipPath id="clip0_1299_4899">
<rect width="1600" height="1080" fill="white"/>
</clipPath>
<clipPath id="clip1_1299_4899">
<rect width="1600" height="52" fill="white"/>
</clipPath>
<clipPath id="clip2_1299_4899">
<rect width="24" height="24" fill="white" transform="translate(12 13)"/>
</clipPath>
<clipPath id="clip3_1299_4899">
<rect width="24" height="24" fill="white" transform="translate(61.5 12)"/>
</clipPath>
<clipPath id="clip4_1299_4899">
<rect width="24" height="24" fill="white" transform="translate(110 12)"/>
</clipPath>
<clipPath id="clip5_1299_4899">
<rect width="20" height="20" fill="white" transform="translate(1556 14)"/>
</clipPath>
<clipPath id="clip6_1299_4899">
<rect width="1600" height="1028" fill="white" transform="translate(0 52)"/>
</clipPath>
<clipPath id="clip7_1299_4899">
<rect width="1600" height="960" fill="white" transform="translate(0 120)"/>
</clipPath>
<clipPath id="clip8_1299_4899">
<rect width="1552" height="56" fill="white" transform="translate(24 120)"/>
</clipPath>
<clipPath id="clip9_1299_4899">
<rect width="24" height="24" fill="white" transform="translate(1358 136)"/>
</clipPath>
<clipPath id="clip10_1299_4899">
<rect width="24" height="24" fill="white" transform="translate(1398 136)"/>
</clipPath>
<clipPath id="clip11_1299_4899">
<rect width="24" height="24" fill="white" transform="translate(1438 136)"/>
</clipPath>
<clipPath id="clip12_1299_4899">
<rect width="1552" height="409" fill="white" transform="translate(24 176)"/>
</clipPath>
<clipPath id="clip13_1299_4899">
<rect width="40" height="409" fill="white" transform="translate(24 176)"/>
</clipPath>
<clipPath id="clip14_1299_4899">
<rect width="320" height="409" fill="white" transform="translate(64 176)"/>
</clipPath>
<clipPath id="clip15_1299_4899">
<rect width="384" height="409" fill="white" transform="translate(384 176)"/>
</clipPath>
<clipPath id="clip16_1299_4899">
<rect width="384" height="409" fill="white" transform="translate(768 176)"/>
</clipPath>
<clipPath id="clip17_1299_4899">
<rect width="384" height="409" fill="white" transform="translate(1152 176)"/>
</clipPath>
<clipPath id="clip18_1299_4899">
<rect width="40" height="409" fill="white" transform="translate(1536 176)"/>
</clipPath>
<clipPath id="clip19_1299_4899">
<rect width="24" height="24" fill="white" transform="translate(1544 224.5)"/>
</clipPath>
<clipPath id="clip20_1299_4899">
<rect width="24" height="24" fill="white" transform="translate(1544 265.5)"/>
</clipPath>
<clipPath id="clip21_1299_4899">
<rect width="24" height="24" fill="white" transform="translate(1544 306.5)"/>
</clipPath>
<clipPath id="clip22_1299_4899">
<rect width="24" height="24" fill="white" transform="translate(1544 347.5)"/>
</clipPath>
<clipPath id="clip23_1299_4899">
<rect width="24" height="24" fill="white" transform="translate(1544 388.5)"/>
</clipPath>
<clipPath id="clip24_1299_4899">
<rect width="24" height="24" fill="white" transform="translate(1544 429.5)"/>
</clipPath>
<clipPath id="clip25_1299_4899">
<rect width="24" height="24" fill="white" transform="translate(1544 470.5)"/>
</clipPath>
<clipPath id="clip26_1299_4899">
<rect width="24" height="24" fill="white" transform="translate(1544 511.5)"/>
</clipPath>
<clipPath id="clip27_1299_4899">
<rect width="24" height="24" fill="white" transform="translate(1544 552.5)"/>
</clipPath>
<clipPath id="clip28_1299_4899">
<rect x="1296" y="972" width="280" height="84" fill="white"/>
</clipPath>
<clipPath id="clip29_1299_4899">
<rect width="276" height="84" fill="white" transform="translate(1300 972)"/>
</clipPath>
<clipPath id="clip30_1299_4899">
<rect width="20" height="20" fill="white" transform="translate(1316 988)"/>
</clipPath>
</defs>
</svg>
