<svg width="1600" height="1080" viewBox="0 0 1600 1080" fill="none" xmlns="http://www.w3.org/2000/svg">
<g clip-path="url(#clip0_1299_4410)">
<rect width="1600" height="1080" fill="white"/>
<g clip-path="url(#clip1_1299_4410)">
<mask id="path-1-inside-1_1299_4410" fill="white">
<path d="M0 0H1600V52H0V0Z"/>
</mask>
<path d="M0 0H1600V52H0V0Z" fill="white"/>
<path d="M1600 52V48H0V52V56H1600V52Z" fill="#DC0018" mask="url(#path-1-inside-1_1299_4410)"/>
<mask id="path-3-inside-2_1299_4410" fill="white">
<path d="M0 0H49V48H0V0Z"/>
</mask>
<path d="M49 0H48V48H49H50V0H49Z" fill="#D7D7D7" mask="url(#path-3-inside-2_1299_4410)"/>
<g clip-path="url(#clip2_1299_4410)">
<path d="M24.5001 13.5C21.3501 13.5 18.2001 14.025 14.9751 15.075C14.9751 22.5 14.9751 30.3 24.5001 34.5C34.0251 30.3 34.0251 22.5 34.0251 15.075C30.8001 14.025 27.6501 13.5 24.5001 13.5ZM26.3751 24.9V29.325H22.5501V24.9H18.2001V21.075H22.6251V16.65H26.4501V21.075H30.8751V24.9H26.3751V24.9Z" fill="#DC0018"/>
</g>
<mask id="path-6-inside-3_1299_4410" fill="white">
<path d="M49 0H98V48H49V0Z"/>
</mask>
<path d="M98 0H97V48H98H99V0H98Z" fill="#D7D7D7" mask="url(#path-6-inside-3_1299_4410)"/>
<g clip-path="url(#clip3_1299_4410)">
<path fill-rule="evenodd" clip-rule="evenodd" d="M70.9054 18.5304L69.8448 17.4697L63.3145 24.0001L69.8448 30.5304L70.9054 29.4697L66.1857 24.75H82.375V23.25H66.1858L70.9054 18.5304Z" fill="#212121"/>
</g>
<rect x="122" y="18" width="100" height="12" fill="#C8C8C8"/>
<g clip-path="url(#clip4_1299_4410)">
<path d="M1572.25 24.3662V22.75H1571V24.625C1571 24.7907 1571.07 24.9497 1571.18 25.0669L1572.88 26.7588V27.75H1559.12V26.7588L1560.82 25.0669C1560.93 24.9497 1561 24.7907 1561 24.625V22.125C1561 21.2468 1561.23 20.3837 1561.67 19.6229C1562.11 18.8621 1562.74 18.2305 1563.5 17.792C1564.26 17.3534 1565.12 17.1233 1566 17.125C1566.88 17.1267 1567.74 17.3601 1568.5 17.8016V16.4042C1567.91 16.1408 1567.27 15.9729 1566.62 15.9068V14.625H1565.38V15.9068C1563.83 16.0635 1562.41 16.786 1561.37 17.9346C1560.33 19.0832 1559.75 20.5762 1559.75 22.125V24.3662L1558.06 26.0581C1557.94 26.1753 1557.88 26.3343 1557.88 26.5V28.375C1557.88 28.5408 1557.94 28.6997 1558.06 28.8169C1558.18 28.9342 1558.33 29 1558.5 29H1562.88V29.625C1562.88 30.4538 1563.2 31.2487 1563.79 31.8347C1564.38 32.4208 1565.17 32.75 1566 32.75C1566.83 32.75 1567.62 32.4208 1568.21 31.8347C1568.8 31.2487 1569.12 30.4538 1569.12 29.625V29H1573.5C1573.67 29 1573.82 28.9342 1573.94 28.8169C1574.06 28.6997 1574.12 28.5408 1574.12 28.375V26.5C1574.12 26.3343 1574.06 26.1753 1573.94 26.0581L1572.25 24.3662ZM1567.88 29.625C1567.88 30.1223 1567.68 30.5992 1567.33 30.9508C1566.97 31.3025 1566.5 31.5 1566 31.5C1565.5 31.5 1565.03 31.3025 1564.67 30.9508C1564.32 30.5992 1564.12 30.1223 1564.12 29.625V29H1567.88V29.625Z" fill="black"/>
<path d="M1572.25 21.5C1573.63 21.5 1574.75 20.3807 1574.75 19C1574.75 17.6193 1573.63 16.5 1572.25 16.5C1570.87 16.5 1569.75 17.6193 1569.75 19C1569.75 20.3807 1570.87 21.5 1572.25 21.5Z" fill="black"/>
</g>
</g>
<g clip-path="url(#clip5_1299_4410)">
<mask id="path-12-inside-4_1299_4410" fill="white">
<path d="M0 68H1600V236H0V68Z"/>
</mask>
<path d="M0 68H1600V236H0V68Z" fill="white"/>
<path d="M1600 236V234H0V236V238H1600V236Z" fill="#D9D9D9" mask="url(#path-12-inside-4_1299_4410)"/>
<rect width="1600" height="52" transform="translate(0 68)" fill="white"/>
<rect width="1552" height="36" transform="translate(24 76)" fill="white"/>
<rect x="24" y="76" width="140" height="18" fill="#848484"/>
<rect width="1600" height="68" transform="translate(0 120)" fill="white"/>
<g clip-path="url(#clip6_1299_4410)">
<rect x="24" y="136" width="67" height="12" fill="#D9D9D9"/>
<rect x="24" y="156" width="134" height="16" fill="#848484"/>
</g>
<g clip-path="url(#clip7_1299_4410)">
<rect x="182" y="136" width="89" height="12" fill="#D9D9D9"/>
<rect x="182" y="156" width="178" height="16" fill="#848484"/>
</g>
<g clip-path="url(#clip8_1299_4410)">
<rect x="384" y="136" width="85" height="12" fill="#D9D9D9"/>
<rect x="384" y="156" width="154" height="16" fill="#848484"/>
</g>
<g clip-path="url(#clip9_1299_4410)">
<rect x="562" y="136" width="85" height="12" fill="#D9D9D9"/>
<rect x="562" y="156" width="154" height="16" fill="#848484"/>
</g>
<g clip-path="url(#clip10_1299_4410)">
<circle cx="40" cy="208" r="15.5" stroke="#848484"/>
<circle cx="40" cy="208" r="4" fill="#848484"/>
<rect x="68" y="203" width="80" height="10" fill="#848484"/>
<rect x="160" y="207.5" width="324" height="1" fill="#D9D9D9"/>
</g>
<g clip-path="url(#clip11_1299_4410)">
<g clip-path="url(#clip12_1299_4410)">
<path d="M532 208C532 216.837 524.837 224 516 224C507.163 224 500 216.837 500 208C500 199.163 507.163 192 516 192C524.837 192 532 199.163 532 208Z" fill="#006699"/>
<path d="M520 208C520 210.209 518.209 212 516 212C513.791 212 512 210.209 512 208C512 205.791 513.791 204 516 204C518.209 204 520 205.791 520 208Z" fill="white"/>
</g>
<rect x="544" y="203" width="80" height="10" fill="#006699"/>
<rect x="636" y="207.5" width="324" height="1" fill="#C8C8C8"/>
</g>
<g clip-path="url(#clip13_1299_4410)">
<g clip-path="url(#clip14_1299_4410)">
<circle cx="992" cy="208" r="15.5" stroke="#D9D9D9"/>
<circle cx="992" cy="208" r="4" fill="#D9D9D9"/>
</g>
<rect x="1020" y="203" width="80" height="10" fill="#D9D9D9"/>
<rect x="1112" y="207.5" width="324" height="1" fill="#D9D9D9"/>
</g>
<g clip-path="url(#clip15_1299_4410)">
<g clip-path="url(#clip16_1299_4410)">
<circle cx="1468" cy="208" r="15.5" stroke="#D9D9D9"/>
<circle cx="1468" cy="208" r="4" fill="#D9D9D9"/>
</g>
<rect x="1496" y="203" width="80" height="10" fill="#D9D9D9"/>
</g>
<rect width="1600" height="788" transform="translate(0 236)" fill="#F2F4F6"/>
<g clip-path="url(#clip17_1299_4410)">
<mask id="path-37-inside-5_1299_4410" fill="white">
<path d="M0 236H1600V480H0V236Z"/>
</mask>
<rect width="1600" height="60" transform="translate(0 236)" fill="#F2F4F6"/>
<rect x="24" y="260" width="110" height="12" fill="#C8C8C8"/>
<rect width="110" height="12" transform="translate(25 296)" fill="#D9D9D9"/>
<g clip-path="url(#clip18_1299_4410)">
<rect x="24" y="328" width="64" height="8" fill="#D9D9D9"/>
<rect x="24.5" y="344.5" width="159" height="35" fill="white"/>
<rect x="24.5" y="344.5" width="159" height="35" stroke="#C8C8C8"/>
<rect x="36" y="357" width="80" height="10" fill="#848484"/>
<rect x="418" y="328" width="64" height="8" fill="#C70023"/>
<rect x="418.5" y="344.5" width="159" height="35" fill="white"/>
<rect x="418.5" y="344.5" width="159" height="35" stroke="#C8C8C8"/>
<rect x="430" y="357" width="80" height="10" fill="#C70023"/>
<rect x="812" y="328" width="64" height="8" fill="#D9D9D9"/>
<rect x="812.5" y="344.5" width="159" height="35" fill="white"/>
<rect x="812.5" y="344.5" width="159" height="35" stroke="#C8C8C8"/>
<rect x="824" y="357" width="80" height="10" fill="#848484"/>
<rect x="1206" y="328" width="64" height="8" fill="#D9D9D9"/>
<rect x="1206.5" y="344.5" width="159" height="35" fill="white"/>
<rect x="1206.5" y="344.5" width="159" height="35" stroke="#C8C8C8"/>
<rect x="1218" y="357" width="80" height="10" fill="#848484"/>
</g>
<g clip-path="url(#clip19_1299_4410)">
<rect x="24" y="404" width="64" height="8" fill="#D9D9D9"/>
<rect x="24.5" y="420.5" width="159" height="35" fill="white"/>
<rect x="24.5" y="420.5" width="159" height="35" stroke="#C8C8C8"/>
<rect x="36" y="433" width="80" height="10" fill="#848484"/>
<rect x="812" y="404" width="64" height="8" fill="#D9D9D9"/>
<rect x="812.5" y="420.5" width="159" height="35" fill="white"/>
<rect x="812.5" y="420.5" width="159" height="35" stroke="#C8C8C8"/>
<rect x="824" y="433" width="80" height="10" fill="#848484"/>
</g>
</g>
<path d="M1600 480V479H0V480V481H1600V480Z" fill="#D7D7D7" mask="url(#path-37-inside-5_1299_4410)"/>
<rect width="1600" height="56" transform="translate(0 1024)" fill="white"/>
<rect x="1212.5" y="1034.5" width="74" height="35" fill="white"/>
<rect x="1212.5" y="1034.5" width="74" height="35" stroke="#006699"/>
<path d="M1235.35 1053.83H1236.66C1236.59 1054.46 1236.41 1055.03 1236.12 1055.52C1235.83 1056.02 1235.42 1056.41 1234.88 1056.71C1234.35 1056.99 1233.69 1057.14 1232.89 1057.14C1232.31 1057.14 1231.77 1057.03 1231.3 1056.81C1230.82 1056.59 1230.41 1056.28 1230.07 1055.88C1229.73 1055.47 1229.47 1054.99 1229.28 1054.42C1229.1 1053.85 1229.01 1053.22 1229.01 1052.52V1051.53C1229.01 1050.83 1229.1 1050.2 1229.28 1049.64C1229.47 1049.07 1229.73 1048.58 1230.08 1048.17C1230.43 1047.77 1230.85 1047.46 1231.34 1047.24C1231.84 1047.02 1232.39 1046.91 1233 1046.91C1233.76 1046.91 1234.39 1047.05 1234.91 1047.33C1235.43 1047.62 1235.83 1048.01 1236.12 1048.51C1236.41 1049.01 1236.59 1049.58 1236.66 1050.24H1235.35C1235.29 1049.77 1235.17 1049.38 1234.99 1049.04C1234.82 1048.71 1234.57 1048.45 1234.26 1048.26C1233.94 1048.08 1233.52 1047.99 1233 1047.99C1232.56 1047.99 1232.17 1048.07 1231.84 1048.24C1231.5 1048.41 1231.22 1048.65 1231 1048.96C1230.77 1049.27 1230.6 1049.64 1230.49 1050.08C1230.38 1050.51 1230.32 1050.99 1230.32 1051.52V1052.52C1230.32 1053.01 1230.37 1053.47 1230.47 1053.9C1230.57 1054.32 1230.73 1054.7 1230.94 1055.02C1231.15 1055.35 1231.42 1055.6 1231.74 1055.79C1232.06 1055.97 1232.45 1056.06 1232.89 1056.06C1233.45 1056.06 1233.9 1055.97 1234.23 1055.8C1234.56 1055.62 1234.81 1055.36 1234.98 1055.03C1235.15 1054.7 1235.28 1054.3 1235.35 1053.83ZM1242.63 1055.74V1051.93C1242.63 1051.64 1242.57 1051.38 1242.45 1051.17C1242.34 1050.95 1242.17 1050.78 1241.93 1050.66C1241.7 1050.54 1241.41 1050.49 1241.07 1050.49C1240.75 1050.49 1240.47 1050.54 1240.23 1050.65C1239.99 1050.76 1239.81 1050.9 1239.67 1051.08C1239.54 1051.26 1239.47 1051.45 1239.47 1051.65H1238.21C1238.21 1051.39 1238.28 1051.13 1238.41 1050.87C1238.55 1050.61 1238.74 1050.37 1239 1050.16C1239.26 1049.95 1239.57 1049.78 1239.93 1049.66C1240.29 1049.53 1240.7 1049.47 1241.15 1049.47C1241.68 1049.47 1242.16 1049.56 1242.57 1049.74C1242.98 1049.92 1243.31 1050.2 1243.54 1050.57C1243.78 1050.93 1243.89 1051.39 1243.89 1051.94V1055.39C1243.89 1055.63 1243.92 1055.89 1243.96 1056.17C1244 1056.45 1244.07 1056.69 1244.15 1056.89V1057H1242.83C1242.77 1056.85 1242.72 1056.66 1242.68 1056.42C1242.65 1056.17 1242.63 1055.94 1242.63 1055.74ZM1242.85 1052.52L1242.86 1053.4H1241.58C1241.22 1053.4 1240.9 1053.43 1240.62 1053.49C1240.34 1053.55 1240.1 1053.63 1239.91 1053.75C1239.72 1053.86 1239.57 1054 1239.47 1054.18C1239.37 1054.35 1239.32 1054.54 1239.32 1054.77C1239.32 1055 1239.37 1055.22 1239.48 1055.41C1239.58 1055.6 1239.74 1055.75 1239.95 1055.87C1240.16 1055.97 1240.43 1056.03 1240.74 1056.03C1241.12 1056.03 1241.47 1055.95 1241.76 1055.78C1242.06 1055.62 1242.29 1055.42 1242.47 1055.18C1242.64 1054.94 1242.74 1054.71 1242.75 1054.49L1243.29 1055.1C1243.26 1055.29 1243.17 1055.5 1243.03 1055.74C1242.89 1055.97 1242.7 1056.19 1242.47 1056.41C1242.23 1056.61 1241.96 1056.79 1241.63 1056.93C1241.31 1057.07 1240.95 1057.14 1240.55 1057.14C1240.05 1057.14 1239.61 1057.04 1239.23 1056.84C1238.86 1056.65 1238.57 1056.38 1238.36 1056.06C1238.15 1055.72 1238.05 1055.35 1238.05 1054.94C1238.05 1054.55 1238.13 1054.2 1238.28 1053.9C1238.44 1053.59 1238.66 1053.34 1238.95 1053.14C1239.24 1052.93 1239.59 1052.78 1240 1052.67C1240.42 1052.57 1240.87 1052.52 1241.38 1052.52H1242.85ZM1247.15 1051.18V1057H1245.88V1049.6H1247.08L1247.15 1051.18ZM1246.85 1053.02L1246.32 1053C1246.33 1052.5 1246.4 1052.03 1246.55 1051.6C1246.69 1051.17 1246.9 1050.79 1247.16 1050.47C1247.43 1050.15 1247.74 1049.91 1248.11 1049.73C1248.47 1049.56 1248.88 1049.47 1249.33 1049.47C1249.69 1049.47 1250.02 1049.52 1250.31 1049.62C1250.61 1049.71 1250.85 1049.87 1251.06 1050.08C1251.27 1050.3 1251.43 1050.57 1251.54 1050.92C1251.65 1051.25 1251.7 1051.67 1251.7 1052.15V1057H1250.43V1052.14C1250.43 1051.75 1250.37 1051.44 1250.26 1051.21C1250.14 1050.97 1249.98 1050.8 1249.76 1050.7C1249.54 1050.59 1249.27 1050.53 1248.95 1050.53C1248.64 1050.53 1248.35 1050.6 1248.09 1050.73C1247.84 1050.86 1247.62 1051.05 1247.43 1051.28C1247.25 1051.51 1247.1 1051.78 1247 1052.08C1246.9 1052.37 1246.85 1052.69 1246.85 1053.02ZM1256.58 1056.1C1256.88 1056.1 1257.16 1056.04 1257.42 1055.91C1257.67 1055.79 1257.88 1055.62 1258.04 1055.41C1258.21 1055.19 1258.3 1054.94 1258.33 1054.66H1259.53C1259.51 1055.1 1259.36 1055.51 1259.08 1055.89C1258.82 1056.26 1258.46 1056.56 1258.02 1056.79C1257.59 1057.02 1257.11 1057.14 1256.58 1057.14C1256.03 1057.14 1255.54 1057.04 1255.13 1056.84C1254.72 1056.65 1254.37 1056.38 1254.1 1056.04C1253.83 1055.69 1253.63 1055.3 1253.49 1054.86C1253.36 1054.41 1253.29 1053.94 1253.29 1053.45V1053.16C1253.29 1052.66 1253.36 1052.19 1253.49 1051.75C1253.63 1051.3 1253.83 1050.91 1254.1 1050.57C1254.37 1050.23 1254.72 1049.96 1255.13 1049.76C1255.54 1049.56 1256.03 1049.47 1256.58 1049.47C1257.16 1049.47 1257.67 1049.59 1258.1 1049.82C1258.53 1050.05 1258.87 1050.37 1259.12 1050.78C1259.37 1051.18 1259.51 1051.64 1259.53 1052.15H1258.33C1258.3 1051.84 1258.22 1051.57 1258.07 1051.32C1257.92 1051.07 1257.72 1050.88 1257.46 1050.73C1257.21 1050.58 1256.92 1050.51 1256.58 1050.51C1256.19 1050.51 1255.87 1050.58 1255.6 1050.74C1255.34 1050.89 1255.14 1051.09 1254.98 1051.35C1254.83 1051.61 1254.72 1051.89 1254.65 1052.21C1254.59 1052.52 1254.56 1052.83 1254.56 1053.16V1053.45C1254.56 1053.77 1254.59 1054.09 1254.65 1054.4C1254.72 1054.72 1254.83 1055 1254.98 1055.26C1255.13 1055.51 1255.34 1055.72 1255.6 1055.87C1255.86 1056.02 1256.19 1056.1 1256.58 1056.1ZM1264.02 1057.14C1263.5 1057.14 1263.04 1057.05 1262.62 1056.88C1262.2 1056.7 1261.85 1056.45 1261.54 1056.13C1261.25 1055.81 1261.02 1055.43 1260.86 1055C1260.7 1054.56 1260.62 1054.08 1260.62 1053.56V1053.27C1260.62 1052.67 1260.71 1052.14 1260.89 1051.67C1261.07 1051.19 1261.31 1050.79 1261.61 1050.46C1261.92 1050.14 1262.26 1049.89 1262.65 1049.72C1263.04 1049.55 1263.44 1049.47 1263.86 1049.47C1264.38 1049.47 1264.84 1049.56 1265.22 1049.74C1265.61 1049.92 1265.93 1050.18 1266.17 1050.51C1266.42 1050.83 1266.6 1051.21 1266.72 1051.65C1266.84 1052.09 1266.9 1052.57 1266.9 1053.09V1053.66H1261.37V1052.62H1265.63V1052.53C1265.61 1052.2 1265.55 1051.88 1265.43 1051.57C1265.31 1051.26 1265.13 1051.01 1264.88 1050.81C1264.63 1050.61 1264.29 1050.51 1263.86 1050.51C1263.57 1050.51 1263.3 1050.57 1263.06 1050.69C1262.82 1050.81 1262.61 1050.99 1262.44 1051.22C1262.27 1051.46 1262.13 1051.75 1262.04 1052.09C1261.94 1052.43 1261.89 1052.83 1261.89 1053.27V1053.56C1261.89 1053.91 1261.94 1054.24 1262.04 1054.55C1262.14 1054.86 1262.28 1055.13 1262.47 1055.36C1262.66 1055.59 1262.89 1055.77 1263.16 1055.91C1263.43 1056.04 1263.74 1056.1 1264.09 1056.1C1264.53 1056.1 1264.91 1056.01 1265.22 1055.83C1265.53 1055.65 1265.8 1055.4 1266.04 1055.1L1266.8 1055.71C1266.64 1055.95 1266.44 1056.18 1266.19 1056.4C1265.95 1056.62 1265.64 1056.79 1265.28 1056.93C1264.93 1057.07 1264.51 1057.14 1264.02 1057.14ZM1269.75 1046.5V1057H1268.48V1046.5H1269.75Z" fill="#006699"/>
<rect x="1303" y="1034" width="1" height="36" fill="#D7D7D7"/>
<rect x="1320.5" y="1034.5" width="85" height="35" fill="white"/>
<rect x="1320.5" y="1034.5" width="85" height="35" stroke="#006699"/>
<path d="M1340.88 1053.1H1338.22V1052.02H1340.88C1341.39 1052.02 1341.81 1051.94 1342.13 1051.78C1342.45 1051.61 1342.68 1051.39 1342.83 1051.09C1342.98 1050.8 1343.05 1050.47 1343.05 1050.1C1343.05 1049.75 1342.98 1049.43 1342.83 1049.13C1342.68 1048.83 1342.45 1048.59 1342.13 1048.41C1341.81 1048.22 1341.39 1048.13 1340.88 1048.13H1338.53V1057H1337.21V1047.05H1340.88C1341.63 1047.05 1342.27 1047.18 1342.79 1047.44C1343.31 1047.7 1343.7 1048.06 1343.97 1048.52C1344.24 1048.97 1344.37 1049.49 1344.37 1050.08C1344.37 1050.72 1344.24 1051.26 1343.97 1051.72C1343.7 1052.17 1343.31 1052.51 1342.79 1052.75C1342.27 1052.98 1341.63 1053.1 1340.88 1053.1ZM1347.11 1050.77V1057H1345.85V1049.6H1347.08L1347.11 1050.77ZM1349.42 1049.56L1349.42 1050.74C1349.31 1050.72 1349.21 1050.7 1349.12 1050.7C1349.03 1050.69 1348.92 1050.68 1348.8 1050.68C1348.51 1050.68 1348.25 1050.73 1348.03 1050.82C1347.81 1050.91 1347.62 1051.04 1347.46 1051.2C1347.31 1051.37 1347.18 1051.56 1347.09 1051.79C1347.01 1052.01 1346.95 1052.26 1346.92 1052.53L1346.57 1052.73C1346.57 1052.29 1346.61 1051.87 1346.7 1051.48C1346.79 1051.08 1346.93 1050.74 1347.11 1050.44C1347.3 1050.13 1347.54 1049.9 1347.82 1049.73C1348.12 1049.55 1348.46 1049.47 1348.86 1049.47C1348.95 1049.47 1349.06 1049.48 1349.18 1049.5C1349.3 1049.52 1349.38 1049.54 1349.42 1049.56ZM1353.53 1057.14C1353.01 1057.14 1352.54 1057.05 1352.12 1056.88C1351.71 1056.7 1351.35 1056.45 1351.05 1056.13C1350.75 1055.81 1350.53 1055.43 1350.37 1055C1350.21 1054.56 1350.13 1054.08 1350.13 1053.56V1053.27C1350.13 1052.67 1350.22 1052.14 1350.39 1051.67C1350.57 1051.19 1350.81 1050.79 1351.12 1050.46C1351.42 1050.14 1351.77 1049.89 1352.16 1049.72C1352.55 1049.55 1352.95 1049.47 1353.36 1049.47C1353.89 1049.47 1354.35 1049.56 1354.73 1049.74C1355.12 1049.92 1355.43 1050.18 1355.68 1050.51C1355.92 1050.83 1356.11 1051.21 1356.23 1051.65C1356.34 1052.09 1356.4 1052.57 1356.4 1053.09V1053.66H1350.88V1052.62H1355.14V1052.53C1355.12 1052.2 1355.05 1051.88 1354.93 1051.57C1354.82 1051.26 1354.64 1051.01 1354.39 1050.81C1354.14 1050.61 1353.79 1050.51 1353.36 1050.51C1353.07 1050.51 1352.81 1050.57 1352.57 1050.69C1352.33 1050.81 1352.12 1050.99 1351.95 1051.22C1351.77 1051.46 1351.64 1051.75 1351.54 1052.09C1351.45 1052.43 1351.4 1052.83 1351.4 1053.27V1053.56C1351.4 1053.91 1351.45 1054.24 1351.54 1054.55C1351.64 1054.86 1351.79 1055.13 1351.97 1055.36C1352.17 1055.59 1352.4 1055.77 1352.66 1055.91C1352.94 1056.04 1353.25 1056.1 1353.59 1056.1C1354.04 1056.1 1354.42 1056.01 1354.73 1055.83C1355.04 1055.65 1355.31 1055.4 1355.54 1055.1L1356.31 1055.71C1356.15 1055.95 1355.95 1056.18 1355.7 1056.4C1355.45 1056.62 1355.15 1056.79 1354.79 1056.93C1354.43 1057.07 1354.01 1057.14 1353.53 1057.14ZM1360.03 1055.86L1362.06 1049.6H1363.35L1360.69 1057H1359.84L1360.03 1055.86ZM1358.34 1049.6L1360.43 1055.89L1360.57 1057H1359.73L1357.05 1049.6H1358.34ZM1365.94 1049.6V1057H1364.67V1049.6H1365.94ZM1364.57 1047.64C1364.57 1047.44 1364.63 1047.26 1364.76 1047.12C1364.88 1046.98 1365.07 1046.91 1365.32 1046.91C1365.56 1046.91 1365.74 1046.98 1365.87 1047.12C1366 1047.26 1366.07 1047.44 1366.07 1047.64C1366.07 1047.84 1366 1048.01 1365.87 1048.15C1365.74 1048.28 1365.56 1048.35 1365.32 1048.35C1365.07 1048.35 1364.88 1048.28 1364.76 1048.15C1364.63 1048.01 1364.57 1047.84 1364.57 1047.64ZM1367.63 1053.38V1053.23C1367.63 1052.69 1367.71 1052.2 1367.87 1051.74C1368.02 1051.28 1368.25 1050.88 1368.54 1050.55C1368.83 1050.21 1369.18 1049.94 1369.6 1049.75C1370.01 1049.56 1370.48 1049.47 1370.99 1049.47C1371.51 1049.47 1371.98 1049.56 1372.39 1049.75C1372.81 1049.94 1373.17 1050.21 1373.46 1050.55C1373.76 1050.88 1373.98 1051.28 1374.14 1051.74C1374.29 1052.2 1374.37 1052.69 1374.37 1053.23V1053.38C1374.37 1053.92 1374.29 1054.41 1374.14 1054.87C1373.98 1055.32 1373.76 1055.72 1373.46 1056.06C1373.17 1056.4 1372.81 1056.67 1372.4 1056.86C1371.99 1057.04 1371.52 1057.14 1371 1057.14C1370.49 1057.14 1370.02 1057.04 1369.6 1056.86C1369.19 1056.67 1368.83 1056.4 1368.54 1056.06C1368.25 1055.72 1368.02 1055.32 1367.87 1054.87C1367.71 1054.41 1367.63 1053.92 1367.63 1053.38ZM1368.9 1053.23V1053.38C1368.9 1053.75 1368.94 1054.1 1369.03 1054.43C1369.12 1054.75 1369.25 1055.04 1369.42 1055.29C1369.6 1055.54 1369.82 1055.74 1370.08 1055.89C1370.35 1056.03 1370.65 1056.1 1371 1056.1C1371.35 1056.1 1371.65 1056.03 1371.91 1055.89C1372.18 1055.74 1372.4 1055.54 1372.57 1055.29C1372.74 1055.04 1372.87 1054.75 1372.96 1054.43C1373.05 1054.1 1373.1 1053.75 1373.1 1053.38V1053.23C1373.1 1052.86 1373.05 1052.52 1372.96 1052.19C1372.87 1051.87 1372.74 1051.58 1372.56 1051.33C1372.39 1051.07 1372.17 1050.87 1371.91 1050.72C1371.65 1050.58 1371.34 1050.51 1370.99 1050.51C1370.64 1050.51 1370.34 1050.58 1370.08 1050.72C1369.82 1050.87 1369.6 1051.07 1369.42 1051.33C1369.25 1051.58 1369.12 1051.87 1369.03 1052.19C1368.94 1052.52 1368.9 1052.86 1368.9 1053.23ZM1380.48 1055.29V1049.6H1381.75V1057H1380.54L1380.48 1055.29ZM1380.72 1053.73L1381.25 1053.72C1381.25 1054.21 1381.19 1054.67 1381.09 1055.09C1380.99 1055.5 1380.82 1055.86 1380.6 1056.17C1380.37 1056.47 1380.07 1056.71 1379.7 1056.88C1379.33 1057.05 1378.88 1057.14 1378.35 1057.14C1377.99 1057.14 1377.66 1057.08 1377.36 1056.98C1377.07 1056.87 1376.81 1056.71 1376.6 1056.49C1376.38 1056.28 1376.22 1055.99 1376.1 1055.64C1375.98 1055.29 1375.93 1054.87 1375.93 1054.38V1049.6H1377.19V1054.39C1377.19 1054.72 1377.23 1055 1377.3 1055.22C1377.38 1055.43 1377.48 1055.6 1377.61 1055.73C1377.74 1055.85 1377.89 1055.94 1378.05 1055.99C1378.21 1056.04 1378.38 1056.06 1378.55 1056.06C1379.09 1056.06 1379.52 1055.96 1379.83 1055.76C1380.14 1055.55 1380.37 1055.27 1380.51 1054.92C1380.65 1054.56 1380.72 1054.17 1380.72 1053.73ZM1387.99 1055.04C1387.99 1054.86 1387.94 1054.69 1387.86 1054.53C1387.78 1054.37 1387.62 1054.23 1387.38 1054.1C1387.14 1053.97 1386.77 1053.86 1386.28 1053.76C1385.87 1053.67 1385.5 1053.57 1385.17 1053.45C1384.84 1053.33 1384.56 1053.19 1384.33 1053.02C1384.1 1052.85 1383.92 1052.65 1383.8 1052.43C1383.68 1052.2 1383.62 1051.93 1383.62 1051.63C1383.62 1051.34 1383.68 1051.06 1383.81 1050.8C1383.94 1050.54 1384.13 1050.31 1384.36 1050.11C1384.6 1049.91 1384.89 1049.75 1385.23 1049.64C1385.57 1049.52 1385.94 1049.47 1386.36 1049.47C1386.95 1049.47 1387.46 1049.57 1387.88 1049.78C1388.3 1049.99 1388.62 1050.27 1388.84 1050.62C1389.06 1050.97 1389.17 1051.35 1389.17 1051.78H1387.91C1387.91 1051.57 1387.85 1051.37 1387.73 1051.18C1387.61 1050.99 1387.43 1050.82 1387.2 1050.7C1386.97 1050.57 1386.69 1050.51 1386.36 1050.51C1386.01 1050.51 1385.72 1050.56 1385.5 1050.67C1385.29 1050.77 1385.13 1050.91 1385.03 1051.07C1384.94 1051.24 1384.89 1051.41 1384.89 1051.59C1384.89 1051.73 1384.91 1051.85 1384.96 1051.96C1385.01 1052.07 1385.09 1052.16 1385.22 1052.26C1385.34 1052.34 1385.51 1052.42 1385.74 1052.5C1385.96 1052.58 1386.24 1052.66 1386.59 1052.73C1387.2 1052.87 1387.7 1053.04 1388.09 1053.23C1388.48 1053.42 1388.77 1053.65 1388.96 1053.93C1389.15 1054.21 1389.25 1054.55 1389.25 1054.94C1389.25 1055.27 1389.18 1055.56 1389.04 1055.83C1388.91 1056.1 1388.72 1056.33 1388.46 1056.53C1388.21 1056.72 1387.91 1056.87 1387.56 1056.98C1387.22 1057.08 1386.83 1057.14 1386.39 1057.14C1385.74 1057.14 1385.19 1057.02 1384.74 1056.79C1384.29 1056.56 1383.95 1056.25 1383.71 1055.89C1383.48 1055.52 1383.36 1055.13 1383.36 1054.72H1384.64C1384.65 1055.06 1384.75 1055.34 1384.94 1055.54C1385.12 1055.74 1385.34 1055.89 1385.61 1055.97C1385.87 1056.06 1386.13 1056.1 1386.39 1056.1C1386.74 1056.1 1387.03 1056.05 1387.26 1055.96C1387.5 1055.87 1387.68 1055.74 1387.8 1055.58C1387.92 1055.43 1387.99 1055.24 1387.99 1055.04Z" fill="#006699"/>
<rect width="61" height="36" transform="translate(1422 1034)" fill="#D9D9D9"/>
<path d="M1446.84 1047.05V1057H1445.51L1440.5 1049.32V1057H1439.18V1047.05H1440.5L1445.53 1054.74V1047.05H1446.84ZM1452.06 1057.14C1451.54 1057.14 1451.07 1057.05 1450.65 1056.88C1450.24 1056.7 1449.88 1056.45 1449.58 1056.13C1449.28 1055.81 1449.06 1055.43 1448.9 1055C1448.74 1054.56 1448.66 1054.08 1448.66 1053.56V1053.27C1448.66 1052.67 1448.75 1052.14 1448.92 1051.67C1449.1 1051.19 1449.34 1050.79 1449.65 1050.46C1449.95 1050.14 1450.3 1049.89 1450.69 1049.72C1451.08 1049.55 1451.48 1049.47 1451.89 1049.47C1452.42 1049.47 1452.88 1049.56 1453.26 1049.74C1453.65 1049.92 1453.96 1050.18 1454.21 1050.51C1454.46 1050.83 1454.64 1051.21 1454.76 1051.65C1454.87 1052.09 1454.93 1052.57 1454.93 1053.09V1053.66H1449.41V1052.62H1453.67V1052.53C1453.65 1052.2 1453.58 1051.88 1453.46 1051.57C1453.35 1051.26 1453.17 1051.01 1452.92 1050.81C1452.67 1050.61 1452.32 1050.51 1451.89 1050.51C1451.6 1050.51 1451.34 1050.57 1451.1 1050.69C1450.86 1050.81 1450.65 1050.99 1450.48 1051.22C1450.3 1051.46 1450.17 1051.75 1450.07 1052.09C1449.98 1052.43 1449.93 1052.83 1449.93 1053.27V1053.56C1449.93 1053.91 1449.98 1054.24 1450.07 1054.55C1450.17 1054.86 1450.32 1055.13 1450.5 1055.36C1450.7 1055.59 1450.93 1055.77 1451.19 1055.91C1451.47 1056.04 1451.78 1056.1 1452.12 1056.1C1452.57 1056.1 1452.95 1056.01 1453.26 1055.83C1453.57 1055.65 1453.84 1055.4 1454.07 1055.1L1454.84 1055.71C1454.68 1055.95 1454.48 1056.18 1454.23 1056.4C1453.98 1056.62 1453.68 1056.79 1453.32 1056.93C1452.96 1057.07 1452.54 1057.14 1452.06 1057.14ZM1457.26 1049.6L1458.88 1052.3L1460.53 1049.6H1462.01L1459.59 1053.25L1462.08 1057H1460.62L1458.91 1054.22L1457.2 1057H1455.73L1458.22 1053.25L1455.81 1049.6H1457.26ZM1466.45 1049.6V1050.57H1462.45V1049.6H1466.45ZM1463.81 1047.81H1465.07V1055.17C1465.07 1055.42 1465.11 1055.61 1465.19 1055.74C1465.26 1055.86 1465.37 1055.95 1465.49 1055.99C1465.61 1056.03 1465.74 1056.05 1465.88 1056.05C1465.99 1056.05 1466.1 1056.04 1466.21 1056.02C1466.33 1056 1466.42 1055.98 1466.48 1055.97L1466.49 1057C1466.39 1057.03 1466.25 1057.06 1466.09 1057.09C1465.93 1057.12 1465.74 1057.14 1465.51 1057.14C1465.2 1057.14 1464.91 1057.08 1464.65 1056.95C1464.39 1056.83 1464.19 1056.62 1464.03 1056.34C1463.88 1056.05 1463.81 1055.65 1463.81 1055.16V1047.81Z" fill="#434343"/>
<rect width="77" height="36" transform="translate(1499 1034)" fill="#D9D9D9"/>
<path d="M1521.88 1054.48C1521.88 1054.25 1521.84 1054.05 1521.77 1053.87C1521.7 1053.69 1521.58 1053.52 1521.4 1053.38C1521.23 1053.23 1520.99 1053.09 1520.68 1052.96C1520.37 1052.83 1519.98 1052.69 1519.51 1052.56C1519.02 1052.41 1518.58 1052.25 1518.18 1052.07C1517.79 1051.89 1517.45 1051.68 1517.16 1051.45C1516.88 1051.22 1516.66 1050.95 1516.51 1050.65C1516.36 1050.35 1516.29 1050 1516.29 1049.62C1516.29 1049.23 1516.37 1048.87 1516.53 1048.54C1516.69 1048.22 1516.91 1047.93 1517.21 1047.69C1517.51 1047.44 1517.87 1047.25 1518.28 1047.12C1518.7 1046.98 1519.16 1046.91 1519.67 1046.91C1520.42 1046.91 1521.05 1047.05 1521.57 1047.34C1522.1 1047.62 1522.5 1047.99 1522.77 1048.46C1523.04 1048.91 1523.18 1049.4 1523.18 1049.92H1521.87C1521.87 1049.54 1521.79 1049.21 1521.63 1048.93C1521.47 1048.64 1521.23 1048.41 1520.9 1048.24C1520.58 1048.07 1520.17 1047.99 1519.67 1047.99C1519.2 1047.99 1518.82 1048.06 1518.51 1048.2C1518.2 1048.34 1517.98 1048.53 1517.83 1048.78C1517.68 1049.02 1517.61 1049.29 1517.61 1049.6C1517.61 1049.81 1517.65 1050 1517.74 1050.18C1517.83 1050.35 1517.97 1050.5 1518.15 1050.65C1518.35 1050.8 1518.59 1050.93 1518.88 1051.05C1519.18 1051.18 1519.53 1051.29 1519.94 1051.41C1520.5 1051.57 1520.99 1051.75 1521.4 1051.94C1521.81 1052.14 1522.15 1052.36 1522.41 1052.6C1522.68 1052.85 1522.88 1053.12 1523.01 1053.43C1523.14 1053.74 1523.21 1054.08 1523.21 1054.47C1523.21 1054.88 1523.12 1055.24 1522.96 1055.57C1522.8 1055.9 1522.56 1056.18 1522.26 1056.41C1521.95 1056.64 1521.58 1056.82 1521.16 1056.95C1520.73 1057.08 1520.26 1057.14 1519.73 1057.14C1519.27 1057.14 1518.82 1057.07 1518.37 1056.95C1517.93 1056.82 1517.53 1056.63 1517.16 1056.37C1516.8 1056.12 1516.51 1055.8 1516.29 1055.43C1516.08 1055.05 1515.97 1054.61 1515.97 1054.12H1517.29C1517.29 1054.46 1517.35 1054.75 1517.48 1055C1517.62 1055.24 1517.8 1055.44 1518.02 1055.6C1518.26 1055.76 1518.52 1055.88 1518.81 1055.95C1519.11 1056.03 1519.41 1056.06 1519.73 1056.06C1520.19 1056.06 1520.58 1056 1520.9 1055.87C1521.22 1055.74 1521.46 1055.56 1521.63 1055.33C1521.8 1055.09 1521.88 1054.81 1521.88 1054.48ZM1529.22 1055.29V1049.6H1530.49V1057H1529.28L1529.22 1055.29ZM1529.46 1053.73L1529.99 1053.72C1529.99 1054.21 1529.93 1054.67 1529.83 1055.09C1529.73 1055.5 1529.57 1055.86 1529.34 1056.17C1529.11 1056.47 1528.81 1056.71 1528.44 1056.88C1528.07 1057.05 1527.62 1057.14 1527.1 1057.14C1526.74 1057.14 1526.41 1057.08 1526.1 1056.98C1525.81 1056.87 1525.55 1056.71 1525.34 1056.49C1525.12 1056.28 1524.96 1055.99 1524.84 1055.64C1524.73 1055.29 1524.67 1054.87 1524.67 1054.38V1049.6H1525.93V1054.39C1525.93 1054.72 1525.97 1055 1526.04 1055.22C1526.12 1055.43 1526.22 1055.6 1526.35 1055.73C1526.48 1055.85 1526.63 1055.94 1526.79 1055.99C1526.95 1056.04 1527.12 1056.06 1527.29 1056.06C1527.83 1056.06 1528.26 1055.96 1528.57 1055.76C1528.89 1055.55 1529.11 1055.27 1529.25 1054.92C1529.39 1054.56 1529.46 1054.17 1529.46 1053.73ZM1532.41 1046.5H1533.69V1055.56L1533.58 1057H1532.41V1046.5ZM1538.68 1053.24V1053.38C1538.68 1053.92 1538.62 1054.42 1538.49 1054.88C1538.36 1055.34 1538.18 1055.73 1537.93 1056.07C1537.68 1056.41 1537.38 1056.67 1537.03 1056.86C1536.67 1057.04 1536.26 1057.14 1535.8 1057.14C1535.34 1057.14 1534.92 1057.06 1534.57 1056.9C1534.22 1056.73 1533.92 1056.5 1533.68 1056.19C1533.44 1055.89 1533.24 1055.52 1533.1 1055.09C1532.96 1054.65 1532.86 1054.17 1532.8 1053.62V1052.99C1532.86 1052.45 1532.96 1051.96 1533.1 1051.52C1533.24 1051.09 1533.44 1050.72 1533.68 1050.42C1533.92 1050.11 1534.22 1049.87 1534.57 1049.71C1534.92 1049.55 1535.33 1049.47 1535.79 1049.47C1536.26 1049.47 1536.67 1049.56 1537.03 1049.74C1537.39 1049.92 1537.69 1050.17 1537.93 1050.51C1538.18 1050.84 1538.36 1051.24 1538.49 1051.7C1538.62 1052.16 1538.68 1052.68 1538.68 1053.24ZM1537.41 1053.38V1053.24C1537.41 1052.87 1537.38 1052.52 1537.31 1052.2C1537.24 1051.87 1537.13 1051.59 1536.98 1051.34C1536.83 1051.09 1536.63 1050.89 1536.39 1050.75C1536.14 1050.61 1535.84 1050.53 1535.48 1050.53C1535.16 1050.53 1534.88 1050.59 1534.64 1050.7C1534.41 1050.81 1534.21 1050.95 1534.05 1051.14C1533.88 1051.32 1533.75 1051.53 1533.64 1051.77C1533.54 1052 1533.47 1052.24 1533.42 1052.5V1054.14C1533.49 1054.46 1533.61 1054.77 1533.77 1055.07C1533.94 1055.36 1534.17 1055.6 1534.44 1055.78C1534.73 1055.97 1535.08 1056.06 1535.49 1056.06C1535.83 1056.06 1536.12 1056 1536.37 1055.86C1536.61 1055.72 1536.81 1055.52 1536.96 1055.28C1537.11 1055.03 1537.23 1054.75 1537.3 1054.42C1537.37 1054.1 1537.41 1053.75 1537.41 1053.38ZM1541.54 1051.07V1057H1540.27V1049.6H1541.47L1541.54 1051.07ZM1541.28 1053.02L1540.69 1053C1540.7 1052.5 1540.76 1052.03 1540.89 1051.6C1541.02 1051.17 1541.21 1050.79 1541.46 1050.47C1541.71 1050.15 1542.02 1049.91 1542.39 1049.73C1542.77 1049.56 1543.2 1049.47 1543.69 1049.47C1544.04 1049.47 1544.36 1049.52 1544.65 1049.62C1544.94 1049.71 1545.19 1049.87 1545.41 1050.08C1545.62 1050.28 1545.79 1050.55 1545.91 1050.88C1546.03 1051.21 1546.09 1051.61 1546.09 1052.07V1057H1544.82V1052.13C1544.82 1051.75 1544.76 1051.44 1544.62 1051.2C1544.5 1050.97 1544.31 1050.8 1544.08 1050.7C1543.84 1050.59 1543.56 1050.53 1543.24 1050.53C1542.87 1050.53 1542.56 1050.6 1542.31 1050.73C1542.06 1050.86 1541.85 1051.05 1541.7 1051.28C1541.55 1051.51 1541.44 1051.78 1541.38 1052.08C1541.31 1052.37 1541.28 1052.69 1541.28 1053.02ZM1546.07 1052.32L1545.22 1052.58C1545.23 1052.18 1545.3 1051.79 1545.42 1051.42C1545.56 1051.04 1545.74 1050.71 1545.99 1050.42C1546.24 1050.13 1546.55 1049.9 1546.91 1049.73C1547.28 1049.55 1547.69 1049.47 1548.16 1049.47C1548.56 1049.47 1548.91 1049.52 1549.22 1049.62C1549.53 1049.73 1549.79 1049.89 1550 1050.11C1550.21 1050.32 1550.37 1050.6 1550.48 1050.94C1550.59 1051.27 1550.65 1051.67 1550.65 1052.14V1057H1549.37V1052.13C1549.37 1051.71 1549.31 1051.39 1549.18 1051.16C1549.05 1050.93 1548.87 1050.77 1548.63 1050.68C1548.4 1050.58 1548.12 1050.53 1547.79 1050.53C1547.52 1050.53 1547.27 1050.58 1547.06 1050.68C1546.84 1050.77 1546.66 1050.9 1546.52 1051.07C1546.37 1051.24 1546.26 1051.43 1546.18 1051.64C1546.11 1051.85 1546.07 1052.08 1546.07 1052.32ZM1553.93 1049.6V1057H1552.66V1049.6H1553.93ZM1552.57 1047.64C1552.57 1047.44 1552.63 1047.26 1552.75 1047.12C1552.88 1046.98 1553.07 1046.91 1553.31 1046.91C1553.55 1046.91 1553.74 1046.98 1553.87 1047.12C1554 1047.26 1554.06 1047.44 1554.06 1047.64C1554.06 1047.84 1554 1048.01 1553.87 1048.15C1553.74 1048.28 1553.55 1048.35 1553.31 1048.35C1553.07 1048.35 1552.88 1048.28 1552.75 1048.15C1552.63 1048.01 1552.57 1047.84 1552.57 1047.64ZM1559.06 1049.6V1050.57H1555.06V1049.6H1559.06ZM1556.42 1047.81H1557.68V1055.17C1557.68 1055.42 1557.72 1055.61 1557.8 1055.74C1557.87 1055.86 1557.97 1055.95 1558.1 1055.99C1558.22 1056.03 1558.35 1056.05 1558.49 1056.05C1558.6 1056.05 1558.71 1056.04 1558.82 1056.02C1558.94 1056 1559.03 1055.98 1559.09 1055.97L1559.09 1057C1558.99 1057.03 1558.86 1057.06 1558.7 1057.09C1558.54 1057.12 1558.35 1057.14 1558.12 1057.14C1557.81 1057.14 1557.52 1057.08 1557.26 1056.95C1557 1056.83 1556.8 1056.62 1556.64 1056.34C1556.49 1056.05 1556.42 1055.65 1556.42 1055.16V1047.81Z" fill="#434343"/>
</g>
</g>
<defs>
<clipPath id="clip0_1299_4410">
<rect width="1600" height="1080" fill="white"/>
</clipPath>
<clipPath id="clip1_1299_4410">
<rect width="1600" height="52" fill="white"/>
</clipPath>
<clipPath id="clip2_1299_4410">
<rect width="24" height="24" fill="white" transform="translate(12.5 12)"/>
</clipPath>
<clipPath id="clip3_1299_4410">
<rect width="24" height="24" fill="white" transform="translate(61 12)"/>
</clipPath>
<clipPath id="clip4_1299_4410">
<rect width="20" height="20" fill="white" transform="translate(1556 14)"/>
</clipPath>
<clipPath id="clip5_1299_4410">
<rect width="1600" height="1028" fill="white" transform="translate(0 52)"/>
</clipPath>
<clipPath id="clip6_1299_4410">
<rect width="134" height="36" fill="white" transform="translate(24 136)"/>
</clipPath>
<clipPath id="clip7_1299_4410">
<rect width="178" height="36" fill="white" transform="translate(182 136)"/>
</clipPath>
<clipPath id="clip8_1299_4410">
<rect width="154" height="36" fill="white" transform="translate(384 136)"/>
</clipPath>
<clipPath id="clip9_1299_4410">
<rect width="154" height="36" fill="white" transform="translate(562 136)"/>
</clipPath>
<clipPath id="clip10_1299_4410">
<rect width="460" height="44" fill="white" transform="translate(24 192)"/>
</clipPath>
<clipPath id="clip11_1299_4410">
<rect width="460" height="32" fill="white" transform="translate(500 192)"/>
</clipPath>
<clipPath id="clip12_1299_4410">
<rect width="32" height="32" fill="white" transform="translate(500 192)"/>
</clipPath>
<clipPath id="clip13_1299_4410">
<rect width="460" height="32" fill="white" transform="translate(976 192)"/>
</clipPath>
<clipPath id="clip14_1299_4410">
<rect width="32" height="32" fill="white" transform="translate(976 192)"/>
</clipPath>
<clipPath id="clip15_1299_4410">
<rect width="124" height="32" fill="white" transform="translate(1452 192)"/>
</clipPath>
<clipPath id="clip16_1299_4410">
<rect width="32" height="32" fill="white" transform="translate(1452 192)"/>
</clipPath>
<clipPath id="clip17_1299_4410">
<path d="M0 236H1600V480H0V236Z" fill="white"/>
</clipPath>
<clipPath id="clip18_1299_4410">
<rect width="1552" height="52" fill="white" transform="translate(24 328)"/>
</clipPath>
<clipPath id="clip19_1299_4410">
<rect width="1552" height="52" fill="white" transform="translate(24 404)"/>
</clipPath>
</defs>
</svg>
