<svg width="1600" height="1076" viewBox="0 0 1600 1076" fill="none" xmlns="http://www.w3.org/2000/svg">
<g clip-path="url(#clip0_1316_4209)">
<rect width="1600" height="1076" fill="white"/>
<g clip-path="url(#clip1_1316_4209)">
<mask id="path-1-inside-1_1316_4209" fill="white">
<path d="M0 0H1600V48H0V0Z"/>
</mask>
<path d="M0 0H1600V48H0V0Z" fill="white"/>
<mask id="path-3-inside-2_1316_4209" fill="white">
<path d="M0 0H49V48H0V0Z"/>
</mask>
<path d="M49 0H48V48H49H50V0H49Z" fill="#D7D7D7" mask="url(#path-3-inside-2_1316_4209)"/>
<g clip-path="url(#clip2_1316_4209)">
<path d="M24.5001 13.5C21.3501 13.5 18.2001 14.025 14.9751 15.075C14.9751 22.5 14.9751 30.3 24.5001 34.5C34.0251 30.3 34.0251 22.5 34.0251 15.075C30.8001 14.025 27.6501 13.5 24.5001 13.5ZM26.3751 24.9V29.325H22.5501V24.9H18.2001V21.075H22.6251V16.65H26.4501V21.075H30.8751V24.9H26.3751V24.9Z" fill="#DC0018"/>
</g>
<mask id="path-6-inside-3_1316_4209" fill="white">
<path d="M49 0H98V48H49V0Z"/>
</mask>
<path d="M98 0H97V48H98H99V0H98Z" fill="#D7D7D7" mask="url(#path-6-inside-3_1316_4209)"/>
<g clip-path="url(#clip3_1316_4209)">
<path d="M70.9053 18.5303L66.1855 23.25H82.375V24.75H66.1855L70.9053 29.4697L69.8447 30.5303L63.3145 24L69.8447 17.4697L70.9053 18.5303Z" fill="#212121"/>
</g>
<rect x="110" y="14" width="20" height="20" fill="#848484"/>
<rect x="142" y="18" width="100" height="12" fill="#848484"/>
<g clip-path="url(#clip4_1316_4209)">
<path d="M1572.25 24.3662V22.75H1571V24.625C1571 24.7907 1571.07 24.9497 1571.18 25.0669L1572.88 26.7588V27.75H1559.12V26.7588L1560.82 25.0669C1560.93 24.9497 1561 24.7907 1561 24.625V22.125C1561 21.2468 1561.23 20.3837 1561.67 19.6229C1562.11 18.8621 1562.74 18.2305 1563.5 17.792C1564.26 17.3534 1565.12 17.1233 1566 17.125C1566.88 17.1267 1567.74 17.3601 1568.5 17.8016V16.4042C1567.91 16.1408 1567.27 15.9729 1566.62 15.9068V14.625H1565.38V15.9068C1563.83 16.0635 1562.41 16.786 1561.37 17.9346C1560.33 19.0832 1559.75 20.5762 1559.75 22.125V24.3662L1558.06 26.0581C1557.94 26.1753 1557.88 26.3343 1557.88 26.5V28.375C1557.88 28.5408 1557.94 28.6997 1558.06 28.8169C1558.18 28.9342 1558.33 29 1558.5 29H1562.88V29.625C1562.88 30.4538 1563.2 31.2487 1563.79 31.8347C1564.38 32.4208 1565.17 32.75 1566 32.75C1566.83 32.75 1567.62 32.4208 1568.21 31.8347C1568.8 31.2487 1569.12 30.4538 1569.12 29.625V29H1573.5C1573.67 29 1573.82 28.9342 1573.94 28.8169C1574.06 28.6997 1574.12 28.5408 1574.12 28.375V26.5C1574.12 26.3343 1574.06 26.1753 1573.94 26.0581L1572.25 24.3662ZM1567.88 29.625C1567.88 30.1223 1567.68 30.5992 1567.33 30.9508C1566.97 31.3025 1566.5 31.5 1566 31.5C1565.5 31.5 1565.03 31.3025 1564.67 30.9508C1564.32 30.5992 1564.12 30.1223 1564.12 29.625V29H1567.88V29.625Z" fill="black"/>
<path d="M1572.25 21.5C1573.63 21.5 1574.75 20.3807 1574.75 19C1574.75 17.6193 1573.63 16.5 1572.25 16.5C1570.87 16.5 1569.75 17.6193 1569.75 19C1569.75 20.3807 1570.87 21.5 1572.25 21.5Z" fill="black"/>
</g>
</g>
<path d="M1600 48V44H0V48V52H1600V48Z" fill="#DC0018" mask="url(#path-1-inside-1_1316_4209)"/>
<g clip-path="url(#clip5_1316_4209)">
<mask id="path-13-inside-4_1316_4209" fill="white">
<path d="M0 64H1600V116H0V64Z"/>
</mask>
<path d="M0 64H1600V116H0V64Z" fill="white"/>
<path d="M1600 116V114H0V116V118H1600V116Z" fill="#D9D9D9" mask="url(#path-13-inside-4_1316_4209)"/>
<rect width="1600" height="52" transform="translate(0 64)" fill="white"/>
<rect width="1552" height="36" transform="translate(24 72)" fill="white"/>
<rect x="24" y="72" width="140" height="18" fill="#848484"/>
<rect width="1600" height="904" transform="translate(0 116)" fill="#F2F4F6"/>
<g clip-path="url(#clip6_1316_4209)">
<mask id="path-16-inside-5_1316_4209" fill="white">
<path d="M0 116H1600V360H0V116Z"/>
</mask>
<rect width="1600" height="60" transform="translate(0 116)" fill="#F2F4F6"/>
<rect x="24" y="140" width="110" height="12" fill="#C8C8C8"/>
<rect width="110" height="12" transform="translate(25 176)" fill="#D9D9D9"/>
<g clip-path="url(#clip7_1316_4209)">
<rect x="24" y="208" width="64" height="8" fill="#D9D9D9"/>
<rect x="24.5" y="224.5" width="159" height="35" fill="white"/>
<rect x="24.5" y="224.5" width="159" height="35" stroke="#C8C8C8"/>
<rect x="36" y="237" width="80" height="10" fill="#848484"/>
<rect x="418" y="208" width="64" height="8" fill="#D9D9D9"/>
<rect x="418.5" y="224.5" width="159" height="35" fill="white"/>
<rect x="418.5" y="224.5" width="159" height="35" stroke="#C8C8C8"/>
<rect x="430" y="237" width="80" height="10" fill="#848484"/>
<rect x="812" y="208" width="64" height="8" fill="#D9D9D9"/>
<rect x="812.5" y="224.5" width="159" height="35" fill="white"/>
<rect x="812.5" y="224.5" width="159" height="35" stroke="#C8C8C8"/>
<rect x="824" y="237" width="80" height="10" fill="#848484"/>
<rect x="1206" y="208" width="64" height="8" fill="#D9D9D9"/>
<rect x="1206.5" y="224.5" width="159" height="35" fill="white"/>
<rect x="1206.5" y="224.5" width="159" height="35" stroke="#C8C8C8"/>
<rect x="1218" y="237" width="80" height="10" fill="#848484"/>
</g>
<g clip-path="url(#clip8_1316_4209)">
<rect x="24" y="284" width="64" height="8" fill="#D9D9D9"/>
<rect x="24.5" y="300.5" width="159" height="35" fill="white"/>
<rect x="24.5" y="300.5" width="159" height="35" stroke="#C8C8C8"/>
<rect x="36" y="313" width="80" height="10" fill="#848484"/>
<rect x="812" y="284" width="64" height="8" fill="#D9D9D9"/>
<rect x="812.5" y="300.5" width="159" height="35" fill="white"/>
<rect x="812.5" y="300.5" width="159" height="35" stroke="#C8C8C8"/>
<rect x="824" y="313" width="80" height="10" fill="#848484"/>
</g>
</g>
<path d="M1600 360V359H0V360V361H1600V360Z" fill="#D7D7D7" mask="url(#path-16-inside-5_1316_4209)"/>
<rect width="1600" height="56" transform="translate(0 1020)" fill="white"/>
<rect x="1099.5" y="1030.5" width="96" height="35" fill="white"/>
<rect x="1099.5" y="1030.5" width="96" height="35" stroke="#006699"/>
<path d="M1121.9 1050.48C1121.9 1050.25 1121.86 1050.05 1121.79 1049.87C1121.72 1049.69 1121.6 1049.52 1121.42 1049.38C1121.25 1049.23 1121.01 1049.09 1120.7 1048.96C1120.39 1048.83 1120 1048.69 1119.53 1048.56C1119.04 1048.41 1118.6 1048.25 1118.2 1048.07C1117.8 1047.89 1117.47 1047.68 1117.18 1047.45C1116.9 1047.22 1116.68 1046.95 1116.53 1046.65C1116.38 1046.35 1116.31 1046 1116.31 1045.62C1116.31 1045.23 1116.39 1044.87 1116.55 1044.54C1116.71 1044.22 1116.93 1043.93 1117.23 1043.69C1117.53 1043.44 1117.89 1043.25 1118.3 1043.12C1118.72 1042.98 1119.18 1042.91 1119.69 1042.91C1120.44 1042.91 1121.07 1043.05 1121.59 1043.34C1122.12 1043.62 1122.51 1043.99 1122.79 1044.46C1123.06 1044.91 1123.2 1045.4 1123.2 1045.92H1121.89C1121.89 1045.54 1121.81 1045.21 1121.65 1044.93C1121.49 1044.64 1121.25 1044.41 1120.92 1044.24C1120.6 1044.07 1120.19 1043.99 1119.69 1043.99C1119.22 1043.99 1118.83 1044.06 1118.53 1044.2C1118.22 1044.34 1118 1044.53 1117.85 1044.78C1117.7 1045.02 1117.63 1045.29 1117.63 1045.6C1117.63 1045.81 1117.67 1046 1117.76 1046.18C1117.85 1046.35 1117.99 1046.5 1118.17 1046.65C1118.37 1046.8 1118.61 1046.93 1118.9 1047.05C1119.19 1047.18 1119.55 1047.29 1119.96 1047.41C1120.52 1047.57 1121.01 1047.75 1121.42 1047.94C1121.83 1048.14 1122.17 1048.36 1122.43 1048.6C1122.7 1048.85 1122.9 1049.12 1123.03 1049.43C1123.16 1049.74 1123.23 1050.08 1123.23 1050.47C1123.23 1050.88 1123.14 1051.24 1122.98 1051.57C1122.82 1051.9 1122.58 1052.18 1122.28 1052.41C1121.97 1052.64 1121.6 1052.82 1121.17 1052.95C1120.75 1053.08 1120.28 1053.14 1119.75 1053.14C1119.29 1053.14 1118.84 1053.07 1118.39 1052.95C1117.95 1052.82 1117.55 1052.63 1117.18 1052.37C1116.82 1052.12 1116.53 1051.8 1116.31 1051.43C1116.1 1051.05 1115.99 1050.61 1115.99 1050.12H1117.31C1117.31 1050.46 1117.37 1050.75 1117.5 1051C1117.64 1051.24 1117.82 1051.44 1118.04 1051.6C1118.28 1051.76 1118.54 1051.88 1118.83 1051.95C1119.13 1052.03 1119.43 1052.06 1119.75 1052.06C1120.21 1052.06 1120.6 1052 1120.92 1051.87C1121.24 1051.74 1121.48 1051.56 1121.65 1051.33C1121.82 1051.09 1121.9 1050.81 1121.9 1050.48ZM1129.08 1051.74V1047.93C1129.08 1047.64 1129.02 1047.38 1128.9 1047.17C1128.79 1046.95 1128.61 1046.78 1128.38 1046.66C1128.15 1046.54 1127.86 1046.49 1127.52 1046.49C1127.2 1046.49 1126.92 1046.54 1126.68 1046.65C1126.44 1046.76 1126.25 1046.9 1126.12 1047.08C1125.99 1047.26 1125.92 1047.45 1125.92 1047.65H1124.65C1124.65 1047.39 1124.72 1047.13 1124.86 1046.87C1125 1046.61 1125.19 1046.37 1125.45 1046.16C1125.71 1045.95 1126.02 1045.78 1126.38 1045.66C1126.74 1045.53 1127.15 1045.47 1127.59 1045.47C1128.13 1045.47 1128.61 1045.56 1129.02 1045.74C1129.43 1045.92 1129.75 1046.2 1129.99 1046.57C1130.22 1046.93 1130.34 1047.39 1130.34 1047.94V1051.39C1130.34 1051.63 1130.36 1051.89 1130.4 1052.17C1130.45 1052.45 1130.51 1052.69 1130.6 1052.89V1053H1129.28C1129.22 1052.85 1129.17 1052.66 1129.13 1052.42C1129.1 1052.17 1129.08 1051.94 1129.08 1051.74ZM1129.3 1048.52L1129.31 1049.4H1128.03C1127.67 1049.4 1127.35 1049.43 1127.07 1049.49C1126.78 1049.55 1126.55 1049.63 1126.36 1049.75C1126.17 1049.86 1126.02 1050 1125.92 1050.18C1125.82 1050.35 1125.77 1050.54 1125.77 1050.77C1125.77 1051 1125.82 1051.22 1125.93 1051.41C1126.03 1051.6 1126.19 1051.75 1126.4 1051.87C1126.61 1051.97 1126.87 1052.03 1127.18 1052.03C1127.57 1052.03 1127.91 1051.95 1128.21 1051.78C1128.51 1051.62 1128.74 1051.42 1128.91 1051.18C1129.09 1050.94 1129.19 1050.71 1129.2 1050.49L1129.74 1051.1C1129.71 1051.29 1129.62 1051.5 1129.48 1051.74C1129.34 1051.97 1129.15 1052.19 1128.91 1052.41C1128.68 1052.61 1128.4 1052.79 1128.08 1052.93C1127.76 1053.07 1127.4 1053.14 1127 1053.14C1126.5 1053.14 1126.06 1053.04 1125.68 1052.84C1125.31 1052.65 1125.01 1052.38 1124.8 1052.06C1124.6 1051.72 1124.5 1051.35 1124.5 1050.94C1124.5 1050.55 1124.57 1050.2 1124.73 1049.9C1124.88 1049.59 1125.11 1049.34 1125.4 1049.14C1125.69 1048.93 1126.04 1048.78 1126.45 1048.67C1126.86 1048.57 1127.32 1048.52 1127.83 1048.52H1129.3ZM1134.47 1051.86L1136.49 1045.6H1137.79L1135.13 1053H1134.28L1134.47 1051.86ZM1132.78 1045.6L1134.87 1051.89L1135.01 1053H1134.16L1131.48 1045.6H1132.78ZM1141.98 1053.14C1141.46 1053.14 1140.99 1053.05 1140.58 1052.88C1140.16 1052.7 1139.8 1052.45 1139.5 1052.13C1139.21 1051.81 1138.98 1051.43 1138.82 1051C1138.66 1050.56 1138.58 1050.08 1138.58 1049.56V1049.27C1138.58 1048.67 1138.67 1048.14 1138.85 1047.67C1139.02 1047.19 1139.26 1046.79 1139.57 1046.46C1139.88 1046.14 1140.22 1045.89 1140.61 1045.72C1141 1045.55 1141.4 1045.47 1141.81 1045.47C1142.34 1045.47 1142.8 1045.56 1143.18 1045.74C1143.57 1045.92 1143.88 1046.18 1144.13 1046.51C1144.38 1046.83 1144.56 1047.21 1144.68 1047.65C1144.8 1048.09 1144.85 1048.57 1144.85 1049.09V1049.66H1139.33V1048.62H1143.59V1048.53C1143.57 1048.2 1143.5 1047.88 1143.38 1047.57C1143.27 1047.26 1143.09 1047.01 1142.84 1046.81C1142.59 1046.61 1142.25 1046.51 1141.81 1046.51C1141.53 1046.51 1141.26 1046.57 1141.02 1046.69C1140.78 1046.81 1140.57 1046.99 1140.4 1047.22C1140.22 1047.46 1140.09 1047.75 1139.99 1048.09C1139.9 1048.43 1139.85 1048.83 1139.85 1049.27V1049.56C1139.85 1049.91 1139.9 1050.24 1139.99 1050.55C1140.09 1050.86 1140.24 1051.13 1140.42 1051.36C1140.62 1051.59 1140.85 1051.77 1141.12 1051.91C1141.39 1052.04 1141.7 1052.1 1142.04 1052.1C1142.49 1052.1 1142.87 1052.01 1143.18 1051.83C1143.49 1051.65 1143.76 1051.4 1143.99 1051.1L1144.76 1051.71C1144.6 1051.95 1144.4 1052.18 1144.15 1052.4C1143.9 1052.62 1143.6 1052.79 1143.24 1052.93C1142.89 1053.07 1142.46 1053.14 1141.98 1053.14ZM1152.69 1053H1150.61L1150.62 1051.93H1152.69C1153.4 1051.93 1153.99 1051.78 1154.47 1051.48C1154.94 1051.18 1155.3 1050.76 1155.53 1050.22C1155.77 1049.68 1155.89 1049.05 1155.89 1048.32V1047.72C1155.89 1047.15 1155.83 1046.64 1155.69 1046.2C1155.55 1045.75 1155.35 1045.38 1155.09 1045.07C1154.82 1044.76 1154.5 1044.53 1154.12 1044.37C1153.74 1044.21 1153.3 1044.13 1152.81 1044.13H1150.57V1043.05H1152.81C1153.46 1043.05 1154.06 1043.16 1154.6 1043.38C1155.13 1043.59 1155.6 1043.9 1155.98 1044.31C1156.38 1044.72 1156.68 1045.21 1156.89 1045.79C1157.1 1046.36 1157.2 1047.01 1157.2 1047.73V1048.32C1157.2 1049.04 1157.1 1049.69 1156.89 1050.27C1156.68 1050.85 1156.37 1051.34 1155.98 1051.74C1155.58 1052.15 1155.11 1052.46 1154.55 1052.68C1154 1052.89 1153.38 1053 1152.69 1053ZM1151.31 1043.05V1053H1150V1043.05H1151.31ZM1160.26 1046.77V1053H1158.99V1045.6H1160.22L1160.26 1046.77ZM1162.57 1045.56L1162.56 1046.74C1162.45 1046.72 1162.35 1046.7 1162.26 1046.7C1162.17 1046.69 1162.06 1046.68 1161.94 1046.68C1161.65 1046.68 1161.4 1046.73 1161.17 1046.82C1160.95 1046.91 1160.76 1047.04 1160.6 1047.2C1160.45 1047.37 1160.33 1047.56 1160.24 1047.79C1160.15 1048.01 1160.09 1048.26 1160.06 1048.53L1159.71 1048.73C1159.71 1048.29 1159.75 1047.87 1159.84 1047.48C1159.93 1047.08 1160.07 1046.74 1160.26 1046.44C1160.44 1046.13 1160.68 1045.9 1160.97 1045.73C1161.26 1045.55 1161.6 1045.47 1162.01 1045.47C1162.1 1045.47 1162.2 1045.48 1162.32 1045.5C1162.44 1045.52 1162.52 1045.54 1162.57 1045.56ZM1167.82 1051.74V1047.93C1167.82 1047.64 1167.76 1047.38 1167.65 1047.17C1167.53 1046.95 1167.36 1046.78 1167.13 1046.66C1166.89 1046.54 1166.61 1046.49 1166.26 1046.49C1165.95 1046.49 1165.67 1046.54 1165.42 1046.65C1165.19 1046.76 1165 1046.9 1164.86 1047.08C1164.73 1047.26 1164.67 1047.45 1164.67 1047.65H1163.4C1163.4 1047.39 1163.47 1047.13 1163.61 1046.87C1163.74 1046.61 1163.94 1046.37 1164.19 1046.16C1164.45 1045.95 1164.76 1045.78 1165.12 1045.66C1165.49 1045.53 1165.89 1045.47 1166.34 1045.47C1166.88 1045.47 1167.35 1045.56 1167.76 1045.74C1168.18 1045.92 1168.5 1046.2 1168.73 1046.57C1168.97 1046.93 1169.09 1047.39 1169.09 1047.94V1051.39C1169.09 1051.63 1169.11 1051.89 1169.15 1052.17C1169.19 1052.45 1169.26 1052.69 1169.35 1052.89V1053H1168.03C1167.96 1052.85 1167.91 1052.66 1167.88 1052.42C1167.84 1052.17 1167.82 1051.94 1167.82 1051.74ZM1168.04 1048.52L1168.06 1049.4H1166.78C1166.42 1049.4 1166.1 1049.43 1165.81 1049.49C1165.53 1049.55 1165.29 1049.63 1165.1 1049.75C1164.91 1049.86 1164.77 1050 1164.67 1050.18C1164.56 1050.35 1164.51 1050.54 1164.51 1050.77C1164.51 1051 1164.57 1051.22 1164.67 1051.41C1164.78 1051.6 1164.93 1051.75 1165.14 1051.87C1165.36 1051.97 1165.62 1052.03 1165.93 1052.03C1166.32 1052.03 1166.66 1051.95 1166.96 1051.78C1167.25 1051.62 1167.49 1051.42 1167.66 1051.18C1167.84 1050.94 1167.93 1050.71 1167.95 1050.49L1168.49 1051.1C1168.45 1051.29 1168.37 1051.5 1168.23 1051.74C1168.09 1051.97 1167.9 1052.19 1167.66 1052.41C1167.43 1052.61 1167.15 1052.79 1166.83 1052.93C1166.51 1053.07 1166.15 1053.14 1165.75 1053.14C1165.24 1053.14 1164.8 1053.04 1164.43 1052.84C1164.05 1052.65 1163.76 1052.38 1163.55 1052.06C1163.35 1051.72 1163.24 1051.35 1163.24 1050.94C1163.24 1050.55 1163.32 1050.2 1163.48 1049.9C1163.63 1049.59 1163.85 1049.34 1164.15 1049.14C1164.44 1048.93 1164.79 1048.78 1165.2 1048.67C1165.61 1048.57 1166.07 1048.52 1166.57 1048.52H1168.04ZM1172.96 1053H1171.7V1044.82C1171.7 1044.29 1171.79 1043.84 1171.99 1043.48C1172.18 1043.11 1172.46 1042.83 1172.83 1042.64C1173.19 1042.45 1173.62 1042.36 1174.13 1042.36C1174.27 1042.36 1174.42 1042.37 1174.56 1042.38C1174.71 1042.4 1174.86 1042.43 1175 1042.47L1174.93 1043.5C1174.84 1043.48 1174.73 1043.46 1174.6 1043.45C1174.49 1043.44 1174.37 1043.44 1174.25 1043.44C1173.98 1043.44 1173.75 1043.49 1173.55 1043.6C1173.36 1043.71 1173.21 1043.86 1173.11 1044.07C1173.01 1044.27 1172.96 1044.52 1172.96 1044.82V1053ZM1174.54 1045.6V1046.57H1170.53V1045.6H1174.54ZM1179.04 1045.6V1046.57H1175.04V1045.6H1179.04ZM1176.4 1043.81H1177.66V1051.17C1177.66 1051.42 1177.7 1051.61 1177.78 1051.74C1177.85 1051.86 1177.95 1051.95 1178.08 1051.99C1178.2 1052.03 1178.33 1052.05 1178.47 1052.05C1178.58 1052.05 1178.69 1052.04 1178.8 1052.02C1178.92 1052 1179.01 1051.98 1179.07 1051.97L1179.08 1053C1178.97 1053.03 1178.84 1053.06 1178.68 1053.09C1178.52 1053.12 1178.33 1053.14 1178.1 1053.14C1177.79 1053.14 1177.5 1053.08 1177.24 1052.95C1176.98 1052.83 1176.78 1052.62 1176.62 1052.34C1176.47 1052.05 1176.4 1051.65 1176.4 1051.16V1043.81Z" fill="#006699"/>
<rect x="1212.5" y="1030.5" width="74" height="35" fill="white"/>
<rect x="1212.5" y="1030.5" width="74" height="35" stroke="#006699"/>
<path d="M1235.35 1049.83H1236.66C1236.59 1050.46 1236.41 1051.03 1236.12 1051.52C1235.83 1052.02 1235.42 1052.41 1234.88 1052.71C1234.35 1052.99 1233.69 1053.14 1232.89 1053.14C1232.31 1053.14 1231.77 1053.03 1231.3 1052.81C1230.82 1052.59 1230.41 1052.28 1230.07 1051.88C1229.73 1051.47 1229.47 1050.99 1229.28 1050.42C1229.1 1049.85 1229.01 1049.22 1229.01 1048.52V1047.53C1229.01 1046.83 1229.1 1046.2 1229.28 1045.64C1229.47 1045.07 1229.73 1044.58 1230.08 1044.17C1230.43 1043.77 1230.85 1043.46 1231.34 1043.24C1231.84 1043.02 1232.39 1042.91 1233 1042.91C1233.76 1042.91 1234.39 1043.05 1234.91 1043.33C1235.43 1043.62 1235.83 1044.01 1236.12 1044.51C1236.41 1045.01 1236.59 1045.58 1236.66 1046.24H1235.35C1235.29 1045.77 1235.17 1045.38 1234.99 1045.04C1234.82 1044.71 1234.57 1044.45 1234.26 1044.26C1233.94 1044.08 1233.52 1043.99 1233 1043.99C1232.56 1043.99 1232.17 1044.07 1231.84 1044.24C1231.5 1044.41 1231.22 1044.65 1231 1044.96C1230.77 1045.27 1230.6 1045.64 1230.49 1046.08C1230.38 1046.51 1230.32 1046.99 1230.32 1047.52V1048.52C1230.32 1049.01 1230.37 1049.47 1230.47 1049.9C1230.57 1050.32 1230.73 1050.7 1230.94 1051.02C1231.15 1051.35 1231.42 1051.6 1231.74 1051.79C1232.06 1051.97 1232.45 1052.06 1232.89 1052.06C1233.45 1052.06 1233.9 1051.97 1234.23 1051.8C1234.56 1051.62 1234.81 1051.36 1234.98 1051.03C1235.15 1050.7 1235.28 1050.3 1235.35 1049.83ZM1242.63 1051.74V1047.93C1242.63 1047.64 1242.57 1047.38 1242.45 1047.17C1242.34 1046.95 1242.17 1046.78 1241.93 1046.66C1241.7 1046.54 1241.41 1046.49 1241.07 1046.49C1240.75 1046.49 1240.47 1046.54 1240.23 1046.65C1239.99 1046.76 1239.81 1046.9 1239.67 1047.08C1239.54 1047.26 1239.47 1047.45 1239.47 1047.65H1238.21C1238.21 1047.39 1238.28 1047.13 1238.41 1046.87C1238.55 1046.61 1238.74 1046.37 1239 1046.16C1239.26 1045.95 1239.57 1045.78 1239.93 1045.66C1240.29 1045.53 1240.7 1045.47 1241.15 1045.47C1241.68 1045.47 1242.16 1045.56 1242.57 1045.74C1242.98 1045.92 1243.31 1046.2 1243.54 1046.57C1243.78 1046.93 1243.89 1047.39 1243.89 1047.94V1051.39C1243.89 1051.63 1243.92 1051.89 1243.96 1052.17C1244 1052.45 1244.07 1052.69 1244.15 1052.89V1053H1242.83C1242.77 1052.85 1242.72 1052.66 1242.68 1052.42C1242.65 1052.17 1242.63 1051.94 1242.63 1051.74ZM1242.85 1048.52L1242.86 1049.4H1241.58C1241.22 1049.4 1240.9 1049.43 1240.62 1049.49C1240.34 1049.55 1240.1 1049.63 1239.91 1049.75C1239.72 1049.86 1239.57 1050 1239.47 1050.18C1239.37 1050.35 1239.32 1050.54 1239.32 1050.77C1239.32 1051 1239.37 1051.22 1239.48 1051.41C1239.58 1051.6 1239.74 1051.75 1239.95 1051.87C1240.16 1051.97 1240.43 1052.03 1240.74 1052.03C1241.12 1052.03 1241.47 1051.95 1241.76 1051.78C1242.06 1051.62 1242.29 1051.42 1242.47 1051.18C1242.64 1050.94 1242.74 1050.71 1242.75 1050.49L1243.29 1051.1C1243.26 1051.29 1243.17 1051.5 1243.03 1051.74C1242.89 1051.97 1242.7 1052.19 1242.47 1052.41C1242.23 1052.61 1241.96 1052.79 1241.63 1052.93C1241.31 1053.07 1240.95 1053.14 1240.55 1053.14C1240.05 1053.14 1239.61 1053.04 1239.23 1052.84C1238.86 1052.65 1238.57 1052.38 1238.36 1052.06C1238.15 1051.72 1238.05 1051.35 1238.05 1050.94C1238.05 1050.55 1238.13 1050.2 1238.28 1049.9C1238.44 1049.59 1238.66 1049.34 1238.95 1049.14C1239.24 1048.93 1239.59 1048.78 1240 1048.67C1240.42 1048.57 1240.87 1048.52 1241.38 1048.52H1242.85ZM1247.15 1047.18V1053H1245.88V1045.6H1247.08L1247.15 1047.18ZM1246.85 1049.02L1246.32 1049C1246.33 1048.5 1246.4 1048.03 1246.55 1047.6C1246.69 1047.17 1246.9 1046.79 1247.16 1046.47C1247.43 1046.15 1247.74 1045.91 1248.11 1045.73C1248.47 1045.56 1248.88 1045.47 1249.33 1045.47C1249.69 1045.47 1250.02 1045.52 1250.31 1045.62C1250.61 1045.71 1250.85 1045.87 1251.06 1046.08C1251.27 1046.3 1251.43 1046.57 1251.54 1046.92C1251.65 1047.25 1251.7 1047.67 1251.7 1048.15V1053H1250.43V1048.14C1250.43 1047.75 1250.37 1047.44 1250.26 1047.21C1250.14 1046.97 1249.98 1046.8 1249.76 1046.7C1249.54 1046.59 1249.27 1046.53 1248.95 1046.53C1248.64 1046.53 1248.35 1046.6 1248.09 1046.73C1247.84 1046.86 1247.62 1047.05 1247.43 1047.28C1247.25 1047.51 1247.1 1047.78 1247 1048.08C1246.9 1048.37 1246.85 1048.69 1246.85 1049.02ZM1256.58 1052.1C1256.88 1052.1 1257.16 1052.04 1257.42 1051.91C1257.67 1051.79 1257.88 1051.62 1258.04 1051.41C1258.21 1051.19 1258.3 1050.94 1258.33 1050.66H1259.53C1259.51 1051.1 1259.36 1051.51 1259.08 1051.89C1258.82 1052.26 1258.46 1052.56 1258.02 1052.79C1257.59 1053.02 1257.11 1053.14 1256.58 1053.14C1256.03 1053.14 1255.54 1053.04 1255.13 1052.84C1254.72 1052.65 1254.37 1052.38 1254.1 1052.04C1253.83 1051.69 1253.63 1051.3 1253.49 1050.86C1253.36 1050.41 1253.29 1049.94 1253.29 1049.45V1049.16C1253.29 1048.66 1253.36 1048.19 1253.49 1047.75C1253.63 1047.3 1253.83 1046.91 1254.1 1046.57C1254.37 1046.23 1254.72 1045.96 1255.13 1045.76C1255.54 1045.56 1256.03 1045.47 1256.58 1045.47C1257.16 1045.47 1257.67 1045.59 1258.1 1045.82C1258.53 1046.05 1258.87 1046.37 1259.12 1046.78C1259.37 1047.18 1259.51 1047.64 1259.53 1048.15H1258.33C1258.3 1047.84 1258.22 1047.57 1258.07 1047.32C1257.92 1047.07 1257.72 1046.88 1257.46 1046.73C1257.21 1046.58 1256.92 1046.51 1256.58 1046.51C1256.19 1046.51 1255.87 1046.58 1255.6 1046.74C1255.34 1046.89 1255.14 1047.09 1254.98 1047.35C1254.83 1047.61 1254.72 1047.89 1254.65 1048.21C1254.59 1048.52 1254.56 1048.83 1254.56 1049.16V1049.45C1254.56 1049.77 1254.59 1050.09 1254.65 1050.4C1254.72 1050.72 1254.83 1051 1254.98 1051.26C1255.13 1051.51 1255.34 1051.72 1255.6 1051.87C1255.86 1052.02 1256.19 1052.1 1256.58 1052.1ZM1264.02 1053.14C1263.5 1053.14 1263.04 1053.05 1262.62 1052.88C1262.2 1052.7 1261.85 1052.45 1261.54 1052.13C1261.25 1051.81 1261.02 1051.43 1260.86 1051C1260.7 1050.56 1260.62 1050.08 1260.62 1049.56V1049.27C1260.62 1048.67 1260.71 1048.14 1260.89 1047.67C1261.07 1047.19 1261.31 1046.79 1261.61 1046.46C1261.92 1046.14 1262.26 1045.89 1262.65 1045.72C1263.04 1045.55 1263.44 1045.47 1263.86 1045.47C1264.38 1045.47 1264.84 1045.56 1265.22 1045.74C1265.61 1045.92 1265.93 1046.18 1266.17 1046.51C1266.42 1046.83 1266.6 1047.21 1266.72 1047.65C1266.84 1048.09 1266.9 1048.57 1266.9 1049.09V1049.66H1261.37V1048.62H1265.63V1048.53C1265.61 1048.2 1265.55 1047.88 1265.43 1047.57C1265.31 1047.26 1265.13 1047.01 1264.88 1046.81C1264.63 1046.61 1264.29 1046.51 1263.86 1046.51C1263.57 1046.51 1263.3 1046.57 1263.06 1046.69C1262.82 1046.81 1262.61 1046.99 1262.44 1047.22C1262.27 1047.46 1262.13 1047.75 1262.04 1048.09C1261.94 1048.43 1261.89 1048.83 1261.89 1049.27V1049.56C1261.89 1049.91 1261.94 1050.24 1262.04 1050.55C1262.14 1050.86 1262.28 1051.13 1262.47 1051.36C1262.66 1051.59 1262.89 1051.77 1263.16 1051.91C1263.43 1052.04 1263.74 1052.1 1264.09 1052.1C1264.53 1052.1 1264.91 1052.01 1265.22 1051.83C1265.53 1051.65 1265.8 1051.4 1266.04 1051.1L1266.8 1051.71C1266.64 1051.95 1266.44 1052.18 1266.19 1052.4C1265.95 1052.62 1265.64 1052.79 1265.28 1052.93C1264.93 1053.07 1264.51 1053.14 1264.02 1053.14ZM1269.75 1042.5V1053H1268.48V1042.5H1269.75Z" fill="#006699"/>
<rect x="1303" y="1030" width="1" height="36" fill="#D7D7D7"/>
<rect width="86" height="36" transform="translate(1320 1030)" fill="#D9D9D9"/>
<path d="M1340.88 1049.1H1338.22V1048.02H1340.88C1341.39 1048.02 1341.81 1047.94 1342.13 1047.78C1342.45 1047.61 1342.68 1047.39 1342.83 1047.09C1342.98 1046.8 1343.05 1046.47 1343.05 1046.1C1343.05 1045.75 1342.98 1045.43 1342.83 1045.13C1342.68 1044.83 1342.45 1044.59 1342.13 1044.41C1341.81 1044.22 1341.39 1044.13 1340.88 1044.13H1338.53V1053H1337.21V1043.05H1340.88C1341.63 1043.05 1342.27 1043.18 1342.79 1043.44C1343.31 1043.7 1343.7 1044.06 1343.97 1044.52C1344.24 1044.97 1344.37 1045.49 1344.37 1046.08C1344.37 1046.72 1344.24 1047.26 1343.97 1047.72C1343.7 1048.17 1343.31 1048.51 1342.79 1048.75C1342.27 1048.98 1341.63 1049.1 1340.88 1049.1ZM1347.11 1046.77V1053H1345.85V1045.6H1347.08L1347.11 1046.77ZM1349.42 1045.56L1349.42 1046.74C1349.31 1046.72 1349.21 1046.7 1349.12 1046.7C1349.03 1046.69 1348.92 1046.68 1348.8 1046.68C1348.51 1046.68 1348.25 1046.73 1348.03 1046.82C1347.81 1046.91 1347.62 1047.04 1347.46 1047.2C1347.31 1047.37 1347.18 1047.56 1347.09 1047.79C1347.01 1048.01 1346.95 1048.26 1346.92 1048.53L1346.57 1048.73C1346.57 1048.29 1346.61 1047.87 1346.7 1047.48C1346.79 1047.08 1346.93 1046.74 1347.11 1046.44C1347.3 1046.13 1347.54 1045.9 1347.82 1045.73C1348.12 1045.55 1348.46 1045.47 1348.86 1045.47C1348.95 1045.47 1349.06 1045.48 1349.18 1045.5C1349.3 1045.52 1349.38 1045.54 1349.42 1045.56ZM1353.53 1053.14C1353.01 1053.14 1352.54 1053.05 1352.12 1052.88C1351.71 1052.7 1351.35 1052.45 1351.05 1052.13C1350.75 1051.81 1350.53 1051.43 1350.37 1051C1350.21 1050.56 1350.13 1050.08 1350.13 1049.56V1049.27C1350.13 1048.67 1350.22 1048.14 1350.39 1047.67C1350.57 1047.19 1350.81 1046.79 1351.12 1046.46C1351.42 1046.14 1351.77 1045.89 1352.16 1045.72C1352.55 1045.55 1352.95 1045.47 1353.36 1045.47C1353.89 1045.47 1354.35 1045.56 1354.73 1045.74C1355.12 1045.92 1355.43 1046.18 1355.68 1046.51C1355.92 1046.83 1356.11 1047.21 1356.23 1047.65C1356.34 1048.09 1356.4 1048.57 1356.4 1049.09V1049.66H1350.88V1048.62H1355.14V1048.53C1355.12 1048.2 1355.05 1047.88 1354.93 1047.57C1354.82 1047.26 1354.64 1047.01 1354.39 1046.81C1354.14 1046.61 1353.79 1046.51 1353.36 1046.51C1353.07 1046.51 1352.81 1046.57 1352.57 1046.69C1352.33 1046.81 1352.12 1046.99 1351.95 1047.22C1351.77 1047.46 1351.64 1047.75 1351.54 1048.09C1351.45 1048.43 1351.4 1048.83 1351.4 1049.27V1049.56C1351.4 1049.91 1351.45 1050.24 1351.54 1050.55C1351.64 1050.86 1351.79 1051.13 1351.97 1051.36C1352.17 1051.59 1352.4 1051.77 1352.66 1051.91C1352.94 1052.04 1353.25 1052.1 1353.59 1052.1C1354.04 1052.1 1354.42 1052.01 1354.73 1051.83C1355.04 1051.65 1355.31 1051.4 1355.54 1051.1L1356.31 1051.71C1356.15 1051.95 1355.95 1052.18 1355.7 1052.4C1355.45 1052.62 1355.15 1052.79 1354.79 1052.93C1354.43 1053.07 1354.01 1053.14 1353.53 1053.14ZM1360.03 1051.86L1362.06 1045.6H1363.35L1360.69 1053H1359.84L1360.03 1051.86ZM1358.34 1045.6L1360.43 1051.89L1360.57 1053H1359.73L1357.05 1045.6H1358.34ZM1365.94 1045.6V1053H1364.67V1045.6H1365.94ZM1364.57 1043.64C1364.57 1043.44 1364.63 1043.26 1364.76 1043.12C1364.88 1042.98 1365.07 1042.91 1365.32 1042.91C1365.56 1042.91 1365.74 1042.98 1365.87 1043.12C1366 1043.26 1366.07 1043.44 1366.07 1043.64C1366.07 1043.84 1366 1044.01 1365.87 1044.15C1365.74 1044.28 1365.56 1044.35 1365.32 1044.35C1365.07 1044.35 1364.88 1044.28 1364.76 1044.15C1364.63 1044.01 1364.57 1043.84 1364.57 1043.64ZM1367.63 1049.38V1049.23C1367.63 1048.69 1367.71 1048.2 1367.87 1047.74C1368.02 1047.28 1368.25 1046.88 1368.54 1046.55C1368.83 1046.21 1369.18 1045.94 1369.6 1045.75C1370.01 1045.56 1370.48 1045.47 1370.99 1045.47C1371.51 1045.47 1371.98 1045.56 1372.39 1045.75C1372.81 1045.94 1373.17 1046.21 1373.46 1046.55C1373.76 1046.88 1373.98 1047.28 1374.14 1047.74C1374.29 1048.2 1374.37 1048.69 1374.37 1049.23V1049.38C1374.37 1049.92 1374.29 1050.41 1374.14 1050.87C1373.98 1051.32 1373.76 1051.72 1373.46 1052.06C1373.17 1052.4 1372.81 1052.67 1372.4 1052.86C1371.99 1053.04 1371.52 1053.14 1371 1053.14C1370.49 1053.14 1370.02 1053.04 1369.6 1052.86C1369.19 1052.67 1368.83 1052.4 1368.54 1052.06C1368.25 1051.72 1368.02 1051.32 1367.87 1050.87C1367.71 1050.41 1367.63 1049.92 1367.63 1049.38ZM1368.9 1049.23V1049.38C1368.9 1049.75 1368.94 1050.1 1369.03 1050.43C1369.12 1050.75 1369.25 1051.04 1369.42 1051.29C1369.6 1051.54 1369.82 1051.74 1370.08 1051.89C1370.35 1052.03 1370.65 1052.1 1371 1052.1C1371.35 1052.1 1371.65 1052.03 1371.91 1051.89C1372.18 1051.74 1372.4 1051.54 1372.57 1051.29C1372.74 1051.04 1372.87 1050.75 1372.96 1050.43C1373.05 1050.1 1373.1 1049.75 1373.1 1049.38V1049.23C1373.1 1048.86 1373.05 1048.52 1372.96 1048.19C1372.87 1047.87 1372.74 1047.58 1372.56 1047.33C1372.39 1047.07 1372.17 1046.87 1371.91 1046.72C1371.65 1046.58 1371.34 1046.51 1370.99 1046.51C1370.64 1046.51 1370.34 1046.58 1370.08 1046.72C1369.82 1046.87 1369.6 1047.07 1369.42 1047.33C1369.25 1047.58 1369.12 1047.87 1369.03 1048.19C1368.94 1048.52 1368.9 1048.86 1368.9 1049.23ZM1380.48 1051.29V1045.6H1381.75V1053H1380.54L1380.48 1051.29ZM1380.72 1049.73L1381.25 1049.72C1381.25 1050.21 1381.19 1050.67 1381.09 1051.09C1380.99 1051.5 1380.82 1051.86 1380.6 1052.17C1380.37 1052.47 1380.07 1052.71 1379.7 1052.88C1379.33 1053.05 1378.88 1053.14 1378.35 1053.14C1377.99 1053.14 1377.66 1053.08 1377.36 1052.98C1377.07 1052.87 1376.81 1052.71 1376.6 1052.49C1376.38 1052.28 1376.22 1051.99 1376.1 1051.64C1375.98 1051.29 1375.93 1050.87 1375.93 1050.38V1045.6H1377.19V1050.39C1377.19 1050.72 1377.23 1051 1377.3 1051.22C1377.38 1051.43 1377.48 1051.6 1377.61 1051.73C1377.74 1051.85 1377.89 1051.94 1378.05 1051.99C1378.21 1052.04 1378.38 1052.06 1378.55 1052.06C1379.09 1052.06 1379.52 1051.96 1379.83 1051.76C1380.14 1051.55 1380.37 1051.27 1380.51 1050.92C1380.65 1050.56 1380.72 1050.17 1380.72 1049.73ZM1387.99 1051.04C1387.99 1050.86 1387.94 1050.69 1387.86 1050.53C1387.78 1050.37 1387.62 1050.23 1387.38 1050.1C1387.14 1049.97 1386.77 1049.86 1386.28 1049.76C1385.87 1049.67 1385.5 1049.57 1385.17 1049.45C1384.84 1049.33 1384.56 1049.19 1384.33 1049.02C1384.1 1048.85 1383.92 1048.65 1383.8 1048.43C1383.68 1048.2 1383.62 1047.93 1383.62 1047.63C1383.62 1047.34 1383.68 1047.06 1383.81 1046.8C1383.94 1046.54 1384.13 1046.31 1384.36 1046.11C1384.6 1045.91 1384.89 1045.75 1385.23 1045.64C1385.57 1045.52 1385.94 1045.47 1386.36 1045.47C1386.95 1045.47 1387.46 1045.57 1387.88 1045.78C1388.3 1045.99 1388.62 1046.27 1388.84 1046.62C1389.06 1046.97 1389.17 1047.35 1389.17 1047.78H1387.91C1387.91 1047.57 1387.85 1047.37 1387.73 1047.18C1387.61 1046.99 1387.43 1046.82 1387.2 1046.7C1386.97 1046.57 1386.69 1046.51 1386.36 1046.51C1386.01 1046.51 1385.72 1046.56 1385.5 1046.67C1385.29 1046.77 1385.13 1046.91 1385.03 1047.07C1384.94 1047.24 1384.89 1047.41 1384.89 1047.59C1384.89 1047.73 1384.91 1047.85 1384.96 1047.96C1385.01 1048.07 1385.09 1048.16 1385.22 1048.26C1385.34 1048.34 1385.51 1048.42 1385.74 1048.5C1385.96 1048.58 1386.24 1048.66 1386.59 1048.73C1387.2 1048.87 1387.7 1049.04 1388.09 1049.23C1388.48 1049.42 1388.77 1049.65 1388.96 1049.93C1389.15 1050.21 1389.25 1050.55 1389.25 1050.94C1389.25 1051.27 1389.18 1051.56 1389.04 1051.83C1388.91 1052.1 1388.72 1052.33 1388.46 1052.53C1388.21 1052.72 1387.91 1052.87 1387.56 1052.98C1387.22 1053.08 1386.83 1053.14 1386.39 1053.14C1385.74 1053.14 1385.19 1053.02 1384.74 1052.79C1384.29 1052.56 1383.95 1052.25 1383.71 1051.89C1383.48 1051.52 1383.36 1051.13 1383.36 1050.72H1384.64C1384.65 1051.06 1384.75 1051.34 1384.94 1051.54C1385.12 1051.74 1385.34 1051.89 1385.61 1051.97C1385.87 1052.06 1386.13 1052.1 1386.39 1052.1C1386.74 1052.1 1387.03 1052.05 1387.26 1051.96C1387.5 1051.87 1387.68 1051.74 1387.8 1051.58C1387.92 1051.43 1387.99 1051.24 1387.99 1051.04Z" fill="#434343"/>
<rect width="61" height="36" transform="translate(1422 1030)" fill="#D9D9D9"/>
<path d="M1446.84 1043.05V1053H1445.51L1440.5 1045.32V1053H1439.18V1043.05H1440.5L1445.53 1050.74V1043.05H1446.84ZM1452.06 1053.14C1451.54 1053.14 1451.07 1053.05 1450.65 1052.88C1450.24 1052.7 1449.88 1052.45 1449.58 1052.13C1449.28 1051.81 1449.06 1051.43 1448.9 1051C1448.74 1050.56 1448.66 1050.08 1448.66 1049.56V1049.27C1448.66 1048.67 1448.75 1048.14 1448.92 1047.67C1449.1 1047.19 1449.34 1046.79 1449.65 1046.46C1449.95 1046.14 1450.3 1045.89 1450.69 1045.72C1451.08 1045.55 1451.48 1045.47 1451.89 1045.47C1452.42 1045.47 1452.88 1045.56 1453.26 1045.74C1453.65 1045.92 1453.96 1046.18 1454.21 1046.51C1454.46 1046.83 1454.64 1047.21 1454.76 1047.65C1454.87 1048.09 1454.93 1048.57 1454.93 1049.09V1049.66H1449.41V1048.62H1453.67V1048.53C1453.65 1048.2 1453.58 1047.88 1453.46 1047.57C1453.35 1047.26 1453.17 1047.01 1452.92 1046.81C1452.67 1046.61 1452.32 1046.51 1451.89 1046.51C1451.6 1046.51 1451.34 1046.57 1451.1 1046.69C1450.86 1046.81 1450.65 1046.99 1450.48 1047.22C1450.3 1047.46 1450.17 1047.75 1450.07 1048.09C1449.98 1048.43 1449.93 1048.83 1449.93 1049.27V1049.56C1449.93 1049.91 1449.98 1050.24 1450.07 1050.55C1450.17 1050.86 1450.32 1051.13 1450.5 1051.36C1450.7 1051.59 1450.93 1051.77 1451.19 1051.91C1451.47 1052.04 1451.78 1052.1 1452.12 1052.1C1452.57 1052.1 1452.95 1052.01 1453.26 1051.83C1453.57 1051.65 1453.84 1051.4 1454.07 1051.1L1454.84 1051.71C1454.68 1051.95 1454.48 1052.18 1454.23 1052.4C1453.98 1052.62 1453.68 1052.79 1453.32 1052.93C1452.96 1053.07 1452.54 1053.14 1452.06 1053.14ZM1457.26 1045.6L1458.88 1048.3L1460.53 1045.6H1462.01L1459.59 1049.25L1462.08 1053H1460.62L1458.91 1050.22L1457.2 1053H1455.73L1458.22 1049.25L1455.81 1045.6H1457.26ZM1466.45 1045.6V1046.57H1462.45V1045.6H1466.45ZM1463.81 1043.81H1465.07V1051.17C1465.07 1051.42 1465.11 1051.61 1465.19 1051.74C1465.26 1051.86 1465.37 1051.95 1465.49 1051.99C1465.61 1052.03 1465.74 1052.05 1465.88 1052.05C1465.99 1052.05 1466.1 1052.04 1466.21 1052.02C1466.33 1052 1466.42 1051.98 1466.48 1051.97L1466.49 1053C1466.39 1053.03 1466.25 1053.06 1466.09 1053.09C1465.93 1053.12 1465.74 1053.14 1465.51 1053.14C1465.2 1053.14 1464.91 1053.08 1464.65 1052.95C1464.39 1052.83 1464.19 1052.62 1464.03 1052.34C1463.88 1052.05 1463.81 1051.65 1463.81 1051.16V1043.81Z" fill="#434343"/>
<rect width="77" height="36" transform="translate(1499 1030)" fill="#D9D9D9"/>
<path d="M1521.88 1050.48C1521.88 1050.25 1521.84 1050.05 1521.77 1049.87C1521.7 1049.69 1521.58 1049.52 1521.4 1049.38C1521.23 1049.23 1520.99 1049.09 1520.68 1048.96C1520.37 1048.83 1519.98 1048.69 1519.51 1048.56C1519.02 1048.41 1518.58 1048.25 1518.18 1048.07C1517.79 1047.89 1517.45 1047.68 1517.16 1047.45C1516.88 1047.22 1516.66 1046.95 1516.51 1046.65C1516.36 1046.35 1516.29 1046 1516.29 1045.62C1516.29 1045.23 1516.37 1044.87 1516.53 1044.54C1516.69 1044.22 1516.91 1043.93 1517.21 1043.69C1517.51 1043.44 1517.87 1043.25 1518.28 1043.12C1518.7 1042.98 1519.16 1042.91 1519.67 1042.91C1520.42 1042.91 1521.05 1043.05 1521.57 1043.34C1522.1 1043.62 1522.5 1043.99 1522.77 1044.46C1523.04 1044.91 1523.18 1045.4 1523.18 1045.92H1521.87C1521.87 1045.54 1521.79 1045.21 1521.63 1044.93C1521.47 1044.64 1521.23 1044.41 1520.9 1044.24C1520.58 1044.07 1520.17 1043.99 1519.67 1043.99C1519.2 1043.99 1518.82 1044.06 1518.51 1044.2C1518.2 1044.34 1517.98 1044.53 1517.83 1044.78C1517.68 1045.02 1517.61 1045.29 1517.61 1045.6C1517.61 1045.81 1517.65 1046 1517.74 1046.18C1517.83 1046.35 1517.97 1046.5 1518.15 1046.65C1518.35 1046.8 1518.59 1046.93 1518.88 1047.05C1519.18 1047.18 1519.53 1047.29 1519.94 1047.41C1520.5 1047.57 1520.99 1047.75 1521.4 1047.94C1521.81 1048.14 1522.15 1048.36 1522.41 1048.6C1522.68 1048.85 1522.88 1049.12 1523.01 1049.43C1523.14 1049.74 1523.21 1050.08 1523.21 1050.47C1523.21 1050.88 1523.12 1051.24 1522.96 1051.57C1522.8 1051.9 1522.56 1052.18 1522.26 1052.41C1521.95 1052.64 1521.58 1052.82 1521.16 1052.95C1520.73 1053.08 1520.26 1053.14 1519.73 1053.14C1519.27 1053.14 1518.82 1053.07 1518.37 1052.95C1517.93 1052.82 1517.53 1052.63 1517.16 1052.37C1516.8 1052.12 1516.51 1051.8 1516.29 1051.43C1516.08 1051.05 1515.97 1050.61 1515.97 1050.12H1517.29C1517.29 1050.46 1517.35 1050.75 1517.48 1051C1517.62 1051.24 1517.8 1051.44 1518.02 1051.6C1518.26 1051.76 1518.52 1051.88 1518.81 1051.95C1519.11 1052.03 1519.41 1052.06 1519.73 1052.06C1520.19 1052.06 1520.58 1052 1520.9 1051.87C1521.22 1051.74 1521.46 1051.56 1521.63 1051.33C1521.8 1051.09 1521.88 1050.81 1521.88 1050.48ZM1529.22 1051.29V1045.6H1530.49V1053H1529.28L1529.22 1051.29ZM1529.46 1049.73L1529.99 1049.72C1529.99 1050.21 1529.93 1050.67 1529.83 1051.09C1529.73 1051.5 1529.57 1051.86 1529.34 1052.17C1529.11 1052.47 1528.81 1052.71 1528.44 1052.88C1528.07 1053.05 1527.62 1053.14 1527.1 1053.14C1526.74 1053.14 1526.41 1053.08 1526.1 1052.98C1525.81 1052.87 1525.55 1052.71 1525.34 1052.49C1525.12 1052.28 1524.96 1051.99 1524.84 1051.64C1524.73 1051.29 1524.67 1050.87 1524.67 1050.38V1045.6H1525.93V1050.39C1525.93 1050.72 1525.97 1051 1526.04 1051.22C1526.12 1051.43 1526.22 1051.6 1526.35 1051.73C1526.48 1051.85 1526.63 1051.94 1526.79 1051.99C1526.95 1052.04 1527.12 1052.06 1527.29 1052.06C1527.83 1052.06 1528.26 1051.96 1528.57 1051.76C1528.89 1051.55 1529.11 1051.27 1529.25 1050.92C1529.39 1050.56 1529.46 1050.17 1529.46 1049.73ZM1532.41 1042.5H1533.69V1051.56L1533.58 1053H1532.41V1042.5ZM1538.68 1049.24V1049.38C1538.68 1049.92 1538.62 1050.42 1538.49 1050.88C1538.36 1051.34 1538.18 1051.73 1537.93 1052.07C1537.68 1052.41 1537.38 1052.67 1537.03 1052.86C1536.67 1053.04 1536.26 1053.14 1535.8 1053.14C1535.34 1053.14 1534.92 1053.06 1534.57 1052.9C1534.22 1052.73 1533.92 1052.5 1533.68 1052.19C1533.44 1051.89 1533.24 1051.52 1533.1 1051.09C1532.96 1050.65 1532.86 1050.17 1532.8 1049.62V1048.99C1532.86 1048.45 1532.96 1047.96 1533.1 1047.52C1533.24 1047.09 1533.44 1046.72 1533.68 1046.42C1533.92 1046.11 1534.22 1045.87 1534.57 1045.71C1534.92 1045.55 1535.33 1045.47 1535.79 1045.47C1536.26 1045.47 1536.67 1045.56 1537.03 1045.74C1537.39 1045.92 1537.69 1046.17 1537.93 1046.51C1538.18 1046.84 1538.36 1047.24 1538.49 1047.7C1538.62 1048.16 1538.68 1048.68 1538.68 1049.24ZM1537.41 1049.38V1049.24C1537.41 1048.87 1537.38 1048.52 1537.31 1048.2C1537.24 1047.87 1537.13 1047.59 1536.98 1047.34C1536.83 1047.09 1536.63 1046.89 1536.39 1046.75C1536.14 1046.61 1535.84 1046.53 1535.48 1046.53C1535.16 1046.53 1534.88 1046.59 1534.64 1046.7C1534.41 1046.81 1534.21 1046.95 1534.05 1047.14C1533.88 1047.32 1533.75 1047.53 1533.64 1047.77C1533.54 1048 1533.47 1048.24 1533.42 1048.5V1050.14C1533.49 1050.46 1533.61 1050.77 1533.77 1051.07C1533.94 1051.36 1534.17 1051.6 1534.44 1051.78C1534.73 1051.97 1535.08 1052.06 1535.49 1052.06C1535.83 1052.06 1536.12 1052 1536.37 1051.86C1536.61 1051.72 1536.81 1051.52 1536.96 1051.28C1537.11 1051.03 1537.23 1050.75 1537.3 1050.42C1537.37 1050.1 1537.41 1049.75 1537.41 1049.38ZM1541.54 1047.07V1053H1540.27V1045.6H1541.47L1541.54 1047.07ZM1541.28 1049.02L1540.69 1049C1540.7 1048.5 1540.76 1048.03 1540.89 1047.6C1541.02 1047.17 1541.21 1046.79 1541.46 1046.47C1541.71 1046.15 1542.02 1045.91 1542.39 1045.73C1542.77 1045.56 1543.2 1045.47 1543.69 1045.47C1544.04 1045.47 1544.36 1045.52 1544.65 1045.62C1544.94 1045.71 1545.19 1045.87 1545.41 1046.08C1545.62 1046.28 1545.79 1046.55 1545.91 1046.88C1546.03 1047.21 1546.09 1047.61 1546.09 1048.07V1053H1544.82V1048.13C1544.82 1047.75 1544.76 1047.44 1544.62 1047.2C1544.5 1046.97 1544.31 1046.8 1544.08 1046.7C1543.84 1046.59 1543.56 1046.53 1543.24 1046.53C1542.87 1046.53 1542.56 1046.6 1542.31 1046.73C1542.06 1046.86 1541.85 1047.05 1541.7 1047.28C1541.55 1047.51 1541.44 1047.78 1541.38 1048.08C1541.31 1048.37 1541.28 1048.69 1541.28 1049.02ZM1546.07 1048.32L1545.22 1048.58C1545.23 1048.18 1545.3 1047.79 1545.42 1047.42C1545.56 1047.04 1545.74 1046.71 1545.99 1046.42C1546.24 1046.13 1546.55 1045.9 1546.91 1045.73C1547.28 1045.55 1547.69 1045.47 1548.16 1045.47C1548.56 1045.47 1548.91 1045.52 1549.22 1045.62C1549.53 1045.73 1549.79 1045.89 1550 1046.11C1550.21 1046.32 1550.37 1046.6 1550.48 1046.94C1550.59 1047.27 1550.65 1047.67 1550.65 1048.14V1053H1549.37V1048.13C1549.37 1047.71 1549.31 1047.39 1549.18 1047.16C1549.05 1046.93 1548.87 1046.77 1548.63 1046.68C1548.4 1046.58 1548.12 1046.53 1547.79 1046.53C1547.52 1046.53 1547.27 1046.58 1547.06 1046.68C1546.84 1046.77 1546.66 1046.9 1546.52 1047.07C1546.37 1047.24 1546.26 1047.43 1546.18 1047.64C1546.11 1047.85 1546.07 1048.08 1546.07 1048.32ZM1553.93 1045.6V1053H1552.66V1045.6H1553.93ZM1552.57 1043.64C1552.57 1043.44 1552.63 1043.26 1552.75 1043.12C1552.88 1042.98 1553.07 1042.91 1553.31 1042.91C1553.55 1042.91 1553.74 1042.98 1553.87 1043.12C1554 1043.26 1554.06 1043.44 1554.06 1043.64C1554.06 1043.84 1554 1044.01 1553.87 1044.15C1553.74 1044.28 1553.55 1044.35 1553.31 1044.35C1553.07 1044.35 1552.88 1044.28 1552.75 1044.15C1552.63 1044.01 1552.57 1043.84 1552.57 1043.64ZM1559.06 1045.6V1046.57H1555.06V1045.6H1559.06ZM1556.42 1043.81H1557.68V1051.17C1557.68 1051.42 1557.72 1051.61 1557.8 1051.74C1557.87 1051.86 1557.97 1051.95 1558.1 1051.99C1558.22 1052.03 1558.35 1052.05 1558.49 1052.05C1558.6 1052.05 1558.71 1052.04 1558.82 1052.02C1558.94 1052 1559.03 1051.98 1559.09 1051.97L1559.09 1053C1558.99 1053.03 1558.86 1053.06 1558.7 1053.09C1558.54 1053.12 1558.35 1053.14 1558.12 1053.14C1557.81 1053.14 1557.52 1053.08 1557.26 1052.95C1557 1052.83 1556.8 1052.62 1556.64 1052.34C1556.49 1052.05 1556.42 1051.65 1556.42 1051.16V1043.81Z" fill="#434343"/>
</g>
</g>
<defs>
<clipPath id="clip0_1316_4209">
<rect width="1600" height="1076" fill="white"/>
</clipPath>
<clipPath id="clip1_1316_4209">
<path d="M0 0H1600V48H0V0Z" fill="white"/>
</clipPath>
<clipPath id="clip2_1316_4209">
<rect width="24" height="24" fill="white" transform="translate(12.5 12)"/>
</clipPath>
<clipPath id="clip3_1316_4209">
<rect width="24" height="24" fill="white" transform="translate(61 12)"/>
</clipPath>
<clipPath id="clip4_1316_4209">
<rect width="20" height="20" fill="white" transform="translate(1556 14)"/>
</clipPath>
<clipPath id="clip5_1316_4209">
<rect width="1600" height="1028" fill="white" transform="translate(0 48)"/>
</clipPath>
<clipPath id="clip6_1316_4209">
<path d="M0 116H1600V360H0V116Z" fill="white"/>
</clipPath>
<clipPath id="clip7_1316_4209">
<rect width="1552" height="52" fill="white" transform="translate(24 208)"/>
</clipPath>
<clipPath id="clip8_1316_4209">
<rect width="1552" height="52" fill="white" transform="translate(24 284)"/>
</clipPath>
</defs>
</svg>
