<?xml version="1.0" encoding="utf-8"?>
<!-- Generator: Adobe Illustrator 24.2.3, SVG Export Plug-In . SVG Version: 6.00 Build 0)  -->
<svg version="1.1" id="Ebene_1" xmlns="http://www.w3.org/2000/svg" xmlns:xlink="http://www.w3.org/1999/xlink" x="0px" y="0px"
	 viewBox="0 0 475 121.5" style="enable-background:new 0 0 475 121.5;" xml:space="preserve">
<style type="text/css">
	.st0{fill:#FF0000;}
	.st1{fill:#171717;}
</style>
<path class="st0" d="M60,121.5V90h31.5v31.5H60z"/>
<polygon class="st0" points="0,0 0,90 60,90 60,63 90,63 90,0 "/>
<g>
	<path class="st1" d="M190.2,69.3c-1.3,4.3-3.2,7.8-5.8,10.6l8.5,8l-8.1,8.4l-8.9-8.4c-2.7,1.6-5.1,2.8-7,3.5
		c-3.3,1.1-7.3,1.7-11.9,1.7c-9.7,0-17.7-2.9-24-8.7c-7.7-6.9-11.5-17.1-11.5-30.6c0-13.5,3.9-23.8,11.8-30.7
		c6.4-5.7,14.4-8.5,23.9-8.5c9.6,0,17.6,3,24.1,9c7.5,6.9,11.3,16.6,11.3,29.1C192.6,59.3,191.8,64.9,190.2,69.3z M162.1,79.3
		c0.9-0.2,2.1-0.7,3.5-1.3l-7.5-7.1l8-8.3l7.5,7.1c1.2-2.4,2-4.5,2.5-6.3c0.7-2.7,1.1-5.9,1.1-9.5c0-8.3-1.7-14.7-5.1-19.3
		c-3.4-4.5-8.4-6.8-14.9-6.8c-6.1,0-11,2.2-14.7,6.5c-3.7,4.4-5.5,10.9-5.5,19.6c0,10.2,2.6,17.4,7.8,21.8c3.4,2.9,7.4,4.3,12.2,4.3
		C158.8,79.9,160.5,79.7,162.1,79.3z"/>
	<path class="st1" d="M212.4,36.2v33c0,3.1,0.4,5.5,1.1,7c1.3,2.8,3.9,4.2,7.7,4.2c4.9,0,8.2-2,10-5.9c0.9-2.1,1.4-5,1.4-8.5V36.2
		h14.5V91h-13.9v-7.7c-0.1,0.2-0.5,0.7-1,1.5s-1.2,1.6-1.9,2.2c-2.2,2-4.4,3.4-6.5,4.1s-4.5,1.1-7.3,1.1c-8.1,0-13.5-2.9-16.3-8.8
		c-1.6-3.2-2.4-8-2.4-14.2v-33H212.4z"/>
	<path class="st1" d="M276.6,57.7c2.7-0.3,4.6-0.8,5.7-1.3c2.1-0.9,3.1-2.2,3.1-4.1c0-2.2-0.8-3.8-2.4-4.7c-1.6-0.9-3.9-1.3-7-1.3
		c-3.4,0-5.9,0.8-7.3,2.5c-1,1.2-1.7,2.9-2,5H253c0.3-4.8,1.6-8.7,4-11.8c3.8-4.8,10.3-7.2,19.6-7.2c6,0,11.4,1.2,16.1,3.6
		c4.7,2.4,7,6.9,7,13.5v25.1c0,1.7,0,3.9,0.1,6.3c0.1,1.9,0.4,3.2,0.9,3.8c0.5,0.7,1.2,1.2,2.1,1.7V91h-15.6
		c-0.4-1.1-0.7-2.1-0.9-3.1c-0.2-1-0.3-2.1-0.4-3.3c-2,2.1-4.3,4-6.9,5.5c-3.1,1.8-6.6,2.7-10.5,2.7c-5,0-9.1-1.4-12.4-4.2
		c-3.3-2.8-4.9-6.8-4.9-12c0-6.7,2.6-11.6,7.9-14.6c2.9-1.6,7.1-2.8,12.7-3.5L276.6,57.7z M285.4,64.3c-0.9,0.6-1.8,1-2.8,1.4
		c-0.9,0.4-2.2,0.7-3.8,1l-3.3,0.6c-3.1,0.5-5.3,1.2-6.6,2c-2.3,1.3-3.4,3.3-3.4,6.1c0,2.4,0.7,4.2,2.1,5.3c1.4,1.1,3.1,1.6,5,1.6
		c3.1,0,6-0.9,8.7-2.7c2.6-1.8,4-5.1,4.1-9.9V64.3z"/>
	<path class="st1" d="M337.1,37.1c2.6,1.5,4.7,3.5,6.3,6.1V17h14.5v74H344v-7.6c-2,3.3-4.4,5.6-7,7.1c-2.6,1.5-5.9,2.2-9.8,2.2
		c-6.4,0-11.8-2.6-16.2-7.8c-4.4-5.2-6.6-11.8-6.6-19.9c0-9.4,2.2-16.7,6.5-22.1c4.3-5.4,10.1-8,17.3-8
		C331.6,34.9,334.5,35.6,337.1,37.1z M340.6,76.1c2.1-3,3.2-6.9,3.2-11.7c0-6.7-1.7-11.5-5.1-14.4c-2.1-1.7-4.5-2.6-7.2-2.6
		c-4.2,0-7.3,1.6-9.2,4.8c-2,3.2-2.9,7.1-2.9,11.8c0,5.1,1,9.1,3,12.1c2,3,5,4.6,9.1,4.6C335.4,80.6,338.5,79.1,340.6,76.1z"/>
	<path class="st1" d="M396.3,34.9c0.2,0,0.6,0,1.2,0.1v14.7c-0.9-0.1-1.7-0.2-2.4-0.2c-0.7,0-1.3-0.1-1.7-0.1
		c-5.8,0-9.6,1.9-11.6,5.6c-1.1,2.1-1.7,5.4-1.7,9.8V91h-14.4V36.2h13.7v9.6c2.2-3.7,4.1-6.2,5.8-7.5c2.7-2.2,6.2-3.4,10.5-3.4
		C395.9,34.9,396.1,34.9,396.3,34.9z"/>
	<path class="st1" d="M436.5,37.3c3.8,1.7,7,4.4,9.5,8.1c2.2,3.3,3.7,7,4.4,11.3c0.4,2.5,0.5,6.1,0.5,10.9h-39.9
		c0.2,5.5,2.1,9.4,5.7,11.6c2.2,1.4,4.8,2.1,7.9,2.1c3.3,0,5.9-0.8,8-2.5c1.1-0.9,2.1-2.2,3-3.8H450c-0.4,3.3-2.2,6.6-5.3,9.9
		c-4.9,5.3-11.8,8-20.6,8c-7.3,0-13.7-2.2-19.3-6.7c-5.6-4.5-8.4-11.8-8.4-21.9c0-9.5,2.5-16.8,7.6-21.8c5-5.1,11.6-7.6,19.6-7.6
		C428.4,34.7,432.7,35.6,436.5,37.3z M415,49.7c-2,2.1-3.3,4.9-3.8,8.5h24.7c-0.3-3.8-1.5-6.7-3.8-8.7s-5.1-3-8.5-3
		C419.9,46.5,417.1,47.6,415,49.7z"/>
	<path class="st1" d="M469.5,91h-14.3V16.9h14.3V91z"/>
</g>
</svg>
