<svg width="1362" height="416" viewBox="0 0 1362 416" fill="none" xmlns="http://www.w3.org/2000/svg">
<g clip-path="url(#clip0_1292_4019)">
<rect x="0.5" y="54.5" width="59" height="59" rx="29.5" fill="white"/>
<rect x="0.5" y="54.5" width="59" height="59" rx="29.5" stroke="#979797"/>
<path d="M20.4929 82.2827C20.4588 81.9389 20.3125 81.6719 20.054 81.4815C19.7955 81.2912 19.4446 81.196 19.0014 81.196C18.7003 81.196 18.446 81.2386 18.2386 81.3239C18.0313 81.4062 17.8722 81.5213 17.7614 81.669C17.6534 81.8168 17.5994 81.9844 17.5994 82.1719C17.5938 82.3281 17.6264 82.4645 17.6974 82.581C17.7713 82.6974 17.8722 82.7983 18 82.8835C18.1278 82.9659 18.2756 83.0384 18.4432 83.1009C18.6108 83.1605 18.7898 83.2116 18.9801 83.2543L19.7642 83.4418C20.1449 83.527 20.4943 83.6406 20.8125 83.7827C21.1307 83.9247 21.4063 84.0994 21.6392 84.3068C21.8722 84.5142 22.0526 84.7585 22.1804 85.0398C22.3111 85.321 22.3778 85.6435 22.3807 86.0071C22.3778 86.5412 22.2415 87.0043 21.9716 87.3963C21.7045 87.7855 21.3182 88.0881 20.8125 88.304C20.3097 88.517 19.7031 88.6236 18.9929 88.6236C18.2884 88.6236 17.6747 88.5156 17.152 88.2997C16.6321 88.0838 16.2259 87.7642 15.9332 87.3409C15.6435 86.9148 15.4915 86.3878 15.4773 85.7599H17.2628C17.2827 86.0526 17.3665 86.2969 17.5142 86.4929C17.6648 86.6861 17.8651 86.8324 18.1151 86.9318C18.3679 87.0284 18.6534 87.0767 18.9716 87.0767C19.2841 87.0767 19.5554 87.0312 19.7855 86.9403C20.0185 86.8494 20.1989 86.723 20.3267 86.5611C20.4545 86.3991 20.5185 86.2131 20.5185 86.0028C20.5185 85.8068 20.4602 85.642 20.3438 85.5085C20.2301 85.375 20.0625 85.2614 19.8409 85.1676C19.6222 85.0739 19.3537 84.9886 19.0355 84.9119L18.0852 84.6733C17.3494 84.4943 16.7685 84.2145 16.3423 83.8338C15.9162 83.4531 15.7045 82.9403 15.7074 82.2955C15.7045 81.767 15.8452 81.3054 16.1293 80.9105C16.4162 80.5156 16.8097 80.2074 17.3097 79.9858C17.8097 79.7642 18.3778 79.6534 19.0142 79.6534C19.6619 79.6534 20.2273 79.7642 20.7102 79.9858C21.196 80.2074 21.5739 80.5156 21.8438 80.9105C22.1136 81.3054 22.2528 81.7628 22.2614 82.2827H20.4929ZM27.0692 81.9545V83.3182H23.1275V81.9545H27.0692ZM24.0224 80.3864H25.8377V86.4886C25.8377 86.6562 25.8633 86.7869 25.9144 86.8807C25.9656 86.9716 26.0366 87.0355 26.1275 87.0724C26.2212 87.1094 26.3292 87.1278 26.4513 87.1278C26.5366 87.1278 26.6218 87.1207 26.707 87.1065C26.7923 87.0895 26.8576 87.0767 26.9031 87.0682L27.1886 88.419C27.0977 88.4474 26.9698 88.4801 26.805 88.517C26.6403 88.5568 26.44 88.581 26.2042 88.5895C25.7667 88.6065 25.3832 88.5483 25.0536 88.4148C24.7269 88.2812 24.4727 88.0739 24.2908 87.7926C24.109 87.5114 24.0195 87.1562 24.0224 86.7273V80.3864ZM30.1183 88.6236C29.7006 88.6236 29.3285 88.5511 29.0018 88.4062C28.6751 88.2585 28.4165 88.0412 28.2262 87.7543C28.0387 87.4645 27.945 87.1037 27.945 86.6719C27.945 86.3082 28.0117 86.0028 28.1452 85.7557C28.2788 85.5085 28.4606 85.3097 28.6907 85.1591C28.9208 85.0085 29.1822 84.8949 29.4748 84.8182C29.7702 84.7415 30.0799 84.6875 30.4038 84.6562C30.7844 84.6165 31.0913 84.5795 31.3242 84.5455C31.5572 84.5085 31.7262 84.4545 31.8313 84.3835C31.9364 84.3125 31.989 84.2074 31.989 84.0682V84.0426C31.989 83.7727 31.9038 83.5639 31.7333 83.4162C31.5657 83.2685 31.3271 83.1946 31.0174 83.1946C30.6907 83.1946 30.4308 83.267 30.2376 83.4119C30.0444 83.554 29.9165 83.733 29.854 83.9489L28.1751 83.8125C28.2603 83.4148 28.4279 83.071 28.6779 82.7812C28.9279 82.4886 29.2504 82.2642 29.6452 82.108C30.043 81.9489 30.5032 81.8693 31.0259 81.8693C31.3896 81.8693 31.7376 81.9119 32.07 81.9972C32.4052 82.0824 32.7021 82.2145 32.9606 82.3935C33.2219 82.5724 33.4279 82.8026 33.5785 83.0838C33.729 83.3622 33.8043 83.696 33.8043 84.0852V88.5H32.0827V87.5923H32.0316C31.9265 87.7969 31.7859 87.9773 31.6097 88.1335C31.4336 88.2869 31.2219 88.4077 30.9748 88.4957C30.7276 88.581 30.4421 88.6236 30.1183 88.6236ZM30.6381 87.3707C30.9052 87.3707 31.141 87.3182 31.3455 87.2131C31.5501 87.1051 31.7106 86.9602 31.8271 86.7784C31.9435 86.5966 32.0018 86.3906 32.0018 86.1605V85.4659C31.945 85.5028 31.8668 85.5369 31.7674 85.5682C31.6708 85.5966 31.5614 85.6236 31.4393 85.6491C31.3171 85.6719 31.195 85.6932 31.0728 85.7131C30.9506 85.7301 30.8398 85.7457 30.7404 85.7599C30.5273 85.7912 30.3413 85.8409 30.1822 85.9091C30.0231 85.9773 29.8995 86.0696 29.8114 86.1861C29.7234 86.2997 29.6793 86.4418 29.6793 86.6122C29.6793 86.8594 29.7688 87.0483 29.9478 87.179C30.1296 87.3068 30.3597 87.3707 30.6381 87.3707ZM35.2127 88.5V81.9545H36.9727V83.0966H37.0408C37.1602 82.6903 37.3604 82.3835 37.6417 82.1761C37.9229 81.9659 38.2468 81.8608 38.6133 81.8608C38.7042 81.8608 38.8022 81.8665 38.9073 81.8778C39.0124 81.8892 39.1048 81.9048 39.1843 81.9247V83.5355C39.0991 83.5099 38.9812 83.4872 38.8306 83.4673C38.68 83.4474 38.5423 83.4375 38.4173 83.4375C38.1502 83.4375 37.9116 83.4957 37.7013 83.6122C37.494 83.7259 37.3292 83.8849 37.207 84.0895C37.0877 84.294 37.0281 84.5298 37.0281 84.7969V88.5H35.2127ZM43.9325 81.9545V83.3182H39.9908V81.9545H43.9325ZM40.8857 80.3864H42.701V86.4886C42.701 86.6562 42.7266 86.7869 42.7777 86.8807C42.8288 86.9716 42.8999 87.0355 42.9908 87.0724C43.0845 87.1094 43.1925 87.1278 43.3146 87.1278C43.3999 87.1278 43.4851 87.1207 43.5703 87.1065C43.6555 87.0895 43.7209 87.0767 43.7663 87.0682L44.0518 88.419C43.9609 88.4474 43.8331 88.4801 43.6683 88.517C43.5036 88.5568 43.3033 88.581 43.0675 88.5895C42.63 88.6065 42.2464 88.5483 41.9169 88.4148C41.5902 88.2812 41.3359 88.0739 41.1541 87.7926C40.9723 87.5114 40.8828 87.1562 40.8857 86.7273V80.3864Z" fill="#848484"/>
</g>
<path d="M56 84C56 86.2091 57.7909 88 60 88C62.2091 88 64 86.2091 64 84C64 81.7909 62.2091 80 60 80C57.7909 80 56 81.7909 56 84ZM123 84L115.5 79.6699V88.3301L123 84ZM60 84V84.75H116.25V84V83.25H60V84Z" fill="#848484"/>
<path d="M56 84C56 86.2091 57.7909 88 60 88C62.2091 88 64 86.2091 64 84C64 81.7909 62.2091 80 60 80C57.7909 80 56 81.7909 56 84ZM123 84L115.5 79.6699V88.3301L123 84ZM60 84V84.75H116.25V84V83.25H60V84Z" fill="#848484"/>
<rect x="426.5" y="54.5" width="71" height="71" rx="7.5" fill="white"/>
<rect x="426.5" y="54.5" width="71" height="71" rx="7.5" stroke="#979797"/>
<path d="M457.093 70.2727V79H456.07L451.314 72.1477H451.229V79H450.172V70.2727H451.195L455.968 77.142H456.053V70.2727H457.093ZM461.815 79.1364C461.184 79.1364 460.64 78.9972 460.183 78.7188C459.729 78.4375 459.378 78.0455 459.131 77.5426C458.886 77.0369 458.764 76.4489 458.764 75.7784C458.764 75.108 458.886 74.517 459.131 74.0057C459.378 73.4915 459.721 73.0909 460.162 72.804C460.605 72.5142 461.122 72.3693 461.713 72.3693C462.054 72.3693 462.39 72.4261 462.723 72.5398C463.055 72.6534 463.358 72.8381 463.631 73.0938C463.903 73.3466 464.121 73.6818 464.282 74.0994C464.444 74.517 464.525 75.0312 464.525 75.642V76.0682H459.48V75.1989H463.503C463.503 74.8295 463.429 74.5 463.281 74.2102C463.136 73.9205 462.929 73.6918 462.659 73.5241C462.392 73.3565 462.077 73.2727 461.713 73.2727C461.312 73.2727 460.966 73.3722 460.673 73.571C460.383 73.767 460.16 74.0227 460.004 74.3381C459.848 74.6534 459.77 74.9915 459.77 75.3523V75.9318C459.77 76.4261 459.855 76.8452 460.025 77.1889C460.199 77.5298 460.439 77.7898 460.746 77.9688C461.052 78.1449 461.409 78.233 461.815 78.233C462.079 78.233 462.318 78.196 462.531 78.1222C462.747 78.0455 462.933 77.9318 463.089 77.7812C463.246 77.6278 463.366 77.4375 463.452 77.2102L464.423 77.483C464.321 77.8125 464.149 78.1023 463.907 78.3523C463.666 78.5994 463.368 78.7926 463.013 78.9318C462.657 79.0682 462.258 79.1364 461.815 79.1364ZM467.538 79L465.544 72.4545H466.601L468.015 77.4659H468.084L469.481 72.4545H470.555L471.936 77.4489H472.004L473.419 72.4545H474.476L472.481 79H471.493L470.061 73.9716H469.959L468.527 79H467.538ZM437.838 94V85.2727H440.889C441.497 85.2727 441.999 85.3778 442.393 85.5881C442.788 85.7955 443.082 86.0753 443.276 86.4276C443.469 86.777 443.565 87.1648 443.565 87.5909C443.565 87.9659 443.499 88.2756 443.365 88.5199C443.234 88.7642 443.061 88.9574 442.845 89.0994C442.632 89.2415 442.401 89.3466 442.151 89.4148V89.5C442.418 89.517 442.686 89.6108 442.956 89.7812C443.226 89.9517 443.452 90.196 443.634 90.5142C443.815 90.8324 443.906 91.2216 443.906 91.6818C443.906 92.1193 443.807 92.5128 443.608 92.8622C443.409 93.2116 443.095 93.4886 442.666 93.6932C442.237 93.8977 441.679 94 440.991 94H437.838ZM438.895 93.0625H440.991C441.682 93.0625 442.172 92.929 442.462 92.6619C442.754 92.392 442.901 92.0653 442.901 91.6818C442.901 91.3864 442.825 91.1136 442.675 90.8636C442.524 90.6108 442.31 90.4091 442.031 90.2585C441.753 90.1051 441.423 90.0284 441.043 90.0284H438.895V93.0625ZM438.895 89.108H440.855C441.173 89.108 441.46 89.0455 441.716 88.9205C441.974 88.7955 442.179 88.6193 442.33 88.392C442.483 88.1648 442.56 87.8977 442.56 87.5909C442.56 87.2074 442.426 86.8821 442.159 86.6151C441.892 86.3452 441.469 86.2102 440.889 86.2102H438.895V89.108ZM449.631 91.3239V87.4545H450.637V94H449.631V92.892H449.563C449.41 93.2244 449.171 93.5071 448.847 93.7401C448.523 93.9702 448.114 94.0852 447.62 94.0852C447.211 94.0852 446.847 93.9957 446.529 93.8168C446.211 93.6349 445.961 93.3622 445.779 92.9986C445.597 92.6321 445.506 92.1705 445.506 91.6136V87.4545H446.512V91.5455C446.512 92.0227 446.646 92.4034 446.913 92.6875C447.183 92.9716 447.526 93.1136 447.944 93.1136C448.194 93.1136 448.448 93.0497 448.707 92.9219C448.968 92.794 449.187 92.598 449.363 92.3338C449.542 92.0696 449.631 91.733 449.631 91.3239ZM457.115 88.9205L456.212 89.1761C456.155 89.0256 456.071 88.8793 455.961 88.7372C455.853 88.5923 455.705 88.473 455.517 88.3793C455.33 88.2855 455.09 88.2386 454.797 88.2386C454.397 88.2386 454.063 88.331 453.796 88.5156C453.532 88.6974 453.4 88.929 453.4 89.2102C453.4 89.4602 453.49 89.6577 453.672 89.8026C453.854 89.9474 454.138 90.0682 454.525 90.1648L455.496 90.4034C456.081 90.5455 456.517 90.7628 456.804 91.0554C457.091 91.3452 457.235 91.7187 457.235 92.1761C457.235 92.5511 457.127 92.8864 456.911 93.1818C456.698 93.4773 456.4 93.7102 456.016 93.8807C455.632 94.0511 455.186 94.1364 454.678 94.1364C454.01 94.1364 453.458 93.9915 453.02 93.7017C452.583 93.4119 452.306 92.9886 452.189 92.4318L453.144 92.1932C453.235 92.5455 453.407 92.8097 453.659 92.9858C453.915 93.1619 454.249 93.25 454.661 93.25C455.13 93.25 455.502 93.1506 455.777 92.9517C456.056 92.75 456.195 92.5085 456.195 92.2273C456.195 92 456.115 91.8097 455.956 91.6562C455.797 91.5 455.553 91.3835 455.223 91.3068L454.132 91.0511C453.533 90.9091 453.093 90.6889 452.811 90.3906C452.533 90.0895 452.394 89.7131 452.394 89.2614C452.394 88.892 452.498 88.5653 452.705 88.2812C452.915 87.9972 453.201 87.7741 453.561 87.6122C453.925 87.4503 454.337 87.3693 454.797 87.3693C455.445 87.3693 455.953 87.5114 456.323 87.7955C456.695 88.0795 456.959 88.4545 457.115 88.9205ZM458.749 94V87.4545H459.754V94H458.749ZM459.26 86.3636C459.064 86.3636 458.895 86.2969 458.753 86.1634C458.614 86.0298 458.544 85.8693 458.544 85.6818C458.544 85.4943 458.614 85.3338 458.753 85.2003C458.895 85.0668 459.064 85 459.26 85C459.456 85 459.624 85.0668 459.763 85.2003C459.905 85.3338 459.976 85.4943 459.976 85.6818C459.976 85.8693 459.905 86.0298 459.763 86.1634C459.624 86.2969 459.456 86.3636 459.26 86.3636ZM462.602 90.0625V94H461.596V87.4545H462.568V88.4773H462.653C462.806 88.1449 463.039 87.8778 463.352 87.6761C463.664 87.4716 464.068 87.3693 464.562 87.3693C465.005 87.3693 465.393 87.4602 465.725 87.642C466.058 87.821 466.316 88.0938 466.501 88.4602C466.686 88.8239 466.778 89.2841 466.778 89.8409V94H465.772V89.9091C465.772 89.3949 465.639 88.9943 465.372 88.7074C465.105 88.4176 464.738 88.2727 464.272 88.2727C463.951 88.2727 463.664 88.3423 463.412 88.4815C463.162 88.6207 462.964 88.8239 462.819 89.0909C462.674 89.358 462.602 89.6818 462.602 90.0625ZM471.36 94.1364C470.729 94.1364 470.185 93.9972 469.728 93.7188C469.273 93.4375 468.923 93.0455 468.675 92.5426C468.431 92.0369 468.309 91.4489 468.309 90.7784C468.309 90.108 468.431 89.517 468.675 89.0057C468.923 88.4915 469.266 88.0909 469.707 87.804C470.15 87.5142 470.667 87.3693 471.258 87.3693C471.599 87.3693 471.935 87.4261 472.268 87.5398C472.6 87.6534 472.903 87.8381 473.175 88.0938C473.448 88.3466 473.665 88.6818 473.827 89.0994C473.989 89.517 474.07 90.0312 474.07 90.642V91.0682H469.025V90.1989H473.048C473.048 89.8295 472.974 89.5 472.826 89.2102C472.681 88.9205 472.474 88.6918 472.204 88.5241C471.937 88.3565 471.621 88.2727 471.258 88.2727C470.857 88.2727 470.511 88.3722 470.218 88.571C469.928 88.767 469.705 89.0227 469.549 89.3381C469.393 89.6534 469.315 89.9915 469.315 90.3523V90.9318C469.315 91.4261 469.4 91.8452 469.57 92.1889C469.744 92.5298 469.984 92.7898 470.29 92.9688C470.597 93.1449 470.954 93.233 471.36 93.233C471.624 93.233 471.863 93.196 472.076 93.1222C472.292 93.0455 472.478 92.9318 472.634 92.7812C472.79 92.6278 472.911 92.4375 472.996 92.2102L473.968 92.483C473.866 92.8125 473.694 93.1023 473.452 93.3523C473.211 93.5994 472.913 93.7926 472.558 93.9318C472.202 94.0682 471.803 94.1364 471.36 94.1364ZM480.237 88.9205L479.333 89.1761C479.276 89.0256 479.192 88.8793 479.082 88.7372C478.974 88.5923 478.826 88.473 478.638 88.3793C478.451 88.2855 478.211 88.2386 477.918 88.2386C477.518 88.2386 477.184 88.331 476.917 88.5156C476.653 88.6974 476.521 88.929 476.521 89.2102C476.521 89.4602 476.612 89.6577 476.793 89.8026C476.975 89.9474 477.259 90.0682 477.646 90.1648L478.617 90.4034C479.202 90.5455 479.638 90.7628 479.925 91.0554C480.212 91.3452 480.356 91.7187 480.356 92.1761C480.356 92.5511 480.248 92.8864 480.032 93.1818C479.819 93.4773 479.521 93.7102 479.137 93.8807C478.754 94.0511 478.308 94.1364 477.799 94.1364C477.131 94.1364 476.579 93.9915 476.141 93.7017C475.704 93.4119 475.427 92.9886 475.31 92.4318L476.265 92.1932C476.356 92.5455 476.528 92.8097 476.781 92.9858C477.036 93.1619 477.37 93.25 477.782 93.25C478.251 93.25 478.623 93.1506 478.898 92.9517C479.177 92.75 479.316 92.5085 479.316 92.2273C479.316 92 479.237 91.8097 479.077 91.6562C478.918 91.5 478.674 91.3835 478.344 91.3068L477.254 91.0511C476.654 90.9091 476.214 90.6889 475.933 90.3906C475.654 90.0895 475.515 89.7131 475.515 89.2614C475.515 88.892 475.619 88.5653 475.826 88.2812C476.036 87.9972 476.322 87.7741 476.683 87.6122C477.046 87.4503 477.458 87.3693 477.918 87.3693C478.566 87.3693 479.075 87.5114 479.444 87.7955C479.816 88.0795 480.08 88.4545 480.237 88.9205ZM486.506 88.9205L485.603 89.1761C485.546 89.0256 485.462 88.8793 485.351 88.7372C485.243 88.5923 485.096 88.473 484.908 88.3793C484.721 88.2855 484.48 88.2386 484.188 88.2386C483.787 88.2386 483.453 88.331 483.186 88.5156C482.922 88.6974 482.79 88.929 482.79 89.2102C482.79 89.4602 482.881 89.6577 483.063 89.8026C483.245 89.9474 483.529 90.0682 483.915 90.1648L484.887 90.4034C485.472 90.5455 485.908 90.7628 486.195 91.0554C486.482 91.3452 486.625 91.7187 486.625 92.1761C486.625 92.5511 486.517 92.8864 486.301 93.1818C486.088 93.4773 485.79 93.7102 485.407 93.8807C485.023 94.0511 484.577 94.1364 484.069 94.1364C483.401 94.1364 482.848 93.9915 482.411 93.7017C481.973 93.4119 481.696 92.9886 481.58 92.4318L482.534 92.1932C482.625 92.5455 482.797 92.8097 483.05 92.9858C483.306 93.1619 483.64 93.25 484.051 93.25C484.52 93.25 484.892 93.1506 485.168 92.9517C485.446 92.75 485.586 92.5085 485.586 92.2273C485.586 92 485.506 91.8097 485.347 91.6562C485.188 91.5 484.944 91.3835 484.614 91.3068L483.523 91.0511C482.924 90.9091 482.483 90.6889 482.202 90.3906C481.924 90.0895 481.784 89.7131 481.784 89.2614C481.784 88.892 481.888 88.5653 482.096 88.2812C482.306 87.9972 482.591 87.7741 482.952 87.6122C483.316 87.4503 483.728 87.3693 484.188 87.3693C484.836 87.3693 485.344 87.5114 485.713 87.7955C486.086 88.0795 486.35 88.4545 486.506 88.9205ZM451.676 104.636C451.676 105.557 451.51 106.352 451.178 107.023C450.845 107.693 450.389 108.21 449.81 108.574C449.23 108.938 448.568 109.119 447.824 109.119C447.08 109.119 446.418 108.938 445.838 108.574C445.259 108.21 444.803 107.693 444.47 107.023C444.138 106.352 443.972 105.557 443.972 104.636C443.972 103.716 444.138 102.92 444.47 102.25C444.803 101.58 445.259 101.062 445.838 100.699C446.418 100.335 447.08 100.153 447.824 100.153C448.568 100.153 449.23 100.335 449.81 100.699C450.389 101.062 450.845 101.58 451.178 102.25C451.51 102.92 451.676 103.716 451.676 104.636ZM450.654 104.636C450.654 103.881 450.527 103.243 450.274 102.723C450.024 102.203 449.685 101.81 449.256 101.543C448.83 101.276 448.352 101.142 447.824 101.142C447.296 101.142 446.817 101.276 446.388 101.543C445.962 101.81 445.622 102.203 445.369 102.723C445.119 103.243 444.994 103.881 444.994 104.636C444.994 105.392 445.119 106.03 445.369 106.55C445.622 107.07 445.962 107.463 446.388 107.73C446.817 107.997 447.296 108.131 447.824 108.131C448.352 108.131 448.83 107.997 449.256 107.73C449.685 107.463 450.024 107.07 450.274 106.55C450.527 106.03 450.654 105.392 450.654 104.636ZM453.453 109V100.273H454.459V103.494H454.544C454.618 103.381 454.72 103.236 454.851 103.06C454.985 102.881 455.175 102.722 455.422 102.582C455.672 102.44 456.01 102.369 456.436 102.369C456.987 102.369 457.473 102.507 457.894 102.783C458.314 103.058 458.642 103.449 458.878 103.955C459.114 104.46 459.232 105.057 459.232 105.744C459.232 106.438 459.114 107.038 458.878 107.547C458.642 108.053 458.316 108.445 457.898 108.723C457.48 108.999 456.999 109.136 456.453 109.136C456.033 109.136 455.696 109.067 455.443 108.928C455.191 108.786 454.996 108.625 454.86 108.446C454.723 108.264 454.618 108.114 454.544 107.994H454.425V109H453.453ZM454.442 105.727C454.442 106.222 454.514 106.658 454.659 107.036C454.804 107.411 455.016 107.705 455.294 107.918C455.573 108.128 455.914 108.233 456.317 108.233C456.737 108.233 457.088 108.122 457.369 107.901C457.654 107.676 457.867 107.375 458.009 106.997C458.154 106.616 458.226 106.193 458.226 105.727C458.226 105.267 458.155 104.852 458.013 104.483C457.874 104.111 457.662 103.817 457.378 103.601C457.097 103.382 456.743 103.273 456.317 103.273C455.908 103.273 455.564 103.376 455.286 103.584C455.007 103.788 454.797 104.075 454.655 104.445C454.513 104.811 454.442 105.239 454.442 105.727ZM460.77 102.455H461.776V109.477C461.776 109.881 461.706 110.23 461.567 110.526C461.431 110.821 461.223 111.05 460.945 111.212C460.669 111.374 460.321 111.455 459.901 111.455C459.867 111.455 459.833 111.455 459.798 111.455C459.764 111.455 459.73 111.455 459.696 111.455V110.517C459.73 110.517 459.762 110.517 459.79 110.517C459.818 110.517 459.85 110.517 459.884 110.517C460.191 110.517 460.415 110.426 460.557 110.244C460.699 110.065 460.77 109.81 460.77 109.477V102.455ZM461.264 101.364C461.068 101.364 460.899 101.297 460.757 101.163C460.618 101.03 460.548 100.869 460.548 100.682C460.548 100.494 460.618 100.334 460.757 100.2C460.899 100.067 461.068 100 461.264 100C461.46 100 461.628 100.067 461.767 100.2C461.909 100.334 461.98 100.494 461.98 100.682C461.98 100.869 461.909 101.03 461.767 101.163C461.628 101.297 461.46 101.364 461.264 101.364ZM466.362 109.136C465.731 109.136 465.187 108.997 464.73 108.719C464.275 108.438 463.925 108.045 463.677 107.543C463.433 107.037 463.311 106.449 463.311 105.778C463.311 105.108 463.433 104.517 463.677 104.006C463.925 103.491 464.268 103.091 464.709 102.804C465.152 102.514 465.669 102.369 466.26 102.369C466.601 102.369 466.937 102.426 467.27 102.54C467.602 102.653 467.905 102.838 468.177 103.094C468.45 103.347 468.667 103.682 468.829 104.099C468.991 104.517 469.072 105.031 469.072 105.642V106.068H464.027V105.199H468.05C468.05 104.83 467.976 104.5 467.828 104.21C467.683 103.92 467.476 103.692 467.206 103.524C466.939 103.357 466.623 103.273 466.26 103.273C465.859 103.273 465.513 103.372 465.22 103.571C464.93 103.767 464.707 104.023 464.551 104.338C464.395 104.653 464.317 104.991 464.317 105.352V105.932C464.317 106.426 464.402 106.845 464.572 107.189C464.746 107.53 464.986 107.79 465.292 107.969C465.599 108.145 465.956 108.233 466.362 108.233C466.626 108.233 466.865 108.196 467.078 108.122C467.294 108.045 467.48 107.932 467.636 107.781C467.792 107.628 467.913 107.437 467.998 107.21L468.97 107.483C468.868 107.812 468.696 108.102 468.454 108.352C468.213 108.599 467.915 108.793 467.559 108.932C467.204 109.068 466.805 109.136 466.362 109.136ZM473.261 109.136C472.648 109.136 472.119 108.991 471.676 108.702C471.233 108.412 470.892 108.013 470.653 107.504C470.415 106.996 470.295 106.415 470.295 105.761C470.295 105.097 470.417 104.51 470.662 104.001C470.909 103.49 471.253 103.091 471.693 102.804C472.136 102.514 472.653 102.369 473.244 102.369C473.704 102.369 474.119 102.455 474.488 102.625C474.858 102.795 475.16 103.034 475.396 103.341C475.632 103.648 475.778 104.006 475.835 104.415H474.829C474.753 104.116 474.582 103.852 474.318 103.622C474.057 103.389 473.704 103.273 473.261 103.273C472.869 103.273 472.525 103.375 472.23 103.58C471.937 103.781 471.709 104.067 471.544 104.436C471.382 104.803 471.301 105.233 471.301 105.727C471.301 106.233 471.381 106.673 471.54 107.048C471.702 107.423 471.929 107.714 472.221 107.922C472.517 108.129 472.863 108.233 473.261 108.233C473.523 108.233 473.76 108.188 473.973 108.097C474.186 108.006 474.366 107.875 474.514 107.705C474.662 107.534 474.767 107.33 474.829 107.091H475.835C475.778 107.477 475.638 107.825 475.413 108.135C475.192 108.442 474.898 108.686 474.531 108.868C474.167 109.047 473.744 109.136 473.261 109.136ZM480.152 102.455V103.307H476.76V102.455H480.152ZM477.748 100.886H478.754V107.125C478.754 107.409 478.795 107.622 478.878 107.764C478.963 107.903 479.071 107.997 479.202 108.045C479.335 108.091 479.476 108.114 479.623 108.114C479.734 108.114 479.825 108.108 479.896 108.097C479.967 108.082 480.024 108.071 480.067 108.062L480.271 108.966C480.203 108.991 480.108 109.017 479.986 109.043C479.863 109.071 479.709 109.085 479.521 109.085C479.237 109.085 478.959 109.024 478.686 108.902C478.416 108.78 478.192 108.594 478.013 108.344C477.836 108.094 477.748 107.778 477.748 107.398V100.886Z" fill="black"/>
<rect x="645.5" y="290.5" width="71" height="71" rx="7.5" fill="white"/>
<rect x="645.5" y="290.5" width="71" height="71" rx="7.5" stroke="#979797"/>
<path d="M669.556 324H668.499C668.437 323.696 668.327 323.429 668.171 323.199C668.018 322.969 667.83 322.776 667.609 322.619C667.39 322.46 667.147 322.341 666.88 322.261C666.613 322.182 666.335 322.142 666.045 322.142C665.516 322.142 665.038 322.276 664.609 322.543C664.183 322.81 663.843 323.203 663.59 323.723C663.34 324.243 663.215 324.881 663.215 325.636C663.215 326.392 663.34 327.03 663.59 327.55C663.843 328.07 664.183 328.463 664.609 328.73C665.038 328.997 665.516 329.131 666.045 329.131C666.335 329.131 666.613 329.091 666.88 329.011C667.147 328.932 667.39 328.814 667.609 328.658C667.83 328.499 668.018 328.304 668.171 328.074C668.327 327.841 668.437 327.574 668.499 327.273H669.556C669.477 327.719 669.332 328.118 669.121 328.47C668.911 328.822 668.65 329.122 668.337 329.369C668.025 329.614 667.674 329.8 667.285 329.928C666.898 330.055 666.485 330.119 666.045 330.119C665.3 330.119 664.638 329.938 664.059 329.574C663.479 329.21 663.023 328.693 662.691 328.023C662.359 327.352 662.192 326.557 662.192 325.636C662.192 324.716 662.359 323.92 662.691 323.25C663.023 322.58 663.479 322.062 664.059 321.699C664.638 321.335 665.3 321.153 666.045 321.153C666.485 321.153 666.898 321.217 667.285 321.345C667.674 321.473 668.025 321.661 668.337 321.908C668.65 322.152 668.911 322.45 669.121 322.803C669.332 323.152 669.477 323.551 669.556 324ZM673.054 330.153C672.639 330.153 672.262 330.075 671.924 329.919C671.586 329.76 671.318 329.531 671.119 329.233C670.92 328.932 670.821 328.568 670.821 328.142C670.821 327.767 670.895 327.463 671.042 327.23C671.19 326.994 671.387 326.81 671.635 326.676C671.882 326.543 672.154 326.443 672.453 326.378C672.754 326.31 673.056 326.256 673.36 326.216C673.758 326.165 674.081 326.126 674.328 326.101C674.578 326.072 674.76 326.026 674.873 325.96C674.99 325.895 675.048 325.781 675.048 325.619V325.585C675.048 325.165 674.933 324.838 674.703 324.605C674.475 324.372 674.13 324.256 673.667 324.256C673.187 324.256 672.811 324.361 672.538 324.571C672.265 324.781 672.074 325.006 671.963 325.244L671.008 324.903C671.179 324.506 671.406 324.196 671.69 323.974C671.977 323.75 672.289 323.594 672.627 323.506C672.968 323.415 673.304 323.369 673.633 323.369C673.843 323.369 674.085 323.395 674.358 323.446C674.633 323.494 674.899 323.595 675.154 323.749C675.413 323.902 675.627 324.134 675.798 324.443C675.968 324.753 676.054 325.168 676.054 325.688V330H675.048V329.114H674.997C674.929 329.256 674.815 329.408 674.656 329.57C674.497 329.732 674.285 329.869 674.021 329.983C673.757 330.097 673.434 330.153 673.054 330.153ZM673.207 329.25C673.605 329.25 673.94 329.172 674.213 329.016C674.488 328.859 674.696 328.658 674.835 328.411C674.977 328.163 675.048 327.903 675.048 327.631V326.71C675.005 326.761 674.912 326.808 674.767 326.851C674.625 326.891 674.46 326.926 674.272 326.957C674.088 326.986 673.907 327.011 673.731 327.034C673.558 327.054 673.417 327.071 673.309 327.085C673.048 327.119 672.804 327.175 672.576 327.251C672.352 327.325 672.17 327.437 672.031 327.588C671.895 327.736 671.826 327.937 671.826 328.193C671.826 328.543 671.956 328.807 672.214 328.986C672.475 329.162 672.806 329.25 673.207 329.25ZM678.895 326.062V330H677.889V323.455H678.861V324.477H678.946C679.099 324.145 679.332 323.878 679.645 323.676C679.957 323.472 680.361 323.369 680.855 323.369C681.298 323.369 681.686 323.46 682.018 323.642C682.351 323.821 682.609 324.094 682.794 324.46C682.979 324.824 683.071 325.284 683.071 325.841V330H682.065V325.909C682.065 325.395 681.932 324.994 681.665 324.707C681.398 324.418 681.031 324.273 680.565 324.273C680.244 324.273 679.957 324.342 679.705 324.482C679.455 324.621 679.257 324.824 679.112 325.091C678.967 325.358 678.895 325.682 678.895 326.062ZM687.568 330.136C686.954 330.136 686.426 329.991 685.983 329.702C685.539 329.412 685.199 329.013 684.96 328.504C684.721 327.996 684.602 327.415 684.602 326.761C684.602 326.097 684.724 325.51 684.968 325.001C685.216 324.49 685.559 324.091 686 323.804C686.443 323.514 686.96 323.369 687.551 323.369C688.011 323.369 688.426 323.455 688.795 323.625C689.164 323.795 689.467 324.034 689.703 324.341C689.939 324.648 690.085 325.006 690.142 325.415H689.136C689.059 325.116 688.889 324.852 688.625 324.622C688.363 324.389 688.011 324.273 687.568 324.273C687.176 324.273 686.832 324.375 686.537 324.58C686.244 324.781 686.015 325.067 685.85 325.436C685.689 325.803 685.608 326.233 685.608 326.727C685.608 327.233 685.687 327.673 685.846 328.048C686.008 328.423 686.235 328.714 686.528 328.922C686.824 329.129 687.17 329.233 687.568 329.233C687.829 329.233 688.066 329.188 688.279 329.097C688.493 329.006 688.673 328.875 688.821 328.705C688.968 328.534 689.074 328.33 689.136 328.091H690.142C690.085 328.477 689.944 328.825 689.72 329.135C689.498 329.442 689.204 329.686 688.838 329.868C688.474 330.047 688.051 330.136 687.568 330.136ZM694.356 330.136C693.725 330.136 693.181 329.997 692.724 329.719C692.27 329.438 691.919 329.045 691.672 328.543C691.427 328.037 691.305 327.449 691.305 326.778C691.305 326.108 691.427 325.517 691.672 325.006C691.919 324.491 692.262 324.091 692.703 323.804C693.146 323.514 693.663 323.369 694.254 323.369C694.595 323.369 694.931 323.426 695.264 323.54C695.596 323.653 695.899 323.838 696.172 324.094C696.444 324.347 696.662 324.682 696.824 325.099C696.985 325.517 697.066 326.031 697.066 326.642V327.068H692.021V326.199H696.044C696.044 325.83 695.97 325.5 695.822 325.21C695.677 324.92 695.47 324.692 695.2 324.524C694.933 324.357 694.618 324.273 694.254 324.273C693.853 324.273 693.507 324.372 693.214 324.571C692.924 324.767 692.701 325.023 692.545 325.338C692.389 325.653 692.311 325.991 692.311 326.352V326.932C692.311 327.426 692.396 327.845 692.566 328.189C692.74 328.53 692.98 328.79 693.287 328.969C693.593 329.145 693.95 329.233 694.356 329.233C694.62 329.233 694.859 329.196 695.072 329.122C695.288 329.045 695.474 328.932 695.63 328.781C695.787 328.628 695.907 328.437 695.993 328.21L696.964 328.483C696.862 328.812 696.69 329.102 696.449 329.352C696.207 329.599 695.909 329.793 695.554 329.932C695.199 330.068 694.799 330.136 694.356 330.136ZM699.602 321.273V330H698.596V321.273H699.602Z" fill="black"/>
<rect x="207.5" y="290.5" width="71" height="71" rx="7.5" fill="white"/>
<rect x="207.5" y="290.5" width="71" height="71" rx="7.5" stroke="#979797"/>
<path d="M228.972 323.455C228.921 323.023 228.714 322.688 228.35 322.449C227.986 322.21 227.54 322.091 227.012 322.091C226.626 322.091 226.287 322.153 225.998 322.278C225.711 322.403 225.486 322.575 225.324 322.794C225.165 323.013 225.086 323.261 225.086 323.54C225.086 323.773 225.141 323.973 225.252 324.141C225.366 324.305 225.51 324.443 225.687 324.554C225.863 324.662 226.047 324.751 226.241 324.822C226.434 324.891 226.611 324.946 226.773 324.989L227.66 325.227C227.887 325.287 228.14 325.369 228.418 325.474C228.699 325.58 228.968 325.723 229.224 325.905C229.482 326.084 229.695 326.314 229.863 326.595C230.03 326.876 230.114 327.222 230.114 327.631C230.114 328.102 229.991 328.528 229.743 328.909C229.499 329.29 229.141 329.592 228.67 329.817C228.201 330.041 227.631 330.153 226.961 330.153C226.336 330.153 225.795 330.053 225.337 329.851C224.883 329.649 224.525 329.368 224.263 329.007C224.005 328.646 223.858 328.227 223.824 327.75H224.915C224.944 328.08 225.055 328.352 225.248 328.568C225.444 328.781 225.691 328.94 225.989 329.045C226.29 329.148 226.614 329.199 226.961 329.199C227.364 329.199 227.726 329.134 228.047 329.003C228.368 328.869 228.623 328.685 228.81 328.449C228.998 328.21 229.091 327.932 229.091 327.614C229.091 327.324 229.01 327.088 228.849 326.906C228.687 326.724 228.474 326.577 228.209 326.463C227.945 326.349 227.66 326.25 227.353 326.165L226.279 325.858C225.597 325.662 225.057 325.382 224.66 325.018C224.262 324.655 224.063 324.179 224.063 323.591C224.063 323.102 224.195 322.676 224.459 322.312C224.726 321.946 225.084 321.662 225.533 321.46C225.985 321.256 226.489 321.153 227.046 321.153C227.608 321.153 228.108 321.254 228.546 321.456C228.983 321.655 229.33 321.928 229.586 322.274C229.844 322.621 229.981 323.014 229.995 323.455H228.972ZM235.84 327.324V323.455H236.846V330H235.84V328.892H235.772C235.619 329.224 235.38 329.507 235.056 329.74C234.732 329.97 234.323 330.085 233.829 330.085C233.42 330.085 233.056 329.996 232.738 329.817C232.42 329.635 232.17 329.362 231.988 328.999C231.806 328.632 231.715 328.17 231.715 327.614V323.455H232.721V327.545C232.721 328.023 232.855 328.403 233.122 328.688C233.392 328.972 233.735 329.114 234.153 329.114C234.403 329.114 234.657 329.05 234.916 328.922C235.177 328.794 235.396 328.598 235.572 328.334C235.751 328.07 235.84 327.733 235.84 327.324ZM238.824 330V321.273H239.83V324.494H239.915C239.989 324.381 240.091 324.236 240.222 324.06C240.356 323.881 240.546 323.722 240.793 323.582C241.043 323.44 241.381 323.369 241.807 323.369C242.358 323.369 242.844 323.507 243.265 323.783C243.685 324.058 244.013 324.449 244.249 324.955C244.485 325.46 244.603 326.057 244.603 326.744C244.603 327.438 244.485 328.038 244.249 328.547C244.013 329.053 243.687 329.445 243.269 329.723C242.851 329.999 242.37 330.136 241.824 330.136C241.404 330.136 241.067 330.067 240.814 329.928C240.562 329.786 240.367 329.625 240.231 329.446C240.094 329.264 239.989 329.114 239.915 328.994H239.796V330H238.824ZM239.813 326.727C239.813 327.222 239.885 327.658 240.03 328.036C240.175 328.411 240.387 328.705 240.665 328.918C240.944 329.128 241.285 329.233 241.688 329.233C242.108 329.233 242.459 329.122 242.741 328.901C243.025 328.676 243.238 328.375 243.38 327.997C243.525 327.616 243.597 327.193 243.597 326.727C243.597 326.267 243.526 325.852 243.384 325.483C243.245 325.111 243.033 324.817 242.749 324.601C242.468 324.382 242.114 324.273 241.688 324.273C241.279 324.273 240.935 324.376 240.657 324.584C240.378 324.788 240.168 325.075 240.026 325.445C239.884 325.811 239.813 326.239 239.813 326.727ZM246.141 330V323.455H247.113V324.477H247.198C247.334 324.128 247.555 323.857 247.858 323.663C248.162 323.467 248.528 323.369 248.954 323.369C249.385 323.369 249.745 323.467 250.032 323.663C250.322 323.857 250.547 324.128 250.709 324.477H250.778C250.945 324.139 251.197 323.871 251.532 323.672C251.867 323.47 252.269 323.369 252.738 323.369C253.323 323.369 253.802 323.553 254.174 323.919C254.546 324.283 254.732 324.849 254.732 325.619V330H253.726V325.619C253.726 325.136 253.594 324.791 253.33 324.584C253.066 324.376 252.755 324.273 252.397 324.273C251.937 324.273 251.58 324.412 251.327 324.69C251.074 324.966 250.948 325.315 250.948 325.739V330H249.925V325.517C249.925 325.145 249.805 324.845 249.563 324.618C249.322 324.388 249.01 324.273 248.63 324.273C248.368 324.273 248.124 324.342 247.897 324.482C247.672 324.621 247.491 324.814 247.351 325.061C247.215 325.305 247.147 325.588 247.147 325.909V330H246.141ZM256.571 330V323.455H257.577V330H256.571ZM257.082 322.364C256.886 322.364 256.717 322.297 256.575 322.163C256.436 322.03 256.366 321.869 256.366 321.682C256.366 321.494 256.436 321.334 256.575 321.2C256.717 321.067 256.886 321 257.082 321C257.278 321 257.446 321.067 257.585 321.2C257.727 321.334 257.798 321.494 257.798 321.682C257.798 321.869 257.727 322.03 257.585 322.163C257.446 322.297 257.278 322.364 257.082 322.364ZM262.265 323.455V324.307H258.873V323.455H262.265ZM259.862 321.886H260.867V328.125C260.867 328.409 260.909 328.622 260.991 328.764C261.076 328.903 261.184 328.997 261.315 329.045C261.448 329.091 261.589 329.114 261.737 329.114C261.847 329.114 261.938 329.108 262.009 329.097C262.08 329.082 262.137 329.071 262.18 329.062L262.384 329.966C262.316 329.991 262.221 330.017 262.099 330.043C261.977 330.071 261.822 330.085 261.634 330.085C261.35 330.085 261.072 330.024 260.799 329.902C260.529 329.78 260.305 329.594 260.126 329.344C259.95 329.094 259.862 328.778 259.862 328.398V321.886Z" fill="black"/>
<g clip-path="url(#clip1_1292_4019)">
<rect x="561" width="240" height="180" rx="8" fill="#ECEDEF"/>
<rect width="240" height="12" transform="translate(561)" fill="white"/>
<rect x="569" y="4" width="4" height="4" fill="#FF0000"/>
<rect x="577" y="4" width="12" height="4" fill="#848484"/>
<rect x="773" y="4" width="4" height="4" fill="#848484"/>
<rect x="781" y="4" width="4" height="4" fill="#848484"/>
<rect x="789" y="4" width="4" height="4" fill="#848484"/>
<rect width="240" height="1" transform="translate(561 12)" fill="#FF0000"/>
<rect width="240" height="14" transform="translate(561 13)" fill="white"/>
<rect x="569" y="18" width="16" height="4" fill="#434343"/>
<rect x="777" y="17" width="16" height="6" fill="#006699"/>
<mask id="path-20-inside-1_1292_4019" fill="white">
<path d="M561 27H801V41H561V27Z"/>
</mask>
<path d="M561 27H801V41H561V27Z" fill="white"/>
<path d="M801 41V40H561V41V42H801V41Z" fill="#C8C8C8" mask="url(#path-20-inside-1_1292_4019)"/>
<rect x="569" y="31" width="6" height="6" rx="3" fill="#006699"/>
<rect x="581" y="33.5" width="36.5" height="1" fill="#C8C8C8"/>
<rect x="623.5" y="31" width="6" height="6" rx="3" fill="#C8C8C8"/>
<rect x="635.5" y="33.5" width="36.5" height="1" fill="#C8C8C8"/>
<rect x="678" y="31" width="6" height="6" rx="3" fill="#C8C8C8"/>
<rect x="690" y="33.5" width="36.5" height="1" fill="#C8C8C8"/>
<rect x="732.5" y="31" width="6" height="6" rx="3" fill="#C8C8C8"/>
<rect x="744.5" y="33.5" width="36.5" height="1" fill="#C8C8C8"/>
<rect x="787" y="31" width="6" height="6" rx="3" fill="#C8C8C8"/>
<mask id="path-31-inside-2_1292_4019" fill="white">
<path d="M561 41H801V83H561V41Z"/>
</mask>
<path d="M801 83V82.5H561V83V83.5H801V83Z" fill="#C8C8C8" mask="url(#path-31-inside-2_1292_4019)"/>
<g clip-path="url(#clip2_1292_4019)">
<rect x="569" y="47" width="16" height="4" fill="#848484"/>
</g>
<g clip-path="url(#clip3_1292_4019)">
<g clip-path="url(#clip4_1292_4019)">
<rect x="569" y="55" width="12" height="2" fill="#C8C8C8"/>
<rect x="569.25" y="59.25" width="23.5" height="4.5" fill="white" stroke="#C8C8C8" stroke-width="0.5"/>
</g>
<g clip-path="url(#clip5_1292_4019)">
<rect x="569" y="68" width="12" height="2" fill="#C8C8C8"/>
<rect x="569.25" y="72.25" width="31.5" height="4.5" fill="white" stroke="#C8C8C8" stroke-width="0.5"/>
</g>
<g clip-path="url(#clip6_1292_4019)">
<rect x="631" y="55" width="12" height="2" fill="#C8C8C8"/>
<rect x="631.25" y="59.25" width="31.5" height="4.5" fill="white" stroke="#C8C8C8" stroke-width="0.5"/>
</g>
<g clip-path="url(#clip7_1292_4019)">
<rect x="631" y="68" width="12" height="2" fill="#C8C8C8"/>
<rect x="631.25" y="72.25" width="27.5" height="4.5" fill="white" stroke="#C8C8C8" stroke-width="0.5"/>
</g>
<g clip-path="url(#clip8_1292_4019)">
<rect x="693" y="55" width="12" height="2" fill="#C8C8C8"/>
<rect x="693.25" y="59.25" width="41.5" height="4.5" fill="white" stroke="#C8C8C8" stroke-width="0.5"/>
</g>
<g clip-path="url(#clip9_1292_4019)">
<rect x="693" y="68" width="12" height="2" fill="#C8C8C8"/>
<rect x="693.25" y="72.25" width="31.5" height="4.5" fill="white" stroke="#C8C8C8" stroke-width="0.5"/>
</g>
<g clip-path="url(#clip10_1292_4019)">
<rect x="765" y="55" width="12" height="2" fill="#C8C8C8"/>
<rect x="765.25" y="59.25" width="27.5" height="4.5" fill="white" stroke="#C8C8C8" stroke-width="0.5"/>
</g>
</g>
<mask id="path-48-inside-3_1292_4019" fill="white">
<path d="M561 83H801V125H561V83Z"/>
</mask>
<path d="M801 125V124.5H561V125V125.5H801V125Z" fill="#C8C8C8" mask="url(#path-48-inside-3_1292_4019)"/>
<g clip-path="url(#clip11_1292_4019)">
<rect x="569" y="89" width="16" height="4" fill="#848484"/>
</g>
<g clip-path="url(#clip12_1292_4019)">
<g clip-path="url(#clip13_1292_4019)">
<rect x="569" y="97" width="12" height="2" fill="#C8C8C8"/>
<rect x="569.25" y="101.25" width="23.5" height="4.5" fill="white" stroke="#C8C8C8" stroke-width="0.5"/>
</g>
<g clip-path="url(#clip14_1292_4019)">
<rect x="569" y="110" width="12" height="2" fill="#C8C8C8"/>
<rect x="569.25" y="114.25" width="31.5" height="4.5" fill="white" stroke="#C8C8C8" stroke-width="0.5"/>
</g>
<g clip-path="url(#clip15_1292_4019)">
<rect x="631" y="97" width="12" height="2" fill="#C8C8C8"/>
<rect x="631.25" y="101.25" width="31.5" height="4.5" fill="white" stroke="#C8C8C8" stroke-width="0.5"/>
</g>
<g clip-path="url(#clip16_1292_4019)">
<rect x="631" y="110" width="12" height="2" fill="#C8C8C8"/>
<rect x="631.25" y="114.25" width="27.5" height="4.5" fill="white" stroke="#C8C8C8" stroke-width="0.5"/>
</g>
<g clip-path="url(#clip17_1292_4019)">
<rect x="693" y="97" width="12" height="2" fill="#C8C8C8"/>
<rect x="693.25" y="101.25" width="41.5" height="4.5" fill="white" stroke="#C8C8C8" stroke-width="0.5"/>
</g>
<g clip-path="url(#clip18_1292_4019)">
<rect x="765" y="97" width="12" height="2" fill="#C8C8C8"/>
<rect x="765.25" y="101.25" width="27.5" height="4.5" fill="white" stroke="#C8C8C8" stroke-width="0.5"/>
</g>
</g>
<mask id="path-63-inside-4_1292_4019" fill="white">
<path d="M561 164H801V180H561V164Z"/>
</mask>
<path d="M561 164H801V180H561V164Z" fill="white"/>
<path d="M561 164V165H801V164V163H561V164Z" fill="#C8C8C8" mask="url(#path-63-inside-4_1292_4019)"/>
<rect x="733" y="169" width="16" height="6" fill="#C8C8C8"/>
<rect x="755" y="169" width="16" height="6" fill="#848484"/>
<rect x="777" y="169" width="16" height="6" fill="#006699"/>
</g>
<rect x="561.5" y="0.5" width="239" height="179" rx="7.5" stroke="#C8C8C8"/>
<g clip-path="url(#clip19_1292_4019)">
<rect x="342" y="236" width="240" height="180" rx="8" fill="#ECEDEF"/>
<rect width="240" height="12" transform="translate(342 236)" fill="white"/>
<rect x="350" y="240" width="4" height="4" fill="#FF0000"/>
<rect x="358" y="240" width="12" height="4" fill="#848484"/>
<rect x="554" y="240" width="4" height="4" fill="#848484"/>
<rect x="562" y="240" width="4" height="4" fill="#848484"/>
<rect x="570" y="240" width="4" height="4" fill="#848484"/>
<rect width="240" height="1" transform="translate(342 248)" fill="#FF0000"/>
<rect width="240" height="14" transform="translate(342 249)" fill="white"/>
<rect x="350" y="254" width="16" height="4" fill="#434343"/>
<rect x="558" y="253" width="16" height="6" fill="#006699"/>
<mask id="path-77-inside-5_1292_4019" fill="white">
<path d="M342 263H582V277H342V263Z"/>
</mask>
<path d="M342 263H582V277H342V263Z" fill="white"/>
<path d="M582 277V276H342V277V278H582V277Z" fill="#C8C8C8" mask="url(#path-77-inside-5_1292_4019)"/>
<rect x="350" y="267" width="6" height="6" rx="3" fill="#006699"/>
<rect x="362" y="269.5" width="36.5" height="1" fill="#C8C8C8"/>
<rect x="404.5" y="267" width="6" height="6" rx="3" fill="#C8C8C8"/>
<rect x="416.5" y="269.5" width="36.5" height="1" fill="#C8C8C8"/>
<rect x="459" y="267" width="6" height="6" rx="3" fill="#C8C8C8"/>
<rect x="471" y="269.5" width="36.5" height="1" fill="#C8C8C8"/>
<rect x="513.5" y="267" width="6" height="6" rx="3" fill="#C8C8C8"/>
<rect x="525.5" y="269.5" width="36.5" height="1" fill="#C8C8C8"/>
<rect x="568" y="267" width="6" height="6" rx="3" fill="#C8C8C8"/>
<mask id="path-88-inside-6_1292_4019" fill="white">
<path d="M342 277H582V319H342V277Z"/>
</mask>
<path d="M582 319V318.5H342V319V319.5H582V319Z" fill="#C8C8C8" mask="url(#path-88-inside-6_1292_4019)"/>
<g clip-path="url(#clip20_1292_4019)">
<rect x="350" y="283" width="16" height="4" fill="#848484"/>
</g>
<g clip-path="url(#clip21_1292_4019)">
<g clip-path="url(#clip22_1292_4019)">
<rect x="350" y="291" width="12" height="2" fill="#C8C8C8"/>
<rect x="350.25" y="295.25" width="23.5" height="4.5" fill="white" stroke="#C8C8C8" stroke-width="0.5"/>
</g>
<g clip-path="url(#clip23_1292_4019)">
<rect x="350" y="304" width="12" height="2" fill="#C8C8C8"/>
<rect x="350.25" y="308.25" width="31.5" height="4.5" fill="white" stroke="#C8C8C8" stroke-width="0.5"/>
</g>
<g clip-path="url(#clip24_1292_4019)">
<rect x="412" y="291" width="12" height="2" fill="#C8C8C8"/>
<rect x="412.25" y="295.25" width="31.5" height="4.5" fill="white" stroke="#C8C8C8" stroke-width="0.5"/>
</g>
<g clip-path="url(#clip25_1292_4019)">
<rect x="412" y="304" width="12" height="2" fill="#C8C8C8"/>
<rect x="412.25" y="308.25" width="27.5" height="4.5" fill="white" stroke="#C8C8C8" stroke-width="0.5"/>
</g>
<g clip-path="url(#clip26_1292_4019)">
<rect x="474" y="291" width="12" height="2" fill="#C8C8C8"/>
<rect x="474.25" y="295.25" width="41.5" height="4.5" fill="white" stroke="#C8C8C8" stroke-width="0.5"/>
</g>
<g clip-path="url(#clip27_1292_4019)">
<rect x="474" y="304" width="12" height="2" fill="#C8C8C8"/>
<rect x="474.25" y="308.25" width="31.5" height="4.5" fill="white" stroke="#C8C8C8" stroke-width="0.5"/>
</g>
<g clip-path="url(#clip28_1292_4019)">
<rect x="546" y="291" width="12" height="2" fill="#C8C8C8"/>
<rect x="546.25" y="295.25" width="27.5" height="4.5" fill="white" stroke="#C8C8C8" stroke-width="0.5"/>
</g>
</g>
<mask id="path-105-inside-7_1292_4019" fill="white">
<path d="M342 319H582V361H342V319Z"/>
</mask>
<path d="M582 361V360.5H342V361V361.5H582V361Z" fill="#C8C8C8" mask="url(#path-105-inside-7_1292_4019)"/>
<g clip-path="url(#clip29_1292_4019)">
<rect x="350" y="325" width="16" height="4" fill="#848484"/>
</g>
<g clip-path="url(#clip30_1292_4019)">
<g clip-path="url(#clip31_1292_4019)">
<rect x="350" y="333" width="12" height="2" fill="#C8C8C8"/>
<rect x="350.25" y="337.25" width="23.5" height="4.5" fill="white" stroke="#C8C8C8" stroke-width="0.5"/>
</g>
<g clip-path="url(#clip32_1292_4019)">
<rect x="350" y="346" width="12" height="2" fill="#C8C8C8"/>
<rect x="350.25" y="350.25" width="31.5" height="4.5" fill="white" stroke="#C8C8C8" stroke-width="0.5"/>
</g>
<g clip-path="url(#clip33_1292_4019)">
<rect x="412" y="333" width="12" height="2" fill="#C8C8C8"/>
<rect x="412.25" y="337.25" width="31.5" height="4.5" fill="white" stroke="#C8C8C8" stroke-width="0.5"/>
</g>
<g clip-path="url(#clip34_1292_4019)">
<rect x="412" y="346" width="12" height="2" fill="#C8C8C8"/>
<rect x="412.25" y="350.25" width="27.5" height="4.5" fill="white" stroke="#C8C8C8" stroke-width="0.5"/>
</g>
<g clip-path="url(#clip35_1292_4019)">
<rect x="474" y="333" width="12" height="2" fill="#C8C8C8"/>
<rect x="474.25" y="337.25" width="41.5" height="4.5" fill="white" stroke="#C8C8C8" stroke-width="0.5"/>
</g>
<g clip-path="url(#clip36_1292_4019)">
<rect x="546" y="333" width="12" height="2" fill="#C8C8C8"/>
<rect x="546.25" y="337.25" width="27.5" height="4.5" fill="white" stroke="#C8C8C8" stroke-width="0.5"/>
</g>
</g>
<mask id="path-120-inside-8_1292_4019" fill="white">
<path d="M342 400H582V416H342V400Z"/>
</mask>
<path d="M342 400H582V416H342V400Z" fill="white"/>
<path d="M342 400V401H582V400V399H342V400Z" fill="#C8C8C8" mask="url(#path-120-inside-8_1292_4019)"/>
<rect x="514" y="405" width="16" height="6" fill="#C8C8C8"/>
<rect x="536" y="405" width="16" height="6" fill="#848484"/>
<rect x="558" y="405" width="16" height="6" fill="#006699"/>
</g>
<rect x="342.5" y="236.5" width="239" height="179" rx="7.5" stroke="#C8C8C8"/>
<g clip-path="url(#clip37_1292_4019)">
<rect x="999" width="240" height="180" rx="8" fill="#ECEDEF"/>
<rect width="240" height="20" transform="translate(999)" fill="white"/>
<rect x="1007" y="6" width="8" height="8" fill="#FF0000"/>
<rect x="1019" y="8" width="12" height="4" fill="#848484"/>
<rect x="1211" y="8" width="4" height="4" fill="#848484"/>
<rect x="1219" y="8" width="4" height="4" fill="#848484"/>
<rect x="1227" y="8" width="4" height="4" fill="#848484"/>
<rect width="240" height="2" transform="translate(999 20)" fill="#FF0000"/>
<mask id="path-132-inside-9_1292_4019" fill="white">
<path d="M999 22H1239V38H999V22Z"/>
</mask>
<path d="M999 22H1239V38H999V22Z" fill="white"/>
<path d="M1239 38V37H999V38V39H1239V38Z" fill="#C8C8C8" mask="url(#path-132-inside-9_1292_4019)"/>
<rect x="1007" y="28" width="16" height="4" fill="#434343"/>
<g clip-path="url(#clip38_1292_4019)">
<rect x="1007" y="45" width="16" height="4" fill="#848484"/>
<rect x="1215" y="44" width="16" height="6" fill="#006699"/>
</g>
<rect x="1007" y="54" width="224" height="6" fill="#C8C8C8"/>
<mask id="path-138-inside-10_1292_4019" fill="white">
<path d="M1007 60H1231V67H1007V60Z"/>
</mask>
<path d="M1007 60H1231V67H1007V60Z" fill="white"/>
<path d="M1231 67V66.5H1007V67V67.5H1231V67Z" fill="#C8C8C8" mask="url(#path-138-inside-10_1292_4019)"/>
<mask id="path-140-inside-11_1292_4019" fill="white">
<path d="M1007 67H1231V74H1007V67Z"/>
</mask>
<path d="M1007 67H1231V74H1007V67Z" fill="white"/>
<path d="M1231 74V73.5H1007V74V74.5H1231V74Z" fill="#C8C8C8" mask="url(#path-140-inside-11_1292_4019)"/>
<mask id="path-142-inside-12_1292_4019" fill="white">
<path d="M1007 74H1231V81H1007V74Z"/>
</mask>
<path d="M1007 74H1231V81H1007V74Z" fill="white"/>
<path d="M1231 81V80.5H1007V81V81.5H1231V81Z" fill="#C8C8C8" mask="url(#path-142-inside-12_1292_4019)"/>
<mask id="path-144-inside-13_1292_4019" fill="white">
<path d="M1007 81H1231V88H1007V81Z"/>
</mask>
<path d="M1007 81H1231V88H1007V81Z" fill="white"/>
<path d="M1231 88V87.5H1007V88V88.5H1231V88Z" fill="#C8C8C8" mask="url(#path-144-inside-13_1292_4019)"/>
</g>
<rect x="999.5" y="0.5" width="239" height="179" rx="7.5" stroke="#C8C8C8"/>
<g clip-path="url(#clip39_1292_4019)">
<rect x="123" width="240" height="180" rx="8" fill="#ECEDEF"/>
<rect width="240" height="20" transform="translate(123)" fill="white"/>
<rect x="131" y="6" width="8" height="8" fill="#FF0000"/>
<rect x="143" y="8" width="12" height="4" fill="#848484"/>
<rect x="335" y="8" width="4" height="4" fill="#848484"/>
<rect x="343" y="8" width="4" height="4" fill="#848484"/>
<rect x="351" y="8" width="4" height="4" fill="#848484"/>
<rect width="240" height="2" transform="translate(123 20)" fill="#FF0000"/>
<mask id="path-153-inside-14_1292_4019" fill="white">
<path d="M123 22H363V38H123V22Z"/>
</mask>
<path d="M123 22H363V38H123V22Z" fill="white"/>
<path d="M363 38V37H123V38V39H363V38Z" fill="#C8C8C8" mask="url(#path-153-inside-14_1292_4019)"/>
<rect x="131" y="28" width="16" height="4" fill="#434343"/>
<g clip-path="url(#clip40_1292_4019)">
<rect x="131" y="45" width="16" height="4" fill="#848484"/>
<rect x="339" y="44" width="16" height="6" fill="#006699"/>
</g>
<rect x="131" y="54" width="224" height="6" fill="#C8C8C8"/>
<mask id="path-159-inside-15_1292_4019" fill="white">
<path d="M131 60H355V67H131V60Z"/>
</mask>
<path d="M131 60H355V67H131V60Z" fill="white"/>
<path d="M355 67V66.5H131V67V67.5H355V67Z" fill="#C8C8C8" mask="url(#path-159-inside-15_1292_4019)"/>
<mask id="path-161-inside-16_1292_4019" fill="white">
<path d="M131 67H355V74H131V67Z"/>
</mask>
<path d="M131 67H355V74H131V67Z" fill="white"/>
<path d="M355 74V73.5H131V74V74.5H355V74Z" fill="#C8C8C8" mask="url(#path-161-inside-16_1292_4019)"/>
<mask id="path-163-inside-17_1292_4019" fill="white">
<path d="M131 74H355V81H131V74Z"/>
</mask>
<path d="M131 74H355V81H131V74Z" fill="white"/>
<path d="M355 81V80.5H131V81V81.5H355V81Z" fill="#C8C8C8" mask="url(#path-163-inside-17_1292_4019)"/>
<mask id="path-165-inside-18_1292_4019" fill="white">
<path d="M131 81H355V88H131V81Z"/>
</mask>
<path d="M131 81H355V88H131V81Z" fill="white"/>
<path d="M355 88V87.5H131V88V88.5H355V88Z" fill="#C8C8C8" mask="url(#path-165-inside-18_1292_4019)"/>
</g>
<rect x="123.5" y="0.5" width="239" height="179" rx="7.5" stroke="#C8C8C8"/>
<path d="M359 90C359 92.2091 360.791 94 363 94C365.209 94 367 92.2091 367 90C367 87.7909 365.209 86 363 86C360.791 86 359 87.7909 359 90ZM426 90L418.5 85.6699V94.3301L426 90ZM363 90V90.75H419.25V90V89.25H363V90Z" fill="#848484"/>
<path d="M494 90C494 92.2091 495.791 94 498 94C500.209 94 502 92.2091 502 90C502 87.7909 500.209 86 498 86C495.791 86 494 87.7909 494 90ZM561 90L553.5 85.6699V94.3301L561 90ZM498 90V90.75H554.25V90V89.25H498V90Z" fill="#848484"/>
<rect x="864.5" y="54.5" width="71" height="71" rx="7.5" fill="white"/>
<rect x="864.5" y="54.5" width="71" height="71" rx="7.5" stroke="#979797"/>
<path d="M885.972 87.4545C885.921 87.0227 885.714 86.6875 885.35 86.4489C884.986 86.2102 884.54 86.0909 884.012 86.0909C883.626 86.0909 883.287 86.1534 882.998 86.2784C882.711 86.4034 882.486 86.5753 882.324 86.794C882.165 87.0128 882.086 87.2614 882.086 87.5398C882.086 87.7727 882.141 87.973 882.252 88.1406C882.366 88.3054 882.51 88.4432 882.687 88.554C882.863 88.6619 883.047 88.7514 883.241 88.8224C883.434 88.8906 883.611 88.946 883.773 88.9886L884.66 89.2273C884.887 89.2869 885.14 89.3693 885.418 89.4744C885.699 89.5795 885.968 89.723 886.224 89.9048C886.482 90.0838 886.695 90.3139 886.863 90.5952C887.03 90.8764 887.114 91.2216 887.114 91.6307C887.114 92.1023 886.991 92.5284 886.743 92.9091C886.499 93.2898 886.141 93.5923 885.67 93.8168C885.201 94.0412 884.631 94.1534 883.961 94.1534C883.336 94.1534 882.795 94.0526 882.337 93.8509C881.883 93.6491 881.525 93.3679 881.263 93.0071C881.005 92.6463 880.858 92.2273 880.824 91.75H881.915C881.944 92.0795 882.055 92.3523 882.248 92.5682C882.444 92.7812 882.691 92.9403 882.989 93.0455C883.29 93.1477 883.614 93.1989 883.961 93.1989C884.364 93.1989 884.726 93.1335 885.047 93.0028C885.368 92.8693 885.623 92.6847 885.81 92.4489C885.998 92.2102 886.091 91.9318 886.091 91.6136C886.091 91.3239 886.01 91.0881 885.849 90.9062C885.687 90.7244 885.474 90.5767 885.209 90.4631C884.945 90.3494 884.66 90.25 884.353 90.1648L883.279 89.858C882.597 89.6619 882.057 89.3821 881.66 89.0185C881.262 88.6548 881.063 88.179 881.063 87.5909C881.063 87.1023 881.195 86.6761 881.459 86.3125C881.726 85.946 882.084 85.6619 882.533 85.4602C882.985 85.2557 883.489 85.1534 884.046 85.1534C884.608 85.1534 885.108 85.2543 885.546 85.456C885.983 85.6548 886.33 85.9276 886.586 86.2741C886.844 86.6207 886.981 87.0142 886.995 87.4545H885.972ZM892.84 91.3239V87.4545H893.846V94H892.84V92.892H892.772C892.619 93.2244 892.38 93.5071 892.056 93.7401C891.732 93.9702 891.323 94.0852 890.829 94.0852C890.42 94.0852 890.056 93.9957 889.738 93.8168C889.42 93.6349 889.17 93.3622 888.988 92.9986C888.806 92.6321 888.715 92.1705 888.715 91.6136V87.4545H889.721V91.5455C889.721 92.0227 889.855 92.4034 890.122 92.6875C890.392 92.9716 890.735 93.1136 891.153 93.1136C891.403 93.1136 891.657 93.0497 891.916 92.9219C892.177 92.794 892.396 92.598 892.572 92.3338C892.751 92.0696 892.84 91.733 892.84 91.3239ZM895.824 94V85.2727H896.83V88.4943H896.915C896.989 88.3807 897.091 88.2358 897.222 88.0597C897.356 87.8807 897.546 87.7216 897.793 87.5824C898.043 87.4403 898.381 87.3693 898.807 87.3693C899.358 87.3693 899.844 87.5071 900.265 87.7827C900.685 88.0582 901.013 88.4489 901.249 88.9545C901.485 89.4602 901.603 90.0568 901.603 90.7443C901.603 91.4375 901.485 92.0384 901.249 92.5469C901.013 93.0526 900.687 93.4446 900.269 93.723C899.851 93.9986 899.37 94.1364 898.824 94.1364C898.404 94.1364 898.067 94.0668 897.814 93.9276C897.562 93.7855 897.367 93.625 897.231 93.446C897.094 93.2642 896.989 93.1136 896.915 92.9943H896.796V94H895.824ZM896.813 90.7273C896.813 91.2216 896.885 91.6577 897.03 92.0355C897.175 92.4105 897.387 92.7045 897.665 92.9176C897.944 93.1278 898.285 93.233 898.688 93.233C899.108 93.233 899.459 93.1222 899.741 92.9006C900.025 92.6761 900.238 92.375 900.38 91.9972C900.525 91.6165 900.597 91.1932 900.597 90.7273C900.597 90.267 900.526 89.8523 900.384 89.483C900.245 89.1108 900.033 88.8168 899.749 88.6009C899.468 88.3821 899.114 88.2727 898.688 88.2727C898.279 88.2727 897.935 88.3764 897.657 88.5838C897.378 88.7884 897.168 89.0753 897.026 89.4446C896.884 89.8111 896.813 90.2386 896.813 90.7273ZM903.141 94V87.4545H904.113V88.4773H904.198C904.334 88.1278 904.555 87.8565 904.858 87.6634C905.162 87.4673 905.528 87.3693 905.954 87.3693C906.385 87.3693 906.745 87.4673 907.032 87.6634C907.322 87.8565 907.547 88.1278 907.709 88.4773H907.778C907.945 88.1392 908.197 87.8707 908.532 87.6719C908.867 87.4702 909.269 87.3693 909.738 87.3693C910.323 87.3693 910.802 87.5526 911.174 87.919C911.546 88.2827 911.732 88.8494 911.732 89.6193V94H910.726V89.6193C910.726 89.1364 910.594 88.7912 910.33 88.5838C910.066 88.3764 909.755 88.2727 909.397 88.2727C908.937 88.2727 908.58 88.4119 908.327 88.6903C908.074 88.9659 907.948 89.3153 907.948 89.7386V94H906.925V89.517C906.925 89.1449 906.805 88.8452 906.563 88.6179C906.322 88.3878 906.01 88.2727 905.63 88.2727C905.368 88.2727 905.124 88.3423 904.897 88.4815C904.672 88.6207 904.491 88.8139 904.351 89.0611C904.215 89.3054 904.147 89.5881 904.147 89.9091V94H903.141ZM913.571 94V87.4545H914.577V94H913.571ZM914.082 86.3636C913.886 86.3636 913.717 86.2969 913.575 86.1634C913.436 86.0298 913.366 85.8693 913.366 85.6818C913.366 85.4943 913.436 85.3338 913.575 85.2003C913.717 85.0668 913.886 85 914.082 85C914.278 85 914.446 85.0668 914.585 85.2003C914.727 85.3338 914.798 85.4943 914.798 85.6818C914.798 85.8693 914.727 86.0298 914.585 86.1634C914.446 86.2969 914.278 86.3636 914.082 86.3636ZM919.265 87.4545V88.3068H915.873V87.4545H919.265ZM916.862 85.8864H917.867V92.125C917.867 92.4091 917.909 92.6222 917.991 92.7642C918.076 92.9034 918.184 92.9972 918.315 93.0455C918.448 93.0909 918.589 93.1136 918.737 93.1136C918.847 93.1136 918.938 93.108 919.009 93.0966C919.08 93.0824 919.137 93.071 919.18 93.0625L919.384 93.9659C919.316 93.9915 919.221 94.017 919.099 94.0426C918.977 94.071 918.822 94.0852 918.634 94.0852C918.35 94.0852 918.072 94.0241 917.799 93.902C917.529 93.7798 917.305 93.5938 917.126 93.3438C916.95 93.0938 916.862 92.7784 916.862 92.3977V85.8864Z" fill="black"/>
<path d="M797 90C797 92.2091 798.791 94 801 94C803.209 94 805 92.2091 805 90C805 87.7909 803.209 86 801 86C798.791 86 797 87.7909 797 90ZM864 90L856.5 85.6699V94.3301L864 90ZM801 90V90.75H857.25V90V89.25H801V90Z" fill="#848484"/>
<path d="M932 90C932 92.2091 933.791 94 936 94C938.209 94 940 92.2091 940 90C940 87.7909 938.209 86 936 86C933.791 86 932 87.7909 932 90ZM999 90L991.5 85.6699V94.3301L999 90ZM936 90V90.75H992.25V90V89.25H936V90Z" fill="#848484"/>
<path d="M681 176C678.791 176 677 177.791 677 180C677 182.209 678.791 184 681 184C683.209 184 685 182.209 685 180C685 177.791 683.209 176 681 176ZM681 290L685.33 282.5H676.67L681 290ZM681 180H680.25V283.25H681H681.75V180H681Z" fill="#848484"/>
<path d="M649 330C649 327.791 647.209 326 645 326C642.791 326 641 327.791 641 330C641 332.209 642.791 334 645 334C647.209 334 649 332.209 649 330ZM582 330L589.5 334.33L589.5 325.67L582 330ZM645 330L645 329.25L588.75 329.25L588.75 330L588.75 330.75L645 330.75L645 330Z" fill="#848484"/>
<g opacity="0.5">
<rect x="342" y="236" width="240" height="180" rx="8" fill="#ECEDEF"/>
</g>
<rect x="422.5" y="295.5" width="79" height="59" rx="7.5" fill="white"/>
<rect x="422.5" y="295.5" width="79" height="59" rx="7.5" stroke="#C8C8C8"/>
<g clip-path="url(#clip41_1292_4019)">
<rect x="430" y="303" width="16" height="4" fill="black"/>
</g>
<rect x="430" y="315" width="20" height="4" fill="#848484"/>
<rect x="454" y="315" width="15" height="4" fill="#848484"/>
<rect x="464" y="343" width="16" height="4" fill="#848484"/>
<rect x="484" y="343" width="10" height="4" fill="#C70023"/>
<path d="M346 326C346 323.791 344.209 322 342 322C339.791 322 338 323.791 338 326C338 328.209 339.791 330 342 330C344.209 330 346 328.209 346 326ZM279 326L286.5 330.33V321.67L279 326ZM342 326V325.25H285.75V326V326.75H342V326Z" fill="#848484"/>
<path d="M243 294C245.209 294 247 292.209 247 290C247 287.791 245.209 286 243 286C240.791 286 239 287.791 239 290C239 292.209 240.791 294 243 294ZM243 180L238.67 187.5H247.33L243 180ZM243 290H243.75V186.75H243H242.25V290H243Z" fill="#848484"/>
<path d="M1235 94C1235 96.2091 1236.79 98 1239 98C1241.21 98 1243 96.2091 1243 94C1243 91.7909 1241.21 90 1239 90C1236.79 90 1235 91.7909 1235 94ZM1302 94L1294.5 89.6699V98.3301L1302 94ZM1239 94V94.75H1295.25V94V93.25H1239V94Z" fill="#848484"/>
<g clip-path="url(#clip42_1292_4019)">
<rect x="1302.5" y="64.5" width="59" height="59" rx="29.5" fill="white"/>
<rect x="1302.5" y="64.5" width="59" height="59" rx="29.5" stroke="#979797"/>
<path d="M1321.26 98.5V89.7727H1327.14V91.294H1323.1V93.3736H1326.84V94.8949H1323.1V96.9787H1327.16V98.5H1321.26ZM1330.39 94.7159V98.5H1328.57V91.9545H1330.3V93.1094H1330.38C1330.52 92.7287 1330.77 92.4276 1331.11 92.206C1331.45 91.9815 1331.86 91.8693 1332.35 91.8693C1332.8 91.8693 1333.2 91.9688 1333.54 92.1676C1333.87 92.3665 1334.14 92.6506 1334.32 93.0199C1334.51 93.3864 1334.61 93.8239 1334.61 94.3324V98.5H1332.79V94.6562C1332.79 94.2557 1332.69 93.9432 1332.48 93.7188C1332.28 93.4915 1331.99 93.3778 1331.63 93.3778C1331.38 93.3778 1331.17 93.4304 1330.98 93.5355C1330.8 93.6406 1330.65 93.794 1330.55 93.9957C1330.44 94.1946 1330.39 94.4347 1330.39 94.7159ZM1338.45 98.6065C1337.95 98.6065 1337.5 98.4787 1337.1 98.223C1336.7 97.9645 1336.38 97.5852 1336.14 97.0852C1335.91 96.5824 1335.79 95.9659 1335.79 95.2358C1335.79 94.4858 1335.91 93.8622 1336.16 93.3651C1336.4 92.8651 1336.72 92.4915 1337.12 92.2443C1337.52 91.9943 1337.96 91.8693 1338.44 91.8693C1338.81 91.8693 1339.12 91.9318 1339.36 92.0568C1339.61 92.179 1339.81 92.3324 1339.96 92.517C1340.11 92.6989 1340.23 92.8778 1340.31 93.054H1340.36V89.7727H1342.17V98.5H1340.38V97.4517H1340.31C1340.22 97.6335 1340.1 97.8139 1339.94 97.9929C1339.79 98.169 1339.59 98.3153 1339.34 98.4318C1339.1 98.5483 1338.8 98.6065 1338.45 98.6065ZM1339.02 97.1619C1339.32 97.1619 1339.56 97.0824 1339.77 96.9233C1339.97 96.7614 1340.13 96.5355 1340.23 96.2457C1340.35 95.956 1340.4 95.6165 1340.4 95.2273C1340.4 94.8381 1340.35 94.5 1340.24 94.2131C1340.13 93.9261 1339.97 93.7045 1339.77 93.5483C1339.57 93.392 1339.32 93.3139 1339.02 93.3139C1338.73 93.3139 1338.47 93.3949 1338.27 93.5568C1338.07 93.7187 1337.91 93.9432 1337.81 94.2301C1337.7 94.517 1337.65 94.8494 1337.65 95.2273C1337.65 95.608 1337.7 95.9446 1337.81 96.2372C1337.91 96.527 1338.07 96.7543 1338.27 96.919C1338.47 97.081 1338.73 97.1619 1339.02 97.1619Z" fill="#848484"/>
</g>
<defs>
<clipPath id="clip0_1292_4019">
<rect width="60" height="60" fill="white" transform="translate(0 54)"/>
</clipPath>
<clipPath id="clip1_1292_4019">
<rect x="561" width="240" height="180" rx="8" fill="white"/>
</clipPath>
<clipPath id="clip2_1292_4019">
<rect width="224" height="4" fill="white" transform="translate(569 47)"/>
</clipPath>
<clipPath id="clip3_1292_4019">
<rect width="224" height="22" fill="white" transform="translate(569 55)"/>
</clipPath>
<clipPath id="clip4_1292_4019">
<rect width="24" height="9" fill="white" transform="translate(569 55)"/>
</clipPath>
<clipPath id="clip5_1292_4019">
<rect width="32" height="9" fill="white" transform="translate(569 68)"/>
</clipPath>
<clipPath id="clip6_1292_4019">
<rect width="32" height="9" fill="white" transform="translate(631 55)"/>
</clipPath>
<clipPath id="clip7_1292_4019">
<rect width="28" height="9" fill="white" transform="translate(631 68)"/>
</clipPath>
<clipPath id="clip8_1292_4019">
<rect width="42" height="9" fill="white" transform="translate(693 55)"/>
</clipPath>
<clipPath id="clip9_1292_4019">
<rect width="32" height="9" fill="white" transform="translate(693 68)"/>
</clipPath>
<clipPath id="clip10_1292_4019">
<rect width="28" height="9" fill="white" transform="translate(765 55)"/>
</clipPath>
<clipPath id="clip11_1292_4019">
<rect width="224" height="4" fill="white" transform="translate(569 89)"/>
</clipPath>
<clipPath id="clip12_1292_4019">
<rect width="224" height="22" fill="white" transform="translate(569 97)"/>
</clipPath>
<clipPath id="clip13_1292_4019">
<rect width="24" height="9" fill="white" transform="translate(569 97)"/>
</clipPath>
<clipPath id="clip14_1292_4019">
<rect width="32" height="9" fill="white" transform="translate(569 110)"/>
</clipPath>
<clipPath id="clip15_1292_4019">
<rect width="32" height="9" fill="white" transform="translate(631 97)"/>
</clipPath>
<clipPath id="clip16_1292_4019">
<rect width="28" height="9" fill="white" transform="translate(631 110)"/>
</clipPath>
<clipPath id="clip17_1292_4019">
<rect width="42" height="9" fill="white" transform="translate(693 97)"/>
</clipPath>
<clipPath id="clip18_1292_4019">
<rect width="28" height="9" fill="white" transform="translate(765 97)"/>
</clipPath>
<clipPath id="clip19_1292_4019">
<rect x="342" y="236" width="240" height="180" rx="8" fill="white"/>
</clipPath>
<clipPath id="clip20_1292_4019">
<rect width="224" height="4" fill="white" transform="translate(350 283)"/>
</clipPath>
<clipPath id="clip21_1292_4019">
<rect width="224" height="22" fill="white" transform="translate(350 291)"/>
</clipPath>
<clipPath id="clip22_1292_4019">
<rect width="24" height="9" fill="white" transform="translate(350 291)"/>
</clipPath>
<clipPath id="clip23_1292_4019">
<rect width="32" height="9" fill="white" transform="translate(350 304)"/>
</clipPath>
<clipPath id="clip24_1292_4019">
<rect width="32" height="9" fill="white" transform="translate(412 291)"/>
</clipPath>
<clipPath id="clip25_1292_4019">
<rect width="28" height="9" fill="white" transform="translate(412 304)"/>
</clipPath>
<clipPath id="clip26_1292_4019">
<rect width="42" height="9" fill="white" transform="translate(474 291)"/>
</clipPath>
<clipPath id="clip27_1292_4019">
<rect width="32" height="9" fill="white" transform="translate(474 304)"/>
</clipPath>
<clipPath id="clip28_1292_4019">
<rect width="28" height="9" fill="white" transform="translate(546 291)"/>
</clipPath>
<clipPath id="clip29_1292_4019">
<rect width="224" height="4" fill="white" transform="translate(350 325)"/>
</clipPath>
<clipPath id="clip30_1292_4019">
<rect width="224" height="22" fill="white" transform="translate(350 333)"/>
</clipPath>
<clipPath id="clip31_1292_4019">
<rect width="24" height="9" fill="white" transform="translate(350 333)"/>
</clipPath>
<clipPath id="clip32_1292_4019">
<rect width="32" height="9" fill="white" transform="translate(350 346)"/>
</clipPath>
<clipPath id="clip33_1292_4019">
<rect width="32" height="9" fill="white" transform="translate(412 333)"/>
</clipPath>
<clipPath id="clip34_1292_4019">
<rect width="28" height="9" fill="white" transform="translate(412 346)"/>
</clipPath>
<clipPath id="clip35_1292_4019">
<rect width="42" height="9" fill="white" transform="translate(474 333)"/>
</clipPath>
<clipPath id="clip36_1292_4019">
<rect width="28" height="9" fill="white" transform="translate(546 333)"/>
</clipPath>
<clipPath id="clip37_1292_4019">
<rect x="999" width="240" height="180" rx="8" fill="white"/>
</clipPath>
<clipPath id="clip38_1292_4019">
<rect width="224" height="6" fill="white" transform="translate(1007 44)"/>
</clipPath>
<clipPath id="clip39_1292_4019">
<rect x="123" width="240" height="180" rx="8" fill="white"/>
</clipPath>
<clipPath id="clip40_1292_4019">
<rect width="224" height="6" fill="white" transform="translate(131 44)"/>
</clipPath>
<clipPath id="clip41_1292_4019">
<rect width="16" height="4" fill="white" transform="translate(430 303)"/>
</clipPath>
<clipPath id="clip42_1292_4019">
<rect width="60" height="60" fill="white" transform="translate(1302 64)"/>
</clipPath>
</defs>
</svg>
