<svg width="1600" height="1100" viewBox="0 0 1600 1100" fill="none" xmlns="http://www.w3.org/2000/svg">
<g clip-path="url(#clip0_901_5194)">
<rect width="1600" height="1100" fill="white"/>
<g clip-path="url(#clip1_901_5194)">
<mask id="path-1-inside-1_901_5194" fill="white">
<path d="M0 0H1600V72H0V0Z"/>
</mask>
<path d="M0 0H1600V72H0V0Z" fill="white"/>
<g clip-path="url(#clip2_901_5194)">
<path d="M35.9998 17.625C30.4873 17.625 24.9748 18.5437 19.3311 20.3812C19.3311 33.375 19.3311 47.025 35.9998 54.375C52.6686 47.025 52.6686 33.375 52.6686 20.3812C47.0248 18.5437 41.5123 17.625 35.9998 17.625ZM39.2811 37.575V45.3188H32.5873V37.575H24.9748V30.8813H32.7186V23.1375H39.4123V30.8813H47.1561V37.575H39.2811V37.575Z" fill="#DC0018"/>
</g>
<mask id="path-4-inside-2_901_5194" fill="white">
<path d="M72 0H175V72H72V0Z"/>
</mask>
<path d="M175 0H174V72H175H176V0H175Z" fill="#D7D7D7" mask="url(#path-4-inside-2_901_5194)"/>
<rect x="72" y="18" width="91" height="6" fill="#848484"/>
<rect x="72" y="28" width="51" height="6" fill="#848484"/>
<rect x="72" y="38" width="61" height="6" fill="#848484"/>
<rect x="72" y="48" width="51" height="6" fill="#848484"/>
<rect x="191" y="24" width="24" height="24" fill="#848484"/>
<rect x="227" y="29" width="100" height="14" fill="#848484"/>
<g clip-path="url(#clip3_901_5194)">
<path d="M1572.25 36.3662V34.75H1571V36.625C1571 36.7907 1571.07 36.9497 1571.18 37.0669L1572.88 38.7588V39.75H1559.12V38.7588L1560.82 37.0669C1560.93 36.9497 1561 36.7907 1561 36.625V34.125C1561 33.2468 1561.23 32.3837 1561.67 31.6229C1562.11 30.8621 1562.74 30.2305 1563.5 29.792C1564.26 29.3534 1565.12 29.1233 1566 29.125C1566.88 29.1267 1567.74 29.3601 1568.5 29.8016V28.4042C1567.91 28.1408 1567.27 27.9729 1566.62 27.9068V26.625H1565.38V27.9068C1563.83 28.0635 1562.41 28.786 1561.37 29.9346C1560.33 31.0832 1559.75 32.5762 1559.75 34.125V36.3662L1558.06 38.0581C1557.94 38.1753 1557.88 38.3343 1557.88 38.5V40.375C1557.88 40.5408 1557.94 40.6997 1558.06 40.8169C1558.18 40.9342 1558.33 41 1558.5 41H1562.88V41.625C1562.88 42.4538 1563.2 43.2487 1563.79 43.8347C1564.38 44.4208 1565.17 44.75 1566 44.75C1566.83 44.75 1567.62 44.4208 1568.21 43.8347C1568.8 43.2487 1569.12 42.4538 1569.12 41.625V41H1573.5C1573.67 41 1573.82 40.9342 1573.94 40.8169C1574.06 40.6997 1574.12 40.5408 1574.12 40.375V38.5C1574.12 38.3343 1574.06 38.1753 1573.94 38.0581L1572.25 36.3662ZM1567.88 41.625C1567.88 42.1223 1567.68 42.5992 1567.33 42.9508C1566.97 43.3025 1566.5 43.5 1566 43.5C1565.5 43.5 1565.03 43.3025 1564.67 42.9508C1564.32 42.5992 1564.12 42.1223 1564.12 41.625V41H1567.88V41.625Z" fill="black"/>
<path d="M1572.25 33.5C1573.63 33.5 1574.75 32.3807 1574.75 31C1574.75 29.6193 1573.63 28.5 1572.25 28.5C1570.87 28.5 1569.75 29.6193 1569.75 31C1569.75 32.3807 1570.87 33.5 1572.25 33.5Z" fill="black"/>
</g>
</g>
<path d="M1600 72V68H0V72V76H1600V72Z" fill="#DC0018" mask="url(#path-1-inside-1_901_5194)"/>
<g clip-path="url(#clip4_901_5194)">
<mask id="path-14-inside-3_901_5194" fill="white">
<path d="M0 88H1600V140H0V88Z"/>
</mask>
<path d="M0 88H1600V140H0V88Z" fill="white"/>
<path d="M1600 140V138H0V140V142H1600V140Z" fill="#D9D9D9" mask="url(#path-14-inside-3_901_5194)"/>
<rect width="1600" height="52" transform="translate(0 88)" fill="white"/>
<rect width="1552" height="36" transform="translate(24 96)" fill="white"/>
<rect x="24" y="96" width="140" height="18" fill="#848484"/>
<g clip-path="url(#clip5_901_5194)">
<rect width="1600" height="960" transform="translate(0 140)" fill="#F2F4F6"/>
<rect width="1600" height="960" transform="translate(0 140)" fill="#F5F5F5"/>
<g clip-path="url(#clip6_901_5194)">
<rect x="24" y="162" width="110" height="12" fill="#171717"/>
<path fill-rule="evenodd" clip-rule="evenodd" d="M1320.5 158.25C1320.5 157.836 1320.84 157.5 1321.25 157.5H1340.75C1341.16 157.5 1341.5 157.836 1341.5 158.25V161.795C1341.5 161.977 1341.43 162.153 1341.31 162.29L1334.59 169.966V177.75C1334.59 178.164 1334.25 178.5 1333.84 178.5H1328.16C1327.75 178.5 1327.41 178.164 1327.41 177.75V169.966L1320.69 162.29C1320.57 162.153 1320.5 161.977 1320.5 161.795V158.25ZM1322 159V161.513L1328.73 169.19C1328.85 169.327 1328.91 169.502 1328.91 169.684V177H1333.09V169.684C1333.09 169.502 1333.15 169.327 1333.27 169.19L1340 161.513V159H1322Z" fill="#006699"/>
<g clip-path="url(#clip7_901_5194)">
<path d="M1361.25 159.75V176.25C1361.25 177.075 1361.92 177.75 1362.75 177.75H1370.25V176.25H1362.75V171H1370.25V169.5H1362.75V164.25H1370.25V165.75H1371.75V164.25H1379.25V165.75H1380.75V159.75C1380.75 158.925 1380.08 158.25 1379.25 158.25H1362.75C1361.92 158.25 1361.25 158.925 1361.25 159.75ZM1362.75 159.75H1379.25V162.75H1362.75V159.75Z" fill="#006699"/>
<path d="M1382.25 169.5H1379.69C1381.22 170.415 1382.25 172.088 1382.25 174C1382.25 176.895 1379.89 179.25 1377 179.25C1374.11 179.25 1371.75 176.895 1371.75 174C1371.75 172.597 1372.3 171.277 1373.29 170.287L1374.34 171.345C1373.64 172.05 1373.25 172.995 1373.25 174C1373.25 176.07 1374.93 177.75 1377 177.75C1379.07 177.75 1380.75 176.07 1380.75 174C1380.75 172.47 1379.82 171.15 1378.5 170.565V173.25H1377V168H1382.25V169.5Z" fill="#006699"/>
</g>
<g clip-path="url(#clip8_901_5194)">
<path d="M1417.25 158.75V163.25H1420C1420.27 163.25 1420.52 163.355 1420.71 163.543C1420.89 163.731 1421 163.985 1421 164.25V171.75C1421 172.015 1420.89 172.269 1420.71 172.457C1420.52 172.645 1420.27 172.75 1420 172.75H1417.25V177.25H1404.75V172.75H1402C1401.73 172.75 1401.48 172.645 1401.29 172.457C1401.11 172.269 1401 172.015 1401 171.75V164.25C1401 163.985 1401.11 163.731 1401.29 163.543C1401.48 163.355 1401.73 163.25 1402 163.25H1404.75V158.75H1417.25ZM1405.25 176.75H1416.75V168.25H1405.25V176.75ZM1401.5 172.25H1404.75V167.75H1417.25V172.25H1420.5V163.75H1401.5V172.25ZM1405.25 163.25H1416.75V159.25H1405.25V163.25Z" stroke="#006699"/>
</g>
<g clip-path="url(#clip9_901_5194)">
<path d="M1454.75 160.05H1460V161.55H1458.2V176.175C1458.2 177.039 1457.49 177.75 1456.62 177.75H1445.45C1444.59 177.75 1443.88 177.039 1443.88 176.175V161.55H1442V160.05H1447.25V156.75H1454.75V160.05ZM1445.38 161.55V176.175C1445.38 176.188 1445.38 176.207 1445.4 176.226C1445.42 176.244 1445.44 176.25 1445.45 176.25H1456.62C1456.64 176.25 1456.66 176.244 1456.68 176.226C1456.69 176.207 1456.7 176.188 1456.7 176.175V161.55H1445.38ZM1449.8 173.25H1448.3V164.55H1449.8V173.25ZM1453.7 173.25H1452.2V164.55H1453.7V173.25ZM1448.75 160.05H1453.25V158.25H1448.75V160.05Z" fill="#006699"/>
</g>
<path d="M1479 150V186" stroke="#171717"/>
<rect width="73" height="36" transform="translate(1503 150)" fill="#FF00FF"/>
<path d="M1526.28 169.835H1527.59C1527.52 170.464 1527.34 171.027 1527.05 171.523C1526.76 172.02 1526.35 172.414 1525.81 172.706C1525.28 172.993 1524.62 173.137 1523.82 173.137C1523.24 173.137 1522.7 173.027 1522.23 172.809C1521.75 172.59 1521.34 172.28 1521 171.879C1520.66 171.473 1520.4 170.988 1520.21 170.423C1520.03 169.853 1519.94 169.22 1519.94 168.522V167.531C1519.94 166.834 1520.03 166.203 1520.21 165.638C1520.4 165.068 1520.66 164.58 1521.01 164.175C1521.36 163.769 1521.78 163.457 1522.27 163.238C1522.77 163.02 1523.32 162.91 1523.93 162.91C1524.69 162.91 1525.32 163.051 1525.84 163.334C1526.36 163.617 1526.76 164.008 1527.05 164.51C1527.34 165.007 1527.52 165.583 1527.59 166.239H1526.28C1526.22 165.774 1526.1 165.376 1525.92 165.043C1525.75 164.706 1525.5 164.446 1525.19 164.264C1524.87 164.081 1524.45 163.99 1523.93 163.99C1523.49 163.99 1523.1 164.075 1522.77 164.243C1522.43 164.412 1522.15 164.651 1521.92 164.961C1521.7 165.271 1521.53 165.642 1521.42 166.075C1521.31 166.508 1521.25 166.989 1521.25 167.518V168.522C1521.25 169.01 1521.3 169.468 1521.4 169.896C1521.5 170.325 1521.66 170.701 1521.87 171.024C1522.08 171.348 1522.35 171.603 1522.67 171.79C1522.99 171.972 1523.38 172.063 1523.82 172.063C1524.38 172.063 1524.83 171.975 1525.16 171.797C1525.49 171.619 1525.74 171.364 1525.91 171.031C1526.08 170.699 1526.21 170.3 1526.28 169.835ZM1530.46 166.766V173H1529.2V165.604H1530.43L1530.46 166.766ZM1532.77 165.562L1532.77 166.738C1532.66 166.715 1532.56 166.702 1532.47 166.697C1532.37 166.688 1532.27 166.684 1532.15 166.684C1531.86 166.684 1531.6 166.729 1531.38 166.82C1531.16 166.911 1530.97 167.039 1530.81 167.203C1530.66 167.367 1530.53 167.563 1530.44 167.791C1530.36 168.014 1530.3 168.26 1530.27 168.529L1529.92 168.734C1529.92 168.288 1529.96 167.868 1530.05 167.477C1530.14 167.085 1530.28 166.738 1530.46 166.438C1530.65 166.132 1530.89 165.895 1531.17 165.727C1531.47 165.553 1531.81 165.467 1532.21 165.467C1532.3 165.467 1532.41 165.478 1532.53 165.501C1532.65 165.519 1532.73 165.54 1532.77 165.562ZM1536.88 173.137C1536.36 173.137 1535.89 173.05 1535.47 172.877C1535.06 172.699 1534.7 172.451 1534.4 172.132C1534.1 171.813 1533.88 171.435 1533.72 170.997C1533.56 170.56 1533.48 170.081 1533.48 169.562V169.274C1533.48 168.673 1533.57 168.137 1533.74 167.668C1533.92 167.194 1534.16 166.793 1534.47 166.465C1534.77 166.137 1535.12 165.888 1535.51 165.72C1535.9 165.551 1536.3 165.467 1536.71 165.467C1537.24 165.467 1537.7 165.558 1538.08 165.74C1538.47 165.923 1538.78 166.178 1539.03 166.506C1539.27 166.829 1539.46 167.212 1539.58 167.654C1539.69 168.092 1539.75 168.57 1539.75 169.09V169.657H1534.23V168.625H1538.49V168.529C1538.47 168.201 1538.4 167.882 1538.28 167.572C1538.17 167.262 1537.99 167.007 1537.74 166.807C1537.49 166.606 1537.14 166.506 1536.71 166.506C1536.42 166.506 1536.16 166.567 1535.92 166.69C1535.68 166.809 1535.47 166.987 1535.3 167.224C1535.12 167.461 1534.99 167.75 1534.89 168.092C1534.8 168.434 1534.75 168.828 1534.75 169.274V169.562C1534.75 169.912 1534.8 170.243 1534.89 170.553C1534.99 170.858 1535.14 171.127 1535.32 171.359C1535.51 171.592 1535.74 171.774 1536.01 171.906C1536.29 172.038 1536.6 172.104 1536.94 172.104C1537.39 172.104 1537.77 172.013 1538.08 171.831C1538.39 171.649 1538.66 171.405 1538.89 171.1L1539.66 171.708C1539.5 171.95 1539.29 172.18 1539.05 172.398C1538.8 172.617 1538.5 172.795 1538.14 172.932C1537.78 173.068 1537.36 173.137 1536.88 173.137ZM1545.59 171.735V167.928C1545.59 167.636 1545.53 167.383 1545.41 167.169C1545.3 166.95 1545.13 166.782 1544.89 166.663C1544.66 166.545 1544.37 166.485 1544.03 166.485C1543.71 166.485 1543.43 166.54 1543.19 166.649C1542.95 166.759 1542.77 166.902 1542.63 167.08C1542.5 167.258 1542.43 167.449 1542.43 167.654H1541.17C1541.17 167.39 1541.24 167.128 1541.37 166.868C1541.51 166.608 1541.71 166.374 1541.96 166.164C1542.22 165.95 1542.53 165.781 1542.89 165.658C1543.26 165.531 1543.66 165.467 1544.11 165.467C1544.65 165.467 1545.12 165.558 1545.53 165.74C1545.94 165.923 1546.27 166.198 1546.5 166.567C1546.74 166.932 1546.86 167.39 1546.86 167.941V171.387C1546.86 171.633 1546.88 171.895 1546.92 172.173C1546.96 172.451 1547.03 172.69 1547.12 172.891V173H1545.8C1545.73 172.854 1545.68 172.66 1545.65 172.419C1545.61 172.173 1545.59 171.945 1545.59 171.735ZM1545.81 168.516L1545.82 169.404H1544.54C1544.18 169.404 1543.86 169.434 1543.58 169.493C1543.3 169.548 1543.06 169.632 1542.87 169.746C1542.68 169.86 1542.53 170.004 1542.43 170.177C1542.33 170.345 1542.28 170.544 1542.28 170.771C1542.28 171.004 1542.33 171.216 1542.44 171.407C1542.54 171.599 1542.7 171.751 1542.91 171.865C1543.13 171.975 1543.39 172.029 1543.7 172.029C1544.08 172.029 1544.43 171.947 1544.72 171.783C1545.02 171.619 1545.25 171.419 1545.43 171.182C1545.6 170.945 1545.7 170.715 1545.71 170.491L1546.25 171.1C1546.22 171.291 1546.14 171.503 1545.99 171.735C1545.85 171.968 1545.66 172.191 1545.43 172.405C1545.19 172.615 1544.92 172.79 1544.59 172.932C1544.27 173.068 1543.91 173.137 1543.51 173.137C1543.01 173.137 1542.57 173.039 1542.19 172.843C1541.82 172.647 1541.53 172.385 1541.32 172.057C1541.11 171.724 1541.01 171.353 1541.01 170.942C1541.01 170.546 1541.09 170.197 1541.24 169.896C1541.4 169.591 1541.62 169.338 1541.91 169.138C1542.2 168.933 1542.56 168.778 1542.97 168.673C1543.38 168.568 1543.83 168.516 1544.34 168.516H1545.81ZM1551.94 165.604V166.574H1547.94V165.604H1551.94ZM1549.3 163.806H1550.56V171.168C1550.56 171.419 1550.6 171.608 1550.68 171.735C1550.75 171.863 1550.85 171.947 1550.98 171.988C1551.1 172.029 1551.23 172.05 1551.37 172.05C1551.48 172.05 1551.59 172.041 1551.7 172.022C1551.82 172 1551.91 171.981 1551.97 171.968L1551.98 173C1551.88 173.032 1551.74 173.062 1551.58 173.089C1551.42 173.121 1551.23 173.137 1551 173.137C1550.69 173.137 1550.4 173.075 1550.14 172.952C1549.88 172.829 1549.68 172.624 1549.52 172.337C1549.37 172.045 1549.3 171.653 1549.3 171.161V163.806ZM1556.49 173.137C1555.98 173.137 1555.51 173.05 1555.09 172.877C1554.68 172.699 1554.32 172.451 1554.02 172.132C1553.72 171.813 1553.5 171.435 1553.34 170.997C1553.18 170.56 1553.1 170.081 1553.1 169.562V169.274C1553.1 168.673 1553.19 168.137 1553.36 167.668C1553.54 167.194 1553.78 166.793 1554.09 166.465C1554.39 166.137 1554.74 165.888 1555.13 165.72C1555.51 165.551 1555.92 165.467 1556.33 165.467C1556.86 165.467 1557.31 165.558 1557.7 165.74C1558.08 165.923 1558.4 166.178 1558.65 166.506C1558.89 166.829 1559.08 167.212 1559.19 167.654C1559.31 168.092 1559.37 168.57 1559.37 169.09V169.657H1553.85V168.625H1558.11V168.529C1558.09 168.201 1558.02 167.882 1557.9 167.572C1557.79 167.262 1557.61 167.007 1557.36 166.807C1557.1 166.606 1556.76 166.506 1556.33 166.506C1556.04 166.506 1555.78 166.567 1555.54 166.69C1555.3 166.809 1555.09 166.987 1554.92 167.224C1554.74 167.461 1554.61 167.75 1554.51 168.092C1554.42 168.434 1554.37 168.828 1554.37 169.274V169.562C1554.37 169.912 1554.42 170.243 1554.51 170.553C1554.61 170.858 1554.76 171.127 1554.94 171.359C1555.13 171.592 1555.36 171.774 1555.63 171.906C1555.91 172.038 1556.22 172.104 1556.56 172.104C1557.01 172.104 1557.39 172.013 1557.7 171.831C1558.01 171.649 1558.28 171.405 1558.51 171.1L1559.28 171.708C1559.12 171.95 1558.91 172.18 1558.67 172.398C1558.42 172.617 1558.12 172.795 1557.76 172.932C1557.4 173.068 1556.98 173.137 1556.49 173.137Z" fill="white"/>
</g>
<g clip-path="url(#clip10_901_5194)">
<g clip-path="url(#clip11_901_5194)">
<rect width="40" height="409" transform="translate(24 196)" fill="white"/>
<rect width="40" height="40" transform="translate(24 196)" fill="#D9D9D9"/>
<rect x="36.5" y="208.5" width="15" height="15" fill="white"/>
<rect x="36.5" y="208.5" width="15" height="15" stroke="#757575"/>
<mask id="path-26-inside-4_901_5194" fill="white">
<path d="M24 236H64V277H24V236Z"/>
</mask>
<path d="M64 277V276H24V277V278H64V277Z" fill="#D7D7D7" mask="url(#path-26-inside-4_901_5194)"/>
<rect x="36.5" y="249" width="15" height="15" fill="white"/>
<rect x="36.5" y="249" width="15" height="15" stroke="#757575"/>
<mask id="path-29-inside-5_901_5194" fill="white">
<path d="M24 277H64V318H24V277Z"/>
</mask>
<path d="M64 318V317H24V318V319H64V318Z" fill="#D7D7D7" mask="url(#path-29-inside-5_901_5194)"/>
<rect x="36.5" y="290" width="15" height="15" fill="white"/>
<rect x="36.5" y="290" width="15" height="15" stroke="#757575"/>
<mask id="path-32-inside-6_901_5194" fill="white">
<path d="M24 318H64V359H24V318Z"/>
</mask>
<path d="M64 359V358H24V359V360H64V359Z" fill="#D7D7D7" mask="url(#path-32-inside-6_901_5194)"/>
<rect x="36.5" y="331" width="15" height="15" fill="white"/>
<rect x="36.5" y="331" width="15" height="15" stroke="#757575"/>
<mask id="path-35-inside-7_901_5194" fill="white">
<path d="M24 359H64V400H24V359Z"/>
</mask>
<path d="M64 400V399H24V400V401H64V400Z" fill="#D7D7D7" mask="url(#path-35-inside-7_901_5194)"/>
<rect x="36.5" y="372" width="15" height="15" fill="white"/>
<rect x="36.5" y="372" width="15" height="15" stroke="#757575"/>
<mask id="path-38-inside-8_901_5194" fill="white">
<path d="M24 400H64V441H24V400Z"/>
</mask>
<path d="M64 441V440H24V441V442H64V441Z" fill="#D7D7D7" mask="url(#path-38-inside-8_901_5194)"/>
<rect x="36.5" y="413" width="15" height="15" fill="white"/>
<rect x="36.5" y="413" width="15" height="15" stroke="#757575"/>
<mask id="path-41-inside-9_901_5194" fill="white">
<path d="M24 441H64V482H24V441Z"/>
</mask>
<path d="M64 482V481H24V482V483H64V482Z" fill="#D7D7D7" mask="url(#path-41-inside-9_901_5194)"/>
<rect x="36.5" y="454" width="15" height="15" fill="white"/>
<rect x="36.5" y="454" width="15" height="15" stroke="#757575"/>
<mask id="path-44-inside-10_901_5194" fill="white">
<path d="M24 482H64V523H24V482Z"/>
</mask>
<path d="M64 523V522H24V523V524H64V523Z" fill="#D7D7D7" mask="url(#path-44-inside-10_901_5194)"/>
<rect x="36.5" y="495" width="15" height="15" fill="white" stroke="#979797"/>
<mask id="path-47-inside-11_901_5194" fill="white">
<path d="M24 523H64V564H24V523Z"/>
</mask>
<path d="M64 564V563H24V564V565H64V564Z" fill="#D7D7D7" mask="url(#path-47-inside-11_901_5194)"/>
<rect x="36.5" y="536" width="15" height="15" fill="white" stroke="#979797"/>
<mask id="path-50-inside-12_901_5194" fill="white">
<path d="M24 564H64V605H24V564Z"/>
</mask>
<path d="M64 605V604H24V605V606H64V605Z" fill="#D7D7D7" mask="url(#path-50-inside-12_901_5194)"/>
<rect x="36.5" y="577" width="15" height="15" fill="white" stroke="#979797"/>
</g>
<g clip-path="url(#clip12_901_5194)">
<rect width="320" height="409" transform="translate(64 196)" fill="white"/>
<rect width="320" height="40" transform="translate(64 196)" fill="#D9D9D9"/>
<rect x="64" y="211" width="83" height="10" fill="#171717"/>
<mask id="path-54-inside-13_901_5194" fill="white">
<path d="M64 236H384V277H64V236Z"/>
</mask>
<path d="M384 277V276H64V277V278H384V277Z" fill="#D7D7D7" mask="url(#path-54-inside-13_901_5194)"/>
<rect x="64" y="251.5" width="186" height="10" fill="#979797"/>
<mask id="path-57-inside-14_901_5194" fill="white">
<path d="M64 277H384V318H64V277Z"/>
</mask>
<path d="M384 318V317H64V318V319H384V318Z" fill="#D7D7D7" mask="url(#path-57-inside-14_901_5194)"/>
<rect x="64" y="292.5" width="222" height="10" fill="#979797"/>
<mask id="path-60-inside-15_901_5194" fill="white">
<path d="M64 318H384V359H64V318Z"/>
</mask>
<path d="M384 359V358H64V359V360H384V359Z" fill="#D7D7D7" mask="url(#path-60-inside-15_901_5194)"/>
<rect x="64" y="333.5" width="142" height="10" fill="#979797"/>
<mask id="path-63-inside-16_901_5194" fill="white">
<path d="M64 359H384V400H64V359Z"/>
</mask>
<path d="M384 400V399H64V400V401H384V400Z" fill="#D7D7D7" mask="url(#path-63-inside-16_901_5194)"/>
<rect x="64" y="374.5" width="132" height="10" fill="#979797"/>
<mask id="path-66-inside-17_901_5194" fill="white">
<path d="M64 400H384V441H64V400Z"/>
</mask>
<path d="M384 441V440H64V441V442H384V441Z" fill="#D7D7D7" mask="url(#path-66-inside-17_901_5194)"/>
<rect x="64" y="415.5" width="186" height="10" fill="#979797"/>
<mask id="path-69-inside-18_901_5194" fill="white">
<path d="M64 441H384V482H64V441Z"/>
</mask>
<path d="M384 482V481H64V482V483H384V482Z" fill="#D7D7D7" mask="url(#path-69-inside-18_901_5194)"/>
<rect x="64" y="456.5" width="232" height="10" fill="#979797"/>
<mask id="path-72-inside-19_901_5194" fill="white">
<path d="M64 482H384V523H64V482Z"/>
</mask>
<path d="M384 523V522H64V523V524H384V523Z" fill="#D7D7D7" mask="url(#path-72-inside-19_901_5194)"/>
<rect x="64" y="497.5" width="157" height="10" fill="#979797"/>
<mask id="path-75-inside-20_901_5194" fill="white">
<path d="M64 523H384V564H64V523Z"/>
</mask>
<path d="M384 564V563H64V564V565H384V564Z" fill="#D7D7D7" mask="url(#path-75-inside-20_901_5194)"/>
<rect x="64" y="538.5" width="186" height="10" fill="#979797"/>
<mask id="path-78-inside-21_901_5194" fill="white">
<path d="M64 564H384V605H64V564Z"/>
</mask>
<path d="M384 605V604H64V605V606H384V605Z" fill="#D7D7D7" mask="url(#path-78-inside-21_901_5194)"/>
<rect x="64" y="579.5" width="242" height="10" fill="#979797"/>
</g>
<g clip-path="url(#clip13_901_5194)">
<rect width="384" height="409" transform="translate(384 196)" fill="white"/>
<rect width="384" height="40" transform="translate(384 196)" fill="#D9D9D9"/>
<rect x="396" y="211" width="83" height="10" fill="#171717"/>
<mask id="path-82-inside-22_901_5194" fill="white">
<path d="M384 236H768V277H384V236Z"/>
</mask>
<path d="M768 277V276H384V277V278H768V277Z" fill="#D7D7D7" mask="url(#path-82-inside-22_901_5194)"/>
<rect x="396" y="251.5" width="110" height="10" fill="#979797"/>
<mask id="path-85-inside-23_901_5194" fill="white">
<path d="M384 277H768V318H384V277Z"/>
</mask>
<path d="M768 318V317H384V318V319H768V318Z" fill="#D7D7D7" mask="url(#path-85-inside-23_901_5194)"/>
<rect x="396" y="292.5" width="76" height="10" fill="#979797"/>
<mask id="path-88-inside-24_901_5194" fill="white">
<path d="M384 318H768V359H384V318Z"/>
</mask>
<path d="M768 359V358H384V359V360H768V359Z" fill="#D7D7D7" mask="url(#path-88-inside-24_901_5194)"/>
<rect x="396" y="333.5" width="92" height="10" fill="#979797"/>
<mask id="path-91-inside-25_901_5194" fill="white">
<path d="M384 359H768V400H384V359Z"/>
</mask>
<path d="M768 400V399H384V400V401H768V400Z" fill="#D7D7D7" mask="url(#path-91-inside-25_901_5194)"/>
<rect x="396" y="374.5" width="120" height="10" fill="#979797"/>
<mask id="path-94-inside-26_901_5194" fill="white">
<path d="M384 400H768V441H384V400Z"/>
</mask>
<path d="M768 441V440H384V441V442H768V441Z" fill="#D7D7D7" mask="url(#path-94-inside-26_901_5194)"/>
<rect x="396" y="415.5" width="102" height="10" fill="#979797"/>
<mask id="path-97-inside-27_901_5194" fill="white">
<path d="M384 441H768V482H384V441Z"/>
</mask>
<path d="M768 482V481H384V482V483H768V482Z" fill="#D7D7D7" mask="url(#path-97-inside-27_901_5194)"/>
<rect x="396" y="456.5" width="90" height="10" fill="#979797"/>
<mask id="path-100-inside-28_901_5194" fill="white">
<path d="M384 482H768V523H384V482Z"/>
</mask>
<path d="M768 523V522H384V523V524H768V523Z" fill="#D7D7D7" mask="url(#path-100-inside-28_901_5194)"/>
<rect x="396" y="497.5" width="132" height="10" fill="#979797"/>
<mask id="path-103-inside-29_901_5194" fill="white">
<path d="M384 523H768V564H384V523Z"/>
</mask>
<path d="M768 564V563H384V564V565H768V564Z" fill="#D7D7D7" mask="url(#path-103-inside-29_901_5194)"/>
<rect x="396" y="538.5" width="76" height="10" fill="#979797"/>
<mask id="path-106-inside-30_901_5194" fill="white">
<path d="M384 564H768V605H384V564Z"/>
</mask>
<path d="M768 605V604H384V605V606H768V605Z" fill="#D7D7D7" mask="url(#path-106-inside-30_901_5194)"/>
<rect x="396" y="579.5" width="88" height="10" fill="#979797"/>
</g>
<g clip-path="url(#clip14_901_5194)">
<rect width="384" height="409" transform="translate(768 196)" fill="white"/>
<rect width="384" height="40" transform="translate(768 196)" fill="#D9D9D9"/>
<rect x="780" y="211" width="130" height="10" fill="#171717"/>
<mask id="path-110-inside-31_901_5194" fill="white">
<path d="M768 236H1152V277H768V236Z"/>
</mask>
<path d="M1152 277V276H768V277V278H1152V277Z" fill="#D7D7D7" mask="url(#path-110-inside-31_901_5194)"/>
<rect x="780" y="244.5" width="132" height="24" rx="12" fill="white"/>
<rect x="780" y="251.5" width="80" height="10" fill="#979797"/>
<mask id="path-114-inside-32_901_5194" fill="white">
<path d="M768 277H1152V318H768V277Z"/>
</mask>
<path d="M1152 318V317H768V318V319H1152V318Z" fill="#D7D7D7" mask="url(#path-114-inside-32_901_5194)"/>
<rect x="780" y="285.5" width="132" height="24" rx="12" fill="white"/>
<rect x="780" y="292.5" width="80" height="10" fill="#979797"/>
<mask id="path-118-inside-33_901_5194" fill="white">
<path d="M768 318H1152V359H768V318Z"/>
</mask>
<path d="M1152 359V358H768V359V360H1152V359Z" fill="#D7D7D7" mask="url(#path-118-inside-33_901_5194)"/>
<rect x="780" y="326.5" width="132" height="24" rx="12" fill="white"/>
<rect x="780" y="333.5" width="80" height="10" fill="#979797"/>
<mask id="path-122-inside-34_901_5194" fill="white">
<path d="M768 359H1152V400H768V359Z"/>
</mask>
<path d="M1152 400V399H768V400V401H1152V400Z" fill="#D7D7D7" mask="url(#path-122-inside-34_901_5194)"/>
<rect x="780" y="367.5" width="132" height="24" rx="12" fill="white"/>
<rect x="780" y="374.5" width="80" height="10" fill="#979797"/>
<mask id="path-126-inside-35_901_5194" fill="white">
<path d="M768 400H1152V441H768V400Z"/>
</mask>
<path d="M1152 441V440H768V441V442H1152V441Z" fill="#D7D7D7" mask="url(#path-126-inside-35_901_5194)"/>
<rect x="780" y="408.5" width="132" height="24" rx="12" fill="white"/>
<rect x="780" y="415.5" width="80" height="10" fill="#979797"/>
<mask id="path-130-inside-36_901_5194" fill="white">
<path d="M768 441H1152V482H768V441Z"/>
</mask>
<path d="M1152 482V481H768V482V483H1152V482Z" fill="#D7D7D7" mask="url(#path-130-inside-36_901_5194)"/>
<rect x="780" y="449.5" width="132" height="24" rx="12" fill="white"/>
<rect x="780" y="456.5" width="80" height="10" fill="#979797"/>
<mask id="path-134-inside-37_901_5194" fill="white">
<path d="M768 482H1152V523H768V482Z"/>
</mask>
<path d="M1152 523V522H768V523V524H1152V523Z" fill="#D7D7D7" mask="url(#path-134-inside-37_901_5194)"/>
<rect x="780" y="490.5" width="132" height="24" rx="12" fill="white"/>
<rect x="780" y="497.5" width="80" height="10" fill="#979797"/>
<mask id="path-138-inside-38_901_5194" fill="white">
<path d="M768 523H1152V564H768V523Z"/>
</mask>
<path d="M1152 564V563H768V564V565H1152V564Z" fill="#D7D7D7" mask="url(#path-138-inside-38_901_5194)"/>
<rect x="780" y="531.5" width="132" height="24" rx="12" fill="white"/>
<rect x="780" y="538.5" width="80" height="10" fill="#979797"/>
<mask id="path-142-inside-39_901_5194" fill="white">
<path d="M768 564H1152V605H768V564Z"/>
</mask>
<path d="M1152 605V604H768V605V606H1152V605Z" fill="#D7D7D7" mask="url(#path-142-inside-39_901_5194)"/>
<rect x="780" y="572.5" width="132" height="24" rx="12" fill="white"/>
<rect x="780" y="579.5" width="80" height="10" fill="#979797"/>
</g>
<g clip-path="url(#clip15_901_5194)">
<rect width="384" height="409" transform="translate(1152 196)" fill="white"/>
<rect width="384" height="40" transform="translate(1152 196)" fill="#D9D9D9"/>
<rect x="1164" y="211" width="110" height="10" fill="#171717"/>
<mask id="path-147-inside-40_901_5194" fill="white">
<path d="M1152 236H1536V277H1152V236Z"/>
</mask>
<path d="M1536 277V276H1152V277V278H1536V277Z" fill="#D7D7D7" mask="url(#path-147-inside-40_901_5194)"/>
<rect x="1164" y="251.5" width="83" height="10" fill="#979797"/>
<mask id="path-150-inside-41_901_5194" fill="white">
<path d="M1152 277H1536V318H1152V277Z"/>
</mask>
<path d="M1536 318V317H1152V318V319H1536V318Z" fill="#D7D7D7" mask="url(#path-150-inside-41_901_5194)"/>
<rect x="1164" y="292.5" width="83" height="10" fill="#979797"/>
<mask id="path-153-inside-42_901_5194" fill="white">
<path d="M1152 318H1536V359H1152V318Z"/>
</mask>
<path d="M1536 359V358H1152V359V360H1536V359Z" fill="#D7D7D7" mask="url(#path-153-inside-42_901_5194)"/>
<rect x="1164" y="333.5" width="83" height="10" fill="#979797"/>
<mask id="path-156-inside-43_901_5194" fill="white">
<path d="M1152 359H1536V400H1152V359Z"/>
</mask>
<path d="M1536 400V399H1152V400V401H1536V400Z" fill="#D7D7D7" mask="url(#path-156-inside-43_901_5194)"/>
<rect x="1164" y="374.5" width="83" height="10" fill="#979797"/>
<mask id="path-159-inside-44_901_5194" fill="white">
<path d="M1152 400H1536V441H1152V400Z"/>
</mask>
<path d="M1536 441V440H1152V441V442H1536V441Z" fill="#D7D7D7" mask="url(#path-159-inside-44_901_5194)"/>
<rect x="1164" y="415.5" width="83" height="10" fill="#979797"/>
<mask id="path-162-inside-45_901_5194" fill="white">
<path d="M1152 441H1536V482H1152V441Z"/>
</mask>
<path d="M1536 482V481H1152V482V483H1536V482Z" fill="#D7D7D7" mask="url(#path-162-inside-45_901_5194)"/>
<rect x="1164" y="456.5" width="83" height="10" fill="#979797"/>
<mask id="path-165-inside-46_901_5194" fill="white">
<path d="M1152 482H1536V523H1152V482Z"/>
</mask>
<path d="M1536 523V522H1152V523V524H1536V523Z" fill="#D7D7D7" mask="url(#path-165-inside-46_901_5194)"/>
<rect x="1164" y="497.5" width="83" height="10" fill="#979797"/>
<mask id="path-168-inside-47_901_5194" fill="white">
<path d="M1152 523H1536V564H1152V523Z"/>
</mask>
<path d="M1536 564V563H1152V564V565H1536V564Z" fill="#D7D7D7" mask="url(#path-168-inside-47_901_5194)"/>
<rect x="1164" y="538.5" width="83" height="10" fill="#979797"/>
<mask id="path-171-inside-48_901_5194" fill="white">
<path d="M1152 564H1536V605H1152V564Z"/>
</mask>
<path d="M1536 605V604H1152V605V606H1536V605Z" fill="#D7D7D7" mask="url(#path-171-inside-48_901_5194)"/>
<rect x="1164" y="579.5" width="83" height="10" fill="#979797"/>
</g>
<g clip-path="url(#clip16_901_5194)">
<rect width="40" height="409" transform="translate(1536 196)" fill="white"/>
<rect width="40" height="40" transform="translate(1536 196)" fill="#D9D9D9"/>
<mask id="path-174-inside-49_901_5194" fill="white">
<path d="M1536 236H1576V277H1536V236Z"/>
</mask>
<path d="M1576 277V276H1536V277V278H1576V277Z" fill="#D7D7D7" mask="url(#path-174-inside-49_901_5194)"/>
<g clip-path="url(#clip17_901_5194)">
<path d="M1550 255C1550.83 255 1551.5 255.672 1551.5 256.5C1551.5 257.328 1550.83 258 1550 258C1549.17 258 1548.5 257.328 1548.5 256.5C1548.5 255.672 1549.17 255 1550 255ZM1556 255C1556.83 255 1557.5 255.672 1557.5 256.5C1557.5 257.328 1556.83 258 1556 258C1555.17 258 1554.5 257.328 1554.5 256.5C1554.5 255.672 1555.17 255 1556 255ZM1562 255C1562.83 255 1563.5 255.672 1563.5 256.5C1563.5 257.328 1562.83 258 1562 258C1561.17 258 1560.5 257.328 1560.5 256.5C1560.5 255.672 1561.17 255 1562 255Z" fill="#979797"/>
</g>
<mask id="path-177-inside-50_901_5194" fill="white">
<path d="M1536 277H1576V318H1536V277Z"/>
</mask>
<path d="M1576 318V317H1536V318V319H1576V318Z" fill="#D7D7D7" mask="url(#path-177-inside-50_901_5194)"/>
<g clip-path="url(#clip18_901_5194)">
<path d="M1550 296C1550.83 296 1551.5 296.672 1551.5 297.5C1551.5 298.328 1550.83 299 1550 299C1549.17 299 1548.5 298.328 1548.5 297.5C1548.5 296.672 1549.17 296 1550 296ZM1556 296C1556.83 296 1557.5 296.672 1557.5 297.5C1557.5 298.328 1556.83 299 1556 299C1555.17 299 1554.5 298.328 1554.5 297.5C1554.5 296.672 1555.17 296 1556 296ZM1562 296C1562.83 296 1563.5 296.672 1563.5 297.5C1563.5 298.328 1562.83 299 1562 299C1561.17 299 1560.5 298.328 1560.5 297.5C1560.5 296.672 1561.17 296 1562 296Z" fill="#979797"/>
</g>
<mask id="path-180-inside-51_901_5194" fill="white">
<path d="M1536 318H1576V359H1536V318Z"/>
</mask>
<path d="M1576 359V358H1536V359V360H1576V359Z" fill="#D7D7D7" mask="url(#path-180-inside-51_901_5194)"/>
<g clip-path="url(#clip19_901_5194)">
<path d="M1550 337C1550.83 337 1551.5 337.672 1551.5 338.5C1551.5 339.328 1550.83 340 1550 340C1549.17 340 1548.5 339.328 1548.5 338.5C1548.5 337.672 1549.17 337 1550 337ZM1556 337C1556.83 337 1557.5 337.672 1557.5 338.5C1557.5 339.328 1556.83 340 1556 340C1555.17 340 1554.5 339.328 1554.5 338.5C1554.5 337.672 1555.17 337 1556 337ZM1562 337C1562.83 337 1563.5 337.672 1563.5 338.5C1563.5 339.328 1562.83 340 1562 340C1561.17 340 1560.5 339.328 1560.5 338.5C1560.5 337.672 1561.17 337 1562 337Z" fill="#979797"/>
</g>
<mask id="path-183-inside-52_901_5194" fill="white">
<path d="M1536 359H1576V400H1536V359Z"/>
</mask>
<path d="M1576 400V399H1536V400V401H1576V400Z" fill="#D7D7D7" mask="url(#path-183-inside-52_901_5194)"/>
<g clip-path="url(#clip20_901_5194)">
<path d="M1550 378C1550.83 378 1551.5 378.672 1551.5 379.5C1551.5 380.328 1550.83 381 1550 381C1549.17 381 1548.5 380.328 1548.5 379.5C1548.5 378.672 1549.17 378 1550 378ZM1556 378C1556.83 378 1557.5 378.672 1557.5 379.5C1557.5 380.328 1556.83 381 1556 381C1555.17 381 1554.5 380.328 1554.5 379.5C1554.5 378.672 1555.17 378 1556 378ZM1562 378C1562.83 378 1563.5 378.672 1563.5 379.5C1563.5 380.328 1562.83 381 1562 381C1561.17 381 1560.5 380.328 1560.5 379.5C1560.5 378.672 1561.17 378 1562 378Z" fill="#979797"/>
</g>
<mask id="path-186-inside-53_901_5194" fill="white">
<path d="M1536 400H1576V441H1536V400Z"/>
</mask>
<path d="M1576 441V440H1536V441V442H1576V441Z" fill="#D7D7D7" mask="url(#path-186-inside-53_901_5194)"/>
<g clip-path="url(#clip21_901_5194)">
<path d="M1550 419C1550.83 419 1551.5 419.672 1551.5 420.5C1551.5 421.328 1550.83 422 1550 422C1549.17 422 1548.5 421.328 1548.5 420.5C1548.5 419.672 1549.17 419 1550 419ZM1556 419C1556.83 419 1557.5 419.672 1557.5 420.5C1557.5 421.328 1556.83 422 1556 422C1555.17 422 1554.5 421.328 1554.5 420.5C1554.5 419.672 1555.17 419 1556 419ZM1562 419C1562.83 419 1563.5 419.672 1563.5 420.5C1563.5 421.328 1562.83 422 1562 422C1561.17 422 1560.5 421.328 1560.5 420.5C1560.5 419.672 1561.17 419 1562 419Z" fill="#979797"/>
</g>
<mask id="path-189-inside-54_901_5194" fill="white">
<path d="M1536 441H1576V482H1536V441Z"/>
</mask>
<path d="M1576 482V481H1536V482V483H1576V482Z" fill="#D7D7D7" mask="url(#path-189-inside-54_901_5194)"/>
<g clip-path="url(#clip22_901_5194)">
<path d="M1550 460C1550.83 460 1551.5 460.672 1551.5 461.5C1551.5 462.328 1550.83 463 1550 463C1549.17 463 1548.5 462.328 1548.5 461.5C1548.5 460.672 1549.17 460 1550 460ZM1556 460C1556.83 460 1557.5 460.672 1557.5 461.5C1557.5 462.328 1556.83 463 1556 463C1555.17 463 1554.5 462.328 1554.5 461.5C1554.5 460.672 1555.17 460 1556 460ZM1562 460C1562.83 460 1563.5 460.672 1563.5 461.5C1563.5 462.328 1562.83 463 1562 463C1561.17 463 1560.5 462.328 1560.5 461.5C1560.5 460.672 1561.17 460 1562 460Z" fill="#979797"/>
</g>
<mask id="path-192-inside-55_901_5194" fill="white">
<path d="M1536 482H1576V523H1536V482Z"/>
</mask>
<path d="M1576 523V522H1536V523V524H1576V523Z" fill="#D7D7D7" mask="url(#path-192-inside-55_901_5194)"/>
<g clip-path="url(#clip23_901_5194)">
<path d="M1550 501C1550.83 501 1551.5 501.672 1551.5 502.5C1551.5 503.328 1550.83 504 1550 504C1549.17 504 1548.5 503.328 1548.5 502.5C1548.5 501.672 1549.17 501 1550 501ZM1556 501C1556.83 501 1557.5 501.672 1557.5 502.5C1557.5 503.328 1556.83 504 1556 504C1555.17 504 1554.5 503.328 1554.5 502.5C1554.5 501.672 1555.17 501 1556 501ZM1562 501C1562.83 501 1563.5 501.672 1563.5 502.5C1563.5 503.328 1562.83 504 1562 504C1561.17 504 1560.5 503.328 1560.5 502.5C1560.5 501.672 1561.17 501 1562 501Z" fill="#979797"/>
</g>
<mask id="path-195-inside-56_901_5194" fill="white">
<path d="M1536 523H1576V564H1536V523Z"/>
</mask>
<path d="M1576 564V563H1536V564V565H1576V564Z" fill="#D7D7D7" mask="url(#path-195-inside-56_901_5194)"/>
<g clip-path="url(#clip24_901_5194)">
<path d="M1550 542C1550.83 542 1551.5 542.672 1551.5 543.5C1551.5 544.328 1550.83 545 1550 545C1549.17 545 1548.5 544.328 1548.5 543.5C1548.5 542.672 1549.17 542 1550 542ZM1556 542C1556.83 542 1557.5 542.672 1557.5 543.5C1557.5 544.328 1556.83 545 1556 545C1555.17 545 1554.5 544.328 1554.5 543.5C1554.5 542.672 1555.17 542 1556 542ZM1562 542C1562.83 542 1563.5 542.672 1563.5 543.5C1563.5 544.328 1562.83 545 1562 545C1561.17 545 1560.5 544.328 1560.5 543.5C1560.5 542.672 1561.17 542 1562 542Z" fill="#979797"/>
</g>
<mask id="path-198-inside-57_901_5194" fill="white">
<path d="M1536 564H1576V605H1536V564Z"/>
</mask>
<path d="M1576 605V604H1536V605V606H1576V605Z" fill="#D7D7D7" mask="url(#path-198-inside-57_901_5194)"/>
<g clip-path="url(#clip25_901_5194)">
<path d="M1550 583C1550.83 583 1551.5 583.672 1551.5 584.5C1551.5 585.328 1550.83 586 1550 586C1549.17 586 1548.5 585.328 1548.5 584.5C1548.5 583.672 1549.17 583 1550 583ZM1556 583C1556.83 583 1557.5 583.672 1557.5 584.5C1557.5 585.328 1556.83 586 1556 586C1555.17 586 1554.5 585.328 1554.5 584.5C1554.5 583.672 1555.17 583 1556 583ZM1562 583C1562.83 583 1563.5 583.672 1563.5 584.5C1563.5 585.328 1562.83 586 1562 586C1561.17 586 1560.5 585.328 1560.5 584.5C1560.5 583.672 1561.17 583 1562 583Z" fill="#979797"/>
</g>
</g>
</g>
</g>
</g>
</g>
<defs>
<clipPath id="clip0_901_5194">
<rect width="1600" height="1100" fill="white"/>
</clipPath>
<clipPath id="clip1_901_5194">
<path d="M0 0H1600V72H0V0Z" fill="white"/>
</clipPath>
<clipPath id="clip2_901_5194">
<rect width="42" height="42" fill="white" transform="translate(15 15)"/>
</clipPath>
<clipPath id="clip3_901_5194">
<rect width="20" height="20" fill="white" transform="translate(1556 26)"/>
</clipPath>
<clipPath id="clip4_901_5194">
<rect width="1600" height="1028" fill="white" transform="translate(0 72)"/>
</clipPath>
<clipPath id="clip5_901_5194">
<rect width="1600" height="960" fill="white" transform="translate(0 140)"/>
</clipPath>
<clipPath id="clip6_901_5194">
<rect width="1552" height="56" fill="white" transform="translate(24 140)"/>
</clipPath>
<clipPath id="clip7_901_5194">
<rect width="24" height="24" fill="white" transform="translate(1359 156)"/>
</clipPath>
<clipPath id="clip8_901_5194">
<rect width="24" height="24" fill="white" transform="translate(1399 156)"/>
</clipPath>
<clipPath id="clip9_901_5194">
<rect width="24" height="24" fill="white" transform="translate(1439 156)"/>
</clipPath>
<clipPath id="clip10_901_5194">
<rect width="1552" height="409" fill="white" transform="translate(24 196)"/>
</clipPath>
<clipPath id="clip11_901_5194">
<rect width="40" height="409" fill="white" transform="translate(24 196)"/>
</clipPath>
<clipPath id="clip12_901_5194">
<rect width="320" height="409" fill="white" transform="translate(64 196)"/>
</clipPath>
<clipPath id="clip13_901_5194">
<rect width="384" height="409" fill="white" transform="translate(384 196)"/>
</clipPath>
<clipPath id="clip14_901_5194">
<rect width="384" height="409" fill="white" transform="translate(768 196)"/>
</clipPath>
<clipPath id="clip15_901_5194">
<rect width="384" height="409" fill="white" transform="translate(1152 196)"/>
</clipPath>
<clipPath id="clip16_901_5194">
<rect width="40" height="409" fill="white" transform="translate(1536 196)"/>
</clipPath>
<clipPath id="clip17_901_5194">
<rect width="24" height="24" fill="white" transform="translate(1544 244.5)"/>
</clipPath>
<clipPath id="clip18_901_5194">
<rect width="24" height="24" fill="white" transform="translate(1544 285.5)"/>
</clipPath>
<clipPath id="clip19_901_5194">
<rect width="24" height="24" fill="white" transform="translate(1544 326.5)"/>
</clipPath>
<clipPath id="clip20_901_5194">
<rect width="24" height="24" fill="white" transform="translate(1544 367.5)"/>
</clipPath>
<clipPath id="clip21_901_5194">
<rect width="24" height="24" fill="white" transform="translate(1544 408.5)"/>
</clipPath>
<clipPath id="clip22_901_5194">
<rect width="24" height="24" fill="white" transform="translate(1544 449.5)"/>
</clipPath>
<clipPath id="clip23_901_5194">
<rect width="24" height="24" fill="white" transform="translate(1544 490.5)"/>
</clipPath>
<clipPath id="clip24_901_5194">
<rect width="24" height="24" fill="white" transform="translate(1544 531.5)"/>
</clipPath>
<clipPath id="clip25_901_5194">
<rect width="24" height="24" fill="white" transform="translate(1544 572.5)"/>
</clipPath>
</defs>
</svg>
