<svg width="1600" height="1100" viewBox="0 0 1600 1100" fill="none" xmlns="http://www.w3.org/2000/svg">
<g clip-path="url(#clip0_1316_6692)">
<rect width="1600" height="1100" fill="white"/>
<g clip-path="url(#clip1_1316_6692)">
<mask id="path-1-inside-1_1316_6692" fill="white">
<path d="M0 0H1600V72H0V0Z"/>
</mask>
<path d="M0 0H1600V72H0V0Z" fill="white"/>
<g clip-path="url(#clip2_1316_6692)">
<path d="M35.9998 17.625C30.4873 17.625 24.9748 18.5437 19.3311 20.3812C19.3311 33.375 19.3311 47.025 35.9998 54.375C52.6686 47.025 52.6686 33.375 52.6686 20.3812C47.0248 18.5437 41.5123 17.625 35.9998 17.625ZM39.2811 37.575V45.3188H32.5873V37.575H24.9748V30.8813H32.7186V23.1375H39.4123V30.8813H47.1561V37.575H39.2811V37.575Z" fill="#DC0018"/>
</g>
<mask id="path-4-inside-2_1316_6692" fill="white">
<path d="M72 0H175V72H72V0Z"/>
</mask>
<path d="M175 0H174V72H175H176V0H175Z" fill="#D7D7D7" mask="url(#path-4-inside-2_1316_6692)"/>
<rect x="72" y="18" width="91" height="6" fill="#848484"/>
<rect x="72" y="28" width="51" height="6" fill="#848484"/>
<rect x="72" y="38" width="61" height="6" fill="#848484"/>
<rect x="72" y="48" width="51" height="6" fill="#848484"/>
<rect x="191" y="24" width="24" height="24" fill="#848484"/>
<rect x="227" y="29" width="100" height="14" fill="#848484"/>
<g clip-path="url(#clip3_1316_6692)">
<path d="M1572.25 36.3662V34.75H1571V36.625C1571 36.7907 1571.07 36.9497 1571.18 37.0669L1572.88 38.7588V39.75H1559.12V38.7588L1560.82 37.0669C1560.93 36.9497 1561 36.7907 1561 36.625V34.125C1561 33.2468 1561.23 32.3837 1561.67 31.6229C1562.11 30.8621 1562.74 30.2305 1563.5 29.792C1564.26 29.3534 1565.12 29.1233 1566 29.125C1566.88 29.1267 1567.74 29.3601 1568.5 29.8016V28.4042C1567.91 28.1408 1567.27 27.9729 1566.62 27.9068V26.625H1565.38V27.9068C1563.83 28.0635 1562.41 28.786 1561.37 29.9346C1560.33 31.0832 1559.75 32.5762 1559.75 34.125V36.3662L1558.06 38.0581C1557.94 38.1753 1557.88 38.3343 1557.88 38.5V40.375C1557.88 40.5408 1557.94 40.6997 1558.06 40.8169C1558.18 40.9342 1558.33 41 1558.5 41H1562.88V41.625C1562.88 42.4538 1563.2 43.2487 1563.79 43.8347C1564.38 44.4208 1565.17 44.75 1566 44.75C1566.83 44.75 1567.62 44.4208 1568.21 43.8347C1568.8 43.2487 1569.12 42.4538 1569.12 41.625V41H1573.5C1573.67 41 1573.82 40.9342 1573.94 40.8169C1574.06 40.6997 1574.12 40.5408 1574.12 40.375V38.5C1574.12 38.3343 1574.06 38.1753 1573.94 38.0581L1572.25 36.3662ZM1567.88 41.625C1567.88 42.1223 1567.68 42.5992 1567.33 42.9508C1566.97 43.3025 1566.5 43.5 1566 43.5C1565.5 43.5 1565.03 43.3025 1564.67 42.9508C1564.32 42.5992 1564.12 42.1223 1564.12 41.625V41H1567.88V41.625Z" fill="black"/>
<path d="M1572.25 33.5C1573.63 33.5 1574.75 32.3807 1574.75 31C1574.75 29.6193 1573.63 28.5 1572.25 28.5C1570.87 28.5 1569.75 29.6193 1569.75 31C1569.75 32.3807 1570.87 33.5 1572.25 33.5Z" fill="black"/>
</g>
</g>
<path d="M1600 72V68H0V72V76H1600V72Z" fill="#DC0018" mask="url(#path-1-inside-1_1316_6692)"/>
<g clip-path="url(#clip4_1316_6692)">
<mask id="path-14-inside-3_1316_6692" fill="white">
<path d="M0 88H1600V140H0V88Z"/>
</mask>
<path d="M0 88H1600V140H0V88Z" fill="white"/>
<path d="M1600 140V138H0V140V142H1600V140Z" fill="#D9D9D9" mask="url(#path-14-inside-3_1316_6692)"/>
<rect width="1600" height="52" transform="translate(0 88)" fill="white"/>
<rect width="1552" height="36" transform="translate(24 96)" fill="white"/>
<rect x="24" y="96" width="140" height="18" fill="#848484"/>
<g clip-path="url(#clip5_1316_6692)">
<rect width="1600" height="960" transform="translate(0 140)" fill="#F2F4F6"/>
<rect width="1600" height="960" transform="translate(0 140)" fill="#F5F5F5"/>
<g clip-path="url(#clip6_1316_6692)">
<rect x="24" y="162" width="110" height="12" fill="#171717"/>
<path fill-rule="evenodd" clip-rule="evenodd" d="M1319.5 158.25C1319.5 157.836 1319.84 157.5 1320.25 157.5H1339.75C1340.16 157.5 1340.5 157.836 1340.5 158.25V161.795C1340.5 161.977 1340.43 162.153 1340.31 162.29L1333.59 169.966V177.75C1333.59 178.164 1333.25 178.5 1332.84 178.5H1327.16C1326.75 178.5 1326.41 178.164 1326.41 177.75V169.966L1319.69 162.29C1319.57 162.153 1319.5 161.977 1319.5 161.795V158.25ZM1321 159V161.513L1327.73 169.19C1327.85 169.327 1327.91 169.502 1327.91 169.684V177H1332.09V169.684C1332.09 169.502 1332.15 169.327 1332.27 169.19L1339 161.513V159H1321Z" fill="#006699"/>
<g clip-path="url(#clip7_1316_6692)">
<path d="M1360.25 159.75V176.25C1360.25 177.075 1360.92 177.75 1361.75 177.75H1369.25V176.25H1361.75V171H1369.25V169.5H1361.75V164.25H1369.25V165.75H1370.75V164.25H1378.25V165.75H1379.75V159.75C1379.75 158.925 1379.08 158.25 1378.25 158.25H1361.75C1360.92 158.25 1360.25 158.925 1360.25 159.75ZM1361.75 159.75H1378.25V162.75H1361.75V159.75Z" fill="#006699"/>
<path d="M1381.25 169.5H1378.69C1380.22 170.415 1381.25 172.088 1381.25 174C1381.25 176.895 1378.89 179.25 1376 179.25C1373.11 179.25 1370.75 176.895 1370.75 174C1370.75 172.597 1371.3 171.277 1372.29 170.287L1373.34 171.345C1372.64 172.05 1372.25 172.995 1372.25 174C1372.25 176.07 1373.93 177.75 1376 177.75C1378.07 177.75 1379.75 176.07 1379.75 174C1379.75 172.47 1378.82 171.15 1377.5 170.565V173.25H1376V168H1381.25V169.5Z" fill="#006699"/>
</g>
<g clip-path="url(#clip8_1316_6692)">
<path d="M1416.25 158.75V163.25H1419C1419.27 163.25 1419.52 163.355 1419.71 163.543C1419.89 163.731 1420 163.985 1420 164.25V171.75C1420 172.015 1419.89 172.269 1419.71 172.457C1419.52 172.645 1419.27 172.75 1419 172.75H1416.25V177.25H1403.75V172.75H1401C1400.73 172.75 1400.48 172.645 1400.29 172.457C1400.11 172.269 1400 172.015 1400 171.75V164.25C1400 163.985 1400.11 163.731 1400.29 163.543C1400.48 163.355 1400.73 163.25 1401 163.25H1403.75V158.75H1416.25ZM1404.25 176.75H1415.75V168.25H1404.25V176.75ZM1400.5 172.25H1403.75V167.75H1416.25V172.25H1419.5V163.75H1400.5V172.25ZM1404.25 163.25H1415.75V159.25H1404.25V163.25Z" stroke="#006699"/>
</g>
<g clip-path="url(#clip9_1316_6692)">
<path d="M1453.75 160.05H1459V161.55H1457.2V176.175C1457.2 177.039 1456.49 177.75 1455.62 177.75H1444.45C1443.59 177.75 1442.88 177.039 1442.88 176.175V161.55H1441V160.05H1446.25V156.75H1453.75V160.05ZM1444.38 161.55V176.175C1444.38 176.188 1444.38 176.207 1444.4 176.226C1444.42 176.244 1444.44 176.25 1444.45 176.25H1455.62C1455.64 176.25 1455.66 176.244 1455.68 176.226C1455.69 176.207 1455.7 176.188 1455.7 176.175V161.55H1444.38ZM1448.8 173.25H1447.3V164.55H1448.8V173.25ZM1452.7 173.25H1451.2V164.55H1452.7V173.25ZM1447.75 160.05H1452.25V158.25H1447.75V160.05Z" fill="#006699"/>
</g>
<path d="M1478 150V186" stroke="#171717"/>
<rect x="1503" y="151" width="72" height="34" fill="white"/>
<rect x="1503" y="151" width="72" height="34" stroke="#006699" stroke-width="2"/>
<path d="M1525.3 169.76H1527.01C1526.96 170.411 1526.77 170.993 1526.46 171.503C1526.15 172.009 1525.72 172.408 1525.16 172.699C1524.6 172.991 1523.92 173.137 1523.11 173.137C1522.5 173.137 1521.94 173.027 1521.45 172.809C1520.96 172.585 1520.54 172.271 1520.19 171.865C1519.84 171.455 1519.57 170.961 1519.38 170.382C1519.2 169.803 1519.11 169.156 1519.11 168.44V167.613C1519.11 166.898 1519.2 166.251 1519.39 165.672C1519.58 165.093 1519.85 164.599 1520.21 164.188C1520.56 163.774 1520.99 163.457 1521.49 163.238C1521.99 163.02 1522.55 162.91 1523.17 162.91C1523.97 162.91 1524.64 163.056 1525.18 163.348C1525.73 163.639 1526.16 164.043 1526.46 164.558C1526.76 165.073 1526.95 165.663 1527.02 166.328H1525.31C1525.26 165.9 1525.16 165.533 1525.01 165.228C1524.86 164.922 1524.63 164.69 1524.34 164.53C1524.04 164.366 1523.65 164.284 1523.17 164.284C1522.78 164.284 1522.44 164.357 1522.15 164.503C1521.86 164.649 1521.61 164.863 1521.42 165.146C1521.22 165.428 1521.07 165.777 1520.97 166.191C1520.88 166.602 1520.83 167.071 1520.83 167.6V168.44C1520.83 168.942 1520.87 169.397 1520.96 169.808C1521.05 170.213 1521.19 170.562 1521.37 170.854C1521.56 171.145 1521.79 171.371 1522.08 171.53C1522.37 171.69 1522.71 171.77 1523.11 171.77C1523.6 171.77 1524 171.692 1524.3 171.537C1524.6 171.382 1524.83 171.157 1524.99 170.86C1525.15 170.56 1525.25 170.193 1525.3 169.76ZM1530.06 167.012V173H1528.41V165.604H1529.98L1530.06 167.012ZM1532.32 165.556L1532.31 167.087C1532.21 167.069 1532.1 167.055 1531.98 167.046C1531.87 167.037 1531.75 167.032 1531.64 167.032C1531.36 167.032 1531.11 167.073 1530.89 167.155C1530.68 167.233 1530.5 167.347 1530.35 167.497C1530.21 167.643 1530.1 167.821 1530.02 168.03C1529.95 168.24 1529.9 168.475 1529.89 168.734L1529.51 168.762C1529.51 168.297 1529.56 167.866 1529.65 167.47C1529.74 167.073 1529.88 166.725 1530.06 166.424C1530.25 166.123 1530.48 165.888 1530.76 165.72C1531.04 165.551 1531.36 165.467 1531.73 165.467C1531.83 165.467 1531.94 165.476 1532.05 165.494C1532.17 165.512 1532.26 165.533 1532.32 165.556ZM1536.48 173.137C1535.93 173.137 1535.44 173.048 1534.99 172.87C1534.56 172.688 1534.18 172.435 1533.87 172.111C1533.57 171.788 1533.33 171.407 1533.17 170.97C1533 170.532 1532.92 170.061 1532.92 169.555V169.281C1532.92 168.702 1533.01 168.178 1533.18 167.709C1533.34 167.24 1533.58 166.839 1533.88 166.506C1534.18 166.169 1534.54 165.911 1534.95 165.733C1535.36 165.556 1535.8 165.467 1536.28 165.467C1536.81 165.467 1537.27 165.556 1537.67 165.733C1538.06 165.911 1538.39 166.162 1538.65 166.485C1538.92 166.804 1539.11 167.185 1539.24 167.627C1539.37 168.069 1539.44 168.557 1539.44 169.09V169.794H1533.72V168.611H1537.81V168.481C1537.8 168.185 1537.74 167.907 1537.63 167.647C1537.53 167.388 1537.37 167.178 1537.15 167.019C1536.93 166.859 1536.64 166.779 1536.27 166.779C1536 166.779 1535.76 166.839 1535.54 166.957C1535.33 167.071 1535.16 167.237 1535.01 167.456C1534.87 167.675 1534.76 167.939 1534.69 168.249C1534.61 168.554 1534.58 168.898 1534.58 169.281V169.555C1534.58 169.878 1534.62 170.179 1534.71 170.457C1534.8 170.73 1534.93 170.97 1535.1 171.175C1535.28 171.38 1535.49 171.542 1535.73 171.66C1535.98 171.774 1536.26 171.831 1536.57 171.831C1536.97 171.831 1537.32 171.751 1537.63 171.592C1537.94 171.432 1538.21 171.207 1538.44 170.915L1539.31 171.756C1539.15 171.988 1538.94 172.212 1538.69 172.426C1538.43 172.635 1538.12 172.806 1537.75 172.938C1537.38 173.071 1536.96 173.137 1536.48 173.137ZM1544.89 171.517V167.989C1544.89 167.725 1544.84 167.497 1544.75 167.306C1544.65 167.114 1544.51 166.966 1544.31 166.861C1544.12 166.757 1543.88 166.704 1543.59 166.704C1543.32 166.704 1543.09 166.75 1542.89 166.841C1542.69 166.932 1542.54 167.055 1542.43 167.21C1542.32 167.365 1542.27 167.54 1542.27 167.736H1540.63C1540.63 167.445 1540.7 167.162 1540.84 166.889C1540.98 166.615 1541.19 166.371 1541.45 166.157C1541.72 165.943 1542.04 165.774 1542.42 165.651C1542.79 165.528 1543.21 165.467 1543.68 165.467C1544.23 165.467 1544.72 165.56 1545.15 165.747C1545.59 165.934 1545.92 166.216 1546.17 166.595C1546.42 166.968 1546.55 167.438 1546.55 168.003V171.291C1546.55 171.628 1546.57 171.931 1546.62 172.2C1546.67 172.465 1546.74 172.695 1546.83 172.891V173H1545.14C1545.06 172.822 1545 172.597 1544.95 172.323C1544.91 172.045 1544.89 171.776 1544.89 171.517ZM1545.13 168.502L1545.15 169.521H1543.96C1543.66 169.521 1543.39 169.55 1543.16 169.609C1542.92 169.664 1542.73 169.746 1542.58 169.855C1542.42 169.965 1542.3 170.097 1542.23 170.252C1542.15 170.407 1542.11 170.582 1542.11 170.778C1542.11 170.974 1542.16 171.154 1542.25 171.318C1542.34 171.478 1542.47 171.603 1542.64 171.694C1542.82 171.785 1543.04 171.831 1543.29 171.831C1543.62 171.831 1543.92 171.763 1544.17 171.626C1544.42 171.485 1544.62 171.314 1544.77 171.113C1544.92 170.908 1544.99 170.715 1545 170.532L1545.54 171.264C1545.48 171.451 1545.39 171.651 1545.25 171.865C1545.12 172.079 1544.95 172.285 1544.74 172.48C1544.53 172.672 1544.27 172.829 1543.98 172.952C1543.68 173.075 1543.35 173.137 1542.96 173.137C1542.48 173.137 1542.05 173.041 1541.67 172.85C1541.29 172.654 1541 172.392 1540.78 172.063C1540.57 171.731 1540.46 171.355 1540.46 170.936C1540.46 170.544 1540.54 170.197 1540.68 169.896C1540.83 169.591 1541.05 169.336 1541.34 169.131C1541.63 168.926 1541.99 168.771 1542.4 168.666C1542.82 168.557 1543.3 168.502 1543.84 168.502H1545.13ZM1551.66 165.604V166.807H1547.49V165.604H1551.66ZM1548.69 163.792H1550.34V170.956C1550.34 171.184 1550.37 171.359 1550.44 171.482C1550.5 171.601 1550.6 171.681 1550.72 171.722C1550.84 171.763 1550.97 171.783 1551.13 171.783C1551.25 171.783 1551.36 171.776 1551.46 171.763C1551.57 171.749 1551.65 171.735 1551.71 171.722L1551.72 172.979C1551.58 173.021 1551.43 173.057 1551.24 173.089C1551.07 173.121 1550.86 173.137 1550.63 173.137C1550.25 173.137 1549.91 173.071 1549.62 172.938C1549.33 172.802 1549.1 172.581 1548.94 172.275C1548.78 171.97 1548.69 171.564 1548.69 171.059V163.792ZM1556.19 173.137C1555.65 173.137 1555.15 173.048 1554.71 172.87C1554.27 172.688 1553.9 172.435 1553.59 172.111C1553.28 171.788 1553.05 171.407 1552.88 170.97C1552.72 170.532 1552.64 170.061 1552.64 169.555V169.281C1552.64 168.702 1552.72 168.178 1552.89 167.709C1553.06 167.24 1553.29 166.839 1553.59 166.506C1553.9 166.169 1554.25 165.911 1554.66 165.733C1555.07 165.556 1555.52 165.467 1555.99 165.467C1556.52 165.467 1556.99 165.556 1557.38 165.733C1557.78 165.911 1558.11 166.162 1558.37 166.485C1558.63 166.804 1558.83 167.185 1558.95 167.627C1559.09 168.069 1559.15 168.557 1559.15 169.09V169.794H1553.44V168.611H1557.53V168.481C1557.52 168.185 1557.46 167.907 1557.35 167.647C1557.24 167.388 1557.08 167.178 1556.86 167.019C1556.64 166.859 1556.35 166.779 1555.99 166.779C1555.71 166.779 1555.47 166.839 1555.26 166.957C1555.05 167.071 1554.87 167.237 1554.73 167.456C1554.59 167.675 1554.48 167.939 1554.4 168.249C1554.33 168.554 1554.29 168.898 1554.29 169.281V169.555C1554.29 169.878 1554.34 170.179 1554.42 170.457C1554.51 170.73 1554.65 170.97 1554.82 171.175C1554.99 171.38 1555.2 171.542 1555.45 171.66C1555.69 171.774 1555.97 171.831 1556.29 171.831C1556.68 171.831 1557.04 171.751 1557.35 171.592C1557.66 171.432 1557.93 171.207 1558.15 170.915L1559.02 171.756C1558.86 171.988 1558.66 172.212 1558.4 172.426C1558.15 172.635 1557.83 172.806 1557.46 172.938C1557.1 173.071 1556.68 173.137 1556.19 173.137Z" fill="#006699"/>
</g>
<g clip-path="url(#clip10_1316_6692)">
<g clip-path="url(#clip11_1316_6692)">
<rect width="40" height="409" transform="translate(24 196)" fill="white"/>
<rect width="40" height="40" transform="translate(24 196)" fill="#D9D9D9"/>
<rect x="36.5" y="208.5" width="15" height="15" fill="white"/>
<rect x="36.5" y="208.5" width="15" height="15" stroke="#757575"/>
<mask id="path-27-inside-4_1316_6692" fill="white">
<path d="M24 236H64V277H24V236Z"/>
</mask>
<path d="M64 277V276H24V277V278H64V277Z" fill="#D7D7D7" mask="url(#path-27-inside-4_1316_6692)"/>
<rect x="36.5" y="249" width="15" height="15" fill="white"/>
<rect x="36.5" y="249" width="15" height="15" stroke="#757575"/>
<mask id="path-30-inside-5_1316_6692" fill="white">
<path d="M24 277H64V318H24V277Z"/>
</mask>
<path d="M64 318V317H24V318V319H64V318Z" fill="#D7D7D7" mask="url(#path-30-inside-5_1316_6692)"/>
<rect x="36.5" y="290" width="15" height="15" fill="white"/>
<rect x="36.5" y="290" width="15" height="15" stroke="#757575"/>
<mask id="path-33-inside-6_1316_6692" fill="white">
<path d="M24 318H64V359H24V318Z"/>
</mask>
<path d="M64 359V358H24V359V360H64V359Z" fill="#D7D7D7" mask="url(#path-33-inside-6_1316_6692)"/>
<rect x="36.5" y="331" width="15" height="15" fill="white"/>
<rect x="36.5" y="331" width="15" height="15" stroke="#757575"/>
<mask id="path-36-inside-7_1316_6692" fill="white">
<path d="M24 359H64V400H24V359Z"/>
</mask>
<path d="M64 400V399H24V400V401H64V400Z" fill="#D7D7D7" mask="url(#path-36-inside-7_1316_6692)"/>
<rect x="36.5" y="372" width="15" height="15" fill="white"/>
<rect x="36.5" y="372" width="15" height="15" stroke="#757575"/>
<mask id="path-39-inside-8_1316_6692" fill="white">
<path d="M24 400H64V441H24V400Z"/>
</mask>
<path d="M64 441V440H24V441V442H64V441Z" fill="#D7D7D7" mask="url(#path-39-inside-8_1316_6692)"/>
<rect x="36.5" y="413" width="15" height="15" fill="white"/>
<rect x="36.5" y="413" width="15" height="15" stroke="#757575"/>
<mask id="path-42-inside-9_1316_6692" fill="white">
<path d="M24 441H64V482H24V441Z"/>
</mask>
<path d="M64 482V481H24V482V483H64V482Z" fill="#D7D7D7" mask="url(#path-42-inside-9_1316_6692)"/>
<rect x="36.5" y="454" width="15" height="15" fill="white"/>
<rect x="36.5" y="454" width="15" height="15" stroke="#757575"/>
<mask id="path-45-inside-10_1316_6692" fill="white">
<path d="M24 482H64V523H24V482Z"/>
</mask>
<path d="M64 523V522H24V523V524H64V523Z" fill="#D7D7D7" mask="url(#path-45-inside-10_1316_6692)"/>
<rect x="36.5" y="495" width="15" height="15" fill="white" stroke="#979797"/>
<mask id="path-48-inside-11_1316_6692" fill="white">
<path d="M24 523H64V564H24V523Z"/>
</mask>
<path d="M64 564V563H24V564V565H64V564Z" fill="#D7D7D7" mask="url(#path-48-inside-11_1316_6692)"/>
<rect x="36.5" y="536" width="15" height="15" fill="white" stroke="#979797"/>
<mask id="path-51-inside-12_1316_6692" fill="white">
<path d="M24 564H64V605H24V564Z"/>
</mask>
<path d="M64 605V604H24V605V606H64V605Z" fill="#D7D7D7" mask="url(#path-51-inside-12_1316_6692)"/>
<rect x="36.5" y="577" width="15" height="15" fill="white" stroke="#979797"/>
</g>
<g clip-path="url(#clip12_1316_6692)">
<rect width="320" height="409" transform="translate(64 196)" fill="white"/>
<rect width="320" height="40" transform="translate(64 196)" fill="#D9D9D9"/>
<rect x="64" y="211" width="83" height="10" fill="#171717"/>
<mask id="path-55-inside-13_1316_6692" fill="white">
<path d="M64 236H384V277H64V236Z"/>
</mask>
<path d="M384 277V276H64V277V278H384V277Z" fill="#D7D7D7" mask="url(#path-55-inside-13_1316_6692)"/>
<rect x="64" y="251.5" width="186" height="10" fill="#979797"/>
<mask id="path-58-inside-14_1316_6692" fill="white">
<path d="M64 277H384V318H64V277Z"/>
</mask>
<path d="M384 318V317H64V318V319H384V318Z" fill="#D7D7D7" mask="url(#path-58-inside-14_1316_6692)"/>
<rect x="64" y="292.5" width="222" height="10" fill="#979797"/>
<mask id="path-61-inside-15_1316_6692" fill="white">
<path d="M64 318H384V359H64V318Z"/>
</mask>
<path d="M384 359V358H64V359V360H384V359Z" fill="#D7D7D7" mask="url(#path-61-inside-15_1316_6692)"/>
<rect x="64" y="333.5" width="142" height="10" fill="#979797"/>
<mask id="path-64-inside-16_1316_6692" fill="white">
<path d="M64 359H384V400H64V359Z"/>
</mask>
<path d="M384 400V399H64V400V401H384V400Z" fill="#D7D7D7" mask="url(#path-64-inside-16_1316_6692)"/>
<rect x="64" y="374.5" width="132" height="10" fill="#979797"/>
<mask id="path-67-inside-17_1316_6692" fill="white">
<path d="M64 400H384V441H64V400Z"/>
</mask>
<path d="M384 441V440H64V441V442H384V441Z" fill="#D7D7D7" mask="url(#path-67-inside-17_1316_6692)"/>
<rect x="64" y="415.5" width="186" height="10" fill="#979797"/>
<mask id="path-70-inside-18_1316_6692" fill="white">
<path d="M64 441H384V482H64V441Z"/>
</mask>
<path d="M384 482V481H64V482V483H384V482Z" fill="#D7D7D7" mask="url(#path-70-inside-18_1316_6692)"/>
<rect x="64" y="456.5" width="232" height="10" fill="#979797"/>
<mask id="path-73-inside-19_1316_6692" fill="white">
<path d="M64 482H384V523H64V482Z"/>
</mask>
<path d="M384 523V522H64V523V524H384V523Z" fill="#D7D7D7" mask="url(#path-73-inside-19_1316_6692)"/>
<rect x="64" y="497.5" width="157" height="10" fill="#979797"/>
<mask id="path-76-inside-20_1316_6692" fill="white">
<path d="M64 523H384V564H64V523Z"/>
</mask>
<path d="M384 564V563H64V564V565H384V564Z" fill="#D7D7D7" mask="url(#path-76-inside-20_1316_6692)"/>
<rect x="64" y="538.5" width="186" height="10" fill="#979797"/>
<mask id="path-79-inside-21_1316_6692" fill="white">
<path d="M64 564H384V605H64V564Z"/>
</mask>
<path d="M384 605V604H64V605V606H384V605Z" fill="#D7D7D7" mask="url(#path-79-inside-21_1316_6692)"/>
<rect x="64" y="579.5" width="242" height="10" fill="#979797"/>
</g>
<g clip-path="url(#clip13_1316_6692)">
<rect width="384" height="409" transform="translate(384 196)" fill="white"/>
<rect width="384" height="40" transform="translate(384 196)" fill="#D9D9D9"/>
<rect x="396" y="211" width="83" height="10" fill="#171717"/>
<mask id="path-83-inside-22_1316_6692" fill="white">
<path d="M384 236H768V277H384V236Z"/>
</mask>
<path d="M768 277V276H384V277V278H768V277Z" fill="#D7D7D7" mask="url(#path-83-inside-22_1316_6692)"/>
<rect x="396" y="251.5" width="110" height="10" fill="#979797"/>
<mask id="path-86-inside-23_1316_6692" fill="white">
<path d="M384 277H768V318H384V277Z"/>
</mask>
<path d="M768 318V317H384V318V319H768V318Z" fill="#D7D7D7" mask="url(#path-86-inside-23_1316_6692)"/>
<rect x="396" y="292.5" width="76" height="10" fill="#979797"/>
<mask id="path-89-inside-24_1316_6692" fill="white">
<path d="M384 318H768V359H384V318Z"/>
</mask>
<path d="M768 359V358H384V359V360H768V359Z" fill="#D7D7D7" mask="url(#path-89-inside-24_1316_6692)"/>
<rect x="396" y="333.5" width="92" height="10" fill="#979797"/>
<mask id="path-92-inside-25_1316_6692" fill="white">
<path d="M384 359H768V400H384V359Z"/>
</mask>
<path d="M768 400V399H384V400V401H768V400Z" fill="#D7D7D7" mask="url(#path-92-inside-25_1316_6692)"/>
<rect x="396" y="374.5" width="120" height="10" fill="#979797"/>
<mask id="path-95-inside-26_1316_6692" fill="white">
<path d="M384 400H768V441H384V400Z"/>
</mask>
<path d="M768 441V440H384V441V442H768V441Z" fill="#D7D7D7" mask="url(#path-95-inside-26_1316_6692)"/>
<rect x="396" y="415.5" width="102" height="10" fill="#979797"/>
<mask id="path-98-inside-27_1316_6692" fill="white">
<path d="M384 441H768V482H384V441Z"/>
</mask>
<path d="M768 482V481H384V482V483H768V482Z" fill="#D7D7D7" mask="url(#path-98-inside-27_1316_6692)"/>
<rect x="396" y="456.5" width="90" height="10" fill="#979797"/>
<mask id="path-101-inside-28_1316_6692" fill="white">
<path d="M384 482H768V523H384V482Z"/>
</mask>
<path d="M768 523V522H384V523V524H768V523Z" fill="#D7D7D7" mask="url(#path-101-inside-28_1316_6692)"/>
<rect x="396" y="497.5" width="132" height="10" fill="#979797"/>
<mask id="path-104-inside-29_1316_6692" fill="white">
<path d="M384 523H768V564H384V523Z"/>
</mask>
<path d="M768 564V563H384V564V565H768V564Z" fill="#D7D7D7" mask="url(#path-104-inside-29_1316_6692)"/>
<rect x="396" y="538.5" width="76" height="10" fill="#979797"/>
<mask id="path-107-inside-30_1316_6692" fill="white">
<path d="M384 564H768V605H384V564Z"/>
</mask>
<path d="M768 605V604H384V605V606H768V605Z" fill="#D7D7D7" mask="url(#path-107-inside-30_1316_6692)"/>
<rect x="396" y="579.5" width="88" height="10" fill="#979797"/>
</g>
<g clip-path="url(#clip14_1316_6692)">
<rect width="384" height="409" transform="translate(768 196)" fill="white"/>
<rect width="384" height="40" transform="translate(768 196)" fill="#D9D9D9"/>
<rect x="780" y="211" width="130" height="10" fill="#171717"/>
<mask id="path-111-inside-31_1316_6692" fill="white">
<path d="M768 236H1152V277H768V236Z"/>
</mask>
<path d="M1152 277V276H768V277V278H1152V277Z" fill="#D7D7D7" mask="url(#path-111-inside-31_1316_6692)"/>
<rect x="780" y="244.5" width="132" height="24" rx="12" fill="white"/>
<rect x="780" y="251.5" width="80" height="10" fill="#979797"/>
<mask id="path-115-inside-32_1316_6692" fill="white">
<path d="M768 277H1152V318H768V277Z"/>
</mask>
<path d="M1152 318V317H768V318V319H1152V318Z" fill="#D7D7D7" mask="url(#path-115-inside-32_1316_6692)"/>
<rect x="780" y="285.5" width="132" height="24" rx="12" fill="white"/>
<rect x="780" y="292.5" width="80" height="10" fill="#979797"/>
<mask id="path-119-inside-33_1316_6692" fill="white">
<path d="M768 318H1152V359H768V318Z"/>
</mask>
<path d="M1152 359V358H768V359V360H1152V359Z" fill="#D7D7D7" mask="url(#path-119-inside-33_1316_6692)"/>
<rect x="780" y="326.5" width="132" height="24" rx="12" fill="white"/>
<rect x="780" y="333.5" width="80" height="10" fill="#979797"/>
<mask id="path-123-inside-34_1316_6692" fill="white">
<path d="M768 359H1152V400H768V359Z"/>
</mask>
<path d="M1152 400V399H768V400V401H1152V400Z" fill="#D7D7D7" mask="url(#path-123-inside-34_1316_6692)"/>
<rect x="780" y="367.5" width="132" height="24" rx="12" fill="white"/>
<rect x="780" y="374.5" width="80" height="10" fill="#979797"/>
<mask id="path-127-inside-35_1316_6692" fill="white">
<path d="M768 400H1152V441H768V400Z"/>
</mask>
<path d="M1152 441V440H768V441V442H1152V441Z" fill="#D7D7D7" mask="url(#path-127-inside-35_1316_6692)"/>
<rect x="780" y="408.5" width="132" height="24" rx="12" fill="white"/>
<rect x="780" y="415.5" width="80" height="10" fill="#979797"/>
<mask id="path-131-inside-36_1316_6692" fill="white">
<path d="M768 441H1152V482H768V441Z"/>
</mask>
<path d="M1152 482V481H768V482V483H1152V482Z" fill="#D7D7D7" mask="url(#path-131-inside-36_1316_6692)"/>
<rect x="780" y="449.5" width="132" height="24" rx="12" fill="white"/>
<rect x="780" y="456.5" width="80" height="10" fill="#979797"/>
<mask id="path-135-inside-37_1316_6692" fill="white">
<path d="M768 482H1152V523H768V482Z"/>
</mask>
<path d="M1152 523V522H768V523V524H1152V523Z" fill="#D7D7D7" mask="url(#path-135-inside-37_1316_6692)"/>
<rect x="780" y="490.5" width="132" height="24" rx="12" fill="white"/>
<rect x="780" y="497.5" width="80" height="10" fill="#979797"/>
<mask id="path-139-inside-38_1316_6692" fill="white">
<path d="M768 523H1152V564H768V523Z"/>
</mask>
<path d="M1152 564V563H768V564V565H1152V564Z" fill="#D7D7D7" mask="url(#path-139-inside-38_1316_6692)"/>
<rect x="780" y="531.5" width="132" height="24" rx="12" fill="white"/>
<rect x="780" y="538.5" width="80" height="10" fill="#979797"/>
<mask id="path-143-inside-39_1316_6692" fill="white">
<path d="M768 564H1152V605H768V564Z"/>
</mask>
<path d="M1152 605V604H768V605V606H1152V605Z" fill="#D7D7D7" mask="url(#path-143-inside-39_1316_6692)"/>
<rect x="780" y="572.5" width="132" height="24" rx="12" fill="white"/>
<rect x="780" y="579.5" width="80" height="10" fill="#979797"/>
</g>
<g clip-path="url(#clip15_1316_6692)">
<rect width="384" height="409" transform="translate(1152 196)" fill="white"/>
<rect width="384" height="40" transform="translate(1152 196)" fill="#D9D9D9"/>
<rect x="1164" y="211" width="110" height="10" fill="#171717"/>
<mask id="path-148-inside-40_1316_6692" fill="white">
<path d="M1152 236H1536V277H1152V236Z"/>
</mask>
<path d="M1536 277V276H1152V277V278H1536V277Z" fill="#D7D7D7" mask="url(#path-148-inside-40_1316_6692)"/>
<rect x="1164" y="251.5" width="83" height="10" fill="#979797"/>
<mask id="path-151-inside-41_1316_6692" fill="white">
<path d="M1152 277H1536V318H1152V277Z"/>
</mask>
<path d="M1536 318V317H1152V318V319H1536V318Z" fill="#D7D7D7" mask="url(#path-151-inside-41_1316_6692)"/>
<rect x="1164" y="292.5" width="83" height="10" fill="#979797"/>
<mask id="path-154-inside-42_1316_6692" fill="white">
<path d="M1152 318H1536V359H1152V318Z"/>
</mask>
<path d="M1536 359V358H1152V359V360H1536V359Z" fill="#D7D7D7" mask="url(#path-154-inside-42_1316_6692)"/>
<rect x="1164" y="333.5" width="83" height="10" fill="#979797"/>
<mask id="path-157-inside-43_1316_6692" fill="white">
<path d="M1152 359H1536V400H1152V359Z"/>
</mask>
<path d="M1536 400V399H1152V400V401H1536V400Z" fill="#D7D7D7" mask="url(#path-157-inside-43_1316_6692)"/>
<rect x="1164" y="374.5" width="83" height="10" fill="#979797"/>
<mask id="path-160-inside-44_1316_6692" fill="white">
<path d="M1152 400H1536V441H1152V400Z"/>
</mask>
<path d="M1536 441V440H1152V441V442H1536V441Z" fill="#D7D7D7" mask="url(#path-160-inside-44_1316_6692)"/>
<rect x="1164" y="415.5" width="83" height="10" fill="#979797"/>
<mask id="path-163-inside-45_1316_6692" fill="white">
<path d="M1152 441H1536V482H1152V441Z"/>
</mask>
<path d="M1536 482V481H1152V482V483H1536V482Z" fill="#D7D7D7" mask="url(#path-163-inside-45_1316_6692)"/>
<rect x="1164" y="456.5" width="83" height="10" fill="#979797"/>
<mask id="path-166-inside-46_1316_6692" fill="white">
<path d="M1152 482H1536V523H1152V482Z"/>
</mask>
<path d="M1536 523V522H1152V523V524H1536V523Z" fill="#D7D7D7" mask="url(#path-166-inside-46_1316_6692)"/>
<rect x="1164" y="497.5" width="83" height="10" fill="#979797"/>
<mask id="path-169-inside-47_1316_6692" fill="white">
<path d="M1152 523H1536V564H1152V523Z"/>
</mask>
<path d="M1536 564V563H1152V564V565H1536V564Z" fill="#D7D7D7" mask="url(#path-169-inside-47_1316_6692)"/>
<rect x="1164" y="538.5" width="83" height="10" fill="#979797"/>
<mask id="path-172-inside-48_1316_6692" fill="white">
<path d="M1152 564H1536V605H1152V564Z"/>
</mask>
<path d="M1536 605V604H1152V605V606H1536V605Z" fill="#D7D7D7" mask="url(#path-172-inside-48_1316_6692)"/>
<rect x="1164" y="579.5" width="83" height="10" fill="#979797"/>
</g>
<g clip-path="url(#clip16_1316_6692)">
<rect width="40" height="409" transform="translate(1536 196)" fill="white"/>
<rect width="40" height="40" transform="translate(1536 196)" fill="#D9D9D9"/>
<mask id="path-175-inside-49_1316_6692" fill="white">
<path d="M1536 236H1576V277H1536V236Z"/>
</mask>
<path d="M1576 277V276H1536V277V278H1576V277Z" fill="#D7D7D7" mask="url(#path-175-inside-49_1316_6692)"/>
<g clip-path="url(#clip17_1316_6692)">
<path d="M1550 255C1550.83 255 1551.5 255.672 1551.5 256.5C1551.5 257.328 1550.83 258 1550 258C1549.17 258 1548.5 257.328 1548.5 256.5C1548.5 255.672 1549.17 255 1550 255ZM1556 255C1556.83 255 1557.5 255.672 1557.5 256.5C1557.5 257.328 1556.83 258 1556 258C1555.17 258 1554.5 257.328 1554.5 256.5C1554.5 255.672 1555.17 255 1556 255ZM1562 255C1562.83 255 1563.5 255.672 1563.5 256.5C1563.5 257.328 1562.83 258 1562 258C1561.17 258 1560.5 257.328 1560.5 256.5C1560.5 255.672 1561.17 255 1562 255Z" fill="#979797"/>
</g>
<mask id="path-178-inside-50_1316_6692" fill="white">
<path d="M1536 277H1576V318H1536V277Z"/>
</mask>
<path d="M1576 318V317H1536V318V319H1576V318Z" fill="#D7D7D7" mask="url(#path-178-inside-50_1316_6692)"/>
<g clip-path="url(#clip18_1316_6692)">
<path d="M1550 296C1550.83 296 1551.5 296.672 1551.5 297.5C1551.5 298.328 1550.83 299 1550 299C1549.17 299 1548.5 298.328 1548.5 297.5C1548.5 296.672 1549.17 296 1550 296ZM1556 296C1556.83 296 1557.5 296.672 1557.5 297.5C1557.5 298.328 1556.83 299 1556 299C1555.17 299 1554.5 298.328 1554.5 297.5C1554.5 296.672 1555.17 296 1556 296ZM1562 296C1562.83 296 1563.5 296.672 1563.5 297.5C1563.5 298.328 1562.83 299 1562 299C1561.17 299 1560.5 298.328 1560.5 297.5C1560.5 296.672 1561.17 296 1562 296Z" fill="#979797"/>
</g>
<mask id="path-181-inside-51_1316_6692" fill="white">
<path d="M1536 318H1576V359H1536V318Z"/>
</mask>
<path d="M1576 359V358H1536V359V360H1576V359Z" fill="#D7D7D7" mask="url(#path-181-inside-51_1316_6692)"/>
<g clip-path="url(#clip19_1316_6692)">
<path d="M1550 337C1550.83 337 1551.5 337.672 1551.5 338.5C1551.5 339.328 1550.83 340 1550 340C1549.17 340 1548.5 339.328 1548.5 338.5C1548.5 337.672 1549.17 337 1550 337ZM1556 337C1556.83 337 1557.5 337.672 1557.5 338.5C1557.5 339.328 1556.83 340 1556 340C1555.17 340 1554.5 339.328 1554.5 338.5C1554.5 337.672 1555.17 337 1556 337ZM1562 337C1562.83 337 1563.5 337.672 1563.5 338.5C1563.5 339.328 1562.83 340 1562 340C1561.17 340 1560.5 339.328 1560.5 338.5C1560.5 337.672 1561.17 337 1562 337Z" fill="#979797"/>
</g>
<mask id="path-184-inside-52_1316_6692" fill="white">
<path d="M1536 359H1576V400H1536V359Z"/>
</mask>
<path d="M1576 400V399H1536V400V401H1576V400Z" fill="#D7D7D7" mask="url(#path-184-inside-52_1316_6692)"/>
<g clip-path="url(#clip20_1316_6692)">
<path d="M1550 378C1550.83 378 1551.5 378.672 1551.5 379.5C1551.5 380.328 1550.83 381 1550 381C1549.17 381 1548.5 380.328 1548.5 379.5C1548.5 378.672 1549.17 378 1550 378ZM1556 378C1556.83 378 1557.5 378.672 1557.5 379.5C1557.5 380.328 1556.83 381 1556 381C1555.17 381 1554.5 380.328 1554.5 379.5C1554.5 378.672 1555.17 378 1556 378ZM1562 378C1562.83 378 1563.5 378.672 1563.5 379.5C1563.5 380.328 1562.83 381 1562 381C1561.17 381 1560.5 380.328 1560.5 379.5C1560.5 378.672 1561.17 378 1562 378Z" fill="#979797"/>
</g>
<mask id="path-187-inside-53_1316_6692" fill="white">
<path d="M1536 400H1576V441H1536V400Z"/>
</mask>
<path d="M1576 441V440H1536V441V442H1576V441Z" fill="#D7D7D7" mask="url(#path-187-inside-53_1316_6692)"/>
<g clip-path="url(#clip21_1316_6692)">
<path d="M1550 419C1550.83 419 1551.5 419.672 1551.5 420.5C1551.5 421.328 1550.83 422 1550 422C1549.17 422 1548.5 421.328 1548.5 420.5C1548.5 419.672 1549.17 419 1550 419ZM1556 419C1556.83 419 1557.5 419.672 1557.5 420.5C1557.5 421.328 1556.83 422 1556 422C1555.17 422 1554.5 421.328 1554.5 420.5C1554.5 419.672 1555.17 419 1556 419ZM1562 419C1562.83 419 1563.5 419.672 1563.5 420.5C1563.5 421.328 1562.83 422 1562 422C1561.17 422 1560.5 421.328 1560.5 420.5C1560.5 419.672 1561.17 419 1562 419Z" fill="#979797"/>
</g>
<mask id="path-190-inside-54_1316_6692" fill="white">
<path d="M1536 441H1576V482H1536V441Z"/>
</mask>
<path d="M1576 482V481H1536V482V483H1576V482Z" fill="#D7D7D7" mask="url(#path-190-inside-54_1316_6692)"/>
<g clip-path="url(#clip22_1316_6692)">
<path d="M1550 460C1550.83 460 1551.5 460.672 1551.5 461.5C1551.5 462.328 1550.83 463 1550 463C1549.17 463 1548.5 462.328 1548.5 461.5C1548.5 460.672 1549.17 460 1550 460ZM1556 460C1556.83 460 1557.5 460.672 1557.5 461.5C1557.5 462.328 1556.83 463 1556 463C1555.17 463 1554.5 462.328 1554.5 461.5C1554.5 460.672 1555.17 460 1556 460ZM1562 460C1562.83 460 1563.5 460.672 1563.5 461.5C1563.5 462.328 1562.83 463 1562 463C1561.17 463 1560.5 462.328 1560.5 461.5C1560.5 460.672 1561.17 460 1562 460Z" fill="#979797"/>
</g>
<mask id="path-193-inside-55_1316_6692" fill="white">
<path d="M1536 482H1576V523H1536V482Z"/>
</mask>
<path d="M1576 523V522H1536V523V524H1576V523Z" fill="#D7D7D7" mask="url(#path-193-inside-55_1316_6692)"/>
<g clip-path="url(#clip23_1316_6692)">
<path d="M1550 501C1550.83 501 1551.5 501.672 1551.5 502.5C1551.5 503.328 1550.83 504 1550 504C1549.17 504 1548.5 503.328 1548.5 502.5C1548.5 501.672 1549.17 501 1550 501ZM1556 501C1556.83 501 1557.5 501.672 1557.5 502.5C1557.5 503.328 1556.83 504 1556 504C1555.17 504 1554.5 503.328 1554.5 502.5C1554.5 501.672 1555.17 501 1556 501ZM1562 501C1562.83 501 1563.5 501.672 1563.5 502.5C1563.5 503.328 1562.83 504 1562 504C1561.17 504 1560.5 503.328 1560.5 502.5C1560.5 501.672 1561.17 501 1562 501Z" fill="#979797"/>
</g>
<mask id="path-196-inside-56_1316_6692" fill="white">
<path d="M1536 523H1576V564H1536V523Z"/>
</mask>
<path d="M1576 564V563H1536V564V565H1576V564Z" fill="#D7D7D7" mask="url(#path-196-inside-56_1316_6692)"/>
<g clip-path="url(#clip24_1316_6692)">
<path d="M1550 542C1550.83 542 1551.5 542.672 1551.5 543.5C1551.5 544.328 1550.83 545 1550 545C1549.17 545 1548.5 544.328 1548.5 543.5C1548.5 542.672 1549.17 542 1550 542ZM1556 542C1556.83 542 1557.5 542.672 1557.5 543.5C1557.5 544.328 1556.83 545 1556 545C1555.17 545 1554.5 544.328 1554.5 543.5C1554.5 542.672 1555.17 542 1556 542ZM1562 542C1562.83 542 1563.5 542.672 1563.5 543.5C1563.5 544.328 1562.83 545 1562 545C1561.17 545 1560.5 544.328 1560.5 543.5C1560.5 542.672 1561.17 542 1562 542Z" fill="#979797"/>
</g>
<mask id="path-199-inside-57_1316_6692" fill="white">
<path d="M1536 564H1576V605H1536V564Z"/>
</mask>
<path d="M1576 605V604H1536V605V606H1576V605Z" fill="#D7D7D7" mask="url(#path-199-inside-57_1316_6692)"/>
<g clip-path="url(#clip25_1316_6692)">
<path d="M1550 583C1550.83 583 1551.5 583.672 1551.5 584.5C1551.5 585.328 1550.83 586 1550 586C1549.17 586 1548.5 585.328 1548.5 584.5C1548.5 583.672 1549.17 583 1550 583ZM1556 583C1556.83 583 1557.5 583.672 1557.5 584.5C1557.5 585.328 1556.83 586 1556 586C1555.17 586 1554.5 585.328 1554.5 584.5C1554.5 583.672 1555.17 583 1556 583ZM1562 583C1562.83 583 1563.5 583.672 1563.5 584.5C1563.5 585.328 1562.83 586 1562 586C1561.17 586 1560.5 585.328 1560.5 584.5C1560.5 583.672 1561.17 583 1562 583Z" fill="#979797"/>
</g>
</g>
</g>
</g>
</g>
</g>
<g filter="url(#filter0_d_1316_6692)">
<g clip-path="url(#clip26_1316_6692)">
<rect x="1296" y="990" width="280" height="84" fill="white"/>
<rect width="4" height="84" transform="translate(1296 990)" fill="#00813A"/>
<g clip-path="url(#clip27_1316_6692)">
<g clip-path="url(#clip28_1316_6692)">
<path d="M1326 1007.25C1321.19 1007.25 1317.25 1011.19 1317.25 1016C1317.25 1020.81 1321.19 1024.75 1326 1024.75C1330.81 1024.75 1334.75 1020.81 1334.75 1016C1334.75 1011.19 1330.81 1007.25 1326 1007.25ZM1324.75 1019.69L1321.19 1016.12L1322.06 1015.25L1324.75 1017.94L1329.94 1012.75L1330.81 1013.62L1324.75 1019.69Z" fill="#00813A"/>
</g>
<path d="M1350.16 1018.42C1350.16 1018.22 1350.13 1018.05 1350.07 1017.9C1350.02 1017.75 1349.91 1017.61 1349.76 1017.49C1349.62 1017.36 1349.41 1017.24 1349.14 1017.12C1348.88 1016.99 1348.53 1016.87 1348.12 1016.73C1347.65 1016.59 1347.22 1016.42 1346.82 1016.24C1346.42 1016.06 1346.06 1015.85 1345.76 1015.61C1345.46 1015.36 1345.22 1015.09 1345.05 1014.77C1344.88 1014.45 1344.8 1014.08 1344.8 1013.67C1344.8 1013.25 1344.89 1012.88 1345.06 1012.54C1345.24 1012.21 1345.49 1011.92 1345.81 1011.68C1346.14 1011.43 1346.52 1011.24 1346.95 1011.11C1347.4 1010.98 1347.88 1010.91 1348.42 1010.91C1349.15 1010.91 1349.79 1011.04 1350.33 1011.31C1350.87 1011.58 1351.29 1011.95 1351.59 1012.41C1351.88 1012.87 1352.03 1013.38 1352.03 1013.96H1350.16C1350.16 1013.65 1350.09 1013.38 1349.96 1013.14C1349.83 1012.9 1349.64 1012.71 1349.37 1012.58C1349.11 1012.44 1348.79 1012.37 1348.39 1012.37C1348.01 1012.37 1347.69 1012.43 1347.43 1012.54C1347.18 1012.66 1346.99 1012.81 1346.86 1013.01C1346.74 1013.2 1346.68 1013.42 1346.68 1013.67C1346.68 1013.85 1346.72 1014.01 1346.81 1014.16C1346.9 1014.3 1347.03 1014.43 1347.2 1014.56C1347.37 1014.68 1347.59 1014.8 1347.84 1014.91C1348.1 1015.01 1348.4 1015.12 1348.74 1015.22C1349.29 1015.39 1349.77 1015.57 1350.18 1015.77C1350.59 1015.97 1350.94 1016.2 1351.21 1016.45C1351.49 1016.71 1351.7 1017 1351.83 1017.32C1351.98 1017.63 1352.05 1018 1352.05 1018.4C1352.05 1018.83 1351.96 1019.21 1351.79 1019.55C1351.62 1019.89 1351.38 1020.18 1351.07 1020.41C1350.75 1020.65 1350.38 1020.83 1349.93 1020.95C1349.5 1021.08 1349.01 1021.14 1348.46 1021.14C1347.98 1021.14 1347.5 1021.07 1347.03 1020.95C1346.56 1020.81 1346.13 1020.62 1345.75 1020.36C1345.37 1020.09 1345.06 1019.76 1344.83 1019.36C1344.61 1018.95 1344.49 1018.48 1344.49 1017.94H1346.38C1346.38 1018.25 1346.43 1018.52 1346.53 1018.74C1346.63 1018.96 1346.78 1019.14 1346.97 1019.28C1347.16 1019.42 1347.38 1019.52 1347.64 1019.58C1347.89 1019.65 1348.17 1019.68 1348.46 1019.68C1348.85 1019.68 1349.16 1019.63 1349.41 1019.52C1349.66 1019.41 1349.84 1019.26 1349.97 1019.07C1350.1 1018.88 1350.16 1018.66 1350.16 1018.42ZM1357.76 1019.24V1013.6H1359.58V1021H1357.87L1357.76 1019.24ZM1357.99 1017.71L1358.55 1017.7C1358.55 1018.19 1358.5 1018.65 1358.39 1019.07C1358.28 1019.49 1358.11 1019.86 1357.88 1020.17C1357.65 1020.47 1357.36 1020.71 1357.01 1020.88C1356.66 1021.05 1356.24 1021.14 1355.76 1021.14C1355.4 1021.14 1355.07 1021.09 1354.77 1020.99C1354.47 1020.88 1354.21 1020.72 1353.99 1020.5C1353.77 1020.28 1353.61 1019.99 1353.49 1019.65C1353.37 1019.3 1353.31 1018.87 1353.31 1018.38V1013.6H1355.12V1018.4C1355.12 1018.64 1355.14 1018.85 1355.2 1019.01C1355.26 1019.17 1355.34 1019.31 1355.44 1019.41C1355.54 1019.51 1355.66 1019.59 1355.8 1019.63C1355.94 1019.67 1356.09 1019.69 1356.25 1019.69C1356.69 1019.69 1357.03 1019.61 1357.28 1019.43C1357.54 1019.26 1357.72 1019.02 1357.83 1018.72C1357.94 1018.42 1357.99 1018.09 1357.99 1017.71ZM1364.21 1019.71C1364.47 1019.71 1364.7 1019.66 1364.9 1019.56C1365.1 1019.46 1365.26 1019.32 1365.38 1019.14C1365.5 1018.96 1365.57 1018.75 1365.57 1018.5H1367.28C1367.27 1019.01 1367.13 1019.46 1366.85 1019.85C1366.58 1020.25 1366.21 1020.56 1365.76 1020.79C1365.31 1021.02 1364.8 1021.14 1364.24 1021.14C1363.67 1021.14 1363.17 1021.04 1362.75 1020.85C1362.33 1020.66 1361.97 1020.39 1361.69 1020.05C1361.41 1019.71 1361.2 1019.31 1361.06 1018.86C1360.93 1018.41 1360.86 1017.93 1360.86 1017.41V1017.19C1360.86 1016.68 1360.93 1016.19 1361.06 1015.74C1361.2 1015.29 1361.41 1014.9 1361.69 1014.55C1361.97 1014.21 1362.33 1013.95 1362.75 1013.75C1363.17 1013.56 1363.67 1013.47 1364.23 1013.47C1364.83 1013.47 1365.36 1013.58 1365.81 1013.82C1366.26 1014.05 1366.62 1014.38 1366.87 1014.8C1367.13 1015.22 1367.27 1015.72 1367.28 1016.3H1365.57C1365.57 1016.03 1365.51 1015.8 1365.4 1015.59C1365.29 1015.38 1365.13 1015.21 1364.93 1015.08C1364.73 1014.95 1364.49 1014.89 1364.2 1014.89C1363.89 1014.89 1363.64 1014.95 1363.43 1015.08C1363.23 1015.21 1363.08 1015.38 1362.96 1015.61C1362.85 1015.83 1362.78 1016.07 1362.73 1016.34C1362.69 1016.61 1362.67 1016.9 1362.67 1017.19V1017.41C1362.67 1017.71 1362.69 1018 1362.73 1018.27C1362.78 1018.55 1362.85 1018.79 1362.96 1019.01C1363.08 1019.22 1363.23 1019.4 1363.43 1019.52C1363.64 1019.65 1363.9 1019.71 1364.21 1019.71ZM1371.51 1019.71C1371.77 1019.71 1372 1019.66 1372.2 1019.56C1372.4 1019.46 1372.56 1019.32 1372.68 1019.14C1372.8 1018.96 1372.87 1018.75 1372.88 1018.5H1374.58C1374.57 1019.01 1374.43 1019.46 1374.15 1019.85C1373.88 1020.25 1373.52 1020.56 1373.06 1020.79C1372.61 1021.02 1372.1 1021.14 1371.54 1021.14C1370.97 1021.14 1370.48 1021.04 1370.05 1020.85C1369.63 1020.66 1369.27 1020.39 1368.99 1020.05C1368.71 1019.71 1368.5 1019.31 1368.36 1018.86C1368.23 1018.41 1368.16 1017.93 1368.16 1017.41V1017.19C1368.16 1016.68 1368.23 1016.19 1368.36 1015.74C1368.5 1015.29 1368.71 1014.9 1368.99 1014.55C1369.27 1014.21 1369.63 1013.95 1370.05 1013.75C1370.48 1013.56 1370.97 1013.47 1371.54 1013.47C1372.13 1013.47 1372.66 1013.58 1373.11 1013.82C1373.56 1014.05 1373.92 1014.38 1374.17 1014.8C1374.43 1015.22 1374.57 1015.72 1374.58 1016.3H1372.88C1372.87 1016.03 1372.81 1015.8 1372.7 1015.59C1372.59 1015.38 1372.43 1015.21 1372.23 1015.08C1372.03 1014.95 1371.79 1014.89 1371.5 1014.89C1371.2 1014.89 1370.94 1014.95 1370.74 1015.08C1370.53 1015.21 1370.38 1015.38 1370.26 1015.61C1370.15 1015.83 1370.08 1016.07 1370.03 1016.34C1369.99 1016.61 1369.97 1016.9 1369.97 1017.19V1017.41C1369.97 1017.71 1369.99 1018 1370.03 1018.27C1370.08 1018.55 1370.15 1018.79 1370.26 1019.01C1370.38 1019.22 1370.53 1019.4 1370.74 1019.52C1370.94 1019.65 1371.2 1019.71 1371.51 1019.71ZM1379.1 1021.14C1378.54 1021.14 1378.04 1021.05 1377.59 1020.86C1377.15 1020.68 1376.76 1020.43 1376.45 1020.1C1376.14 1019.78 1375.9 1019.4 1375.73 1018.96C1375.57 1018.53 1375.49 1018.06 1375.49 1017.55V1017.28C1375.49 1016.71 1375.57 1016.19 1375.73 1015.73C1375.9 1015.26 1376.13 1014.86 1376.43 1014.52C1376.73 1014.18 1377.09 1013.92 1377.51 1013.74C1377.93 1013.56 1378.39 1013.47 1378.9 1013.47C1379.42 1013.47 1379.88 1013.56 1380.29 1013.73C1380.69 1013.91 1381.02 1014.15 1381.29 1014.47C1381.56 1014.79 1381.76 1015.17 1381.9 1015.62C1382.04 1016.06 1382.1 1016.55 1382.1 1017.09V1017.85H1376.31V1016.6H1380.33V1016.47C1380.32 1016.18 1380.26 1015.92 1380.16 1015.68C1380.06 1015.44 1379.91 1015.25 1379.7 1015.11C1379.49 1014.96 1379.22 1014.89 1378.88 1014.89C1378.61 1014.89 1378.38 1014.95 1378.18 1015.07C1377.98 1015.18 1377.82 1015.34 1377.69 1015.56C1377.56 1015.77 1377.46 1016.02 1377.4 1016.31C1377.34 1016.6 1377.3 1016.93 1377.3 1017.28V1017.55C1377.3 1017.86 1377.35 1018.15 1377.43 1018.42C1377.51 1018.68 1377.64 1018.91 1377.8 1019.11C1377.97 1019.3 1378.17 1019.45 1378.41 1019.56C1378.64 1019.66 1378.91 1019.71 1379.21 1019.71C1379.59 1019.71 1379.93 1019.64 1380.24 1019.5C1380.55 1019.35 1380.82 1019.12 1381.04 1018.83L1381.95 1019.78C1381.8 1020 1381.59 1020.22 1381.32 1020.43C1381.06 1020.64 1380.75 1020.81 1380.38 1020.95C1380.01 1021.07 1379.59 1021.14 1379.1 1021.14ZM1387.38 1018.98C1387.38 1018.82 1387.34 1018.68 1387.26 1018.56C1387.18 1018.44 1387.02 1018.32 1386.79 1018.22C1386.57 1018.12 1386.24 1018.02 1385.81 1017.93C1385.43 1017.85 1385.07 1017.75 1384.75 1017.62C1384.43 1017.5 1384.15 1017.35 1383.92 1017.18C1383.68 1017 1383.5 1016.79 1383.37 1016.56C1383.24 1016.32 1383.18 1016.04 1383.18 1015.72C1383.18 1015.42 1383.24 1015.13 1383.38 1014.86C1383.51 1014.59 1383.7 1014.35 1383.95 1014.14C1384.2 1013.93 1384.51 1013.77 1384.87 1013.65C1385.23 1013.53 1385.63 1013.47 1386.08 1013.47C1386.71 1013.47 1387.25 1013.57 1387.7 1013.77C1388.16 1013.98 1388.51 1014.26 1388.75 1014.62C1388.99 1014.98 1389.11 1015.38 1389.11 1015.83H1387.31C1387.31 1015.63 1387.26 1015.45 1387.17 1015.29C1387.08 1015.13 1386.95 1015 1386.77 1014.91C1386.58 1014.81 1386.35 1014.76 1386.08 1014.76C1385.82 1014.76 1385.61 1014.8 1385.44 1014.88C1385.27 1014.96 1385.14 1015.07 1385.06 1015.2C1384.97 1015.34 1384.93 1015.48 1384.93 1015.64C1384.93 1015.76 1384.95 1015.87 1385 1015.96C1385.05 1016.05 1385.12 1016.14 1385.23 1016.21C1385.34 1016.29 1385.49 1016.36 1385.68 1016.43C1385.87 1016.49 1386.1 1016.55 1386.38 1016.61C1386.93 1016.72 1387.42 1016.87 1387.83 1017.05C1388.24 1017.23 1388.56 1017.46 1388.8 1017.76C1389.03 1018.06 1389.14 1018.43 1389.14 1018.89C1389.14 1019.22 1389.07 1019.52 1388.93 1019.8C1388.79 1020.07 1388.59 1020.3 1388.32 1020.5C1388.05 1020.7 1387.73 1020.86 1387.35 1020.97C1386.98 1021.08 1386.56 1021.14 1386.09 1021.14C1385.41 1021.14 1384.84 1021.02 1384.37 1020.77C1383.9 1020.53 1383.54 1020.22 1383.3 1019.84C1383.06 1019.47 1382.94 1019.07 1382.94 1018.67H1384.67C1384.68 1018.96 1384.76 1019.19 1384.9 1019.36C1385.04 1019.53 1385.22 1019.66 1385.43 1019.74C1385.65 1019.81 1385.88 1019.84 1386.12 1019.84C1386.4 1019.84 1386.63 1019.81 1386.81 1019.74C1387 1019.66 1387.14 1019.56 1387.24 1019.43C1387.33 1019.3 1387.38 1019.15 1387.38 1018.98ZM1394.59 1018.98C1394.59 1018.82 1394.54 1018.68 1394.46 1018.56C1394.38 1018.44 1394.23 1018.32 1394 1018.22C1393.77 1018.12 1393.45 1018.02 1393.01 1017.93C1392.63 1017.85 1392.28 1017.75 1391.95 1017.62C1391.63 1017.5 1391.35 1017.35 1391.12 1017.18C1390.89 1017 1390.71 1016.79 1390.57 1016.56C1390.45 1016.32 1390.38 1016.04 1390.38 1015.72C1390.38 1015.42 1390.45 1015.13 1390.58 1014.86C1390.71 1014.59 1390.9 1014.35 1391.15 1014.14C1391.4 1013.93 1391.71 1013.77 1392.07 1013.65C1392.43 1013.53 1392.84 1013.47 1393.29 1013.47C1393.92 1013.47 1394.46 1013.57 1394.91 1013.77C1395.36 1013.98 1395.71 1014.26 1395.95 1014.62C1396.19 1014.98 1396.32 1015.38 1396.32 1015.83H1394.51C1394.51 1015.63 1394.47 1015.45 1394.37 1015.29C1394.29 1015.13 1394.15 1015 1393.97 1014.91C1393.79 1014.81 1393.56 1014.76 1393.28 1014.76C1393.03 1014.76 1392.82 1014.8 1392.64 1014.88C1392.48 1014.96 1392.35 1015.07 1392.26 1015.2C1392.18 1015.34 1392.13 1015.48 1392.13 1015.64C1392.13 1015.76 1392.15 1015.87 1392.2 1015.96C1392.25 1016.05 1392.33 1016.14 1392.44 1016.21C1392.55 1016.29 1392.7 1016.36 1392.88 1016.43C1393.08 1016.49 1393.31 1016.55 1393.59 1016.61C1394.14 1016.72 1394.62 1016.87 1395.03 1017.05C1395.44 1017.23 1395.77 1017.46 1396 1017.76C1396.23 1018.06 1396.35 1018.43 1396.35 1018.89C1396.35 1019.22 1396.28 1019.52 1396.14 1019.8C1396 1020.07 1395.79 1020.3 1395.52 1020.5C1395.25 1020.7 1394.93 1020.86 1394.56 1020.97C1394.18 1021.08 1393.76 1021.14 1393.29 1021.14C1392.61 1021.14 1392.04 1021.02 1391.57 1020.77C1391.1 1020.53 1390.75 1020.22 1390.5 1019.84C1390.26 1019.47 1390.14 1019.07 1390.14 1018.67H1391.87C1391.89 1018.96 1391.96 1019.19 1392.1 1019.36C1392.25 1019.53 1392.42 1019.66 1392.64 1019.74C1392.86 1019.81 1393.09 1019.84 1393.33 1019.84C1393.6 1019.84 1393.83 1019.81 1394.02 1019.74C1394.21 1019.66 1394.35 1019.56 1394.44 1019.43C1394.54 1019.3 1394.59 1019.15 1394.59 1018.98Z" fill="#00813A"/>
<path d="M1348.83 1033.05V1043H1347.53V1033.05H1348.83ZM1352.03 1033.05V1034.13H1344.34V1033.05H1352.03ZM1354.58 1032.5V1043H1353.32V1032.5H1354.58ZM1354.28 1039.02L1353.75 1039C1353.76 1038.5 1353.83 1038.03 1353.98 1037.6C1354.13 1037.17 1354.33 1036.79 1354.6 1036.47C1354.86 1036.15 1355.17 1035.91 1355.54 1035.73C1355.91 1035.56 1356.32 1035.47 1356.76 1035.47C1357.13 1035.47 1357.46 1035.52 1357.75 1035.62C1358.04 1035.71 1358.29 1035.87 1358.49 1036.08C1358.7 1036.3 1358.86 1036.57 1358.97 1036.92C1359.08 1037.25 1359.13 1037.67 1359.13 1038.15V1043H1357.86V1038.14C1357.86 1037.75 1357.81 1037.44 1357.69 1037.21C1357.58 1036.97 1357.41 1036.8 1357.19 1036.7C1356.97 1036.59 1356.71 1036.53 1356.39 1036.53C1356.07 1036.53 1355.79 1036.6 1355.53 1036.73C1355.27 1036.86 1355.05 1037.05 1354.86 1037.28C1354.68 1037.51 1354.54 1037.78 1354.43 1038.08C1354.33 1038.37 1354.28 1038.69 1354.28 1039.02ZM1364.1 1043.14C1363.58 1043.14 1363.12 1043.05 1362.7 1042.88C1362.28 1042.7 1361.92 1042.45 1361.62 1042.13C1361.33 1041.81 1361.1 1041.43 1360.94 1041C1360.78 1040.56 1360.7 1040.08 1360.7 1039.56V1039.27C1360.7 1038.67 1360.79 1038.14 1360.97 1037.67C1361.14 1037.19 1361.39 1036.79 1361.69 1036.46C1362 1036.14 1362.34 1035.89 1362.73 1035.72C1363.12 1035.55 1363.52 1035.47 1363.93 1035.47C1364.46 1035.47 1364.92 1035.56 1365.3 1035.74C1365.69 1035.92 1366 1036.18 1366.25 1036.51C1366.5 1036.83 1366.68 1037.21 1366.8 1037.65C1366.92 1038.09 1366.98 1038.57 1366.98 1039.09V1039.66H1361.45V1038.62H1365.71V1038.53C1365.69 1038.2 1365.62 1037.88 1365.51 1037.57C1365.39 1037.26 1365.21 1037.01 1364.96 1036.81C1364.71 1036.61 1364.37 1036.51 1363.93 1036.51C1363.65 1036.51 1363.38 1036.57 1363.14 1036.69C1362.9 1036.81 1362.69 1036.99 1362.52 1037.22C1362.35 1037.46 1362.21 1037.75 1362.12 1038.09C1362.02 1038.43 1361.97 1038.83 1361.97 1039.27V1039.56C1361.97 1039.91 1362.02 1040.24 1362.12 1040.55C1362.22 1040.86 1362.36 1041.13 1362.55 1041.36C1362.74 1041.59 1362.97 1041.77 1363.24 1041.91C1363.51 1042.04 1363.82 1042.1 1364.17 1042.1C1364.61 1042.1 1364.99 1042.01 1365.3 1041.83C1365.61 1041.65 1365.88 1041.4 1366.11 1041.1L1366.88 1041.71C1366.72 1041.95 1366.52 1042.18 1366.27 1042.4C1366.03 1042.62 1365.72 1042.79 1365.36 1042.93C1365.01 1043.07 1364.59 1043.14 1364.1 1043.14ZM1371.92 1032.5H1373.19V1041.56L1373.08 1043H1371.92V1032.5ZM1378.19 1039.24V1039.38C1378.19 1039.92 1378.12 1040.42 1378 1040.88C1377.87 1041.34 1377.68 1041.73 1377.43 1042.07C1377.19 1042.41 1376.89 1042.67 1376.53 1042.86C1376.18 1043.04 1375.77 1043.14 1375.31 1043.14C1374.84 1043.14 1374.43 1043.06 1374.07 1042.9C1373.72 1042.73 1373.42 1042.5 1373.18 1042.19C1372.94 1041.89 1372.75 1041.52 1372.6 1041.09C1372.46 1040.65 1372.36 1040.17 1372.31 1039.62V1038.99C1372.36 1038.45 1372.46 1037.96 1372.6 1037.52C1372.75 1037.09 1372.94 1036.72 1373.18 1036.42C1373.42 1036.11 1373.72 1035.87 1374.07 1035.71C1374.42 1035.55 1374.83 1035.47 1375.29 1035.47C1375.76 1035.47 1376.17 1035.56 1376.53 1035.74C1376.89 1035.92 1377.19 1036.17 1377.43 1036.51C1377.68 1036.84 1377.87 1037.24 1378 1037.7C1378.12 1038.16 1378.19 1038.68 1378.19 1039.24ZM1376.92 1039.38V1039.24C1376.92 1038.87 1376.88 1038.52 1376.81 1038.2C1376.74 1037.87 1376.63 1037.59 1376.48 1037.34C1376.33 1037.09 1376.14 1036.89 1375.89 1036.75C1375.64 1036.61 1375.34 1036.53 1374.98 1036.53C1374.66 1036.53 1374.38 1036.59 1374.15 1036.7C1373.91 1036.81 1373.72 1036.95 1373.55 1037.14C1373.39 1037.32 1373.25 1037.53 1373.15 1037.77C1373.05 1038 1372.97 1038.24 1372.92 1038.5V1040.14C1373 1040.46 1373.11 1040.77 1373.28 1041.07C1373.45 1041.36 1373.67 1041.6 1373.95 1041.78C1374.23 1041.97 1374.58 1042.06 1374.99 1042.06C1375.34 1042.06 1375.63 1042 1375.87 1041.86C1376.12 1041.72 1376.31 1041.52 1376.46 1041.28C1376.62 1041.03 1376.73 1040.75 1376.81 1040.42C1376.88 1040.1 1376.92 1039.75 1376.92 1039.38ZM1384.31 1041.29V1035.6H1385.58V1043H1384.37L1384.31 1041.29ZM1384.55 1039.73L1385.08 1039.72C1385.08 1040.21 1385.02 1040.67 1384.92 1041.09C1384.82 1041.5 1384.66 1041.86 1384.43 1042.17C1384.2 1042.47 1383.9 1042.71 1383.53 1042.88C1383.16 1043.05 1382.71 1043.14 1382.19 1043.14C1381.83 1043.14 1381.5 1043.08 1381.19 1042.98C1380.9 1042.87 1380.64 1042.71 1380.43 1042.49C1380.21 1042.28 1380.05 1041.99 1379.93 1041.64C1379.82 1041.29 1379.76 1040.87 1379.76 1040.38V1035.6H1381.02V1040.39C1381.02 1040.72 1381.06 1041 1381.13 1041.22C1381.21 1041.43 1381.31 1041.6 1381.44 1041.73C1381.57 1041.85 1381.72 1041.94 1381.88 1041.99C1382.04 1042.04 1382.21 1042.06 1382.38 1042.06C1382.92 1042.06 1383.35 1041.96 1383.66 1041.76C1383.98 1041.55 1384.2 1041.27 1384.34 1040.92C1384.48 1040.56 1384.55 1040.17 1384.55 1039.73ZM1391.82 1041.04C1391.82 1040.86 1391.78 1040.69 1391.69 1040.53C1391.62 1040.37 1391.46 1040.23 1391.21 1040.1C1390.97 1039.97 1390.6 1039.86 1390.12 1039.76C1389.71 1039.67 1389.33 1039.57 1389 1039.45C1388.67 1039.33 1388.39 1039.19 1388.16 1039.02C1387.93 1038.85 1387.76 1038.65 1387.63 1038.43C1387.51 1038.2 1387.45 1037.93 1387.45 1037.63C1387.45 1037.34 1387.51 1037.06 1387.64 1036.8C1387.77 1036.54 1387.96 1036.31 1388.19 1036.11C1388.44 1035.91 1388.73 1035.75 1389.06 1035.64C1389.4 1035.52 1389.78 1035.47 1390.19 1035.47C1390.78 1035.47 1391.29 1035.57 1391.71 1035.78C1392.13 1035.99 1392.45 1036.27 1392.67 1036.62C1392.9 1036.97 1393.01 1037.35 1393.01 1037.78H1391.74C1391.74 1037.57 1391.68 1037.37 1391.56 1037.18C1391.44 1036.99 1391.26 1036.82 1391.03 1036.7C1390.8 1036.57 1390.52 1036.51 1390.19 1036.51C1389.84 1036.51 1389.55 1036.56 1389.34 1036.67C1389.12 1036.77 1388.96 1036.91 1388.86 1037.07C1388.77 1037.24 1388.72 1037.41 1388.72 1037.59C1388.72 1037.73 1388.74 1037.85 1388.79 1037.96C1388.84 1038.07 1388.93 1038.16 1389.05 1038.26C1389.17 1038.34 1389.35 1038.42 1389.57 1038.5C1389.79 1038.58 1390.08 1038.66 1390.42 1038.73C1391.03 1038.87 1391.53 1039.04 1391.92 1039.23C1392.31 1039.42 1392.6 1039.65 1392.79 1039.93C1392.99 1040.21 1393.08 1040.55 1393.08 1040.94C1393.08 1041.27 1393.01 1041.56 1392.88 1041.83C1392.74 1042.1 1392.55 1042.33 1392.3 1042.53C1392.05 1042.72 1391.74 1042.87 1391.39 1042.98C1391.05 1043.08 1390.66 1043.14 1390.22 1043.14C1389.57 1043.14 1389.02 1043.02 1388.57 1042.79C1388.12 1042.56 1387.78 1042.25 1387.54 1041.89C1387.31 1041.52 1387.2 1041.13 1387.2 1040.72H1388.47C1388.49 1041.06 1388.59 1041.34 1388.77 1041.54C1388.95 1041.74 1389.17 1041.89 1389.44 1041.97C1389.7 1042.06 1389.96 1042.1 1390.22 1042.1C1390.57 1042.1 1390.86 1042.05 1391.09 1041.96C1391.33 1041.87 1391.51 1041.74 1391.63 1041.58C1391.76 1041.43 1391.82 1041.24 1391.82 1041.04ZM1396.12 1035.6V1043H1394.85V1035.6H1396.12ZM1394.75 1033.64C1394.75 1033.44 1394.81 1033.26 1394.93 1033.12C1395.06 1032.98 1395.25 1032.91 1395.5 1032.91C1395.74 1032.91 1395.92 1032.98 1396.05 1033.12C1396.18 1033.26 1396.25 1033.44 1396.25 1033.64C1396.25 1033.84 1396.18 1034.01 1396.05 1034.15C1395.92 1034.28 1395.74 1034.35 1395.5 1034.35C1395.25 1034.35 1395.06 1034.28 1394.93 1034.15C1394.81 1034.01 1394.75 1033.84 1394.75 1033.64ZM1399.41 1037.18V1043H1398.15V1035.6H1399.34L1399.41 1037.18ZM1399.11 1039.02L1398.58 1039C1398.59 1038.5 1398.66 1038.03 1398.81 1037.6C1398.96 1037.17 1399.16 1036.79 1399.43 1036.47C1399.69 1036.15 1400 1035.91 1400.37 1035.73C1400.74 1035.56 1401.15 1035.47 1401.59 1035.47C1401.96 1035.47 1402.29 1035.52 1402.58 1035.62C1402.87 1035.71 1403.12 1035.87 1403.32 1036.08C1403.53 1036.3 1403.69 1036.57 1403.8 1036.92C1403.91 1037.25 1403.96 1037.67 1403.96 1038.15V1043H1402.69V1038.14C1402.69 1037.75 1402.64 1037.44 1402.52 1037.21C1402.41 1036.97 1402.24 1036.8 1402.02 1036.7C1401.8 1036.59 1401.54 1036.53 1401.22 1036.53C1400.9 1036.53 1400.62 1036.6 1400.36 1036.73C1400.1 1036.86 1399.88 1037.05 1399.69 1037.28C1399.51 1037.51 1399.37 1037.78 1399.26 1038.08C1399.16 1038.37 1399.11 1038.69 1399.11 1039.02ZM1408.96 1043.14C1408.44 1043.14 1407.97 1043.05 1407.55 1042.88C1407.14 1042.7 1406.78 1042.45 1406.48 1042.13C1406.18 1041.81 1405.96 1041.43 1405.8 1041C1405.64 1040.56 1405.56 1040.08 1405.56 1039.56V1039.27C1405.56 1038.67 1405.65 1038.14 1405.82 1037.67C1406 1037.19 1406.24 1036.79 1406.55 1036.46C1406.85 1036.14 1407.2 1035.89 1407.59 1035.72C1407.98 1035.55 1408.38 1035.47 1408.79 1035.47C1409.32 1035.47 1409.78 1035.56 1410.16 1035.74C1410.55 1035.92 1410.86 1036.18 1411.11 1036.51C1411.35 1036.83 1411.54 1037.21 1411.66 1037.65C1411.77 1038.09 1411.83 1038.57 1411.83 1039.09V1039.66H1406.31V1038.62H1410.57V1038.53C1410.55 1038.2 1410.48 1037.88 1410.36 1037.57C1410.25 1037.26 1410.07 1037.01 1409.82 1036.81C1409.57 1036.61 1409.22 1036.51 1408.79 1036.51C1408.5 1036.51 1408.24 1036.57 1408 1036.69C1407.76 1036.81 1407.55 1036.99 1407.38 1037.22C1407.2 1037.46 1407.07 1037.75 1406.97 1038.09C1406.88 1038.43 1406.83 1038.83 1406.83 1039.27V1039.56C1406.83 1039.91 1406.88 1040.24 1406.97 1040.55C1407.07 1040.86 1407.22 1041.13 1407.4 1041.36C1407.59 1041.59 1407.82 1041.77 1408.09 1041.91C1408.37 1042.04 1408.68 1042.1 1409.02 1042.1C1409.47 1042.1 1409.85 1042.01 1410.16 1041.83C1410.47 1041.65 1410.74 1041.4 1410.97 1041.1L1411.74 1041.71C1411.58 1041.95 1411.38 1042.18 1411.13 1042.4C1410.88 1042.62 1410.58 1042.79 1410.22 1042.93C1409.86 1043.07 1409.44 1043.14 1408.96 1043.14ZM1417.62 1041.04C1417.62 1040.86 1417.58 1040.69 1417.49 1040.53C1417.42 1040.37 1417.25 1040.23 1417.01 1040.1C1416.77 1039.97 1416.4 1039.86 1415.91 1039.76C1415.5 1039.67 1415.13 1039.57 1414.8 1039.45C1414.47 1039.33 1414.19 1039.19 1413.96 1039.02C1413.73 1038.85 1413.56 1038.65 1413.43 1038.43C1413.31 1038.2 1413.25 1037.93 1413.25 1037.63C1413.25 1037.34 1413.31 1037.06 1413.44 1036.8C1413.57 1036.54 1413.76 1036.31 1413.99 1036.11C1414.23 1035.91 1414.52 1035.75 1414.86 1035.64C1415.2 1035.52 1415.57 1035.47 1415.99 1035.47C1416.58 1035.47 1417.09 1035.57 1417.51 1035.78C1417.93 1035.99 1418.25 1036.27 1418.47 1036.62C1418.69 1036.97 1418.81 1037.35 1418.81 1037.78H1417.54C1417.54 1037.57 1417.48 1037.37 1417.36 1037.18C1417.24 1036.99 1417.06 1036.82 1416.83 1036.7C1416.6 1036.57 1416.32 1036.51 1415.99 1036.51C1415.64 1036.51 1415.35 1036.56 1415.13 1036.67C1414.92 1036.77 1414.76 1036.91 1414.66 1037.07C1414.57 1037.24 1414.52 1037.41 1414.52 1037.59C1414.52 1037.73 1414.54 1037.85 1414.59 1037.96C1414.64 1038.07 1414.72 1038.16 1414.85 1038.26C1414.97 1038.34 1415.14 1038.42 1415.37 1038.5C1415.59 1038.58 1415.88 1038.66 1416.22 1038.73C1416.83 1038.87 1417.33 1039.04 1417.72 1039.23C1418.11 1039.42 1418.4 1039.65 1418.59 1039.93C1418.79 1040.21 1418.88 1040.55 1418.88 1040.94C1418.88 1041.27 1418.81 1041.56 1418.68 1041.83C1418.54 1042.1 1418.35 1042.33 1418.09 1042.53C1417.84 1042.72 1417.54 1042.87 1417.19 1042.98C1416.85 1043.08 1416.46 1043.14 1416.02 1043.14C1415.37 1043.14 1414.82 1043.02 1414.37 1042.79C1413.92 1042.56 1413.58 1042.25 1413.34 1041.89C1413.11 1041.52 1413 1041.13 1413 1040.72H1414.27C1414.28 1041.06 1414.39 1041.34 1414.57 1041.54C1414.75 1041.74 1414.97 1041.89 1415.24 1041.97C1415.5 1042.06 1415.76 1042.1 1416.02 1042.1C1416.37 1042.1 1416.66 1042.05 1416.89 1041.96C1417.13 1041.87 1417.31 1041.74 1417.43 1041.58C1417.55 1041.43 1417.62 1041.24 1417.62 1041.04ZM1424.85 1041.04C1424.85 1040.86 1424.81 1040.69 1424.73 1040.53C1424.65 1040.37 1424.49 1040.23 1424.24 1040.1C1424 1039.97 1423.63 1039.86 1423.15 1039.76C1422.74 1039.67 1422.36 1039.57 1422.03 1039.45C1421.7 1039.33 1421.42 1039.19 1421.19 1039.02C1420.96 1038.85 1420.79 1038.65 1420.67 1038.43C1420.54 1038.2 1420.48 1037.93 1420.48 1037.63C1420.48 1037.34 1420.54 1037.06 1420.67 1036.8C1420.8 1036.54 1420.99 1036.31 1421.23 1036.11C1421.47 1035.91 1421.76 1035.75 1422.09 1035.64C1422.43 1035.52 1422.81 1035.47 1423.22 1035.47C1423.81 1035.47 1424.32 1035.57 1424.74 1035.78C1425.16 1035.99 1425.48 1036.27 1425.7 1036.62C1425.93 1036.97 1426.04 1037.35 1426.04 1037.78H1424.77C1424.77 1037.57 1424.71 1037.37 1424.59 1037.18C1424.47 1036.99 1424.29 1036.82 1424.06 1036.7C1423.83 1036.57 1423.55 1036.51 1423.22 1036.51C1422.87 1036.51 1422.59 1036.56 1422.37 1036.67C1422.15 1036.77 1422 1036.91 1421.9 1037.07C1421.8 1037.24 1421.75 1037.41 1421.75 1037.59C1421.75 1037.73 1421.77 1037.85 1421.82 1037.96C1421.87 1038.07 1421.96 1038.16 1422.08 1038.26C1422.2 1038.34 1422.38 1038.42 1422.6 1038.5C1422.82 1038.58 1423.11 1038.66 1423.45 1038.73C1424.06 1038.87 1424.56 1039.04 1424.95 1039.23C1425.34 1039.42 1425.63 1039.65 1425.83 1039.93C1426.02 1040.21 1426.11 1040.55 1426.11 1040.94C1426.11 1041.27 1426.04 1041.56 1425.91 1041.83C1425.78 1042.1 1425.58 1042.33 1425.33 1042.53C1425.08 1042.72 1424.78 1042.87 1424.42 1042.98C1424.08 1043.08 1423.69 1043.14 1423.26 1043.14C1422.6 1043.14 1422.05 1043.02 1421.6 1042.79C1421.15 1042.56 1420.81 1042.25 1420.58 1041.89C1420.34 1041.52 1420.23 1041.13 1420.23 1040.72H1421.5C1421.52 1041.06 1421.62 1041.34 1421.8 1041.54C1421.98 1041.74 1422.21 1041.89 1422.47 1041.97C1422.73 1042.06 1423 1042.1 1423.26 1042.1C1423.6 1042.1 1423.89 1042.05 1424.12 1041.96C1424.36 1041.87 1424.54 1041.74 1424.66 1041.58C1424.79 1041.43 1424.85 1041.24 1424.85 1041.04ZM1430.91 1039.38V1039.23C1430.91 1038.69 1430.99 1038.2 1431.14 1037.74C1431.3 1037.28 1431.52 1036.88 1431.81 1036.55C1432.11 1036.21 1432.46 1035.94 1432.87 1035.75C1433.29 1035.56 1433.75 1035.47 1434.27 1035.47C1434.79 1035.47 1435.26 1035.56 1435.67 1035.75C1436.09 1035.94 1436.44 1036.21 1436.74 1036.55C1437.03 1036.88 1437.26 1037.28 1437.41 1037.74C1437.57 1038.2 1437.65 1038.69 1437.65 1039.23V1039.38C1437.65 1039.92 1437.57 1040.41 1437.41 1040.87C1437.26 1041.32 1437.03 1041.72 1436.74 1042.06C1436.44 1042.4 1436.09 1042.67 1435.68 1042.86C1435.27 1043.04 1434.8 1043.14 1434.28 1043.14C1433.76 1043.14 1433.3 1043.04 1432.88 1042.86C1432.47 1042.67 1432.11 1042.4 1431.81 1042.06C1431.52 1041.72 1431.3 1041.32 1431.14 1040.87C1430.99 1040.41 1430.91 1039.92 1430.91 1039.38ZM1432.18 1039.23V1039.38C1432.18 1039.75 1432.22 1040.1 1432.31 1040.43C1432.39 1040.75 1432.52 1041.04 1432.7 1041.29C1432.87 1041.54 1433.1 1041.74 1433.36 1041.89C1433.62 1042.03 1433.93 1042.1 1434.28 1042.1C1434.63 1042.1 1434.93 1042.03 1435.19 1041.89C1435.46 1041.74 1435.67 1041.54 1435.85 1041.29C1436.02 1041.04 1436.15 1040.75 1436.24 1040.43C1436.33 1040.1 1436.37 1039.75 1436.37 1039.38V1039.23C1436.37 1038.86 1436.33 1038.52 1436.24 1038.19C1436.15 1037.87 1436.02 1037.58 1435.84 1037.33C1435.67 1037.07 1435.45 1036.87 1435.18 1036.72C1434.92 1036.58 1434.62 1036.51 1434.27 1036.51C1433.92 1036.51 1433.62 1036.58 1433.35 1036.72C1433.09 1036.87 1432.87 1037.07 1432.7 1037.33C1432.52 1037.58 1432.39 1037.87 1432.31 1038.19C1432.22 1038.52 1432.18 1038.86 1432.18 1039.23ZM1439.22 1032.5H1440.5V1041.56L1440.39 1043H1439.22V1032.5ZM1445.49 1039.24V1039.38C1445.49 1039.92 1445.43 1040.42 1445.3 1040.88C1445.17 1041.34 1444.99 1041.73 1444.74 1042.07C1444.5 1042.41 1444.19 1042.67 1443.84 1042.86C1443.48 1043.04 1443.08 1043.14 1442.62 1043.14C1442.15 1043.14 1441.73 1043.06 1441.38 1042.9C1441.03 1042.73 1440.73 1042.5 1440.49 1042.19C1440.25 1041.89 1440.05 1041.52 1439.91 1041.09C1439.77 1040.65 1439.67 1040.17 1439.61 1039.62V1038.99C1439.67 1038.45 1439.77 1037.96 1439.91 1037.52C1440.05 1037.09 1440.25 1036.72 1440.49 1036.42C1440.73 1036.11 1441.03 1035.87 1441.38 1035.71C1441.73 1035.55 1442.14 1035.47 1442.6 1035.47C1443.07 1035.47 1443.48 1035.56 1443.84 1035.74C1444.2 1035.92 1444.5 1036.17 1444.74 1036.51C1444.99 1036.84 1445.17 1037.24 1445.3 1037.7C1445.43 1038.16 1445.49 1038.68 1445.49 1039.24ZM1444.22 1039.38V1039.24C1444.22 1038.87 1444.19 1038.52 1444.12 1038.2C1444.05 1037.87 1443.94 1037.59 1443.79 1037.34C1443.64 1037.09 1443.44 1036.89 1443.2 1036.75C1442.95 1036.61 1442.65 1036.53 1442.29 1036.53C1441.97 1036.53 1441.69 1036.59 1441.45 1036.7C1441.22 1036.81 1441.02 1036.95 1440.86 1037.14C1440.69 1037.32 1440.56 1037.53 1440.46 1037.77C1440.35 1038 1440.28 1038.24 1440.23 1038.5V1040.14C1440.3 1040.46 1440.42 1040.77 1440.58 1041.07C1440.75 1041.36 1440.98 1041.6 1441.25 1041.78C1441.54 1041.97 1441.89 1042.06 1442.3 1042.06C1442.64 1042.06 1442.93 1042 1443.18 1041.86C1443.42 1041.72 1443.62 1041.52 1443.77 1041.28C1443.93 1041.03 1444.04 1040.75 1444.11 1040.42C1444.19 1040.1 1444.22 1039.75 1444.22 1039.38ZM1447.13 1035.6H1448.4V1043.88C1448.4 1044.33 1448.33 1044.72 1448.18 1045.03C1448.04 1045.34 1447.82 1045.58 1447.54 1045.74C1447.25 1045.91 1446.9 1045.99 1446.46 1045.99C1446.35 1045.99 1446.22 1045.98 1446.07 1045.95C1445.91 1045.93 1445.78 1045.9 1445.68 1045.87L1445.68 1044.85C1445.77 1044.87 1445.87 1044.88 1445.98 1044.89C1446.09 1044.91 1446.18 1044.91 1446.27 1044.91C1446.45 1044.91 1446.61 1044.88 1446.74 1044.81C1446.86 1044.74 1446.96 1044.63 1447.02 1044.48C1447.09 1044.33 1447.13 1044.13 1447.13 1043.88V1035.6ZM1447 1033.64C1447 1033.44 1447.06 1033.26 1447.19 1033.12C1447.32 1032.98 1447.5 1032.91 1447.74 1032.91C1447.99 1032.91 1448.18 1032.98 1448.3 1033.12C1448.43 1033.26 1448.49 1033.44 1448.49 1033.64C1448.49 1033.84 1448.43 1034.01 1448.3 1034.15C1448.18 1034.28 1447.99 1034.35 1447.74 1034.35C1447.5 1034.35 1447.32 1034.28 1447.19 1034.15C1447.06 1034.01 1447 1033.84 1447 1033.64ZM1453.51 1043.14C1453 1043.14 1452.53 1043.05 1452.11 1042.88C1451.7 1042.7 1451.34 1042.45 1451.04 1042.13C1450.74 1041.81 1450.51 1041.43 1450.35 1041C1450.19 1040.56 1450.11 1040.08 1450.11 1039.56V1039.27C1450.11 1038.67 1450.2 1038.14 1450.38 1037.67C1450.56 1037.19 1450.8 1036.79 1451.11 1036.46C1451.41 1036.14 1451.76 1035.89 1452.14 1035.72C1452.53 1035.55 1452.93 1035.47 1453.35 1035.47C1453.88 1035.47 1454.33 1035.56 1454.71 1035.74C1455.1 1035.92 1455.42 1036.18 1455.67 1036.51C1455.91 1036.83 1456.09 1037.21 1456.21 1037.65C1456.33 1038.09 1456.39 1038.57 1456.39 1039.09V1039.66H1450.87V1038.62H1455.12V1038.53C1455.11 1038.2 1455.04 1037.88 1454.92 1037.57C1454.81 1037.26 1454.62 1037.01 1454.37 1036.81C1454.12 1036.61 1453.78 1036.51 1453.35 1036.51C1453.06 1036.51 1452.8 1036.57 1452.55 1036.69C1452.31 1036.81 1452.11 1036.99 1451.93 1037.22C1451.76 1037.46 1451.62 1037.75 1451.53 1038.09C1451.43 1038.43 1451.39 1038.83 1451.39 1039.27V1039.56C1451.39 1039.91 1451.43 1040.24 1451.53 1040.55C1451.63 1040.86 1451.77 1041.13 1451.96 1041.36C1452.15 1041.59 1452.38 1041.77 1452.65 1041.91C1452.92 1042.04 1453.23 1042.1 1453.58 1042.1C1454.03 1042.1 1454.4 1042.01 1454.71 1041.83C1455.02 1041.65 1455.3 1041.4 1455.53 1041.1L1456.29 1041.71C1456.13 1041.95 1455.93 1042.18 1455.69 1042.4C1455.44 1042.62 1455.14 1042.79 1454.78 1042.93C1454.42 1043.07 1454 1043.14 1453.51 1043.14ZM1460.83 1042.1C1461.13 1042.1 1461.4 1042.04 1461.66 1041.91C1461.92 1041.79 1462.12 1041.62 1462.29 1041.41C1462.45 1041.19 1462.55 1040.94 1462.57 1040.66H1463.77C1463.75 1041.1 1463.6 1041.51 1463.33 1041.89C1463.06 1042.26 1462.71 1042.56 1462.27 1042.79C1461.83 1043.02 1461.35 1043.14 1460.83 1043.14C1460.27 1043.14 1459.78 1043.04 1459.37 1042.84C1458.96 1042.65 1458.62 1042.38 1458.34 1042.04C1458.08 1041.69 1457.87 1041.3 1457.74 1040.86C1457.6 1040.41 1457.54 1039.94 1457.54 1039.45V1039.16C1457.54 1038.66 1457.6 1038.19 1457.74 1037.75C1457.87 1037.3 1458.08 1036.91 1458.34 1036.57C1458.62 1036.23 1458.96 1035.96 1459.37 1035.76C1459.78 1035.56 1460.27 1035.47 1460.83 1035.47C1461.4 1035.47 1461.91 1035.59 1462.34 1035.82C1462.78 1036.05 1463.12 1036.37 1463.36 1036.78C1463.61 1037.18 1463.75 1037.64 1463.77 1038.15H1462.57C1462.55 1037.84 1462.46 1037.57 1462.31 1037.32C1462.16 1037.07 1461.96 1036.88 1461.71 1036.73C1461.46 1036.58 1461.16 1036.51 1460.83 1036.51C1460.44 1036.51 1460.11 1036.58 1459.85 1036.74C1459.59 1036.89 1459.38 1037.09 1459.23 1037.35C1459.08 1037.61 1458.97 1037.89 1458.9 1038.21C1458.83 1038.52 1458.8 1038.83 1458.8 1039.16V1039.45C1458.8 1039.77 1458.83 1040.09 1458.9 1040.4C1458.96 1040.72 1459.07 1041 1459.22 1041.26C1459.37 1041.51 1459.58 1041.72 1459.84 1041.87C1460.11 1042.02 1460.43 1042.1 1460.83 1042.1ZM1468.29 1035.6V1036.57H1464.29V1035.6H1468.29ZM1465.65 1033.81H1466.91V1041.17C1466.91 1041.42 1466.95 1041.61 1467.03 1041.74C1467.1 1041.86 1467.2 1041.95 1467.33 1041.99C1467.45 1042.03 1467.58 1042.05 1467.72 1042.05C1467.83 1042.05 1467.94 1042.04 1468.05 1042.02C1468.17 1042 1468.26 1041.98 1468.32 1041.97L1468.33 1043C1468.22 1043.03 1468.09 1043.06 1467.93 1043.09C1467.77 1043.12 1467.58 1043.14 1467.35 1043.14C1467.04 1043.14 1466.75 1043.08 1466.49 1042.95C1466.23 1042.83 1466.03 1042.62 1465.87 1042.34C1465.72 1042.05 1465.65 1041.65 1465.65 1041.16V1033.81ZM1475.12 1041.69L1477.02 1035.6H1477.85L1477.69 1036.81L1475.76 1043H1474.94L1475.12 1041.69ZM1473.84 1035.6L1475.46 1041.76L1475.58 1043H1474.72L1472.58 1035.6H1473.84ZM1479.67 1041.71L1481.22 1035.6H1482.48L1480.33 1043H1479.48L1479.67 1041.71ZM1478.04 1035.6L1479.9 1041.58L1480.11 1043H1479.3L1477.31 1036.8L1477.15 1035.6H1478.04ZM1488.14 1041.74V1037.93C1488.14 1037.64 1488.08 1037.38 1487.96 1037.17C1487.84 1036.95 1487.67 1036.78 1487.44 1036.66C1487.21 1036.54 1486.92 1036.49 1486.58 1036.49C1486.26 1036.49 1485.98 1036.54 1485.74 1036.65C1485.5 1036.76 1485.31 1036.9 1485.18 1037.08C1485.04 1037.26 1484.98 1037.45 1484.98 1037.65H1483.71C1483.71 1037.39 1483.78 1037.13 1483.92 1036.87C1484.05 1036.61 1484.25 1036.37 1484.51 1036.16C1484.77 1035.95 1485.08 1035.78 1485.44 1035.66C1485.8 1035.53 1486.21 1035.47 1486.65 1035.47C1487.19 1035.47 1487.66 1035.56 1488.07 1035.74C1488.49 1035.92 1488.81 1036.2 1489.04 1036.57C1489.28 1036.93 1489.4 1037.39 1489.4 1037.94V1041.39C1489.4 1041.63 1489.42 1041.89 1489.46 1042.17C1489.51 1042.45 1489.57 1042.69 1489.66 1042.89V1043H1488.34C1488.28 1042.85 1488.23 1042.66 1488.19 1042.42C1488.15 1042.17 1488.14 1041.94 1488.14 1041.74ZM1488.35 1038.52L1488.37 1039.4H1487.09C1486.73 1039.4 1486.41 1039.43 1486.13 1039.49C1485.84 1039.55 1485.61 1039.63 1485.42 1039.75C1485.22 1039.86 1485.08 1040 1484.98 1040.18C1484.88 1040.35 1484.83 1040.54 1484.83 1040.77C1484.83 1041 1484.88 1041.22 1484.98 1041.41C1485.09 1041.6 1485.25 1041.75 1485.46 1041.87C1485.67 1041.97 1485.93 1042.03 1486.24 1042.03C1486.63 1042.03 1486.97 1041.95 1487.27 1041.78C1487.56 1041.62 1487.8 1041.42 1487.97 1041.18C1488.15 1040.94 1488.25 1040.71 1488.26 1040.49L1488.8 1041.1C1488.77 1041.29 1488.68 1041.5 1488.54 1041.74C1488.4 1041.97 1488.21 1042.19 1487.97 1042.41C1487.74 1042.61 1487.46 1042.79 1487.14 1042.93C1486.82 1043.07 1486.46 1043.14 1486.06 1043.14C1485.56 1043.14 1485.12 1043.04 1484.74 1042.84C1484.36 1042.65 1484.07 1042.38 1483.86 1042.06C1483.66 1041.72 1483.56 1041.35 1483.56 1040.94C1483.56 1040.55 1483.63 1040.2 1483.79 1039.9C1483.94 1039.59 1484.17 1039.34 1484.46 1039.14C1484.75 1038.93 1485.1 1038.78 1485.51 1038.67C1485.92 1038.57 1486.38 1038.52 1486.88 1038.52H1488.35ZM1495.7 1041.04C1495.7 1040.86 1495.66 1040.69 1495.57 1040.53C1495.5 1040.37 1495.33 1040.23 1495.09 1040.1C1494.85 1039.97 1494.48 1039.86 1493.99 1039.76C1493.58 1039.67 1493.21 1039.57 1492.88 1039.45C1492.55 1039.33 1492.27 1039.19 1492.04 1039.02C1491.81 1038.85 1491.64 1038.65 1491.51 1038.43C1491.39 1038.2 1491.33 1037.93 1491.33 1037.63C1491.33 1037.34 1491.39 1037.06 1491.52 1036.8C1491.65 1036.54 1491.84 1036.31 1492.07 1036.11C1492.31 1035.91 1492.6 1035.75 1492.94 1035.64C1493.28 1035.52 1493.65 1035.47 1494.07 1035.47C1494.66 1035.47 1495.17 1035.57 1495.59 1035.78C1496.01 1035.99 1496.33 1036.27 1496.55 1036.62C1496.77 1036.97 1496.89 1037.35 1496.89 1037.78H1495.62C1495.62 1037.57 1495.56 1037.37 1495.44 1037.18C1495.32 1036.99 1495.14 1036.82 1494.91 1036.7C1494.68 1036.57 1494.4 1036.51 1494.07 1036.51C1493.72 1036.51 1493.43 1036.56 1493.21 1036.67C1493 1036.77 1492.84 1036.91 1492.74 1037.07C1492.65 1037.24 1492.6 1037.41 1492.6 1037.59C1492.6 1037.73 1492.62 1037.85 1492.67 1037.96C1492.72 1038.07 1492.8 1038.16 1492.93 1038.26C1493.05 1038.34 1493.22 1038.42 1493.45 1038.5C1493.67 1038.58 1493.96 1038.66 1494.3 1038.73C1494.91 1038.87 1495.41 1039.04 1495.8 1039.23C1496.19 1039.42 1496.48 1039.65 1496.67 1039.93C1496.87 1040.21 1496.96 1040.55 1496.96 1040.94C1496.96 1041.27 1496.89 1041.56 1496.76 1041.83C1496.62 1042.1 1496.43 1042.33 1496.17 1042.53C1495.92 1042.72 1495.62 1042.87 1495.27 1042.98C1494.93 1043.08 1494.54 1043.14 1494.1 1043.14C1493.45 1043.14 1492.9 1043.02 1492.45 1042.79C1492 1042.56 1491.66 1042.25 1491.42 1041.89C1491.19 1041.52 1491.08 1041.13 1491.08 1040.72H1492.35C1492.36 1041.06 1492.47 1041.34 1492.65 1041.54C1492.83 1041.74 1493.05 1041.89 1493.32 1041.97C1493.58 1042.06 1493.84 1042.1 1494.1 1042.1C1494.45 1042.1 1494.74 1042.05 1494.97 1041.96C1495.21 1041.87 1495.39 1041.74 1495.51 1041.58C1495.63 1041.43 1495.7 1041.24 1495.7 1041.04ZM1505.05 1042.1C1505.36 1042.1 1505.63 1042.04 1505.89 1041.91C1506.14 1041.79 1506.35 1041.62 1506.52 1041.41C1506.68 1041.19 1506.78 1040.94 1506.8 1040.66H1508C1507.98 1041.1 1507.83 1041.51 1507.56 1041.89C1507.29 1042.26 1506.93 1042.56 1506.5 1042.79C1506.06 1043.02 1505.58 1043.14 1505.05 1043.14C1504.5 1043.14 1504.01 1043.04 1503.6 1042.84C1503.19 1042.65 1502.85 1042.38 1502.57 1042.04C1502.3 1041.69 1502.1 1041.3 1501.96 1040.86C1501.83 1040.41 1501.77 1039.94 1501.77 1039.45V1039.16C1501.77 1038.66 1501.83 1038.19 1501.96 1037.75C1502.1 1037.3 1502.3 1036.91 1502.57 1036.57C1502.85 1036.23 1503.19 1035.96 1503.6 1035.76C1504.01 1035.56 1504.5 1035.47 1505.05 1035.47C1505.63 1035.47 1506.14 1035.59 1506.57 1035.82C1507.01 1036.05 1507.34 1036.37 1507.59 1036.78C1507.84 1037.18 1507.98 1037.64 1508 1038.15H1506.8C1506.78 1037.84 1506.69 1037.57 1506.54 1037.32C1506.39 1037.07 1506.19 1036.88 1505.94 1036.73C1505.69 1036.58 1505.39 1036.51 1505.05 1036.51C1504.67 1036.51 1504.34 1036.58 1504.08 1036.74C1503.82 1036.89 1503.61 1037.09 1503.46 1037.35C1503.3 1037.61 1503.2 1037.89 1503.13 1038.21C1503.06 1038.52 1503.03 1038.83 1503.03 1039.16V1039.45C1503.03 1039.77 1503.06 1040.09 1503.13 1040.4C1503.19 1040.72 1503.3 1041 1503.45 1041.26C1503.6 1041.51 1503.81 1041.72 1504.07 1041.87C1504.33 1042.02 1504.66 1042.1 1505.05 1042.1ZM1510.69 1036.77V1043H1509.42V1035.6H1510.65L1510.69 1036.77ZM1513 1035.56L1512.99 1036.74C1512.89 1036.72 1512.79 1036.7 1512.69 1036.7C1512.6 1036.69 1512.49 1036.68 1512.38 1036.68C1512.08 1036.68 1511.83 1036.73 1511.6 1036.82C1511.38 1036.91 1511.19 1037.04 1511.04 1037.2C1510.88 1037.37 1510.76 1037.56 1510.67 1037.79C1510.58 1038.01 1510.52 1038.26 1510.5 1038.53L1510.14 1038.73C1510.14 1038.29 1510.18 1037.87 1510.27 1037.48C1510.36 1037.08 1510.5 1036.74 1510.69 1036.44C1510.87 1036.13 1511.11 1035.9 1511.4 1035.73C1511.69 1035.55 1512.04 1035.47 1512.44 1035.47C1512.53 1035.47 1512.63 1035.48 1512.75 1035.5C1512.87 1035.52 1512.95 1035.54 1513 1035.56ZM1517.1 1043.14C1516.58 1043.14 1516.12 1043.05 1515.7 1042.88C1515.28 1042.7 1514.93 1042.45 1514.62 1042.13C1514.33 1041.81 1514.1 1041.43 1513.94 1041C1513.78 1040.56 1513.7 1040.08 1513.7 1039.56V1039.27C1513.7 1038.67 1513.79 1038.14 1513.97 1037.67C1514.15 1037.19 1514.39 1036.79 1514.69 1036.46C1515 1036.14 1515.35 1035.89 1515.73 1035.72C1516.12 1035.55 1516.52 1035.47 1516.94 1035.47C1517.46 1035.47 1517.92 1035.56 1518.3 1035.74C1518.69 1035.92 1519.01 1036.18 1519.25 1036.51C1519.5 1036.83 1519.68 1037.21 1519.8 1037.65C1519.92 1038.09 1519.98 1038.57 1519.98 1039.09V1039.66H1514.45V1038.62H1518.71V1038.53C1518.69 1038.2 1518.63 1037.88 1518.51 1037.57C1518.39 1037.26 1518.21 1037.01 1517.96 1036.81C1517.71 1036.61 1517.37 1036.51 1516.94 1036.51C1516.65 1036.51 1516.38 1036.57 1516.14 1036.69C1515.9 1036.81 1515.69 1036.99 1515.52 1037.22C1515.35 1037.46 1515.21 1037.75 1515.12 1038.09C1515.02 1038.43 1514.97 1038.83 1514.97 1039.27V1039.56C1514.97 1039.91 1515.02 1040.24 1515.12 1040.55C1515.22 1040.86 1515.36 1041.13 1515.55 1041.36C1515.74 1041.59 1515.97 1041.77 1516.24 1041.91C1516.51 1042.04 1516.82 1042.1 1517.17 1042.1C1517.61 1042.1 1517.99 1042.01 1518.3 1041.83C1518.61 1041.65 1518.88 1041.4 1519.12 1041.1L1519.88 1041.71C1519.72 1041.95 1519.52 1042.18 1519.27 1042.4C1519.03 1042.62 1518.72 1042.79 1518.36 1042.93C1518.01 1043.07 1517.59 1043.14 1517.1 1043.14ZM1525.82 1041.74V1037.93C1525.82 1037.64 1525.76 1037.38 1525.64 1037.17C1525.52 1036.95 1525.35 1036.78 1525.12 1036.66C1524.89 1036.54 1524.6 1036.49 1524.26 1036.49C1523.94 1036.49 1523.66 1036.54 1523.42 1036.65C1523.18 1036.76 1522.99 1036.9 1522.86 1037.08C1522.72 1037.26 1522.66 1037.45 1522.66 1037.65H1521.39C1521.39 1037.39 1521.46 1037.13 1521.6 1036.87C1521.73 1036.61 1521.93 1036.37 1522.19 1036.16C1522.45 1035.95 1522.76 1035.78 1523.12 1035.66C1523.48 1035.53 1523.89 1035.47 1524.33 1035.47C1524.87 1035.47 1525.34 1035.56 1525.75 1035.74C1526.17 1035.92 1526.49 1036.2 1526.72 1036.57C1526.96 1036.93 1527.08 1037.39 1527.08 1037.94V1041.39C1527.08 1041.63 1527.1 1041.89 1527.14 1042.17C1527.19 1042.45 1527.25 1042.69 1527.34 1042.89V1043H1526.02C1525.96 1042.85 1525.91 1042.66 1525.87 1042.42C1525.83 1042.17 1525.82 1041.94 1525.82 1041.74ZM1526.03 1038.52L1526.05 1039.4H1524.77C1524.41 1039.4 1524.09 1039.43 1523.81 1039.49C1523.52 1039.55 1523.29 1039.63 1523.09 1039.75C1522.9 1039.86 1522.76 1040 1522.66 1040.18C1522.56 1040.35 1522.51 1040.54 1522.51 1040.77C1522.51 1041 1522.56 1041.22 1522.66 1041.41C1522.77 1041.6 1522.93 1041.75 1523.14 1041.87C1523.35 1041.97 1523.61 1042.03 1523.92 1042.03C1524.31 1042.03 1524.65 1041.95 1524.95 1041.78C1525.24 1041.62 1525.48 1041.42 1525.65 1041.18C1525.83 1040.94 1525.92 1040.71 1525.94 1040.49L1526.48 1041.1C1526.45 1041.29 1526.36 1041.5 1526.22 1041.74C1526.08 1041.97 1525.89 1042.19 1525.65 1042.41C1525.42 1042.61 1525.14 1042.79 1524.82 1042.93C1524.5 1043.07 1524.14 1043.14 1523.74 1043.14C1523.24 1043.14 1522.8 1043.04 1522.42 1042.84C1522.04 1042.65 1521.75 1042.38 1521.54 1042.06C1521.34 1041.72 1521.24 1041.35 1521.24 1040.94C1521.24 1040.55 1521.31 1040.2 1521.47 1039.9C1521.62 1039.59 1521.85 1039.34 1522.14 1039.14C1522.43 1038.93 1522.78 1038.78 1523.19 1038.67C1523.6 1038.57 1524.06 1038.52 1524.56 1038.52H1526.03ZM1532.17 1035.6V1036.57H1528.17V1035.6H1532.17ZM1529.52 1033.81H1530.79V1041.17C1530.79 1041.42 1530.82 1041.61 1530.9 1041.74C1530.98 1041.86 1531.08 1041.95 1531.2 1041.99C1531.33 1042.03 1531.46 1042.05 1531.6 1042.05C1531.7 1042.05 1531.81 1042.04 1531.93 1042.02C1532.05 1042 1532.13 1041.98 1532.19 1041.97L1532.2 1043C1532.1 1043.03 1531.97 1043.06 1531.8 1043.09C1531.64 1043.12 1531.45 1043.14 1531.22 1043.14C1530.91 1043.14 1530.63 1043.08 1530.37 1042.95C1530.11 1042.83 1529.9 1042.62 1529.75 1042.34C1529.6 1042.05 1529.52 1041.65 1529.52 1041.16V1033.81ZM1536.72 1043.14C1536.2 1043.14 1535.74 1043.05 1535.32 1042.88C1534.9 1042.7 1534.54 1042.45 1534.24 1042.13C1533.95 1041.81 1533.72 1041.43 1533.56 1041C1533.4 1040.56 1533.32 1040.08 1533.32 1039.56V1039.27C1533.32 1038.67 1533.41 1038.14 1533.59 1037.67C1533.77 1037.19 1534.01 1036.79 1534.31 1036.46C1534.62 1036.14 1534.96 1035.89 1535.35 1035.72C1535.74 1035.55 1536.14 1035.47 1536.55 1035.47C1537.08 1035.47 1537.54 1035.56 1537.92 1035.74C1538.31 1035.92 1538.63 1036.18 1538.87 1036.51C1539.12 1036.83 1539.3 1037.21 1539.42 1037.65C1539.54 1038.09 1539.6 1038.57 1539.6 1039.09V1039.66H1534.07V1038.62H1538.33V1038.53C1538.31 1038.2 1538.25 1037.88 1538.13 1037.57C1538.01 1037.26 1537.83 1037.01 1537.58 1036.81C1537.33 1036.61 1536.99 1036.51 1536.55 1036.51C1536.27 1036.51 1536 1036.57 1535.76 1036.69C1535.52 1036.81 1535.31 1036.99 1535.14 1037.22C1534.97 1037.46 1534.83 1037.75 1534.74 1038.09C1534.64 1038.43 1534.59 1038.83 1534.59 1039.27V1039.56C1534.59 1039.91 1534.64 1040.24 1534.74 1040.55C1534.84 1040.86 1534.98 1041.13 1535.17 1041.36C1535.36 1041.59 1535.59 1041.77 1535.86 1041.91C1536.13 1042.04 1536.44 1042.1 1536.79 1042.1C1537.23 1042.1 1537.61 1042.01 1537.92 1041.83C1538.23 1041.65 1538.5 1041.4 1538.74 1041.1L1539.5 1041.71C1539.34 1041.95 1539.14 1042.18 1538.89 1042.4C1538.65 1042.62 1538.34 1042.79 1537.98 1042.93C1537.63 1043.07 1537.21 1043.14 1536.72 1043.14ZM1545.74 1041.56V1032.5H1547.01V1043H1545.84L1545.74 1041.56ZM1540.76 1039.38V1039.24C1540.76 1038.68 1540.83 1038.16 1540.96 1037.7C1541.11 1037.24 1541.3 1036.84 1541.56 1036.51C1541.82 1036.17 1542.13 1035.92 1542.48 1035.74C1542.84 1035.56 1543.24 1035.47 1543.68 1035.47C1544.15 1035.47 1544.56 1035.55 1544.9 1035.71C1545.25 1035.87 1545.55 1036.11 1545.79 1036.42C1546.04 1036.72 1546.23 1037.09 1546.37 1037.52C1546.51 1037.96 1546.61 1038.45 1546.67 1038.99V1039.62C1546.61 1040.17 1546.52 1040.65 1546.37 1041.09C1546.23 1041.52 1546.04 1041.89 1545.79 1042.19C1545.55 1042.5 1545.25 1042.73 1544.9 1042.9C1544.55 1043.06 1544.14 1043.14 1543.67 1043.14C1543.24 1043.14 1542.84 1043.04 1542.48 1042.86C1542.13 1042.67 1541.82 1042.41 1541.56 1042.07C1541.3 1041.73 1541.11 1041.34 1540.96 1040.88C1540.83 1040.42 1540.76 1039.92 1540.76 1039.38ZM1542.03 1039.24V1039.38C1542.03 1039.75 1542.07 1040.1 1542.14 1040.42C1542.22 1040.75 1542.34 1041.03 1542.5 1041.28C1542.65 1041.52 1542.86 1041.72 1543.1 1041.86C1543.35 1042 1543.64 1042.06 1543.99 1042.06C1544.4 1042.06 1544.75 1041.97 1545.02 1041.8C1545.29 1041.62 1545.51 1041.38 1545.67 1041.09C1545.84 1040.8 1545.97 1040.48 1546.06 1040.14V1038.5C1546 1038.24 1545.92 1038 1545.82 1037.77C1545.72 1037.53 1545.58 1037.32 1545.42 1037.14C1545.26 1036.95 1545.06 1036.81 1544.83 1036.7C1544.59 1036.59 1544.32 1036.53 1544 1036.53C1543.65 1036.53 1543.35 1036.61 1543.1 1036.75C1542.86 1036.89 1542.65 1037.09 1542.5 1037.34C1542.34 1037.59 1542.22 1037.87 1542.14 1038.2C1542.07 1038.52 1542.03 1038.87 1542.03 1039.24ZM1349.27 1057.04C1349.27 1056.86 1349.23 1056.69 1349.15 1056.53C1349.07 1056.37 1348.91 1056.23 1348.66 1056.1C1348.42 1055.97 1348.06 1055.86 1347.57 1055.76C1347.16 1055.67 1346.79 1055.57 1346.45 1055.45C1346.13 1055.33 1345.85 1055.19 1345.61 1055.02C1345.39 1054.85 1345.21 1054.65 1345.09 1054.43C1344.96 1054.2 1344.9 1053.93 1344.9 1053.63C1344.9 1053.34 1344.97 1053.06 1345.09 1052.8C1345.23 1052.54 1345.41 1052.31 1345.65 1052.11C1345.89 1051.91 1346.18 1051.75 1346.52 1051.64C1346.85 1051.52 1347.23 1051.47 1347.64 1051.47C1348.24 1051.47 1348.74 1051.57 1349.16 1051.78C1349.58 1051.99 1349.9 1052.27 1350.12 1052.62C1350.35 1052.97 1350.46 1053.35 1350.46 1053.78H1349.2C1349.2 1053.57 1349.13 1053.37 1349.01 1053.18C1348.89 1052.99 1348.72 1052.82 1348.48 1052.7C1348.26 1052.57 1347.98 1052.51 1347.64 1052.51C1347.29 1052.51 1347.01 1052.56 1346.79 1052.67C1346.57 1052.77 1346.42 1052.91 1346.32 1053.07C1346.22 1053.24 1346.17 1053.41 1346.17 1053.59C1346.17 1053.73 1346.2 1053.85 1346.24 1053.96C1346.29 1054.07 1346.38 1054.16 1346.5 1054.26C1346.62 1054.34 1346.8 1054.42 1347.02 1054.5C1347.24 1054.58 1347.53 1054.66 1347.88 1054.73C1348.48 1054.87 1348.98 1055.04 1349.37 1055.23C1349.76 1055.42 1350.06 1055.65 1350.25 1055.93C1350.44 1056.21 1350.54 1056.55 1350.54 1056.94C1350.54 1057.27 1350.47 1057.56 1350.33 1057.83C1350.2 1058.1 1350 1058.33 1349.75 1058.53C1349.5 1058.72 1349.2 1058.87 1348.85 1058.98C1348.5 1059.08 1348.11 1059.14 1347.68 1059.14C1347.03 1059.14 1346.47 1059.02 1346.02 1058.79C1345.57 1058.56 1345.23 1058.25 1345 1057.89C1344.77 1057.52 1344.65 1057.13 1344.65 1056.72H1345.92C1345.94 1057.06 1346.04 1057.34 1346.22 1057.54C1346.4 1057.74 1346.63 1057.89 1346.89 1057.97C1347.16 1058.06 1347.42 1058.1 1347.68 1058.1C1348.02 1058.1 1348.31 1058.05 1348.55 1057.96C1348.78 1057.87 1348.96 1057.74 1349.09 1057.58C1349.21 1057.43 1349.27 1057.24 1349.27 1057.04ZM1356.72 1057.29V1051.6H1357.99V1059H1356.78L1356.72 1057.29ZM1356.96 1055.73L1357.49 1055.72C1357.49 1056.21 1357.43 1056.67 1357.33 1057.09C1357.23 1057.5 1357.07 1057.86 1356.84 1058.17C1356.61 1058.47 1356.31 1058.71 1355.94 1058.88C1355.57 1059.05 1355.12 1059.14 1354.6 1059.14C1354.24 1059.14 1353.91 1059.08 1353.6 1058.98C1353.31 1058.87 1353.05 1058.71 1352.84 1058.49C1352.62 1058.28 1352.46 1057.99 1352.34 1057.64C1352.23 1057.29 1352.17 1056.87 1352.17 1056.38V1051.6H1353.43V1056.39C1353.43 1056.72 1353.47 1057 1353.54 1057.22C1353.62 1057.43 1353.72 1057.6 1353.85 1057.73C1353.98 1057.85 1354.13 1057.94 1354.29 1057.99C1354.45 1058.04 1354.62 1058.06 1354.79 1058.06C1355.33 1058.06 1355.76 1057.96 1356.07 1057.76C1356.39 1057.55 1356.61 1057.27 1356.75 1056.92C1356.89 1056.56 1356.96 1056.17 1356.96 1055.73ZM1362.88 1058.1C1363.18 1058.1 1363.46 1058.04 1363.71 1057.91C1363.97 1057.79 1364.18 1057.62 1364.34 1057.41C1364.51 1057.19 1364.6 1056.94 1364.62 1056.66H1365.83C1365.8 1057.1 1365.66 1057.51 1365.38 1057.89C1365.11 1058.26 1364.76 1058.56 1364.32 1058.79C1363.89 1059.02 1363.4 1059.14 1362.88 1059.14C1362.32 1059.14 1361.84 1059.04 1361.42 1058.84C1361.01 1058.65 1360.67 1058.38 1360.4 1058.04C1360.13 1057.69 1359.93 1057.3 1359.79 1056.86C1359.66 1056.41 1359.59 1055.94 1359.59 1055.45V1055.16C1359.59 1054.66 1359.66 1054.19 1359.79 1053.75C1359.93 1053.3 1360.13 1052.91 1360.4 1052.57C1360.67 1052.23 1361.01 1051.96 1361.42 1051.76C1361.84 1051.56 1362.32 1051.47 1362.88 1051.47C1363.46 1051.47 1363.97 1051.59 1364.4 1051.82C1364.83 1052.05 1365.17 1052.37 1365.42 1052.78C1365.67 1053.18 1365.8 1053.64 1365.83 1054.15H1364.62C1364.6 1053.84 1364.51 1053.57 1364.36 1053.32C1364.22 1053.07 1364.02 1052.88 1363.76 1052.73C1363.51 1052.58 1363.22 1052.51 1362.88 1052.51C1362.49 1052.51 1362.17 1052.58 1361.9 1052.74C1361.64 1052.89 1361.44 1053.09 1361.28 1053.35C1361.13 1053.61 1361.02 1053.89 1360.95 1054.21C1360.89 1054.52 1360.86 1054.83 1360.86 1055.16V1055.45C1360.86 1055.77 1360.89 1056.09 1360.95 1056.4C1361.02 1056.72 1361.12 1057 1361.27 1057.26C1361.43 1057.51 1361.64 1057.72 1361.9 1057.87C1362.16 1058.02 1362.49 1058.1 1362.88 1058.1ZM1370.21 1058.1C1370.51 1058.1 1370.79 1058.04 1371.04 1057.91C1371.3 1057.79 1371.51 1057.62 1371.67 1057.41C1371.84 1057.19 1371.93 1056.94 1371.95 1056.66H1373.16C1373.13 1057.1 1372.98 1057.51 1372.71 1057.89C1372.44 1058.26 1372.09 1058.56 1371.65 1058.79C1371.21 1059.02 1370.73 1059.14 1370.21 1059.14C1369.65 1059.14 1369.17 1059.04 1368.75 1058.84C1368.34 1058.65 1368 1058.38 1367.73 1058.04C1367.46 1057.69 1367.26 1057.3 1367.12 1056.86C1366.99 1056.41 1366.92 1055.94 1366.92 1055.45V1055.16C1366.92 1054.66 1366.99 1054.19 1367.12 1053.75C1367.26 1053.3 1367.46 1052.91 1367.73 1052.57C1368 1052.23 1368.34 1051.96 1368.75 1051.76C1369.17 1051.56 1369.65 1051.47 1370.21 1051.47C1370.79 1051.47 1371.29 1051.59 1371.73 1051.82C1372.16 1052.05 1372.5 1052.37 1372.75 1052.78C1373 1053.18 1373.13 1053.64 1373.16 1054.15H1371.95C1371.93 1053.84 1371.84 1053.57 1371.69 1053.32C1371.55 1053.07 1371.35 1052.88 1371.09 1052.73C1370.84 1052.58 1370.55 1052.51 1370.21 1052.51C1369.82 1052.51 1369.5 1052.58 1369.23 1052.74C1368.97 1052.89 1368.76 1053.09 1368.61 1053.35C1368.46 1053.61 1368.35 1053.89 1368.28 1054.21C1368.22 1054.52 1368.19 1054.83 1368.19 1055.16V1055.45C1368.19 1055.77 1368.22 1056.09 1368.28 1056.4C1368.35 1056.72 1368.45 1057 1368.6 1057.26C1368.76 1057.51 1368.96 1057.72 1369.22 1057.87C1369.49 1058.02 1369.82 1058.1 1370.21 1058.1ZM1377.65 1059.14C1377.13 1059.14 1376.66 1059.05 1376.25 1058.88C1375.83 1058.7 1375.47 1058.45 1375.17 1058.13C1374.88 1057.81 1374.65 1057.43 1374.49 1057C1374.33 1056.56 1374.25 1056.08 1374.25 1055.56V1055.27C1374.25 1054.67 1374.34 1054.14 1374.52 1053.67C1374.69 1053.19 1374.93 1052.79 1375.24 1052.46C1375.55 1052.14 1375.89 1051.89 1376.28 1051.72C1376.67 1051.55 1377.07 1051.47 1377.48 1051.47C1378.01 1051.47 1378.47 1051.56 1378.85 1051.74C1379.24 1051.92 1379.55 1052.18 1379.8 1052.51C1380.05 1052.83 1380.23 1053.21 1380.35 1053.65C1380.47 1054.09 1380.52 1054.57 1380.52 1055.09V1055.66H1375V1054.62H1379.26V1054.53C1379.24 1054.2 1379.17 1053.88 1379.05 1053.57C1378.94 1053.26 1378.76 1053.01 1378.51 1052.81C1378.26 1052.61 1377.92 1052.51 1377.48 1052.51C1377.2 1052.51 1376.93 1052.57 1376.69 1052.69C1376.45 1052.81 1376.24 1052.99 1376.07 1053.22C1375.89 1053.46 1375.76 1053.75 1375.66 1054.09C1375.57 1054.43 1375.52 1054.83 1375.52 1055.27V1055.56C1375.52 1055.91 1375.57 1056.24 1375.66 1056.55C1375.76 1056.86 1375.91 1057.13 1376.09 1057.36C1376.29 1057.59 1376.52 1057.77 1376.79 1057.91C1377.06 1058.04 1377.37 1058.1 1377.71 1058.1C1378.16 1058.1 1378.54 1058.01 1378.85 1057.83C1379.16 1057.65 1379.43 1057.4 1379.66 1057.1L1380.43 1057.71C1380.27 1057.95 1380.07 1058.18 1379.82 1058.4C1379.57 1058.62 1379.27 1058.79 1378.91 1058.93C1378.56 1059.07 1378.13 1059.14 1377.65 1059.14ZM1386.31 1057.04C1386.31 1056.86 1386.27 1056.69 1386.18 1056.53C1386.11 1056.37 1385.95 1056.23 1385.7 1056.1C1385.46 1055.97 1385.09 1055.86 1384.61 1055.76C1384.2 1055.67 1383.82 1055.57 1383.49 1055.45C1383.16 1055.33 1382.88 1055.19 1382.65 1055.02C1382.42 1054.85 1382.25 1054.65 1382.12 1054.43C1382 1054.2 1381.94 1053.93 1381.94 1053.63C1381.94 1053.34 1382 1053.06 1382.13 1052.8C1382.26 1052.54 1382.45 1052.31 1382.68 1052.11C1382.93 1051.91 1383.22 1051.75 1383.55 1051.64C1383.89 1051.52 1384.27 1051.47 1384.68 1051.47C1385.27 1051.47 1385.78 1051.57 1386.2 1051.78C1386.62 1051.99 1386.94 1052.27 1387.16 1052.62C1387.39 1052.97 1387.5 1053.35 1387.5 1053.78H1386.23C1386.23 1053.57 1386.17 1053.37 1386.05 1053.18C1385.93 1052.99 1385.75 1052.82 1385.52 1052.7C1385.29 1052.57 1385.01 1052.51 1384.68 1052.51C1384.33 1052.51 1384.04 1052.56 1383.83 1052.67C1383.61 1052.77 1383.45 1052.91 1383.35 1053.07C1383.26 1053.24 1383.21 1053.41 1383.21 1053.59C1383.21 1053.73 1383.23 1053.85 1383.28 1053.96C1383.33 1054.07 1383.42 1054.16 1383.54 1054.26C1383.66 1054.34 1383.84 1054.42 1384.06 1054.5C1384.28 1054.58 1384.57 1054.66 1384.91 1054.73C1385.52 1054.87 1386.02 1055.04 1386.41 1055.23C1386.8 1055.42 1387.09 1055.65 1387.29 1055.93C1387.48 1056.21 1387.57 1056.55 1387.57 1056.94C1387.57 1057.27 1387.5 1057.56 1387.37 1057.83C1387.24 1058.1 1387.04 1058.33 1386.79 1058.53C1386.54 1058.72 1386.23 1058.87 1385.88 1058.98C1385.54 1059.08 1385.15 1059.14 1384.71 1059.14C1384.06 1059.14 1383.51 1059.02 1383.06 1058.79C1382.61 1058.56 1382.27 1058.25 1382.04 1057.89C1381.8 1057.52 1381.69 1057.13 1381.69 1056.72H1382.96C1382.98 1057.06 1383.08 1057.34 1383.26 1057.54C1383.44 1057.74 1383.66 1057.89 1383.93 1057.97C1384.19 1058.06 1384.46 1058.1 1384.71 1058.1C1385.06 1058.1 1385.35 1058.05 1385.58 1057.96C1385.82 1057.87 1386 1057.74 1386.12 1057.58C1386.25 1057.43 1386.31 1057.24 1386.31 1057.04ZM1393.54 1057.04C1393.54 1056.86 1393.5 1056.69 1393.42 1056.53C1393.34 1056.37 1393.18 1056.23 1392.93 1056.1C1392.69 1055.97 1392.33 1055.86 1391.84 1055.76C1391.43 1055.67 1391.06 1055.57 1390.72 1055.45C1390.4 1055.33 1390.12 1055.19 1389.88 1055.02C1389.65 1054.85 1389.48 1054.65 1389.36 1054.43C1389.23 1054.2 1389.17 1053.93 1389.17 1053.63C1389.17 1053.34 1389.24 1053.06 1389.36 1052.8C1389.5 1052.54 1389.68 1052.31 1389.92 1052.11C1390.16 1051.91 1390.45 1051.75 1390.79 1051.64C1391.12 1051.52 1391.5 1051.47 1391.91 1051.47C1392.51 1051.47 1393.01 1051.57 1393.43 1051.78C1393.85 1051.99 1394.17 1052.27 1394.39 1052.62C1394.62 1052.97 1394.73 1053.35 1394.73 1053.78H1393.46C1393.46 1053.57 1393.4 1053.37 1393.28 1053.18C1393.16 1052.99 1392.99 1052.82 1392.75 1052.7C1392.53 1052.57 1392.25 1052.51 1391.91 1052.51C1391.56 1052.51 1391.28 1052.56 1391.06 1052.67C1390.84 1052.77 1390.69 1052.91 1390.59 1053.07C1390.49 1053.24 1390.44 1053.41 1390.44 1053.59C1390.44 1053.73 1390.47 1053.85 1390.51 1053.96C1390.56 1054.07 1390.65 1054.16 1390.77 1054.26C1390.89 1054.34 1391.07 1054.42 1391.29 1054.5C1391.51 1054.58 1391.8 1054.66 1392.15 1054.73C1392.75 1054.87 1393.25 1055.04 1393.64 1055.23C1394.03 1055.42 1394.33 1055.65 1394.52 1055.93C1394.71 1056.21 1394.8 1056.55 1394.8 1056.94C1394.8 1057.27 1394.74 1057.56 1394.6 1057.83C1394.47 1058.1 1394.27 1058.33 1394.02 1058.53C1393.77 1058.72 1393.47 1058.87 1393.12 1058.98C1392.77 1059.08 1392.38 1059.14 1391.95 1059.14C1391.3 1059.14 1390.74 1059.02 1390.29 1058.79C1389.84 1058.56 1389.5 1058.25 1389.27 1057.89C1389.04 1057.52 1388.92 1057.13 1388.92 1056.72H1390.19C1390.21 1057.06 1390.31 1057.34 1390.49 1057.54C1390.67 1057.74 1390.9 1057.89 1391.16 1057.97C1391.43 1058.06 1391.69 1058.1 1391.95 1058.1C1392.29 1058.1 1392.58 1058.05 1392.82 1057.96C1393.05 1057.87 1393.23 1057.74 1393.36 1057.58C1393.48 1057.43 1393.54 1057.24 1393.54 1057.04ZM1398.35 1059H1397.09V1050.82C1397.09 1050.29 1397.18 1049.84 1397.38 1049.48C1397.57 1049.11 1397.85 1048.83 1398.22 1048.64C1398.58 1048.45 1399.01 1048.36 1399.51 1048.36C1399.66 1048.36 1399.81 1048.37 1399.95 1048.38C1400.1 1048.4 1400.25 1048.43 1400.39 1048.47L1400.32 1049.5C1400.23 1049.48 1400.12 1049.46 1399.99 1049.45C1399.87 1049.44 1399.76 1049.44 1399.64 1049.44C1399.37 1049.44 1399.14 1049.49 1398.94 1049.6C1398.75 1049.71 1398.6 1049.86 1398.5 1050.07C1398.4 1050.27 1398.35 1050.52 1398.35 1050.82V1059ZM1399.92 1051.6V1052.57H1395.92V1051.6H1399.92ZM1405.86 1057.29V1051.6H1407.13V1059H1405.92L1405.86 1057.29ZM1406.1 1055.73L1406.62 1055.72C1406.62 1056.21 1406.57 1056.67 1406.47 1057.09C1406.37 1057.5 1406.2 1057.86 1405.97 1058.17C1405.75 1058.47 1405.45 1058.71 1405.08 1058.88C1404.71 1059.05 1404.26 1059.14 1403.73 1059.14C1403.37 1059.14 1403.04 1059.08 1402.74 1058.98C1402.44 1058.87 1402.19 1058.71 1401.98 1058.49C1401.76 1058.28 1401.6 1057.99 1401.48 1057.64C1401.36 1057.29 1401.31 1056.87 1401.31 1056.38V1051.6H1402.57V1056.39C1402.57 1056.72 1402.61 1057 1402.68 1057.22C1402.76 1057.43 1402.86 1057.6 1402.99 1057.73C1403.12 1057.85 1403.27 1057.94 1403.42 1057.99C1403.59 1058.04 1403.76 1058.06 1403.93 1058.06C1404.47 1058.06 1404.89 1057.96 1405.21 1057.76C1405.52 1057.55 1405.75 1057.27 1405.89 1056.92C1406.03 1056.56 1406.1 1056.17 1406.1 1055.73ZM1410.43 1048.5V1059H1409.16V1048.5H1410.43ZM1413.84 1048.5V1059H1412.56V1048.5H1413.84ZM1417.94 1058.23L1420 1051.6H1421.36L1418.39 1060.14C1418.32 1060.32 1418.23 1060.52 1418.12 1060.73C1418.01 1060.94 1417.86 1061.15 1417.69 1061.34C1417.52 1061.53 1417.31 1061.68 1417.06 1061.8C1416.82 1061.93 1416.53 1061.99 1416.19 1061.99C1416.09 1061.99 1415.97 1061.97 1415.81 1061.95C1415.66 1061.92 1415.55 1061.9 1415.48 1061.88L1415.48 1060.85C1415.51 1060.86 1415.57 1060.86 1415.65 1060.87C1415.73 1060.88 1415.79 1060.88 1415.82 1060.88C1416.11 1060.88 1416.35 1060.84 1416.55 1060.76C1416.75 1060.69 1416.92 1060.57 1417.06 1060.39C1417.2 1060.21 1417.32 1059.98 1417.42 1059.67L1417.94 1058.23ZM1416.43 1051.6L1418.35 1057.35L1418.68 1058.68L1417.77 1059.14L1415.05 1051.6H1416.43ZM1421.78 1058.33C1421.78 1058.12 1421.85 1057.94 1421.98 1057.79C1422.11 1057.64 1422.31 1057.56 1422.57 1057.56C1422.82 1057.56 1423.01 1057.64 1423.15 1057.79C1423.28 1057.94 1423.35 1058.12 1423.35 1058.33C1423.35 1058.54 1423.28 1058.72 1423.15 1058.86C1423.01 1059.01 1422.82 1059.08 1422.57 1059.08C1422.31 1059.08 1422.11 1059.01 1421.98 1058.86C1421.85 1058.72 1421.78 1058.54 1421.78 1058.33Z" fill="black"/>
</g>
</g>
<rect x="1296.5" y="990.5" width="279" height="83" stroke="#00813A"/>
</g>
<defs>
<filter id="filter0_d_1316_6692" x="1286" y="980" width="300" height="104" filterUnits="userSpaceOnUse" color-interpolation-filters="sRGB">
<feFlood flood-opacity="0" result="BackgroundImageFix"/>
<feColorMatrix in="SourceAlpha" type="matrix" values="0 0 0 0 0 0 0 0 0 0 0 0 0 0 0 0 0 0 127 0" result="hardAlpha"/>
<feOffset/>
<feGaussianBlur stdDeviation="5"/>
<feComposite in2="hardAlpha" operator="out"/>
<feColorMatrix type="matrix" values="0 0 0 0 0 0 0 0 0 0 0 0 0 0 0 0 0 0 0.5 0"/>
<feBlend mode="normal" in2="BackgroundImageFix" result="effect1_dropShadow_1316_6692"/>
<feBlend mode="normal" in="SourceGraphic" in2="effect1_dropShadow_1316_6692" result="shape"/>
</filter>
<clipPath id="clip0_1316_6692">
<rect width="1600" height="1100" fill="white"/>
</clipPath>
<clipPath id="clip1_1316_6692">
<path d="M0 0H1600V72H0V0Z" fill="white"/>
</clipPath>
<clipPath id="clip2_1316_6692">
<rect width="42" height="42" fill="white" transform="translate(15 15)"/>
</clipPath>
<clipPath id="clip3_1316_6692">
<rect width="20" height="20" fill="white" transform="translate(1556 26)"/>
</clipPath>
<clipPath id="clip4_1316_6692">
<rect width="1600" height="1028" fill="white" transform="translate(0 72)"/>
</clipPath>
<clipPath id="clip5_1316_6692">
<rect width="1600" height="960" fill="white" transform="translate(0 140)"/>
</clipPath>
<clipPath id="clip6_1316_6692">
<rect width="1552" height="56" fill="white" transform="translate(24 140)"/>
</clipPath>
<clipPath id="clip7_1316_6692">
<rect width="24" height="24" fill="white" transform="translate(1358 156)"/>
</clipPath>
<clipPath id="clip8_1316_6692">
<rect width="24" height="24" fill="white" transform="translate(1398 156)"/>
</clipPath>
<clipPath id="clip9_1316_6692">
<rect width="24" height="24" fill="white" transform="translate(1438 156)"/>
</clipPath>
<clipPath id="clip10_1316_6692">
<rect width="1552" height="409" fill="white" transform="translate(24 196)"/>
</clipPath>
<clipPath id="clip11_1316_6692">
<rect width="40" height="409" fill="white" transform="translate(24 196)"/>
</clipPath>
<clipPath id="clip12_1316_6692">
<rect width="320" height="409" fill="white" transform="translate(64 196)"/>
</clipPath>
<clipPath id="clip13_1316_6692">
<rect width="384" height="409" fill="white" transform="translate(384 196)"/>
</clipPath>
<clipPath id="clip14_1316_6692">
<rect width="384" height="409" fill="white" transform="translate(768 196)"/>
</clipPath>
<clipPath id="clip15_1316_6692">
<rect width="384" height="409" fill="white" transform="translate(1152 196)"/>
</clipPath>
<clipPath id="clip16_1316_6692">
<rect width="40" height="409" fill="white" transform="translate(1536 196)"/>
</clipPath>
<clipPath id="clip17_1316_6692">
<rect width="24" height="24" fill="white" transform="translate(1544 244.5)"/>
</clipPath>
<clipPath id="clip18_1316_6692">
<rect width="24" height="24" fill="white" transform="translate(1544 285.5)"/>
</clipPath>
<clipPath id="clip19_1316_6692">
<rect width="24" height="24" fill="white" transform="translate(1544 326.5)"/>
</clipPath>
<clipPath id="clip20_1316_6692">
<rect width="24" height="24" fill="white" transform="translate(1544 367.5)"/>
</clipPath>
<clipPath id="clip21_1316_6692">
<rect width="24" height="24" fill="white" transform="translate(1544 408.5)"/>
</clipPath>
<clipPath id="clip22_1316_6692">
<rect width="24" height="24" fill="white" transform="translate(1544 449.5)"/>
</clipPath>
<clipPath id="clip23_1316_6692">
<rect width="24" height="24" fill="white" transform="translate(1544 490.5)"/>
</clipPath>
<clipPath id="clip24_1316_6692">
<rect width="24" height="24" fill="white" transform="translate(1544 531.5)"/>
</clipPath>
<clipPath id="clip25_1316_6692">
<rect width="24" height="24" fill="white" transform="translate(1544 572.5)"/>
</clipPath>
<clipPath id="clip26_1316_6692">
<rect x="1296" y="990" width="280" height="84" fill="white"/>
</clipPath>
<clipPath id="clip27_1316_6692">
<rect width="276" height="84" fill="white" transform="translate(1300 990)"/>
</clipPath>
<clipPath id="clip28_1316_6692">
<rect width="20" height="20" fill="white" transform="translate(1316 1006)"/>
</clipPath>
</defs>
</svg>
