<svg width="1600" height="1076" viewBox="0 0 1600 1076" fill="none" xmlns="http://www.w3.org/2000/svg">
<g clip-path="url(#clip0_1330_5675)">
<rect width="1600" height="1076" fill="white"/>
<g clip-path="url(#clip1_1330_5675)">
<mask id="path-1-inside-1_1330_5675" fill="white">
<path d="M0 0H1600V48H0V0Z"/>
</mask>
<path d="M0 0H1600V48H0V0Z" fill="white"/>
<mask id="path-3-inside-2_1330_5675" fill="white">
<path d="M0 0H49V48H0V0Z"/>
</mask>
<path d="M49 0H48V48H49H50V0H49Z" fill="#D7D7D7" mask="url(#path-3-inside-2_1330_5675)"/>
<g clip-path="url(#clip2_1330_5675)">
<path d="M24.5001 13.5C21.3501 13.5 18.2001 14.025 14.9751 15.075C14.9751 22.5 14.9751 30.3 24.5001 34.5C34.0251 30.3 34.0251 22.5 34.0251 15.075C30.8001 14.025 27.6501 13.5 24.5001 13.5ZM26.3751 24.9V29.325H22.5501V24.9H18.2001V21.075H22.6251V16.65H26.4501V21.075H30.8751V24.9H26.3751V24.9Z" fill="#DC0018"/>
</g>
<mask id="path-6-inside-3_1330_5675" fill="white">
<path d="M49 0H98V48H49V0Z"/>
</mask>
<path d="M98 0H97V48H98H99V0H98Z" fill="#D7D7D7" mask="url(#path-6-inside-3_1330_5675)"/>
<g clip-path="url(#clip3_1330_5675)">
<path fill-rule="evenodd" clip-rule="evenodd" d="M70.9054 18.5304L69.8448 17.4697L63.3145 24.0001L69.8448 30.5304L70.9054 29.4697L66.1857 24.75H82.375V23.25H66.1858L70.9054 18.5304Z" fill="#212121"/>
</g>
<rect x="110" y="14" width="20" height="20" fill="#848484"/>
<rect x="142" y="18" width="100" height="12" fill="#848484"/>
<g clip-path="url(#clip4_1330_5675)">
<path d="M1572.25 24.3662V22.75H1571V24.625C1571 24.7907 1571.07 24.9497 1571.18 25.0669L1572.88 26.7588V27.75H1559.12V26.7588L1560.82 25.0669C1560.93 24.9497 1561 24.7907 1561 24.625V22.125C1561 21.2468 1561.23 20.3837 1561.67 19.6229C1562.11 18.8621 1562.74 18.2305 1563.5 17.792C1564.26 17.3534 1565.12 17.1233 1566 17.125C1566.88 17.1267 1567.74 17.3601 1568.5 17.8016V16.4042C1567.91 16.1408 1567.27 15.9729 1566.62 15.9068V14.625H1565.38V15.9068C1563.83 16.0635 1562.41 16.786 1561.37 17.9346C1560.33 19.0832 1559.75 20.5762 1559.75 22.125V24.3662L1558.06 26.0581C1557.94 26.1753 1557.88 26.3343 1557.88 26.5V28.375C1557.88 28.5408 1557.94 28.6997 1558.06 28.8169C1558.18 28.9342 1558.33 29 1558.5 29H1562.88V29.625C1562.88 30.4538 1563.2 31.2487 1563.79 31.8347C1564.38 32.4208 1565.17 32.75 1566 32.75C1566.83 32.75 1567.62 32.4208 1568.21 31.8347C1568.8 31.2487 1569.12 30.4538 1569.12 29.625V29H1573.5C1573.67 29 1573.82 28.9342 1573.94 28.8169C1574.06 28.6997 1574.12 28.5408 1574.12 28.375V26.5C1574.12 26.3343 1574.06 26.1753 1573.94 26.0581L1572.25 24.3662ZM1567.88 29.625C1567.88 30.1223 1567.68 30.5992 1567.33 30.9508C1566.97 31.3025 1566.5 31.5 1566 31.5C1565.5 31.5 1565.03 31.3025 1564.67 30.9508C1564.32 30.5992 1564.12 30.1223 1564.12 29.625V29H1567.88V29.625Z" fill="black"/>
<path d="M1572.25 21.5C1573.63 21.5 1574.75 20.3807 1574.75 19C1574.75 17.6193 1573.63 16.5 1572.25 16.5C1570.87 16.5 1569.75 17.6193 1569.75 19C1569.75 20.3807 1570.87 21.5 1572.25 21.5Z" fill="black"/>
</g>
</g>
<path d="M1600 48V44H0V48V52H1600V48Z" fill="#DC0018" mask="url(#path-1-inside-1_1330_5675)"/>
<g clip-path="url(#clip5_1330_5675)">
<mask id="path-13-inside-4_1330_5675" fill="white">
<path d="M0 64H1600V160H0V64Z"/>
</mask>
<path d="M0 64H1600V160H0V64Z" fill="white"/>
<path d="M1600 160V158H0V160V162H1600V160Z" fill="#D9D9D9" mask="url(#path-13-inside-4_1330_5675)"/>
<rect width="1600" height="52" transform="translate(0 64)" fill="white"/>
<rect width="1456" height="36" transform="translate(24 72)" fill="white"/>
<rect x="24" y="72" width="140" height="18" fill="#848484"/>
<g clip-path="url(#clip6_1330_5675)">
<rect width="96" height="36" transform="translate(1480 72)" fill="white"/>
<path d="M1495.75 82.7998H1501V84.2998H1499.2V98.9248C1499.2 99.789 1498.49 100.5 1497.62 100.5H1486.45C1485.59 100.5 1484.88 99.789 1484.88 98.9248V84.2998H1483V82.7998H1488.25V79.5H1495.75V82.7998ZM1486.38 84.2998V98.9248C1486.38 98.9379 1486.38 98.9568 1486.4 98.9756C1486.42 98.9944 1486.44 99 1486.45 99H1497.62C1497.64 99 1497.66 98.9944 1497.68 98.9756C1497.69 98.9568 1497.7 98.9379 1497.7 98.9248V84.2998H1486.38ZM1490.8 96H1489.3V87.2998H1490.8V96ZM1494.7 96H1493.2V87.2998H1494.7V96ZM1489.75 82.7998H1494.25V81H1489.75V82.7998Z" fill="#006699"/>
<rect width="56" height="36" transform="translate(1520 72)" fill="#FF00FF"/>
<path d="M1543.62 93.9268V95H1538.35V93.9268H1543.62ZM1538.62 85.0469V95H1537.3V85.0469H1538.62ZM1542.93 89.3262V90.3994H1538.35V89.3262H1542.93ZM1543.56 85.0469V86.127H1538.35V85.0469H1543.56ZM1549.59 93.5645V84.5H1550.86V95H1549.7L1549.59 93.5645ZM1544.62 91.3838V91.2402C1544.62 90.6751 1544.68 90.1624 1544.82 89.7021C1544.96 89.2373 1545.16 88.8385 1545.42 88.5059C1545.68 88.1732 1545.98 87.918 1546.34 87.7402C1546.7 87.5579 1547.1 87.4668 1547.54 87.4668C1548.01 87.4668 1548.41 87.5488 1548.76 87.7129C1549.11 87.8724 1549.41 88.1071 1549.65 88.417C1549.89 88.7223 1550.09 89.0915 1550.23 89.5244C1550.37 89.9574 1550.47 90.4473 1550.52 90.9941V91.623C1550.47 92.1654 1550.37 92.653 1550.23 93.0859C1550.09 93.5189 1549.89 93.888 1549.65 94.1934C1549.41 94.4987 1549.11 94.7334 1548.76 94.8975C1548.41 95.057 1548 95.1367 1547.53 95.1367C1547.1 95.1367 1546.7 95.0433 1546.34 94.8564C1545.98 94.6696 1545.68 94.4076 1545.42 94.0703C1545.16 93.7331 1544.96 93.3366 1544.82 92.8809C1544.68 92.4206 1544.62 91.9215 1544.62 91.3838ZM1545.89 91.2402V91.3838C1545.89 91.7529 1545.92 92.0993 1546 92.4229C1546.07 92.7464 1546.19 93.0312 1546.35 93.2773C1546.51 93.5234 1546.71 93.7171 1546.96 93.8584C1547.21 93.9951 1547.5 94.0635 1547.84 94.0635C1548.26 94.0635 1548.61 93.9746 1548.88 93.7969C1549.15 93.6191 1549.37 93.3844 1549.53 93.0928C1549.7 92.8011 1549.82 92.4844 1549.91 92.1426V90.4951C1549.86 90.2445 1549.78 90.0029 1549.67 89.7705C1549.57 89.5335 1549.44 89.3239 1549.28 89.1416C1549.12 88.9548 1548.92 88.8066 1548.68 88.6973C1548.45 88.5879 1548.18 88.5332 1547.86 88.5332C1547.51 88.5332 1547.21 88.6061 1546.96 88.752C1546.71 88.8932 1546.51 89.0892 1546.35 89.3398C1546.19 89.5859 1546.07 89.873 1546 90.2012C1545.92 90.5247 1545.89 90.8711 1545.89 91.2402ZM1554.21 87.6035V95H1552.94V87.6035H1554.21ZM1552.84 85.6416C1552.84 85.4365 1552.9 85.2633 1553.02 85.1221C1553.15 84.9808 1553.34 84.9102 1553.58 84.9102C1553.83 84.9102 1554.01 84.9808 1554.14 85.1221C1554.27 85.2633 1554.34 85.4365 1554.34 85.6416C1554.34 85.8376 1554.27 86.0062 1554.14 86.1475C1554.01 86.2842 1553.83 86.3525 1553.58 86.3525C1553.34 86.3525 1553.15 86.2842 1553.02 86.1475C1552.9 86.0062 1552.84 85.8376 1552.84 85.6416ZM1559.33 87.6035V88.5742H1555.33V87.6035H1559.33ZM1556.69 85.8057H1557.95V93.168C1557.95 93.4186 1557.99 93.6077 1558.07 93.7354C1558.15 93.863 1558.25 93.9473 1558.37 93.9883C1558.49 94.0293 1558.63 94.0498 1558.77 94.0498C1558.87 94.0498 1558.98 94.0407 1559.09 94.0225C1559.21 93.9997 1559.3 93.9814 1559.36 93.9678L1559.37 95C1559.27 95.0319 1559.14 95.0615 1558.97 95.0889C1558.81 95.1208 1558.62 95.1367 1558.39 95.1367C1558.08 95.1367 1557.8 95.0752 1557.54 94.9521C1557.28 94.8291 1557.07 94.624 1556.91 94.3369C1556.76 94.0452 1556.69 93.6533 1556.69 93.1611V85.8057Z" fill="white"/>
</g>
<g clip-path="url(#clip7_1330_5675)">
<rect x="24" y="128" width="80" height="10" fill="#006699"/>
<g clip-path="url(#clip8_1330_5675)">
<rect width="80" height="4" transform="translate(24 156)" fill="#006699"/>
<rect x="24" y="156" width="80" height="4" fill="#006699"/>
</g>
</g>
<rect x="128" y="128" width="80" height="10" fill="#848484"/>
<rect x="232" y="128" width="80" height="10" fill="#006699"/>
<rect x="336" y="128" width="80" height="10" fill="#D9D9D9"/>
<rect width="1600" height="916" transform="translate(0 160)" fill="#F2F4F6"/>
<g clip-path="url(#clip9_1330_5675)">
<mask id="path-23-inside-5_1330_5675" fill="white">
<path d="M0 160H1600V376H0V160Z"/>
</mask>
<rect x="24" y="183" width="83" height="14" fill="#B9B9B9"/>
<rect width="110" height="12" transform="translate(25 220)" fill="#D9D9D9"/>
<g clip-path="url(#clip10_1330_5675)">
<rect x="24" y="252" width="64" height="8" fill="#D9D9D9"/>
<rect x="24" y="268" width="80" height="10" fill="#848484"/>
<rect x="418" y="252" width="64" height="8" fill="#D9D9D9"/>
<rect x="418" y="268" width="80" height="10" fill="#848484"/>
<rect x="812" y="252" width="64" height="8" fill="#D9D9D9"/>
<rect x="812" y="268" width="80" height="10" fill="#848484"/>
<rect x="1206" y="252" width="64" height="8" fill="#D9D9D9"/>
<rect x="1206" y="268" width="80" height="10" fill="#848484"/>
</g>
<g clip-path="url(#clip11_1330_5675)">
<rect x="24" y="314" width="64" height="8" fill="#D9D9D9"/>
<rect x="24" y="330" width="80" height="10" fill="#848484"/>
<rect x="812" y="314" width="64" height="8" fill="#D9D9D9"/>
<rect x="812" y="330" width="80" height="10" fill="#848484"/>
</g>
</g>
<path d="M1600 376V375H0V376V377H1600V376Z" fill="#D7D7D7" mask="url(#path-23-inside-5_1330_5675)"/>
</g>
</g>
<defs>
<clipPath id="clip0_1330_5675">
<rect width="1600" height="1076" fill="white"/>
</clipPath>
<clipPath id="clip1_1330_5675">
<path d="M0 0H1600V48H0V0Z" fill="white"/>
</clipPath>
<clipPath id="clip2_1330_5675">
<rect width="24" height="24" fill="white" transform="translate(12.5 12)"/>
</clipPath>
<clipPath id="clip3_1330_5675">
<rect width="24" height="24" fill="white" transform="translate(61 12)"/>
</clipPath>
<clipPath id="clip4_1330_5675">
<rect width="20" height="20" fill="white" transform="translate(1556 14)"/>
</clipPath>
<clipPath id="clip5_1330_5675">
<rect width="1600" height="1028" fill="white" transform="translate(0 48)"/>
</clipPath>
<clipPath id="clip6_1330_5675">
<rect width="96" height="36" fill="white" transform="translate(1480 72)"/>
</clipPath>
<clipPath id="clip7_1330_5675">
<rect width="80" height="32" fill="white" transform="translate(24 128)"/>
</clipPath>
<clipPath id="clip8_1330_5675">
<rect width="80" height="4" fill="white" transform="translate(24 156)"/>
</clipPath>
<clipPath id="clip9_1330_5675">
<path d="M0 160H1600V376H0V160Z" fill="white"/>
</clipPath>
<clipPath id="clip10_1330_5675">
<rect width="1552" height="38" fill="white" transform="translate(24 252)"/>
</clipPath>
<clipPath id="clip11_1330_5675">
<rect width="1552" height="38" fill="white" transform="translate(24 314)"/>
</clipPath>
</defs>
</svg>
