<svg width="1600" height="1076" viewBox="0 0 1600 1076" fill="none" xmlns="http://www.w3.org/2000/svg">
<g clip-path="url(#clip0_1330_6043)">
<rect width="1600" height="1076" fill="white"/>
<g clip-path="url(#clip1_1330_6043)">
<mask id="path-1-inside-1_1330_6043" fill="white">
<path d="M0 0H1600V48H0V0Z"/>
</mask>
<path d="M0 0H1600V48H0V0Z" fill="white"/>
<mask id="path-3-inside-2_1330_6043" fill="white">
<path d="M0 0H49V48H0V0Z"/>
</mask>
<path d="M49 0H48V48H49H50V0H49Z" fill="#D7D7D7" mask="url(#path-3-inside-2_1330_6043)"/>
<g clip-path="url(#clip2_1330_6043)">
<path d="M24.5001 13.5C21.3501 13.5 18.2001 14.025 14.9751 15.075C14.9751 22.5 14.9751 30.3 24.5001 34.5C34.0251 30.3 34.0251 22.5 34.0251 15.075C30.8001 14.025 27.6501 13.5 24.5001 13.5ZM26.3751 24.9V29.325H22.5501V24.9H18.2001V21.075H22.6251V16.65H26.4501V21.075H30.8751V24.9H26.3751V24.9Z" fill="#DC0018"/>
</g>
<mask id="path-6-inside-3_1330_6043" fill="white">
<path d="M49 0H98V48H49V0Z"/>
</mask>
<path d="M98 0H97V48H98H99V0H98Z" fill="#D7D7D7" mask="url(#path-6-inside-3_1330_6043)"/>
<g clip-path="url(#clip3_1330_6043)">
<path fill-rule="evenodd" clip-rule="evenodd" d="M70.9054 18.5304L69.8448 17.4697L63.3145 24.0001L69.8448 30.5304L70.9054 29.4697L66.1857 24.75H82.375V23.25H66.1858L70.9054 18.5304Z" fill="#212121"/>
</g>
<rect x="110" y="14" width="20" height="20" fill="#848484"/>
<rect x="142" y="18" width="100" height="12" fill="#848484"/>
<g clip-path="url(#clip4_1330_6043)">
<path d="M1572.25 24.3662V22.75H1571V24.625C1571 24.7907 1571.07 24.9497 1571.18 25.0669L1572.88 26.7588V27.75H1559.12V26.7588L1560.82 25.0669C1560.93 24.9497 1561 24.7907 1561 24.625V22.125C1561 21.2468 1561.23 20.3837 1561.67 19.6229C1562.11 18.8621 1562.74 18.2305 1563.5 17.792C1564.26 17.3534 1565.12 17.1233 1566 17.125C1566.88 17.1267 1567.74 17.3601 1568.5 17.8016V16.4042C1567.91 16.1408 1567.27 15.9729 1566.62 15.9068V14.625H1565.38V15.9068C1563.83 16.0635 1562.41 16.786 1561.37 17.9346C1560.33 19.0832 1559.75 20.5762 1559.75 22.125V24.3662L1558.06 26.0581C1557.94 26.1753 1557.88 26.3343 1557.88 26.5V28.375C1557.88 28.5408 1557.94 28.6997 1558.06 28.8169C1558.18 28.9342 1558.33 29 1558.5 29H1562.88V29.625C1562.88 30.4538 1563.2 31.2487 1563.79 31.8347C1564.38 32.4208 1565.17 32.75 1566 32.75C1566.83 32.75 1567.62 32.4208 1568.21 31.8347C1568.8 31.2487 1569.12 30.4538 1569.12 29.625V29H1573.5C1573.67 29 1573.82 28.9342 1573.94 28.8169C1574.06 28.6997 1574.12 28.5408 1574.12 28.375V26.5C1574.12 26.3343 1574.06 26.1753 1573.94 26.0581L1572.25 24.3662ZM1567.88 29.625C1567.88 30.1223 1567.68 30.5992 1567.33 30.9508C1566.97 31.3025 1566.5 31.5 1566 31.5C1565.5 31.5 1565.03 31.3025 1564.67 30.9508C1564.32 30.5992 1564.12 30.1223 1564.12 29.625V29H1567.88V29.625Z" fill="black"/>
<path d="M1572.25 21.5C1573.63 21.5 1574.75 20.3807 1574.75 19C1574.75 17.6193 1573.63 16.5 1572.25 16.5C1570.87 16.5 1569.75 17.6193 1569.75 19C1569.75 20.3807 1570.87 21.5 1572.25 21.5Z" fill="black"/>
</g>
</g>
<path d="M1600 48V44H0V48V52H1600V48Z" fill="#DC0018" mask="url(#path-1-inside-1_1330_6043)"/>
<g clip-path="url(#clip5_1330_6043)">
<mask id="path-13-inside-4_1330_6043" fill="white">
<path d="M0 64H1600V160H0V64Z"/>
</mask>
<path d="M0 64H1600V160H0V64Z" fill="white"/>
<path d="M1600 160V158H0V160V162H1600V160Z" fill="#D9D9D9" mask="url(#path-13-inside-4_1330_6043)"/>
<rect width="1600" height="52" transform="translate(0 64)" fill="white"/>
<rect width="1399" height="36" transform="translate(24 72)" fill="white"/>
<rect x="24" y="72" width="140" height="18" fill="#848484"/>
<g clip-path="url(#clip6_1330_6043)">
<rect width="153" height="36" transform="translate(1423 72)" fill="white"/>
<rect x="1423.5" y="72.5" width="74" height="35" fill="white"/>
<rect x="1423.5" y="72.5" width="74" height="35" stroke="#006699"/>
<path d="M1446.35 91.835H1447.66C1447.59 92.4639 1447.41 93.0267 1447.12 93.5234C1446.83 94.0202 1446.42 94.4144 1445.88 94.7061C1445.35 94.9932 1444.69 95.1367 1443.89 95.1367C1443.31 95.1367 1442.77 95.0273 1442.3 94.8086C1441.82 94.5898 1441.41 94.2799 1441.07 93.8789C1440.73 93.4733 1440.47 92.988 1440.28 92.4229C1440.1 91.8532 1440.01 91.2197 1440.01 90.5225V89.5312C1440.01 88.834 1440.1 88.2028 1440.28 87.6377C1440.47 87.068 1440.73 86.5804 1441.08 86.1748C1441.43 85.7692 1441.85 85.457 1442.34 85.2383C1442.84 85.0195 1443.39 84.9102 1444 84.9102C1444.76 84.9102 1445.39 85.0514 1445.91 85.334C1446.43 85.6165 1446.83 86.0085 1447.12 86.5098C1447.41 87.0065 1447.59 87.583 1447.66 88.2393H1446.35C1446.29 87.7744 1446.17 87.3757 1445.99 87.043C1445.82 86.7057 1445.57 86.446 1445.26 86.2637C1444.94 86.0814 1444.52 85.9902 1444 85.9902C1443.56 85.9902 1443.17 86.0745 1442.84 86.2432C1442.5 86.4118 1442.22 86.651 1442 86.9609C1441.77 87.2708 1441.6 87.6423 1441.49 88.0752C1441.38 88.5081 1441.32 88.9889 1441.32 89.5176V90.5225C1441.32 91.0101 1441.37 91.4681 1441.47 91.8965C1441.57 92.3249 1441.73 92.7008 1441.94 93.0244C1442.15 93.348 1442.42 93.6032 1442.74 93.79C1443.06 93.9723 1443.45 94.0635 1443.89 94.0635C1444.45 94.0635 1444.9 93.9746 1445.23 93.7969C1445.56 93.6191 1445.81 93.3639 1445.98 93.0312C1446.15 92.6986 1446.28 92.2998 1446.35 91.835ZM1453.63 93.7354V89.9277C1453.63 89.6361 1453.57 89.3831 1453.45 89.1689C1453.34 88.9502 1453.17 88.7816 1452.93 88.6631C1452.7 88.5446 1452.41 88.4854 1452.07 88.4854C1451.75 88.4854 1451.47 88.54 1451.23 88.6494C1450.99 88.7588 1450.81 88.9023 1450.67 89.0801C1450.54 89.2578 1450.47 89.4492 1450.47 89.6543H1449.21C1449.21 89.39 1449.28 89.1279 1449.41 88.8682C1449.55 88.6084 1449.74 88.3737 1450 88.1641C1450.26 87.9499 1450.57 87.7812 1450.93 87.6582C1451.29 87.5306 1451.7 87.4668 1452.15 87.4668C1452.68 87.4668 1453.16 87.5579 1453.57 87.7402C1453.98 87.9225 1454.31 88.1982 1454.54 88.5674C1454.78 88.932 1454.89 89.39 1454.89 89.9414V93.3867C1454.89 93.6328 1454.92 93.8949 1454.96 94.1729C1455 94.4508 1455.07 94.6901 1455.15 94.8906V95H1453.83C1453.77 94.8542 1453.72 94.6605 1453.68 94.4189C1453.65 94.1729 1453.63 93.945 1453.63 93.7354ZM1453.85 90.5156L1453.86 91.4043H1452.58C1452.22 91.4043 1451.9 91.4339 1451.62 91.4932C1451.34 91.5479 1451.1 91.6322 1450.91 91.7461C1450.72 91.86 1450.57 92.0036 1450.47 92.1768C1450.37 92.3454 1450.32 92.5436 1450.32 92.7715C1450.32 93.0039 1450.37 93.2158 1450.48 93.4072C1450.58 93.5986 1450.74 93.7513 1450.95 93.8652C1451.16 93.9746 1451.43 94.0293 1451.74 94.0293C1452.12 94.0293 1452.47 93.9473 1452.76 93.7832C1453.06 93.6191 1453.29 93.4186 1453.47 93.1816C1453.64 92.9447 1453.74 92.7145 1453.75 92.4912L1454.29 93.0996C1454.26 93.291 1454.17 93.5029 1454.03 93.7354C1453.89 93.9678 1453.7 94.1911 1453.47 94.4053C1453.23 94.6149 1452.96 94.7904 1452.63 94.9316C1452.31 95.0684 1451.95 95.1367 1451.55 95.1367C1451.05 95.1367 1450.61 95.0387 1450.23 94.8428C1449.86 94.6468 1449.57 94.3848 1449.36 94.0566C1449.15 93.724 1449.05 93.3525 1449.05 92.9424C1449.05 92.5459 1449.13 92.1973 1449.28 91.8965C1449.44 91.5911 1449.66 91.3382 1449.95 91.1377C1450.24 90.9326 1450.59 90.7777 1451 90.6729C1451.42 90.568 1451.87 90.5156 1452.38 90.5156H1453.85ZM1458.15 89.1826V95H1456.88V87.6035H1458.08L1458.15 89.1826ZM1457.85 91.0215L1457.32 91.001C1457.33 90.4951 1457.4 90.028 1457.55 89.5996C1457.69 89.1667 1457.9 88.7907 1458.16 88.4717C1458.43 88.1527 1458.74 87.9066 1459.11 87.7334C1459.47 87.5557 1459.88 87.4668 1460.33 87.4668C1460.69 87.4668 1461.02 87.5169 1461.31 87.6172C1461.61 87.7129 1461.85 87.8678 1462.06 88.082C1462.27 88.2962 1462.43 88.5742 1462.54 88.916C1462.65 89.2533 1462.7 89.6657 1462.7 90.1533V95H1461.43V90.1396C1461.43 89.7523 1461.37 89.4424 1461.26 89.21C1461.14 88.973 1460.98 88.8021 1460.76 88.6973C1460.54 88.5879 1460.27 88.5332 1459.95 88.5332C1459.64 88.5332 1459.35 88.5993 1459.09 88.7314C1458.84 88.8636 1458.62 89.0459 1458.43 89.2783C1458.25 89.5107 1458.1 89.7773 1458 90.0781C1457.9 90.3743 1457.85 90.6888 1457.85 91.0215ZM1467.58 94.0977C1467.88 94.0977 1468.16 94.0361 1468.42 93.9131C1468.67 93.79 1468.88 93.6214 1469.04 93.4072C1469.21 93.1885 1469.3 92.9401 1469.33 92.6621H1470.53C1470.51 93.0996 1470.36 93.5075 1470.08 93.8857C1469.82 94.2594 1469.46 94.5625 1469.02 94.7949C1468.59 95.0228 1468.11 95.1367 1467.58 95.1367C1467.03 95.1367 1466.54 95.0387 1466.13 94.8428C1465.72 94.6468 1465.37 94.3779 1465.1 94.0361C1464.83 93.6943 1464.63 93.3024 1464.49 92.8604C1464.36 92.4137 1464.29 91.9421 1464.29 91.4453V91.1582C1464.29 90.6615 1464.36 90.1921 1464.49 89.75C1464.63 89.3034 1464.83 88.9092 1465.1 88.5674C1465.37 88.2256 1465.72 87.9567 1466.13 87.7607C1466.54 87.5648 1467.03 87.4668 1467.58 87.4668C1468.16 87.4668 1468.67 87.5853 1469.1 87.8223C1469.53 88.0547 1469.87 88.3737 1470.12 88.7793C1470.37 89.1803 1470.51 89.6361 1470.53 90.1465H1469.33C1469.3 89.8411 1469.22 89.5654 1469.07 89.3193C1468.92 89.0732 1468.72 88.8773 1468.46 88.7314C1468.21 88.5811 1467.92 88.5059 1467.58 88.5059C1467.19 88.5059 1466.87 88.5833 1466.6 88.7383C1466.34 88.8887 1466.14 89.0938 1465.98 89.3535C1465.83 89.6087 1465.72 89.8936 1465.65 90.208C1465.59 90.5179 1465.56 90.8346 1465.56 91.1582V91.4453C1465.56 91.7689 1465.59 92.0879 1465.65 92.4023C1465.72 92.7168 1465.83 93.0016 1465.98 93.2568C1466.13 93.512 1466.34 93.7171 1466.6 93.8721C1466.86 94.0225 1467.19 94.0977 1467.58 94.0977ZM1475.02 95.1367C1474.5 95.1367 1474.04 95.0501 1473.62 94.877C1473.2 94.6992 1472.85 94.4508 1472.54 94.1318C1472.25 93.8128 1472.02 93.4346 1471.86 92.9971C1471.7 92.5596 1471.62 92.0811 1471.62 91.5615V91.2744C1471.62 90.6729 1471.71 90.1374 1471.89 89.668C1472.07 89.194 1472.31 88.793 1472.61 88.4648C1472.92 88.1367 1473.26 87.8883 1473.65 87.7197C1474.04 87.5511 1474.44 87.4668 1474.86 87.4668C1475.38 87.4668 1475.84 87.5579 1476.22 87.7402C1476.61 87.9225 1476.93 88.1777 1477.17 88.5059C1477.42 88.8294 1477.6 89.2122 1477.72 89.6543C1477.84 90.0918 1477.9 90.5703 1477.9 91.0898V91.6572H1472.37V90.625H1476.63V90.5293C1476.61 90.2012 1476.55 89.8822 1476.43 89.5723C1476.31 89.2624 1476.13 89.0072 1475.88 88.8066C1475.63 88.6061 1475.29 88.5059 1474.86 88.5059C1474.57 88.5059 1474.3 88.5674 1474.06 88.6904C1473.82 88.8089 1473.61 88.9867 1473.44 89.2236C1473.27 89.4606 1473.13 89.75 1473.04 90.0918C1472.94 90.4336 1472.89 90.8278 1472.89 91.2744V91.5615C1472.89 91.9124 1472.94 92.2428 1473.04 92.5527C1473.14 92.8581 1473.28 93.127 1473.47 93.3594C1473.66 93.5918 1473.89 93.7741 1474.16 93.9062C1474.43 94.0384 1474.74 94.1045 1475.09 94.1045C1475.53 94.1045 1475.91 94.0133 1476.22 93.8311C1476.53 93.6488 1476.8 93.4049 1477.04 93.0996L1477.8 93.708C1477.64 93.9495 1477.44 94.1797 1477.19 94.3984C1476.95 94.6172 1476.64 94.7949 1476.28 94.9316C1475.93 95.0684 1475.51 95.1367 1475.02 95.1367ZM1480.75 84.5V95H1479.48V84.5H1480.75Z" fill="#006699"/>
<rect width="62" height="36" transform="translate(1514 72)" fill="#006699"/>
<path d="M1536.5 92.4844C1536.5 92.252 1536.46 92.0469 1536.39 91.8691C1536.32 91.6868 1536.2 91.5228 1536.02 91.377C1535.84 91.2311 1535.6 91.0921 1535.29 90.96C1534.99 90.8278 1534.6 90.6934 1534.13 90.5566C1533.64 90.4108 1533.19 90.249 1532.8 90.0713C1532.4 89.889 1532.06 89.6816 1531.78 89.4492C1531.5 89.2168 1531.28 88.9502 1531.13 88.6494C1530.98 88.3486 1530.9 88.0046 1530.9 87.6172C1530.9 87.2298 1530.98 86.8721 1531.14 86.5439C1531.3 86.2158 1531.53 85.931 1531.83 85.6895C1532.13 85.4434 1532.49 85.252 1532.9 85.1152C1533.32 84.9785 1533.78 84.9102 1534.29 84.9102C1535.04 84.9102 1535.67 85.0537 1536.19 85.3408C1536.71 85.6234 1537.11 85.9948 1537.38 86.4551C1537.66 86.9108 1537.79 87.3984 1537.79 87.918H1536.48C1536.48 87.5443 1536.4 87.2139 1536.24 86.9268C1536.08 86.6351 1535.84 86.4072 1535.52 86.2432C1535.19 86.0745 1534.78 85.9902 1534.29 85.9902C1533.82 85.9902 1533.43 86.0609 1533.13 86.2021C1532.82 86.3434 1532.59 86.5348 1532.44 86.7764C1532.3 87.0179 1532.22 87.2936 1532.22 87.6035C1532.22 87.8132 1532.27 88.0046 1532.35 88.1777C1532.44 88.3464 1532.58 88.5036 1532.77 88.6494C1532.96 88.7952 1533.2 88.9297 1533.5 89.0527C1533.79 89.1758 1534.14 89.2943 1534.55 89.4082C1535.12 89.5677 1535.61 89.7454 1536.02 89.9414C1536.43 90.1374 1536.76 90.3584 1537.03 90.6045C1537.3 90.846 1537.5 91.1217 1537.62 91.4316C1537.76 91.737 1537.82 92.0833 1537.82 92.4707C1537.82 92.8763 1537.74 93.2432 1537.58 93.5713C1537.41 93.8994 1537.18 94.1797 1536.87 94.4121C1536.57 94.6445 1536.2 94.8245 1535.77 94.9521C1535.35 95.0752 1534.87 95.1367 1534.35 95.1367C1533.89 95.1367 1533.44 95.0729 1532.99 94.9453C1532.55 94.8177 1532.14 94.6263 1531.78 94.3711C1531.42 94.1159 1531.13 93.8014 1530.91 93.4277C1530.7 93.0495 1530.59 92.612 1530.59 92.1152H1531.9C1531.9 92.457 1531.97 92.751 1532.1 92.9971C1532.23 93.2386 1532.41 93.4391 1532.64 93.5986C1532.87 93.7581 1533.14 93.8766 1533.43 93.9541C1533.72 94.027 1534.03 94.0635 1534.35 94.0635C1534.81 94.0635 1535.2 93.9997 1535.52 93.8721C1535.84 93.7445 1536.08 93.5622 1536.24 93.3252C1536.41 93.0882 1536.5 92.8079 1536.5 92.4844ZM1543.67 93.7354V89.9277C1543.67 89.6361 1543.61 89.3831 1543.5 89.1689C1543.38 88.9502 1543.21 88.7816 1542.98 88.6631C1542.74 88.5446 1542.46 88.4854 1542.12 88.4854C1541.8 88.4854 1541.52 88.54 1541.27 88.6494C1541.04 88.7588 1540.85 88.9023 1540.71 89.0801C1540.58 89.2578 1540.52 89.4492 1540.52 89.6543H1539.25C1539.25 89.39 1539.32 89.1279 1539.46 88.8682C1539.59 88.6084 1539.79 88.3737 1540.04 88.1641C1540.3 87.9499 1540.61 87.7812 1540.97 87.6582C1541.34 87.5306 1541.74 87.4668 1542.19 87.4668C1542.73 87.4668 1543.2 87.5579 1543.61 87.7402C1544.03 87.9225 1544.35 88.1982 1544.58 88.5674C1544.82 88.932 1544.94 89.39 1544.94 89.9414V93.3867C1544.94 93.6328 1544.96 93.8949 1545 94.1729C1545.05 94.4508 1545.11 94.6901 1545.2 94.8906V95H1543.88C1543.82 94.8542 1543.76 94.6605 1543.73 94.4189C1543.69 94.1729 1543.67 93.945 1543.67 93.7354ZM1543.89 90.5156L1543.91 91.4043H1542.63C1542.27 91.4043 1541.95 91.4339 1541.66 91.4932C1541.38 91.5479 1541.14 91.6322 1540.95 91.7461C1540.76 91.86 1540.62 92.0036 1540.52 92.1768C1540.42 92.3454 1540.37 92.5436 1540.37 92.7715C1540.37 93.0039 1540.42 93.2158 1540.52 93.4072C1540.63 93.5986 1540.78 93.7513 1540.99 93.8652C1541.21 93.9746 1541.47 94.0293 1541.78 94.0293C1542.17 94.0293 1542.51 93.9473 1542.81 93.7832C1543.1 93.6191 1543.34 93.4186 1543.51 93.1816C1543.69 92.9447 1543.78 92.7145 1543.8 92.4912L1544.34 93.0996C1544.31 93.291 1544.22 93.5029 1544.08 93.7354C1543.94 93.9678 1543.75 94.1911 1543.51 94.4053C1543.28 94.6149 1543 94.7904 1542.68 94.9316C1542.36 95.0684 1542 95.1367 1541.6 95.1367C1541.09 95.1367 1540.65 95.0387 1540.28 94.8428C1539.9 94.6468 1539.61 94.3848 1539.4 94.0566C1539.2 93.724 1539.09 93.3525 1539.09 92.9424C1539.09 92.5459 1539.17 92.1973 1539.33 91.8965C1539.48 91.5911 1539.7 91.3382 1540 91.1377C1540.29 90.9326 1540.64 90.7777 1541.05 90.6729C1541.46 90.568 1541.92 90.5156 1542.42 90.5156H1543.89ZM1549.07 93.8584L1551.09 87.6035H1552.38L1549.72 95H1548.88L1549.07 93.8584ZM1547.38 87.6035L1549.46 93.8926L1549.61 95H1548.76L1546.08 87.6035H1547.38ZM1556.57 95.1367C1556.06 95.1367 1555.59 95.0501 1555.17 94.877C1554.76 94.6992 1554.4 94.4508 1554.1 94.1318C1553.8 93.8128 1553.57 93.4346 1553.42 92.9971C1553.26 92.5596 1553.18 92.0811 1553.18 91.5615V91.2744C1553.18 90.6729 1553.26 90.1374 1553.44 89.668C1553.62 89.194 1553.86 88.793 1554.17 88.4648C1554.47 88.1367 1554.82 87.8883 1555.21 87.7197C1555.59 87.5511 1555.99 87.4668 1556.41 87.4668C1556.94 87.4668 1557.39 87.5579 1557.78 87.7402C1558.16 87.9225 1558.48 88.1777 1558.73 88.5059C1558.97 88.8294 1559.15 89.2122 1559.27 89.6543C1559.39 90.0918 1559.45 90.5703 1559.45 91.0898V91.6572H1553.93V90.625H1558.19V90.5293C1558.17 90.2012 1558.1 89.8822 1557.98 89.5723C1557.87 89.2624 1557.69 89.0072 1557.43 88.8066C1557.18 88.6061 1556.84 88.5059 1556.41 88.5059C1556.12 88.5059 1555.86 88.5674 1555.62 88.6904C1555.37 88.8089 1555.17 88.9867 1554.99 89.2236C1554.82 89.4606 1554.69 89.75 1554.59 90.0918C1554.5 90.4336 1554.45 90.8278 1554.45 91.2744V91.5615C1554.45 91.9124 1554.5 92.2428 1554.59 92.5527C1554.69 92.8581 1554.83 93.127 1555.02 93.3594C1555.21 93.5918 1555.44 93.7741 1555.71 93.9062C1555.99 94.0384 1556.3 94.1045 1556.64 94.1045C1557.09 94.1045 1557.47 94.0133 1557.78 93.8311C1558.09 93.6488 1558.36 93.4049 1558.59 93.0996L1559.36 93.708C1559.2 93.9495 1558.99 94.1797 1558.75 94.3984C1558.5 94.6172 1558.2 94.7949 1557.84 94.9316C1557.48 95.0684 1557.06 95.1367 1556.57 95.1367Z" fill="white"/>
</g>
<g clip-path="url(#clip7_1330_6043)">
<rect x="24" y="128" width="80" height="10" fill="#006699"/>
<g clip-path="url(#clip8_1330_6043)">
<rect width="80" height="4" transform="translate(24 156)" fill="#006699"/>
<rect x="24" y="156" width="80" height="4" fill="#006699"/>
</g>
</g>
<rect x="128" y="128" width="80" height="10" fill="#848484"/>
<rect x="232" y="128" width="80" height="10" fill="#006699"/>
<rect x="336" y="128" width="80" height="10" fill="#D9D9D9"/>
<rect width="1600" height="916" transform="translate(0 160)" fill="#F2F4F6"/>
<g clip-path="url(#clip9_1330_6043)">
<mask id="path-24-inside-5_1330_6043" fill="white">
<path d="M0 160H1600V404H0V160Z"/>
</mask>
<rect width="1600" height="60" transform="translate(0 160)" fill="#F2F4F6"/>
<rect x="24" y="184" width="110" height="12" fill="#C8C8C8"/>
<rect width="110" height="12" transform="translate(25 220)" fill="#D9D9D9"/>
<g clip-path="url(#clip10_1330_6043)">
<rect x="24" y="252" width="64" height="8" fill="#D9D9D9"/>
<rect x="24.5" y="268.5" width="159" height="35" fill="white"/>
<rect x="24.5" y="268.5" width="159" height="35" stroke="#C8C8C8"/>
<rect x="36" y="281" width="80" height="10" fill="#848484"/>
<rect x="418" y="252" width="64" height="8" fill="#D9D9D9"/>
<rect x="418.5" y="268.5" width="159" height="35" fill="white"/>
<rect x="418.5" y="268.5" width="159" height="35" stroke="#C8C8C8"/>
<rect x="430" y="281" width="80" height="10" fill="#FF00FF"/>
<rect x="812" y="252" width="64" height="8" fill="#D9D9D9"/>
<rect x="812.5" y="268.5" width="159" height="35" fill="white"/>
<rect x="812.5" y="268.5" width="159" height="35" stroke="#C8C8C8"/>
<rect x="824" y="281" width="80" height="10" fill="#848484"/>
<rect x="1206" y="252" width="64" height="8" fill="#D9D9D9"/>
<rect x="1206.5" y="268.5" width="159" height="35" fill="white"/>
<rect x="1206.5" y="268.5" width="159" height="35" stroke="#C8C8C8"/>
<rect x="1218" y="281" width="80" height="10" fill="#848484"/>
</g>
<g clip-path="url(#clip11_1330_6043)">
<rect x="24" y="328" width="64" height="8" fill="#D9D9D9"/>
<rect x="24.5" y="344.5" width="159" height="35" fill="white"/>
<rect x="24.5" y="344.5" width="159" height="35" stroke="#C8C8C8"/>
<rect x="36" y="357" width="80" height="10" fill="#848484"/>
<rect x="812" y="328" width="64" height="8" fill="#D9D9D9"/>
<rect x="812.5" y="344.5" width="159" height="35" fill="white"/>
<rect x="812.5" y="344.5" width="159" height="35" stroke="#C8C8C8"/>
<rect x="824" y="357" width="80" height="10" fill="#848484"/>
</g>
</g>
<path d="M1600 404V403H0V404V405H1600V404Z" fill="#D7D7D7" mask="url(#path-24-inside-5_1330_6043)"/>
</g>
</g>
<defs>
<clipPath id="clip0_1330_6043">
<rect width="1600" height="1076" fill="white"/>
</clipPath>
<clipPath id="clip1_1330_6043">
<path d="M0 0H1600V48H0V0Z" fill="white"/>
</clipPath>
<clipPath id="clip2_1330_6043">
<rect width="24" height="24" fill="white" transform="translate(12.5 12)"/>
</clipPath>
<clipPath id="clip3_1330_6043">
<rect width="24" height="24" fill="white" transform="translate(61 12)"/>
</clipPath>
<clipPath id="clip4_1330_6043">
<rect width="20" height="20" fill="white" transform="translate(1556 14)"/>
</clipPath>
<clipPath id="clip5_1330_6043">
<rect width="1600" height="1028" fill="white" transform="translate(0 48)"/>
</clipPath>
<clipPath id="clip6_1330_6043">
<rect width="153" height="36" fill="white" transform="translate(1423 72)"/>
</clipPath>
<clipPath id="clip7_1330_6043">
<rect width="80" height="32" fill="white" transform="translate(24 128)"/>
</clipPath>
<clipPath id="clip8_1330_6043">
<rect width="80" height="4" fill="white" transform="translate(24 156)"/>
</clipPath>
<clipPath id="clip9_1330_6043">
<path d="M0 160H1600V404H0V160Z" fill="white"/>
</clipPath>
<clipPath id="clip10_1330_6043">
<rect width="1552" height="52" fill="white" transform="translate(24 252)"/>
</clipPath>
<clipPath id="clip11_1330_6043">
<rect width="1552" height="52" fill="white" transform="translate(24 328)"/>
</clipPath>
</defs>
</svg>
