<svg width="1600" height="1076" viewBox="0 0 1600 1076" fill="none" xmlns="http://www.w3.org/2000/svg">
<g clip-path="url(#clip0_1316_6696)">
<rect width="1600" height="1076" fill="white"/>
<g clip-path="url(#clip1_1316_6696)">
<mask id="path-1-inside-1_1316_6696" fill="white">
<path d="M0 0H1600V48H0V0Z"/>
</mask>
<path d="M0 0H1600V48H0V0Z" fill="white"/>
<mask id="path-3-inside-2_1316_6696" fill="white">
<path d="M0 0H49V48H0V0Z"/>
</mask>
<path d="M49 0H48V48H49H50V0H49Z" fill="#D7D7D7" mask="url(#path-3-inside-2_1316_6696)"/>
<g clip-path="url(#clip2_1316_6696)">
<path d="M24.5001 13.5C21.3501 13.5 18.2001 14.025 14.9751 15.075C14.9751 22.5 14.9751 30.3 24.5001 34.5C34.0251 30.3 34.0251 22.5 34.0251 15.075C30.8001 14.025 27.6501 13.5 24.5001 13.5ZM26.3751 24.9V29.325H22.5501V24.9H18.2001V21.075H22.6251V16.65H26.4501V21.075H30.8751V24.9H26.3751V24.9Z" fill="#DC0018"/>
</g>
<mask id="path-6-inside-3_1316_6696" fill="white">
<path d="M49 0H98V48H49V0Z"/>
</mask>
<path d="M98 0H97V48H98H99V0H98Z" fill="#D7D7D7" mask="url(#path-6-inside-3_1316_6696)"/>
<g clip-path="url(#clip3_1316_6696)">
<path d="M70.9053 18.5303L66.1855 23.25H82.375V24.75H66.1855L70.9053 29.4697L69.8447 30.5303L63.3145 24L69.8447 17.4697L70.9053 18.5303Z" fill="#212121"/>
</g>
<rect x="110" y="14" width="20" height="20" fill="#848484"/>
<rect x="142" y="18" width="100" height="12" fill="#848484"/>
<g clip-path="url(#clip4_1316_6696)">
<path d="M1572.25 24.3662V22.75H1571V24.625C1571 24.7907 1571.07 24.9497 1571.18 25.0669L1572.88 26.7588V27.75H1559.12V26.7588L1560.82 25.0669C1560.93 24.9497 1561 24.7907 1561 24.625V22.125C1561 21.2468 1561.23 20.3837 1561.67 19.6229C1562.11 18.8621 1562.74 18.2305 1563.5 17.792C1564.26 17.3534 1565.12 17.1233 1566 17.125C1566.88 17.1267 1567.74 17.3601 1568.5 17.8016V16.4042C1567.91 16.1408 1567.27 15.9729 1566.62 15.9068V14.625H1565.38V15.9068C1563.83 16.0635 1562.41 16.786 1561.37 17.9346C1560.33 19.0832 1559.75 20.5762 1559.75 22.125V24.3662L1558.06 26.0581C1557.94 26.1753 1557.88 26.3343 1557.88 26.5V28.375C1557.88 28.5408 1557.94 28.6997 1558.06 28.8169C1558.18 28.9342 1558.33 29 1558.5 29H1562.88V29.625C1562.88 30.4538 1563.2 31.2487 1563.79 31.8347C1564.38 32.4208 1565.17 32.75 1566 32.75C1566.83 32.75 1567.62 32.4208 1568.21 31.8347C1568.8 31.2487 1569.12 30.4538 1569.12 29.625V29H1573.5C1573.67 29 1573.82 28.9342 1573.94 28.8169C1574.06 28.6997 1574.12 28.5408 1574.12 28.375V26.5C1574.12 26.3343 1574.06 26.1753 1573.94 26.0581L1572.25 24.3662ZM1567.88 29.625C1567.88 30.1223 1567.68 30.5992 1567.33 30.9508C1566.97 31.3025 1566.5 31.5 1566 31.5C1565.5 31.5 1565.03 31.3025 1564.67 30.9508C1564.32 30.5992 1564.12 30.1223 1564.12 29.625V29H1567.88V29.625Z" fill="black"/>
<path d="M1572.25 21.5C1573.63 21.5 1574.75 20.3807 1574.75 19C1574.75 17.6193 1573.63 16.5 1572.25 16.5C1570.87 16.5 1569.75 17.6193 1569.75 19C1569.75 20.3807 1570.87 21.5 1572.25 21.5Z" fill="black"/>
</g>
</g>
<path d="M1600 48V44H0V48V52H1600V48Z" fill="#DC0018" mask="url(#path-1-inside-1_1316_6696)"/>
<g clip-path="url(#clip5_1316_6696)">
<mask id="path-13-inside-4_1316_6696" fill="white">
<path d="M0 64H1600V116H0V64Z"/>
</mask>
<path d="M0 64H1600V116H0V64Z" fill="white"/>
<path d="M1600 116V114H0V116V118H1600V116Z" fill="#D9D9D9" mask="url(#path-13-inside-4_1316_6696)"/>
<rect width="1600" height="52" transform="translate(0 64)" fill="white"/>
<rect width="1552" height="36" transform="translate(24 72)" fill="white"/>
<rect x="24" y="72" width="140" height="18" fill="#848484"/>
<g clip-path="url(#clip6_1316_6696)">
<rect width="1600" height="960" transform="translate(0 116)" fill="#F2F4F6"/>
<rect width="1600" height="960" transform="translate(0 116)" fill="#F5F5F5"/>
<g clip-path="url(#clip7_1316_6696)">
<rect x="24" y="138" width="110" height="12" fill="#171717"/>
<path fill-rule="evenodd" clip-rule="evenodd" d="M1319.5 134.25C1319.5 133.836 1319.84 133.5 1320.25 133.5H1339.75C1340.16 133.5 1340.5 133.836 1340.5 134.25V137.795C1340.5 137.977 1340.43 138.153 1340.31 138.29L1333.59 145.966V153.75C1333.59 154.164 1333.25 154.5 1332.84 154.5H1327.16C1326.75 154.5 1326.41 154.164 1326.41 153.75V145.966L1319.69 138.29C1319.57 138.153 1319.5 137.977 1319.5 137.795V134.25ZM1321 135V137.513L1327.73 145.19C1327.85 145.327 1327.91 145.502 1327.91 145.684V153H1332.09V145.684C1332.09 145.502 1332.15 145.327 1332.27 145.19L1339 137.513V135H1321Z" fill="#006699"/>
<g clip-path="url(#clip8_1316_6696)">
<path d="M1360.25 135.75V152.25C1360.25 153.075 1360.92 153.75 1361.75 153.75H1369.25V152.25H1361.75V147H1369.25V145.5H1361.75V140.25H1369.25V141.75H1370.75V140.25H1378.25V141.75H1379.75V135.75C1379.75 134.925 1379.08 134.25 1378.25 134.25H1361.75C1360.92 134.25 1360.25 134.925 1360.25 135.75ZM1361.75 135.75H1378.25V138.75H1361.75V135.75Z" fill="#006699"/>
<path d="M1381.25 145.5H1378.69C1380.22 146.415 1381.25 148.088 1381.25 150C1381.25 152.895 1378.89 155.25 1376 155.25C1373.11 155.25 1370.75 152.895 1370.75 150C1370.75 148.597 1371.3 147.277 1372.29 146.287L1373.34 147.345C1372.64 148.05 1372.25 148.995 1372.25 150C1372.25 152.07 1373.93 153.75 1376 153.75C1378.07 153.75 1379.75 152.07 1379.75 150C1379.75 148.47 1378.82 147.15 1377.5 146.565V149.25H1376V144H1381.25V145.5Z" fill="#006699"/>
</g>
<g clip-path="url(#clip9_1316_6696)">
<path d="M1416.25 134.75V139.25H1419C1419.27 139.25 1419.52 139.355 1419.71 139.543C1419.89 139.731 1420 139.985 1420 140.25V147.75C1420 148.015 1419.89 148.269 1419.71 148.457C1419.52 148.645 1419.27 148.75 1419 148.75H1416.25V153.25H1403.75V148.75H1401C1400.73 148.75 1400.48 148.645 1400.29 148.457C1400.11 148.269 1400 148.015 1400 147.75V140.25C1400 139.985 1400.11 139.731 1400.29 139.543C1400.48 139.355 1400.73 139.25 1401 139.25H1403.75V134.75H1416.25ZM1404.25 152.75H1415.75V144.25H1404.25V152.75ZM1400.5 148.25H1403.75V143.75H1416.25V148.25H1419.5V139.75H1400.5V148.25ZM1404.25 139.25H1415.75V135.25H1404.25V139.25Z" stroke="#006699"/>
</g>
<g clip-path="url(#clip10_1316_6696)">
<path d="M1453.75 136.05H1459V137.55H1457.2V152.175C1457.2 153.039 1456.49 153.75 1455.62 153.75H1444.45C1443.59 153.75 1442.88 153.039 1442.88 152.175V137.55H1441V136.05H1446.25V132.75H1453.75V136.05ZM1444.38 137.55V152.175C1444.38 152.188 1444.38 152.207 1444.4 152.226C1444.42 152.244 1444.44 152.25 1444.45 152.25H1455.62C1455.64 152.25 1455.66 152.244 1455.68 152.226C1455.69 152.207 1455.7 152.188 1455.7 152.175V137.55H1444.38ZM1448.8 149.25H1447.3V140.55H1448.8V149.25ZM1452.7 149.25H1451.2V140.55H1452.7V149.25ZM1447.75 136.05H1452.25V134.25H1447.75V136.05Z" fill="#006699"/>
</g>
<path d="M1478 126V162" stroke="#171717"/>
<rect x="1503" y="127" width="72" height="34" fill="white"/>
<rect x="1503" y="127" width="72" height="34" stroke="#006699" stroke-width="2"/>
<path d="M1525.3 145.76H1527.01C1526.96 146.411 1526.77 146.993 1526.46 147.503C1526.15 148.009 1525.72 148.408 1525.16 148.699C1524.6 148.991 1523.92 149.137 1523.11 149.137C1522.5 149.137 1521.94 149.027 1521.45 148.809C1520.96 148.585 1520.54 148.271 1520.19 147.865C1519.84 147.455 1519.57 146.961 1519.38 146.382C1519.2 145.803 1519.11 145.156 1519.11 144.44V143.613C1519.11 142.898 1519.2 142.251 1519.39 141.672C1519.58 141.093 1519.85 140.599 1520.21 140.188C1520.56 139.774 1520.99 139.457 1521.49 139.238C1521.99 139.02 1522.55 138.91 1523.17 138.91C1523.97 138.91 1524.64 139.056 1525.18 139.348C1525.73 139.639 1526.16 140.043 1526.46 140.558C1526.76 141.073 1526.95 141.663 1527.02 142.328H1525.31C1525.26 141.9 1525.16 141.533 1525.01 141.228C1524.86 140.922 1524.63 140.69 1524.34 140.53C1524.04 140.366 1523.65 140.284 1523.17 140.284C1522.78 140.284 1522.44 140.357 1522.15 140.503C1521.86 140.649 1521.61 140.863 1521.42 141.146C1521.22 141.428 1521.07 141.777 1520.97 142.191C1520.88 142.602 1520.83 143.071 1520.83 143.6V144.44C1520.83 144.942 1520.87 145.397 1520.96 145.808C1521.05 146.213 1521.19 146.562 1521.37 146.854C1521.56 147.145 1521.79 147.371 1522.08 147.53C1522.37 147.69 1522.71 147.77 1523.11 147.77C1523.6 147.77 1524 147.692 1524.3 147.537C1524.6 147.382 1524.83 147.157 1524.99 146.86C1525.15 146.56 1525.25 146.193 1525.3 145.76ZM1530.06 143.012V149H1528.41V141.604H1529.98L1530.06 143.012ZM1532.32 141.556L1532.31 143.087C1532.21 143.069 1532.1 143.055 1531.98 143.046C1531.87 143.037 1531.75 143.032 1531.64 143.032C1531.36 143.032 1531.11 143.073 1530.89 143.155C1530.68 143.233 1530.5 143.347 1530.35 143.497C1530.21 143.643 1530.1 143.821 1530.02 144.03C1529.95 144.24 1529.9 144.475 1529.89 144.734L1529.51 144.762C1529.51 144.297 1529.56 143.866 1529.65 143.47C1529.74 143.073 1529.88 142.725 1530.06 142.424C1530.25 142.123 1530.48 141.888 1530.76 141.72C1531.04 141.551 1531.36 141.467 1531.73 141.467C1531.83 141.467 1531.94 141.476 1532.05 141.494C1532.17 141.512 1532.26 141.533 1532.32 141.556ZM1536.48 149.137C1535.93 149.137 1535.44 149.048 1534.99 148.87C1534.56 148.688 1534.18 148.435 1533.87 148.111C1533.57 147.788 1533.33 147.407 1533.17 146.97C1533 146.532 1532.92 146.061 1532.92 145.555V145.281C1532.92 144.702 1533.01 144.178 1533.18 143.709C1533.34 143.24 1533.58 142.839 1533.88 142.506C1534.18 142.169 1534.54 141.911 1534.95 141.733C1535.36 141.556 1535.8 141.467 1536.28 141.467C1536.81 141.467 1537.27 141.556 1537.67 141.733C1538.06 141.911 1538.39 142.162 1538.65 142.485C1538.92 142.804 1539.11 143.185 1539.24 143.627C1539.37 144.069 1539.44 144.557 1539.44 145.09V145.794H1533.72V144.611H1537.81V144.481C1537.8 144.185 1537.74 143.907 1537.63 143.647C1537.53 143.388 1537.37 143.178 1537.15 143.019C1536.93 142.859 1536.64 142.779 1536.27 142.779C1536 142.779 1535.76 142.839 1535.54 142.957C1535.33 143.071 1535.16 143.237 1535.01 143.456C1534.87 143.675 1534.76 143.939 1534.69 144.249C1534.61 144.554 1534.58 144.898 1534.58 145.281V145.555C1534.58 145.878 1534.62 146.179 1534.71 146.457C1534.8 146.73 1534.93 146.97 1535.1 147.175C1535.28 147.38 1535.49 147.542 1535.73 147.66C1535.98 147.774 1536.26 147.831 1536.57 147.831C1536.97 147.831 1537.32 147.751 1537.63 147.592C1537.94 147.432 1538.21 147.207 1538.44 146.915L1539.31 147.756C1539.15 147.988 1538.94 148.212 1538.69 148.426C1538.43 148.635 1538.12 148.806 1537.75 148.938C1537.38 149.071 1536.96 149.137 1536.48 149.137ZM1544.89 147.517V143.989C1544.89 143.725 1544.84 143.497 1544.75 143.306C1544.65 143.114 1544.51 142.966 1544.31 142.861C1544.12 142.757 1543.88 142.704 1543.59 142.704C1543.32 142.704 1543.09 142.75 1542.89 142.841C1542.69 142.932 1542.54 143.055 1542.43 143.21C1542.32 143.365 1542.27 143.54 1542.27 143.736H1540.63C1540.63 143.445 1540.7 143.162 1540.84 142.889C1540.98 142.615 1541.19 142.371 1541.45 142.157C1541.72 141.943 1542.04 141.774 1542.42 141.651C1542.79 141.528 1543.21 141.467 1543.68 141.467C1544.23 141.467 1544.72 141.56 1545.15 141.747C1545.59 141.934 1545.92 142.216 1546.17 142.595C1546.42 142.968 1546.55 143.438 1546.55 144.003V147.291C1546.55 147.628 1546.57 147.931 1546.62 148.2C1546.67 148.465 1546.74 148.695 1546.83 148.891V149H1545.14C1545.06 148.822 1545 148.597 1544.95 148.323C1544.91 148.045 1544.89 147.776 1544.89 147.517ZM1545.13 144.502L1545.15 145.521H1543.96C1543.66 145.521 1543.39 145.55 1543.16 145.609C1542.92 145.664 1542.73 145.746 1542.58 145.855C1542.42 145.965 1542.3 146.097 1542.23 146.252C1542.15 146.407 1542.11 146.582 1542.11 146.778C1542.11 146.974 1542.16 147.154 1542.25 147.318C1542.34 147.478 1542.47 147.603 1542.64 147.694C1542.82 147.785 1543.04 147.831 1543.29 147.831C1543.62 147.831 1543.92 147.763 1544.17 147.626C1544.42 147.485 1544.62 147.314 1544.77 147.113C1544.92 146.908 1544.99 146.715 1545 146.532L1545.54 147.264C1545.48 147.451 1545.39 147.651 1545.25 147.865C1545.12 148.079 1544.95 148.285 1544.74 148.48C1544.53 148.672 1544.27 148.829 1543.98 148.952C1543.68 149.075 1543.35 149.137 1542.96 149.137C1542.48 149.137 1542.05 149.041 1541.67 148.85C1541.29 148.654 1541 148.392 1540.78 148.063C1540.57 147.731 1540.46 147.355 1540.46 146.936C1540.46 146.544 1540.54 146.197 1540.68 145.896C1540.83 145.591 1541.05 145.336 1541.34 145.131C1541.63 144.926 1541.99 144.771 1542.4 144.666C1542.82 144.557 1543.3 144.502 1543.84 144.502H1545.13ZM1551.66 141.604V142.807H1547.49V141.604H1551.66ZM1548.69 139.792H1550.34V146.956C1550.34 147.184 1550.37 147.359 1550.44 147.482C1550.5 147.601 1550.6 147.681 1550.72 147.722C1550.84 147.763 1550.97 147.783 1551.13 147.783C1551.25 147.783 1551.36 147.776 1551.46 147.763C1551.57 147.749 1551.65 147.735 1551.71 147.722L1551.72 148.979C1551.58 149.021 1551.43 149.057 1551.24 149.089C1551.07 149.121 1550.86 149.137 1550.63 149.137C1550.25 149.137 1549.91 149.071 1549.62 148.938C1549.33 148.802 1549.1 148.581 1548.94 148.275C1548.78 147.97 1548.69 147.564 1548.69 147.059V139.792ZM1556.19 149.137C1555.65 149.137 1555.15 149.048 1554.71 148.87C1554.27 148.688 1553.9 148.435 1553.59 148.111C1553.28 147.788 1553.05 147.407 1552.88 146.97C1552.72 146.532 1552.64 146.061 1552.64 145.555V145.281C1552.64 144.702 1552.72 144.178 1552.89 143.709C1553.06 143.24 1553.29 142.839 1553.59 142.506C1553.9 142.169 1554.25 141.911 1554.66 141.733C1555.07 141.556 1555.52 141.467 1555.99 141.467C1556.52 141.467 1556.99 141.556 1557.38 141.733C1557.78 141.911 1558.11 142.162 1558.37 142.485C1558.63 142.804 1558.83 143.185 1558.95 143.627C1559.09 144.069 1559.15 144.557 1559.15 145.09V145.794H1553.44V144.611H1557.53V144.481C1557.52 144.185 1557.46 143.907 1557.35 143.647C1557.24 143.388 1557.08 143.178 1556.86 143.019C1556.64 142.859 1556.35 142.779 1555.99 142.779C1555.71 142.779 1555.47 142.839 1555.26 142.957C1555.05 143.071 1554.87 143.237 1554.73 143.456C1554.59 143.675 1554.48 143.939 1554.4 144.249C1554.33 144.554 1554.29 144.898 1554.29 145.281V145.555C1554.29 145.878 1554.34 146.179 1554.42 146.457C1554.51 146.73 1554.65 146.97 1554.82 147.175C1554.99 147.38 1555.2 147.542 1555.45 147.66C1555.69 147.774 1555.97 147.831 1556.29 147.831C1556.68 147.831 1557.04 147.751 1557.35 147.592C1557.66 147.432 1557.93 147.207 1558.15 146.915L1559.02 147.756C1558.86 147.988 1558.66 148.212 1558.4 148.426C1558.15 148.635 1557.83 148.806 1557.46 148.938C1557.1 149.071 1556.68 149.137 1556.19 149.137Z" fill="#006699"/>
</g>
<g clip-path="url(#clip11_1316_6696)">
<g clip-path="url(#clip12_1316_6696)">
<rect width="40" height="409" transform="translate(24 172)" fill="white"/>
<rect width="40" height="40" transform="translate(24 172)" fill="#D9D9D9"/>
<rect x="36.5" y="184.5" width="15" height="15" fill="white"/>
<rect x="36.5" y="184.5" width="15" height="15" stroke="#757575"/>
<mask id="path-26-inside-5_1316_6696" fill="white">
<path d="M24 212H64V253H24V212Z"/>
</mask>
<path d="M64 253V252H24V253V254H64V253Z" fill="#D7D7D7" mask="url(#path-26-inside-5_1316_6696)"/>
<rect x="36.5" y="225" width="15" height="15" fill="white"/>
<rect x="36.5" y="225" width="15" height="15" stroke="#757575"/>
<mask id="path-29-inside-6_1316_6696" fill="white">
<path d="M24 253H64V294H24V253Z"/>
</mask>
<path d="M64 294V293H24V294V295H64V294Z" fill="#D7D7D7" mask="url(#path-29-inside-6_1316_6696)"/>
<rect x="36.5" y="266" width="15" height="15" fill="white"/>
<rect x="36.5" y="266" width="15" height="15" stroke="#757575"/>
<mask id="path-32-inside-7_1316_6696" fill="white">
<path d="M24 294H64V335H24V294Z"/>
</mask>
<path d="M64 335V334H24V335V336H64V335Z" fill="#D7D7D7" mask="url(#path-32-inside-7_1316_6696)"/>
<rect x="36.5" y="307" width="15" height="15" fill="white"/>
<rect x="36.5" y="307" width="15" height="15" stroke="#757575"/>
<mask id="path-35-inside-8_1316_6696" fill="white">
<path d="M24 335H64V376H24V335Z"/>
</mask>
<path d="M64 376V375H24V376V377H64V376Z" fill="#D7D7D7" mask="url(#path-35-inside-8_1316_6696)"/>
<rect x="36.5" y="348" width="15" height="15" fill="white"/>
<rect x="36.5" y="348" width="15" height="15" stroke="#757575"/>
<mask id="path-38-inside-9_1316_6696" fill="white">
<path d="M24 376H64V417H24V376Z"/>
</mask>
<path d="M64 417V416H24V417V418H64V417Z" fill="#D7D7D7" mask="url(#path-38-inside-9_1316_6696)"/>
<rect x="36.5" y="389" width="15" height="15" fill="white"/>
<rect x="36.5" y="389" width="15" height="15" stroke="#757575"/>
<mask id="path-41-inside-10_1316_6696" fill="white">
<path d="M24 417H64V458H24V417Z"/>
</mask>
<path d="M64 458V457H24V458V459H64V458Z" fill="#D7D7D7" mask="url(#path-41-inside-10_1316_6696)"/>
<rect x="36.5" y="430" width="15" height="15" fill="white"/>
<rect x="36.5" y="430" width="15" height="15" stroke="#757575"/>
<mask id="path-44-inside-11_1316_6696" fill="white">
<path d="M24 458H64V499H24V458Z"/>
</mask>
<path d="M64 499V498H24V499V500H64V499Z" fill="#D7D7D7" mask="url(#path-44-inside-11_1316_6696)"/>
<rect x="36.5" y="471" width="15" height="15" fill="white" stroke="#979797"/>
<mask id="path-47-inside-12_1316_6696" fill="white">
<path d="M24 499H64V540H24V499Z"/>
</mask>
<path d="M64 540V539H24V540V541H64V540Z" fill="#D7D7D7" mask="url(#path-47-inside-12_1316_6696)"/>
<rect x="36.5" y="512" width="15" height="15" fill="white" stroke="#979797"/>
<mask id="path-50-inside-13_1316_6696" fill="white">
<path d="M24 540H64V581H24V540Z"/>
</mask>
<path d="M64 581V580H24V581V582H64V581Z" fill="#D7D7D7" mask="url(#path-50-inside-13_1316_6696)"/>
<rect x="36.5" y="553" width="15" height="15" fill="white" stroke="#979797"/>
</g>
<g clip-path="url(#clip13_1316_6696)">
<rect width="320" height="409" transform="translate(64 172)" fill="white"/>
<rect width="320" height="40" transform="translate(64 172)" fill="#D9D9D9"/>
<rect x="64" y="187" width="83" height="10" fill="#171717"/>
<mask id="path-54-inside-14_1316_6696" fill="white">
<path d="M64 212H384V253H64V212Z"/>
</mask>
<path d="M384 253V252H64V253V254H384V253Z" fill="#D7D7D7" mask="url(#path-54-inside-14_1316_6696)"/>
<rect x="64" y="227.5" width="186" height="10" fill="#979797"/>
<mask id="path-57-inside-15_1316_6696" fill="white">
<path d="M64 253H384V294H64V253Z"/>
</mask>
<path d="M384 294V293H64V294V295H384V294Z" fill="#D7D7D7" mask="url(#path-57-inside-15_1316_6696)"/>
<rect x="64" y="268.5" width="222" height="10" fill="#979797"/>
<mask id="path-60-inside-16_1316_6696" fill="white">
<path d="M64 294H384V335H64V294Z"/>
</mask>
<path d="M384 335V334H64V335V336H384V335Z" fill="#D7D7D7" mask="url(#path-60-inside-16_1316_6696)"/>
<rect x="64" y="309.5" width="142" height="10" fill="#979797"/>
<mask id="path-63-inside-17_1316_6696" fill="white">
<path d="M64 335H384V376H64V335Z"/>
</mask>
<path d="M384 376V375H64V376V377H384V376Z" fill="#D7D7D7" mask="url(#path-63-inside-17_1316_6696)"/>
<rect x="64" y="350.5" width="132" height="10" fill="#979797"/>
<mask id="path-66-inside-18_1316_6696" fill="white">
<path d="M64 376H384V417H64V376Z"/>
</mask>
<path d="M384 417V416H64V417V418H384V417Z" fill="#D7D7D7" mask="url(#path-66-inside-18_1316_6696)"/>
<rect x="64" y="391.5" width="186" height="10" fill="#979797"/>
<mask id="path-69-inside-19_1316_6696" fill="white">
<path d="M64 417H384V458H64V417Z"/>
</mask>
<path d="M384 458V457H64V458V459H384V458Z" fill="#D7D7D7" mask="url(#path-69-inside-19_1316_6696)"/>
<rect x="64" y="432.5" width="232" height="10" fill="#979797"/>
<mask id="path-72-inside-20_1316_6696" fill="white">
<path d="M64 458H384V499H64V458Z"/>
</mask>
<path d="M384 499V498H64V499V500H384V499Z" fill="#D7D7D7" mask="url(#path-72-inside-20_1316_6696)"/>
<rect x="64" y="473.5" width="157" height="10" fill="#979797"/>
<mask id="path-75-inside-21_1316_6696" fill="white">
<path d="M64 499H384V540H64V499Z"/>
</mask>
<path d="M384 540V539H64V540V541H384V540Z" fill="#D7D7D7" mask="url(#path-75-inside-21_1316_6696)"/>
<rect x="64" y="514.5" width="186" height="10" fill="#979797"/>
<mask id="path-78-inside-22_1316_6696" fill="white">
<path d="M64 540H384V581H64V540Z"/>
</mask>
<path d="M384 581V580H64V581V582H384V581Z" fill="#D7D7D7" mask="url(#path-78-inside-22_1316_6696)"/>
<rect x="64" y="555.5" width="242" height="10" fill="#979797"/>
</g>
<g clip-path="url(#clip14_1316_6696)">
<rect width="384" height="409" transform="translate(384 172)" fill="white"/>
<rect width="384" height="40" transform="translate(384 172)" fill="#D9D9D9"/>
<rect x="396" y="187" width="83" height="10" fill="#171717"/>
<mask id="path-82-inside-23_1316_6696" fill="white">
<path d="M384 212H768V253H384V212Z"/>
</mask>
<path d="M768 253V252H384V253V254H768V253Z" fill="#D7D7D7" mask="url(#path-82-inside-23_1316_6696)"/>
<rect x="396" y="227.5" width="110" height="10" fill="#979797"/>
<mask id="path-85-inside-24_1316_6696" fill="white">
<path d="M384 253H768V294H384V253Z"/>
</mask>
<path d="M768 294V293H384V294V295H768V294Z" fill="#D7D7D7" mask="url(#path-85-inside-24_1316_6696)"/>
<rect x="396" y="268.5" width="76" height="10" fill="#979797"/>
<mask id="path-88-inside-25_1316_6696" fill="white">
<path d="M384 294H768V335H384V294Z"/>
</mask>
<path d="M768 335V334H384V335V336H768V335Z" fill="#D7D7D7" mask="url(#path-88-inside-25_1316_6696)"/>
<rect x="396" y="309.5" width="92" height="10" fill="#979797"/>
<mask id="path-91-inside-26_1316_6696" fill="white">
<path d="M384 335H768V376H384V335Z"/>
</mask>
<path d="M768 376V375H384V376V377H768V376Z" fill="#D7D7D7" mask="url(#path-91-inside-26_1316_6696)"/>
<rect x="396" y="350.5" width="120" height="10" fill="#979797"/>
<mask id="path-94-inside-27_1316_6696" fill="white">
<path d="M384 376H768V417H384V376Z"/>
</mask>
<path d="M768 417V416H384V417V418H768V417Z" fill="#D7D7D7" mask="url(#path-94-inside-27_1316_6696)"/>
<rect x="396" y="391.5" width="102" height="10" fill="#979797"/>
<mask id="path-97-inside-28_1316_6696" fill="white">
<path d="M384 417H768V458H384V417Z"/>
</mask>
<path d="M768 458V457H384V458V459H768V458Z" fill="#D7D7D7" mask="url(#path-97-inside-28_1316_6696)"/>
<rect x="396" y="432.5" width="90" height="10" fill="#979797"/>
<mask id="path-100-inside-29_1316_6696" fill="white">
<path d="M384 458H768V499H384V458Z"/>
</mask>
<path d="M768 499V498H384V499V500H768V499Z" fill="#D7D7D7" mask="url(#path-100-inside-29_1316_6696)"/>
<rect x="396" y="473.5" width="132" height="10" fill="#979797"/>
<mask id="path-103-inside-30_1316_6696" fill="white">
<path d="M384 499H768V540H384V499Z"/>
</mask>
<path d="M768 540V539H384V540V541H768V540Z" fill="#D7D7D7" mask="url(#path-103-inside-30_1316_6696)"/>
<rect x="396" y="514.5" width="76" height="10" fill="#979797"/>
<mask id="path-106-inside-31_1316_6696" fill="white">
<path d="M384 540H768V581H384V540Z"/>
</mask>
<path d="M768 581V580H384V581V582H768V581Z" fill="#D7D7D7" mask="url(#path-106-inside-31_1316_6696)"/>
<rect x="396" y="555.5" width="88" height="10" fill="#979797"/>
</g>
<g clip-path="url(#clip15_1316_6696)">
<rect width="384" height="409" transform="translate(768 172)" fill="white"/>
<rect width="384" height="40" transform="translate(768 172)" fill="#D9D9D9"/>
<rect x="780" y="187" width="130" height="10" fill="#171717"/>
<mask id="path-110-inside-32_1316_6696" fill="white">
<path d="M768 212H1152V253H768V212Z"/>
</mask>
<path d="M1152 253V252H768V253V254H1152V253Z" fill="#D7D7D7" mask="url(#path-110-inside-32_1316_6696)"/>
<rect x="780" y="220.5" width="132" height="24" rx="12" fill="white"/>
<rect x="780" y="227.5" width="80" height="10" fill="#979797"/>
<mask id="path-114-inside-33_1316_6696" fill="white">
<path d="M768 253H1152V294H768V253Z"/>
</mask>
<path d="M1152 294V293H768V294V295H1152V294Z" fill="#D7D7D7" mask="url(#path-114-inside-33_1316_6696)"/>
<rect x="780" y="261.5" width="132" height="24" rx="12" fill="white"/>
<rect x="780" y="268.5" width="80" height="10" fill="#979797"/>
<mask id="path-118-inside-34_1316_6696" fill="white">
<path d="M768 294H1152V335H768V294Z"/>
</mask>
<path d="M1152 335V334H768V335V336H1152V335Z" fill="#D7D7D7" mask="url(#path-118-inside-34_1316_6696)"/>
<rect x="780" y="302.5" width="132" height="24" rx="12" fill="white"/>
<rect x="780" y="309.5" width="80" height="10" fill="#979797"/>
<mask id="path-122-inside-35_1316_6696" fill="white">
<path d="M768 335H1152V376H768V335Z"/>
</mask>
<path d="M1152 376V375H768V376V377H1152V376Z" fill="#D7D7D7" mask="url(#path-122-inside-35_1316_6696)"/>
<rect x="780" y="343.5" width="132" height="24" rx="12" fill="white"/>
<rect x="780" y="350.5" width="80" height="10" fill="#979797"/>
<mask id="path-126-inside-36_1316_6696" fill="white">
<path d="M768 376H1152V417H768V376Z"/>
</mask>
<path d="M1152 417V416H768V417V418H1152V417Z" fill="#D7D7D7" mask="url(#path-126-inside-36_1316_6696)"/>
<rect x="780" y="384.5" width="132" height="24" rx="12" fill="white"/>
<rect x="780" y="391.5" width="80" height="10" fill="#979797"/>
<mask id="path-130-inside-37_1316_6696" fill="white">
<path d="M768 417H1152V458H768V417Z"/>
</mask>
<path d="M1152 458V457H768V458V459H1152V458Z" fill="#D7D7D7" mask="url(#path-130-inside-37_1316_6696)"/>
<rect x="780" y="425.5" width="132" height="24" rx="12" fill="white"/>
<rect x="780" y="432.5" width="80" height="10" fill="#979797"/>
<mask id="path-134-inside-38_1316_6696" fill="white">
<path d="M768 458H1152V499H768V458Z"/>
</mask>
<path d="M1152 499V498H768V499V500H1152V499Z" fill="#D7D7D7" mask="url(#path-134-inside-38_1316_6696)"/>
<rect x="780" y="466.5" width="132" height="24" rx="12" fill="white"/>
<rect x="780" y="473.5" width="80" height="10" fill="#979797"/>
<mask id="path-138-inside-39_1316_6696" fill="white">
<path d="M768 499H1152V540H768V499Z"/>
</mask>
<path d="M1152 540V539H768V540V541H1152V540Z" fill="#D7D7D7" mask="url(#path-138-inside-39_1316_6696)"/>
<rect x="780" y="507.5" width="132" height="24" rx="12" fill="white"/>
<rect x="780" y="514.5" width="80" height="10" fill="#979797"/>
<mask id="path-142-inside-40_1316_6696" fill="white">
<path d="M768 540H1152V581H768V540Z"/>
</mask>
<path d="M1152 581V580H768V581V582H1152V581Z" fill="#D7D7D7" mask="url(#path-142-inside-40_1316_6696)"/>
<rect x="780" y="548.5" width="132" height="24" rx="12" fill="white"/>
<rect x="780" y="555.5" width="80" height="10" fill="#979797"/>
</g>
<g clip-path="url(#clip16_1316_6696)">
<rect width="384" height="409" transform="translate(1152 172)" fill="white"/>
<rect width="384" height="40" transform="translate(1152 172)" fill="#D9D9D9"/>
<rect x="1164" y="187" width="110" height="10" fill="#171717"/>
<mask id="path-147-inside-41_1316_6696" fill="white">
<path d="M1152 212H1536V253H1152V212Z"/>
</mask>
<path d="M1536 253V252H1152V253V254H1536V253Z" fill="#D7D7D7" mask="url(#path-147-inside-41_1316_6696)"/>
<rect x="1164" y="227.5" width="83" height="10" fill="#979797"/>
<mask id="path-150-inside-42_1316_6696" fill="white">
<path d="M1152 253H1536V294H1152V253Z"/>
</mask>
<path d="M1536 294V293H1152V294V295H1536V294Z" fill="#D7D7D7" mask="url(#path-150-inside-42_1316_6696)"/>
<rect x="1164" y="268.5" width="83" height="10" fill="#979797"/>
<mask id="path-153-inside-43_1316_6696" fill="white">
<path d="M1152 294H1536V335H1152V294Z"/>
</mask>
<path d="M1536 335V334H1152V335V336H1536V335Z" fill="#D7D7D7" mask="url(#path-153-inside-43_1316_6696)"/>
<rect x="1164" y="309.5" width="83" height="10" fill="#979797"/>
<mask id="path-156-inside-44_1316_6696" fill="white">
<path d="M1152 335H1536V376H1152V335Z"/>
</mask>
<path d="M1536 376V375H1152V376V377H1536V376Z" fill="#D7D7D7" mask="url(#path-156-inside-44_1316_6696)"/>
<rect x="1164" y="350.5" width="83" height="10" fill="#979797"/>
<mask id="path-159-inside-45_1316_6696" fill="white">
<path d="M1152 376H1536V417H1152V376Z"/>
</mask>
<path d="M1536 417V416H1152V417V418H1536V417Z" fill="#D7D7D7" mask="url(#path-159-inside-45_1316_6696)"/>
<rect x="1164" y="391.5" width="83" height="10" fill="#979797"/>
<mask id="path-162-inside-46_1316_6696" fill="white">
<path d="M1152 417H1536V458H1152V417Z"/>
</mask>
<path d="M1536 458V457H1152V458V459H1536V458Z" fill="#D7D7D7" mask="url(#path-162-inside-46_1316_6696)"/>
<rect x="1164" y="432.5" width="83" height="10" fill="#979797"/>
<mask id="path-165-inside-47_1316_6696" fill="white">
<path d="M1152 458H1536V499H1152V458Z"/>
</mask>
<path d="M1536 499V498H1152V499V500H1536V499Z" fill="#D7D7D7" mask="url(#path-165-inside-47_1316_6696)"/>
<rect x="1164" y="473.5" width="83" height="10" fill="#979797"/>
<mask id="path-168-inside-48_1316_6696" fill="white">
<path d="M1152 499H1536V540H1152V499Z"/>
</mask>
<path d="M1536 540V539H1152V540V541H1536V540Z" fill="#D7D7D7" mask="url(#path-168-inside-48_1316_6696)"/>
<rect x="1164" y="514.5" width="83" height="10" fill="#979797"/>
<mask id="path-171-inside-49_1316_6696" fill="white">
<path d="M1152 540H1536V581H1152V540Z"/>
</mask>
<path d="M1536 581V580H1152V581V582H1536V581Z" fill="#D7D7D7" mask="url(#path-171-inside-49_1316_6696)"/>
<rect x="1164" y="555.5" width="83" height="10" fill="#979797"/>
</g>
<g clip-path="url(#clip17_1316_6696)">
<rect width="40" height="409" transform="translate(1536 172)" fill="white"/>
<rect width="40" height="40" transform="translate(1536 172)" fill="#D9D9D9"/>
<mask id="path-174-inside-50_1316_6696" fill="white">
<path d="M1536 212H1576V253H1536V212Z"/>
</mask>
<path d="M1576 253V252H1536V253V254H1576V253Z" fill="#D7D7D7" mask="url(#path-174-inside-50_1316_6696)"/>
<g clip-path="url(#clip18_1316_6696)">
<path d="M1550 231C1550.83 231 1551.5 231.672 1551.5 232.5C1551.5 233.328 1550.83 234 1550 234C1549.17 234 1548.5 233.328 1548.5 232.5C1548.5 231.672 1549.17 231 1550 231ZM1556 231C1556.83 231 1557.5 231.672 1557.5 232.5C1557.5 233.328 1556.83 234 1556 234C1555.17 234 1554.5 233.328 1554.5 232.5C1554.5 231.672 1555.17 231 1556 231ZM1562 231C1562.83 231 1563.5 231.672 1563.5 232.5C1563.5 233.328 1562.83 234 1562 234C1561.17 234 1560.5 233.328 1560.5 232.5C1560.5 231.672 1561.17 231 1562 231Z" fill="#979797"/>
</g>
<mask id="path-177-inside-51_1316_6696" fill="white">
<path d="M1536 253H1576V294H1536V253Z"/>
</mask>
<path d="M1576 294V293H1536V294V295H1576V294Z" fill="#D7D7D7" mask="url(#path-177-inside-51_1316_6696)"/>
<g clip-path="url(#clip19_1316_6696)">
<path fill-rule="evenodd" clip-rule="evenodd" d="M1551.5 273.5C1551.5 274.328 1550.83 275 1550 275C1549.17 275 1548.5 274.328 1548.5 273.5C1548.5 272.672 1549.17 272 1550 272C1550.83 272 1551.5 272.672 1551.5 273.5ZM1557.5 273.5C1557.5 274.328 1556.83 275 1556 275C1555.17 275 1554.5 274.328 1554.5 273.5C1554.5 272.672 1555.17 272 1556 272C1556.83 272 1557.5 272.672 1557.5 273.5ZM1562 275C1562.83 275 1563.5 274.328 1563.5 273.5C1563.5 272.672 1562.83 272 1562 272C1561.17 272 1560.5 272.672 1560.5 273.5C1560.5 274.328 1561.17 275 1562 275Z" fill="#979797"/>
</g>
<mask id="path-180-inside-52_1316_6696" fill="white">
<path d="M1536 294H1576V335H1536V294Z"/>
</mask>
<path d="M1576 335V334H1536V335V336H1576V335Z" fill="#D7D7D7" mask="url(#path-180-inside-52_1316_6696)"/>
<g clip-path="url(#clip20_1316_6696)">
<path fill-rule="evenodd" clip-rule="evenodd" d="M1551.5 314.5C1551.5 315.328 1550.83 316 1550 316C1549.17 316 1548.5 315.328 1548.5 314.5C1548.5 313.672 1549.17 313 1550 313C1550.83 313 1551.5 313.672 1551.5 314.5ZM1557.5 314.5C1557.5 315.328 1556.83 316 1556 316C1555.17 316 1554.5 315.328 1554.5 314.5C1554.5 313.672 1555.17 313 1556 313C1556.83 313 1557.5 313.672 1557.5 314.5ZM1562 316C1562.83 316 1563.5 315.328 1563.5 314.5C1563.5 313.672 1562.83 313 1562 313C1561.17 313 1560.5 313.672 1560.5 314.5C1560.5 315.328 1561.17 316 1562 316Z" fill="#979797"/>
</g>
<mask id="path-183-inside-53_1316_6696" fill="white">
<path d="M1536 335H1576V376H1536V335Z"/>
</mask>
<path d="M1576 376V375H1536V376V377H1576V376Z" fill="#D7D7D7" mask="url(#path-183-inside-53_1316_6696)"/>
<g clip-path="url(#clip21_1316_6696)">
<path fill-rule="evenodd" clip-rule="evenodd" d="M1551.5 355.5C1551.5 356.328 1550.83 357 1550 357C1549.17 357 1548.5 356.328 1548.5 355.5C1548.5 354.672 1549.17 354 1550 354C1550.83 354 1551.5 354.672 1551.5 355.5ZM1557.5 355.5C1557.5 356.328 1556.83 357 1556 357C1555.17 357 1554.5 356.328 1554.5 355.5C1554.5 354.672 1555.17 354 1556 354C1556.83 354 1557.5 354.672 1557.5 355.5ZM1562 357C1562.83 357 1563.5 356.328 1563.5 355.5C1563.5 354.672 1562.83 354 1562 354C1561.17 354 1560.5 354.672 1560.5 355.5C1560.5 356.328 1561.17 357 1562 357Z" fill="#979797"/>
</g>
<mask id="path-186-inside-54_1316_6696" fill="white">
<path d="M1536 376H1576V417H1536V376Z"/>
</mask>
<path d="M1576 417V416H1536V417V418H1576V417Z" fill="#D7D7D7" mask="url(#path-186-inside-54_1316_6696)"/>
<g clip-path="url(#clip22_1316_6696)">
<path fill-rule="evenodd" clip-rule="evenodd" d="M1551.5 396.5C1551.5 397.328 1550.83 398 1550 398C1549.17 398 1548.5 397.328 1548.5 396.5C1548.5 395.672 1549.17 395 1550 395C1550.83 395 1551.5 395.672 1551.5 396.5ZM1557.5 396.5C1557.5 397.328 1556.83 398 1556 398C1555.17 398 1554.5 397.328 1554.5 396.5C1554.5 395.672 1555.17 395 1556 395C1556.83 395 1557.5 395.672 1557.5 396.5ZM1562 398C1562.83 398 1563.5 397.328 1563.5 396.5C1563.5 395.672 1562.83 395 1562 395C1561.17 395 1560.5 395.672 1560.5 396.5C1560.5 397.328 1561.17 398 1562 398Z" fill="#979797"/>
</g>
<mask id="path-189-inside-55_1316_6696" fill="white">
<path d="M1536 417H1576V458H1536V417Z"/>
</mask>
<path d="M1576 458V457H1536V458V459H1576V458Z" fill="#D7D7D7" mask="url(#path-189-inside-55_1316_6696)"/>
<g clip-path="url(#clip23_1316_6696)">
<path fill-rule="evenodd" clip-rule="evenodd" d="M1551.5 437.5C1551.5 438.328 1550.83 439 1550 439C1549.17 439 1548.5 438.328 1548.5 437.5C1548.5 436.672 1549.17 436 1550 436C1550.83 436 1551.5 436.672 1551.5 437.5ZM1557.5 437.5C1557.5 438.328 1556.83 439 1556 439C1555.17 439 1554.5 438.328 1554.5 437.5C1554.5 436.672 1555.17 436 1556 436C1556.83 436 1557.5 436.672 1557.5 437.5ZM1562 439C1562.83 439 1563.5 438.328 1563.5 437.5C1563.5 436.672 1562.83 436 1562 436C1561.17 436 1560.5 436.672 1560.5 437.5C1560.5 438.328 1561.17 439 1562 439Z" fill="#979797"/>
</g>
<mask id="path-192-inside-56_1316_6696" fill="white">
<path d="M1536 458H1576V499H1536V458Z"/>
</mask>
<path d="M1576 499V498H1536V499V500H1576V499Z" fill="#D7D7D7" mask="url(#path-192-inside-56_1316_6696)"/>
<g clip-path="url(#clip24_1316_6696)">
<path fill-rule="evenodd" clip-rule="evenodd" d="M1551.5 478.5C1551.5 479.328 1550.83 480 1550 480C1549.17 480 1548.5 479.328 1548.5 478.5C1548.5 477.672 1549.17 477 1550 477C1550.83 477 1551.5 477.672 1551.5 478.5ZM1557.5 478.5C1557.5 479.328 1556.83 480 1556 480C1555.17 480 1554.5 479.328 1554.5 478.5C1554.5 477.672 1555.17 477 1556 477C1556.83 477 1557.5 477.672 1557.5 478.5ZM1562 480C1562.83 480 1563.5 479.328 1563.5 478.5C1563.5 477.672 1562.83 477 1562 477C1561.17 477 1560.5 477.672 1560.5 478.5C1560.5 479.328 1561.17 480 1562 480Z" fill="#979797"/>
</g>
<mask id="path-195-inside-57_1316_6696" fill="white">
<path d="M1536 499H1576V540H1536V499Z"/>
</mask>
<path d="M1576 540V539H1536V540V541H1576V540Z" fill="#D7D7D7" mask="url(#path-195-inside-57_1316_6696)"/>
<g clip-path="url(#clip25_1316_6696)">
<path fill-rule="evenodd" clip-rule="evenodd" d="M1551.5 519.5C1551.5 520.328 1550.83 521 1550 521C1549.17 521 1548.5 520.328 1548.5 519.5C1548.5 518.672 1549.17 518 1550 518C1550.83 518 1551.5 518.672 1551.5 519.5ZM1557.5 519.5C1557.5 520.328 1556.83 521 1556 521C1555.17 521 1554.5 520.328 1554.5 519.5C1554.5 518.672 1555.17 518 1556 518C1556.83 518 1557.5 518.672 1557.5 519.5ZM1562 521C1562.83 521 1563.5 520.328 1563.5 519.5C1563.5 518.672 1562.83 518 1562 518C1561.17 518 1560.5 518.672 1560.5 519.5C1560.5 520.328 1561.17 521 1562 521Z" fill="#979797"/>
</g>
<mask id="path-198-inside-58_1316_6696" fill="white">
<path d="M1536 540H1576V581H1536V540Z"/>
</mask>
<path d="M1576 581V580H1536V581V582H1576V581Z" fill="#D7D7D7" mask="url(#path-198-inside-58_1316_6696)"/>
<g clip-path="url(#clip26_1316_6696)">
<path fill-rule="evenodd" clip-rule="evenodd" d="M1551.5 560.5C1551.5 561.328 1550.83 562 1550 562C1549.17 562 1548.5 561.328 1548.5 560.5C1548.5 559.672 1549.17 559 1550 559C1550.83 559 1551.5 559.672 1551.5 560.5ZM1557.5 560.5C1557.5 561.328 1556.83 562 1556 562C1555.17 562 1554.5 561.328 1554.5 560.5C1554.5 559.672 1555.17 559 1556 559C1556.83 559 1557.5 559.672 1557.5 560.5ZM1562 562C1562.83 562 1563.5 561.328 1563.5 560.5C1563.5 559.672 1562.83 559 1562 559C1561.17 559 1560.5 559.672 1560.5 560.5C1560.5 561.328 1561.17 562 1562 562Z" fill="#979797"/>
</g>
</g>
</g>
</g>
</g>
</g>
<g filter="url(#filter0_d_1316_6696)">
<g clip-path="url(#clip27_1316_6696)">
<rect x="1296" y="968" width="280" height="84" fill="white"/>
<rect width="4" height="84" transform="translate(1296 968)" fill="#00813A"/>
<g clip-path="url(#clip28_1316_6696)">
<g clip-path="url(#clip29_1316_6696)">
<path d="M1326 985.25C1321.19 985.25 1317.25 989.188 1317.25 994C1317.25 998.812 1321.19 1002.75 1326 1002.75C1330.81 1002.75 1334.75 998.812 1334.75 994C1334.75 989.188 1330.81 985.25 1326 985.25ZM1324.75 997.687L1321.19 994.125L1322.06 993.25L1324.75 995.938L1329.94 990.75L1330.81 991.625L1324.75 997.687Z" fill="#00813A"/>
</g>
<path d="M1350.16 996.416C1350.16 996.225 1350.13 996.054 1350.07 995.903C1350.02 995.748 1349.91 995.609 1349.76 995.486C1349.62 995.359 1349.41 995.236 1349.14 995.117C1348.88 994.994 1348.53 994.867 1348.12 994.734C1347.65 994.589 1347.22 994.424 1346.82 994.242C1346.42 994.06 1346.06 993.848 1345.76 993.606C1345.46 993.365 1345.22 993.087 1345.05 992.772C1344.88 992.453 1344.8 992.084 1344.8 991.665C1344.8 991.255 1344.89 990.881 1345.06 990.544C1345.24 990.207 1345.49 989.917 1345.81 989.676C1346.14 989.43 1346.52 989.241 1346.95 989.108C1347.4 988.976 1347.88 988.91 1348.42 988.91C1349.15 988.91 1349.79 989.045 1350.33 989.313C1350.87 989.582 1351.29 989.947 1351.59 990.407C1351.88 990.868 1352.03 991.385 1352.03 991.959H1350.16C1350.16 991.649 1350.09 991.376 1349.96 991.139C1349.83 990.902 1349.64 990.715 1349.37 990.578C1349.11 990.441 1348.79 990.373 1348.39 990.373C1348.01 990.373 1347.69 990.43 1347.43 990.544C1347.18 990.658 1346.99 990.813 1346.86 991.009C1346.74 991.205 1346.68 991.424 1346.68 991.665C1346.68 991.847 1346.72 992.011 1346.81 992.157C1346.9 992.299 1347.03 992.433 1347.2 992.561C1347.37 992.684 1347.59 992.8 1347.84 992.909C1348.1 993.014 1348.4 993.119 1348.74 993.224C1349.29 993.388 1349.77 993.57 1350.18 993.771C1350.59 993.971 1350.94 994.199 1351.21 994.454C1351.49 994.709 1351.7 994.996 1351.83 995.315C1351.98 995.634 1352.05 995.997 1352.05 996.402C1352.05 996.831 1351.96 997.214 1351.79 997.551C1351.62 997.888 1351.38 998.175 1351.07 998.412C1350.75 998.649 1350.38 998.829 1349.93 998.952C1349.5 999.075 1349.01 999.137 1348.46 999.137C1347.98 999.137 1347.5 999.073 1347.03 998.945C1346.56 998.813 1346.13 998.617 1345.75 998.357C1345.37 998.093 1345.06 997.76 1344.83 997.359C1344.61 996.954 1344.49 996.48 1344.49 995.938H1346.38C1346.38 996.252 1346.43 996.521 1346.53 996.744C1346.63 996.963 1346.78 997.143 1346.97 997.284C1347.16 997.421 1347.38 997.521 1347.64 997.585C1347.89 997.649 1348.17 997.681 1348.46 997.681C1348.85 997.681 1349.16 997.628 1349.41 997.523C1349.66 997.414 1349.84 997.264 1349.97 997.072C1350.1 996.881 1350.16 996.662 1350.16 996.416ZM1357.76 997.243V991.604H1359.58V999H1357.87L1357.76 997.243ZM1357.99 995.712L1358.55 995.698C1358.55 996.195 1358.5 996.653 1358.39 997.072C1358.28 997.492 1358.11 997.856 1357.88 998.166C1357.65 998.471 1357.36 998.711 1357.01 998.884C1356.66 999.052 1356.24 999.137 1355.76 999.137C1355.4 999.137 1355.07 999.087 1354.77 998.986C1354.47 998.882 1354.21 998.72 1353.99 998.501C1353.77 998.278 1353.61 997.993 1353.49 997.646C1353.37 997.296 1353.31 996.874 1353.31 996.382V991.604H1355.12V996.396C1355.12 996.642 1355.14 996.847 1355.2 997.011C1355.26 997.175 1355.34 997.309 1355.44 997.414C1355.54 997.514 1355.66 997.587 1355.8 997.633C1355.94 997.674 1356.09 997.694 1356.25 997.694C1356.69 997.694 1357.03 997.608 1357.28 997.435C1357.54 997.257 1357.72 997.02 1357.83 996.724C1357.94 996.423 1357.99 996.086 1357.99 995.712ZM1364.21 997.715C1364.47 997.715 1364.7 997.665 1364.9 997.564C1365.1 997.464 1365.26 997.323 1365.38 997.141C1365.5 996.958 1365.57 996.746 1365.57 996.505H1367.28C1367.27 997.006 1367.13 997.455 1366.85 997.852C1366.58 998.248 1366.21 998.562 1365.76 998.795C1365.31 999.023 1364.8 999.137 1364.24 999.137C1363.67 999.137 1363.17 999.041 1362.75 998.85C1362.33 998.658 1361.97 998.392 1361.69 998.05C1361.41 997.708 1361.2 997.312 1361.06 996.86C1360.93 996.409 1360.86 995.926 1360.86 995.411V995.192C1360.86 994.677 1360.93 994.194 1361.06 993.743C1361.2 993.292 1361.41 992.896 1361.69 992.554C1361.97 992.212 1362.33 991.945 1362.75 991.754C1363.17 991.562 1363.67 991.467 1364.23 991.467C1364.83 991.467 1365.36 991.583 1365.81 991.815C1366.26 992.048 1366.62 992.376 1366.87 992.8C1367.13 993.224 1367.27 993.723 1367.28 994.297H1365.57C1365.57 994.033 1365.51 993.796 1365.4 993.586C1365.29 993.376 1365.13 993.208 1364.93 993.08C1364.73 992.952 1364.49 992.889 1364.2 992.889C1363.89 992.889 1363.64 992.952 1363.43 993.08C1363.23 993.208 1363.08 993.383 1362.96 993.606C1362.85 993.825 1362.78 994.071 1362.73 994.345C1362.69 994.614 1362.67 994.896 1362.67 995.192V995.411C1362.67 995.712 1362.69 995.999 1362.73 996.272C1362.78 996.546 1362.85 996.792 1362.96 997.011C1363.08 997.225 1363.23 997.396 1363.43 997.523C1363.64 997.651 1363.9 997.715 1364.21 997.715ZM1371.51 997.715C1371.77 997.715 1372 997.665 1372.2 997.564C1372.4 997.464 1372.56 997.323 1372.68 997.141C1372.8 996.958 1372.87 996.746 1372.88 996.505H1374.58C1374.57 997.006 1374.43 997.455 1374.15 997.852C1373.88 998.248 1373.52 998.562 1373.06 998.795C1372.61 999.023 1372.1 999.137 1371.54 999.137C1370.97 999.137 1370.48 999.041 1370.05 998.85C1369.63 998.658 1369.27 998.392 1368.99 998.05C1368.71 997.708 1368.5 997.312 1368.36 996.86C1368.23 996.409 1368.16 995.926 1368.16 995.411V995.192C1368.16 994.677 1368.23 994.194 1368.36 993.743C1368.5 993.292 1368.71 992.896 1368.99 992.554C1369.27 992.212 1369.63 991.945 1370.05 991.754C1370.48 991.562 1370.97 991.467 1371.54 991.467C1372.13 991.467 1372.66 991.583 1373.11 991.815C1373.56 992.048 1373.92 992.376 1374.17 992.8C1374.43 993.224 1374.57 993.723 1374.58 994.297H1372.88C1372.87 994.033 1372.81 993.796 1372.7 993.586C1372.59 993.376 1372.43 993.208 1372.23 993.08C1372.03 992.952 1371.79 992.889 1371.5 992.889C1371.2 992.889 1370.94 992.952 1370.74 993.08C1370.53 993.208 1370.38 993.383 1370.26 993.606C1370.15 993.825 1370.08 994.071 1370.03 994.345C1369.99 994.614 1369.97 994.896 1369.97 995.192V995.411C1369.97 995.712 1369.99 995.999 1370.03 996.272C1370.08 996.546 1370.15 996.792 1370.26 997.011C1370.38 997.225 1370.53 997.396 1370.74 997.523C1370.94 997.651 1371.2 997.715 1371.51 997.715ZM1379.1 999.137C1378.54 999.137 1378.04 999.046 1377.59 998.863C1377.15 998.681 1376.76 998.428 1376.45 998.104C1376.14 997.776 1375.9 997.396 1375.73 996.963C1375.57 996.525 1375.49 996.056 1375.49 995.555V995.281C1375.49 994.712 1375.57 994.194 1375.73 993.729C1375.9 993.26 1376.13 992.857 1376.43 992.52C1376.73 992.182 1377.09 991.923 1377.51 991.74C1377.93 991.558 1378.39 991.467 1378.9 991.467C1379.42 991.467 1379.88 991.556 1380.29 991.733C1380.69 991.907 1381.02 992.153 1381.29 992.472C1381.56 992.791 1381.76 993.174 1381.9 993.62C1382.04 994.062 1382.1 994.552 1382.1 995.09V995.849H1376.31V994.604H1380.33V994.468C1380.32 994.181 1380.26 993.919 1380.16 993.682C1380.06 993.44 1379.91 993.249 1379.7 993.107C1379.49 992.962 1379.22 992.889 1378.88 992.889C1378.61 992.889 1378.38 992.948 1378.18 993.066C1377.98 993.18 1377.82 993.344 1377.69 993.559C1377.56 993.768 1377.46 994.019 1377.4 994.311C1377.34 994.602 1377.3 994.926 1377.3 995.281V995.555C1377.3 995.865 1377.35 996.152 1377.43 996.416C1377.51 996.68 1377.64 996.91 1377.8 997.106C1377.97 997.298 1378.17 997.448 1378.41 997.558C1378.64 997.662 1378.91 997.715 1379.21 997.715C1379.59 997.715 1379.93 997.642 1380.24 997.496C1380.55 997.346 1380.82 997.125 1381.04 996.833L1381.95 997.776C1381.8 998.004 1381.59 998.223 1381.32 998.433C1381.06 998.642 1380.75 998.813 1380.38 998.945C1380.01 999.073 1379.59 999.137 1379.1 999.137ZM1387.38 996.977C1387.38 996.822 1387.34 996.683 1387.26 996.56C1387.18 996.437 1387.02 996.325 1386.79 996.225C1386.57 996.12 1386.24 996.022 1385.81 995.931C1385.43 995.849 1385.07 995.746 1384.75 995.623C1384.43 995.5 1384.15 995.352 1383.92 995.179C1383.68 995.001 1383.5 994.794 1383.37 994.557C1383.24 994.315 1383.18 994.037 1383.18 993.723C1383.18 993.417 1383.24 993.13 1383.38 992.861C1383.51 992.588 1383.7 992.349 1383.95 992.144C1384.2 991.934 1384.51 991.77 1384.87 991.651C1385.23 991.528 1385.63 991.467 1386.08 991.467C1386.71 991.467 1387.25 991.569 1387.7 991.774C1388.16 991.979 1388.51 992.262 1388.75 992.622C1388.99 992.978 1389.11 993.379 1389.11 993.825H1387.31C1387.31 993.629 1387.26 993.451 1387.17 993.292C1387.08 993.132 1386.95 993.005 1386.77 992.909C1386.58 992.809 1386.35 992.759 1386.08 992.759C1385.82 992.759 1385.61 992.8 1385.44 992.882C1385.27 992.964 1385.14 993.071 1385.06 993.203C1384.97 993.335 1384.93 993.481 1384.93 993.641C1384.93 993.759 1384.95 993.866 1385 993.962C1385.05 994.053 1385.12 994.137 1385.23 994.215C1385.34 994.292 1385.49 994.363 1385.68 994.427C1385.87 994.491 1386.1 994.552 1386.38 994.611C1386.93 994.721 1387.42 994.867 1387.83 995.049C1388.24 995.227 1388.56 995.464 1388.8 995.76C1389.03 996.056 1389.14 996.434 1389.14 996.895C1389.14 997.223 1389.07 997.523 1388.93 997.797C1388.79 998.066 1388.59 998.3 1388.32 998.501C1388.05 998.701 1387.73 998.859 1387.35 998.973C1386.98 999.082 1386.56 999.137 1386.09 999.137C1385.41 999.137 1384.84 999.016 1384.37 998.774C1383.9 998.528 1383.54 998.218 1383.3 997.845C1383.06 997.466 1382.94 997.075 1382.94 996.669H1384.67C1384.68 996.956 1384.76 997.186 1384.9 997.359C1385.04 997.533 1385.22 997.658 1385.43 997.735C1385.65 997.808 1385.88 997.845 1386.12 997.845C1386.4 997.845 1386.63 997.808 1386.81 997.735C1387 997.658 1387.14 997.555 1387.24 997.428C1387.33 997.296 1387.38 997.145 1387.38 996.977ZM1394.59 996.977C1394.59 996.822 1394.54 996.683 1394.46 996.56C1394.38 996.437 1394.23 996.325 1394 996.225C1393.77 996.12 1393.45 996.022 1393.01 995.931C1392.63 995.849 1392.28 995.746 1391.95 995.623C1391.63 995.5 1391.35 995.352 1391.12 995.179C1390.89 995.001 1390.71 994.794 1390.57 994.557C1390.45 994.315 1390.38 994.037 1390.38 993.723C1390.38 993.417 1390.45 993.13 1390.58 992.861C1390.71 992.588 1390.9 992.349 1391.15 992.144C1391.4 991.934 1391.71 991.77 1392.07 991.651C1392.43 991.528 1392.84 991.467 1393.29 991.467C1393.92 991.467 1394.46 991.569 1394.91 991.774C1395.36 991.979 1395.71 992.262 1395.95 992.622C1396.19 992.978 1396.32 993.379 1396.32 993.825H1394.51C1394.51 993.629 1394.47 993.451 1394.37 993.292C1394.29 993.132 1394.15 993.005 1393.97 992.909C1393.79 992.809 1393.56 992.759 1393.28 992.759C1393.03 992.759 1392.82 992.8 1392.64 992.882C1392.48 992.964 1392.35 993.071 1392.26 993.203C1392.18 993.335 1392.13 993.481 1392.13 993.641C1392.13 993.759 1392.15 993.866 1392.2 993.962C1392.25 994.053 1392.33 994.137 1392.44 994.215C1392.55 994.292 1392.7 994.363 1392.88 994.427C1393.08 994.491 1393.31 994.552 1393.59 994.611C1394.14 994.721 1394.62 994.867 1395.03 995.049C1395.44 995.227 1395.77 995.464 1396 995.76C1396.23 996.056 1396.35 996.434 1396.35 996.895C1396.35 997.223 1396.28 997.523 1396.14 997.797C1396 998.066 1395.79 998.3 1395.52 998.501C1395.25 998.701 1394.93 998.859 1394.56 998.973C1394.18 999.082 1393.76 999.137 1393.29 999.137C1392.61 999.137 1392.04 999.016 1391.57 998.774C1391.1 998.528 1390.75 998.218 1390.5 997.845C1390.26 997.466 1390.14 997.075 1390.14 996.669H1391.87C1391.89 996.956 1391.96 997.186 1392.1 997.359C1392.25 997.533 1392.42 997.658 1392.64 997.735C1392.86 997.808 1393.09 997.845 1393.33 997.845C1393.6 997.845 1393.83 997.808 1394.02 997.735C1394.21 997.658 1394.35 997.555 1394.44 997.428C1394.54 997.296 1394.59 997.145 1394.59 996.977Z" fill="#00813A"/>
<path d="M1348.83 1011.05V1021H1347.53V1011.05H1348.83ZM1352.03 1011.05V1012.13H1344.34V1011.05H1352.03ZM1354.58 1010.5V1021H1353.32V1010.5H1354.58ZM1354.28 1017.02L1353.75 1017C1353.76 1016.5 1353.83 1016.03 1353.98 1015.6C1354.13 1015.17 1354.33 1014.79 1354.6 1014.47C1354.86 1014.15 1355.17 1013.91 1355.54 1013.73C1355.91 1013.56 1356.32 1013.47 1356.76 1013.47C1357.13 1013.47 1357.46 1013.52 1357.75 1013.62C1358.04 1013.71 1358.29 1013.87 1358.49 1014.08C1358.7 1014.3 1358.86 1014.57 1358.97 1014.92C1359.08 1015.25 1359.13 1015.67 1359.13 1016.15V1021H1357.86V1016.14C1357.86 1015.75 1357.81 1015.44 1357.69 1015.21C1357.58 1014.97 1357.41 1014.8 1357.19 1014.7C1356.97 1014.59 1356.71 1014.53 1356.39 1014.53C1356.07 1014.53 1355.79 1014.6 1355.53 1014.73C1355.27 1014.86 1355.05 1015.05 1354.86 1015.28C1354.68 1015.51 1354.54 1015.78 1354.43 1016.08C1354.33 1016.37 1354.28 1016.69 1354.28 1017.02ZM1364.1 1021.14C1363.58 1021.14 1363.12 1021.05 1362.7 1020.88C1362.28 1020.7 1361.92 1020.45 1361.62 1020.13C1361.33 1019.81 1361.1 1019.43 1360.94 1019C1360.78 1018.56 1360.7 1018.08 1360.7 1017.56V1017.27C1360.7 1016.67 1360.79 1016.14 1360.97 1015.67C1361.14 1015.19 1361.39 1014.79 1361.69 1014.46C1362 1014.14 1362.34 1013.89 1362.73 1013.72C1363.12 1013.55 1363.52 1013.47 1363.93 1013.47C1364.46 1013.47 1364.92 1013.56 1365.3 1013.74C1365.69 1013.92 1366 1014.18 1366.25 1014.51C1366.5 1014.83 1366.68 1015.21 1366.8 1015.65C1366.92 1016.09 1366.98 1016.57 1366.98 1017.09V1017.66H1361.45V1016.62H1365.71V1016.53C1365.69 1016.2 1365.62 1015.88 1365.51 1015.57C1365.39 1015.26 1365.21 1015.01 1364.96 1014.81C1364.71 1014.61 1364.37 1014.51 1363.93 1014.51C1363.65 1014.51 1363.38 1014.57 1363.14 1014.69C1362.9 1014.81 1362.69 1014.99 1362.52 1015.22C1362.35 1015.46 1362.21 1015.75 1362.12 1016.09C1362.02 1016.43 1361.97 1016.83 1361.97 1017.27V1017.56C1361.97 1017.91 1362.02 1018.24 1362.12 1018.55C1362.22 1018.86 1362.36 1019.13 1362.55 1019.36C1362.74 1019.59 1362.97 1019.77 1363.24 1019.91C1363.51 1020.04 1363.82 1020.1 1364.17 1020.1C1364.61 1020.1 1364.99 1020.01 1365.3 1019.83C1365.61 1019.65 1365.88 1019.4 1366.11 1019.1L1366.88 1019.71C1366.72 1019.95 1366.52 1020.18 1366.27 1020.4C1366.03 1020.62 1365.72 1020.79 1365.36 1020.93C1365.01 1021.07 1364.59 1021.14 1364.1 1021.14ZM1371.92 1010.5H1373.19V1019.56L1373.08 1021H1371.92V1010.5ZM1378.19 1017.24V1017.38C1378.19 1017.92 1378.12 1018.42 1378 1018.88C1377.87 1019.34 1377.68 1019.73 1377.43 1020.07C1377.19 1020.41 1376.89 1020.67 1376.53 1020.86C1376.18 1021.04 1375.77 1021.14 1375.31 1021.14C1374.84 1021.14 1374.43 1021.06 1374.07 1020.9C1373.72 1020.73 1373.42 1020.5 1373.18 1020.19C1372.94 1019.89 1372.75 1019.52 1372.6 1019.09C1372.46 1018.65 1372.36 1018.17 1372.31 1017.62V1016.99C1372.36 1016.45 1372.46 1015.96 1372.6 1015.52C1372.75 1015.09 1372.94 1014.72 1373.18 1014.42C1373.42 1014.11 1373.72 1013.87 1374.07 1013.71C1374.42 1013.55 1374.83 1013.47 1375.29 1013.47C1375.76 1013.47 1376.17 1013.56 1376.53 1013.74C1376.89 1013.92 1377.19 1014.17 1377.43 1014.51C1377.68 1014.84 1377.87 1015.24 1378 1015.7C1378.12 1016.16 1378.19 1016.68 1378.19 1017.24ZM1376.92 1017.38V1017.24C1376.92 1016.87 1376.88 1016.52 1376.81 1016.2C1376.74 1015.87 1376.63 1015.59 1376.48 1015.34C1376.33 1015.09 1376.14 1014.89 1375.89 1014.75C1375.64 1014.61 1375.34 1014.53 1374.98 1014.53C1374.66 1014.53 1374.38 1014.59 1374.15 1014.7C1373.91 1014.81 1373.72 1014.95 1373.55 1015.14C1373.39 1015.32 1373.25 1015.53 1373.15 1015.77C1373.05 1016 1372.97 1016.24 1372.92 1016.5V1018.14C1373 1018.46 1373.11 1018.77 1373.28 1019.07C1373.45 1019.36 1373.67 1019.6 1373.95 1019.78C1374.23 1019.97 1374.58 1020.06 1374.99 1020.06C1375.34 1020.06 1375.63 1020 1375.87 1019.86C1376.12 1019.72 1376.31 1019.52 1376.46 1019.28C1376.62 1019.03 1376.73 1018.75 1376.81 1018.42C1376.88 1018.1 1376.92 1017.75 1376.92 1017.38ZM1384.31 1019.29V1013.6H1385.58V1021H1384.37L1384.31 1019.29ZM1384.55 1017.73L1385.08 1017.72C1385.08 1018.21 1385.02 1018.67 1384.92 1019.09C1384.82 1019.5 1384.66 1019.86 1384.43 1020.17C1384.2 1020.47 1383.9 1020.71 1383.53 1020.88C1383.16 1021.05 1382.71 1021.14 1382.19 1021.14C1381.83 1021.14 1381.5 1021.08 1381.19 1020.98C1380.9 1020.87 1380.64 1020.71 1380.43 1020.49C1380.21 1020.28 1380.05 1019.99 1379.93 1019.64C1379.82 1019.29 1379.76 1018.87 1379.76 1018.38V1013.6H1381.02V1018.39C1381.02 1018.72 1381.06 1019 1381.13 1019.22C1381.21 1019.43 1381.31 1019.6 1381.44 1019.73C1381.57 1019.85 1381.72 1019.94 1381.88 1019.99C1382.04 1020.04 1382.21 1020.06 1382.38 1020.06C1382.92 1020.06 1383.35 1019.96 1383.66 1019.76C1383.98 1019.55 1384.2 1019.27 1384.34 1018.92C1384.48 1018.56 1384.55 1018.17 1384.55 1017.73ZM1391.82 1019.04C1391.82 1018.86 1391.78 1018.69 1391.69 1018.53C1391.62 1018.37 1391.46 1018.23 1391.21 1018.1C1390.97 1017.97 1390.6 1017.86 1390.12 1017.76C1389.71 1017.67 1389.33 1017.57 1389 1017.45C1388.67 1017.33 1388.39 1017.19 1388.16 1017.02C1387.93 1016.85 1387.76 1016.65 1387.63 1016.43C1387.51 1016.2 1387.45 1015.93 1387.45 1015.63C1387.45 1015.34 1387.51 1015.06 1387.64 1014.8C1387.77 1014.54 1387.96 1014.31 1388.19 1014.11C1388.44 1013.91 1388.73 1013.75 1389.06 1013.64C1389.4 1013.52 1389.78 1013.47 1390.19 1013.47C1390.78 1013.47 1391.29 1013.57 1391.71 1013.78C1392.13 1013.99 1392.45 1014.27 1392.67 1014.62C1392.9 1014.97 1393.01 1015.35 1393.01 1015.78H1391.74C1391.74 1015.57 1391.68 1015.37 1391.56 1015.18C1391.44 1014.99 1391.26 1014.82 1391.03 1014.7C1390.8 1014.57 1390.52 1014.51 1390.19 1014.51C1389.84 1014.51 1389.55 1014.56 1389.34 1014.67C1389.12 1014.77 1388.96 1014.91 1388.86 1015.07C1388.77 1015.24 1388.72 1015.41 1388.72 1015.59C1388.72 1015.73 1388.74 1015.85 1388.79 1015.96C1388.84 1016.07 1388.93 1016.16 1389.05 1016.26C1389.17 1016.34 1389.35 1016.42 1389.57 1016.5C1389.79 1016.58 1390.08 1016.66 1390.42 1016.73C1391.03 1016.87 1391.53 1017.04 1391.92 1017.23C1392.31 1017.42 1392.6 1017.65 1392.79 1017.93C1392.99 1018.21 1393.08 1018.55 1393.08 1018.94C1393.08 1019.27 1393.01 1019.56 1392.88 1019.83C1392.74 1020.1 1392.55 1020.33 1392.3 1020.53C1392.05 1020.72 1391.74 1020.87 1391.39 1020.98C1391.05 1021.08 1390.66 1021.14 1390.22 1021.14C1389.57 1021.14 1389.02 1021.02 1388.57 1020.79C1388.12 1020.56 1387.78 1020.25 1387.54 1019.89C1387.31 1019.52 1387.2 1019.13 1387.2 1018.72H1388.47C1388.49 1019.06 1388.59 1019.34 1388.77 1019.54C1388.95 1019.74 1389.17 1019.89 1389.44 1019.97C1389.7 1020.06 1389.96 1020.1 1390.22 1020.1C1390.57 1020.1 1390.86 1020.05 1391.09 1019.96C1391.33 1019.87 1391.51 1019.74 1391.63 1019.58C1391.76 1019.43 1391.82 1019.24 1391.82 1019.04ZM1396.12 1013.6V1021H1394.85V1013.6H1396.12ZM1394.75 1011.64C1394.75 1011.44 1394.81 1011.26 1394.93 1011.12C1395.06 1010.98 1395.25 1010.91 1395.5 1010.91C1395.74 1010.91 1395.92 1010.98 1396.05 1011.12C1396.18 1011.26 1396.25 1011.44 1396.25 1011.64C1396.25 1011.84 1396.18 1012.01 1396.05 1012.15C1395.92 1012.28 1395.74 1012.35 1395.5 1012.35C1395.25 1012.35 1395.06 1012.28 1394.93 1012.15C1394.81 1012.01 1394.75 1011.84 1394.75 1011.64ZM1399.41 1015.18V1021H1398.15V1013.6H1399.34L1399.41 1015.18ZM1399.11 1017.02L1398.58 1017C1398.59 1016.5 1398.66 1016.03 1398.81 1015.6C1398.96 1015.17 1399.16 1014.79 1399.43 1014.47C1399.69 1014.15 1400 1013.91 1400.37 1013.73C1400.74 1013.56 1401.15 1013.47 1401.59 1013.47C1401.96 1013.47 1402.29 1013.52 1402.58 1013.62C1402.87 1013.71 1403.12 1013.87 1403.32 1014.08C1403.53 1014.3 1403.69 1014.57 1403.8 1014.92C1403.91 1015.25 1403.96 1015.67 1403.96 1016.15V1021H1402.69V1016.14C1402.69 1015.75 1402.64 1015.44 1402.52 1015.21C1402.41 1014.97 1402.24 1014.8 1402.02 1014.7C1401.8 1014.59 1401.54 1014.53 1401.22 1014.53C1400.9 1014.53 1400.62 1014.6 1400.36 1014.73C1400.1 1014.86 1399.88 1015.05 1399.69 1015.28C1399.51 1015.51 1399.37 1015.78 1399.26 1016.08C1399.16 1016.37 1399.11 1016.69 1399.11 1017.02ZM1408.96 1021.14C1408.44 1021.14 1407.97 1021.05 1407.55 1020.88C1407.14 1020.7 1406.78 1020.45 1406.48 1020.13C1406.18 1019.81 1405.96 1019.43 1405.8 1019C1405.64 1018.56 1405.56 1018.08 1405.56 1017.56V1017.27C1405.56 1016.67 1405.65 1016.14 1405.82 1015.67C1406 1015.19 1406.24 1014.79 1406.55 1014.46C1406.85 1014.14 1407.2 1013.89 1407.59 1013.72C1407.98 1013.55 1408.38 1013.47 1408.79 1013.47C1409.32 1013.47 1409.78 1013.56 1410.16 1013.74C1410.55 1013.92 1410.86 1014.18 1411.11 1014.51C1411.35 1014.83 1411.54 1015.21 1411.66 1015.65C1411.77 1016.09 1411.83 1016.57 1411.83 1017.09V1017.66H1406.31V1016.62H1410.57V1016.53C1410.55 1016.2 1410.48 1015.88 1410.36 1015.57C1410.25 1015.26 1410.07 1015.01 1409.82 1014.81C1409.57 1014.61 1409.22 1014.51 1408.79 1014.51C1408.5 1014.51 1408.24 1014.57 1408 1014.69C1407.76 1014.81 1407.55 1014.99 1407.38 1015.22C1407.2 1015.46 1407.07 1015.75 1406.97 1016.09C1406.88 1016.43 1406.83 1016.83 1406.83 1017.27V1017.56C1406.83 1017.91 1406.88 1018.24 1406.97 1018.55C1407.07 1018.86 1407.22 1019.13 1407.4 1019.36C1407.59 1019.59 1407.82 1019.77 1408.09 1019.91C1408.37 1020.04 1408.68 1020.1 1409.02 1020.1C1409.47 1020.1 1409.85 1020.01 1410.16 1019.83C1410.47 1019.65 1410.74 1019.4 1410.97 1019.1L1411.74 1019.71C1411.58 1019.95 1411.38 1020.18 1411.13 1020.4C1410.88 1020.62 1410.58 1020.79 1410.22 1020.93C1409.86 1021.07 1409.44 1021.14 1408.96 1021.14ZM1417.62 1019.04C1417.62 1018.86 1417.58 1018.69 1417.49 1018.53C1417.42 1018.37 1417.25 1018.23 1417.01 1018.1C1416.77 1017.97 1416.4 1017.86 1415.91 1017.76C1415.5 1017.67 1415.13 1017.57 1414.8 1017.45C1414.47 1017.33 1414.19 1017.19 1413.96 1017.02C1413.73 1016.85 1413.56 1016.65 1413.43 1016.43C1413.31 1016.2 1413.25 1015.93 1413.25 1015.63C1413.25 1015.34 1413.31 1015.06 1413.44 1014.8C1413.57 1014.54 1413.76 1014.31 1413.99 1014.11C1414.23 1013.91 1414.52 1013.75 1414.86 1013.64C1415.2 1013.52 1415.57 1013.47 1415.99 1013.47C1416.58 1013.47 1417.09 1013.57 1417.51 1013.78C1417.93 1013.99 1418.25 1014.27 1418.47 1014.62C1418.69 1014.97 1418.81 1015.35 1418.81 1015.78H1417.54C1417.54 1015.57 1417.48 1015.37 1417.36 1015.18C1417.24 1014.99 1417.06 1014.82 1416.83 1014.7C1416.6 1014.57 1416.32 1014.51 1415.99 1014.51C1415.64 1014.51 1415.35 1014.56 1415.13 1014.67C1414.92 1014.77 1414.76 1014.91 1414.66 1015.07C1414.57 1015.24 1414.52 1015.41 1414.52 1015.59C1414.52 1015.73 1414.54 1015.85 1414.59 1015.96C1414.64 1016.07 1414.72 1016.16 1414.85 1016.26C1414.97 1016.34 1415.14 1016.42 1415.37 1016.5C1415.59 1016.58 1415.88 1016.66 1416.22 1016.73C1416.83 1016.87 1417.33 1017.04 1417.72 1017.23C1418.11 1017.42 1418.4 1017.65 1418.59 1017.93C1418.79 1018.21 1418.88 1018.55 1418.88 1018.94C1418.88 1019.27 1418.81 1019.56 1418.68 1019.83C1418.54 1020.1 1418.35 1020.33 1418.09 1020.53C1417.84 1020.72 1417.54 1020.87 1417.19 1020.98C1416.85 1021.08 1416.46 1021.14 1416.02 1021.14C1415.37 1021.14 1414.82 1021.02 1414.37 1020.79C1413.92 1020.56 1413.58 1020.25 1413.34 1019.89C1413.11 1019.52 1413 1019.13 1413 1018.72H1414.27C1414.28 1019.06 1414.39 1019.34 1414.57 1019.54C1414.75 1019.74 1414.97 1019.89 1415.24 1019.97C1415.5 1020.06 1415.76 1020.1 1416.02 1020.1C1416.37 1020.1 1416.66 1020.05 1416.89 1019.96C1417.13 1019.87 1417.31 1019.74 1417.43 1019.58C1417.55 1019.43 1417.62 1019.24 1417.62 1019.04ZM1424.85 1019.04C1424.85 1018.86 1424.81 1018.69 1424.73 1018.53C1424.65 1018.37 1424.49 1018.23 1424.24 1018.1C1424 1017.97 1423.63 1017.86 1423.15 1017.76C1422.74 1017.67 1422.36 1017.57 1422.03 1017.45C1421.7 1017.33 1421.42 1017.19 1421.19 1017.02C1420.96 1016.85 1420.79 1016.65 1420.67 1016.43C1420.54 1016.2 1420.48 1015.93 1420.48 1015.63C1420.48 1015.34 1420.54 1015.06 1420.67 1014.8C1420.8 1014.54 1420.99 1014.31 1421.23 1014.11C1421.47 1013.91 1421.76 1013.75 1422.09 1013.64C1422.43 1013.52 1422.81 1013.47 1423.22 1013.47C1423.81 1013.47 1424.32 1013.57 1424.74 1013.78C1425.16 1013.99 1425.48 1014.27 1425.7 1014.62C1425.93 1014.97 1426.04 1015.35 1426.04 1015.78H1424.77C1424.77 1015.57 1424.71 1015.37 1424.59 1015.18C1424.47 1014.99 1424.29 1014.82 1424.06 1014.7C1423.83 1014.57 1423.55 1014.51 1423.22 1014.51C1422.87 1014.51 1422.59 1014.56 1422.37 1014.67C1422.15 1014.77 1422 1014.91 1421.9 1015.07C1421.8 1015.24 1421.75 1015.41 1421.75 1015.59C1421.75 1015.73 1421.77 1015.85 1421.82 1015.96C1421.87 1016.07 1421.96 1016.16 1422.08 1016.26C1422.2 1016.34 1422.38 1016.42 1422.6 1016.5C1422.82 1016.58 1423.11 1016.66 1423.45 1016.73C1424.06 1016.87 1424.56 1017.04 1424.95 1017.23C1425.34 1017.42 1425.63 1017.65 1425.83 1017.93C1426.02 1018.21 1426.11 1018.55 1426.11 1018.94C1426.11 1019.27 1426.04 1019.56 1425.91 1019.83C1425.78 1020.1 1425.58 1020.33 1425.33 1020.53C1425.08 1020.72 1424.78 1020.87 1424.42 1020.98C1424.08 1021.08 1423.69 1021.14 1423.26 1021.14C1422.6 1021.14 1422.05 1021.02 1421.6 1020.79C1421.15 1020.56 1420.81 1020.25 1420.58 1019.89C1420.34 1019.52 1420.23 1019.13 1420.23 1018.72H1421.5C1421.52 1019.06 1421.62 1019.34 1421.8 1019.54C1421.98 1019.74 1422.21 1019.89 1422.47 1019.97C1422.73 1020.06 1423 1020.1 1423.26 1020.1C1423.6 1020.1 1423.89 1020.05 1424.12 1019.96C1424.36 1019.87 1424.54 1019.74 1424.66 1019.58C1424.79 1019.43 1424.85 1019.24 1424.85 1019.04ZM1430.91 1017.38V1017.23C1430.91 1016.69 1430.99 1016.2 1431.14 1015.74C1431.3 1015.28 1431.52 1014.88 1431.81 1014.55C1432.11 1014.21 1432.46 1013.94 1432.87 1013.75C1433.29 1013.56 1433.75 1013.47 1434.27 1013.47C1434.79 1013.47 1435.26 1013.56 1435.67 1013.75C1436.09 1013.94 1436.44 1014.21 1436.74 1014.55C1437.03 1014.88 1437.26 1015.28 1437.41 1015.74C1437.57 1016.2 1437.65 1016.69 1437.65 1017.23V1017.38C1437.65 1017.92 1437.57 1018.41 1437.41 1018.87C1437.26 1019.32 1437.03 1019.72 1436.74 1020.06C1436.44 1020.4 1436.09 1020.67 1435.68 1020.86C1435.27 1021.04 1434.8 1021.14 1434.28 1021.14C1433.76 1021.14 1433.3 1021.04 1432.88 1020.86C1432.47 1020.67 1432.11 1020.4 1431.81 1020.06C1431.52 1019.72 1431.3 1019.32 1431.14 1018.87C1430.99 1018.41 1430.91 1017.92 1430.91 1017.38ZM1432.18 1017.23V1017.38C1432.18 1017.75 1432.22 1018.1 1432.31 1018.43C1432.39 1018.75 1432.52 1019.04 1432.7 1019.29C1432.87 1019.54 1433.1 1019.74 1433.36 1019.89C1433.62 1020.03 1433.93 1020.1 1434.28 1020.1C1434.63 1020.1 1434.93 1020.03 1435.19 1019.89C1435.46 1019.74 1435.67 1019.54 1435.85 1019.29C1436.02 1019.04 1436.15 1018.75 1436.24 1018.43C1436.33 1018.1 1436.37 1017.75 1436.37 1017.38V1017.23C1436.37 1016.86 1436.33 1016.52 1436.24 1016.19C1436.15 1015.87 1436.02 1015.58 1435.84 1015.33C1435.67 1015.07 1435.45 1014.87 1435.18 1014.72C1434.92 1014.58 1434.62 1014.51 1434.27 1014.51C1433.92 1014.51 1433.62 1014.58 1433.35 1014.72C1433.09 1014.87 1432.87 1015.07 1432.7 1015.33C1432.52 1015.58 1432.39 1015.87 1432.31 1016.19C1432.22 1016.52 1432.18 1016.86 1432.18 1017.23ZM1439.22 1010.5H1440.5V1019.56L1440.39 1021H1439.22V1010.5ZM1445.49 1017.24V1017.38C1445.49 1017.92 1445.43 1018.42 1445.3 1018.88C1445.17 1019.34 1444.99 1019.73 1444.74 1020.07C1444.5 1020.41 1444.19 1020.67 1443.84 1020.86C1443.48 1021.04 1443.08 1021.14 1442.62 1021.14C1442.15 1021.14 1441.73 1021.06 1441.38 1020.9C1441.03 1020.73 1440.73 1020.5 1440.49 1020.19C1440.25 1019.89 1440.05 1019.52 1439.91 1019.09C1439.77 1018.65 1439.67 1018.17 1439.61 1017.62V1016.99C1439.67 1016.45 1439.77 1015.96 1439.91 1015.52C1440.05 1015.09 1440.25 1014.72 1440.49 1014.42C1440.73 1014.11 1441.03 1013.87 1441.38 1013.71C1441.73 1013.55 1442.14 1013.47 1442.6 1013.47C1443.07 1013.47 1443.48 1013.56 1443.84 1013.74C1444.2 1013.92 1444.5 1014.17 1444.74 1014.51C1444.99 1014.84 1445.17 1015.24 1445.3 1015.7C1445.43 1016.16 1445.49 1016.68 1445.49 1017.24ZM1444.22 1017.38V1017.24C1444.22 1016.87 1444.19 1016.52 1444.12 1016.2C1444.05 1015.87 1443.94 1015.59 1443.79 1015.34C1443.64 1015.09 1443.44 1014.89 1443.2 1014.75C1442.95 1014.61 1442.65 1014.53 1442.29 1014.53C1441.97 1014.53 1441.69 1014.59 1441.45 1014.7C1441.22 1014.81 1441.02 1014.95 1440.86 1015.14C1440.69 1015.32 1440.56 1015.53 1440.46 1015.77C1440.35 1016 1440.28 1016.24 1440.23 1016.5V1018.14C1440.3 1018.46 1440.42 1018.77 1440.58 1019.07C1440.75 1019.36 1440.98 1019.6 1441.25 1019.78C1441.54 1019.97 1441.89 1020.06 1442.3 1020.06C1442.64 1020.06 1442.93 1020 1443.18 1019.86C1443.42 1019.72 1443.62 1019.52 1443.77 1019.28C1443.93 1019.03 1444.04 1018.75 1444.11 1018.42C1444.19 1018.1 1444.22 1017.75 1444.22 1017.38ZM1447.13 1013.6H1448.4V1021.88C1448.4 1022.33 1448.33 1022.72 1448.18 1023.03C1448.04 1023.34 1447.82 1023.58 1447.54 1023.74C1447.25 1023.91 1446.9 1023.99 1446.46 1023.99C1446.35 1023.99 1446.22 1023.98 1446.07 1023.95C1445.91 1023.93 1445.78 1023.9 1445.68 1023.87L1445.68 1022.85C1445.77 1022.87 1445.87 1022.88 1445.98 1022.89C1446.09 1022.91 1446.18 1022.91 1446.27 1022.91C1446.45 1022.91 1446.61 1022.88 1446.74 1022.81C1446.86 1022.74 1446.96 1022.63 1447.02 1022.48C1447.09 1022.33 1447.13 1022.13 1447.13 1021.88V1013.6ZM1447 1011.64C1447 1011.44 1447.06 1011.26 1447.19 1011.12C1447.32 1010.98 1447.5 1010.91 1447.74 1010.91C1447.99 1010.91 1448.18 1010.98 1448.3 1011.12C1448.43 1011.26 1448.49 1011.44 1448.49 1011.64C1448.49 1011.84 1448.43 1012.01 1448.3 1012.15C1448.18 1012.28 1447.99 1012.35 1447.74 1012.35C1447.5 1012.35 1447.32 1012.28 1447.19 1012.15C1447.06 1012.01 1447 1011.84 1447 1011.64ZM1453.51 1021.14C1453 1021.14 1452.53 1021.05 1452.11 1020.88C1451.7 1020.7 1451.34 1020.45 1451.04 1020.13C1450.74 1019.81 1450.51 1019.43 1450.35 1019C1450.19 1018.56 1450.11 1018.08 1450.11 1017.56V1017.27C1450.11 1016.67 1450.2 1016.14 1450.38 1015.67C1450.56 1015.19 1450.8 1014.79 1451.11 1014.46C1451.41 1014.14 1451.76 1013.89 1452.14 1013.72C1452.53 1013.55 1452.93 1013.47 1453.35 1013.47C1453.88 1013.47 1454.33 1013.56 1454.71 1013.74C1455.1 1013.92 1455.42 1014.18 1455.67 1014.51C1455.91 1014.83 1456.09 1015.21 1456.21 1015.65C1456.33 1016.09 1456.39 1016.57 1456.39 1017.09V1017.66H1450.87V1016.62H1455.12V1016.53C1455.11 1016.2 1455.04 1015.88 1454.92 1015.57C1454.81 1015.26 1454.62 1015.01 1454.37 1014.81C1454.12 1014.61 1453.78 1014.51 1453.35 1014.51C1453.06 1014.51 1452.8 1014.57 1452.55 1014.69C1452.31 1014.81 1452.11 1014.99 1451.93 1015.22C1451.76 1015.46 1451.62 1015.75 1451.53 1016.09C1451.43 1016.43 1451.39 1016.83 1451.39 1017.27V1017.56C1451.39 1017.91 1451.43 1018.24 1451.53 1018.55C1451.63 1018.86 1451.77 1019.13 1451.96 1019.36C1452.15 1019.59 1452.38 1019.77 1452.65 1019.91C1452.92 1020.04 1453.23 1020.1 1453.58 1020.1C1454.03 1020.1 1454.4 1020.01 1454.71 1019.83C1455.02 1019.65 1455.3 1019.4 1455.53 1019.1L1456.29 1019.71C1456.13 1019.95 1455.93 1020.18 1455.69 1020.4C1455.44 1020.62 1455.14 1020.79 1454.78 1020.93C1454.42 1021.07 1454 1021.14 1453.51 1021.14ZM1460.83 1020.1C1461.13 1020.1 1461.4 1020.04 1461.66 1019.91C1461.92 1019.79 1462.12 1019.62 1462.29 1019.41C1462.45 1019.19 1462.55 1018.94 1462.57 1018.66H1463.77C1463.75 1019.1 1463.6 1019.51 1463.33 1019.89C1463.06 1020.26 1462.71 1020.56 1462.27 1020.79C1461.83 1021.02 1461.35 1021.14 1460.83 1021.14C1460.27 1021.14 1459.78 1021.04 1459.37 1020.84C1458.96 1020.65 1458.62 1020.38 1458.34 1020.04C1458.08 1019.69 1457.87 1019.3 1457.74 1018.86C1457.6 1018.41 1457.54 1017.94 1457.54 1017.45V1017.16C1457.54 1016.66 1457.6 1016.19 1457.74 1015.75C1457.87 1015.3 1458.08 1014.91 1458.34 1014.57C1458.62 1014.23 1458.96 1013.96 1459.37 1013.76C1459.78 1013.56 1460.27 1013.47 1460.83 1013.47C1461.4 1013.47 1461.91 1013.59 1462.34 1013.82C1462.78 1014.05 1463.12 1014.37 1463.36 1014.78C1463.61 1015.18 1463.75 1015.64 1463.77 1016.15H1462.57C1462.55 1015.84 1462.46 1015.57 1462.31 1015.32C1462.16 1015.07 1461.96 1014.88 1461.71 1014.73C1461.46 1014.58 1461.16 1014.51 1460.83 1014.51C1460.44 1014.51 1460.11 1014.58 1459.85 1014.74C1459.59 1014.89 1459.38 1015.09 1459.23 1015.35C1459.08 1015.61 1458.97 1015.89 1458.9 1016.21C1458.83 1016.52 1458.8 1016.83 1458.8 1017.16V1017.45C1458.8 1017.77 1458.83 1018.09 1458.9 1018.4C1458.96 1018.72 1459.07 1019 1459.22 1019.26C1459.37 1019.51 1459.58 1019.72 1459.84 1019.87C1460.11 1020.02 1460.43 1020.1 1460.83 1020.1ZM1468.29 1013.6V1014.57H1464.29V1013.6H1468.29ZM1465.65 1011.81H1466.91V1019.17C1466.91 1019.42 1466.95 1019.61 1467.03 1019.74C1467.1 1019.86 1467.2 1019.95 1467.33 1019.99C1467.45 1020.03 1467.58 1020.05 1467.72 1020.05C1467.83 1020.05 1467.94 1020.04 1468.05 1020.02C1468.17 1020 1468.26 1019.98 1468.32 1019.97L1468.33 1021C1468.22 1021.03 1468.09 1021.06 1467.93 1021.09C1467.77 1021.12 1467.58 1021.14 1467.35 1021.14C1467.04 1021.14 1466.75 1021.08 1466.49 1020.95C1466.23 1020.83 1466.03 1020.62 1465.87 1020.34C1465.72 1020.05 1465.65 1019.65 1465.65 1019.16V1011.81ZM1475.12 1019.69L1477.02 1013.6H1477.85L1477.69 1014.81L1475.76 1021H1474.94L1475.12 1019.69ZM1473.84 1013.6L1475.46 1019.76L1475.58 1021H1474.72L1472.58 1013.6H1473.84ZM1479.67 1019.71L1481.22 1013.6H1482.48L1480.33 1021H1479.48L1479.67 1019.71ZM1478.04 1013.6L1479.9 1019.58L1480.11 1021H1479.3L1477.31 1014.8L1477.15 1013.6H1478.04ZM1488.14 1019.74V1015.93C1488.14 1015.64 1488.08 1015.38 1487.96 1015.17C1487.84 1014.95 1487.67 1014.78 1487.44 1014.66C1487.21 1014.54 1486.92 1014.49 1486.58 1014.49C1486.26 1014.49 1485.98 1014.54 1485.74 1014.65C1485.5 1014.76 1485.31 1014.9 1485.18 1015.08C1485.04 1015.26 1484.98 1015.45 1484.98 1015.65H1483.71C1483.71 1015.39 1483.78 1015.13 1483.92 1014.87C1484.05 1014.61 1484.25 1014.37 1484.51 1014.16C1484.77 1013.95 1485.08 1013.78 1485.44 1013.66C1485.8 1013.53 1486.21 1013.47 1486.65 1013.47C1487.19 1013.47 1487.66 1013.56 1488.07 1013.74C1488.49 1013.92 1488.81 1014.2 1489.04 1014.57C1489.28 1014.93 1489.4 1015.39 1489.4 1015.94V1019.39C1489.4 1019.63 1489.42 1019.89 1489.46 1020.17C1489.51 1020.45 1489.57 1020.69 1489.66 1020.89V1021H1488.34C1488.28 1020.85 1488.23 1020.66 1488.19 1020.42C1488.15 1020.17 1488.14 1019.94 1488.14 1019.74ZM1488.35 1016.52L1488.37 1017.4H1487.09C1486.73 1017.4 1486.41 1017.43 1486.13 1017.49C1485.84 1017.55 1485.61 1017.63 1485.42 1017.75C1485.22 1017.86 1485.08 1018 1484.98 1018.18C1484.88 1018.35 1484.83 1018.54 1484.83 1018.77C1484.83 1019 1484.88 1019.22 1484.98 1019.41C1485.09 1019.6 1485.25 1019.75 1485.46 1019.87C1485.67 1019.97 1485.93 1020.03 1486.24 1020.03C1486.63 1020.03 1486.97 1019.95 1487.27 1019.78C1487.56 1019.62 1487.8 1019.42 1487.97 1019.18C1488.15 1018.94 1488.25 1018.71 1488.26 1018.49L1488.8 1019.1C1488.77 1019.29 1488.68 1019.5 1488.54 1019.74C1488.4 1019.97 1488.21 1020.19 1487.97 1020.41C1487.74 1020.61 1487.46 1020.79 1487.14 1020.93C1486.82 1021.07 1486.46 1021.14 1486.06 1021.14C1485.56 1021.14 1485.12 1021.04 1484.74 1020.84C1484.36 1020.65 1484.07 1020.38 1483.86 1020.06C1483.66 1019.72 1483.56 1019.35 1483.56 1018.94C1483.56 1018.55 1483.63 1018.2 1483.79 1017.9C1483.94 1017.59 1484.17 1017.34 1484.46 1017.14C1484.75 1016.93 1485.1 1016.78 1485.51 1016.67C1485.92 1016.57 1486.38 1016.52 1486.88 1016.52H1488.35ZM1495.7 1019.04C1495.7 1018.86 1495.66 1018.69 1495.57 1018.53C1495.5 1018.37 1495.33 1018.23 1495.09 1018.1C1494.85 1017.97 1494.48 1017.86 1493.99 1017.76C1493.58 1017.67 1493.21 1017.57 1492.88 1017.45C1492.55 1017.33 1492.27 1017.19 1492.04 1017.02C1491.81 1016.85 1491.64 1016.65 1491.51 1016.43C1491.39 1016.2 1491.33 1015.93 1491.33 1015.63C1491.33 1015.34 1491.39 1015.06 1491.52 1014.8C1491.65 1014.54 1491.84 1014.31 1492.07 1014.11C1492.31 1013.91 1492.6 1013.75 1492.94 1013.64C1493.28 1013.52 1493.65 1013.47 1494.07 1013.47C1494.66 1013.47 1495.17 1013.57 1495.59 1013.78C1496.01 1013.99 1496.33 1014.27 1496.55 1014.62C1496.77 1014.97 1496.89 1015.35 1496.89 1015.78H1495.62C1495.62 1015.57 1495.56 1015.37 1495.44 1015.18C1495.32 1014.99 1495.14 1014.82 1494.91 1014.7C1494.68 1014.57 1494.4 1014.51 1494.07 1014.51C1493.72 1014.51 1493.43 1014.56 1493.21 1014.67C1493 1014.77 1492.84 1014.91 1492.74 1015.07C1492.65 1015.24 1492.6 1015.41 1492.6 1015.59C1492.6 1015.73 1492.62 1015.85 1492.67 1015.96C1492.72 1016.07 1492.8 1016.16 1492.93 1016.26C1493.05 1016.34 1493.22 1016.42 1493.45 1016.5C1493.67 1016.58 1493.96 1016.66 1494.3 1016.73C1494.91 1016.87 1495.41 1017.04 1495.8 1017.23C1496.19 1017.42 1496.48 1017.65 1496.67 1017.93C1496.87 1018.21 1496.96 1018.55 1496.96 1018.94C1496.96 1019.27 1496.89 1019.56 1496.76 1019.83C1496.62 1020.1 1496.43 1020.33 1496.17 1020.53C1495.92 1020.72 1495.62 1020.87 1495.27 1020.98C1494.93 1021.08 1494.54 1021.14 1494.1 1021.14C1493.45 1021.14 1492.9 1021.02 1492.45 1020.79C1492 1020.56 1491.66 1020.25 1491.42 1019.89C1491.19 1019.52 1491.08 1019.13 1491.08 1018.72H1492.35C1492.36 1019.06 1492.47 1019.34 1492.65 1019.54C1492.83 1019.74 1493.05 1019.89 1493.32 1019.97C1493.58 1020.06 1493.84 1020.1 1494.1 1020.1C1494.45 1020.1 1494.74 1020.05 1494.97 1019.96C1495.21 1019.87 1495.39 1019.74 1495.51 1019.58C1495.63 1019.43 1495.7 1019.24 1495.7 1019.04ZM1505.05 1020.1C1505.36 1020.1 1505.63 1020.04 1505.89 1019.91C1506.14 1019.79 1506.35 1019.62 1506.52 1019.41C1506.68 1019.19 1506.78 1018.94 1506.8 1018.66H1508C1507.98 1019.1 1507.83 1019.51 1507.56 1019.89C1507.29 1020.26 1506.93 1020.56 1506.5 1020.79C1506.06 1021.02 1505.58 1021.14 1505.05 1021.14C1504.5 1021.14 1504.01 1021.04 1503.6 1020.84C1503.19 1020.65 1502.85 1020.38 1502.57 1020.04C1502.3 1019.69 1502.1 1019.3 1501.96 1018.86C1501.83 1018.41 1501.77 1017.94 1501.77 1017.45V1017.16C1501.77 1016.66 1501.83 1016.19 1501.96 1015.75C1502.1 1015.3 1502.3 1014.91 1502.57 1014.57C1502.85 1014.23 1503.19 1013.96 1503.6 1013.76C1504.01 1013.56 1504.5 1013.47 1505.05 1013.47C1505.63 1013.47 1506.14 1013.59 1506.57 1013.82C1507.01 1014.05 1507.34 1014.37 1507.59 1014.78C1507.84 1015.18 1507.98 1015.64 1508 1016.15H1506.8C1506.78 1015.84 1506.69 1015.57 1506.54 1015.32C1506.39 1015.07 1506.19 1014.88 1505.94 1014.73C1505.69 1014.58 1505.39 1014.51 1505.05 1014.51C1504.67 1014.51 1504.34 1014.58 1504.08 1014.74C1503.82 1014.89 1503.61 1015.09 1503.46 1015.35C1503.3 1015.61 1503.2 1015.89 1503.13 1016.21C1503.06 1016.52 1503.03 1016.83 1503.03 1017.16V1017.45C1503.03 1017.77 1503.06 1018.09 1503.13 1018.4C1503.19 1018.72 1503.3 1019 1503.45 1019.26C1503.6 1019.51 1503.81 1019.72 1504.07 1019.87C1504.33 1020.02 1504.66 1020.1 1505.05 1020.1ZM1510.69 1014.77V1021H1509.42V1013.6H1510.65L1510.69 1014.77ZM1513 1013.56L1512.99 1014.74C1512.89 1014.72 1512.79 1014.7 1512.69 1014.7C1512.6 1014.69 1512.49 1014.68 1512.38 1014.68C1512.08 1014.68 1511.83 1014.73 1511.6 1014.82C1511.38 1014.91 1511.19 1015.04 1511.04 1015.2C1510.88 1015.37 1510.76 1015.56 1510.67 1015.79C1510.58 1016.01 1510.52 1016.26 1510.5 1016.53L1510.14 1016.73C1510.14 1016.29 1510.18 1015.87 1510.27 1015.48C1510.36 1015.08 1510.5 1014.74 1510.69 1014.44C1510.87 1014.13 1511.11 1013.9 1511.4 1013.73C1511.69 1013.55 1512.04 1013.47 1512.44 1013.47C1512.53 1013.47 1512.63 1013.48 1512.75 1013.5C1512.87 1013.52 1512.95 1013.54 1513 1013.56ZM1517.1 1021.14C1516.58 1021.14 1516.12 1021.05 1515.7 1020.88C1515.28 1020.7 1514.93 1020.45 1514.62 1020.13C1514.33 1019.81 1514.1 1019.43 1513.94 1019C1513.78 1018.56 1513.7 1018.08 1513.7 1017.56V1017.27C1513.7 1016.67 1513.79 1016.14 1513.97 1015.67C1514.15 1015.19 1514.39 1014.79 1514.69 1014.46C1515 1014.14 1515.35 1013.89 1515.73 1013.72C1516.12 1013.55 1516.52 1013.47 1516.94 1013.47C1517.46 1013.47 1517.92 1013.56 1518.3 1013.74C1518.69 1013.92 1519.01 1014.18 1519.25 1014.51C1519.5 1014.83 1519.68 1015.21 1519.8 1015.65C1519.92 1016.09 1519.98 1016.57 1519.98 1017.09V1017.66H1514.45V1016.62H1518.71V1016.53C1518.69 1016.2 1518.63 1015.88 1518.51 1015.57C1518.39 1015.26 1518.21 1015.01 1517.96 1014.81C1517.71 1014.61 1517.37 1014.51 1516.94 1014.51C1516.65 1014.51 1516.38 1014.57 1516.14 1014.69C1515.9 1014.81 1515.69 1014.99 1515.52 1015.22C1515.35 1015.46 1515.21 1015.75 1515.12 1016.09C1515.02 1016.43 1514.97 1016.83 1514.97 1017.27V1017.56C1514.97 1017.91 1515.02 1018.24 1515.12 1018.55C1515.22 1018.86 1515.36 1019.13 1515.55 1019.36C1515.74 1019.59 1515.97 1019.77 1516.24 1019.91C1516.51 1020.04 1516.82 1020.1 1517.17 1020.1C1517.61 1020.1 1517.99 1020.01 1518.3 1019.83C1518.61 1019.65 1518.88 1019.4 1519.12 1019.1L1519.88 1019.71C1519.72 1019.95 1519.52 1020.18 1519.27 1020.4C1519.03 1020.62 1518.72 1020.79 1518.36 1020.93C1518.01 1021.07 1517.59 1021.14 1517.1 1021.14ZM1525.82 1019.74V1015.93C1525.82 1015.64 1525.76 1015.38 1525.64 1015.17C1525.52 1014.95 1525.35 1014.78 1525.12 1014.66C1524.89 1014.54 1524.6 1014.49 1524.26 1014.49C1523.94 1014.49 1523.66 1014.54 1523.42 1014.65C1523.18 1014.76 1522.99 1014.9 1522.86 1015.08C1522.72 1015.26 1522.66 1015.45 1522.66 1015.65H1521.39C1521.39 1015.39 1521.46 1015.13 1521.6 1014.87C1521.73 1014.61 1521.93 1014.37 1522.19 1014.16C1522.45 1013.95 1522.76 1013.78 1523.12 1013.66C1523.48 1013.53 1523.89 1013.47 1524.33 1013.47C1524.87 1013.47 1525.34 1013.56 1525.75 1013.74C1526.17 1013.92 1526.49 1014.2 1526.72 1014.57C1526.96 1014.93 1527.08 1015.39 1527.08 1015.94V1019.39C1527.08 1019.63 1527.1 1019.89 1527.14 1020.17C1527.19 1020.45 1527.25 1020.69 1527.34 1020.89V1021H1526.02C1525.96 1020.85 1525.91 1020.66 1525.87 1020.42C1525.83 1020.17 1525.82 1019.94 1525.82 1019.74ZM1526.03 1016.52L1526.05 1017.4H1524.77C1524.41 1017.4 1524.09 1017.43 1523.81 1017.49C1523.52 1017.55 1523.29 1017.63 1523.09 1017.75C1522.9 1017.86 1522.76 1018 1522.66 1018.18C1522.56 1018.35 1522.51 1018.54 1522.51 1018.77C1522.51 1019 1522.56 1019.22 1522.66 1019.41C1522.77 1019.6 1522.93 1019.75 1523.14 1019.87C1523.35 1019.97 1523.61 1020.03 1523.92 1020.03C1524.31 1020.03 1524.65 1019.95 1524.95 1019.78C1525.24 1019.62 1525.48 1019.42 1525.65 1019.18C1525.83 1018.94 1525.92 1018.71 1525.94 1018.49L1526.48 1019.1C1526.45 1019.29 1526.36 1019.5 1526.22 1019.74C1526.08 1019.97 1525.89 1020.19 1525.65 1020.41C1525.42 1020.61 1525.14 1020.79 1524.82 1020.93C1524.5 1021.07 1524.14 1021.14 1523.74 1021.14C1523.24 1021.14 1522.8 1021.04 1522.42 1020.84C1522.04 1020.65 1521.75 1020.38 1521.54 1020.06C1521.34 1019.72 1521.24 1019.35 1521.24 1018.94C1521.24 1018.55 1521.31 1018.2 1521.47 1017.9C1521.62 1017.59 1521.85 1017.34 1522.14 1017.14C1522.43 1016.93 1522.78 1016.78 1523.19 1016.67C1523.6 1016.57 1524.06 1016.52 1524.56 1016.52H1526.03ZM1532.17 1013.6V1014.57H1528.17V1013.6H1532.17ZM1529.52 1011.81H1530.79V1019.17C1530.79 1019.42 1530.82 1019.61 1530.9 1019.74C1530.98 1019.86 1531.08 1019.95 1531.2 1019.99C1531.33 1020.03 1531.46 1020.05 1531.6 1020.05C1531.7 1020.05 1531.81 1020.04 1531.93 1020.02C1532.05 1020 1532.13 1019.98 1532.19 1019.97L1532.2 1021C1532.1 1021.03 1531.97 1021.06 1531.8 1021.09C1531.64 1021.12 1531.45 1021.14 1531.22 1021.14C1530.91 1021.14 1530.63 1021.08 1530.37 1020.95C1530.11 1020.83 1529.9 1020.62 1529.75 1020.34C1529.6 1020.05 1529.52 1019.65 1529.52 1019.16V1011.81ZM1536.72 1021.14C1536.2 1021.14 1535.74 1021.05 1535.32 1020.88C1534.9 1020.7 1534.54 1020.45 1534.24 1020.13C1533.95 1019.81 1533.72 1019.43 1533.56 1019C1533.4 1018.56 1533.32 1018.08 1533.32 1017.56V1017.27C1533.32 1016.67 1533.41 1016.14 1533.59 1015.67C1533.77 1015.19 1534.01 1014.79 1534.31 1014.46C1534.62 1014.14 1534.96 1013.89 1535.35 1013.72C1535.74 1013.55 1536.14 1013.47 1536.55 1013.47C1537.08 1013.47 1537.54 1013.56 1537.92 1013.74C1538.31 1013.92 1538.63 1014.18 1538.87 1014.51C1539.12 1014.83 1539.3 1015.21 1539.42 1015.65C1539.54 1016.09 1539.6 1016.57 1539.6 1017.09V1017.66H1534.07V1016.62H1538.33V1016.53C1538.31 1016.2 1538.25 1015.88 1538.13 1015.57C1538.01 1015.26 1537.83 1015.01 1537.58 1014.81C1537.33 1014.61 1536.99 1014.51 1536.55 1014.51C1536.27 1014.51 1536 1014.57 1535.76 1014.69C1535.52 1014.81 1535.31 1014.99 1535.14 1015.22C1534.97 1015.46 1534.83 1015.75 1534.74 1016.09C1534.64 1016.43 1534.59 1016.83 1534.59 1017.27V1017.56C1534.59 1017.91 1534.64 1018.24 1534.74 1018.55C1534.84 1018.86 1534.98 1019.13 1535.17 1019.36C1535.36 1019.59 1535.59 1019.77 1535.86 1019.91C1536.13 1020.04 1536.44 1020.1 1536.79 1020.1C1537.23 1020.1 1537.61 1020.01 1537.92 1019.83C1538.23 1019.65 1538.5 1019.4 1538.74 1019.1L1539.5 1019.71C1539.34 1019.95 1539.14 1020.18 1538.89 1020.4C1538.65 1020.62 1538.34 1020.79 1537.98 1020.93C1537.63 1021.07 1537.21 1021.14 1536.72 1021.14ZM1545.74 1019.56V1010.5H1547.01V1021H1545.84L1545.74 1019.56ZM1540.76 1017.38V1017.24C1540.76 1016.68 1540.83 1016.16 1540.96 1015.7C1541.11 1015.24 1541.3 1014.84 1541.56 1014.51C1541.82 1014.17 1542.13 1013.92 1542.48 1013.74C1542.84 1013.56 1543.24 1013.47 1543.68 1013.47C1544.15 1013.47 1544.56 1013.55 1544.9 1013.71C1545.25 1013.87 1545.55 1014.11 1545.79 1014.42C1546.04 1014.72 1546.23 1015.09 1546.37 1015.52C1546.51 1015.96 1546.61 1016.45 1546.67 1016.99V1017.62C1546.61 1018.17 1546.52 1018.65 1546.37 1019.09C1546.23 1019.52 1546.04 1019.89 1545.79 1020.19C1545.55 1020.5 1545.25 1020.73 1544.9 1020.9C1544.55 1021.06 1544.14 1021.14 1543.67 1021.14C1543.24 1021.14 1542.84 1021.04 1542.48 1020.86C1542.13 1020.67 1541.82 1020.41 1541.56 1020.07C1541.3 1019.73 1541.11 1019.34 1540.96 1018.88C1540.83 1018.42 1540.76 1017.92 1540.76 1017.38ZM1542.03 1017.24V1017.38C1542.03 1017.75 1542.07 1018.1 1542.14 1018.42C1542.22 1018.75 1542.34 1019.03 1542.5 1019.28C1542.65 1019.52 1542.86 1019.72 1543.1 1019.86C1543.35 1020 1543.64 1020.06 1543.99 1020.06C1544.4 1020.06 1544.75 1019.97 1545.02 1019.8C1545.29 1019.62 1545.51 1019.38 1545.67 1019.09C1545.84 1018.8 1545.97 1018.48 1546.06 1018.14V1016.5C1546 1016.24 1545.92 1016 1545.82 1015.77C1545.72 1015.53 1545.58 1015.32 1545.42 1015.14C1545.26 1014.95 1545.06 1014.81 1544.83 1014.7C1544.59 1014.59 1544.32 1014.53 1544 1014.53C1543.65 1014.53 1543.35 1014.61 1543.1 1014.75C1542.86 1014.89 1542.65 1015.09 1542.5 1015.34C1542.34 1015.59 1542.22 1015.87 1542.14 1016.2C1542.07 1016.52 1542.03 1016.87 1542.03 1017.24ZM1349.27 1035.04C1349.27 1034.86 1349.23 1034.69 1349.15 1034.53C1349.07 1034.37 1348.91 1034.23 1348.66 1034.1C1348.42 1033.97 1348.06 1033.86 1347.57 1033.76C1347.16 1033.67 1346.79 1033.57 1346.45 1033.45C1346.13 1033.33 1345.85 1033.19 1345.61 1033.02C1345.39 1032.85 1345.21 1032.65 1345.09 1032.43C1344.96 1032.2 1344.9 1031.93 1344.9 1031.63C1344.9 1031.34 1344.97 1031.06 1345.09 1030.8C1345.23 1030.54 1345.41 1030.31 1345.65 1030.11C1345.89 1029.91 1346.18 1029.75 1346.52 1029.64C1346.85 1029.52 1347.23 1029.47 1347.64 1029.47C1348.24 1029.47 1348.74 1029.57 1349.16 1029.78C1349.58 1029.99 1349.9 1030.27 1350.12 1030.62C1350.35 1030.97 1350.46 1031.35 1350.46 1031.78H1349.2C1349.2 1031.57 1349.13 1031.37 1349.01 1031.18C1348.89 1030.99 1348.72 1030.82 1348.48 1030.7C1348.26 1030.57 1347.98 1030.51 1347.64 1030.51C1347.29 1030.51 1347.01 1030.56 1346.79 1030.67C1346.57 1030.77 1346.42 1030.91 1346.32 1031.07C1346.22 1031.24 1346.17 1031.41 1346.17 1031.59C1346.17 1031.73 1346.2 1031.85 1346.24 1031.96C1346.29 1032.07 1346.38 1032.16 1346.5 1032.26C1346.62 1032.34 1346.8 1032.42 1347.02 1032.5C1347.24 1032.58 1347.53 1032.66 1347.88 1032.73C1348.48 1032.87 1348.98 1033.04 1349.37 1033.23C1349.76 1033.42 1350.06 1033.65 1350.25 1033.93C1350.44 1034.21 1350.54 1034.55 1350.54 1034.94C1350.54 1035.27 1350.47 1035.56 1350.33 1035.83C1350.2 1036.1 1350 1036.33 1349.75 1036.53C1349.5 1036.72 1349.2 1036.87 1348.85 1036.98C1348.5 1037.08 1348.11 1037.14 1347.68 1037.14C1347.03 1037.14 1346.47 1037.02 1346.02 1036.79C1345.57 1036.56 1345.23 1036.25 1345 1035.89C1344.77 1035.52 1344.65 1035.13 1344.65 1034.72H1345.92C1345.94 1035.06 1346.04 1035.34 1346.22 1035.54C1346.4 1035.74 1346.63 1035.89 1346.89 1035.97C1347.16 1036.06 1347.42 1036.1 1347.68 1036.1C1348.02 1036.1 1348.31 1036.05 1348.55 1035.96C1348.78 1035.87 1348.96 1035.74 1349.09 1035.58C1349.21 1035.43 1349.27 1035.24 1349.27 1035.04ZM1356.72 1035.29V1029.6H1357.99V1037H1356.78L1356.72 1035.29ZM1356.96 1033.73L1357.49 1033.72C1357.49 1034.21 1357.43 1034.67 1357.33 1035.09C1357.23 1035.5 1357.07 1035.86 1356.84 1036.17C1356.61 1036.47 1356.31 1036.71 1355.94 1036.88C1355.57 1037.05 1355.12 1037.14 1354.6 1037.14C1354.24 1037.14 1353.91 1037.08 1353.6 1036.98C1353.31 1036.87 1353.05 1036.71 1352.84 1036.49C1352.62 1036.28 1352.46 1035.99 1352.34 1035.64C1352.23 1035.29 1352.17 1034.87 1352.17 1034.38V1029.6H1353.43V1034.39C1353.43 1034.72 1353.47 1035 1353.54 1035.22C1353.62 1035.43 1353.72 1035.6 1353.85 1035.73C1353.98 1035.85 1354.13 1035.94 1354.29 1035.99C1354.45 1036.04 1354.62 1036.06 1354.79 1036.06C1355.33 1036.06 1355.76 1035.96 1356.07 1035.76C1356.39 1035.55 1356.61 1035.27 1356.75 1034.92C1356.89 1034.56 1356.96 1034.17 1356.96 1033.73ZM1362.88 1036.1C1363.18 1036.1 1363.46 1036.04 1363.71 1035.91C1363.97 1035.79 1364.18 1035.62 1364.34 1035.41C1364.51 1035.19 1364.6 1034.94 1364.62 1034.66H1365.83C1365.8 1035.1 1365.66 1035.51 1365.38 1035.89C1365.11 1036.26 1364.76 1036.56 1364.32 1036.79C1363.89 1037.02 1363.4 1037.14 1362.88 1037.14C1362.32 1037.14 1361.84 1037.04 1361.42 1036.84C1361.01 1036.65 1360.67 1036.38 1360.4 1036.04C1360.13 1035.69 1359.93 1035.3 1359.79 1034.86C1359.66 1034.41 1359.59 1033.94 1359.59 1033.45V1033.16C1359.59 1032.66 1359.66 1032.19 1359.79 1031.75C1359.93 1031.3 1360.13 1030.91 1360.4 1030.57C1360.67 1030.23 1361.01 1029.96 1361.42 1029.76C1361.84 1029.56 1362.32 1029.47 1362.88 1029.47C1363.46 1029.47 1363.97 1029.59 1364.4 1029.82C1364.83 1030.05 1365.17 1030.37 1365.42 1030.78C1365.67 1031.18 1365.8 1031.64 1365.83 1032.15H1364.62C1364.6 1031.84 1364.51 1031.57 1364.36 1031.32C1364.22 1031.07 1364.02 1030.88 1363.76 1030.73C1363.51 1030.58 1363.22 1030.51 1362.88 1030.51C1362.49 1030.51 1362.17 1030.58 1361.9 1030.74C1361.64 1030.89 1361.44 1031.09 1361.28 1031.35C1361.13 1031.61 1361.02 1031.89 1360.95 1032.21C1360.89 1032.52 1360.86 1032.83 1360.86 1033.16V1033.45C1360.86 1033.77 1360.89 1034.09 1360.95 1034.4C1361.02 1034.72 1361.12 1035 1361.27 1035.26C1361.43 1035.51 1361.64 1035.72 1361.9 1035.87C1362.16 1036.02 1362.49 1036.1 1362.88 1036.1ZM1370.21 1036.1C1370.51 1036.1 1370.79 1036.04 1371.04 1035.91C1371.3 1035.79 1371.51 1035.62 1371.67 1035.41C1371.84 1035.19 1371.93 1034.94 1371.95 1034.66H1373.16C1373.13 1035.1 1372.98 1035.51 1372.71 1035.89C1372.44 1036.26 1372.09 1036.56 1371.65 1036.79C1371.21 1037.02 1370.73 1037.14 1370.21 1037.14C1369.65 1037.14 1369.17 1037.04 1368.75 1036.84C1368.34 1036.65 1368 1036.38 1367.73 1036.04C1367.46 1035.69 1367.26 1035.3 1367.12 1034.86C1366.99 1034.41 1366.92 1033.94 1366.92 1033.45V1033.16C1366.92 1032.66 1366.99 1032.19 1367.12 1031.75C1367.26 1031.3 1367.46 1030.91 1367.73 1030.57C1368 1030.23 1368.34 1029.96 1368.75 1029.76C1369.17 1029.56 1369.65 1029.47 1370.21 1029.47C1370.79 1029.47 1371.29 1029.59 1371.73 1029.82C1372.16 1030.05 1372.5 1030.37 1372.75 1030.78C1373 1031.18 1373.13 1031.64 1373.16 1032.15H1371.95C1371.93 1031.84 1371.84 1031.57 1371.69 1031.32C1371.55 1031.07 1371.35 1030.88 1371.09 1030.73C1370.84 1030.58 1370.55 1030.51 1370.21 1030.51C1369.82 1030.51 1369.5 1030.58 1369.23 1030.74C1368.97 1030.89 1368.76 1031.09 1368.61 1031.35C1368.46 1031.61 1368.35 1031.89 1368.28 1032.21C1368.22 1032.52 1368.19 1032.83 1368.19 1033.16V1033.45C1368.19 1033.77 1368.22 1034.09 1368.28 1034.4C1368.35 1034.72 1368.45 1035 1368.6 1035.26C1368.76 1035.51 1368.96 1035.72 1369.22 1035.87C1369.49 1036.02 1369.82 1036.1 1370.21 1036.1ZM1377.65 1037.14C1377.13 1037.14 1376.66 1037.05 1376.25 1036.88C1375.83 1036.7 1375.47 1036.45 1375.17 1036.13C1374.88 1035.81 1374.65 1035.43 1374.49 1035C1374.33 1034.56 1374.25 1034.08 1374.25 1033.56V1033.27C1374.25 1032.67 1374.34 1032.14 1374.52 1031.67C1374.69 1031.19 1374.93 1030.79 1375.24 1030.46C1375.55 1030.14 1375.89 1029.89 1376.28 1029.72C1376.67 1029.55 1377.07 1029.47 1377.48 1029.47C1378.01 1029.47 1378.47 1029.56 1378.85 1029.74C1379.24 1029.92 1379.55 1030.18 1379.8 1030.51C1380.05 1030.83 1380.23 1031.21 1380.35 1031.65C1380.47 1032.09 1380.52 1032.57 1380.52 1033.09V1033.66H1375V1032.62H1379.26V1032.53C1379.24 1032.2 1379.17 1031.88 1379.05 1031.57C1378.94 1031.26 1378.76 1031.01 1378.51 1030.81C1378.26 1030.61 1377.92 1030.51 1377.48 1030.51C1377.2 1030.51 1376.93 1030.57 1376.69 1030.69C1376.45 1030.81 1376.24 1030.99 1376.07 1031.22C1375.89 1031.46 1375.76 1031.75 1375.66 1032.09C1375.57 1032.43 1375.52 1032.83 1375.52 1033.27V1033.56C1375.52 1033.91 1375.57 1034.24 1375.66 1034.55C1375.76 1034.86 1375.91 1035.13 1376.09 1035.36C1376.29 1035.59 1376.52 1035.77 1376.79 1035.91C1377.06 1036.04 1377.37 1036.1 1377.71 1036.1C1378.16 1036.1 1378.54 1036.01 1378.85 1035.83C1379.16 1035.65 1379.43 1035.4 1379.66 1035.1L1380.43 1035.71C1380.27 1035.95 1380.07 1036.18 1379.82 1036.4C1379.57 1036.62 1379.27 1036.79 1378.91 1036.93C1378.56 1037.07 1378.13 1037.14 1377.65 1037.14ZM1386.31 1035.04C1386.31 1034.86 1386.27 1034.69 1386.18 1034.53C1386.11 1034.37 1385.95 1034.23 1385.7 1034.1C1385.46 1033.97 1385.09 1033.86 1384.61 1033.76C1384.2 1033.67 1383.82 1033.57 1383.49 1033.45C1383.16 1033.33 1382.88 1033.19 1382.65 1033.02C1382.42 1032.85 1382.25 1032.65 1382.12 1032.43C1382 1032.2 1381.94 1031.93 1381.94 1031.63C1381.94 1031.34 1382 1031.06 1382.13 1030.8C1382.26 1030.54 1382.45 1030.31 1382.68 1030.11C1382.93 1029.91 1383.22 1029.75 1383.55 1029.64C1383.89 1029.52 1384.27 1029.47 1384.68 1029.47C1385.27 1029.47 1385.78 1029.57 1386.2 1029.78C1386.62 1029.99 1386.94 1030.27 1387.16 1030.62C1387.39 1030.97 1387.5 1031.35 1387.5 1031.78H1386.23C1386.23 1031.57 1386.17 1031.37 1386.05 1031.18C1385.93 1030.99 1385.75 1030.82 1385.52 1030.7C1385.29 1030.57 1385.01 1030.51 1384.68 1030.51C1384.33 1030.51 1384.04 1030.56 1383.83 1030.67C1383.61 1030.77 1383.45 1030.91 1383.35 1031.07C1383.26 1031.24 1383.21 1031.41 1383.21 1031.59C1383.21 1031.73 1383.23 1031.85 1383.28 1031.96C1383.33 1032.07 1383.42 1032.16 1383.54 1032.26C1383.66 1032.34 1383.84 1032.42 1384.06 1032.5C1384.28 1032.58 1384.57 1032.66 1384.91 1032.73C1385.52 1032.87 1386.02 1033.04 1386.41 1033.23C1386.8 1033.42 1387.09 1033.65 1387.29 1033.93C1387.48 1034.21 1387.57 1034.55 1387.57 1034.94C1387.57 1035.27 1387.5 1035.56 1387.37 1035.83C1387.24 1036.1 1387.04 1036.33 1386.79 1036.53C1386.54 1036.72 1386.23 1036.87 1385.88 1036.98C1385.54 1037.08 1385.15 1037.14 1384.71 1037.14C1384.06 1037.14 1383.51 1037.02 1383.06 1036.79C1382.61 1036.56 1382.27 1036.25 1382.04 1035.89C1381.8 1035.52 1381.69 1035.13 1381.69 1034.72H1382.96C1382.98 1035.06 1383.08 1035.34 1383.26 1035.54C1383.44 1035.74 1383.66 1035.89 1383.93 1035.97C1384.19 1036.06 1384.46 1036.1 1384.71 1036.1C1385.06 1036.1 1385.35 1036.05 1385.58 1035.96C1385.82 1035.87 1386 1035.74 1386.12 1035.58C1386.25 1035.43 1386.31 1035.24 1386.31 1035.04ZM1393.54 1035.04C1393.54 1034.86 1393.5 1034.69 1393.42 1034.53C1393.34 1034.37 1393.18 1034.23 1392.93 1034.1C1392.69 1033.97 1392.33 1033.86 1391.84 1033.76C1391.43 1033.67 1391.06 1033.57 1390.72 1033.45C1390.4 1033.33 1390.12 1033.19 1389.88 1033.02C1389.65 1032.85 1389.48 1032.65 1389.36 1032.43C1389.23 1032.2 1389.17 1031.93 1389.17 1031.63C1389.17 1031.34 1389.24 1031.06 1389.36 1030.8C1389.5 1030.54 1389.68 1030.31 1389.92 1030.11C1390.16 1029.91 1390.45 1029.75 1390.79 1029.64C1391.12 1029.52 1391.5 1029.47 1391.91 1029.47C1392.51 1029.47 1393.01 1029.57 1393.43 1029.78C1393.85 1029.99 1394.17 1030.27 1394.39 1030.62C1394.62 1030.97 1394.73 1031.35 1394.73 1031.78H1393.46C1393.46 1031.57 1393.4 1031.37 1393.28 1031.18C1393.16 1030.99 1392.99 1030.82 1392.75 1030.7C1392.53 1030.57 1392.25 1030.51 1391.91 1030.51C1391.56 1030.51 1391.28 1030.56 1391.06 1030.67C1390.84 1030.77 1390.69 1030.91 1390.59 1031.07C1390.49 1031.24 1390.44 1031.41 1390.44 1031.59C1390.44 1031.73 1390.47 1031.85 1390.51 1031.96C1390.56 1032.07 1390.65 1032.16 1390.77 1032.26C1390.89 1032.34 1391.07 1032.42 1391.29 1032.5C1391.51 1032.58 1391.8 1032.66 1392.15 1032.73C1392.75 1032.87 1393.25 1033.04 1393.64 1033.23C1394.03 1033.42 1394.33 1033.65 1394.52 1033.93C1394.71 1034.21 1394.8 1034.55 1394.8 1034.94C1394.8 1035.27 1394.74 1035.56 1394.6 1035.83C1394.47 1036.1 1394.27 1036.33 1394.02 1036.53C1393.77 1036.72 1393.47 1036.87 1393.12 1036.98C1392.77 1037.08 1392.38 1037.14 1391.95 1037.14C1391.3 1037.14 1390.74 1037.02 1390.29 1036.79C1389.84 1036.56 1389.5 1036.25 1389.27 1035.89C1389.04 1035.52 1388.92 1035.13 1388.92 1034.72H1390.19C1390.21 1035.06 1390.31 1035.34 1390.49 1035.54C1390.67 1035.74 1390.9 1035.89 1391.16 1035.97C1391.43 1036.06 1391.69 1036.1 1391.95 1036.1C1392.29 1036.1 1392.58 1036.05 1392.82 1035.96C1393.05 1035.87 1393.23 1035.74 1393.36 1035.58C1393.48 1035.43 1393.54 1035.24 1393.54 1035.04ZM1398.35 1037H1397.09V1028.82C1397.09 1028.29 1397.18 1027.84 1397.38 1027.48C1397.57 1027.11 1397.85 1026.83 1398.22 1026.64C1398.58 1026.45 1399.01 1026.36 1399.51 1026.36C1399.66 1026.36 1399.81 1026.37 1399.95 1026.38C1400.1 1026.4 1400.25 1026.43 1400.39 1026.47L1400.32 1027.5C1400.23 1027.48 1400.12 1027.46 1399.99 1027.45C1399.87 1027.44 1399.76 1027.44 1399.64 1027.44C1399.37 1027.44 1399.14 1027.49 1398.94 1027.6C1398.75 1027.71 1398.6 1027.86 1398.5 1028.07C1398.4 1028.27 1398.35 1028.52 1398.35 1028.82V1037ZM1399.92 1029.6V1030.57H1395.92V1029.6H1399.92ZM1405.86 1035.29V1029.6H1407.13V1037H1405.92L1405.86 1035.29ZM1406.1 1033.73L1406.62 1033.72C1406.62 1034.21 1406.57 1034.67 1406.47 1035.09C1406.37 1035.5 1406.2 1035.86 1405.97 1036.17C1405.75 1036.47 1405.45 1036.71 1405.08 1036.88C1404.71 1037.05 1404.26 1037.14 1403.73 1037.14C1403.37 1037.14 1403.04 1037.08 1402.74 1036.98C1402.44 1036.87 1402.19 1036.71 1401.98 1036.49C1401.76 1036.28 1401.6 1035.99 1401.48 1035.64C1401.36 1035.29 1401.31 1034.87 1401.31 1034.38V1029.6H1402.57V1034.39C1402.57 1034.72 1402.61 1035 1402.68 1035.22C1402.76 1035.43 1402.86 1035.6 1402.99 1035.73C1403.12 1035.85 1403.27 1035.94 1403.42 1035.99C1403.59 1036.04 1403.76 1036.06 1403.93 1036.06C1404.47 1036.06 1404.89 1035.96 1405.21 1035.76C1405.52 1035.55 1405.75 1035.27 1405.89 1034.92C1406.03 1034.56 1406.1 1034.17 1406.1 1033.73ZM1410.43 1026.5V1037H1409.16V1026.5H1410.43ZM1413.84 1026.5V1037H1412.56V1026.5H1413.84ZM1417.94 1036.23L1420 1029.6H1421.36L1418.39 1038.14C1418.32 1038.32 1418.23 1038.52 1418.12 1038.73C1418.01 1038.94 1417.86 1039.15 1417.69 1039.34C1417.52 1039.53 1417.31 1039.68 1417.06 1039.8C1416.82 1039.93 1416.53 1039.99 1416.19 1039.99C1416.09 1039.99 1415.97 1039.97 1415.81 1039.95C1415.66 1039.92 1415.55 1039.9 1415.48 1039.88L1415.48 1038.85C1415.51 1038.86 1415.57 1038.86 1415.65 1038.87C1415.73 1038.88 1415.79 1038.88 1415.82 1038.88C1416.11 1038.88 1416.35 1038.84 1416.55 1038.76C1416.75 1038.69 1416.92 1038.57 1417.06 1038.39C1417.2 1038.21 1417.32 1037.98 1417.42 1037.67L1417.94 1036.23ZM1416.43 1029.6L1418.35 1035.35L1418.68 1036.68L1417.77 1037.14L1415.05 1029.6H1416.43ZM1421.78 1036.33C1421.78 1036.12 1421.85 1035.94 1421.98 1035.79C1422.11 1035.64 1422.31 1035.56 1422.57 1035.56C1422.82 1035.56 1423.01 1035.64 1423.15 1035.79C1423.28 1035.94 1423.35 1036.12 1423.35 1036.33C1423.35 1036.54 1423.28 1036.72 1423.15 1036.86C1423.01 1037.01 1422.82 1037.08 1422.57 1037.08C1422.31 1037.08 1422.11 1037.01 1421.98 1036.86C1421.85 1036.72 1421.78 1036.54 1421.78 1036.33Z" fill="black"/>
</g>
</g>
<rect x="1296.5" y="968.5" width="279" height="83" stroke="#00813A"/>
</g>
<defs>
<filter id="filter0_d_1316_6696" x="1286" y="958" width="300" height="104" filterUnits="userSpaceOnUse" color-interpolation-filters="sRGB">
<feFlood flood-opacity="0" result="BackgroundImageFix"/>
<feColorMatrix in="SourceAlpha" type="matrix" values="0 0 0 0 0 0 0 0 0 0 0 0 0 0 0 0 0 0 127 0" result="hardAlpha"/>
<feOffset/>
<feGaussianBlur stdDeviation="5"/>
<feComposite in2="hardAlpha" operator="out"/>
<feColorMatrix type="matrix" values="0 0 0 0 0 0 0 0 0 0 0 0 0 0 0 0 0 0 0.5 0"/>
<feBlend mode="normal" in2="BackgroundImageFix" result="effect1_dropShadow_1316_6696"/>
<feBlend mode="normal" in="SourceGraphic" in2="effect1_dropShadow_1316_6696" result="shape"/>
</filter>
<clipPath id="clip0_1316_6696">
<rect width="1600" height="1076" fill="white"/>
</clipPath>
<clipPath id="clip1_1316_6696">
<path d="M0 0H1600V48H0V0Z" fill="white"/>
</clipPath>
<clipPath id="clip2_1316_6696">
<rect width="24" height="24" fill="white" transform="translate(12.5 12)"/>
</clipPath>
<clipPath id="clip3_1316_6696">
<rect width="24" height="24" fill="white" transform="translate(61 12)"/>
</clipPath>
<clipPath id="clip4_1316_6696">
<rect width="20" height="20" fill="white" transform="translate(1556 14)"/>
</clipPath>
<clipPath id="clip5_1316_6696">
<rect width="1600" height="1028" fill="white" transform="translate(0 48)"/>
</clipPath>
<clipPath id="clip6_1316_6696">
<rect width="1600" height="960" fill="white" transform="translate(0 116)"/>
</clipPath>
<clipPath id="clip7_1316_6696">
<rect width="1552" height="56" fill="white" transform="translate(24 116)"/>
</clipPath>
<clipPath id="clip8_1316_6696">
<rect width="24" height="24" fill="white" transform="translate(1358 132)"/>
</clipPath>
<clipPath id="clip9_1316_6696">
<rect width="24" height="24" fill="white" transform="translate(1398 132)"/>
</clipPath>
<clipPath id="clip10_1316_6696">
<rect width="24" height="24" fill="white" transform="translate(1438 132)"/>
</clipPath>
<clipPath id="clip11_1316_6696">
<rect width="1552" height="409" fill="white" transform="translate(24 172)"/>
</clipPath>
<clipPath id="clip12_1316_6696">
<rect width="40" height="409" fill="white" transform="translate(24 172)"/>
</clipPath>
<clipPath id="clip13_1316_6696">
<rect width="320" height="409" fill="white" transform="translate(64 172)"/>
</clipPath>
<clipPath id="clip14_1316_6696">
<rect width="384" height="409" fill="white" transform="translate(384 172)"/>
</clipPath>
<clipPath id="clip15_1316_6696">
<rect width="384" height="409" fill="white" transform="translate(768 172)"/>
</clipPath>
<clipPath id="clip16_1316_6696">
<rect width="384" height="409" fill="white" transform="translate(1152 172)"/>
</clipPath>
<clipPath id="clip17_1316_6696">
<rect width="40" height="409" fill="white" transform="translate(1536 172)"/>
</clipPath>
<clipPath id="clip18_1316_6696">
<rect width="24" height="24" fill="white" transform="translate(1544 220.5)"/>
</clipPath>
<clipPath id="clip19_1316_6696">
<rect width="24" height="24" fill="white" transform="translate(1544 261.5)"/>
</clipPath>
<clipPath id="clip20_1316_6696">
<rect width="24" height="24" fill="white" transform="translate(1544 302.5)"/>
</clipPath>
<clipPath id="clip21_1316_6696">
<rect width="24" height="24" fill="white" transform="translate(1544 343.5)"/>
</clipPath>
<clipPath id="clip22_1316_6696">
<rect width="24" height="24" fill="white" transform="translate(1544 384.5)"/>
</clipPath>
<clipPath id="clip23_1316_6696">
<rect width="24" height="24" fill="white" transform="translate(1544 425.5)"/>
</clipPath>
<clipPath id="clip24_1316_6696">
<rect width="24" height="24" fill="white" transform="translate(1544 466.5)"/>
</clipPath>
<clipPath id="clip25_1316_6696">
<rect width="24" height="24" fill="white" transform="translate(1544 507.5)"/>
</clipPath>
<clipPath id="clip26_1316_6696">
<rect width="24" height="24" fill="white" transform="translate(1544 548.5)"/>
</clipPath>
<clipPath id="clip27_1316_6696">
<rect x="1296" y="968" width="280" height="84" fill="white"/>
</clipPath>
<clipPath id="clip28_1316_6696">
<rect width="276" height="84" fill="white" transform="translate(1300 968)"/>
</clipPath>
<clipPath id="clip29_1316_6696">
<rect width="20" height="20" fill="white" transform="translate(1316 984)"/>
</clipPath>
</defs>
</svg>
