<svg width="1600" height="1080" viewBox="0 0 1600 1080" fill="none" xmlns="http://www.w3.org/2000/svg">
<g clip-path="url(#clip0_901_5194)">
<rect width="1600" height="1080" fill="white"/>
<g clip-path="url(#clip1_901_5194)">
<mask id="path-1-inside-1_901_5194" fill="white">
<path d="M0 0H49V52H0V0Z"/>
</mask>
<path d="M0 0H49V52H0V0Z" fill="white"/>
<path d="M49 0H48V52H49H50V0H49Z" fill="#D9D9D9" mask="url(#path-1-inside-1_901_5194)"/>
<mask id="path-3-inside-2_901_5194" fill="white">
<path d="M0 0H49V52H0V0Z"/>
</mask>
<path d="M49 52V48H0V52V56H49V52Z" fill="#D6101D" mask="url(#path-3-inside-2_901_5194)"/>
<g clip-path="url(#clip2_901_5194)">
<path fill-rule="evenodd" clip-rule="evenodd" d="M15 31H33V32.5H15V31Z" fill="black"/>
<path fill-rule="evenodd" clip-rule="evenodd" d="M15 26.5H33V28H15V26.5Z" fill="black"/>
<path fill-rule="evenodd" clip-rule="evenodd" d="M15 22H33V23.5H15V22Z" fill="black"/>
<path fill-rule="evenodd" clip-rule="evenodd" d="M33 19H15V17.5H33V19Z" fill="black"/>
</g>
<mask id="path-9-inside-3_901_5194" fill="white">
<path d="M49 0H1600V52H49V0Z"/>
</mask>
<path d="M49 0H1600V52H49V0Z" fill="white"/>
<path d="M1600 52V48H49V52V56H1600V52Z" fill="#DC0018" mask="url(#path-9-inside-3_901_5194)"/>
<mask id="path-11-inside-4_901_5194" fill="white">
<path d="M49 0H98V48H49V0Z"/>
</mask>
<path d="M98 0H97V48H98H99V0H98Z" fill="#D7D7D7" mask="url(#path-11-inside-4_901_5194)"/>
<g clip-path="url(#clip3_901_5194)">
<path d="M73.5001 13.5C70.3501 13.5 67.2001 14.025 63.9751 15.075C63.9751 22.5 63.9751 30.3 73.5001 34.5C83.0251 30.3 83.0251 22.5 83.0251 15.075C79.8001 14.025 76.6501 13.5 73.5001 13.5ZM75.3751 24.9V29.325H71.5501V24.9H67.2001V21.075H71.6251V16.65H75.4501V21.075H79.8751V24.9H75.3751Z" fill="#DC0018"/>
</g>
<mask id="path-14-inside-5_901_5194" fill="white">
<path d="M98 0H147V48H98V0Z"/>
</mask>
<path d="M147 0H146V48H147H148V0H147Z" fill="#D7D7D7" mask="url(#path-14-inside-5_901_5194)"/>
<g clip-path="url(#clip4_901_5194)">
<path fill-rule="evenodd" clip-rule="evenodd" d="M119.905 18.5304L118.845 17.4697L112.314 24.0001L118.845 30.5304L119.905 29.4697L115.186 24.75H131.375V23.25H115.186L119.905 18.5304Z" fill="#212121"/>
</g>
<rect x="171" y="18" width="100" height="12" fill="#C8C8C8"/>
<g clip-path="url(#clip5_901_5194)">
<path d="M1572.25 24.3662V22.75H1571V24.625C1571 24.7907 1571.07 24.9497 1571.18 25.0669L1572.88 26.7588V27.75H1559.12V26.7588L1560.82 25.0669C1560.93 24.9497 1561 24.7907 1561 24.625V22.125C1561 21.2468 1561.23 20.3837 1561.67 19.6229C1562.11 18.8621 1562.74 18.2305 1563.5 17.792C1564.26 17.3534 1565.12 17.1233 1566 17.125C1566.88 17.1267 1567.74 17.3601 1568.5 17.8016V16.4042C1567.91 16.1408 1567.27 15.9729 1566.62 15.9068V14.625H1565.38V15.9068C1563.83 16.0635 1562.41 16.786 1561.37 17.9346C1560.33 19.0832 1559.75 20.5762 1559.75 22.125V24.3662L1558.06 26.0581C1557.94 26.1753 1557.88 26.3343 1557.88 26.5V28.375C1557.88 28.5408 1557.94 28.6997 1558.06 28.8169C1558.18 28.9342 1558.33 29 1558.5 29H1562.88V29.625C1562.88 30.4538 1563.2 31.2487 1563.79 31.8347C1564.38 32.4208 1565.17 32.75 1566 32.75C1566.83 32.75 1567.62 32.4208 1568.21 31.8347C1568.8 31.2487 1569.12 30.4538 1569.12 29.625V29H1573.5C1573.67 29 1573.82 28.9342 1573.94 28.8169C1574.06 28.6997 1574.12 28.5408 1574.12 28.375V26.5C1574.12 26.3343 1574.06 26.1753 1573.94 26.0581L1572.25 24.3662ZM1567.88 29.625C1567.88 30.1223 1567.68 30.5992 1567.33 30.9508C1566.97 31.3025 1566.5 31.5 1566 31.5C1565.5 31.5 1565.03 31.3025 1564.67 30.9508C1564.32 30.5992 1564.12 30.1223 1564.12 29.625V29H1567.88V29.625Z" fill="black"/>
<path d="M1572.25 21.5C1573.63 21.5 1574.75 20.3807 1574.75 19C1574.75 17.6193 1573.63 16.5 1572.25 16.5C1570.87 16.5 1569.75 17.6193 1569.75 19C1569.75 20.3807 1570.87 21.5 1572.25 21.5Z" fill="black"/>
</g>
</g>
<g clip-path="url(#clip6_901_5194)">
<mask id="path-20-inside-6_901_5194" fill="white">
<path d="M0 68H1600V120H0V68Z"/>
</mask>
<path d="M0 68H1600V120H0V68Z" fill="white"/>
<path d="M1600 120V118H0V120V122H1600V120Z" fill="#D9D9D9" mask="url(#path-20-inside-6_901_5194)"/>
<rect width="1600" height="52" transform="translate(0 68)" fill="white"/>
<rect width="1552" height="36" transform="translate(24 76)" fill="white"/>
<rect x="24" y="76" width="140" height="18" fill="#848484"/>
<g clip-path="url(#clip7_901_5194)">
<rect width="1600" height="960" transform="translate(0 120)" fill="#F2F4F6"/>
<rect width="1600" height="960" transform="translate(0 120)" fill="#F5F5F5"/>
<g clip-path="url(#clip8_901_5194)">
<rect x="24" y="142" width="110" height="12" fill="#171717"/>
<path fill-rule="evenodd" clip-rule="evenodd" d="M1320.5 138.25C1320.5 137.836 1320.84 137.5 1321.25 137.5H1340.75C1341.16 137.5 1341.5 137.836 1341.5 138.25V141.795C1341.5 141.977 1341.43 142.153 1341.31 142.29L1334.59 149.966V157.75C1334.59 158.164 1334.25 158.5 1333.84 158.5H1328.16C1327.75 158.5 1327.41 158.164 1327.41 157.75V149.966L1320.69 142.29C1320.57 142.153 1320.5 141.977 1320.5 141.795V138.25ZM1322 139V141.513L1328.73 149.19C1328.85 149.327 1328.91 149.502 1328.91 149.684V157H1333.09V149.684C1333.09 149.502 1333.15 149.327 1333.27 149.19L1340 141.513V139H1322Z" fill="#006699"/>
<g clip-path="url(#clip9_901_5194)">
<path d="M1361.25 139.75V156.25C1361.25 157.075 1361.92 157.75 1362.75 157.75H1370.25V156.25H1362.75V151H1370.25V149.5H1362.75V144.25H1370.25V145.75H1371.75V144.25H1379.25V145.75H1380.75V139.75C1380.75 138.925 1380.08 138.25 1379.25 138.25H1362.75C1361.92 138.25 1361.25 138.925 1361.25 139.75ZM1362.75 139.75H1379.25V142.75H1362.75V139.75Z" fill="#006699"/>
<path d="M1382.25 149.5H1379.69C1381.22 150.415 1382.25 152.088 1382.25 154C1382.25 156.895 1379.89 159.25 1377 159.25C1374.11 159.25 1371.75 156.895 1371.75 154C1371.75 152.597 1372.3 151.277 1373.29 150.287L1374.34 151.345C1373.64 152.05 1373.25 152.995 1373.25 154C1373.25 156.07 1374.93 157.75 1377 157.75C1379.07 157.75 1380.75 156.07 1380.75 154C1380.75 152.47 1379.82 151.15 1378.5 150.565V153.25H1377V148H1382.25V149.5Z" fill="#006699"/>
</g>
<g clip-path="url(#clip10_901_5194)">
<path d="M1417.25 138.75V143.25H1420C1420.27 143.25 1420.52 143.355 1420.71 143.543C1420.89 143.731 1421 143.985 1421 144.25V151.75C1421 152.015 1420.89 152.269 1420.71 152.457C1420.52 152.645 1420.27 152.75 1420 152.75H1417.25V157.25H1404.75V152.75H1402C1401.73 152.75 1401.48 152.645 1401.29 152.457C1401.11 152.269 1401 152.015 1401 151.75V144.25C1401 143.985 1401.11 143.731 1401.29 143.543C1401.48 143.355 1401.73 143.25 1402 143.25H1404.75V138.75H1417.25ZM1405.25 156.75H1416.75V148.25H1405.25V156.75ZM1401.5 152.25H1404.75V147.75H1417.25V152.25H1420.5V143.75H1401.5V152.25ZM1405.25 143.25H1416.75V139.25H1405.25V143.25Z" stroke="#006699"/>
</g>
<g clip-path="url(#clip11_901_5194)">
<path d="M1454.75 140.05H1460V141.55H1458.2V156.175C1458.2 157.039 1457.49 157.75 1456.62 157.75H1445.45C1444.59 157.75 1443.88 157.039 1443.88 156.175V141.55H1442V140.05H1447.25V136.75H1454.75V140.05ZM1445.38 141.55V156.175C1445.38 156.188 1445.38 156.207 1445.4 156.226C1445.42 156.244 1445.44 156.25 1445.45 156.25H1456.62C1456.64 156.25 1456.66 156.244 1456.68 156.226C1456.69 156.207 1456.7 156.188 1456.7 156.175V141.55H1445.38ZM1449.8 153.25H1448.3V144.55H1449.8V153.25ZM1453.7 153.25H1452.2V144.55H1453.7V153.25ZM1448.75 140.05H1453.25V138.25H1448.75V140.05Z" fill="#006699"/>
</g>
<path d="M1479 130V166" stroke="#171717"/>
<rect width="73" height="36" transform="translate(1503 130)" fill="#FF00FF"/>
<path d="M1526.28 149.835H1527.59C1527.52 150.464 1527.34 151.027 1527.05 151.523C1526.76 152.02 1526.35 152.414 1525.81 152.706C1525.28 152.993 1524.62 153.137 1523.82 153.137C1523.24 153.137 1522.7 153.027 1522.23 152.809C1521.75 152.59 1521.34 152.28 1521 151.879C1520.66 151.473 1520.4 150.988 1520.21 150.423C1520.03 149.853 1519.94 149.22 1519.94 148.522V147.531C1519.94 146.834 1520.03 146.203 1520.21 145.638C1520.4 145.068 1520.66 144.58 1521.01 144.175C1521.36 143.769 1521.78 143.457 1522.27 143.238C1522.77 143.02 1523.32 142.91 1523.93 142.91C1524.69 142.91 1525.32 143.051 1525.84 143.334C1526.36 143.617 1526.76 144.008 1527.05 144.51C1527.34 145.007 1527.52 145.583 1527.59 146.239H1526.28C1526.22 145.774 1526.1 145.376 1525.92 145.043C1525.75 144.706 1525.5 144.446 1525.19 144.264C1524.87 144.081 1524.45 143.99 1523.93 143.99C1523.49 143.99 1523.1 144.075 1522.77 144.243C1522.43 144.412 1522.15 144.651 1521.92 144.961C1521.7 145.271 1521.53 145.642 1521.42 146.075C1521.31 146.508 1521.25 146.989 1521.25 147.518V148.522C1521.25 149.01 1521.3 149.468 1521.4 149.896C1521.5 150.325 1521.66 150.701 1521.87 151.024C1522.08 151.348 1522.35 151.603 1522.67 151.79C1522.99 151.972 1523.38 152.063 1523.82 152.063C1524.38 152.063 1524.83 151.975 1525.16 151.797C1525.49 151.619 1525.74 151.364 1525.91 151.031C1526.08 150.699 1526.21 150.3 1526.28 149.835ZM1530.46 146.766V153H1529.2V145.604H1530.43L1530.46 146.766ZM1532.77 145.562L1532.77 146.738C1532.66 146.715 1532.56 146.702 1532.47 146.697C1532.37 146.688 1532.27 146.684 1532.15 146.684C1531.86 146.684 1531.6 146.729 1531.38 146.82C1531.16 146.911 1530.97 147.039 1530.81 147.203C1530.66 147.367 1530.53 147.563 1530.44 147.791C1530.36 148.014 1530.3 148.26 1530.27 148.529L1529.92 148.734C1529.92 148.288 1529.96 147.868 1530.05 147.477C1530.14 147.085 1530.28 146.738 1530.46 146.438C1530.65 146.132 1530.89 145.895 1531.17 145.727C1531.47 145.553 1531.81 145.467 1532.21 145.467C1532.3 145.467 1532.41 145.478 1532.53 145.501C1532.65 145.519 1532.73 145.54 1532.77 145.562ZM1536.88 153.137C1536.36 153.137 1535.89 153.05 1535.47 152.877C1535.06 152.699 1534.7 152.451 1534.4 152.132C1534.1 151.813 1533.88 151.435 1533.72 150.997C1533.56 150.56 1533.48 150.081 1533.48 149.562V149.274C1533.48 148.673 1533.57 148.137 1533.74 147.668C1533.92 147.194 1534.16 146.793 1534.47 146.465C1534.77 146.137 1535.12 145.888 1535.51 145.72C1535.9 145.551 1536.3 145.467 1536.71 145.467C1537.24 145.467 1537.7 145.558 1538.08 145.74C1538.47 145.923 1538.78 146.178 1539.03 146.506C1539.27 146.829 1539.46 147.212 1539.58 147.654C1539.69 148.092 1539.75 148.57 1539.75 149.09V149.657H1534.23V148.625H1538.49V148.529C1538.47 148.201 1538.4 147.882 1538.28 147.572C1538.17 147.262 1537.99 147.007 1537.74 146.807C1537.49 146.606 1537.14 146.506 1536.71 146.506C1536.42 146.506 1536.16 146.567 1535.92 146.69C1535.68 146.809 1535.47 146.987 1535.3 147.224C1535.12 147.461 1534.99 147.75 1534.89 148.092C1534.8 148.434 1534.75 148.828 1534.75 149.274V149.562C1534.75 149.912 1534.8 150.243 1534.89 150.553C1534.99 150.858 1535.14 151.127 1535.32 151.359C1535.51 151.592 1535.74 151.774 1536.01 151.906C1536.29 152.038 1536.6 152.104 1536.94 152.104C1537.39 152.104 1537.77 152.013 1538.08 151.831C1538.39 151.649 1538.66 151.405 1538.89 151.1L1539.66 151.708C1539.5 151.95 1539.29 152.18 1539.05 152.398C1538.8 152.617 1538.5 152.795 1538.14 152.932C1537.78 153.068 1537.36 153.137 1536.88 153.137ZM1545.59 151.735V147.928C1545.59 147.636 1545.53 147.383 1545.41 147.169C1545.3 146.95 1545.13 146.782 1544.89 146.663C1544.66 146.545 1544.37 146.485 1544.03 146.485C1543.71 146.485 1543.43 146.54 1543.19 146.649C1542.95 146.759 1542.77 146.902 1542.63 147.08C1542.5 147.258 1542.43 147.449 1542.43 147.654H1541.17C1541.17 147.39 1541.24 147.128 1541.37 146.868C1541.51 146.608 1541.71 146.374 1541.96 146.164C1542.22 145.95 1542.53 145.781 1542.89 145.658C1543.26 145.531 1543.66 145.467 1544.11 145.467C1544.65 145.467 1545.12 145.558 1545.53 145.74C1545.94 145.923 1546.27 146.198 1546.5 146.567C1546.74 146.932 1546.86 147.39 1546.86 147.941V151.387C1546.86 151.633 1546.88 151.895 1546.92 152.173C1546.96 152.451 1547.03 152.69 1547.12 152.891V153H1545.8C1545.73 152.854 1545.68 152.66 1545.65 152.419C1545.61 152.173 1545.59 151.945 1545.59 151.735ZM1545.81 148.516L1545.82 149.404H1544.54C1544.18 149.404 1543.86 149.434 1543.58 149.493C1543.3 149.548 1543.06 149.632 1542.87 149.746C1542.68 149.86 1542.53 150.004 1542.43 150.177C1542.33 150.345 1542.28 150.544 1542.28 150.771C1542.28 151.004 1542.33 151.216 1542.44 151.407C1542.54 151.599 1542.7 151.751 1542.91 151.865C1543.13 151.975 1543.39 152.029 1543.7 152.029C1544.08 152.029 1544.43 151.947 1544.72 151.783C1545.02 151.619 1545.25 151.419 1545.43 151.182C1545.6 150.945 1545.7 150.715 1545.71 150.491L1546.25 151.1C1546.22 151.291 1546.14 151.503 1545.99 151.735C1545.85 151.968 1545.66 152.191 1545.43 152.405C1545.19 152.615 1544.92 152.79 1544.59 152.932C1544.27 153.068 1543.91 153.137 1543.51 153.137C1543.01 153.137 1542.57 153.039 1542.19 152.843C1541.82 152.647 1541.53 152.385 1541.32 152.057C1541.11 151.724 1541.01 151.353 1541.01 150.942C1541.01 150.546 1541.09 150.197 1541.24 149.896C1541.4 149.591 1541.62 149.338 1541.91 149.138C1542.2 148.933 1542.56 148.778 1542.97 148.673C1543.38 148.568 1543.83 148.516 1544.34 148.516H1545.81ZM1551.94 145.604V146.574H1547.94V145.604H1551.94ZM1549.3 143.806H1550.56V151.168C1550.56 151.419 1550.6 151.608 1550.68 151.735C1550.75 151.863 1550.85 151.947 1550.98 151.988C1551.1 152.029 1551.23 152.05 1551.37 152.05C1551.48 152.05 1551.59 152.041 1551.7 152.022C1551.82 152 1551.91 151.981 1551.97 151.968L1551.98 153C1551.88 153.032 1551.74 153.062 1551.58 153.089C1551.42 153.121 1551.23 153.137 1551 153.137C1550.69 153.137 1550.4 153.075 1550.14 152.952C1549.88 152.829 1549.68 152.624 1549.52 152.337C1549.37 152.045 1549.3 151.653 1549.3 151.161V143.806ZM1556.49 153.137C1555.98 153.137 1555.51 153.05 1555.09 152.877C1554.68 152.699 1554.32 152.451 1554.02 152.132C1553.72 151.813 1553.5 151.435 1553.34 150.997C1553.18 150.56 1553.1 150.081 1553.1 149.562V149.274C1553.1 148.673 1553.19 148.137 1553.36 147.668C1553.54 147.194 1553.78 146.793 1554.09 146.465C1554.39 146.137 1554.74 145.888 1555.13 145.72C1555.51 145.551 1555.92 145.467 1556.33 145.467C1556.86 145.467 1557.31 145.558 1557.7 145.74C1558.08 145.923 1558.4 146.178 1558.65 146.506C1558.89 146.829 1559.08 147.212 1559.19 147.654C1559.31 148.092 1559.37 148.57 1559.37 149.09V149.657H1553.85V148.625H1558.11V148.529C1558.09 148.201 1558.02 147.882 1557.9 147.572C1557.79 147.262 1557.61 147.007 1557.36 146.807C1557.1 146.606 1556.76 146.506 1556.33 146.506C1556.04 146.506 1555.78 146.567 1555.54 146.69C1555.3 146.809 1555.09 146.987 1554.92 147.224C1554.74 147.461 1554.61 147.75 1554.51 148.092C1554.42 148.434 1554.37 148.828 1554.37 149.274V149.562C1554.37 149.912 1554.42 150.243 1554.51 150.553C1554.61 150.858 1554.76 151.127 1554.94 151.359C1555.13 151.592 1555.36 151.774 1555.63 151.906C1555.91 152.038 1556.22 152.104 1556.56 152.104C1557.01 152.104 1557.39 152.013 1557.7 151.831C1558.01 151.649 1558.28 151.405 1558.51 151.1L1559.28 151.708C1559.12 151.95 1558.91 152.18 1558.67 152.398C1558.42 152.617 1558.12 152.795 1557.76 152.932C1557.4 153.068 1556.98 153.137 1556.49 153.137Z" fill="white"/>
</g>
<g clip-path="url(#clip12_901_5194)">
<g clip-path="url(#clip13_901_5194)">
<rect width="40" height="409" transform="translate(24 176)" fill="white"/>
<rect width="40" height="40" transform="translate(24 176)" fill="#D9D9D9"/>
<rect x="36.5" y="188.5" width="15" height="15" fill="white"/>
<rect x="36.5" y="188.5" width="15" height="15" stroke="#757575"/>
<mask id="path-32-inside-7_901_5194" fill="white">
<path d="M24 216H64V257H24V216Z"/>
</mask>
<path d="M64 257V256H24V257V258H64V257Z" fill="#D7D7D7" mask="url(#path-32-inside-7_901_5194)"/>
<rect x="36.5" y="229" width="15" height="15" fill="white"/>
<rect x="36.5" y="229" width="15" height="15" stroke="#757575"/>
<mask id="path-35-inside-8_901_5194" fill="white">
<path d="M24 257H64V298H24V257Z"/>
</mask>
<path d="M64 298V297H24V298V299H64V298Z" fill="#D7D7D7" mask="url(#path-35-inside-8_901_5194)"/>
<rect x="36.5" y="270" width="15" height="15" fill="white"/>
<rect x="36.5" y="270" width="15" height="15" stroke="#757575"/>
<mask id="path-38-inside-9_901_5194" fill="white">
<path d="M24 298H64V339H24V298Z"/>
</mask>
<path d="M64 339V338H24V339V340H64V339Z" fill="#D7D7D7" mask="url(#path-38-inside-9_901_5194)"/>
<rect x="36.5" y="311" width="15" height="15" fill="white"/>
<rect x="36.5" y="311" width="15" height="15" stroke="#757575"/>
<mask id="path-41-inside-10_901_5194" fill="white">
<path d="M24 339H64V380H24V339Z"/>
</mask>
<path d="M64 380V379H24V380V381H64V380Z" fill="#D7D7D7" mask="url(#path-41-inside-10_901_5194)"/>
<rect x="36.5" y="352" width="15" height="15" fill="white"/>
<rect x="36.5" y="352" width="15" height="15" stroke="#757575"/>
<mask id="path-44-inside-11_901_5194" fill="white">
<path d="M24 380H64V421H24V380Z"/>
</mask>
<path d="M64 421V420H24V421V422H64V421Z" fill="#D7D7D7" mask="url(#path-44-inside-11_901_5194)"/>
<rect x="36.5" y="393" width="15" height="15" fill="white"/>
<rect x="36.5" y="393" width="15" height="15" stroke="#757575"/>
<mask id="path-47-inside-12_901_5194" fill="white">
<path d="M24 421H64V462H24V421Z"/>
</mask>
<path d="M64 462V461H24V462V463H64V462Z" fill="#D7D7D7" mask="url(#path-47-inside-12_901_5194)"/>
<rect x="36.5" y="434" width="15" height="15" fill="white"/>
<rect x="36.5" y="434" width="15" height="15" stroke="#757575"/>
<mask id="path-50-inside-13_901_5194" fill="white">
<path d="M24 462H64V503H24V462Z"/>
</mask>
<path d="M64 503V502H24V503V504H64V503Z" fill="#D7D7D7" mask="url(#path-50-inside-13_901_5194)"/>
<rect x="36.5" y="475" width="15" height="15" fill="white" stroke="#979797"/>
<mask id="path-53-inside-14_901_5194" fill="white">
<path d="M24 503H64V544H24V503Z"/>
</mask>
<path d="M64 544V543H24V544V545H64V544Z" fill="#D7D7D7" mask="url(#path-53-inside-14_901_5194)"/>
<rect x="36.5" y="516" width="15" height="15" fill="white" stroke="#979797"/>
<mask id="path-56-inside-15_901_5194" fill="white">
<path d="M24 544H64V585H24V544Z"/>
</mask>
<path d="M64 585V584H24V585V586H64V585Z" fill="#D7D7D7" mask="url(#path-56-inside-15_901_5194)"/>
<rect x="36.5" y="557" width="15" height="15" fill="white" stroke="#979797"/>
</g>
<g clip-path="url(#clip14_901_5194)">
<rect width="320" height="409" transform="translate(64 176)" fill="white"/>
<rect width="320" height="40" transform="translate(64 176)" fill="#D9D9D9"/>
<rect x="64" y="191" width="83" height="10" fill="#171717"/>
<mask id="path-60-inside-16_901_5194" fill="white">
<path d="M64 216H384V257H64V216Z"/>
</mask>
<path d="M384 257V256H64V257V258H384V257Z" fill="#D7D7D7" mask="url(#path-60-inside-16_901_5194)"/>
<rect x="64" y="231.5" width="186" height="10" fill="#979797"/>
<mask id="path-63-inside-17_901_5194" fill="white">
<path d="M64 257H384V298H64V257Z"/>
</mask>
<path d="M384 298V297H64V298V299H384V298Z" fill="#D7D7D7" mask="url(#path-63-inside-17_901_5194)"/>
<rect x="64" y="272.5" width="222" height="10" fill="#979797"/>
<mask id="path-66-inside-18_901_5194" fill="white">
<path d="M64 298H384V339H64V298Z"/>
</mask>
<path d="M384 339V338H64V339V340H384V339Z" fill="#D7D7D7" mask="url(#path-66-inside-18_901_5194)"/>
<rect x="64" y="313.5" width="142" height="10" fill="#979797"/>
<mask id="path-69-inside-19_901_5194" fill="white">
<path d="M64 339H384V380H64V339Z"/>
</mask>
<path d="M384 380V379H64V380V381H384V380Z" fill="#D7D7D7" mask="url(#path-69-inside-19_901_5194)"/>
<rect x="64" y="354.5" width="132" height="10" fill="#979797"/>
<mask id="path-72-inside-20_901_5194" fill="white">
<path d="M64 380H384V421H64V380Z"/>
</mask>
<path d="M384 421V420H64V421V422H384V421Z" fill="#D7D7D7" mask="url(#path-72-inside-20_901_5194)"/>
<rect x="64" y="395.5" width="186" height="10" fill="#979797"/>
<mask id="path-75-inside-21_901_5194" fill="white">
<path d="M64 421H384V462H64V421Z"/>
</mask>
<path d="M384 462V461H64V462V463H384V462Z" fill="#D7D7D7" mask="url(#path-75-inside-21_901_5194)"/>
<rect x="64" y="436.5" width="232" height="10" fill="#979797"/>
<mask id="path-78-inside-22_901_5194" fill="white">
<path d="M64 462H384V503H64V462Z"/>
</mask>
<path d="M384 503V502H64V503V504H384V503Z" fill="#D7D7D7" mask="url(#path-78-inside-22_901_5194)"/>
<rect x="64" y="477.5" width="157" height="10" fill="#979797"/>
<mask id="path-81-inside-23_901_5194" fill="white">
<path d="M64 503H384V544H64V503Z"/>
</mask>
<path d="M384 544V543H64V544V545H384V544Z" fill="#D7D7D7" mask="url(#path-81-inside-23_901_5194)"/>
<rect x="64" y="518.5" width="186" height="10" fill="#979797"/>
<mask id="path-84-inside-24_901_5194" fill="white">
<path d="M64 544H384V585H64V544Z"/>
</mask>
<path d="M384 585V584H64V585V586H384V585Z" fill="#D7D7D7" mask="url(#path-84-inside-24_901_5194)"/>
<rect x="64" y="559.5" width="242" height="10" fill="#979797"/>
</g>
<g clip-path="url(#clip15_901_5194)">
<rect width="384" height="409" transform="translate(384 176)" fill="white"/>
<rect width="384" height="40" transform="translate(384 176)" fill="#D9D9D9"/>
<rect x="396" y="191" width="83" height="10" fill="#171717"/>
<mask id="path-88-inside-25_901_5194" fill="white">
<path d="M384 216H768V257H384V216Z"/>
</mask>
<path d="M768 257V256H384V257V258H768V257Z" fill="#D7D7D7" mask="url(#path-88-inside-25_901_5194)"/>
<rect x="396" y="231.5" width="110" height="10" fill="#979797"/>
<mask id="path-91-inside-26_901_5194" fill="white">
<path d="M384 257H768V298H384V257Z"/>
</mask>
<path d="M768 298V297H384V298V299H768V298Z" fill="#D7D7D7" mask="url(#path-91-inside-26_901_5194)"/>
<rect x="396" y="272.5" width="76" height="10" fill="#979797"/>
<mask id="path-94-inside-27_901_5194" fill="white">
<path d="M384 298H768V339H384V298Z"/>
</mask>
<path d="M768 339V338H384V339V340H768V339Z" fill="#D7D7D7" mask="url(#path-94-inside-27_901_5194)"/>
<rect x="396" y="313.5" width="92" height="10" fill="#979797"/>
<mask id="path-97-inside-28_901_5194" fill="white">
<path d="M384 339H768V380H384V339Z"/>
</mask>
<path d="M768 380V379H384V380V381H768V380Z" fill="#D7D7D7" mask="url(#path-97-inside-28_901_5194)"/>
<rect x="396" y="354.5" width="120" height="10" fill="#979797"/>
<mask id="path-100-inside-29_901_5194" fill="white">
<path d="M384 380H768V421H384V380Z"/>
</mask>
<path d="M768 421V420H384V421V422H768V421Z" fill="#D7D7D7" mask="url(#path-100-inside-29_901_5194)"/>
<rect x="396" y="395.5" width="102" height="10" fill="#979797"/>
<mask id="path-103-inside-30_901_5194" fill="white">
<path d="M384 421H768V462H384V421Z"/>
</mask>
<path d="M768 462V461H384V462V463H768V462Z" fill="#D7D7D7" mask="url(#path-103-inside-30_901_5194)"/>
<rect x="396" y="436.5" width="90" height="10" fill="#979797"/>
<mask id="path-106-inside-31_901_5194" fill="white">
<path d="M384 462H768V503H384V462Z"/>
</mask>
<path d="M768 503V502H384V503V504H768V503Z" fill="#D7D7D7" mask="url(#path-106-inside-31_901_5194)"/>
<rect x="396" y="477.5" width="132" height="10" fill="#979797"/>
<mask id="path-109-inside-32_901_5194" fill="white">
<path d="M384 503H768V544H384V503Z"/>
</mask>
<path d="M768 544V543H384V544V545H768V544Z" fill="#D7D7D7" mask="url(#path-109-inside-32_901_5194)"/>
<rect x="396" y="518.5" width="76" height="10" fill="#979797"/>
<mask id="path-112-inside-33_901_5194" fill="white">
<path d="M384 544H768V585H384V544Z"/>
</mask>
<path d="M768 585V584H384V585V586H768V585Z" fill="#D7D7D7" mask="url(#path-112-inside-33_901_5194)"/>
<rect x="396" y="559.5" width="88" height="10" fill="#979797"/>
</g>
<g clip-path="url(#clip16_901_5194)">
<rect width="384" height="409" transform="translate(768 176)" fill="white"/>
<rect width="384" height="40" transform="translate(768 176)" fill="#D9D9D9"/>
<rect x="780" y="191" width="130" height="10" fill="#171717"/>
<mask id="path-116-inside-34_901_5194" fill="white">
<path d="M768 216H1152V257H768V216Z"/>
</mask>
<path d="M1152 257V256H768V257V258H1152V257Z" fill="#D7D7D7" mask="url(#path-116-inside-34_901_5194)"/>
<rect x="780" y="224.5" width="132" height="24" rx="12" fill="white"/>
<rect x="780" y="231.5" width="80" height="10" fill="#979797"/>
<mask id="path-120-inside-35_901_5194" fill="white">
<path d="M768 257H1152V298H768V257Z"/>
</mask>
<path d="M1152 298V297H768V298V299H1152V298Z" fill="#D7D7D7" mask="url(#path-120-inside-35_901_5194)"/>
<rect x="780" y="265.5" width="132" height="24" rx="12" fill="white"/>
<rect x="780" y="272.5" width="80" height="10" fill="#979797"/>
<mask id="path-124-inside-36_901_5194" fill="white">
<path d="M768 298H1152V339H768V298Z"/>
</mask>
<path d="M1152 339V338H768V339V340H1152V339Z" fill="#D7D7D7" mask="url(#path-124-inside-36_901_5194)"/>
<rect x="780" y="306.5" width="132" height="24" rx="12" fill="white"/>
<rect x="780" y="313.5" width="80" height="10" fill="#979797"/>
<mask id="path-128-inside-37_901_5194" fill="white">
<path d="M768 339H1152V380H768V339Z"/>
</mask>
<path d="M1152 380V379H768V380V381H1152V380Z" fill="#D7D7D7" mask="url(#path-128-inside-37_901_5194)"/>
<rect x="780" y="347.5" width="132" height="24" rx="12" fill="white"/>
<rect x="780" y="354.5" width="80" height="10" fill="#979797"/>
<mask id="path-132-inside-38_901_5194" fill="white">
<path d="M768 380H1152V421H768V380Z"/>
</mask>
<path d="M1152 421V420H768V421V422H1152V421Z" fill="#D7D7D7" mask="url(#path-132-inside-38_901_5194)"/>
<rect x="780" y="388.5" width="132" height="24" rx="12" fill="white"/>
<rect x="780" y="395.5" width="80" height="10" fill="#979797"/>
<mask id="path-136-inside-39_901_5194" fill="white">
<path d="M768 421H1152V462H768V421Z"/>
</mask>
<path d="M1152 462V461H768V462V463H1152V462Z" fill="#D7D7D7" mask="url(#path-136-inside-39_901_5194)"/>
<rect x="780" y="429.5" width="132" height="24" rx="12" fill="white"/>
<rect x="780" y="436.5" width="80" height="10" fill="#979797"/>
<mask id="path-140-inside-40_901_5194" fill="white">
<path d="M768 462H1152V503H768V462Z"/>
</mask>
<path d="M1152 503V502H768V503V504H1152V503Z" fill="#D7D7D7" mask="url(#path-140-inside-40_901_5194)"/>
<rect x="780" y="470.5" width="132" height="24" rx="12" fill="white"/>
<rect x="780" y="477.5" width="80" height="10" fill="#979797"/>
<mask id="path-144-inside-41_901_5194" fill="white">
<path d="M768 503H1152V544H768V503Z"/>
</mask>
<path d="M1152 544V543H768V544V545H1152V544Z" fill="#D7D7D7" mask="url(#path-144-inside-41_901_5194)"/>
<rect x="780" y="511.5" width="132" height="24" rx="12" fill="white"/>
<rect x="780" y="518.5" width="80" height="10" fill="#979797"/>
<mask id="path-148-inside-42_901_5194" fill="white">
<path d="M768 544H1152V585H768V544Z"/>
</mask>
<path d="M1152 585V584H768V585V586H1152V585Z" fill="#D7D7D7" mask="url(#path-148-inside-42_901_5194)"/>
<rect x="780" y="552.5" width="132" height="24" rx="12" fill="white"/>
<rect x="780" y="559.5" width="80" height="10" fill="#979797"/>
</g>
<g clip-path="url(#clip17_901_5194)">
<rect width="384" height="409" transform="translate(1152 176)" fill="white"/>
<rect width="384" height="40" transform="translate(1152 176)" fill="#D9D9D9"/>
<rect x="1164" y="191" width="110" height="10" fill="#171717"/>
<mask id="path-153-inside-43_901_5194" fill="white">
<path d="M1152 216H1536V257H1152V216Z"/>
</mask>
<path d="M1536 257V256H1152V257V258H1536V257Z" fill="#D7D7D7" mask="url(#path-153-inside-43_901_5194)"/>
<rect x="1164" y="231.5" width="83" height="10" fill="#979797"/>
<mask id="path-156-inside-44_901_5194" fill="white">
<path d="M1152 257H1536V298H1152V257Z"/>
</mask>
<path d="M1536 298V297H1152V298V299H1536V298Z" fill="#D7D7D7" mask="url(#path-156-inside-44_901_5194)"/>
<rect x="1164" y="272.5" width="83" height="10" fill="#979797"/>
<mask id="path-159-inside-45_901_5194" fill="white">
<path d="M1152 298H1536V339H1152V298Z"/>
</mask>
<path d="M1536 339V338H1152V339V340H1536V339Z" fill="#D7D7D7" mask="url(#path-159-inside-45_901_5194)"/>
<rect x="1164" y="313.5" width="83" height="10" fill="#979797"/>
<mask id="path-162-inside-46_901_5194" fill="white">
<path d="M1152 339H1536V380H1152V339Z"/>
</mask>
<path d="M1536 380V379H1152V380V381H1536V380Z" fill="#D7D7D7" mask="url(#path-162-inside-46_901_5194)"/>
<rect x="1164" y="354.5" width="83" height="10" fill="#979797"/>
<mask id="path-165-inside-47_901_5194" fill="white">
<path d="M1152 380H1536V421H1152V380Z"/>
</mask>
<path d="M1536 421V420H1152V421V422H1536V421Z" fill="#D7D7D7" mask="url(#path-165-inside-47_901_5194)"/>
<rect x="1164" y="395.5" width="83" height="10" fill="#979797"/>
<mask id="path-168-inside-48_901_5194" fill="white">
<path d="M1152 421H1536V462H1152V421Z"/>
</mask>
<path d="M1536 462V461H1152V462V463H1536V462Z" fill="#D7D7D7" mask="url(#path-168-inside-48_901_5194)"/>
<rect x="1164" y="436.5" width="83" height="10" fill="#979797"/>
<mask id="path-171-inside-49_901_5194" fill="white">
<path d="M1152 462H1536V503H1152V462Z"/>
</mask>
<path d="M1536 503V502H1152V503V504H1536V503Z" fill="#D7D7D7" mask="url(#path-171-inside-49_901_5194)"/>
<rect x="1164" y="477.5" width="83" height="10" fill="#979797"/>
<mask id="path-174-inside-50_901_5194" fill="white">
<path d="M1152 503H1536V544H1152V503Z"/>
</mask>
<path d="M1536 544V543H1152V544V545H1536V544Z" fill="#D7D7D7" mask="url(#path-174-inside-50_901_5194)"/>
<rect x="1164" y="518.5" width="83" height="10" fill="#979797"/>
<mask id="path-177-inside-51_901_5194" fill="white">
<path d="M1152 544H1536V585H1152V544Z"/>
</mask>
<path d="M1536 585V584H1152V585V586H1536V585Z" fill="#D7D7D7" mask="url(#path-177-inside-51_901_5194)"/>
<rect x="1164" y="559.5" width="83" height="10" fill="#979797"/>
</g>
<g clip-path="url(#clip18_901_5194)">
<rect width="40" height="409" transform="translate(1536 176)" fill="white"/>
<rect width="40" height="40" transform="translate(1536 176)" fill="#D9D9D9"/>
<mask id="path-180-inside-52_901_5194" fill="white">
<path d="M1536 216H1576V257H1536V216Z"/>
</mask>
<path d="M1576 257V256H1536V257V258H1576V257Z" fill="#D7D7D7" mask="url(#path-180-inside-52_901_5194)"/>
<g clip-path="url(#clip19_901_5194)">
<path d="M1550 235C1550.83 235 1551.5 235.672 1551.5 236.5C1551.5 237.328 1550.83 238 1550 238C1549.17 238 1548.5 237.328 1548.5 236.5C1548.5 235.672 1549.17 235 1550 235ZM1556 235C1556.83 235 1557.5 235.672 1557.5 236.5C1557.5 237.328 1556.83 238 1556 238C1555.17 238 1554.5 237.328 1554.5 236.5C1554.5 235.672 1555.17 235 1556 235ZM1562 235C1562.83 235 1563.5 235.672 1563.5 236.5C1563.5 237.328 1562.83 238 1562 238C1561.17 238 1560.5 237.328 1560.5 236.5C1560.5 235.672 1561.17 235 1562 235Z" fill="#979797"/>
</g>
<mask id="path-183-inside-53_901_5194" fill="white">
<path d="M1536 257H1576V298H1536V257Z"/>
</mask>
<path d="M1576 298V297H1536V298V299H1576V298Z" fill="#D7D7D7" mask="url(#path-183-inside-53_901_5194)"/>
<g clip-path="url(#clip20_901_5194)">
<path d="M1550 276C1550.83 276 1551.5 276.672 1551.5 277.5C1551.5 278.328 1550.83 279 1550 279C1549.17 279 1548.5 278.328 1548.5 277.5C1548.5 276.672 1549.17 276 1550 276ZM1556 276C1556.83 276 1557.5 276.672 1557.5 277.5C1557.5 278.328 1556.83 279 1556 279C1555.17 279 1554.5 278.328 1554.5 277.5C1554.5 276.672 1555.17 276 1556 276ZM1562 276C1562.83 276 1563.5 276.672 1563.5 277.5C1563.5 278.328 1562.83 279 1562 279C1561.17 279 1560.5 278.328 1560.5 277.5C1560.5 276.672 1561.17 276 1562 276Z" fill="#979797"/>
</g>
<mask id="path-186-inside-54_901_5194" fill="white">
<path d="M1536 298H1576V339H1536V298Z"/>
</mask>
<path d="M1576 339V338H1536V339V340H1576V339Z" fill="#D7D7D7" mask="url(#path-186-inside-54_901_5194)"/>
<g clip-path="url(#clip21_901_5194)">
<path d="M1550 317C1550.83 317 1551.5 317.672 1551.5 318.5C1551.5 319.328 1550.83 320 1550 320C1549.17 320 1548.5 319.328 1548.5 318.5C1548.5 317.672 1549.17 317 1550 317ZM1556 317C1556.83 317 1557.5 317.672 1557.5 318.5C1557.5 319.328 1556.83 320 1556 320C1555.17 320 1554.5 319.328 1554.5 318.5C1554.5 317.672 1555.17 317 1556 317ZM1562 317C1562.83 317 1563.5 317.672 1563.5 318.5C1563.5 319.328 1562.83 320 1562 320C1561.17 320 1560.5 319.328 1560.5 318.5C1560.5 317.672 1561.17 317 1562 317Z" fill="#979797"/>
</g>
<mask id="path-189-inside-55_901_5194" fill="white">
<path d="M1536 339H1576V380H1536V339Z"/>
</mask>
<path d="M1576 380V379H1536V380V381H1576V380Z" fill="#D7D7D7" mask="url(#path-189-inside-55_901_5194)"/>
<g clip-path="url(#clip22_901_5194)">
<path d="M1550 358C1550.83 358 1551.5 358.672 1551.5 359.5C1551.5 360.328 1550.83 361 1550 361C1549.17 361 1548.5 360.328 1548.5 359.5C1548.5 358.672 1549.17 358 1550 358ZM1556 358C1556.83 358 1557.5 358.672 1557.5 359.5C1557.5 360.328 1556.83 361 1556 361C1555.17 361 1554.5 360.328 1554.5 359.5C1554.5 358.672 1555.17 358 1556 358ZM1562 358C1562.83 358 1563.5 358.672 1563.5 359.5C1563.5 360.328 1562.83 361 1562 361C1561.17 361 1560.5 360.328 1560.5 359.5C1560.5 358.672 1561.17 358 1562 358Z" fill="#979797"/>
</g>
<mask id="path-192-inside-56_901_5194" fill="white">
<path d="M1536 380H1576V421H1536V380Z"/>
</mask>
<path d="M1576 421V420H1536V421V422H1576V421Z" fill="#D7D7D7" mask="url(#path-192-inside-56_901_5194)"/>
<g clip-path="url(#clip23_901_5194)">
<path d="M1550 399C1550.83 399 1551.5 399.672 1551.5 400.5C1551.5 401.328 1550.83 402 1550 402C1549.17 402 1548.5 401.328 1548.5 400.5C1548.5 399.672 1549.17 399 1550 399ZM1556 399C1556.83 399 1557.5 399.672 1557.5 400.5C1557.5 401.328 1556.83 402 1556 402C1555.17 402 1554.5 401.328 1554.5 400.5C1554.5 399.672 1555.17 399 1556 399ZM1562 399C1562.83 399 1563.5 399.672 1563.5 400.5C1563.5 401.328 1562.83 402 1562 402C1561.17 402 1560.5 401.328 1560.5 400.5C1560.5 399.672 1561.17 399 1562 399Z" fill="#979797"/>
</g>
<mask id="path-195-inside-57_901_5194" fill="white">
<path d="M1536 421H1576V462H1536V421Z"/>
</mask>
<path d="M1576 462V461H1536V462V463H1576V462Z" fill="#D7D7D7" mask="url(#path-195-inside-57_901_5194)"/>
<g clip-path="url(#clip24_901_5194)">
<path d="M1550 440C1550.83 440 1551.5 440.672 1551.5 441.5C1551.5 442.328 1550.83 443 1550 443C1549.17 443 1548.5 442.328 1548.5 441.5C1548.5 440.672 1549.17 440 1550 440ZM1556 440C1556.83 440 1557.5 440.672 1557.5 441.5C1557.5 442.328 1556.83 443 1556 443C1555.17 443 1554.5 442.328 1554.5 441.5C1554.5 440.672 1555.17 440 1556 440ZM1562 440C1562.83 440 1563.5 440.672 1563.5 441.5C1563.5 442.328 1562.83 443 1562 443C1561.17 443 1560.5 442.328 1560.5 441.5C1560.5 440.672 1561.17 440 1562 440Z" fill="#979797"/>
</g>
<mask id="path-198-inside-58_901_5194" fill="white">
<path d="M1536 462H1576V503H1536V462Z"/>
</mask>
<path d="M1576 503V502H1536V503V504H1576V503Z" fill="#D7D7D7" mask="url(#path-198-inside-58_901_5194)"/>
<g clip-path="url(#clip25_901_5194)">
<path d="M1550 481C1550.83 481 1551.5 481.672 1551.5 482.5C1551.5 483.328 1550.83 484 1550 484C1549.17 484 1548.5 483.328 1548.5 482.5C1548.5 481.672 1549.17 481 1550 481ZM1556 481C1556.83 481 1557.5 481.672 1557.5 482.5C1557.5 483.328 1556.83 484 1556 484C1555.17 484 1554.5 483.328 1554.5 482.5C1554.5 481.672 1555.17 481 1556 481ZM1562 481C1562.83 481 1563.5 481.672 1563.5 482.5C1563.5 483.328 1562.83 484 1562 484C1561.17 484 1560.5 483.328 1560.5 482.5C1560.5 481.672 1561.17 481 1562 481Z" fill="#979797"/>
</g>
<mask id="path-201-inside-59_901_5194" fill="white">
<path d="M1536 503H1576V544H1536V503Z"/>
</mask>
<path d="M1576 544V543H1536V544V545H1576V544Z" fill="#D7D7D7" mask="url(#path-201-inside-59_901_5194)"/>
<g clip-path="url(#clip26_901_5194)">
<path d="M1550 522C1550.83 522 1551.5 522.672 1551.5 523.5C1551.5 524.328 1550.83 525 1550 525C1549.17 525 1548.5 524.328 1548.5 523.5C1548.5 522.672 1549.17 522 1550 522ZM1556 522C1556.83 522 1557.5 522.672 1557.5 523.5C1557.5 524.328 1556.83 525 1556 525C1555.17 525 1554.5 524.328 1554.5 523.5C1554.5 522.672 1555.17 522 1556 522ZM1562 522C1562.83 522 1563.5 522.672 1563.5 523.5C1563.5 524.328 1562.83 525 1562 525C1561.17 525 1560.5 524.328 1560.5 523.5C1560.5 522.672 1561.17 522 1562 522Z" fill="#979797"/>
</g>
<mask id="path-204-inside-60_901_5194" fill="white">
<path d="M1536 544H1576V585H1536V544Z"/>
</mask>
<path d="M1576 585V584H1536V585V586H1576V585Z" fill="#D7D7D7" mask="url(#path-204-inside-60_901_5194)"/>
<g clip-path="url(#clip27_901_5194)">
<path d="M1550 563C1550.83 563 1551.5 563.672 1551.5 564.5C1551.5 565.328 1550.83 566 1550 566C1549.17 566 1548.5 565.328 1548.5 564.5C1548.5 563.672 1549.17 563 1550 563ZM1556 563C1556.83 563 1557.5 563.672 1557.5 564.5C1557.5 565.328 1556.83 566 1556 566C1555.17 566 1554.5 565.328 1554.5 564.5C1554.5 563.672 1555.17 563 1556 563ZM1562 563C1562.83 563 1563.5 563.672 1563.5 564.5C1563.5 565.328 1562.83 566 1562 566C1561.17 566 1560.5 565.328 1560.5 564.5C1560.5 563.672 1561.17 563 1562 563Z" fill="#979797"/>
</g>
</g>
</g>
</g>
</g>
</g>
<defs>
<clipPath id="clip0_901_5194">
<rect width="1600" height="1080" fill="white"/>
</clipPath>
<clipPath id="clip1_901_5194">
<rect width="1600" height="52" fill="white"/>
</clipPath>
<clipPath id="clip2_901_5194">
<rect width="24" height="24" fill="white" transform="translate(12 13)"/>
</clipPath>
<clipPath id="clip3_901_5194">
<rect width="24" height="24" fill="white" transform="translate(61.5 12)"/>
</clipPath>
<clipPath id="clip4_901_5194">
<rect width="24" height="24" fill="white" transform="translate(110 12)"/>
</clipPath>
<clipPath id="clip5_901_5194">
<rect width="20" height="20" fill="white" transform="translate(1556 14)"/>
</clipPath>
<clipPath id="clip6_901_5194">
<rect width="1600" height="1028" fill="white" transform="translate(0 52)"/>
</clipPath>
<clipPath id="clip7_901_5194">
<rect width="1600" height="960" fill="white" transform="translate(0 120)"/>
</clipPath>
<clipPath id="clip8_901_5194">
<rect width="1552" height="56" fill="white" transform="translate(24 120)"/>
</clipPath>
<clipPath id="clip9_901_5194">
<rect width="24" height="24" fill="white" transform="translate(1359 136)"/>
</clipPath>
<clipPath id="clip10_901_5194">
<rect width="24" height="24" fill="white" transform="translate(1399 136)"/>
</clipPath>
<clipPath id="clip11_901_5194">
<rect width="24" height="24" fill="white" transform="translate(1439 136)"/>
</clipPath>
<clipPath id="clip12_901_5194">
<rect width="1552" height="409" fill="white" transform="translate(24 176)"/>
</clipPath>
<clipPath id="clip13_901_5194">
<rect width="40" height="409" fill="white" transform="translate(24 176)"/>
</clipPath>
<clipPath id="clip14_901_5194">
<rect width="320" height="409" fill="white" transform="translate(64 176)"/>
</clipPath>
<clipPath id="clip15_901_5194">
<rect width="384" height="409" fill="white" transform="translate(384 176)"/>
</clipPath>
<clipPath id="clip16_901_5194">
<rect width="384" height="409" fill="white" transform="translate(768 176)"/>
</clipPath>
<clipPath id="clip17_901_5194">
<rect width="384" height="409" fill="white" transform="translate(1152 176)"/>
</clipPath>
<clipPath id="clip18_901_5194">
<rect width="40" height="409" fill="white" transform="translate(1536 176)"/>
</clipPath>
<clipPath id="clip19_901_5194">
<rect width="24" height="24" fill="white" transform="translate(1544 224.5)"/>
</clipPath>
<clipPath id="clip20_901_5194">
<rect width="24" height="24" fill="white" transform="translate(1544 265.5)"/>
</clipPath>
<clipPath id="clip21_901_5194">
<rect width="24" height="24" fill="white" transform="translate(1544 306.5)"/>
</clipPath>
<clipPath id="clip22_901_5194">
<rect width="24" height="24" fill="white" transform="translate(1544 347.5)"/>
</clipPath>
<clipPath id="clip23_901_5194">
<rect width="24" height="24" fill="white" transform="translate(1544 388.5)"/>
</clipPath>
<clipPath id="clip24_901_5194">
<rect width="24" height="24" fill="white" transform="translate(1544 429.5)"/>
</clipPath>
<clipPath id="clip25_901_5194">
<rect width="24" height="24" fill="white" transform="translate(1544 470.5)"/>
</clipPath>
<clipPath id="clip26_901_5194">
<rect width="24" height="24" fill="white" transform="translate(1544 511.5)"/>
</clipPath>
<clipPath id="clip27_901_5194">
<rect width="24" height="24" fill="white" transform="translate(1544 552.5)"/>
</clipPath>
</defs>
</svg>
